G75*
%MOIN*%
%OFA0B0*%
%FSLAX25Y25*%
%IPPOS*%
%LPD*%
%AMOC8*
5,1,8,0,0,1.08239X$1,22.5*
%
%ADD10R,0.04331X0.03937*%
%ADD11R,0.01181X0.04331*%
%ADD12R,0.04331X0.01181*%
%ADD13R,0.03937X0.04331*%
%ADD14R,0.04724X0.02362*%
%ADD15R,0.07874X0.04724*%
%ADD16R,0.05315X0.02362*%
%ADD17C,0.01181*%
%ADD18R,0.02362X0.02362*%
%ADD19R,0.06299X0.09449*%
D10*
G36*
X0175616Y0168271D02*
X0179364Y0170436D01*
X0181332Y0167029D01*
X0177584Y0164864D01*
X0175616Y0168271D01*
G37*
G36*
X0181412Y0171617D02*
X0185160Y0173782D01*
X0187128Y0170375D01*
X0183380Y0168210D01*
X0181412Y0171617D01*
G37*
G36*
X0190668Y0194210D02*
X0192833Y0190462D01*
X0189426Y0188494D01*
X0187261Y0192242D01*
X0190668Y0194210D01*
G37*
G36*
X0187322Y0200006D02*
X0189487Y0196258D01*
X0186080Y0194290D01*
X0183915Y0198038D01*
X0187322Y0200006D01*
G37*
X0194987Y0211500D03*
X0201680Y0211500D03*
G36*
X0207220Y0196008D02*
X0209385Y0199756D01*
X0212792Y0197788D01*
X0210627Y0194040D01*
X0207220Y0196008D01*
G37*
G36*
X0203874Y0190212D02*
X0206039Y0193960D01*
X0209446Y0191992D01*
X0207281Y0188244D01*
X0203874Y0190212D01*
G37*
G36*
X0214325Y0168887D02*
X0210577Y0171052D01*
X0212545Y0174459D01*
X0216293Y0172294D01*
X0214325Y0168887D01*
G37*
G36*
X0220121Y0165541D02*
X0216373Y0167706D01*
X0218341Y0171113D01*
X0222089Y0168948D01*
X0220121Y0165541D01*
G37*
G36*
X0234874Y0172712D02*
X0237039Y0176460D01*
X0240446Y0174492D01*
X0238281Y0170744D01*
X0234874Y0172712D01*
G37*
G36*
X0238221Y0178508D02*
X0240386Y0182256D01*
X0243793Y0180288D01*
X0241628Y0176540D01*
X0238221Y0178508D01*
G37*
G36*
X0237121Y0195541D02*
X0233373Y0197706D01*
X0235341Y0201113D01*
X0239089Y0198948D01*
X0237121Y0195541D01*
G37*
G36*
X0231325Y0198887D02*
X0227577Y0201052D01*
X0229545Y0204459D01*
X0233293Y0202294D01*
X0231325Y0198887D01*
G37*
X0221680Y0245000D03*
X0214987Y0245000D03*
G36*
X0163374Y0202294D02*
X0167122Y0204459D01*
X0169090Y0201052D01*
X0165342Y0198887D01*
X0163374Y0202294D01*
G37*
G36*
X0157577Y0198948D02*
X0161325Y0201113D01*
X0163293Y0197706D01*
X0159545Y0195541D01*
X0157577Y0198948D01*
G37*
G36*
X0156145Y0182006D02*
X0158310Y0178258D01*
X0154903Y0176290D01*
X0152738Y0180038D01*
X0156145Y0182006D01*
G37*
G36*
X0159491Y0176210D02*
X0161656Y0172462D01*
X0158249Y0170494D01*
X0156084Y0174242D01*
X0159491Y0176210D01*
G37*
X0151680Y0245000D03*
X0144987Y0245000D03*
D11*
X0193215Y0238661D03*
X0195774Y0238661D03*
X0198333Y0238661D03*
X0200892Y0238661D03*
X0203451Y0238661D03*
X0203451Y0221338D03*
X0200892Y0221338D03*
X0198333Y0221338D03*
X0195774Y0221338D03*
X0193215Y0221338D03*
G36*
X0176057Y0192367D02*
X0175467Y0193389D01*
X0179215Y0195553D01*
X0179805Y0194531D01*
X0176057Y0192367D01*
G37*
G36*
X0177337Y0190151D02*
X0176747Y0191173D01*
X0180495Y0193337D01*
X0181085Y0192315D01*
X0177337Y0190151D01*
G37*
G36*
X0178616Y0187935D02*
X0178026Y0188957D01*
X0181774Y0191121D01*
X0182364Y0190099D01*
X0178616Y0187935D01*
G37*
G36*
X0179896Y0185718D02*
X0179306Y0186740D01*
X0183054Y0188904D01*
X0183644Y0187882D01*
X0179896Y0185718D01*
G37*
G36*
X0181175Y0183502D02*
X0180585Y0184524D01*
X0184333Y0186688D01*
X0184923Y0185666D01*
X0181175Y0183502D01*
G37*
G36*
X0179524Y0181637D02*
X0180546Y0182227D01*
X0182710Y0178479D01*
X0181688Y0177889D01*
X0179524Y0181637D01*
G37*
G36*
X0177307Y0180358D02*
X0178329Y0180948D01*
X0180493Y0177200D01*
X0179471Y0176610D01*
X0177307Y0180358D01*
G37*
G36*
X0175091Y0179078D02*
X0176113Y0179668D01*
X0178277Y0175920D01*
X0177255Y0175330D01*
X0175091Y0179078D01*
G37*
G36*
X0172875Y0177799D02*
X0173897Y0178389D01*
X0176061Y0174641D01*
X0175039Y0174051D01*
X0172875Y0177799D01*
G37*
G36*
X0170659Y0176519D02*
X0171681Y0177109D01*
X0173845Y0173361D01*
X0172823Y0172771D01*
X0170659Y0176519D01*
G37*
G36*
X0168991Y0177830D02*
X0169581Y0176808D01*
X0165833Y0174644D01*
X0165243Y0175666D01*
X0168991Y0177830D01*
G37*
G36*
X0167711Y0180046D02*
X0168301Y0179024D01*
X0164553Y0176860D01*
X0163963Y0177882D01*
X0167711Y0180046D01*
G37*
G36*
X0166431Y0182262D02*
X0167021Y0181240D01*
X0163273Y0179076D01*
X0162683Y0180098D01*
X0166431Y0182262D01*
G37*
G36*
X0165152Y0184479D02*
X0165742Y0183457D01*
X0161994Y0181293D01*
X0161404Y0182315D01*
X0165152Y0184479D01*
G37*
G36*
X0163872Y0186695D02*
X0164462Y0185673D01*
X0160714Y0183509D01*
X0160124Y0184531D01*
X0163872Y0186695D01*
G37*
G36*
X0165183Y0188363D02*
X0164161Y0187773D01*
X0161997Y0191521D01*
X0163019Y0192111D01*
X0165183Y0188363D01*
G37*
G36*
X0167400Y0189643D02*
X0166378Y0189053D01*
X0164214Y0192801D01*
X0165236Y0193391D01*
X0167400Y0189643D01*
G37*
G36*
X0169616Y0190922D02*
X0168594Y0190332D01*
X0166430Y0194080D01*
X0167452Y0194670D01*
X0169616Y0190922D01*
G37*
G36*
X0171832Y0192202D02*
X0170810Y0191612D01*
X0168646Y0195360D01*
X0169668Y0195950D01*
X0171832Y0192202D01*
G37*
G36*
X0174048Y0193481D02*
X0173026Y0192891D01*
X0170862Y0196639D01*
X0171884Y0197229D01*
X0174048Y0193481D01*
G37*
G36*
X0216081Y0184524D02*
X0215491Y0183502D01*
X0211743Y0185666D01*
X0212333Y0186688D01*
X0216081Y0184524D01*
G37*
G36*
X0217361Y0186740D02*
X0216771Y0185718D01*
X0213023Y0187882D01*
X0213613Y0188904D01*
X0217361Y0186740D01*
G37*
G36*
X0218640Y0188957D02*
X0218050Y0187935D01*
X0214302Y0190099D01*
X0214892Y0191121D01*
X0218640Y0188957D01*
G37*
G36*
X0219920Y0191173D02*
X0219330Y0190151D01*
X0215582Y0192315D01*
X0216172Y0193337D01*
X0219920Y0191173D01*
G37*
G36*
X0221199Y0193389D02*
X0220609Y0192367D01*
X0216861Y0194531D01*
X0217451Y0195553D01*
X0221199Y0193389D01*
G37*
G36*
X0223641Y0192891D02*
X0222619Y0193481D01*
X0224783Y0197229D01*
X0225805Y0196639D01*
X0223641Y0192891D01*
G37*
G36*
X0225857Y0191612D02*
X0224835Y0192202D01*
X0226999Y0195950D01*
X0228021Y0195360D01*
X0225857Y0191612D01*
G37*
G36*
X0228073Y0190332D02*
X0227051Y0190922D01*
X0229215Y0194670D01*
X0230237Y0194080D01*
X0228073Y0190332D01*
G37*
G36*
X0230289Y0189053D02*
X0229267Y0189643D01*
X0231431Y0193391D01*
X0232453Y0192801D01*
X0230289Y0189053D01*
G37*
G36*
X0232505Y0187773D02*
X0231483Y0188363D01*
X0233647Y0192111D01*
X0234669Y0191521D01*
X0232505Y0187773D01*
G37*
G36*
X0232204Y0185673D02*
X0232794Y0186695D01*
X0236542Y0184531D01*
X0235952Y0183509D01*
X0232204Y0185673D01*
G37*
G36*
X0230925Y0183457D02*
X0231515Y0184479D01*
X0235263Y0182315D01*
X0234673Y0181293D01*
X0230925Y0183457D01*
G37*
G36*
X0229645Y0181240D02*
X0230235Y0182262D01*
X0233983Y0180098D01*
X0233393Y0179076D01*
X0229645Y0181240D01*
G37*
G36*
X0228366Y0179024D02*
X0228956Y0180046D01*
X0232704Y0177882D01*
X0232114Y0176860D01*
X0228366Y0179024D01*
G37*
G36*
X0227086Y0176808D02*
X0227676Y0177830D01*
X0231424Y0175666D01*
X0230834Y0174644D01*
X0227086Y0176808D01*
G37*
G36*
X0224986Y0177109D02*
X0226008Y0176519D01*
X0223844Y0172771D01*
X0222822Y0173361D01*
X0224986Y0177109D01*
G37*
G36*
X0222770Y0178389D02*
X0223792Y0177799D01*
X0221628Y0174051D01*
X0220606Y0174641D01*
X0222770Y0178389D01*
G37*
G36*
X0220554Y0179668D02*
X0221576Y0179078D01*
X0219412Y0175330D01*
X0218390Y0175920D01*
X0220554Y0179668D01*
G37*
G36*
X0218337Y0180948D02*
X0219359Y0180358D01*
X0217195Y0176610D01*
X0216173Y0177200D01*
X0218337Y0180948D01*
G37*
G36*
X0216121Y0182227D02*
X0217143Y0181637D01*
X0214979Y0177889D01*
X0213957Y0178479D01*
X0216121Y0182227D01*
G37*
D12*
X0207388Y0224882D03*
X0207388Y0227441D03*
X0207388Y0230000D03*
X0207388Y0232559D03*
X0207388Y0235118D03*
X0189672Y0235118D03*
X0189672Y0232559D03*
X0189672Y0230000D03*
X0189672Y0227441D03*
X0189672Y0224882D03*
D13*
X0180333Y0226653D03*
X0180333Y0233346D03*
X0178333Y0256653D03*
X0178333Y0263346D03*
X0168833Y0263346D03*
X0168833Y0256653D03*
X0143333Y0256653D03*
X0143333Y0263346D03*
X0218333Y0263346D03*
X0218333Y0256653D03*
X0216333Y0233346D03*
X0223333Y0233346D03*
X0223333Y0226653D03*
X0216333Y0226653D03*
D14*
X0209357Y0252500D03*
X0209357Y0257500D03*
X0209357Y0262500D03*
X0209357Y0267500D03*
X0187310Y0267500D03*
X0187310Y0262500D03*
X0187310Y0257500D03*
X0187310Y0252500D03*
D15*
X0133865Y0211024D03*
X0133865Y0188976D03*
X0262802Y0188976D03*
X0262802Y0211024D03*
D16*
X0248333Y0205906D03*
X0248333Y0201969D03*
X0248333Y0198031D03*
X0248333Y0194094D03*
X0148334Y0194094D03*
X0148334Y0198031D03*
X0148334Y0201969D03*
X0148334Y0205906D03*
D17*
X0158503Y0243622D02*
X0158503Y0246378D01*
X0161259Y0246378D01*
X0161259Y0243622D01*
X0158503Y0243622D01*
X0158503Y0244744D02*
X0161259Y0244744D01*
X0161259Y0245866D02*
X0158503Y0245866D01*
X0165408Y0246378D02*
X0165408Y0243622D01*
X0165408Y0246378D02*
X0168164Y0246378D01*
X0168164Y0243622D01*
X0165408Y0243622D01*
X0165408Y0244744D02*
X0168164Y0244744D01*
X0168164Y0245866D02*
X0165408Y0245866D01*
X0220725Y0218494D02*
X0223111Y0219872D01*
X0224489Y0217486D01*
X0222103Y0216108D01*
X0220725Y0218494D01*
X0221455Y0217230D02*
X0224046Y0217230D01*
X0223989Y0218352D02*
X0220807Y0218352D01*
X0222422Y0219474D02*
X0223341Y0219474D01*
X0226564Y0213892D02*
X0224178Y0212514D01*
X0226564Y0213892D02*
X0227942Y0211506D01*
X0225556Y0210128D01*
X0224178Y0212514D01*
X0224908Y0211250D02*
X0227499Y0211250D01*
X0227442Y0212372D02*
X0224260Y0212372D01*
X0225875Y0213494D02*
X0226794Y0213494D01*
X0228502Y0243622D02*
X0228502Y0246378D01*
X0231258Y0246378D01*
X0231258Y0243622D01*
X0228502Y0243622D01*
X0228502Y0244744D02*
X0231258Y0244744D01*
X0231258Y0245866D02*
X0228502Y0245866D01*
X0235408Y0246378D02*
X0235408Y0243622D01*
X0235408Y0246378D02*
X0238164Y0246378D01*
X0238164Y0243622D01*
X0235408Y0243622D01*
X0235408Y0244744D02*
X0238164Y0244744D01*
X0238164Y0245866D02*
X0235408Y0245866D01*
D18*
G36*
X0176525Y0219864D02*
X0175344Y0217819D01*
X0173299Y0219000D01*
X0174480Y0221045D01*
X0176525Y0219864D01*
G37*
G36*
X0174557Y0216455D02*
X0173376Y0214410D01*
X0171331Y0215591D01*
X0172512Y0217636D01*
X0174557Y0216455D01*
G37*
G36*
X0171604Y0211340D02*
X0170423Y0209295D01*
X0168378Y0210476D01*
X0169559Y0212521D01*
X0171604Y0211340D01*
G37*
D19*
X0192723Y0170000D03*
X0203944Y0170000D03*
M02*
