G75*
%MOIN*%
%OFA0B0*%
%FSLAX25Y25*%
%IPPOS*%
%LPD*%
%AMOC8*
5,1,8,0,0,1.08239X$1,22.5*
%
%ADD10C,0.00800*%
%ADD11C,0.07400*%
%ADD12R,0.02500X0.05000*%
%ADD13C,0.03400*%
%ADD14C,0.03937*%
%ADD15C,0.03000*%
%ADD16C,0.02900*%
%ADD17C,0.01200*%
D10*
X0135380Y0127000D02*
X0136359Y0127979D01*
X0136902Y0129290D01*
X0136902Y0130710D01*
X0136359Y0132021D01*
X0135355Y0133025D01*
X0134043Y0133568D01*
X0132623Y0133568D01*
X0131312Y0133025D01*
X0130333Y0132047D01*
X0130333Y0283000D01*
X0153399Y0283000D01*
X0151099Y0281070D01*
X0149459Y0278230D01*
X0148890Y0275000D01*
X0149459Y0271770D01*
X0151099Y0268930D01*
X0153612Y0266822D01*
X0156693Y0265700D01*
X0159973Y0265700D01*
X0161910Y0266405D01*
X0147505Y0252000D01*
X0145647Y0252000D01*
X0145061Y0252586D01*
X0143940Y0253050D01*
X0142727Y0253050D01*
X0141606Y0252586D01*
X0140748Y0251728D01*
X0140283Y0250607D01*
X0140283Y0249393D01*
X0140748Y0248272D01*
X0141333Y0247686D01*
X0141333Y0197313D01*
X0140748Y0196728D01*
X0140283Y0195607D01*
X0140283Y0194393D01*
X0140748Y0193272D01*
X0141606Y0192414D01*
X0142727Y0191950D01*
X0143940Y0191950D01*
X0145061Y0192414D01*
X0145919Y0193272D01*
X0146383Y0194393D01*
X0146383Y0195607D01*
X0145919Y0196728D01*
X0145333Y0197313D01*
X0145333Y0247686D01*
X0145647Y0248000D01*
X0147505Y0248000D01*
X0147428Y0247923D01*
X0146843Y0247352D01*
X0146843Y0247338D01*
X0146833Y0247328D01*
X0146833Y0246512D01*
X0146343Y0205838D01*
X0146333Y0205828D01*
X0146333Y0205011D01*
X0146323Y0204196D01*
X0146333Y0204186D01*
X0146333Y0202172D01*
X0150283Y0198222D01*
X0150283Y0197393D01*
X0150748Y0196272D01*
X0151606Y0195414D01*
X0152727Y0194950D01*
X0153940Y0194950D01*
X0155061Y0195414D01*
X0155919Y0196272D01*
X0156383Y0197393D01*
X0156383Y0198607D01*
X0155919Y0199728D01*
X0155061Y0200586D01*
X0153940Y0201050D01*
X0153112Y0201050D01*
X0151162Y0203000D01*
X0159162Y0203000D01*
X0160333Y0204172D01*
X0162162Y0206000D01*
X0170626Y0206000D01*
X0170463Y0205607D01*
X0170463Y0204778D01*
X0156333Y0190649D01*
X0156333Y0149172D01*
X0161910Y0143595D01*
X0159973Y0144300D01*
X0156693Y0144300D01*
X0153612Y0143178D01*
X0153612Y0143178D01*
X0151099Y0141070D01*
X0149459Y0138230D01*
X0148996Y0135603D01*
X0147630Y0135603D01*
X0147390Y0135364D01*
X0147151Y0135603D01*
X0145494Y0135603D01*
X0145015Y0135123D01*
X0144536Y0135603D01*
X0142879Y0135603D01*
X0142285Y0135008D01*
X0142133Y0134856D01*
X0141386Y0135603D01*
X0138662Y0135603D01*
X0138128Y0135069D01*
X0136957Y0133897D01*
X0136957Y0130105D01*
X0137490Y0129572D01*
X0138662Y0128400D01*
X0141386Y0128400D01*
X0141599Y0128612D01*
X0141811Y0128400D01*
X0145603Y0128400D01*
X0146083Y0128879D01*
X0146562Y0128400D01*
X0148219Y0128400D01*
X0148813Y0128994D01*
X0150239Y0130420D01*
X0151099Y0128930D01*
X0153399Y0127000D01*
X0135380Y0127000D01*
X0135775Y0127396D02*
X0152928Y0127396D01*
X0151976Y0128194D02*
X0136448Y0128194D01*
X0136779Y0128993D02*
X0138069Y0128993D01*
X0137271Y0129791D02*
X0136902Y0129791D01*
X0136902Y0130590D02*
X0136957Y0130590D01*
X0136957Y0131388D02*
X0136621Y0131388D01*
X0136957Y0132187D02*
X0136193Y0132187D01*
X0136957Y0132985D02*
X0135395Y0132985D01*
X0136957Y0133784D02*
X0130333Y0133784D01*
X0130333Y0134582D02*
X0137641Y0134582D01*
X0138440Y0135381D02*
X0130333Y0135381D01*
X0130333Y0136179D02*
X0149098Y0136179D01*
X0149239Y0136978D02*
X0130333Y0136978D01*
X0130333Y0137776D02*
X0149379Y0137776D01*
X0149459Y0138230D02*
X0149459Y0138230D01*
X0149658Y0138575D02*
X0130333Y0138575D01*
X0130333Y0139373D02*
X0150120Y0139373D01*
X0150581Y0140172D02*
X0130333Y0140172D01*
X0130333Y0140970D02*
X0151042Y0140970D01*
X0151099Y0141070D02*
X0151099Y0141070D01*
X0151099Y0141070D01*
X0151932Y0141769D02*
X0130333Y0141769D01*
X0130333Y0142567D02*
X0152883Y0142567D01*
X0154127Y0143366D02*
X0130333Y0143366D01*
X0130333Y0144164D02*
X0156321Y0144164D01*
X0158945Y0146560D02*
X0130333Y0146560D01*
X0130333Y0147358D02*
X0158147Y0147358D01*
X0157348Y0148157D02*
X0130333Y0148157D01*
X0130333Y0148955D02*
X0156550Y0148955D01*
X0156333Y0149754D02*
X0130333Y0149754D01*
X0130333Y0150552D02*
X0156333Y0150552D01*
X0156333Y0151351D02*
X0130333Y0151351D01*
X0130333Y0152149D02*
X0156333Y0152149D01*
X0156333Y0152948D02*
X0130333Y0152948D01*
X0130333Y0153746D02*
X0156333Y0153746D01*
X0156333Y0154545D02*
X0130333Y0154545D01*
X0130333Y0155343D02*
X0156333Y0155343D01*
X0156333Y0156142D02*
X0130333Y0156142D01*
X0130333Y0156940D02*
X0156333Y0156940D01*
X0156333Y0157739D02*
X0130333Y0157739D01*
X0130333Y0158537D02*
X0156333Y0158537D01*
X0156333Y0159336D02*
X0130333Y0159336D01*
X0130333Y0160134D02*
X0156333Y0160134D01*
X0156333Y0160933D02*
X0130333Y0160933D01*
X0130333Y0161732D02*
X0156333Y0161732D01*
X0156333Y0162530D02*
X0130333Y0162530D01*
X0130333Y0163329D02*
X0156333Y0163329D01*
X0156333Y0164127D02*
X0130333Y0164127D01*
X0130333Y0164926D02*
X0156333Y0164926D01*
X0156333Y0165724D02*
X0130333Y0165724D01*
X0130333Y0166523D02*
X0156333Y0166523D01*
X0156333Y0167321D02*
X0130333Y0167321D01*
X0130333Y0168120D02*
X0156333Y0168120D01*
X0156333Y0168918D02*
X0130333Y0168918D01*
X0130333Y0169717D02*
X0156333Y0169717D01*
X0156333Y0170515D02*
X0130333Y0170515D01*
X0130333Y0171314D02*
X0156333Y0171314D01*
X0156333Y0172112D02*
X0130333Y0172112D01*
X0130333Y0172911D02*
X0156333Y0172911D01*
X0156333Y0173709D02*
X0130333Y0173709D01*
X0130333Y0174508D02*
X0156333Y0174508D01*
X0156333Y0175306D02*
X0130333Y0175306D01*
X0130333Y0176105D02*
X0156333Y0176105D01*
X0156333Y0176903D02*
X0130333Y0176903D01*
X0130333Y0177702D02*
X0156333Y0177702D01*
X0156333Y0178500D02*
X0130333Y0178500D01*
X0130333Y0179299D02*
X0156333Y0179299D01*
X0156333Y0180097D02*
X0130333Y0180097D01*
X0130333Y0180896D02*
X0156333Y0180896D01*
X0156333Y0181694D02*
X0130333Y0181694D01*
X0130333Y0182493D02*
X0156333Y0182493D01*
X0156333Y0183291D02*
X0130333Y0183291D01*
X0130333Y0184090D02*
X0156333Y0184090D01*
X0156333Y0184888D02*
X0130333Y0184888D01*
X0130333Y0185687D02*
X0156333Y0185687D01*
X0156333Y0186485D02*
X0130333Y0186485D01*
X0130333Y0187284D02*
X0156333Y0187284D01*
X0156333Y0188082D02*
X0130333Y0188082D01*
X0130333Y0188881D02*
X0156333Y0188881D01*
X0156333Y0189679D02*
X0130333Y0189679D01*
X0130333Y0190478D02*
X0156333Y0190478D01*
X0156961Y0191276D02*
X0130333Y0191276D01*
X0130333Y0192075D02*
X0142425Y0192075D01*
X0141147Y0192873D02*
X0130333Y0192873D01*
X0130333Y0193672D02*
X0140582Y0193672D01*
X0140283Y0194470D02*
X0130333Y0194470D01*
X0130333Y0195269D02*
X0140283Y0195269D01*
X0140474Y0196068D02*
X0130333Y0196068D01*
X0130333Y0196866D02*
X0140886Y0196866D01*
X0141333Y0197665D02*
X0130333Y0197665D01*
X0130333Y0198463D02*
X0141333Y0198463D01*
X0141333Y0199262D02*
X0130333Y0199262D01*
X0130333Y0200060D02*
X0141333Y0200060D01*
X0141333Y0200859D02*
X0130333Y0200859D01*
X0130333Y0201657D02*
X0141333Y0201657D01*
X0141333Y0202456D02*
X0130333Y0202456D01*
X0130333Y0203254D02*
X0141333Y0203254D01*
X0141333Y0204053D02*
X0130333Y0204053D01*
X0130333Y0204851D02*
X0141333Y0204851D01*
X0141333Y0205650D02*
X0130333Y0205650D01*
X0130333Y0206448D02*
X0141333Y0206448D01*
X0141333Y0207247D02*
X0130333Y0207247D01*
X0130333Y0208045D02*
X0141333Y0208045D01*
X0141333Y0208844D02*
X0130333Y0208844D01*
X0130333Y0209642D02*
X0141333Y0209642D01*
X0141333Y0210441D02*
X0130333Y0210441D01*
X0130333Y0211239D02*
X0141333Y0211239D01*
X0141333Y0212038D02*
X0130333Y0212038D01*
X0130333Y0212836D02*
X0141333Y0212836D01*
X0141333Y0213635D02*
X0130333Y0213635D01*
X0130333Y0214433D02*
X0141333Y0214433D01*
X0141333Y0215232D02*
X0130333Y0215232D01*
X0130333Y0216030D02*
X0141333Y0216030D01*
X0141333Y0216829D02*
X0130333Y0216829D01*
X0130333Y0217627D02*
X0141333Y0217627D01*
X0141333Y0218426D02*
X0130333Y0218426D01*
X0130333Y0219224D02*
X0141333Y0219224D01*
X0141333Y0220023D02*
X0130333Y0220023D01*
X0130333Y0220821D02*
X0141333Y0220821D01*
X0141333Y0221620D02*
X0130333Y0221620D01*
X0130333Y0222418D02*
X0141333Y0222418D01*
X0141333Y0223217D02*
X0130333Y0223217D01*
X0130333Y0224015D02*
X0141333Y0224015D01*
X0141333Y0224814D02*
X0130333Y0224814D01*
X0130333Y0225612D02*
X0141333Y0225612D01*
X0141333Y0226411D02*
X0130333Y0226411D01*
X0130333Y0227209D02*
X0141333Y0227209D01*
X0141333Y0228008D02*
X0130333Y0228008D01*
X0130333Y0228806D02*
X0141333Y0228806D01*
X0141333Y0229605D02*
X0130333Y0229605D01*
X0130333Y0230403D02*
X0141333Y0230403D01*
X0141333Y0231202D02*
X0130333Y0231202D01*
X0130333Y0232001D02*
X0141333Y0232001D01*
X0141333Y0232799D02*
X0130333Y0232799D01*
X0130333Y0233598D02*
X0141333Y0233598D01*
X0141333Y0234396D02*
X0130333Y0234396D01*
X0130333Y0235195D02*
X0141333Y0235195D01*
X0141333Y0235993D02*
X0130333Y0235993D01*
X0130333Y0236792D02*
X0141333Y0236792D01*
X0141333Y0237590D02*
X0130333Y0237590D01*
X0130333Y0238389D02*
X0141333Y0238389D01*
X0141333Y0239187D02*
X0130333Y0239187D01*
X0130333Y0239986D02*
X0141333Y0239986D01*
X0141333Y0240784D02*
X0130333Y0240784D01*
X0130333Y0241583D02*
X0141333Y0241583D01*
X0141333Y0242381D02*
X0130333Y0242381D01*
X0130333Y0243180D02*
X0141333Y0243180D01*
X0141333Y0243978D02*
X0130333Y0243978D01*
X0130333Y0244777D02*
X0141333Y0244777D01*
X0141333Y0245575D02*
X0130333Y0245575D01*
X0130333Y0246374D02*
X0141333Y0246374D01*
X0141333Y0247172D02*
X0130333Y0247172D01*
X0130333Y0247971D02*
X0141049Y0247971D01*
X0140542Y0248769D02*
X0130333Y0248769D01*
X0130333Y0249568D02*
X0140283Y0249568D01*
X0140283Y0250366D02*
X0130333Y0250366D01*
X0130333Y0251165D02*
X0140515Y0251165D01*
X0140984Y0251963D02*
X0130333Y0251963D01*
X0130333Y0252762D02*
X0142031Y0252762D01*
X0144636Y0252762D02*
X0148267Y0252762D01*
X0149065Y0253560D02*
X0130333Y0253560D01*
X0130333Y0254359D02*
X0149864Y0254359D01*
X0150662Y0255157D02*
X0130333Y0255157D01*
X0130333Y0255956D02*
X0151461Y0255956D01*
X0152259Y0256754D02*
X0130333Y0256754D01*
X0130333Y0257553D02*
X0153058Y0257553D01*
X0153856Y0258351D02*
X0130333Y0258351D01*
X0130333Y0259150D02*
X0154655Y0259150D01*
X0155453Y0259948D02*
X0130333Y0259948D01*
X0130333Y0260747D02*
X0156252Y0260747D01*
X0157050Y0261545D02*
X0130333Y0261545D01*
X0130333Y0262344D02*
X0157849Y0262344D01*
X0158647Y0263142D02*
X0130333Y0263142D01*
X0130333Y0263941D02*
X0159446Y0263941D01*
X0160244Y0264739D02*
X0130333Y0264739D01*
X0130333Y0265538D02*
X0161043Y0265538D01*
X0161722Y0266337D02*
X0161841Y0266337D01*
X0154945Y0266337D02*
X0130333Y0266337D01*
X0130333Y0267135D02*
X0153238Y0267135D01*
X0153612Y0266822D02*
X0153612Y0266822D01*
X0152287Y0267934D02*
X0130333Y0267934D01*
X0130333Y0268732D02*
X0151335Y0268732D01*
X0151099Y0268930D02*
X0151099Y0268930D01*
X0150752Y0269531D02*
X0130333Y0269531D01*
X0130333Y0270329D02*
X0150291Y0270329D01*
X0149830Y0271128D02*
X0130333Y0271128D01*
X0130333Y0271926D02*
X0149432Y0271926D01*
X0149459Y0271770D02*
X0149459Y0271770D01*
X0149291Y0272725D02*
X0130333Y0272725D01*
X0130333Y0273523D02*
X0149150Y0273523D01*
X0149009Y0274322D02*
X0130333Y0274322D01*
X0130333Y0275120D02*
X0148911Y0275120D01*
X0148890Y0275000D02*
X0148890Y0275000D01*
X0149052Y0275919D02*
X0130333Y0275919D01*
X0130333Y0276717D02*
X0149193Y0276717D01*
X0149333Y0277516D02*
X0130333Y0277516D01*
X0130333Y0278314D02*
X0149508Y0278314D01*
X0149459Y0278230D02*
X0149459Y0278230D01*
X0149969Y0279113D02*
X0130333Y0279113D01*
X0130333Y0279911D02*
X0150430Y0279911D01*
X0150891Y0280710D02*
X0130333Y0280710D01*
X0130333Y0281508D02*
X0151621Y0281508D01*
X0151099Y0281070D02*
X0151099Y0281070D01*
X0152573Y0282307D02*
X0130333Y0282307D01*
X0163268Y0283000D02*
X0169209Y0283000D01*
X0168971Y0282673D01*
X0168607Y0281958D01*
X0168359Y0281194D01*
X0168233Y0280401D01*
X0168233Y0280400D01*
X0172933Y0280400D01*
X0172933Y0279600D01*
X0168233Y0279600D01*
X0168233Y0279598D01*
X0168359Y0278806D01*
X0168607Y0278042D01*
X0168971Y0277327D01*
X0169443Y0276677D01*
X0170011Y0276110D01*
X0170660Y0275638D01*
X0170980Y0275475D01*
X0167115Y0271610D01*
X0167207Y0271770D01*
X0167207Y0271770D01*
X0167777Y0275000D01*
X0167207Y0278230D01*
X0165567Y0281070D01*
X0163268Y0283000D01*
X0164094Y0282307D02*
X0168785Y0282307D01*
X0168461Y0281508D02*
X0165045Y0281508D01*
X0165567Y0281070D02*
X0165567Y0281070D01*
X0165776Y0280710D02*
X0168282Y0280710D01*
X0168310Y0279113D02*
X0166698Y0279113D01*
X0166237Y0279911D02*
X0172933Y0279911D01*
X0168519Y0278314D02*
X0167159Y0278314D01*
X0167207Y0278230D02*
X0167207Y0278230D01*
X0167333Y0277516D02*
X0168875Y0277516D01*
X0169414Y0276717D02*
X0167474Y0276717D01*
X0167615Y0275919D02*
X0170274Y0275919D01*
X0170625Y0275120D02*
X0167756Y0275120D01*
X0167777Y0275000D02*
X0167777Y0275000D01*
X0167657Y0274322D02*
X0169827Y0274322D01*
X0169028Y0273523D02*
X0167516Y0273523D01*
X0167376Y0272725D02*
X0168230Y0272725D01*
X0167431Y0271926D02*
X0167235Y0271926D01*
X0173333Y0275000D02*
X0148333Y0250000D01*
X0143334Y0250000D01*
X0143333Y0250000D01*
X0143333Y0195000D01*
X0143333Y0195000D01*
X0145520Y0192873D02*
X0158558Y0192873D01*
X0157759Y0192075D02*
X0144242Y0192075D01*
X0146085Y0193672D02*
X0159356Y0193672D01*
X0160155Y0194470D02*
X0146383Y0194470D01*
X0146383Y0195269D02*
X0151957Y0195269D01*
X0150952Y0196068D02*
X0146192Y0196068D01*
X0145781Y0196866D02*
X0150502Y0196866D01*
X0150283Y0197665D02*
X0145333Y0197665D01*
X0145333Y0198463D02*
X0150042Y0198463D01*
X0149243Y0199262D02*
X0145333Y0199262D01*
X0145333Y0200060D02*
X0148445Y0200060D01*
X0147646Y0200859D02*
X0145333Y0200859D01*
X0145333Y0201657D02*
X0146848Y0201657D01*
X0146333Y0202456D02*
X0145333Y0202456D01*
X0145333Y0203254D02*
X0146333Y0203254D01*
X0146333Y0204053D02*
X0145333Y0204053D01*
X0145333Y0204851D02*
X0146331Y0204851D01*
X0146333Y0205650D02*
X0145333Y0205650D01*
X0145333Y0206448D02*
X0146351Y0206448D01*
X0146360Y0207247D02*
X0145333Y0207247D01*
X0145333Y0208045D02*
X0146370Y0208045D01*
X0146380Y0208844D02*
X0145333Y0208844D01*
X0145333Y0209642D02*
X0146389Y0209642D01*
X0146399Y0210441D02*
X0145333Y0210441D01*
X0145333Y0211239D02*
X0146408Y0211239D01*
X0146418Y0212038D02*
X0145333Y0212038D01*
X0145333Y0212836D02*
X0146428Y0212836D01*
X0146437Y0213635D02*
X0145333Y0213635D01*
X0145333Y0214433D02*
X0146447Y0214433D01*
X0146456Y0215232D02*
X0145333Y0215232D01*
X0145333Y0216030D02*
X0146466Y0216030D01*
X0146476Y0216829D02*
X0145333Y0216829D01*
X0145333Y0217627D02*
X0146485Y0217627D01*
X0146495Y0218426D02*
X0145333Y0218426D01*
X0145333Y0219224D02*
X0146505Y0219224D01*
X0146514Y0220023D02*
X0145333Y0220023D01*
X0145333Y0220821D02*
X0146524Y0220821D01*
X0146533Y0221620D02*
X0145333Y0221620D01*
X0145333Y0222418D02*
X0146543Y0222418D01*
X0146553Y0223217D02*
X0145333Y0223217D01*
X0145333Y0224015D02*
X0146562Y0224015D01*
X0146572Y0224814D02*
X0145333Y0224814D01*
X0145333Y0225612D02*
X0146582Y0225612D01*
X0146591Y0226411D02*
X0145333Y0226411D01*
X0145333Y0227209D02*
X0146601Y0227209D01*
X0146610Y0228008D02*
X0145333Y0228008D01*
X0145333Y0228806D02*
X0146620Y0228806D01*
X0146630Y0229605D02*
X0145333Y0229605D01*
X0145333Y0230403D02*
X0146639Y0230403D01*
X0146649Y0231202D02*
X0145333Y0231202D01*
X0145333Y0232001D02*
X0146659Y0232001D01*
X0146668Y0232799D02*
X0145333Y0232799D01*
X0145333Y0233598D02*
X0146678Y0233598D01*
X0146687Y0234396D02*
X0145333Y0234396D01*
X0145333Y0235195D02*
X0146697Y0235195D01*
X0146707Y0235993D02*
X0145333Y0235993D01*
X0145333Y0236792D02*
X0146716Y0236792D01*
X0146726Y0237590D02*
X0145333Y0237590D01*
X0145333Y0238389D02*
X0146735Y0238389D01*
X0146745Y0239187D02*
X0145333Y0239187D01*
X0145333Y0239986D02*
X0146755Y0239986D01*
X0146764Y0240784D02*
X0145333Y0240784D01*
X0145333Y0241583D02*
X0146774Y0241583D01*
X0146784Y0242381D02*
X0145333Y0242381D01*
X0145333Y0243180D02*
X0146793Y0243180D01*
X0146803Y0243978D02*
X0145333Y0243978D01*
X0145333Y0244777D02*
X0146812Y0244777D01*
X0146822Y0245575D02*
X0145333Y0245575D01*
X0145333Y0246374D02*
X0146832Y0246374D01*
X0146833Y0247172D02*
X0145333Y0247172D01*
X0145618Y0247971D02*
X0147476Y0247971D01*
X0148833Y0246500D02*
X0156333Y0254000D01*
X0160834Y0254000D01*
X0163333Y0256500D01*
X0163333Y0260000D01*
X0176334Y0273000D01*
X0209333Y0273000D01*
X0213333Y0277000D01*
X0213333Y0280000D01*
X0218333Y0278221D02*
X0218840Y0276998D01*
X0220331Y0275507D01*
X0222279Y0274700D01*
X0224388Y0274700D01*
X0226336Y0275507D01*
X0227826Y0276998D01*
X0228633Y0278946D01*
X0228633Y0281054D01*
X0227827Y0283000D01*
X0233399Y0283000D01*
X0231099Y0281070D01*
X0229459Y0278230D01*
X0228890Y0275000D01*
X0229459Y0271770D01*
X0231099Y0268930D01*
X0233612Y0266822D01*
X0236693Y0265700D01*
X0239973Y0265700D01*
X0243055Y0266822D01*
X0245567Y0268930D01*
X0245567Y0268930D01*
X0247207Y0271770D01*
X0247777Y0275000D01*
X0247207Y0278230D01*
X0245567Y0281070D01*
X0243268Y0283000D01*
X0261287Y0283000D01*
X0260308Y0282021D01*
X0259765Y0280710D01*
X0259765Y0279290D01*
X0260308Y0277979D01*
X0261312Y0276975D01*
X0262623Y0276431D01*
X0264043Y0276431D01*
X0265355Y0276975D01*
X0266333Y0277953D01*
X0266333Y0127000D01*
X0243268Y0127000D01*
X0245567Y0128930D01*
X0247207Y0131770D01*
X0247207Y0131770D01*
X0247777Y0135000D01*
X0247207Y0138230D01*
X0245567Y0141070D01*
X0243055Y0143178D01*
X0239973Y0144300D01*
X0236693Y0144300D01*
X0233612Y0143178D01*
X0233612Y0143178D01*
X0231099Y0141070D01*
X0229459Y0138230D01*
X0228890Y0135000D01*
X0229459Y0131770D01*
X0231099Y0128930D01*
X0233399Y0127000D01*
X0227458Y0127000D01*
X0227695Y0127327D01*
X0228060Y0128042D01*
X0228308Y0128806D01*
X0228433Y0129599D01*
X0228433Y0129600D01*
X0223733Y0129600D01*
X0223733Y0130400D01*
X0222933Y0130400D01*
X0222933Y0135100D01*
X0222932Y0135100D01*
X0222139Y0134975D01*
X0221376Y0134727D01*
X0220660Y0134362D01*
X0220011Y0133890D01*
X0219443Y0133323D01*
X0218971Y0132673D01*
X0218607Y0131958D01*
X0218454Y0131487D01*
X0217826Y0133002D01*
X0216335Y0134493D01*
X0214388Y0135300D01*
X0212279Y0135300D01*
X0210331Y0134493D01*
X0208840Y0133002D01*
X0208333Y0131779D01*
X0207826Y0133002D01*
X0206335Y0134493D01*
X0205854Y0134693D01*
X0244162Y0173000D01*
X0251020Y0173000D01*
X0251606Y0172414D01*
X0252727Y0171950D01*
X0253940Y0171950D01*
X0255061Y0172414D01*
X0255919Y0173272D01*
X0256383Y0174393D01*
X0256383Y0175607D01*
X0255919Y0176728D01*
X0255061Y0177586D01*
X0254061Y0178000D01*
X0256020Y0178000D01*
X0256606Y0177414D01*
X0257727Y0176950D01*
X0258940Y0176950D01*
X0260061Y0177414D01*
X0260919Y0178272D01*
X0261383Y0179393D01*
X0261383Y0180607D01*
X0260919Y0181728D01*
X0260061Y0182586D01*
X0258940Y0183050D01*
X0257727Y0183050D01*
X0256606Y0182586D01*
X0256020Y0182000D01*
X0245514Y0182000D01*
X0245854Y0182822D01*
X0245854Y0184035D01*
X0245662Y0184500D01*
X0254162Y0193000D01*
X0255333Y0194172D01*
X0255333Y0231033D01*
X0255919Y0231619D01*
X0256383Y0232740D01*
X0256383Y0233953D01*
X0255919Y0235074D01*
X0255061Y0235932D01*
X0253940Y0236396D01*
X0252727Y0236396D01*
X0251606Y0235932D01*
X0250833Y0235160D01*
X0250833Y0248328D01*
X0240662Y0258500D01*
X0239005Y0258500D01*
X0225662Y0258500D01*
X0224005Y0258500D01*
X0218555Y0253050D01*
X0217727Y0253050D01*
X0216606Y0252586D01*
X0215748Y0251728D01*
X0215283Y0250607D01*
X0215283Y0249393D01*
X0215748Y0248272D01*
X0216606Y0247414D01*
X0217727Y0246950D01*
X0218940Y0246950D01*
X0220061Y0247414D01*
X0220919Y0248272D01*
X0221383Y0249393D01*
X0221383Y0250222D01*
X0225662Y0254500D01*
X0239005Y0254500D01*
X0245955Y0247550D01*
X0245227Y0247550D01*
X0244106Y0247086D01*
X0243248Y0246228D01*
X0242783Y0245107D01*
X0242783Y0243893D01*
X0243248Y0242772D01*
X0243633Y0242387D01*
X0243633Y0237741D01*
X0238690Y0232798D01*
X0237887Y0233130D01*
X0235779Y0233130D01*
X0233831Y0232323D01*
X0232340Y0230832D01*
X0231533Y0228884D01*
X0231533Y0226776D01*
X0232340Y0224828D01*
X0233831Y0223337D01*
X0235779Y0222530D01*
X0237698Y0222530D01*
X0237340Y0222172D01*
X0236533Y0220224D01*
X0236533Y0218116D01*
X0237340Y0216168D01*
X0238831Y0214677D01*
X0240779Y0213870D01*
X0242887Y0213870D01*
X0244835Y0214677D01*
X0246326Y0216168D01*
X0246833Y0217392D01*
X0246833Y0196328D01*
X0243555Y0193050D01*
X0242727Y0193050D01*
X0241606Y0192586D01*
X0240748Y0191728D01*
X0240283Y0190607D01*
X0240283Y0189778D01*
X0222505Y0172000D01*
X0170647Y0172000D01*
X0170061Y0172586D01*
X0168940Y0173050D01*
X0167727Y0173050D01*
X0166606Y0172586D01*
X0165748Y0171728D01*
X0165333Y0170727D01*
X0165333Y0189172D01*
X0178112Y0201950D01*
X0178940Y0201950D01*
X0180061Y0202414D01*
X0180919Y0203272D01*
X0181383Y0204393D01*
X0181383Y0205607D01*
X0181220Y0206000D01*
X0188446Y0206000D01*
X0188748Y0205272D01*
X0189606Y0204414D01*
X0190727Y0203950D01*
X0191940Y0203950D01*
X0193061Y0204414D01*
X0193919Y0205272D01*
X0194220Y0206000D01*
X0195446Y0206000D01*
X0195283Y0205607D01*
X0195283Y0204393D01*
X0195748Y0203272D01*
X0196333Y0202687D01*
X0196333Y0188243D01*
X0204944Y0179633D01*
X0204944Y0178805D01*
X0205408Y0177684D01*
X0206266Y0176826D01*
X0207387Y0176362D01*
X0208600Y0176362D01*
X0209721Y0176826D01*
X0210579Y0177684D01*
X0211044Y0178805D01*
X0211044Y0180018D01*
X0210579Y0181139D01*
X0209721Y0181997D01*
X0208600Y0182462D01*
X0207772Y0182462D01*
X0200333Y0189900D01*
X0200333Y0202687D01*
X0200919Y0203272D01*
X0201383Y0204393D01*
X0201383Y0205607D01*
X0201220Y0206000D01*
X0231020Y0206000D01*
X0231606Y0205414D01*
X0232727Y0204950D01*
X0233940Y0204950D01*
X0235061Y0205414D01*
X0235919Y0206272D01*
X0236383Y0207393D01*
X0236383Y0208607D01*
X0236013Y0209500D01*
X0236020Y0209500D01*
X0236606Y0208914D01*
X0237727Y0208450D01*
X0238940Y0208450D01*
X0240061Y0208914D01*
X0240919Y0209772D01*
X0241383Y0210893D01*
X0241383Y0212107D01*
X0240919Y0213228D01*
X0240061Y0214086D01*
X0238940Y0214550D01*
X0237727Y0214550D01*
X0236606Y0214086D01*
X0236020Y0213500D01*
X0229005Y0213500D01*
X0227505Y0212000D01*
X0209061Y0212000D01*
X0210061Y0212414D01*
X0210919Y0213272D01*
X0211383Y0214393D01*
X0211383Y0215607D01*
X0210919Y0216728D01*
X0210061Y0217586D01*
X0208940Y0218050D01*
X0208112Y0218050D01*
X0205333Y0220828D01*
X0204162Y0222000D01*
X0168992Y0222000D01*
X0164718Y0226274D01*
X0165133Y0227276D01*
X0165133Y0229384D01*
X0164327Y0231332D01*
X0162836Y0232823D01*
X0161041Y0233567D01*
X0161383Y0234393D01*
X0161383Y0235607D01*
X0160919Y0236728D01*
X0160061Y0237586D01*
X0159544Y0237800D01*
X0171133Y0237800D01*
X0171133Y0234089D01*
X0173371Y0231851D01*
X0173248Y0231728D01*
X0172783Y0230607D01*
X0172783Y0229393D01*
X0173248Y0228272D01*
X0174106Y0227414D01*
X0175227Y0226950D01*
X0176440Y0226950D01*
X0177561Y0227414D01*
X0178419Y0228272D01*
X0178883Y0229393D01*
X0178883Y0230607D01*
X0178419Y0231728D01*
X0178033Y0232113D01*
X0178033Y0233411D01*
X0175533Y0235911D01*
X0175533Y0249972D01*
X0176005Y0249500D01*
X0178833Y0246672D01*
X0178833Y0241313D01*
X0178248Y0240727D01*
X0177783Y0239606D01*
X0177783Y0238393D01*
X0178248Y0237272D01*
X0179106Y0236414D01*
X0180227Y0235950D01*
X0181055Y0235950D01*
X0181333Y0235671D01*
X0181333Y0232384D01*
X0180705Y0231756D01*
X0180233Y0230617D01*
X0180233Y0229383D01*
X0180705Y0228244D01*
X0181577Y0227372D01*
X0182717Y0226900D01*
X0183950Y0226900D01*
X0185089Y0227372D01*
X0185961Y0228244D01*
X0186433Y0229383D01*
X0186433Y0230617D01*
X0185961Y0231756D01*
X0185333Y0232384D01*
X0185333Y0237328D01*
X0184847Y0237814D01*
X0185727Y0237450D01*
X0186940Y0237450D01*
X0188061Y0237914D01*
X0188647Y0238500D01*
X0199221Y0238500D01*
X0200392Y0239672D01*
X0200671Y0239950D01*
X0201499Y0239950D01*
X0202620Y0240414D01*
X0203478Y0241272D01*
X0203942Y0242393D01*
X0203942Y0243607D01*
X0203478Y0244728D01*
X0202620Y0245586D01*
X0202003Y0245841D01*
X0202862Y0246700D01*
X0203990Y0246700D01*
X0205203Y0247202D01*
X0206131Y0248131D01*
X0206633Y0249343D01*
X0206633Y0250656D01*
X0206131Y0251869D01*
X0205203Y0252797D01*
X0203990Y0253300D01*
X0203345Y0253300D01*
X0203383Y0253393D01*
X0203383Y0254607D01*
X0202919Y0255728D01*
X0202333Y0256313D01*
X0202333Y0256842D01*
X0202677Y0256700D01*
X0203990Y0256700D01*
X0205203Y0257202D01*
X0206131Y0258131D01*
X0206633Y0259343D01*
X0206633Y0260656D01*
X0206131Y0261869D01*
X0205203Y0262797D01*
X0204323Y0263162D01*
X0205333Y0264172D01*
X0205333Y0267333D01*
X0206131Y0268131D01*
X0206633Y0269343D01*
X0206633Y0270656D01*
X0206491Y0271000D01*
X0210162Y0271000D01*
X0211333Y0272172D01*
X0213862Y0274700D01*
X0214388Y0274700D01*
X0216336Y0275507D01*
X0217826Y0276998D01*
X0218333Y0278221D01*
X0218041Y0277516D02*
X0218626Y0277516D01*
X0219121Y0276717D02*
X0217546Y0276717D01*
X0216747Y0275919D02*
X0219919Y0275919D01*
X0221264Y0275120D02*
X0215402Y0275120D01*
X0213483Y0274322D02*
X0229009Y0274322D01*
X0228890Y0275000D02*
X0228890Y0275000D01*
X0228911Y0275120D02*
X0225402Y0275120D01*
X0226747Y0275919D02*
X0229052Y0275919D01*
X0229193Y0276717D02*
X0227546Y0276717D01*
X0228041Y0277516D02*
X0229333Y0277516D01*
X0229459Y0278230D02*
X0229459Y0278230D01*
X0229508Y0278314D02*
X0228372Y0278314D01*
X0228633Y0279113D02*
X0229969Y0279113D01*
X0230430Y0279911D02*
X0228633Y0279911D01*
X0228633Y0280710D02*
X0230891Y0280710D01*
X0231099Y0281070D02*
X0231099Y0281070D01*
X0231099Y0281070D01*
X0231621Y0281508D02*
X0228445Y0281508D01*
X0228114Y0282307D02*
X0232573Y0282307D01*
X0229150Y0273523D02*
X0212685Y0273523D01*
X0211886Y0272725D02*
X0229291Y0272725D01*
X0229432Y0271926D02*
X0211088Y0271926D01*
X0210289Y0271128D02*
X0229830Y0271128D01*
X0229459Y0271770D02*
X0229459Y0271770D01*
X0230291Y0270329D02*
X0206633Y0270329D01*
X0206633Y0269531D02*
X0230752Y0269531D01*
X0231099Y0268930D02*
X0231099Y0268930D01*
X0231335Y0268732D02*
X0206380Y0268732D01*
X0205934Y0267934D02*
X0232287Y0267934D01*
X0233238Y0267135D02*
X0205333Y0267135D01*
X0205333Y0266337D02*
X0234945Y0266337D01*
X0233612Y0266822D02*
X0233612Y0266822D01*
X0241722Y0266337D02*
X0266333Y0266337D01*
X0266333Y0267135D02*
X0243428Y0267135D01*
X0243055Y0266822D02*
X0243055Y0266822D01*
X0244380Y0267934D02*
X0266333Y0267934D01*
X0266333Y0268732D02*
X0245332Y0268732D01*
X0245914Y0269531D02*
X0266333Y0269531D01*
X0266333Y0270329D02*
X0246375Y0270329D01*
X0246836Y0271128D02*
X0266333Y0271128D01*
X0266333Y0271926D02*
X0247235Y0271926D01*
X0247376Y0272725D02*
X0266333Y0272725D01*
X0266333Y0273523D02*
X0247516Y0273523D01*
X0247657Y0274322D02*
X0266333Y0274322D01*
X0266333Y0275120D02*
X0247756Y0275120D01*
X0247777Y0275000D02*
X0247777Y0275000D01*
X0247615Y0275919D02*
X0266333Y0275919D01*
X0266333Y0276717D02*
X0264733Y0276717D01*
X0265896Y0277516D02*
X0266333Y0277516D01*
X0261934Y0276717D02*
X0247474Y0276717D01*
X0247333Y0277516D02*
X0260771Y0277516D01*
X0260169Y0278314D02*
X0247159Y0278314D01*
X0247207Y0278230D02*
X0247207Y0278230D01*
X0246698Y0279113D02*
X0259838Y0279113D01*
X0259765Y0279911D02*
X0246237Y0279911D01*
X0245776Y0280710D02*
X0259765Y0280710D01*
X0260096Y0281508D02*
X0245045Y0281508D01*
X0245567Y0281070D02*
X0245567Y0281070D01*
X0244094Y0282307D02*
X0260593Y0282307D01*
X0266333Y0265538D02*
X0205333Y0265538D01*
X0205333Y0264739D02*
X0266333Y0264739D01*
X0266333Y0263941D02*
X0205103Y0263941D01*
X0204370Y0263142D02*
X0266333Y0263142D01*
X0266333Y0262344D02*
X0205656Y0262344D01*
X0206265Y0261545D02*
X0266333Y0261545D01*
X0266333Y0260747D02*
X0206596Y0260747D01*
X0206633Y0259948D02*
X0266333Y0259948D01*
X0266333Y0259150D02*
X0206553Y0259150D01*
X0206222Y0258351D02*
X0223856Y0258351D01*
X0223058Y0257553D02*
X0205553Y0257553D01*
X0204121Y0256754D02*
X0222259Y0256754D01*
X0221461Y0255956D02*
X0202691Y0255956D01*
X0202545Y0256754D02*
X0202333Y0256754D01*
X0203155Y0255157D02*
X0220662Y0255157D01*
X0219864Y0254359D02*
X0203383Y0254359D01*
X0203383Y0253560D02*
X0219065Y0253560D01*
X0217031Y0252762D02*
X0205238Y0252762D01*
X0206037Y0251963D02*
X0215983Y0251963D01*
X0215515Y0251165D02*
X0206423Y0251165D01*
X0206633Y0250366D02*
X0215283Y0250366D01*
X0215283Y0249568D02*
X0206633Y0249568D01*
X0206395Y0248769D02*
X0215542Y0248769D01*
X0216049Y0247971D02*
X0205971Y0247971D01*
X0205130Y0247172D02*
X0217190Y0247172D01*
X0219477Y0247172D02*
X0229177Y0247172D01*
X0228379Y0246374D02*
X0202536Y0246374D01*
X0202630Y0245575D02*
X0227580Y0245575D01*
X0226782Y0244777D02*
X0203429Y0244777D01*
X0203788Y0243978D02*
X0225983Y0243978D01*
X0225505Y0243500D02*
X0214005Y0243500D01*
X0209833Y0239328D01*
X0209833Y0232813D01*
X0209248Y0232228D01*
X0208783Y0231107D01*
X0208783Y0229893D01*
X0209248Y0228772D01*
X0210106Y0227914D01*
X0211227Y0227450D01*
X0212440Y0227450D01*
X0213561Y0227914D01*
X0214419Y0228772D01*
X0214883Y0229893D01*
X0214883Y0231107D01*
X0214419Y0232228D01*
X0213833Y0232813D01*
X0213833Y0237672D01*
X0215662Y0239500D01*
X0225505Y0239500D01*
X0225505Y0239500D01*
X0226325Y0239500D01*
X0227162Y0239500D01*
X0228333Y0240672D01*
X0234612Y0246950D01*
X0235440Y0246950D01*
X0236561Y0247414D01*
X0237419Y0248272D01*
X0237883Y0249393D01*
X0237883Y0250607D01*
X0237419Y0251728D01*
X0236561Y0252586D01*
X0235440Y0253050D01*
X0234227Y0253050D01*
X0233106Y0252586D01*
X0232248Y0251728D01*
X0231783Y0250607D01*
X0231783Y0249778D01*
X0225505Y0243500D01*
X0226333Y0241500D02*
X0214833Y0241500D01*
X0211833Y0238500D01*
X0211833Y0230500D01*
X0208783Y0230403D02*
X0186433Y0230403D01*
X0186433Y0229605D02*
X0208903Y0229605D01*
X0209234Y0228806D02*
X0186194Y0228806D01*
X0185725Y0228008D02*
X0210012Y0228008D01*
X0208823Y0231202D02*
X0186191Y0231202D01*
X0185717Y0232001D02*
X0209154Y0232001D01*
X0209819Y0232799D02*
X0185333Y0232799D01*
X0185333Y0233598D02*
X0209833Y0233598D01*
X0209833Y0234396D02*
X0185333Y0234396D01*
X0185333Y0235195D02*
X0209833Y0235195D01*
X0209833Y0235993D02*
X0185333Y0235993D01*
X0185333Y0236792D02*
X0209833Y0236792D01*
X0209833Y0237590D02*
X0187278Y0237590D01*
X0188535Y0238389D02*
X0209833Y0238389D01*
X0209833Y0239187D02*
X0199908Y0239187D01*
X0201585Y0239986D02*
X0210491Y0239986D01*
X0211289Y0240784D02*
X0202990Y0240784D01*
X0203607Y0241583D02*
X0212088Y0241583D01*
X0212886Y0242381D02*
X0203937Y0242381D01*
X0203942Y0243180D02*
X0213685Y0243180D01*
X0215349Y0239187D02*
X0243633Y0239187D01*
X0243633Y0238389D02*
X0214550Y0238389D01*
X0213833Y0237590D02*
X0243482Y0237590D01*
X0242683Y0236792D02*
X0213833Y0236792D01*
X0213833Y0235993D02*
X0241885Y0235993D01*
X0241086Y0235195D02*
X0213833Y0235195D01*
X0213833Y0234396D02*
X0240288Y0234396D01*
X0239489Y0233598D02*
X0213833Y0233598D01*
X0213848Y0232799D02*
X0234980Y0232799D01*
X0233508Y0232001D02*
X0214513Y0232001D01*
X0214844Y0231202D02*
X0232710Y0231202D01*
X0232162Y0230403D02*
X0214883Y0230403D01*
X0214764Y0229605D02*
X0231832Y0229605D01*
X0231533Y0228806D02*
X0214433Y0228806D01*
X0213655Y0228008D02*
X0231533Y0228008D01*
X0231533Y0227209D02*
X0184697Y0227209D01*
X0181970Y0227209D02*
X0177066Y0227209D01*
X0178155Y0228008D02*
X0180941Y0228008D01*
X0180472Y0228806D02*
X0178640Y0228806D01*
X0178883Y0229605D02*
X0180233Y0229605D01*
X0180233Y0230403D02*
X0178883Y0230403D01*
X0178637Y0231202D02*
X0180476Y0231202D01*
X0180950Y0232001D02*
X0178146Y0232001D01*
X0178033Y0232799D02*
X0181333Y0232799D01*
X0181333Y0233598D02*
X0177847Y0233598D01*
X0177049Y0234396D02*
X0181333Y0234396D01*
X0181333Y0235195D02*
X0176250Y0235195D01*
X0175533Y0235993D02*
X0180122Y0235993D01*
X0178728Y0236792D02*
X0175533Y0236792D01*
X0175533Y0237590D02*
X0178116Y0237590D01*
X0177785Y0238389D02*
X0175533Y0238389D01*
X0175533Y0239187D02*
X0177783Y0239187D01*
X0177940Y0239986D02*
X0175533Y0239986D01*
X0175533Y0240784D02*
X0178304Y0240784D01*
X0178833Y0241583D02*
X0175533Y0241583D01*
X0175533Y0242381D02*
X0178833Y0242381D01*
X0178833Y0243180D02*
X0175533Y0243180D01*
X0175533Y0243978D02*
X0178833Y0243978D01*
X0178833Y0244777D02*
X0175533Y0244777D01*
X0175533Y0245575D02*
X0178833Y0245575D01*
X0178833Y0246374D02*
X0175533Y0246374D01*
X0175533Y0247172D02*
X0178333Y0247172D01*
X0177534Y0247971D02*
X0175533Y0247971D01*
X0175533Y0248769D02*
X0176736Y0248769D01*
X0175937Y0249568D02*
X0175533Y0249568D01*
X0176833Y0251500D02*
X0176833Y0256500D01*
X0174333Y0259000D01*
X0172333Y0259000D01*
X0169933Y0256600D01*
X0169933Y0245000D01*
X0166958Y0245225D02*
X0166958Y0248900D01*
X0167821Y0248900D01*
X0167933Y0249013D01*
X0167933Y0257428D01*
X0171505Y0261000D01*
X0175162Y0261000D01*
X0176333Y0259828D01*
X0178833Y0257328D01*
X0178833Y0252328D01*
X0182833Y0248328D01*
X0182833Y0241313D01*
X0183283Y0240863D01*
X0183283Y0241107D01*
X0183748Y0242228D01*
X0184270Y0242750D01*
X0183748Y0243272D01*
X0183283Y0244393D01*
X0183283Y0245607D01*
X0183333Y0245727D01*
X0183333Y0258828D01*
X0184505Y0260000D01*
X0188833Y0264328D01*
X0190005Y0265500D01*
X0193005Y0265500D01*
X0193783Y0266278D01*
X0193783Y0266700D01*
X0192677Y0266700D01*
X0191464Y0267202D01*
X0190536Y0268131D01*
X0190033Y0269343D01*
X0190033Y0270656D01*
X0190176Y0271000D01*
X0177162Y0271000D01*
X0165333Y0259171D01*
X0165333Y0258813D01*
X0165919Y0258228D01*
X0166383Y0257107D01*
X0166383Y0255893D01*
X0165919Y0254772D01*
X0165061Y0253914D01*
X0163940Y0253450D01*
X0163112Y0253450D01*
X0161662Y0252000D01*
X0160647Y0252000D01*
X0160919Y0251728D01*
X0161383Y0250607D01*
X0161383Y0249393D01*
X0160919Y0248272D01*
X0160533Y0247887D01*
X0160533Y0242200D01*
X0164114Y0242200D01*
X0164083Y0242316D01*
X0164083Y0244775D01*
X0166508Y0244775D01*
X0166508Y0245225D01*
X0164083Y0245225D01*
X0164083Y0247684D01*
X0164179Y0248040D01*
X0164363Y0248360D01*
X0164624Y0248620D01*
X0164943Y0248805D01*
X0165299Y0248900D01*
X0166508Y0248900D01*
X0166508Y0245225D01*
X0166958Y0245225D01*
X0166958Y0245575D02*
X0166508Y0245575D01*
X0166508Y0244777D02*
X0160533Y0244777D01*
X0160533Y0245575D02*
X0164083Y0245575D01*
X0164083Y0246374D02*
X0160533Y0246374D01*
X0160533Y0247172D02*
X0164083Y0247172D01*
X0164160Y0247971D02*
X0160617Y0247971D01*
X0161125Y0248769D02*
X0164882Y0248769D01*
X0166508Y0248769D02*
X0166958Y0248769D01*
X0166958Y0247971D02*
X0166508Y0247971D01*
X0166508Y0247172D02*
X0166958Y0247172D01*
X0166958Y0246374D02*
X0166508Y0246374D01*
X0164083Y0243978D02*
X0160533Y0243978D01*
X0160533Y0243180D02*
X0164083Y0243180D01*
X0164083Y0242381D02*
X0160533Y0242381D01*
X0160050Y0237590D02*
X0171133Y0237590D01*
X0171133Y0236792D02*
X0160855Y0236792D01*
X0161223Y0235993D02*
X0171133Y0235993D01*
X0171133Y0235195D02*
X0161383Y0235195D01*
X0161383Y0234396D02*
X0171133Y0234396D01*
X0171625Y0233598D02*
X0161054Y0233598D01*
X0162860Y0232799D02*
X0172423Y0232799D01*
X0173222Y0232001D02*
X0163658Y0232001D01*
X0164380Y0231202D02*
X0173030Y0231202D01*
X0172783Y0230403D02*
X0164711Y0230403D01*
X0165042Y0229605D02*
X0172783Y0229605D01*
X0173026Y0228806D02*
X0165133Y0228806D01*
X0165133Y0228008D02*
X0173512Y0228008D01*
X0174600Y0227209D02*
X0165106Y0227209D01*
X0164775Y0226411D02*
X0231684Y0226411D01*
X0232015Y0225612D02*
X0165379Y0225612D01*
X0166178Y0224814D02*
X0232354Y0224814D01*
X0233152Y0224015D02*
X0166976Y0224015D01*
X0167775Y0223217D02*
X0234121Y0223217D01*
X0237111Y0221620D02*
X0204542Y0221620D01*
X0205340Y0220821D02*
X0236781Y0220821D01*
X0236533Y0220023D02*
X0206139Y0220023D01*
X0206937Y0219224D02*
X0236533Y0219224D01*
X0236533Y0218426D02*
X0207736Y0218426D01*
X0209960Y0217627D02*
X0236735Y0217627D01*
X0237066Y0216829D02*
X0210818Y0216829D01*
X0211208Y0216030D02*
X0237477Y0216030D01*
X0238276Y0215232D02*
X0211383Y0215232D01*
X0211383Y0214433D02*
X0237445Y0214433D01*
X0236155Y0213635D02*
X0211069Y0213635D01*
X0210483Y0212836D02*
X0228341Y0212836D01*
X0227543Y0212038D02*
X0209152Y0212038D01*
X0208333Y0215000D02*
X0203333Y0220000D01*
X0168163Y0220000D01*
X0159833Y0228330D01*
X0168573Y0222418D02*
X0237586Y0222418D01*
X0246600Y0216829D02*
X0246833Y0216829D01*
X0246833Y0216030D02*
X0246189Y0216030D01*
X0246833Y0215232D02*
X0245390Y0215232D01*
X0244248Y0214433D02*
X0246833Y0214433D01*
X0246833Y0213635D02*
X0240512Y0213635D01*
X0241081Y0212836D02*
X0246833Y0212836D01*
X0246833Y0212038D02*
X0241383Y0212038D01*
X0241383Y0211239D02*
X0246833Y0211239D01*
X0246833Y0210441D02*
X0241196Y0210441D01*
X0240789Y0209642D02*
X0246833Y0209642D01*
X0246833Y0208844D02*
X0239890Y0208844D01*
X0238333Y0211500D02*
X0229833Y0211500D01*
X0228333Y0210000D01*
X0194333Y0210000D01*
X0192833Y0211500D01*
X0188333Y0211500D01*
X0186833Y0210000D01*
X0158333Y0210000D01*
X0161333Y0208000D02*
X0190333Y0208000D01*
X0191333Y0207000D01*
X0192333Y0208000D01*
X0233333Y0208000D01*
X0236383Y0208045D02*
X0246833Y0208045D01*
X0246833Y0207247D02*
X0236323Y0207247D01*
X0235992Y0206448D02*
X0246833Y0206448D01*
X0246833Y0205650D02*
X0235296Y0205650D01*
X0236285Y0208844D02*
X0236776Y0208844D01*
X0239222Y0214433D02*
X0239419Y0214433D01*
X0231370Y0205650D02*
X0201366Y0205650D01*
X0201383Y0204851D02*
X0246833Y0204851D01*
X0246833Y0204053D02*
X0201242Y0204053D01*
X0200901Y0203254D02*
X0246833Y0203254D01*
X0246833Y0202456D02*
X0200333Y0202456D01*
X0200333Y0201657D02*
X0246833Y0201657D01*
X0246833Y0200859D02*
X0200333Y0200859D01*
X0200333Y0200060D02*
X0246833Y0200060D01*
X0246833Y0199262D02*
X0200333Y0199262D01*
X0200333Y0198463D02*
X0246833Y0198463D01*
X0246833Y0197665D02*
X0200333Y0197665D01*
X0200333Y0196866D02*
X0246833Y0196866D01*
X0246572Y0196068D02*
X0200333Y0196068D01*
X0200333Y0195269D02*
X0245774Y0195269D01*
X0244975Y0194470D02*
X0200333Y0194470D01*
X0200333Y0193672D02*
X0244177Y0193672D01*
X0242300Y0192873D02*
X0200333Y0192873D01*
X0200333Y0192075D02*
X0241095Y0192075D01*
X0240561Y0191276D02*
X0200333Y0191276D01*
X0200333Y0190478D02*
X0240283Y0190478D01*
X0240184Y0189679D02*
X0200554Y0189679D01*
X0201353Y0188881D02*
X0239386Y0188881D01*
X0238587Y0188082D02*
X0202151Y0188082D01*
X0202950Y0187284D02*
X0237789Y0187284D01*
X0236990Y0186485D02*
X0203748Y0186485D01*
X0204547Y0185687D02*
X0236192Y0185687D01*
X0235393Y0184888D02*
X0205345Y0184888D01*
X0206144Y0184090D02*
X0234595Y0184090D01*
X0233796Y0183291D02*
X0206942Y0183291D01*
X0207741Y0182493D02*
X0232998Y0182493D01*
X0232199Y0181694D02*
X0210024Y0181694D01*
X0210680Y0180896D02*
X0231401Y0180896D01*
X0230602Y0180097D02*
X0211011Y0180097D01*
X0211044Y0179299D02*
X0229804Y0179299D01*
X0229005Y0178500D02*
X0210917Y0178500D01*
X0210587Y0177702D02*
X0228207Y0177702D01*
X0227408Y0176903D02*
X0209799Y0176903D01*
X0207994Y0179412D02*
X0198333Y0189072D01*
X0198333Y0205000D01*
X0195283Y0204851D02*
X0193498Y0204851D01*
X0194075Y0205650D02*
X0195301Y0205650D01*
X0195424Y0204053D02*
X0192188Y0204053D01*
X0190479Y0204053D02*
X0181242Y0204053D01*
X0181383Y0204851D02*
X0189169Y0204851D01*
X0188591Y0205650D02*
X0181366Y0205650D01*
X0180901Y0203254D02*
X0195766Y0203254D01*
X0196333Y0202456D02*
X0180102Y0202456D01*
X0177819Y0201657D02*
X0196333Y0201657D01*
X0196333Y0200859D02*
X0177020Y0200859D01*
X0176222Y0200060D02*
X0196333Y0200060D01*
X0196333Y0199262D02*
X0175423Y0199262D01*
X0174625Y0198463D02*
X0196333Y0198463D01*
X0196333Y0197665D02*
X0173826Y0197665D01*
X0173028Y0196866D02*
X0196333Y0196866D01*
X0196333Y0196068D02*
X0172229Y0196068D01*
X0171431Y0195269D02*
X0196333Y0195269D01*
X0196333Y0194470D02*
X0170632Y0194470D01*
X0169834Y0193672D02*
X0196333Y0193672D01*
X0196333Y0192873D02*
X0169035Y0192873D01*
X0168237Y0192075D02*
X0196333Y0192075D01*
X0196333Y0191276D02*
X0167438Y0191276D01*
X0166640Y0190478D02*
X0196333Y0190478D01*
X0196333Y0189679D02*
X0165841Y0189679D01*
X0165333Y0188881D02*
X0196333Y0188881D01*
X0196494Y0188082D02*
X0165333Y0188082D01*
X0165333Y0187284D02*
X0197293Y0187284D01*
X0198091Y0186485D02*
X0165333Y0186485D01*
X0165333Y0185687D02*
X0198890Y0185687D01*
X0199688Y0184888D02*
X0165333Y0184888D01*
X0165333Y0184090D02*
X0200487Y0184090D01*
X0201285Y0183291D02*
X0165333Y0183291D01*
X0165333Y0182493D02*
X0202084Y0182493D01*
X0202882Y0181694D02*
X0165333Y0181694D01*
X0165333Y0180896D02*
X0203681Y0180896D01*
X0204479Y0180097D02*
X0165333Y0180097D01*
X0165333Y0179299D02*
X0204944Y0179299D01*
X0205070Y0178500D02*
X0165333Y0178500D01*
X0165333Y0177702D02*
X0205401Y0177702D01*
X0206189Y0176903D02*
X0165333Y0176903D01*
X0165333Y0176105D02*
X0226610Y0176105D01*
X0225811Y0175306D02*
X0165333Y0175306D01*
X0165333Y0174508D02*
X0225013Y0174508D01*
X0224214Y0173709D02*
X0165333Y0173709D01*
X0165333Y0172911D02*
X0167390Y0172911D01*
X0166132Y0172112D02*
X0165333Y0172112D01*
X0165333Y0171314D02*
X0165576Y0171314D01*
X0165333Y0169273D02*
X0165748Y0168272D01*
X0166606Y0167414D01*
X0167727Y0166950D01*
X0168940Y0166950D01*
X0170061Y0167414D01*
X0170647Y0168000D01*
X0172606Y0168000D01*
X0171606Y0167586D01*
X0170748Y0166728D01*
X0170283Y0165607D01*
X0170283Y0164393D01*
X0170748Y0163272D01*
X0171606Y0162414D01*
X0172727Y0161950D01*
X0173940Y0161950D01*
X0175061Y0162414D01*
X0175647Y0163000D01*
X0223505Y0163000D01*
X0202505Y0142000D01*
X0202505Y0142000D01*
X0195390Y0134885D01*
X0194388Y0135300D01*
X0192279Y0135300D01*
X0190331Y0134493D01*
X0188840Y0133002D01*
X0188333Y0131779D01*
X0187826Y0133002D01*
X0186336Y0134493D01*
X0184388Y0135300D01*
X0182279Y0135300D01*
X0181277Y0134885D01*
X0165333Y0150828D01*
X0165333Y0169273D01*
X0165333Y0168918D02*
X0165480Y0168918D01*
X0165333Y0168120D02*
X0165900Y0168120D01*
X0165333Y0167321D02*
X0166831Y0167321D01*
X0165333Y0166523D02*
X0170663Y0166523D01*
X0170332Y0165724D02*
X0165333Y0165724D01*
X0165333Y0164926D02*
X0170283Y0164926D01*
X0170394Y0164127D02*
X0165333Y0164127D01*
X0165333Y0163329D02*
X0170724Y0163329D01*
X0171490Y0162530D02*
X0165333Y0162530D01*
X0165333Y0161732D02*
X0222236Y0161732D01*
X0223035Y0162530D02*
X0175177Y0162530D01*
X0173333Y0165000D02*
X0223333Y0165000D01*
X0241304Y0182971D01*
X0242347Y0182971D01*
X0242804Y0183428D01*
X0242762Y0183471D01*
X0242762Y0184428D01*
X0253333Y0195000D01*
X0253333Y0233346D01*
X0255502Y0231202D02*
X0266333Y0231202D01*
X0266333Y0232001D02*
X0256077Y0232001D01*
X0256383Y0232799D02*
X0266333Y0232799D01*
X0266333Y0233598D02*
X0256383Y0233598D01*
X0256200Y0234396D02*
X0266333Y0234396D01*
X0266333Y0235195D02*
X0255798Y0235195D01*
X0254913Y0235993D02*
X0266333Y0235993D01*
X0266333Y0236792D02*
X0250833Y0236792D01*
X0250833Y0237590D02*
X0266333Y0237590D01*
X0266333Y0238389D02*
X0250833Y0238389D01*
X0250833Y0239187D02*
X0266333Y0239187D01*
X0266333Y0239986D02*
X0250833Y0239986D01*
X0250833Y0240784D02*
X0266333Y0240784D01*
X0266333Y0241583D02*
X0250833Y0241583D01*
X0250833Y0242381D02*
X0266333Y0242381D01*
X0266333Y0243180D02*
X0250833Y0243180D01*
X0250833Y0243978D02*
X0266333Y0243978D01*
X0266333Y0244777D02*
X0250833Y0244777D01*
X0250833Y0245575D02*
X0266333Y0245575D01*
X0266333Y0246374D02*
X0250833Y0246374D01*
X0250833Y0247172D02*
X0266333Y0247172D01*
X0266333Y0247971D02*
X0250833Y0247971D01*
X0250392Y0248769D02*
X0266333Y0248769D01*
X0266333Y0249568D02*
X0249594Y0249568D01*
X0248795Y0250366D02*
X0266333Y0250366D01*
X0266333Y0251165D02*
X0247997Y0251165D01*
X0247198Y0251963D02*
X0266333Y0251963D01*
X0266333Y0252762D02*
X0246400Y0252762D01*
X0245601Y0253560D02*
X0266333Y0253560D01*
X0266333Y0254359D02*
X0244803Y0254359D01*
X0244004Y0255157D02*
X0266333Y0255157D01*
X0266333Y0255956D02*
X0243206Y0255956D01*
X0242407Y0256754D02*
X0266333Y0256754D01*
X0266333Y0257553D02*
X0241609Y0257553D01*
X0240810Y0258351D02*
X0266333Y0258351D01*
X0248833Y0247500D02*
X0239833Y0256500D01*
X0224833Y0256500D01*
X0218333Y0250000D01*
X0221125Y0248769D02*
X0230774Y0248769D01*
X0229976Y0247971D02*
X0220617Y0247971D01*
X0221383Y0249568D02*
X0231573Y0249568D01*
X0231783Y0250366D02*
X0221528Y0250366D01*
X0222327Y0251165D02*
X0232015Y0251165D01*
X0232483Y0251963D02*
X0223125Y0251963D01*
X0223924Y0252762D02*
X0233531Y0252762D01*
X0236136Y0252762D02*
X0240743Y0252762D01*
X0239945Y0253560D02*
X0224722Y0253560D01*
X0225521Y0254359D02*
X0239146Y0254359D01*
X0237183Y0251963D02*
X0241542Y0251963D01*
X0242340Y0251165D02*
X0237652Y0251165D01*
X0237883Y0250366D02*
X0243139Y0250366D01*
X0243937Y0249568D02*
X0237883Y0249568D01*
X0237625Y0248769D02*
X0244736Y0248769D01*
X0245534Y0247971D02*
X0237117Y0247971D01*
X0235977Y0247172D02*
X0244315Y0247172D01*
X0243394Y0246374D02*
X0234035Y0246374D01*
X0233237Y0245575D02*
X0242977Y0245575D01*
X0242783Y0244777D02*
X0232438Y0244777D01*
X0231640Y0243978D02*
X0242783Y0243978D01*
X0243079Y0243180D02*
X0230841Y0243180D01*
X0230043Y0242381D02*
X0243633Y0242381D01*
X0243633Y0241583D02*
X0229244Y0241583D01*
X0228446Y0240784D02*
X0243633Y0240784D01*
X0243633Y0239986D02*
X0227648Y0239986D01*
X0228333Y0240672D02*
X0228333Y0240672D01*
X0226333Y0241500D02*
X0234833Y0250000D01*
X0248833Y0247500D02*
X0248833Y0195500D01*
X0243333Y0190000D01*
X0223333Y0170000D01*
X0168333Y0170000D01*
X0170534Y0172112D02*
X0222617Y0172112D01*
X0223416Y0172911D02*
X0169276Y0172911D01*
X0169836Y0167321D02*
X0171341Y0167321D01*
X0165333Y0160933D02*
X0221438Y0160933D01*
X0220639Y0160134D02*
X0165333Y0160134D01*
X0165333Y0159336D02*
X0219841Y0159336D01*
X0219042Y0158537D02*
X0165333Y0158537D01*
X0165333Y0157739D02*
X0192131Y0157739D01*
X0192279Y0157800D02*
X0190331Y0156993D01*
X0188840Y0155502D01*
X0188033Y0153554D01*
X0188033Y0151446D01*
X0188840Y0149498D01*
X0190331Y0148007D01*
X0192279Y0147200D01*
X0194388Y0147200D01*
X0196336Y0148007D01*
X0197826Y0149498D01*
X0198333Y0150722D01*
X0198840Y0149498D01*
X0200331Y0148007D01*
X0202279Y0147200D01*
X0204388Y0147200D01*
X0206336Y0148007D01*
X0207826Y0149498D01*
X0208633Y0151446D01*
X0208633Y0153554D01*
X0207826Y0155502D01*
X0206336Y0156993D01*
X0204388Y0157800D01*
X0202279Y0157800D01*
X0200331Y0156993D01*
X0198840Y0155502D01*
X0198333Y0154279D01*
X0197826Y0155502D01*
X0196336Y0156993D01*
X0194388Y0157800D01*
X0192279Y0157800D01*
X0190278Y0156940D02*
X0165333Y0156940D01*
X0165333Y0156142D02*
X0189480Y0156142D01*
X0188774Y0155343D02*
X0165333Y0155343D01*
X0165333Y0154545D02*
X0188444Y0154545D01*
X0188113Y0153746D02*
X0165333Y0153746D01*
X0165333Y0152948D02*
X0188033Y0152948D01*
X0188033Y0152149D02*
X0165333Y0152149D01*
X0165333Y0151351D02*
X0188073Y0151351D01*
X0188403Y0150552D02*
X0165609Y0150552D01*
X0166408Y0149754D02*
X0188734Y0149754D01*
X0189383Y0148955D02*
X0167206Y0148955D01*
X0168005Y0148157D02*
X0190181Y0148157D01*
X0191897Y0147358D02*
X0168803Y0147358D01*
X0169602Y0146560D02*
X0207065Y0146560D01*
X0207863Y0147358D02*
X0204769Y0147358D01*
X0206485Y0148157D02*
X0208662Y0148157D01*
X0209460Y0148955D02*
X0207284Y0148955D01*
X0207932Y0149754D02*
X0210259Y0149754D01*
X0211057Y0150552D02*
X0208263Y0150552D01*
X0208594Y0151351D02*
X0211856Y0151351D01*
X0212654Y0152149D02*
X0208633Y0152149D01*
X0208633Y0152948D02*
X0213453Y0152948D01*
X0214251Y0153746D02*
X0208554Y0153746D01*
X0208223Y0154545D02*
X0215050Y0154545D01*
X0215848Y0155343D02*
X0207892Y0155343D01*
X0207187Y0156142D02*
X0216647Y0156142D01*
X0217445Y0156940D02*
X0206388Y0156940D01*
X0204535Y0157739D02*
X0218244Y0157739D01*
X0223311Y0152149D02*
X0266333Y0152149D01*
X0266333Y0151351D02*
X0222513Y0151351D01*
X0221714Y0150552D02*
X0266333Y0150552D01*
X0266333Y0149754D02*
X0220916Y0149754D01*
X0220117Y0148955D02*
X0266333Y0148955D01*
X0266333Y0148157D02*
X0219319Y0148157D01*
X0218520Y0147358D02*
X0266333Y0147358D01*
X0266333Y0146560D02*
X0217722Y0146560D01*
X0216923Y0145761D02*
X0266333Y0145761D01*
X0266333Y0144963D02*
X0216125Y0144963D01*
X0215326Y0144164D02*
X0236321Y0144164D01*
X0234127Y0143366D02*
X0214527Y0143366D01*
X0213729Y0142567D02*
X0232883Y0142567D01*
X0231932Y0141769D02*
X0212930Y0141769D01*
X0212132Y0140970D02*
X0231042Y0140970D01*
X0231099Y0141070D02*
X0231099Y0141070D01*
X0231099Y0141070D01*
X0230581Y0140172D02*
X0211333Y0140172D01*
X0210535Y0139373D02*
X0230120Y0139373D01*
X0229658Y0138575D02*
X0209736Y0138575D01*
X0208938Y0137776D02*
X0229379Y0137776D01*
X0229459Y0138230D02*
X0229459Y0138230D01*
X0229239Y0136978D02*
X0208139Y0136978D01*
X0207341Y0136179D02*
X0229098Y0136179D01*
X0228957Y0135381D02*
X0206542Y0135381D01*
X0206121Y0134582D02*
X0210546Y0134582D01*
X0209621Y0133784D02*
X0207045Y0133784D01*
X0207834Y0132985D02*
X0208833Y0132985D01*
X0208502Y0132187D02*
X0208164Y0132187D01*
X0203333Y0130000D02*
X0203333Y0135000D01*
X0243333Y0175000D01*
X0253333Y0175000D01*
X0256177Y0176105D02*
X0266333Y0176105D01*
X0266333Y0176903D02*
X0255743Y0176903D01*
X0256318Y0177702D02*
X0254781Y0177702D01*
X0256383Y0175306D02*
X0266333Y0175306D01*
X0266333Y0174508D02*
X0256383Y0174508D01*
X0256100Y0173709D02*
X0266333Y0173709D01*
X0266333Y0172911D02*
X0255557Y0172911D01*
X0254332Y0172112D02*
X0266333Y0172112D01*
X0266333Y0171314D02*
X0242475Y0171314D01*
X0241677Y0170515D02*
X0266333Y0170515D01*
X0266333Y0169717D02*
X0240878Y0169717D01*
X0240080Y0168918D02*
X0266333Y0168918D01*
X0266333Y0168120D02*
X0239281Y0168120D01*
X0238483Y0167321D02*
X0266333Y0167321D01*
X0266333Y0166523D02*
X0237684Y0166523D01*
X0236886Y0165724D02*
X0266333Y0165724D01*
X0266333Y0164926D02*
X0236087Y0164926D01*
X0235289Y0164127D02*
X0266333Y0164127D01*
X0266333Y0163329D02*
X0234490Y0163329D01*
X0233692Y0162530D02*
X0266333Y0162530D01*
X0266333Y0161732D02*
X0232893Y0161732D01*
X0232095Y0160933D02*
X0266333Y0160933D01*
X0266333Y0160134D02*
X0231296Y0160134D01*
X0230498Y0159336D02*
X0266333Y0159336D01*
X0266333Y0158537D02*
X0229699Y0158537D01*
X0228901Y0157739D02*
X0266333Y0157739D01*
X0266333Y0156940D02*
X0228102Y0156940D01*
X0227304Y0156142D02*
X0266333Y0156142D01*
X0266333Y0155343D02*
X0226505Y0155343D01*
X0225707Y0154545D02*
X0266333Y0154545D01*
X0266333Y0153746D02*
X0224908Y0153746D01*
X0224110Y0152948D02*
X0266333Y0152948D01*
X0266333Y0144164D02*
X0240346Y0144164D01*
X0242540Y0143366D02*
X0266333Y0143366D01*
X0266333Y0142567D02*
X0243783Y0142567D01*
X0243055Y0143178D02*
X0243055Y0143178D01*
X0244735Y0141769D02*
X0266333Y0141769D01*
X0266333Y0140970D02*
X0245625Y0140970D01*
X0245567Y0141070D02*
X0245567Y0141070D01*
X0246086Y0140172D02*
X0266333Y0140172D01*
X0266333Y0139373D02*
X0246547Y0139373D01*
X0247008Y0138575D02*
X0266333Y0138575D01*
X0266333Y0137776D02*
X0247287Y0137776D01*
X0247207Y0138230D02*
X0247207Y0138230D01*
X0247428Y0136978D02*
X0266333Y0136978D01*
X0266333Y0136179D02*
X0247569Y0136179D01*
X0247710Y0135381D02*
X0266333Y0135381D01*
X0266333Y0134582D02*
X0247703Y0134582D01*
X0247777Y0135000D02*
X0247777Y0135000D01*
X0247562Y0133784D02*
X0266333Y0133784D01*
X0266333Y0132985D02*
X0247421Y0132985D01*
X0247281Y0132187D02*
X0266333Y0132187D01*
X0266333Y0131388D02*
X0246987Y0131388D01*
X0246526Y0130590D02*
X0266333Y0130590D01*
X0266333Y0129791D02*
X0246065Y0129791D01*
X0245604Y0128993D02*
X0266333Y0128993D01*
X0266333Y0128194D02*
X0244691Y0128194D01*
X0245567Y0128930D02*
X0245567Y0128930D01*
X0245567Y0128930D01*
X0243739Y0127396D02*
X0266333Y0127396D01*
X0232928Y0127396D02*
X0227730Y0127396D01*
X0228109Y0128194D02*
X0231976Y0128194D01*
X0231099Y0128930D02*
X0231099Y0128930D01*
X0231063Y0128993D02*
X0228337Y0128993D01*
X0228433Y0130400D02*
X0228433Y0130402D01*
X0228308Y0131194D01*
X0228060Y0131958D01*
X0227695Y0132673D01*
X0227223Y0133323D01*
X0226656Y0133890D01*
X0226006Y0134362D01*
X0225291Y0134727D01*
X0224528Y0134975D01*
X0223735Y0135100D01*
X0223733Y0135100D01*
X0223733Y0130400D01*
X0228433Y0130400D01*
X0228404Y0130590D02*
X0230141Y0130590D01*
X0229680Y0131388D02*
X0228245Y0131388D01*
X0227943Y0132187D02*
X0229386Y0132187D01*
X0229459Y0131770D02*
X0229459Y0131770D01*
X0229245Y0132985D02*
X0227469Y0132985D01*
X0226762Y0133784D02*
X0229104Y0133784D01*
X0228964Y0134582D02*
X0225574Y0134582D01*
X0223733Y0134582D02*
X0222933Y0134582D01*
X0222933Y0133784D02*
X0223733Y0133784D01*
X0223733Y0132985D02*
X0222933Y0132985D01*
X0222933Y0132187D02*
X0223733Y0132187D01*
X0223733Y0131388D02*
X0222933Y0131388D01*
X0222933Y0130590D02*
X0223733Y0130590D01*
X0223733Y0129791D02*
X0230602Y0129791D01*
X0228890Y0135000D02*
X0228890Y0135000D01*
X0221092Y0134582D02*
X0216121Y0134582D01*
X0217045Y0133784D02*
X0219904Y0133784D01*
X0219198Y0132985D02*
X0217834Y0132985D01*
X0218164Y0132187D02*
X0218723Y0132187D01*
X0203333Y0140000D02*
X0203333Y0140000D01*
X0193333Y0130000D01*
X0189621Y0133784D02*
X0187045Y0133784D01*
X0187834Y0132985D02*
X0188833Y0132985D01*
X0188502Y0132187D02*
X0188164Y0132187D01*
X0186121Y0134582D02*
X0190546Y0134582D01*
X0195885Y0135381D02*
X0180781Y0135381D01*
X0179983Y0136179D02*
X0196684Y0136179D01*
X0197482Y0136978D02*
X0179184Y0136978D01*
X0178386Y0137776D02*
X0198281Y0137776D01*
X0199079Y0138575D02*
X0177587Y0138575D01*
X0176789Y0139373D02*
X0199878Y0139373D01*
X0200676Y0140172D02*
X0175990Y0140172D01*
X0175192Y0140970D02*
X0201475Y0140970D01*
X0202273Y0141769D02*
X0174393Y0141769D01*
X0173594Y0142567D02*
X0203072Y0142567D01*
X0203871Y0143366D02*
X0172796Y0143366D01*
X0171997Y0144164D02*
X0204669Y0144164D01*
X0205468Y0144963D02*
X0171199Y0144963D01*
X0170400Y0145761D02*
X0206266Y0145761D01*
X0201897Y0147358D02*
X0194769Y0147358D01*
X0196485Y0148157D02*
X0200181Y0148157D01*
X0199383Y0148955D02*
X0197284Y0148955D01*
X0197932Y0149754D02*
X0198734Y0149754D01*
X0198403Y0150552D02*
X0198263Y0150552D01*
X0198223Y0154545D02*
X0198444Y0154545D01*
X0198774Y0155343D02*
X0197892Y0155343D01*
X0197187Y0156142D02*
X0199480Y0156142D01*
X0200278Y0156940D02*
X0196388Y0156940D01*
X0194535Y0157739D02*
X0202131Y0157739D01*
X0203333Y0140000D02*
X0243333Y0180000D01*
X0258333Y0180000D01*
X0261383Y0180097D02*
X0266333Y0180097D01*
X0266333Y0179299D02*
X0261344Y0179299D01*
X0261013Y0178500D02*
X0266333Y0178500D01*
X0266333Y0177702D02*
X0260348Y0177702D01*
X0261264Y0180896D02*
X0266333Y0180896D01*
X0266333Y0181694D02*
X0260933Y0181694D01*
X0260154Y0182493D02*
X0266333Y0182493D01*
X0266333Y0183291D02*
X0245854Y0183291D01*
X0245832Y0184090D02*
X0266333Y0184090D01*
X0266333Y0184888D02*
X0246050Y0184888D01*
X0246849Y0185687D02*
X0266333Y0185687D01*
X0266333Y0186485D02*
X0247647Y0186485D01*
X0248446Y0187284D02*
X0266333Y0187284D01*
X0266333Y0188082D02*
X0249244Y0188082D01*
X0250043Y0188881D02*
X0266333Y0188881D01*
X0266333Y0189679D02*
X0250841Y0189679D01*
X0251640Y0190478D02*
X0266333Y0190478D01*
X0266333Y0191276D02*
X0252438Y0191276D01*
X0253237Y0192075D02*
X0266333Y0192075D01*
X0266333Y0192873D02*
X0254035Y0192873D01*
X0254834Y0193672D02*
X0266333Y0193672D01*
X0266333Y0194470D02*
X0255333Y0194470D01*
X0255333Y0195269D02*
X0266333Y0195269D01*
X0266333Y0196068D02*
X0255333Y0196068D01*
X0255333Y0196866D02*
X0266333Y0196866D01*
X0266333Y0197665D02*
X0255333Y0197665D01*
X0255333Y0198463D02*
X0266333Y0198463D01*
X0266333Y0199262D02*
X0255333Y0199262D01*
X0255333Y0200060D02*
X0266333Y0200060D01*
X0266333Y0200859D02*
X0255333Y0200859D01*
X0255333Y0201657D02*
X0266333Y0201657D01*
X0266333Y0202456D02*
X0255333Y0202456D01*
X0255333Y0203254D02*
X0266333Y0203254D01*
X0266333Y0204053D02*
X0255333Y0204053D01*
X0255333Y0204851D02*
X0266333Y0204851D01*
X0266333Y0205650D02*
X0255333Y0205650D01*
X0255333Y0206448D02*
X0266333Y0206448D01*
X0266333Y0207247D02*
X0255333Y0207247D01*
X0255333Y0208045D02*
X0266333Y0208045D01*
X0266333Y0208844D02*
X0255333Y0208844D01*
X0255333Y0209642D02*
X0266333Y0209642D01*
X0266333Y0210441D02*
X0255333Y0210441D01*
X0255333Y0211239D02*
X0266333Y0211239D01*
X0266333Y0212038D02*
X0255333Y0212038D01*
X0255333Y0212836D02*
X0266333Y0212836D01*
X0266333Y0213635D02*
X0255333Y0213635D01*
X0255333Y0214433D02*
X0266333Y0214433D01*
X0266333Y0215232D02*
X0255333Y0215232D01*
X0255333Y0216030D02*
X0266333Y0216030D01*
X0266333Y0216829D02*
X0255333Y0216829D01*
X0255333Y0217627D02*
X0266333Y0217627D01*
X0266333Y0218426D02*
X0255333Y0218426D01*
X0255333Y0219224D02*
X0266333Y0219224D01*
X0266333Y0220023D02*
X0255333Y0220023D01*
X0255333Y0220821D02*
X0266333Y0220821D01*
X0266333Y0221620D02*
X0255333Y0221620D01*
X0255333Y0222418D02*
X0266333Y0222418D01*
X0266333Y0223217D02*
X0255333Y0223217D01*
X0255333Y0224015D02*
X0266333Y0224015D01*
X0266333Y0224814D02*
X0255333Y0224814D01*
X0255333Y0225612D02*
X0266333Y0225612D01*
X0266333Y0226411D02*
X0255333Y0226411D01*
X0255333Y0227209D02*
X0266333Y0227209D01*
X0266333Y0228008D02*
X0255333Y0228008D01*
X0255333Y0228806D02*
X0266333Y0228806D01*
X0266333Y0229605D02*
X0255333Y0229605D01*
X0255333Y0230403D02*
X0266333Y0230403D01*
X0251753Y0235993D02*
X0250833Y0235993D01*
X0250833Y0235195D02*
X0250868Y0235195D01*
X0238691Y0232799D02*
X0238686Y0232799D01*
X0203333Y0250000D02*
X0198334Y0245000D01*
X0186333Y0245000D01*
X0185333Y0246000D01*
X0185333Y0258000D01*
X0190833Y0263500D01*
X0193833Y0263500D01*
X0196833Y0266500D01*
X0193783Y0266337D02*
X0172498Y0266337D01*
X0173297Y0267135D02*
X0191626Y0267135D01*
X0190733Y0267934D02*
X0174095Y0267934D01*
X0174894Y0268732D02*
X0190287Y0268732D01*
X0190033Y0269531D02*
X0175693Y0269531D01*
X0176491Y0270329D02*
X0190033Y0270329D01*
X0189244Y0264739D02*
X0170901Y0264739D01*
X0170103Y0263941D02*
X0188446Y0263941D01*
X0187647Y0263142D02*
X0169304Y0263142D01*
X0168506Y0262344D02*
X0186849Y0262344D01*
X0186050Y0261545D02*
X0167707Y0261545D01*
X0166909Y0260747D02*
X0171252Y0260747D01*
X0170453Y0259948D02*
X0166110Y0259948D01*
X0165333Y0259150D02*
X0169655Y0259150D01*
X0168856Y0258351D02*
X0165795Y0258351D01*
X0166199Y0257553D02*
X0168058Y0257553D01*
X0167933Y0256754D02*
X0166383Y0256754D01*
X0166383Y0255956D02*
X0167933Y0255956D01*
X0167933Y0255157D02*
X0166079Y0255157D01*
X0165506Y0254359D02*
X0167933Y0254359D01*
X0167933Y0253560D02*
X0164207Y0253560D01*
X0162424Y0252762D02*
X0167933Y0252762D01*
X0167933Y0251963D02*
X0160683Y0251963D01*
X0161152Y0251165D02*
X0167933Y0251165D01*
X0167933Y0250366D02*
X0161383Y0250366D01*
X0161383Y0249568D02*
X0167933Y0249568D01*
X0176833Y0251500D02*
X0180833Y0247500D01*
X0180833Y0239000D01*
X0183333Y0236500D01*
X0183333Y0230000D01*
X0185071Y0237590D02*
X0185388Y0237590D01*
X0186333Y0240500D02*
X0198392Y0240500D01*
X0200892Y0243000D01*
X0197505Y0247000D02*
X0194142Y0247000D01*
X0194238Y0247019D01*
X0194802Y0247253D01*
X0195309Y0247592D01*
X0195741Y0248024D01*
X0196080Y0248531D01*
X0196314Y0249096D01*
X0196433Y0249694D01*
X0196433Y0249900D01*
X0193433Y0249900D01*
X0193433Y0250100D01*
X0196433Y0250100D01*
X0196433Y0250305D01*
X0196314Y0250904D01*
X0196080Y0251468D01*
X0195741Y0251976D01*
X0195309Y0252408D01*
X0194802Y0252747D01*
X0194238Y0252981D01*
X0194158Y0252996D01*
X0198333Y0257172D01*
X0198333Y0256313D01*
X0197748Y0255728D01*
X0197283Y0254607D01*
X0197283Y0253393D01*
X0197748Y0252272D01*
X0198606Y0251414D01*
X0199727Y0250950D01*
X0200155Y0250950D01*
X0200033Y0250656D01*
X0200033Y0249528D01*
X0197505Y0247000D01*
X0197677Y0247172D02*
X0194608Y0247172D01*
X0195688Y0247971D02*
X0198476Y0247971D01*
X0199274Y0248769D02*
X0196179Y0248769D01*
X0196408Y0249568D02*
X0200033Y0249568D01*
X0200033Y0250366D02*
X0196421Y0250366D01*
X0196206Y0251165D02*
X0199208Y0251165D01*
X0198057Y0251963D02*
X0195750Y0251963D01*
X0194766Y0252762D02*
X0197545Y0252762D01*
X0197283Y0253560D02*
X0194722Y0253560D01*
X0195521Y0254359D02*
X0197283Y0254359D01*
X0197511Y0255157D02*
X0196319Y0255157D01*
X0197118Y0255956D02*
X0197976Y0255956D01*
X0197916Y0256754D02*
X0198333Y0256754D01*
X0200333Y0258000D02*
X0200333Y0254000D01*
X0200333Y0258000D02*
X0202333Y0260000D01*
X0203333Y0260000D01*
X0203333Y0265000D02*
X0203333Y0270000D01*
X0201333Y0275000D02*
X0173333Y0275000D01*
X0171700Y0265538D02*
X0193043Y0265538D01*
X0185252Y0260747D02*
X0175415Y0260747D01*
X0176213Y0259948D02*
X0184453Y0259948D01*
X0183655Y0259150D02*
X0177012Y0259150D01*
X0177810Y0258351D02*
X0183333Y0258351D01*
X0183333Y0257553D02*
X0178609Y0257553D01*
X0178833Y0256754D02*
X0183333Y0256754D01*
X0183333Y0255956D02*
X0178833Y0255956D01*
X0178833Y0255157D02*
X0183333Y0255157D01*
X0183333Y0254359D02*
X0178833Y0254359D01*
X0178833Y0253560D02*
X0183333Y0253560D01*
X0183333Y0252762D02*
X0178833Y0252762D01*
X0179198Y0251963D02*
X0183333Y0251963D01*
X0183333Y0251165D02*
X0179997Y0251165D01*
X0180795Y0250366D02*
X0183333Y0250366D01*
X0183333Y0249568D02*
X0181594Y0249568D01*
X0182392Y0248769D02*
X0183333Y0248769D01*
X0183333Y0247971D02*
X0182833Y0247971D01*
X0182833Y0247172D02*
X0183333Y0247172D01*
X0183333Y0246374D02*
X0182833Y0246374D01*
X0182833Y0245575D02*
X0183283Y0245575D01*
X0183283Y0244777D02*
X0182833Y0244777D01*
X0182833Y0243978D02*
X0183455Y0243978D01*
X0183840Y0243180D02*
X0182833Y0243180D01*
X0182833Y0242381D02*
X0183901Y0242381D01*
X0183480Y0241583D02*
X0182833Y0241583D01*
X0188833Y0248000D02*
X0188833Y0250500D01*
X0203333Y0265000D01*
X0201333Y0275000D02*
X0203333Y0277000D01*
X0203333Y0280000D01*
X0148833Y0246500D02*
X0148333Y0205000D01*
X0158333Y0205000D01*
X0161333Y0208000D01*
X0161811Y0205650D02*
X0170481Y0205650D01*
X0170463Y0204851D02*
X0161013Y0204851D01*
X0160214Y0204053D02*
X0169737Y0204053D01*
X0168939Y0203254D02*
X0159416Y0203254D01*
X0155587Y0200060D02*
X0165744Y0200060D01*
X0164946Y0199262D02*
X0156112Y0199262D01*
X0156383Y0198463D02*
X0164147Y0198463D01*
X0163349Y0197665D02*
X0156383Y0197665D01*
X0156165Y0196866D02*
X0162550Y0196866D01*
X0161752Y0196068D02*
X0155714Y0196068D01*
X0154710Y0195269D02*
X0160953Y0195269D01*
X0166543Y0200859D02*
X0154402Y0200859D01*
X0152505Y0201657D02*
X0167341Y0201657D01*
X0168140Y0202456D02*
X0151706Y0202456D01*
X0148333Y0203000D02*
X0153333Y0198000D01*
X0148333Y0203000D02*
X0148333Y0205000D01*
X0158333Y0189820D02*
X0173513Y0205000D01*
X0178333Y0205000D02*
X0163333Y0190000D01*
X0163333Y0150000D01*
X0183333Y0130000D01*
X0183333Y0130000D01*
X0173333Y0130000D02*
X0173333Y0135000D01*
X0158333Y0150000D01*
X0158333Y0189820D01*
X0159744Y0145761D02*
X0130333Y0145761D01*
X0130333Y0144963D02*
X0160542Y0144963D01*
X0160346Y0144164D02*
X0161341Y0144164D01*
X0147408Y0135381D02*
X0147373Y0135381D01*
X0146323Y0133603D02*
X0146323Y0131468D01*
X0147390Y0130400D01*
X0148458Y0131468D01*
X0148458Y0133603D01*
X0145272Y0135381D02*
X0144758Y0135381D01*
X0143707Y0133603D02*
X0143707Y0130400D01*
X0142640Y0130400D02*
X0144775Y0130400D01*
X0144775Y0132535D02*
X0143707Y0133603D01*
X0142657Y0135381D02*
X0141608Y0135381D01*
X0140558Y0133603D02*
X0139490Y0133603D01*
X0138957Y0133069D01*
X0141092Y0130934D01*
X0140558Y0130400D01*
X0139490Y0130400D01*
X0138957Y0130934D01*
X0138957Y0133069D01*
X0140558Y0133603D02*
X0141092Y0133069D01*
X0141092Y0130934D01*
X0148811Y0128993D02*
X0151063Y0128993D01*
X0151099Y0128930D02*
X0151099Y0128930D01*
X0150602Y0129791D02*
X0149610Y0129791D01*
X0131272Y0132985D02*
X0130333Y0132985D01*
X0130333Y0132187D02*
X0130473Y0132187D01*
X0243274Y0172112D02*
X0252335Y0172112D01*
X0251109Y0172911D02*
X0244072Y0172911D01*
X0245718Y0182493D02*
X0256513Y0182493D01*
D11*
X0241833Y0219170D03*
X0236833Y0227830D03*
X0223333Y0280000D03*
X0213333Y0280000D03*
X0203333Y0280000D03*
X0193333Y0280000D03*
X0183333Y0280000D03*
X0173333Y0280000D03*
X0159833Y0228330D03*
X0154833Y0219670D03*
X0193333Y0152500D03*
X0203333Y0152500D03*
X0203333Y0130000D03*
X0213333Y0130000D03*
X0223333Y0130000D03*
X0193333Y0130000D03*
X0183333Y0130000D03*
X0173333Y0130000D03*
D12*
X0169933Y0245000D03*
X0166733Y0245000D03*
D13*
X0193333Y0250000D03*
X0193333Y0260000D03*
X0193333Y0270000D03*
X0203333Y0270000D03*
X0203333Y0260000D03*
X0203333Y0250000D03*
D14*
X0263333Y0280000D03*
X0133333Y0130000D03*
D15*
X0183333Y0230000D03*
D16*
X0175833Y0230000D03*
X0168333Y0230000D03*
X0158333Y0235000D03*
X0158333Y0250000D03*
X0165833Y0252000D03*
X0163333Y0256500D03*
X0173333Y0255000D03*
X0181833Y0251500D03*
X0188833Y0248000D03*
X0186333Y0245000D03*
X0186333Y0240500D03*
X0180833Y0239000D03*
X0177333Y0245500D03*
X0200892Y0243000D03*
X0200333Y0254000D03*
X0196833Y0266500D03*
X0178333Y0268500D03*
X0143333Y0250000D03*
X0158333Y0210000D03*
X0163333Y0205000D03*
X0153333Y0198000D03*
X0143333Y0195000D03*
X0138333Y0200000D03*
X0148333Y0175000D03*
X0168333Y0170000D03*
X0173333Y0165000D03*
X0178333Y0160000D03*
X0193333Y0180000D03*
X0207994Y0179412D03*
X0213333Y0160000D03*
X0243333Y0170000D03*
X0253333Y0175000D03*
X0258333Y0180000D03*
X0248333Y0185000D03*
X0242804Y0183428D03*
X0243333Y0190000D03*
X0240833Y0195000D03*
X0233333Y0208000D03*
X0238333Y0211500D03*
X0218333Y0200000D03*
X0208333Y0215000D03*
X0213333Y0220000D03*
X0211833Y0230500D03*
X0216333Y0238500D03*
X0218333Y0250000D03*
X0225833Y0250000D03*
X0234833Y0250000D03*
X0245833Y0244500D03*
X0253333Y0250000D03*
X0233333Y0237500D03*
X0253333Y0233346D03*
X0260833Y0200000D03*
X0198333Y0205000D03*
X0193333Y0200000D03*
X0191333Y0207000D03*
X0188333Y0211500D03*
X0178333Y0205000D03*
X0173513Y0205000D03*
D17*
X0154833Y0219670D02*
X0153333Y0221170D01*
X0153333Y0235000D01*
X0158333Y0235000D01*
X0158333Y0240000D02*
X0153333Y0235000D01*
X0158333Y0240000D02*
X0158333Y0250000D01*
X0158333Y0240000D02*
X0173333Y0240000D01*
X0173333Y0235000D01*
X0175833Y0232500D01*
X0175833Y0230000D01*
X0173333Y0240000D02*
X0173333Y0255000D01*
X0236833Y0227830D02*
X0245833Y0236830D01*
X0245833Y0244500D01*
M02*
