G75*
%MOIN*%
%OFA0B0*%
%FSLAX25Y25*%
%IPPOS*%
%LPD*%
%AMOC8*
5,1,8,0,0,1.08239X$1,22.5*
%
%ADD10C,0.07400*%
%ADD11R,0.04331X0.03937*%
%ADD12R,0.02500X0.05000*%
%ADD13R,0.01600X0.01000*%
%ADD14C,0.03937*%
%ADD15R,0.01181X0.04331*%
%ADD16R,0.04331X0.01181*%
%ADD17R,0.03937X0.04331*%
%ADD18R,0.04724X0.02362*%
%ADD19R,0.07874X0.04724*%
%ADD20R,0.05315X0.02362*%
%ADD21C,0.01181*%
%ADD22R,0.03150X0.03937*%
%ADD23R,0.03150X0.07480*%
%ADD24C,0.03400*%
%ADD25R,0.05000X0.02500*%
%ADD26R,0.01000X0.01600*%
%ADD27R,0.06299X0.09449*%
%ADD28C,0.00800*%
%ADD29C,0.02900*%
%ADD30C,0.01200*%
D10*
X0173333Y0130000D03*
X0183333Y0130000D03*
X0193333Y0130000D03*
X0203333Y0130000D03*
X0213333Y0130000D03*
X0223333Y0130000D03*
X0203333Y0152500D03*
X0193333Y0152500D03*
X0154833Y0219670D03*
X0159833Y0228330D03*
X0173333Y0280000D03*
X0183333Y0280000D03*
X0193333Y0280000D03*
X0203333Y0280000D03*
X0213333Y0280000D03*
X0223333Y0280000D03*
X0236833Y0227830D03*
X0241833Y0219170D03*
D11*
G36*
X0231325Y0198887D02*
X0227577Y0201052D01*
X0229545Y0204459D01*
X0233293Y0202294D01*
X0231325Y0198887D01*
G37*
G36*
X0237121Y0195541D02*
X0233373Y0197706D01*
X0235341Y0201113D01*
X0239089Y0198948D01*
X0237121Y0195541D01*
G37*
G36*
X0238221Y0178508D02*
X0240386Y0182256D01*
X0243793Y0180288D01*
X0241628Y0176540D01*
X0238221Y0178508D01*
G37*
G36*
X0234874Y0172712D02*
X0237039Y0176460D01*
X0240446Y0174492D01*
X0238281Y0170744D01*
X0234874Y0172712D01*
G37*
G36*
X0220121Y0165541D02*
X0216373Y0167706D01*
X0218341Y0171113D01*
X0222089Y0168948D01*
X0220121Y0165541D01*
G37*
G36*
X0214325Y0168887D02*
X0210577Y0171052D01*
X0212545Y0174459D01*
X0216293Y0172294D01*
X0214325Y0168887D01*
G37*
G36*
X0203874Y0190212D02*
X0206039Y0193960D01*
X0209446Y0191992D01*
X0207281Y0188244D01*
X0203874Y0190212D01*
G37*
G36*
X0207220Y0196008D02*
X0209385Y0199756D01*
X0212792Y0197788D01*
X0210627Y0194040D01*
X0207220Y0196008D01*
G37*
X0201680Y0211500D03*
X0194987Y0211500D03*
G36*
X0187322Y0200006D02*
X0189487Y0196258D01*
X0186080Y0194290D01*
X0183915Y0198038D01*
X0187322Y0200006D01*
G37*
G36*
X0190668Y0194210D02*
X0192833Y0190462D01*
X0189426Y0188494D01*
X0187261Y0192242D01*
X0190668Y0194210D01*
G37*
G36*
X0163374Y0202294D02*
X0167122Y0204459D01*
X0169090Y0201052D01*
X0165342Y0198887D01*
X0163374Y0202294D01*
G37*
G36*
X0157577Y0198948D02*
X0161325Y0201113D01*
X0163293Y0197706D01*
X0159545Y0195541D01*
X0157577Y0198948D01*
G37*
G36*
X0156145Y0182006D02*
X0158310Y0178258D01*
X0154903Y0176290D01*
X0152738Y0180038D01*
X0156145Y0182006D01*
G37*
G36*
X0159491Y0176210D02*
X0161656Y0172462D01*
X0158249Y0170494D01*
X0156084Y0174242D01*
X0159491Y0176210D01*
G37*
G36*
X0175616Y0168271D02*
X0179364Y0170436D01*
X0181332Y0167029D01*
X0177584Y0164864D01*
X0175616Y0168271D01*
G37*
G36*
X0181412Y0171617D02*
X0185160Y0173782D01*
X0187128Y0170375D01*
X0183380Y0168210D01*
X0181412Y0171617D01*
G37*
X0151680Y0245000D03*
X0144987Y0245000D03*
X0214987Y0245000D03*
X0221680Y0245000D03*
D12*
G36*
X0233123Y0221241D02*
X0230958Y0219991D01*
X0228459Y0224321D01*
X0230624Y0225571D01*
X0233123Y0221241D01*
G37*
G36*
X0229659Y0219241D02*
X0227494Y0217991D01*
X0224995Y0222321D01*
X0227160Y0223571D01*
X0229659Y0219241D01*
G37*
G36*
X0165379Y0216281D02*
X0167544Y0215031D01*
X0165045Y0210701D01*
X0162880Y0211951D01*
X0165379Y0216281D01*
G37*
G36*
X0161914Y0218281D02*
X0164079Y0217031D01*
X0161580Y0212701D01*
X0159415Y0213951D01*
X0161914Y0218281D01*
G37*
X0150333Y0235000D03*
X0146333Y0235000D03*
X0151833Y0260000D03*
X0155833Y0260000D03*
X0159833Y0260000D03*
D13*
X0157833Y0260000D03*
X0153833Y0260000D03*
X0148333Y0235000D03*
G36*
X0163038Y0215324D02*
X0164422Y0214524D01*
X0163922Y0213658D01*
X0162538Y0214458D01*
X0163038Y0215324D01*
G37*
G36*
X0230001Y0221748D02*
X0228617Y0220948D01*
X0228117Y0221814D01*
X0229501Y0222614D01*
X0230001Y0221748D01*
G37*
D14*
X0263333Y0280000D03*
X0133333Y0130000D03*
D15*
G36*
X0168991Y0177830D02*
X0169581Y0176808D01*
X0165833Y0174644D01*
X0165243Y0175666D01*
X0168991Y0177830D01*
G37*
G36*
X0167711Y0180046D02*
X0168301Y0179024D01*
X0164553Y0176860D01*
X0163963Y0177882D01*
X0167711Y0180046D01*
G37*
G36*
X0166431Y0182262D02*
X0167021Y0181240D01*
X0163273Y0179076D01*
X0162683Y0180098D01*
X0166431Y0182262D01*
G37*
G36*
X0165152Y0184479D02*
X0165742Y0183457D01*
X0161994Y0181293D01*
X0161404Y0182315D01*
X0165152Y0184479D01*
G37*
G36*
X0163872Y0186695D02*
X0164462Y0185673D01*
X0160714Y0183509D01*
X0160124Y0184531D01*
X0163872Y0186695D01*
G37*
G36*
X0165183Y0188363D02*
X0164161Y0187773D01*
X0161997Y0191521D01*
X0163019Y0192111D01*
X0165183Y0188363D01*
G37*
G36*
X0167400Y0189643D02*
X0166378Y0189053D01*
X0164214Y0192801D01*
X0165236Y0193391D01*
X0167400Y0189643D01*
G37*
G36*
X0169616Y0190922D02*
X0168594Y0190332D01*
X0166430Y0194080D01*
X0167452Y0194670D01*
X0169616Y0190922D01*
G37*
G36*
X0171832Y0192202D02*
X0170810Y0191612D01*
X0168646Y0195360D01*
X0169668Y0195950D01*
X0171832Y0192202D01*
G37*
G36*
X0174048Y0193481D02*
X0173026Y0192891D01*
X0170862Y0196639D01*
X0171884Y0197229D01*
X0174048Y0193481D01*
G37*
G36*
X0176057Y0192367D02*
X0175467Y0193389D01*
X0179215Y0195553D01*
X0179805Y0194531D01*
X0176057Y0192367D01*
G37*
G36*
X0177337Y0190151D02*
X0176747Y0191173D01*
X0180495Y0193337D01*
X0181085Y0192315D01*
X0177337Y0190151D01*
G37*
G36*
X0178616Y0187935D02*
X0178026Y0188957D01*
X0181774Y0191121D01*
X0182364Y0190099D01*
X0178616Y0187935D01*
G37*
G36*
X0179896Y0185718D02*
X0179306Y0186740D01*
X0183054Y0188904D01*
X0183644Y0187882D01*
X0179896Y0185718D01*
G37*
G36*
X0181175Y0183502D02*
X0180585Y0184524D01*
X0184333Y0186688D01*
X0184923Y0185666D01*
X0181175Y0183502D01*
G37*
G36*
X0179524Y0181637D02*
X0180546Y0182227D01*
X0182710Y0178479D01*
X0181688Y0177889D01*
X0179524Y0181637D01*
G37*
G36*
X0177307Y0180358D02*
X0178329Y0180948D01*
X0180493Y0177200D01*
X0179471Y0176610D01*
X0177307Y0180358D01*
G37*
G36*
X0175091Y0179078D02*
X0176113Y0179668D01*
X0178277Y0175920D01*
X0177255Y0175330D01*
X0175091Y0179078D01*
G37*
G36*
X0172875Y0177799D02*
X0173897Y0178389D01*
X0176061Y0174641D01*
X0175039Y0174051D01*
X0172875Y0177799D01*
G37*
G36*
X0170659Y0176519D02*
X0171681Y0177109D01*
X0173845Y0173361D01*
X0172823Y0172771D01*
X0170659Y0176519D01*
G37*
G36*
X0216081Y0184524D02*
X0215491Y0183502D01*
X0211743Y0185666D01*
X0212333Y0186688D01*
X0216081Y0184524D01*
G37*
G36*
X0217361Y0186740D02*
X0216771Y0185718D01*
X0213023Y0187882D01*
X0213613Y0188904D01*
X0217361Y0186740D01*
G37*
G36*
X0218640Y0188957D02*
X0218050Y0187935D01*
X0214302Y0190099D01*
X0214892Y0191121D01*
X0218640Y0188957D01*
G37*
G36*
X0219920Y0191173D02*
X0219330Y0190151D01*
X0215582Y0192315D01*
X0216172Y0193337D01*
X0219920Y0191173D01*
G37*
G36*
X0221199Y0193389D02*
X0220609Y0192367D01*
X0216861Y0194531D01*
X0217451Y0195553D01*
X0221199Y0193389D01*
G37*
G36*
X0223641Y0192891D02*
X0222619Y0193481D01*
X0224783Y0197229D01*
X0225805Y0196639D01*
X0223641Y0192891D01*
G37*
G36*
X0225857Y0191612D02*
X0224835Y0192202D01*
X0226999Y0195950D01*
X0228021Y0195360D01*
X0225857Y0191612D01*
G37*
G36*
X0228073Y0190332D02*
X0227051Y0190922D01*
X0229215Y0194670D01*
X0230237Y0194080D01*
X0228073Y0190332D01*
G37*
G36*
X0230289Y0189053D02*
X0229267Y0189643D01*
X0231431Y0193391D01*
X0232453Y0192801D01*
X0230289Y0189053D01*
G37*
G36*
X0232505Y0187773D02*
X0231483Y0188363D01*
X0233647Y0192111D01*
X0234669Y0191521D01*
X0232505Y0187773D01*
G37*
G36*
X0232204Y0185673D02*
X0232794Y0186695D01*
X0236542Y0184531D01*
X0235952Y0183509D01*
X0232204Y0185673D01*
G37*
G36*
X0230925Y0183457D02*
X0231515Y0184479D01*
X0235263Y0182315D01*
X0234673Y0181293D01*
X0230925Y0183457D01*
G37*
G36*
X0229645Y0181240D02*
X0230235Y0182262D01*
X0233983Y0180098D01*
X0233393Y0179076D01*
X0229645Y0181240D01*
G37*
G36*
X0228366Y0179024D02*
X0228956Y0180046D01*
X0232704Y0177882D01*
X0232114Y0176860D01*
X0228366Y0179024D01*
G37*
G36*
X0227086Y0176808D02*
X0227676Y0177830D01*
X0231424Y0175666D01*
X0230834Y0174644D01*
X0227086Y0176808D01*
G37*
G36*
X0224986Y0177109D02*
X0226008Y0176519D01*
X0223844Y0172771D01*
X0222822Y0173361D01*
X0224986Y0177109D01*
G37*
G36*
X0222770Y0178389D02*
X0223792Y0177799D01*
X0221628Y0174051D01*
X0220606Y0174641D01*
X0222770Y0178389D01*
G37*
G36*
X0220554Y0179668D02*
X0221576Y0179078D01*
X0219412Y0175330D01*
X0218390Y0175920D01*
X0220554Y0179668D01*
G37*
G36*
X0218337Y0180948D02*
X0219359Y0180358D01*
X0217195Y0176610D01*
X0216173Y0177200D01*
X0218337Y0180948D01*
G37*
G36*
X0216121Y0182227D02*
X0217143Y0181637D01*
X0214979Y0177889D01*
X0213957Y0178479D01*
X0216121Y0182227D01*
G37*
X0203451Y0221338D03*
X0200892Y0221338D03*
X0198333Y0221338D03*
X0195774Y0221338D03*
X0193215Y0221338D03*
X0193215Y0238661D03*
X0195774Y0238661D03*
X0198333Y0238661D03*
X0200892Y0238661D03*
X0203451Y0238661D03*
D16*
X0207388Y0235118D03*
X0207388Y0232559D03*
X0207388Y0230000D03*
X0207388Y0227441D03*
X0207388Y0224882D03*
X0189672Y0224882D03*
X0189672Y0227441D03*
X0189672Y0230000D03*
X0189672Y0232559D03*
X0189672Y0235118D03*
D17*
X0180333Y0233346D03*
X0180333Y0226653D03*
X0178333Y0256653D03*
X0178333Y0263346D03*
X0168833Y0263346D03*
X0168833Y0256653D03*
X0143333Y0256653D03*
X0143333Y0263346D03*
X0218333Y0263346D03*
X0218333Y0256653D03*
X0216333Y0233346D03*
X0223333Y0233346D03*
X0223333Y0226653D03*
X0216333Y0226653D03*
D18*
X0209357Y0252500D03*
X0209357Y0257500D03*
X0209357Y0262500D03*
X0209357Y0267500D03*
X0187310Y0267500D03*
X0187310Y0262500D03*
X0187310Y0257500D03*
X0187310Y0252500D03*
D19*
X0133865Y0211024D03*
X0133865Y0188976D03*
X0262802Y0188976D03*
X0262802Y0211024D03*
D20*
X0248333Y0205906D03*
X0248333Y0201969D03*
X0248333Y0198031D03*
X0248333Y0194094D03*
X0148334Y0194094D03*
X0148334Y0198031D03*
X0148334Y0201969D03*
X0148334Y0205906D03*
D21*
X0158503Y0243622D02*
X0158503Y0246378D01*
X0161259Y0246378D01*
X0161259Y0243622D01*
X0158503Y0243622D01*
X0158503Y0244744D02*
X0161259Y0244744D01*
X0161259Y0245866D02*
X0158503Y0245866D01*
X0165408Y0246378D02*
X0165408Y0243622D01*
X0165408Y0246378D02*
X0168164Y0246378D01*
X0168164Y0243622D01*
X0165408Y0243622D01*
X0165408Y0244744D02*
X0168164Y0244744D01*
X0168164Y0245866D02*
X0165408Y0245866D01*
X0220725Y0218494D02*
X0223111Y0219872D01*
X0224489Y0217486D01*
X0222103Y0216108D01*
X0220725Y0218494D01*
X0221455Y0217230D02*
X0224046Y0217230D01*
X0223989Y0218352D02*
X0220807Y0218352D01*
X0222422Y0219474D02*
X0223341Y0219474D01*
X0226564Y0213892D02*
X0224178Y0212514D01*
X0226564Y0213892D02*
X0227942Y0211506D01*
X0225556Y0210128D01*
X0224178Y0212514D01*
X0224908Y0211250D02*
X0227499Y0211250D01*
X0227442Y0212372D02*
X0224260Y0212372D01*
X0225875Y0213494D02*
X0226794Y0213494D01*
X0228502Y0243622D02*
X0228502Y0246378D01*
X0231258Y0246378D01*
X0231258Y0243622D01*
X0228502Y0243622D01*
X0228502Y0244744D02*
X0231258Y0244744D01*
X0231258Y0245866D02*
X0228502Y0245866D01*
X0235408Y0246378D02*
X0235408Y0243622D01*
X0235408Y0246378D02*
X0238164Y0246378D01*
X0238164Y0243622D01*
X0235408Y0243622D01*
X0235408Y0244744D02*
X0238164Y0244744D01*
X0238164Y0245866D02*
X0235408Y0245866D01*
D22*
G36*
X0169612Y0213399D02*
X0172338Y0211824D01*
X0170370Y0208417D01*
X0167644Y0209992D01*
X0169612Y0213399D01*
G37*
D23*
G36*
X0174487Y0221846D02*
X0177214Y0220271D01*
X0173475Y0213794D01*
X0170748Y0215369D01*
X0174487Y0221846D01*
G37*
D24*
X0193333Y0250000D03*
X0193333Y0260000D03*
X0193333Y0270000D03*
X0203333Y0270000D03*
X0203333Y0260000D03*
X0203333Y0250000D03*
D25*
X0203333Y0162500D03*
X0203333Y0158500D03*
D26*
X0203333Y0160500D03*
D27*
X0203944Y0170000D03*
X0192723Y0170000D03*
D28*
X0136359Y0127979D02*
X0135380Y0127000D01*
X0153399Y0127000D01*
X0151099Y0128930D01*
X0151099Y0128930D01*
X0149459Y0131770D01*
X0149459Y0131770D01*
X0148890Y0135000D01*
X0148890Y0135000D01*
X0149459Y0138230D01*
X0149459Y0138230D01*
X0151099Y0141070D01*
X0151099Y0141070D01*
X0151099Y0141070D01*
X0153612Y0143178D01*
X0153612Y0143178D01*
X0156693Y0144300D01*
X0159973Y0144300D01*
X0163055Y0143178D01*
X0163055Y0143178D01*
X0165567Y0141070D01*
X0165567Y0141070D01*
X0167207Y0138230D01*
X0167777Y0135000D01*
X0167207Y0131770D01*
X0165567Y0128930D01*
X0165567Y0128930D01*
X0165567Y0128930D01*
X0163268Y0127000D01*
X0168839Y0127000D01*
X0168033Y0128946D01*
X0168033Y0131054D01*
X0168840Y0133002D01*
X0170331Y0134493D01*
X0172279Y0135300D01*
X0174388Y0135300D01*
X0176336Y0134493D01*
X0177826Y0133002D01*
X0178333Y0131779D01*
X0178840Y0133002D01*
X0180331Y0134493D01*
X0182279Y0135300D01*
X0184388Y0135300D01*
X0186336Y0134493D01*
X0187826Y0133002D01*
X0188333Y0131779D01*
X0188840Y0133002D01*
X0190331Y0134493D01*
X0192279Y0135300D01*
X0194388Y0135300D01*
X0196335Y0134493D01*
X0197826Y0133002D01*
X0198333Y0131779D01*
X0198840Y0133002D01*
X0200331Y0134493D01*
X0202279Y0135300D01*
X0204388Y0135300D01*
X0206335Y0134493D01*
X0207826Y0133002D01*
X0208333Y0131779D01*
X0208840Y0133002D01*
X0210331Y0134493D01*
X0210612Y0134610D01*
X0207422Y0137800D01*
X0192422Y0137800D01*
X0191133Y0139089D01*
X0182145Y0148077D01*
X0182070Y0148152D01*
X0182070Y0165836D01*
X0180504Y0164932D01*
X0179020Y0167503D01*
X0178327Y0167103D01*
X0179812Y0164532D01*
X0178123Y0163558D01*
X0177767Y0163462D01*
X0177398Y0163462D01*
X0177042Y0163558D01*
X0176723Y0163742D01*
X0176462Y0164003D01*
X0176322Y0164246D01*
X0175919Y0163272D01*
X0175061Y0162414D01*
X0173940Y0161950D01*
X0172727Y0161950D01*
X0171606Y0162414D01*
X0171020Y0163000D01*
X0167505Y0163000D01*
X0166333Y0164172D01*
X0162728Y0167777D01*
X0162728Y0169670D01*
X0161952Y0171014D01*
X0160999Y0170464D01*
X0159417Y0173205D01*
X0158724Y0172805D01*
X0160307Y0170064D01*
X0158789Y0169188D01*
X0158433Y0169092D01*
X0158064Y0169092D01*
X0157708Y0169188D01*
X0157389Y0169372D01*
X0157128Y0169633D01*
X0156153Y0171321D01*
X0158724Y0172805D01*
X0158324Y0173498D01*
X0155753Y0172014D01*
X0154778Y0173702D01*
X0154683Y0174059D01*
X0154683Y0174427D01*
X0154749Y0174673D01*
X0153848Y0174915D01*
X0151019Y0179813D01*
X0151363Y0181093D01*
X0155920Y0183725D01*
X0157200Y0183382D01*
X0157614Y0182664D01*
X0158405Y0183121D01*
X0158405Y0183121D01*
X0158405Y0183121D01*
X0158978Y0182968D01*
X0159214Y0182904D01*
X0158406Y0184305D01*
X0158749Y0185585D01*
X0162370Y0187675D01*
X0160279Y0191296D01*
X0160349Y0191556D01*
X0159583Y0192883D01*
X0159646Y0193118D01*
X0159847Y0193866D01*
X0159770Y0193822D01*
X0158490Y0194165D01*
X0158064Y0194903D01*
X0157162Y0194000D01*
X0155256Y0192094D01*
X0152435Y0192094D01*
X0151654Y0191313D01*
X0145013Y0191313D01*
X0144249Y0192078D01*
X0143940Y0191950D01*
X0142727Y0191950D01*
X0141606Y0192414D01*
X0140748Y0193272D01*
X0140283Y0194393D01*
X0140283Y0195607D01*
X0140748Y0196728D01*
X0141606Y0197586D01*
X0142727Y0198050D01*
X0143940Y0198050D01*
X0144076Y0197994D01*
X0144076Y0199875D01*
X0144201Y0200000D01*
X0144076Y0200125D01*
X0144076Y0203812D01*
X0144399Y0204136D01*
X0144371Y0204184D01*
X0144276Y0204540D01*
X0144276Y0205715D01*
X0148143Y0205715D01*
X0148143Y0206096D01*
X0144276Y0206096D01*
X0144276Y0207271D01*
X0144371Y0207627D01*
X0144556Y0207946D01*
X0144816Y0208207D01*
X0145136Y0208391D01*
X0145492Y0208487D01*
X0148143Y0208487D01*
X0148143Y0206096D01*
X0148524Y0206096D01*
X0148524Y0208487D01*
X0151175Y0208487D01*
X0151531Y0208391D01*
X0151851Y0208207D01*
X0152111Y0207946D01*
X0152296Y0207627D01*
X0152391Y0207271D01*
X0152391Y0206096D01*
X0148524Y0206096D01*
X0148524Y0205715D01*
X0152391Y0205715D01*
X0152391Y0205669D01*
X0152633Y0205911D01*
X0152633Y0214844D01*
X0151831Y0215177D01*
X0150340Y0216668D01*
X0149533Y0218616D01*
X0149533Y0220724D01*
X0150340Y0222672D01*
X0151831Y0224163D01*
X0153779Y0224970D01*
X0155698Y0224970D01*
X0155340Y0225328D01*
X0154533Y0227276D01*
X0154533Y0229384D01*
X0155340Y0231332D01*
X0156514Y0232506D01*
X0156220Y0232800D01*
X0153183Y0232800D01*
X0153183Y0231837D01*
X0152246Y0230900D01*
X0148421Y0230900D01*
X0148333Y0230987D01*
X0148246Y0230900D01*
X0144421Y0230900D01*
X0143483Y0231837D01*
X0143483Y0238163D01*
X0144163Y0238842D01*
X0144158Y0238846D01*
X0144158Y0238846D01*
X0142987Y0240018D01*
X0142987Y0241431D01*
X0142159Y0241431D01*
X0141222Y0242369D01*
X0141222Y0247631D01*
X0141305Y0247715D01*
X0140748Y0248272D01*
X0140283Y0249393D01*
X0140283Y0250607D01*
X0140748Y0251728D01*
X0141333Y0252313D01*
X0141333Y0252888D01*
X0140702Y0252888D01*
X0139765Y0253825D01*
X0139765Y0259482D01*
X0140283Y0260000D01*
X0139765Y0260518D01*
X0139765Y0266174D01*
X0140702Y0267112D01*
X0145965Y0267112D01*
X0146902Y0266174D01*
X0146902Y0264260D01*
X0148983Y0262178D01*
X0148983Y0263163D01*
X0149921Y0264100D01*
X0153746Y0264100D01*
X0153833Y0264013D01*
X0153921Y0264100D01*
X0157746Y0264100D01*
X0157833Y0264013D01*
X0157921Y0264100D01*
X0161746Y0264100D01*
X0162675Y0263171D01*
X0164851Y0265346D01*
X0165265Y0265346D01*
X0165265Y0266174D01*
X0166202Y0267112D01*
X0171465Y0267112D01*
X0172402Y0266174D01*
X0172402Y0260518D01*
X0171884Y0260000D01*
X0172402Y0259481D01*
X0172402Y0257915D01*
X0172727Y0258050D01*
X0173272Y0258050D01*
X0174075Y0258853D01*
X0174765Y0258853D01*
X0174765Y0259481D01*
X0175425Y0260141D01*
X0175245Y0260321D01*
X0175060Y0260641D01*
X0174965Y0260997D01*
X0174965Y0262946D01*
X0177933Y0262946D01*
X0177933Y0263746D01*
X0174965Y0263746D01*
X0174965Y0265696D01*
X0175060Y0266052D01*
X0175245Y0266371D01*
X0175505Y0266632D01*
X0175824Y0266816D01*
X0176181Y0266912D01*
X0177933Y0266912D01*
X0177933Y0263746D01*
X0178733Y0263746D01*
X0178733Y0266912D01*
X0180486Y0266912D01*
X0180842Y0266816D01*
X0181133Y0266648D01*
X0181133Y0271911D01*
X0183922Y0274700D01*
X0182279Y0274700D01*
X0180331Y0275507D01*
X0178840Y0276998D01*
X0178213Y0278513D01*
X0178060Y0278042D01*
X0177695Y0277327D01*
X0177223Y0276677D01*
X0176656Y0276110D01*
X0176006Y0275638D01*
X0175291Y0275273D01*
X0174528Y0275025D01*
X0173735Y0274900D01*
X0173733Y0274900D01*
X0173733Y0279600D01*
X0172933Y0279600D01*
X0168233Y0279600D01*
X0168233Y0279598D01*
X0168359Y0278806D01*
X0168607Y0278042D01*
X0168971Y0277327D01*
X0169443Y0276677D01*
X0170011Y0276110D01*
X0170660Y0275638D01*
X0171376Y0275273D01*
X0172139Y0275025D01*
X0172932Y0274900D01*
X0172933Y0274900D01*
X0172933Y0279600D01*
X0172933Y0280400D01*
X0168233Y0280400D01*
X0168233Y0280401D01*
X0168359Y0281194D01*
X0168607Y0281958D01*
X0168971Y0282673D01*
X0169209Y0283000D01*
X0163268Y0283000D01*
X0165567Y0281070D01*
X0165567Y0281070D01*
X0167207Y0278230D01*
X0167207Y0278230D01*
X0167777Y0275000D01*
X0167777Y0275000D01*
X0167207Y0271770D01*
X0167207Y0271770D01*
X0165567Y0268930D01*
X0165567Y0268930D01*
X0165567Y0268930D01*
X0163055Y0266822D01*
X0163055Y0266822D01*
X0159973Y0265700D01*
X0156693Y0265700D01*
X0153612Y0266822D01*
X0153612Y0266822D01*
X0151099Y0268930D01*
X0151099Y0268930D01*
X0149459Y0271770D01*
X0149459Y0271770D01*
X0148890Y0275000D01*
X0148890Y0275000D01*
X0149459Y0278230D01*
X0149459Y0278230D01*
X0151099Y0281070D01*
X0151099Y0281070D01*
X0151099Y0281070D01*
X0153399Y0283000D01*
X0130333Y0283000D01*
X0130333Y0214986D01*
X0138465Y0214986D01*
X0139402Y0214049D01*
X0139402Y0207999D01*
X0138465Y0207061D01*
X0130333Y0207061D01*
X0130333Y0192939D01*
X0138465Y0192939D01*
X0139402Y0192001D01*
X0139402Y0185951D01*
X0138465Y0185014D01*
X0130333Y0185014D01*
X0130333Y0132047D01*
X0131312Y0133025D01*
X0132623Y0133568D01*
X0134043Y0133568D01*
X0135355Y0133025D01*
X0136359Y0132021D01*
X0136902Y0130710D01*
X0136902Y0129290D01*
X0136359Y0127979D01*
X0136448Y0128194D02*
X0151976Y0128194D01*
X0151063Y0128993D02*
X0136779Y0128993D01*
X0136902Y0129791D02*
X0150602Y0129791D01*
X0150141Y0130590D02*
X0136902Y0130590D01*
X0136621Y0131388D02*
X0149680Y0131388D01*
X0149386Y0132187D02*
X0136193Y0132187D01*
X0135395Y0132985D02*
X0149245Y0132985D01*
X0149104Y0133784D02*
X0130333Y0133784D01*
X0130333Y0134582D02*
X0148964Y0134582D01*
X0148957Y0135381D02*
X0130333Y0135381D01*
X0130333Y0136179D02*
X0149098Y0136179D01*
X0149239Y0136978D02*
X0130333Y0136978D01*
X0130333Y0137776D02*
X0149379Y0137776D01*
X0149658Y0138575D02*
X0130333Y0138575D01*
X0130333Y0139373D02*
X0150120Y0139373D01*
X0150581Y0140172D02*
X0130333Y0140172D01*
X0130333Y0140970D02*
X0151042Y0140970D01*
X0151932Y0141769D02*
X0130333Y0141769D01*
X0130333Y0142567D02*
X0152883Y0142567D01*
X0154127Y0143366D02*
X0130333Y0143366D01*
X0130333Y0144164D02*
X0156321Y0144164D01*
X0160346Y0144164D02*
X0186058Y0144164D01*
X0186856Y0143366D02*
X0162540Y0143366D01*
X0163783Y0142567D02*
X0187655Y0142567D01*
X0188453Y0141769D02*
X0164735Y0141769D01*
X0165625Y0140970D02*
X0189252Y0140970D01*
X0190050Y0140172D02*
X0166086Y0140172D01*
X0166547Y0139373D02*
X0190849Y0139373D01*
X0191647Y0138575D02*
X0167008Y0138575D01*
X0167287Y0137776D02*
X0207446Y0137776D01*
X0208244Y0136978D02*
X0167428Y0136978D01*
X0167569Y0136179D02*
X0209043Y0136179D01*
X0209841Y0135381D02*
X0167710Y0135381D01*
X0167703Y0134582D02*
X0170546Y0134582D01*
X0169621Y0133784D02*
X0167562Y0133784D01*
X0167421Y0132985D02*
X0168833Y0132985D01*
X0168502Y0132187D02*
X0167281Y0132187D01*
X0166987Y0131388D02*
X0168172Y0131388D01*
X0168033Y0130590D02*
X0166526Y0130590D01*
X0166065Y0129791D02*
X0168033Y0129791D01*
X0168033Y0128993D02*
X0165604Y0128993D01*
X0164691Y0128194D02*
X0168345Y0128194D01*
X0168676Y0127396D02*
X0163739Y0127396D01*
X0152928Y0127396D02*
X0135775Y0127396D01*
X0130473Y0132187D02*
X0130333Y0132187D01*
X0130333Y0132985D02*
X0131272Y0132985D01*
X0130333Y0144963D02*
X0185259Y0144963D01*
X0184461Y0145761D02*
X0130333Y0145761D01*
X0130333Y0146560D02*
X0183662Y0146560D01*
X0182864Y0147358D02*
X0130333Y0147358D01*
X0130333Y0148157D02*
X0182070Y0148157D01*
X0182070Y0148955D02*
X0130333Y0148955D01*
X0130333Y0149754D02*
X0182070Y0149754D01*
X0182070Y0150552D02*
X0130333Y0150552D01*
X0130333Y0151351D02*
X0182070Y0151351D01*
X0182070Y0152149D02*
X0130333Y0152149D01*
X0130333Y0152948D02*
X0182070Y0152948D01*
X0182070Y0153746D02*
X0130333Y0153746D01*
X0130333Y0154545D02*
X0182070Y0154545D01*
X0182070Y0155343D02*
X0130333Y0155343D01*
X0130333Y0156142D02*
X0182070Y0156142D01*
X0182070Y0156940D02*
X0130333Y0156940D01*
X0130333Y0157739D02*
X0182070Y0157739D01*
X0182070Y0158537D02*
X0130333Y0158537D01*
X0130333Y0159336D02*
X0182070Y0159336D01*
X0182070Y0160134D02*
X0130333Y0160134D01*
X0130333Y0160933D02*
X0182070Y0160933D01*
X0182070Y0161732D02*
X0130333Y0161732D01*
X0130333Y0162530D02*
X0171490Y0162530D01*
X0173333Y0165000D02*
X0168333Y0165000D01*
X0164728Y0168605D01*
X0164728Y0170206D01*
X0162478Y0174103D01*
X0163189Y0176754D01*
X0166132Y0178453D01*
X0167412Y0176237D02*
X0165283Y0175008D01*
X0164960Y0173804D01*
X0167210Y0169907D01*
X0168240Y0169907D01*
X0168333Y0170000D01*
X0170534Y0172112D02*
X0171355Y0172112D01*
X0170919Y0171728D02*
X0170061Y0172586D01*
X0168940Y0173050D01*
X0167727Y0173050D01*
X0167709Y0173043D01*
X0167347Y0173670D01*
X0169678Y0175016D01*
X0171769Y0171396D01*
X0173049Y0171053D01*
X0175220Y0172306D01*
X0175229Y0172342D01*
X0175265Y0172332D01*
X0177436Y0173585D01*
X0177446Y0173621D01*
X0177481Y0173612D01*
X0178878Y0174418D01*
X0179239Y0173793D01*
X0179239Y0173793D01*
X0179718Y0172963D01*
X0179989Y0172494D01*
X0179795Y0171771D01*
X0179549Y0171837D01*
X0179180Y0171837D01*
X0178824Y0171742D01*
X0177136Y0170767D01*
X0178620Y0168196D01*
X0177927Y0167796D01*
X0176443Y0170367D01*
X0174755Y0169392D01*
X0174494Y0169131D01*
X0174310Y0168812D01*
X0174214Y0168456D01*
X0174214Y0168087D01*
X0174260Y0167918D01*
X0173940Y0168050D01*
X0172727Y0168050D01*
X0171606Y0167586D01*
X0171020Y0167000D01*
X0169162Y0167000D01*
X0169132Y0167030D01*
X0170061Y0167414D01*
X0170919Y0168272D01*
X0171383Y0169393D01*
X0171383Y0170607D01*
X0170919Y0171728D01*
X0171090Y0171314D02*
X0172074Y0171314D01*
X0171383Y0170515D02*
X0177281Y0170515D01*
X0177742Y0169717D02*
X0176818Y0169717D01*
X0177279Y0168918D02*
X0178203Y0168918D01*
X0178488Y0168120D02*
X0177740Y0168120D01*
X0178705Y0167321D02*
X0179125Y0167321D01*
X0179586Y0166523D02*
X0178663Y0166523D01*
X0179124Y0165724D02*
X0180047Y0165724D01*
X0179585Y0164926D02*
X0182070Y0164926D01*
X0182070Y0165724D02*
X0181875Y0165724D01*
X0182070Y0164127D02*
X0179109Y0164127D01*
X0176391Y0164127D02*
X0176273Y0164127D01*
X0175942Y0163329D02*
X0182070Y0163329D01*
X0182070Y0162530D02*
X0175177Y0162530D01*
X0174214Y0168120D02*
X0170766Y0168120D01*
X0171186Y0168918D02*
X0174371Y0168918D01*
X0175317Y0169717D02*
X0171383Y0169717D01*
X0171341Y0167321D02*
X0169836Y0167321D01*
X0166378Y0164127D02*
X0130333Y0164127D01*
X0130333Y0163329D02*
X0167176Y0163329D01*
X0165579Y0164926D02*
X0130333Y0164926D01*
X0130333Y0165724D02*
X0164781Y0165724D01*
X0163982Y0166523D02*
X0130333Y0166523D01*
X0130333Y0167321D02*
X0163184Y0167321D01*
X0162728Y0168120D02*
X0130333Y0168120D01*
X0130333Y0168918D02*
X0162728Y0168918D01*
X0162701Y0169717D02*
X0159705Y0169717D01*
X0160046Y0170515D02*
X0160970Y0170515D01*
X0161088Y0170515D02*
X0162240Y0170515D01*
X0160509Y0171314D02*
X0159585Y0171314D01*
X0159124Y0172112D02*
X0160048Y0172112D01*
X0159587Y0172911D02*
X0158906Y0172911D01*
X0158663Y0172911D02*
X0157306Y0172911D01*
X0157523Y0172112D02*
X0155923Y0172112D01*
X0155696Y0172112D02*
X0130333Y0172112D01*
X0130333Y0171314D02*
X0156158Y0171314D01*
X0156619Y0170515D02*
X0130333Y0170515D01*
X0130333Y0169717D02*
X0157080Y0169717D01*
X0155235Y0172911D02*
X0130333Y0172911D01*
X0130333Y0173709D02*
X0154777Y0173709D01*
X0154704Y0174508D02*
X0130333Y0174508D01*
X0130333Y0175306D02*
X0153621Y0175306D01*
X0153160Y0176105D02*
X0130333Y0176105D01*
X0130333Y0176903D02*
X0152699Y0176903D01*
X0152238Y0177702D02*
X0130333Y0177702D01*
X0130333Y0178500D02*
X0151777Y0178500D01*
X0151316Y0179299D02*
X0130333Y0179299D01*
X0130333Y0180097D02*
X0151096Y0180097D01*
X0151310Y0180896D02*
X0130333Y0180896D01*
X0130333Y0181694D02*
X0152403Y0181694D01*
X0153786Y0182493D02*
X0130333Y0182493D01*
X0130333Y0183291D02*
X0155169Y0183291D01*
X0157252Y0183291D02*
X0158991Y0183291D01*
X0158530Y0184090D02*
X0130333Y0184090D01*
X0130333Y0184888D02*
X0158562Y0184888D01*
X0158926Y0185687D02*
X0139137Y0185687D01*
X0139402Y0186485D02*
X0160309Y0186485D01*
X0161692Y0187284D02*
X0139402Y0187284D01*
X0139402Y0188082D02*
X0162135Y0188082D01*
X0161674Y0188881D02*
X0139402Y0188881D01*
X0139402Y0189679D02*
X0161213Y0189679D01*
X0160752Y0190478D02*
X0139402Y0190478D01*
X0139402Y0191276D02*
X0160291Y0191276D01*
X0160050Y0192075D02*
X0152415Y0192075D01*
X0154428Y0194094D02*
X0156333Y0196000D01*
X0156333Y0203000D01*
X0158333Y0205000D01*
X0158333Y0210000D01*
X0161156Y0208844D02*
X0166430Y0208844D01*
X0166269Y0208937D02*
X0170145Y0206699D01*
X0171175Y0206975D01*
X0170927Y0206728D01*
X0170463Y0205607D01*
X0170463Y0204393D01*
X0170927Y0203272D01*
X0171393Y0202806D01*
X0171246Y0202259D01*
X0170319Y0201724D01*
X0169519Y0203109D01*
X0166778Y0201527D01*
X0166378Y0202220D01*
X0165685Y0201820D01*
X0164201Y0204390D01*
X0162512Y0203416D01*
X0162252Y0203155D01*
X0162068Y0202836D01*
X0162002Y0202590D01*
X0161100Y0202831D01*
X0158333Y0201234D01*
X0158333Y0202172D01*
X0159162Y0203000D01*
X0160333Y0204172D01*
X0160333Y0207687D01*
X0160919Y0208272D01*
X0161383Y0209393D01*
X0161383Y0210607D01*
X0161187Y0211080D01*
X0161354Y0210983D01*
X0161473Y0211015D01*
X0161505Y0210896D01*
X0164818Y0208983D01*
X0166098Y0209327D01*
X0166144Y0209405D01*
X0166269Y0208937D01*
X0167813Y0208045D02*
X0160692Y0208045D01*
X0160333Y0207247D02*
X0169197Y0207247D01*
X0170811Y0206448D02*
X0160333Y0206448D01*
X0160333Y0205650D02*
X0166382Y0205650D01*
X0166582Y0205765D02*
X0164894Y0204790D01*
X0166378Y0202220D01*
X0169119Y0203802D01*
X0168243Y0205320D01*
X0167982Y0205581D01*
X0167663Y0205765D01*
X0167307Y0205861D01*
X0166938Y0205861D01*
X0166582Y0205765D01*
X0167863Y0205650D02*
X0170481Y0205650D01*
X0170463Y0204851D02*
X0168514Y0204851D01*
X0168975Y0204053D02*
X0170604Y0204053D01*
X0170945Y0203254D02*
X0168170Y0203254D01*
X0168387Y0202456D02*
X0166787Y0202456D01*
X0166242Y0202456D02*
X0165318Y0202456D01*
X0164857Y0203254D02*
X0165781Y0203254D01*
X0165320Y0204053D02*
X0164396Y0204053D01*
X0163616Y0204053D02*
X0160214Y0204053D01*
X0160333Y0204851D02*
X0164999Y0204851D01*
X0162351Y0203254D02*
X0159416Y0203254D01*
X0158617Y0202456D02*
X0160450Y0202456D01*
X0159067Y0201657D02*
X0158333Y0201657D01*
X0160435Y0198327D02*
X0162264Y0195160D01*
X0161730Y0193165D01*
X0163590Y0189942D01*
X0159589Y0192873D02*
X0156035Y0192873D01*
X0156834Y0193672D02*
X0159795Y0193672D01*
X0158314Y0194470D02*
X0157632Y0194470D01*
X0154428Y0194094D02*
X0148334Y0194094D01*
X0144239Y0194094D01*
X0143333Y0195000D01*
X0141147Y0192873D02*
X0138530Y0192873D01*
X0139328Y0192075D02*
X0142425Y0192075D01*
X0144242Y0192075D02*
X0144252Y0192075D01*
X0140582Y0193672D02*
X0130333Y0193672D01*
X0130333Y0194470D02*
X0140283Y0194470D01*
X0140283Y0195269D02*
X0130333Y0195269D01*
X0130333Y0196068D02*
X0140474Y0196068D01*
X0140886Y0196866D02*
X0130333Y0196866D01*
X0130333Y0197665D02*
X0141796Y0197665D01*
X0144076Y0198463D02*
X0130333Y0198463D01*
X0130333Y0199262D02*
X0144076Y0199262D01*
X0144141Y0200060D02*
X0130333Y0200060D01*
X0130333Y0200859D02*
X0144076Y0200859D01*
X0144076Y0201657D02*
X0130333Y0201657D01*
X0130333Y0202456D02*
X0144076Y0202456D01*
X0144076Y0203254D02*
X0130333Y0203254D01*
X0130333Y0204053D02*
X0144316Y0204053D01*
X0144276Y0204851D02*
X0130333Y0204851D01*
X0130333Y0205650D02*
X0144276Y0205650D01*
X0144276Y0206448D02*
X0130333Y0206448D01*
X0138650Y0207247D02*
X0144276Y0207247D01*
X0144655Y0208045D02*
X0139402Y0208045D01*
X0139402Y0208844D02*
X0152633Y0208844D01*
X0152633Y0209642D02*
X0139402Y0209642D01*
X0139402Y0210441D02*
X0152633Y0210441D01*
X0152633Y0211239D02*
X0139402Y0211239D01*
X0139402Y0212038D02*
X0152633Y0212038D01*
X0152633Y0212836D02*
X0139402Y0212836D01*
X0139402Y0213635D02*
X0152633Y0213635D01*
X0152633Y0214433D02*
X0139017Y0214433D01*
X0130333Y0215232D02*
X0151776Y0215232D01*
X0150978Y0216030D02*
X0130333Y0216030D01*
X0130333Y0216829D02*
X0150274Y0216829D01*
X0149943Y0217627D02*
X0130333Y0217627D01*
X0130333Y0218426D02*
X0149612Y0218426D01*
X0149533Y0219224D02*
X0130333Y0219224D01*
X0130333Y0220023D02*
X0149533Y0220023D01*
X0149574Y0220821D02*
X0130333Y0220821D01*
X0130333Y0221620D02*
X0149905Y0221620D01*
X0150235Y0222418D02*
X0130333Y0222418D01*
X0130333Y0223217D02*
X0150885Y0223217D01*
X0151684Y0224015D02*
X0130333Y0224015D01*
X0130333Y0224814D02*
X0153403Y0224814D01*
X0155222Y0225612D02*
X0130333Y0225612D01*
X0130333Y0226411D02*
X0154892Y0226411D01*
X0154561Y0227209D02*
X0130333Y0227209D01*
X0130333Y0228008D02*
X0154533Y0228008D01*
X0154533Y0228806D02*
X0130333Y0228806D01*
X0130333Y0229605D02*
X0154625Y0229605D01*
X0154956Y0230403D02*
X0130333Y0230403D01*
X0130333Y0231202D02*
X0144119Y0231202D01*
X0143483Y0232001D02*
X0130333Y0232001D01*
X0130333Y0232799D02*
X0143483Y0232799D01*
X0143483Y0233598D02*
X0130333Y0233598D01*
X0130333Y0234396D02*
X0143483Y0234396D01*
X0143483Y0235195D02*
X0130333Y0235195D01*
X0130333Y0235993D02*
X0143483Y0235993D01*
X0143483Y0236792D02*
X0130333Y0236792D01*
X0130333Y0237590D02*
X0143483Y0237590D01*
X0143709Y0238389D02*
X0130333Y0238389D01*
X0130333Y0239187D02*
X0143818Y0239187D01*
X0143019Y0239986D02*
X0130333Y0239986D01*
X0130333Y0240784D02*
X0142987Y0240784D01*
X0142008Y0241583D02*
X0130333Y0241583D01*
X0130333Y0242381D02*
X0141222Y0242381D01*
X0141222Y0243180D02*
X0130333Y0243180D01*
X0130333Y0243978D02*
X0141222Y0243978D01*
X0141222Y0244777D02*
X0130333Y0244777D01*
X0130333Y0245575D02*
X0141222Y0245575D01*
X0141222Y0246374D02*
X0130333Y0246374D01*
X0130333Y0247172D02*
X0141222Y0247172D01*
X0141049Y0247971D02*
X0130333Y0247971D01*
X0130333Y0248769D02*
X0140542Y0248769D01*
X0140283Y0249568D02*
X0130333Y0249568D01*
X0130333Y0250366D02*
X0140283Y0250366D01*
X0140515Y0251165D02*
X0130333Y0251165D01*
X0130333Y0251963D02*
X0140984Y0251963D01*
X0141333Y0252762D02*
X0130333Y0252762D01*
X0130333Y0253560D02*
X0140030Y0253560D01*
X0139765Y0254359D02*
X0130333Y0254359D01*
X0130333Y0255157D02*
X0139765Y0255157D01*
X0139765Y0255956D02*
X0130333Y0255956D01*
X0130333Y0256754D02*
X0139765Y0256754D01*
X0139765Y0257553D02*
X0130333Y0257553D01*
X0130333Y0258351D02*
X0139765Y0258351D01*
X0139765Y0259150D02*
X0130333Y0259150D01*
X0130333Y0259948D02*
X0140232Y0259948D01*
X0139765Y0260747D02*
X0130333Y0260747D01*
X0130333Y0261545D02*
X0139765Y0261545D01*
X0139765Y0262344D02*
X0130333Y0262344D01*
X0130333Y0263142D02*
X0139765Y0263142D01*
X0139765Y0263941D02*
X0130333Y0263941D01*
X0130333Y0264739D02*
X0139765Y0264739D01*
X0139765Y0265538D02*
X0130333Y0265538D01*
X0130333Y0266337D02*
X0139927Y0266337D01*
X0143333Y0263346D02*
X0144987Y0263346D01*
X0148333Y0260000D01*
X0151833Y0260000D01*
X0148983Y0262344D02*
X0148818Y0262344D01*
X0148983Y0263142D02*
X0148019Y0263142D01*
X0147221Y0263941D02*
X0149762Y0263941D01*
X0146902Y0264739D02*
X0164244Y0264739D01*
X0163446Y0263941D02*
X0161905Y0263941D01*
X0161722Y0266337D02*
X0165427Y0266337D01*
X0165265Y0265538D02*
X0146902Y0265538D01*
X0146740Y0266337D02*
X0154945Y0266337D01*
X0153238Y0267135D02*
X0130333Y0267135D01*
X0130333Y0267934D02*
X0152287Y0267934D01*
X0151335Y0268732D02*
X0130333Y0268732D01*
X0130333Y0269531D02*
X0150752Y0269531D01*
X0150291Y0270329D02*
X0130333Y0270329D01*
X0130333Y0271128D02*
X0149830Y0271128D01*
X0149432Y0271926D02*
X0130333Y0271926D01*
X0130333Y0272725D02*
X0149291Y0272725D01*
X0149150Y0273523D02*
X0130333Y0273523D01*
X0130333Y0274322D02*
X0149009Y0274322D01*
X0148911Y0275120D02*
X0130333Y0275120D01*
X0130333Y0275919D02*
X0149052Y0275919D01*
X0149193Y0276717D02*
X0130333Y0276717D01*
X0130333Y0277516D02*
X0149333Y0277516D01*
X0149508Y0278314D02*
X0130333Y0278314D01*
X0130333Y0279113D02*
X0149969Y0279113D01*
X0150430Y0279911D02*
X0130333Y0279911D01*
X0130333Y0280710D02*
X0150891Y0280710D01*
X0151621Y0281508D02*
X0130333Y0281508D01*
X0130333Y0282307D02*
X0152573Y0282307D01*
X0164094Y0282307D02*
X0168785Y0282307D01*
X0168461Y0281508D02*
X0165045Y0281508D01*
X0165776Y0280710D02*
X0168282Y0280710D01*
X0168310Y0279113D02*
X0166698Y0279113D01*
X0166237Y0279911D02*
X0172933Y0279911D01*
X0172933Y0279113D02*
X0173733Y0279113D01*
X0173733Y0278314D02*
X0172933Y0278314D01*
X0172933Y0277516D02*
X0173733Y0277516D01*
X0173733Y0276717D02*
X0172933Y0276717D01*
X0172933Y0275919D02*
X0173733Y0275919D01*
X0173733Y0275120D02*
X0172933Y0275120D01*
X0171848Y0275120D02*
X0167756Y0275120D01*
X0167657Y0274322D02*
X0183544Y0274322D01*
X0182745Y0273523D02*
X0167516Y0273523D01*
X0167376Y0272725D02*
X0181947Y0272725D01*
X0181148Y0271926D02*
X0167235Y0271926D01*
X0166836Y0271128D02*
X0181133Y0271128D01*
X0181133Y0270329D02*
X0166375Y0270329D01*
X0165914Y0269531D02*
X0181133Y0269531D01*
X0181133Y0268732D02*
X0165332Y0268732D01*
X0164380Y0267934D02*
X0181133Y0267934D01*
X0181133Y0267135D02*
X0163428Y0267135D01*
X0165680Y0263346D02*
X0168833Y0263346D01*
X0165680Y0263346D02*
X0162333Y0260000D01*
X0159833Y0260000D01*
X0160283Y0255900D02*
X0158033Y0255900D01*
X0158033Y0253411D01*
X0158395Y0253050D01*
X0158940Y0253050D01*
X0160061Y0252586D01*
X0160919Y0251728D01*
X0161383Y0250607D01*
X0161383Y0249393D01*
X0161042Y0248568D01*
X0162166Y0248568D01*
X0163449Y0247285D01*
X0163449Y0246757D01*
X0163553Y0247146D01*
X0163815Y0247600D01*
X0164186Y0247971D01*
X0164640Y0248233D01*
X0165146Y0248368D01*
X0166386Y0248368D01*
X0166386Y0245400D01*
X0167186Y0245400D01*
X0167186Y0248368D01*
X0168426Y0248368D01*
X0168932Y0248233D01*
X0169386Y0247971D01*
X0169757Y0247600D01*
X0170019Y0247146D01*
X0170155Y0246640D01*
X0170155Y0245400D01*
X0167186Y0245400D01*
X0167186Y0244600D01*
X0167186Y0241631D01*
X0168426Y0241631D01*
X0168932Y0241767D01*
X0169386Y0242029D01*
X0169757Y0242400D01*
X0170019Y0242854D01*
X0170155Y0243360D01*
X0170155Y0244600D01*
X0167186Y0244600D01*
X0166386Y0244600D01*
X0166386Y0241631D01*
X0165146Y0241631D01*
X0164640Y0241767D01*
X0164186Y0242029D01*
X0163815Y0242400D01*
X0163553Y0242854D01*
X0163449Y0243243D01*
X0163449Y0242715D01*
X0162166Y0241431D01*
X0157595Y0241431D01*
X0156312Y0242715D01*
X0156312Y0243000D01*
X0155445Y0243000D01*
X0155445Y0242369D01*
X0154508Y0241431D01*
X0148852Y0241431D01*
X0148333Y0241950D01*
X0147815Y0241431D01*
X0147230Y0241431D01*
X0148333Y0240328D01*
X0148333Y0239013D01*
X0148421Y0239100D01*
X0152246Y0239100D01*
X0153183Y0238163D01*
X0153183Y0237200D01*
X0156220Y0237200D01*
X0156606Y0237586D01*
X0157727Y0238050D01*
X0158940Y0238050D01*
X0160061Y0237586D01*
X0160919Y0236728D01*
X0161383Y0235607D01*
X0161383Y0234393D01*
X0161041Y0233567D01*
X0162836Y0232823D01*
X0164327Y0231332D01*
X0165133Y0229384D01*
X0165133Y0227579D01*
X0166371Y0226865D01*
X0166371Y0226865D01*
X0167806Y0226037D01*
X0168548Y0223266D01*
X0172232Y0221139D01*
X0173433Y0223220D01*
X0174105Y0223400D01*
X0171005Y0226500D01*
X0171005Y0226500D01*
X0169833Y0227672D01*
X0169833Y0236328D01*
X0171005Y0237500D01*
X0171005Y0237500D01*
X0176833Y0243328D01*
X0176833Y0243328D01*
X0178005Y0244500D01*
X0183283Y0244500D01*
X0183283Y0245607D01*
X0183748Y0246728D01*
X0184606Y0247586D01*
X0185727Y0248050D01*
X0185783Y0248050D01*
X0185783Y0248607D01*
X0186248Y0249728D01*
X0186439Y0249919D01*
X0184763Y0249919D01*
X0184407Y0250014D01*
X0184088Y0250198D01*
X0183827Y0250459D01*
X0183643Y0250778D01*
X0183548Y0251134D01*
X0183548Y0252309D01*
X0187119Y0252309D01*
X0187119Y0252690D01*
X0183547Y0252690D01*
X0183548Y0253865D01*
X0183643Y0254221D01*
X0183827Y0254541D01*
X0184088Y0254801D01*
X0184160Y0254843D01*
X0183974Y0255029D01*
X0183398Y0254453D01*
X0181902Y0254453D01*
X0181902Y0253825D01*
X0180965Y0252888D01*
X0175702Y0252888D01*
X0175618Y0252972D01*
X0175061Y0252414D01*
X0173940Y0251950D01*
X0172727Y0251950D01*
X0171606Y0252414D01*
X0171132Y0252888D01*
X0166202Y0252888D01*
X0165265Y0253825D01*
X0165265Y0254118D01*
X0165061Y0253914D01*
X0163940Y0253450D01*
X0162727Y0253450D01*
X0161606Y0253914D01*
X0160748Y0254772D01*
X0160283Y0255893D01*
X0160283Y0255900D01*
X0160588Y0255157D02*
X0158033Y0255157D01*
X0158033Y0254359D02*
X0161161Y0254359D01*
X0162460Y0253560D02*
X0158033Y0253560D01*
X0159636Y0252762D02*
X0171258Y0252762D01*
X0172695Y0251963D02*
X0160683Y0251963D01*
X0161152Y0251165D02*
X0183548Y0251165D01*
X0183548Y0251963D02*
X0173972Y0251963D01*
X0175408Y0252762D02*
X0183548Y0252762D01*
X0183548Y0253560D02*
X0181637Y0253560D01*
X0181902Y0254359D02*
X0183722Y0254359D01*
X0183920Y0250366D02*
X0161383Y0250366D01*
X0161383Y0249568D02*
X0186181Y0249568D01*
X0185851Y0248769D02*
X0161125Y0248769D01*
X0162764Y0247971D02*
X0164186Y0247971D01*
X0163568Y0247172D02*
X0163449Y0247172D01*
X0166386Y0247172D02*
X0167186Y0247172D01*
X0167186Y0246374D02*
X0166386Y0246374D01*
X0166386Y0245575D02*
X0167186Y0245575D01*
X0167186Y0244777D02*
X0183283Y0244777D01*
X0183283Y0245575D02*
X0170155Y0245575D01*
X0170155Y0246374D02*
X0183601Y0246374D01*
X0184192Y0247172D02*
X0170004Y0247172D01*
X0169386Y0247971D02*
X0185535Y0247971D01*
X0186333Y0245000D02*
X0189672Y0241661D01*
X0189672Y0235118D01*
X0193215Y0238661D02*
X0193215Y0239618D01*
X0193215Y0244618D01*
X0189833Y0248000D01*
X0188833Y0248000D01*
X0191072Y0252122D02*
X0191072Y0252309D01*
X0187500Y0252309D01*
X0187500Y0252690D01*
X0191072Y0252690D01*
X0191072Y0253865D01*
X0190976Y0254221D01*
X0190792Y0254541D01*
X0190532Y0254801D01*
X0190459Y0254843D01*
X0191272Y0255656D01*
X0191272Y0257394D01*
X0191464Y0257202D01*
X0192677Y0256700D01*
X0193805Y0256700D01*
X0194326Y0256178D01*
X0194333Y0256171D01*
X0194333Y0252941D01*
X0194238Y0252981D01*
X0193639Y0253100D01*
X0193433Y0253100D01*
X0193433Y0250100D01*
X0193233Y0250100D01*
X0193233Y0253100D01*
X0193028Y0253100D01*
X0192429Y0252981D01*
X0191865Y0252747D01*
X0191357Y0252408D01*
X0191072Y0252122D01*
X0191072Y0252762D02*
X0191901Y0252762D01*
X0191072Y0253560D02*
X0194333Y0253560D01*
X0194333Y0254359D02*
X0190897Y0254359D01*
X0190773Y0255157D02*
X0194333Y0255157D01*
X0194333Y0255956D02*
X0191272Y0255956D01*
X0191272Y0256754D02*
X0192545Y0256754D01*
X0195774Y0257559D02*
X0193333Y0260000D01*
X0195774Y0257559D02*
X0196333Y0257000D01*
X0196333Y0257000D01*
X0196333Y0245000D01*
X0195774Y0244441D01*
X0195774Y0238661D01*
X0198333Y0238661D02*
X0198333Y0252000D01*
X0200333Y0254000D01*
X0202333Y0256500D02*
X0201833Y0257000D01*
X0196333Y0257000D01*
X0193433Y0252762D02*
X0193233Y0252762D01*
X0193233Y0251963D02*
X0193433Y0251963D01*
X0193433Y0251165D02*
X0193233Y0251165D01*
X0193233Y0250366D02*
X0193433Y0250366D01*
X0200892Y0243559D02*
X0200892Y0243000D01*
X0200892Y0238661D01*
X0203451Y0238661D02*
X0203451Y0243618D01*
X0204833Y0245000D01*
X0214987Y0245000D01*
X0214987Y0248654D01*
X0216333Y0250000D01*
X0218333Y0250000D01*
X0217833Y0253500D02*
X0216833Y0253500D01*
X0210333Y0247000D01*
X0204333Y0247000D01*
X0200892Y0243559D01*
X0207388Y0235118D02*
X0211451Y0235118D01*
X0212333Y0236000D01*
X0212333Y0239000D01*
X0213333Y0240000D01*
X0214833Y0241500D01*
X0218833Y0241500D01*
X0220333Y0240000D01*
X0220333Y0240000D01*
X0223333Y0237000D01*
X0223333Y0233346D01*
X0223333Y0233346D01*
X0253333Y0233346D01*
X0251164Y0231202D02*
X0240957Y0231202D01*
X0240812Y0231346D02*
X0251020Y0231346D01*
X0251606Y0230761D01*
X0252727Y0230296D01*
X0253940Y0230296D01*
X0255061Y0230761D01*
X0255919Y0231619D01*
X0256383Y0232740D01*
X0256383Y0233953D01*
X0255919Y0235074D01*
X0255061Y0235932D01*
X0253940Y0236396D01*
X0252727Y0236396D01*
X0251606Y0235932D01*
X0251020Y0235346D01*
X0226902Y0235346D01*
X0226902Y0236174D01*
X0225964Y0237112D01*
X0225333Y0237112D01*
X0225333Y0237828D01*
X0222333Y0240828D01*
X0222333Y0240828D01*
X0221730Y0241431D01*
X0224508Y0241431D01*
X0225445Y0242369D01*
X0225445Y0242800D01*
X0226312Y0242800D01*
X0226312Y0242715D01*
X0227595Y0241431D01*
X0232166Y0241431D01*
X0233333Y0242599D01*
X0234501Y0241431D01*
X0239071Y0241431D01*
X0240354Y0242715D01*
X0240354Y0247285D01*
X0239071Y0248568D01*
X0238786Y0248568D01*
X0238786Y0248876D01*
X0237883Y0249778D01*
X0237883Y0250607D01*
X0237419Y0251728D01*
X0236561Y0252586D01*
X0235440Y0253050D01*
X0234227Y0253050D01*
X0233106Y0252586D01*
X0232248Y0251728D01*
X0231783Y0250607D01*
X0231783Y0249393D01*
X0232125Y0248568D01*
X0227595Y0248568D01*
X0226312Y0247285D01*
X0226312Y0247200D01*
X0225445Y0247200D01*
X0225445Y0247631D01*
X0224508Y0248568D01*
X0223880Y0248568D01*
X0223880Y0261146D01*
X0228922Y0261146D01*
X0228969Y0261099D01*
X0230792Y0261099D01*
X0230839Y0261146D01*
X0234076Y0261146D01*
X0243633Y0251589D01*
X0243633Y0246613D01*
X0243248Y0246228D01*
X0242783Y0245107D01*
X0242783Y0243893D01*
X0243248Y0242772D01*
X0244106Y0241914D01*
X0245227Y0241450D01*
X0246440Y0241450D01*
X0247561Y0241914D01*
X0248419Y0242772D01*
X0248883Y0243893D01*
X0248883Y0245107D01*
X0248419Y0246228D01*
X0248033Y0246613D01*
X0248033Y0253411D01*
X0246745Y0254700D01*
X0235898Y0265546D01*
X0221902Y0265546D01*
X0221902Y0266174D01*
X0220965Y0267112D01*
X0215702Y0267112D01*
X0214765Y0266174D01*
X0214765Y0265546D01*
X0213268Y0265546D01*
X0212693Y0264970D01*
X0212663Y0265000D01*
X0213319Y0265656D01*
X0213319Y0269344D01*
X0212382Y0270281D01*
X0211557Y0270281D01*
X0211557Y0271445D01*
X0211557Y0272387D01*
X0211557Y0272387D01*
X0211557Y0272387D01*
X0210892Y0273052D01*
X0210533Y0273411D01*
X0210533Y0273411D01*
X0209533Y0274411D01*
X0208245Y0275700D01*
X0206529Y0275700D01*
X0207826Y0276998D01*
X0208333Y0278221D01*
X0208840Y0276998D01*
X0210331Y0275507D01*
X0212279Y0274700D01*
X0214388Y0274700D01*
X0216336Y0275507D01*
X0217826Y0276998D01*
X0218333Y0278221D01*
X0218840Y0276998D01*
X0220331Y0275507D01*
X0222279Y0274700D01*
X0224388Y0274700D01*
X0226336Y0275507D01*
X0227826Y0276998D01*
X0228633Y0278946D01*
X0228633Y0281054D01*
X0227827Y0283000D01*
X0233399Y0283000D01*
X0231099Y0281070D01*
X0229459Y0278230D01*
X0228890Y0275000D01*
X0229459Y0271770D01*
X0229459Y0271770D01*
X0231099Y0268930D01*
X0233612Y0266822D01*
X0233612Y0266822D01*
X0236693Y0265700D01*
X0239973Y0265700D01*
X0243055Y0266822D01*
X0245567Y0268930D01*
X0247207Y0271770D01*
X0247207Y0271770D01*
X0247777Y0275000D01*
X0247207Y0278230D01*
X0245567Y0281070D01*
X0243268Y0283000D01*
X0261287Y0283000D01*
X0260308Y0282021D01*
X0259765Y0280710D01*
X0259765Y0279290D01*
X0260308Y0277979D01*
X0261312Y0276975D01*
X0262623Y0276431D01*
X0264043Y0276431D01*
X0265355Y0276975D01*
X0266333Y0277953D01*
X0266333Y0214986D01*
X0258202Y0214986D01*
X0257265Y0214049D01*
X0257265Y0207999D01*
X0258202Y0207061D01*
X0266333Y0207061D01*
X0266333Y0192939D01*
X0258202Y0192939D01*
X0257833Y0192570D01*
X0257833Y0202828D01*
X0256662Y0204000D01*
X0252756Y0207905D01*
X0252434Y0207905D01*
X0251653Y0208687D01*
X0245013Y0208687D01*
X0244494Y0208168D01*
X0241383Y0211278D01*
X0241383Y0212107D01*
X0240919Y0213228D01*
X0240061Y0214086D01*
X0238940Y0214550D01*
X0237831Y0214550D01*
X0238545Y0214962D01*
X0238831Y0214677D01*
X0240779Y0213870D01*
X0242887Y0213870D01*
X0244835Y0214677D01*
X0246326Y0216168D01*
X0247133Y0218116D01*
X0247133Y0220224D01*
X0246326Y0222172D01*
X0244835Y0223663D01*
X0242887Y0224470D01*
X0240968Y0224470D01*
X0241326Y0224828D01*
X0242133Y0226776D01*
X0242133Y0228884D01*
X0241326Y0230832D01*
X0240812Y0231346D01*
X0241504Y0230403D02*
X0252468Y0230403D01*
X0254199Y0230403D02*
X0266333Y0230403D01*
X0266333Y0229605D02*
X0241835Y0229605D01*
X0242133Y0228806D02*
X0266333Y0228806D01*
X0266333Y0228008D02*
X0242133Y0228008D01*
X0242133Y0227209D02*
X0266333Y0227209D01*
X0266333Y0226411D02*
X0241982Y0226411D01*
X0241651Y0225612D02*
X0266333Y0225612D01*
X0266333Y0224814D02*
X0241312Y0224814D01*
X0243984Y0224015D02*
X0266333Y0224015D01*
X0266333Y0223217D02*
X0245281Y0223217D01*
X0246080Y0222418D02*
X0266333Y0222418D01*
X0266333Y0221620D02*
X0246555Y0221620D01*
X0246886Y0220821D02*
X0266333Y0220821D01*
X0266333Y0220023D02*
X0247133Y0220023D01*
X0247133Y0219224D02*
X0266333Y0219224D01*
X0266333Y0218426D02*
X0247133Y0218426D01*
X0246931Y0217627D02*
X0266333Y0217627D01*
X0266333Y0216829D02*
X0246600Y0216829D01*
X0246189Y0216030D02*
X0266333Y0216030D01*
X0266333Y0215232D02*
X0245390Y0215232D01*
X0244248Y0214433D02*
X0257649Y0214433D01*
X0257265Y0213635D02*
X0240512Y0213635D01*
X0241081Y0212836D02*
X0257265Y0212836D01*
X0257265Y0212038D02*
X0241383Y0212038D01*
X0241423Y0211239D02*
X0257265Y0211239D01*
X0257265Y0210441D02*
X0242221Y0210441D01*
X0243020Y0209642D02*
X0257265Y0209642D01*
X0257265Y0208844D02*
X0243818Y0208844D01*
X0243928Y0205906D02*
X0238333Y0211500D01*
X0239222Y0214433D02*
X0239419Y0214433D01*
X0241833Y0219170D02*
X0233079Y0214116D01*
X0230762Y0214736D01*
X0226060Y0212010D01*
X0223050Y0210284D01*
X0222484Y0208170D01*
X0225431Y0197172D01*
X0224212Y0195060D01*
X0222264Y0196068D02*
X0219361Y0196068D01*
X0220026Y0195684D02*
X0217991Y0196859D01*
X0217635Y0196954D01*
X0217266Y0196954D01*
X0216910Y0196859D01*
X0216591Y0196674D01*
X0216330Y0196414D01*
X0216000Y0195842D01*
X0215957Y0196003D01*
X0215957Y0196003D01*
X0215038Y0196533D01*
X0214197Y0197019D01*
X0214511Y0197563D01*
X0214168Y0198843D01*
X0209610Y0201475D01*
X0208767Y0201249D01*
X0207816Y0202200D01*
X0203645Y0202200D01*
X0203880Y0202435D01*
X0203880Y0207931D01*
X0204508Y0207931D01*
X0205445Y0208869D01*
X0205445Y0213000D01*
X0206020Y0213000D01*
X0206606Y0212414D01*
X0207727Y0211950D01*
X0208940Y0211950D01*
X0210061Y0212414D01*
X0210919Y0213272D01*
X0211383Y0214393D01*
X0211383Y0215607D01*
X0210919Y0216728D01*
X0210061Y0217586D01*
X0208940Y0218050D01*
X0207727Y0218050D01*
X0206606Y0217586D01*
X0206020Y0217000D01*
X0205662Y0217000D01*
X0205451Y0217210D01*
X0205451Y0218320D01*
X0205642Y0218510D01*
X0205642Y0222891D01*
X0207388Y0222891D01*
X0207388Y0224882D01*
X0207388Y0224882D01*
X0207389Y0224882D02*
X0210954Y0224882D01*
X0210954Y0225241D01*
X0211981Y0225241D01*
X0212099Y0225123D01*
X0212765Y0224457D01*
X0212765Y0223825D01*
X0213702Y0222888D01*
X0218964Y0222888D01*
X0219833Y0223757D01*
X0220702Y0222888D01*
X0223490Y0222888D01*
X0223278Y0222096D01*
X0222802Y0222223D01*
X0218844Y0219938D01*
X0218374Y0218185D01*
X0220659Y0214227D01*
X0222254Y0213799D01*
X0221827Y0212205D01*
X0221964Y0211966D01*
X0221337Y0211607D01*
X0221336Y0211603D01*
X0221333Y0211602D01*
X0221120Y0210805D01*
X0220903Y0210007D01*
X0220905Y0210005D01*
X0220620Y0208942D01*
X0220338Y0208452D01*
X0220413Y0208170D01*
X0220338Y0207887D01*
X0220620Y0207398D01*
X0223215Y0197715D01*
X0221538Y0194811D01*
X0220026Y0195684D01*
X0219030Y0193960D01*
X0220026Y0195684D01*
X0219786Y0195269D02*
X0219786Y0195269D01*
X0219325Y0194470D02*
X0219325Y0194470D01*
X0219030Y0193960D02*
X0219030Y0193960D01*
X0220744Y0195269D02*
X0221803Y0195269D01*
X0222725Y0196866D02*
X0217964Y0196866D01*
X0216937Y0196866D02*
X0214462Y0196866D01*
X0214484Y0197665D02*
X0223186Y0197665D01*
X0223014Y0198463D02*
X0214270Y0198463D01*
X0213444Y0199262D02*
X0222800Y0199262D01*
X0222586Y0200060D02*
X0212061Y0200060D01*
X0210678Y0200859D02*
X0222372Y0200859D01*
X0222158Y0201657D02*
X0208359Y0201657D01*
X0205993Y0197800D02*
X0206255Y0197538D01*
X0205502Y0196233D01*
X0205743Y0195332D01*
X0205497Y0195266D01*
X0205178Y0195082D01*
X0204918Y0194821D01*
X0203943Y0193133D01*
X0206513Y0191648D01*
X0206114Y0190956D01*
X0203543Y0192440D01*
X0202568Y0190751D01*
X0202473Y0190395D01*
X0202473Y0190027D01*
X0202568Y0189671D01*
X0202752Y0189351D01*
X0203013Y0189091D01*
X0204531Y0188214D01*
X0206114Y0190956D01*
X0206806Y0190556D01*
X0205224Y0187814D01*
X0206742Y0186938D01*
X0207098Y0186842D01*
X0207466Y0186842D01*
X0207822Y0186938D01*
X0208142Y0187122D01*
X0208402Y0187383D01*
X0209377Y0189071D01*
X0206806Y0190556D01*
X0207206Y0191248D01*
X0209777Y0189764D01*
X0210752Y0191453D01*
X0210847Y0191809D01*
X0210847Y0192177D01*
X0210781Y0192423D01*
X0211683Y0192665D01*
X0211997Y0193209D01*
X0212178Y0193104D01*
X0212395Y0192296D01*
X0213379Y0191728D01*
X0213390Y0191721D01*
X0212584Y0190325D01*
X0212593Y0190289D01*
X0212557Y0190280D01*
X0211304Y0188109D01*
X0211314Y0188073D01*
X0211278Y0188063D01*
X0210025Y0185893D01*
X0210368Y0184612D01*
X0214329Y0182325D01*
X0212484Y0179128D01*
X0211044Y0179960D01*
X0211044Y0180018D01*
X0210579Y0181139D01*
X0209721Y0181997D01*
X0208600Y0182462D01*
X0207387Y0182462D01*
X0206266Y0181997D01*
X0205408Y0181139D01*
X0204944Y0180018D01*
X0204944Y0178805D01*
X0205408Y0177684D01*
X0206266Y0176826D01*
X0207387Y0176362D01*
X0208600Y0176362D01*
X0208994Y0176525D01*
X0211338Y0175171D01*
X0210547Y0173802D01*
X0213289Y0172220D01*
X0212889Y0171527D01*
X0213581Y0171127D01*
X0212097Y0168556D01*
X0213786Y0167581D01*
X0214142Y0167486D01*
X0214510Y0167486D01*
X0214756Y0167552D01*
X0214998Y0166651D01*
X0219896Y0163822D01*
X0221177Y0164165D01*
X0223808Y0168723D01*
X0223465Y0170003D01*
X0223164Y0170177D01*
X0224122Y0170433D01*
X0224638Y0171326D01*
X0224898Y0171396D01*
X0226988Y0175016D01*
X0230609Y0172926D01*
X0231889Y0173269D01*
X0232448Y0174237D01*
X0232519Y0173972D01*
X0232585Y0173934D01*
X0232609Y0173862D01*
X0233293Y0173525D01*
X0233445Y0173438D01*
X0233156Y0172937D01*
X0233499Y0171657D01*
X0238056Y0169025D01*
X0239336Y0169368D01*
X0242165Y0174267D01*
X0241923Y0175168D01*
X0242169Y0175234D01*
X0242488Y0175418D01*
X0242749Y0175679D01*
X0243724Y0177367D01*
X0241153Y0178852D01*
X0241553Y0179544D01*
X0244124Y0178060D01*
X0245099Y0179749D01*
X0245194Y0180105D01*
X0245194Y0180473D01*
X0245099Y0180829D01*
X0244914Y0181149D01*
X0244876Y0181187D01*
X0245390Y0181701D01*
X0245854Y0182822D01*
X0245854Y0184035D01*
X0245390Y0185156D01*
X0244532Y0186014D01*
X0243411Y0186478D01*
X0242804Y0186478D01*
X0243240Y0186950D01*
X0243940Y0186950D01*
X0245061Y0187414D01*
X0245919Y0188272D01*
X0246383Y0189393D01*
X0246383Y0190607D01*
X0246008Y0191513D01*
X0248143Y0191513D01*
X0248143Y0193904D01*
X0248524Y0193904D01*
X0248524Y0191513D01*
X0251175Y0191513D01*
X0251333Y0191556D01*
X0251333Y0177313D01*
X0250748Y0176728D01*
X0250283Y0175607D01*
X0250283Y0174393D01*
X0250748Y0173272D01*
X0251606Y0172414D01*
X0252727Y0171950D01*
X0253940Y0171950D01*
X0255061Y0172414D01*
X0255919Y0173272D01*
X0256383Y0174393D01*
X0256383Y0175607D01*
X0255919Y0176728D01*
X0255333Y0177313D01*
X0255333Y0179273D01*
X0255748Y0178272D01*
X0256606Y0177414D01*
X0257727Y0176950D01*
X0258940Y0176950D01*
X0260061Y0177414D01*
X0260919Y0178272D01*
X0261383Y0179393D01*
X0261383Y0180607D01*
X0260919Y0181728D01*
X0260061Y0182586D01*
X0258940Y0183050D01*
X0258112Y0183050D01*
X0257833Y0183328D01*
X0257833Y0185383D01*
X0258202Y0185014D01*
X0266333Y0185014D01*
X0266333Y0127000D01*
X0243268Y0127000D01*
X0245567Y0128930D01*
X0247207Y0131770D01*
X0247207Y0131770D01*
X0247777Y0135000D01*
X0247207Y0138230D01*
X0245567Y0141070D01*
X0243055Y0143178D01*
X0239973Y0144300D01*
X0236693Y0144300D01*
X0233612Y0143178D01*
X0233612Y0143178D01*
X0231099Y0141070D01*
X0229459Y0138230D01*
X0228890Y0135000D01*
X0229459Y0131770D01*
X0231099Y0128930D01*
X0233399Y0127000D01*
X0227458Y0127000D01*
X0227695Y0127327D01*
X0228060Y0128042D01*
X0228308Y0128806D01*
X0228433Y0129599D01*
X0228433Y0129600D01*
X0223733Y0129600D01*
X0223733Y0130400D01*
X0222933Y0130400D01*
X0222933Y0135100D01*
X0222932Y0135100D01*
X0222139Y0134975D01*
X0221376Y0134727D01*
X0220660Y0134362D01*
X0220011Y0133890D01*
X0219443Y0133323D01*
X0218971Y0132673D01*
X0218607Y0131958D01*
X0218454Y0131487D01*
X0217826Y0133002D01*
X0216335Y0134493D01*
X0215533Y0134826D01*
X0215533Y0135911D01*
X0214245Y0137200D01*
X0209245Y0142200D01*
X0205533Y0142200D01*
X0205533Y0147675D01*
X0206336Y0148007D01*
X0207826Y0149498D01*
X0208633Y0151446D01*
X0208633Y0153554D01*
X0207826Y0155502D01*
X0207087Y0156241D01*
X0207433Y0156587D01*
X0207433Y0160413D01*
X0207346Y0160500D01*
X0207433Y0160587D01*
X0207433Y0163676D01*
X0207756Y0163676D01*
X0208693Y0164613D01*
X0208693Y0175387D01*
X0207756Y0176324D01*
X0200131Y0176324D01*
X0199194Y0175387D01*
X0199194Y0164613D01*
X0199314Y0164493D01*
X0199233Y0164413D01*
X0199233Y0160587D01*
X0199321Y0160500D01*
X0199233Y0160413D01*
X0199233Y0156587D01*
X0199579Y0156241D01*
X0198840Y0155502D01*
X0198333Y0154279D01*
X0197826Y0155502D01*
X0196336Y0156993D01*
X0195333Y0157408D01*
X0195333Y0160828D01*
X0194723Y0161439D01*
X0194723Y0163676D01*
X0196535Y0163676D01*
X0197473Y0164613D01*
X0197473Y0175387D01*
X0196535Y0176324D01*
X0188911Y0176324D01*
X0188060Y0175474D01*
X0186764Y0177719D01*
X0185362Y0178094D01*
X0184413Y0178349D01*
X0184358Y0178444D01*
X0184428Y0178704D01*
X0182237Y0182498D01*
X0183750Y0183371D01*
X0185785Y0184546D01*
X0186045Y0184807D01*
X0186230Y0185126D01*
X0186325Y0185482D01*
X0186325Y0185851D01*
X0186230Y0186207D01*
X0185842Y0186878D01*
X0185663Y0187189D01*
X0185686Y0187202D01*
X0186761Y0186914D01*
X0188005Y0187632D01*
X0188057Y0187662D01*
X0188371Y0187118D01*
X0189651Y0186775D01*
X0193767Y0189152D01*
X0195597Y0189152D01*
X0200533Y0194089D01*
X0200533Y0197800D01*
X0205993Y0197800D01*
X0206129Y0197665D02*
X0200533Y0197665D01*
X0200533Y0196866D02*
X0205867Y0196866D01*
X0205546Y0196068D02*
X0200533Y0196068D01*
X0200533Y0195269D02*
X0205508Y0195269D01*
X0204715Y0194470D02*
X0200533Y0194470D01*
X0200117Y0193672D02*
X0204254Y0193672D01*
X0204392Y0192873D02*
X0199318Y0192873D01*
X0198520Y0192075D02*
X0203332Y0192075D01*
X0204175Y0192075D02*
X0205775Y0192075D01*
X0205558Y0191276D02*
X0206299Y0191276D01*
X0205838Y0190478D02*
X0206762Y0190478D01*
X0206941Y0190478D02*
X0208541Y0190478D01*
X0208324Y0189679D02*
X0212211Y0189679D01*
X0211750Y0188881D02*
X0209267Y0188881D01*
X0208806Y0188082D02*
X0211311Y0188082D01*
X0210828Y0187284D02*
X0208303Y0187284D01*
X0206142Y0187284D02*
X0190532Y0187284D01*
X0191915Y0188082D02*
X0205378Y0188082D01*
X0204916Y0188881D02*
X0205839Y0188881D01*
X0206300Y0189679D02*
X0205377Y0189679D01*
X0203376Y0188881D02*
X0193298Y0188881D01*
X0196124Y0189679D02*
X0202566Y0189679D01*
X0202495Y0190478D02*
X0196923Y0190478D01*
X0197721Y0191276D02*
X0202871Y0191276D01*
X0210189Y0190478D02*
X0212672Y0190478D01*
X0213133Y0191276D02*
X0210650Y0191276D01*
X0210847Y0192075D02*
X0212777Y0192075D01*
X0212240Y0192873D02*
X0211803Y0192873D01*
X0215845Y0196068D02*
X0216130Y0196068D01*
X0215957Y0196003D02*
X0215957Y0196003D01*
X0221944Y0202456D02*
X0203880Y0202456D01*
X0203880Y0203254D02*
X0221731Y0203254D01*
X0221517Y0204053D02*
X0203880Y0204053D01*
X0203880Y0204851D02*
X0221303Y0204851D01*
X0221089Y0205650D02*
X0203880Y0205650D01*
X0203880Y0206448D02*
X0220875Y0206448D01*
X0220661Y0207247D02*
X0203880Y0207247D01*
X0204622Y0208045D02*
X0220380Y0208045D01*
X0220564Y0208844D02*
X0205420Y0208844D01*
X0205445Y0209642D02*
X0220808Y0209642D01*
X0221021Y0210441D02*
X0205445Y0210441D01*
X0205445Y0211239D02*
X0221236Y0211239D01*
X0221923Y0212038D02*
X0209152Y0212038D01*
X0210483Y0212836D02*
X0221996Y0212836D01*
X0222210Y0213635D02*
X0211069Y0213635D01*
X0211383Y0214433D02*
X0220540Y0214433D01*
X0220079Y0215232D02*
X0211383Y0215232D01*
X0211208Y0216030D02*
X0219618Y0216030D01*
X0219157Y0216829D02*
X0210818Y0216829D01*
X0209960Y0217627D02*
X0218696Y0217627D01*
X0218438Y0218426D02*
X0205558Y0218426D01*
X0205642Y0219224D02*
X0218652Y0219224D01*
X0218991Y0220023D02*
X0205642Y0220023D01*
X0205642Y0220821D02*
X0220374Y0220821D01*
X0221757Y0221620D02*
X0205642Y0221620D01*
X0205642Y0222418D02*
X0223364Y0222418D01*
X0220373Y0223217D02*
X0219293Y0223217D01*
X0222607Y0217990D02*
X0227327Y0220781D01*
X0219833Y0229550D02*
X0219242Y0230141D01*
X0219422Y0230321D01*
X0219606Y0230641D01*
X0219702Y0230997D01*
X0219702Y0232946D01*
X0216733Y0232946D01*
X0216733Y0233746D01*
X0219702Y0233746D01*
X0219702Y0235696D01*
X0219606Y0236052D01*
X0219422Y0236371D01*
X0219161Y0236632D01*
X0218842Y0236816D01*
X0218486Y0236912D01*
X0216733Y0236912D01*
X0216733Y0233746D01*
X0215933Y0233746D01*
X0215933Y0232946D01*
X0213700Y0232946D01*
X0213561Y0233086D01*
X0212632Y0233470D01*
X0212786Y0233624D01*
X0212965Y0233803D01*
X0212965Y0233746D01*
X0215933Y0233746D01*
X0215933Y0236912D01*
X0214333Y0236912D01*
X0214333Y0238171D01*
X0214399Y0238237D01*
X0215662Y0239500D01*
X0218005Y0239500D01*
X0218333Y0239172D01*
X0218333Y0239171D01*
X0220547Y0236957D01*
X0219765Y0236174D01*
X0219765Y0230518D01*
X0220283Y0230000D01*
X0219833Y0229550D01*
X0219778Y0229605D02*
X0219888Y0229605D01*
X0219879Y0230403D02*
X0219469Y0230403D01*
X0219702Y0231202D02*
X0219765Y0231202D01*
X0219765Y0232001D02*
X0219702Y0232001D01*
X0219702Y0232799D02*
X0219765Y0232799D01*
X0219765Y0233598D02*
X0216733Y0233598D01*
X0216733Y0234396D02*
X0215933Y0234396D01*
X0215933Y0233598D02*
X0212759Y0233598D01*
X0211833Y0230500D02*
X0211833Y0230000D01*
X0207388Y0230000D01*
X0207389Y0224882D02*
X0207389Y0224882D01*
X0210954Y0224882D01*
X0210954Y0224107D01*
X0210858Y0223751D01*
X0210674Y0223432D01*
X0210413Y0223171D01*
X0210094Y0222987D01*
X0209738Y0222891D01*
X0207388Y0222891D01*
X0207388Y0224882D01*
X0207388Y0224814D02*
X0207388Y0224814D01*
X0207388Y0224015D02*
X0207388Y0224015D01*
X0207388Y0223217D02*
X0207388Y0223217D01*
X0210459Y0223217D02*
X0213373Y0223217D01*
X0212765Y0224015D02*
X0210929Y0224015D01*
X0210954Y0224814D02*
X0212408Y0224814D01*
X0206706Y0217627D02*
X0205451Y0217627D01*
X0203451Y0216382D02*
X0204833Y0215000D01*
X0208333Y0215000D01*
X0206184Y0212836D02*
X0205445Y0212836D01*
X0205445Y0212038D02*
X0207515Y0212038D01*
X0203451Y0216382D02*
X0203451Y0221338D01*
X0198333Y0221338D02*
X0198333Y0205000D01*
X0196267Y0207247D02*
X0194383Y0207247D01*
X0194383Y0207607D02*
X0194166Y0208131D01*
X0194587Y0208131D01*
X0194587Y0211100D01*
X0195387Y0211100D01*
X0195387Y0208131D01*
X0196333Y0208131D01*
X0196333Y0207313D01*
X0195748Y0206728D01*
X0195283Y0205607D01*
X0195283Y0204393D01*
X0195748Y0203272D01*
X0196606Y0202414D01*
X0197334Y0202112D01*
X0196133Y0200911D01*
X0196133Y0195911D01*
X0193774Y0193552D01*
X0192898Y0193552D01*
X0191724Y0195585D01*
X0190822Y0195827D01*
X0190888Y0196073D01*
X0190888Y0196441D01*
X0190793Y0196798D01*
X0189818Y0198486D01*
X0187247Y0197002D01*
X0186847Y0197695D01*
X0186154Y0197295D01*
X0184572Y0200036D01*
X0183054Y0199159D01*
X0182793Y0198899D01*
X0182609Y0198579D01*
X0182513Y0198223D01*
X0182513Y0197855D01*
X0182609Y0197499D01*
X0183584Y0195810D01*
X0186154Y0197294D01*
X0186554Y0196602D01*
X0183984Y0195117D01*
X0184958Y0193429D01*
X0185219Y0193168D01*
X0185538Y0192984D01*
X0185784Y0192918D01*
X0185543Y0192017D01*
X0185694Y0191755D01*
X0185064Y0191924D01*
X0185011Y0191894D01*
X0183636Y0191099D01*
X0182830Y0192496D01*
X0182794Y0192505D01*
X0182803Y0192541D01*
X0181550Y0194712D01*
X0181514Y0194722D01*
X0181524Y0194757D01*
X0180271Y0196928D01*
X0178990Y0197271D01*
X0175029Y0194984D01*
X0172938Y0198605D01*
X0172923Y0198609D01*
X0173246Y0198795D01*
X0173246Y0198795D01*
X0174681Y0199623D01*
X0174706Y0199715D01*
X0175110Y0201224D01*
X0175306Y0201955D01*
X0175513Y0202162D01*
X0175513Y0202687D01*
X0175923Y0203097D01*
X0176606Y0202414D01*
X0177727Y0201950D01*
X0178940Y0201950D01*
X0180061Y0202414D01*
X0180919Y0203272D01*
X0181383Y0204393D01*
X0181383Y0205222D01*
X0185841Y0209679D01*
X0186606Y0208914D01*
X0187727Y0208450D01*
X0188633Y0208450D01*
X0188283Y0207607D01*
X0188283Y0206393D01*
X0188748Y0205272D01*
X0189606Y0204414D01*
X0190727Y0203950D01*
X0191940Y0203950D01*
X0193061Y0204414D01*
X0193919Y0205272D01*
X0194383Y0206393D01*
X0194383Y0207607D01*
X0194202Y0208045D02*
X0196333Y0208045D01*
X0195387Y0208844D02*
X0194587Y0208844D01*
X0194587Y0209642D02*
X0195387Y0209642D01*
X0195387Y0210441D02*
X0194587Y0210441D01*
X0194383Y0206448D02*
X0195632Y0206448D01*
X0195301Y0205650D02*
X0194075Y0205650D01*
X0193498Y0204851D02*
X0195283Y0204851D01*
X0195424Y0204053D02*
X0192188Y0204053D01*
X0190479Y0204053D02*
X0181242Y0204053D01*
X0181383Y0204851D02*
X0189169Y0204851D01*
X0188591Y0205650D02*
X0181811Y0205650D01*
X0182610Y0206448D02*
X0188283Y0206448D01*
X0188283Y0207247D02*
X0183408Y0207247D01*
X0184207Y0208045D02*
X0188465Y0208045D01*
X0186776Y0208844D02*
X0185005Y0208844D01*
X0185804Y0209642D02*
X0185878Y0209642D01*
X0184833Y0211500D02*
X0178333Y0205000D01*
X0176564Y0202456D02*
X0175513Y0202456D01*
X0175226Y0201657D02*
X0196879Y0201657D01*
X0196564Y0202456D02*
X0180102Y0202456D01*
X0180901Y0203254D02*
X0195766Y0203254D01*
X0196133Y0200859D02*
X0188448Y0200859D01*
X0188443Y0200867D02*
X0188183Y0201128D01*
X0187863Y0201312D01*
X0187507Y0201408D01*
X0187139Y0201408D01*
X0186783Y0201312D01*
X0185265Y0200436D01*
X0186847Y0197695D01*
X0189418Y0199179D01*
X0188443Y0200867D01*
X0188909Y0200060D02*
X0196133Y0200060D01*
X0196133Y0199262D02*
X0189370Y0199262D01*
X0189778Y0198463D02*
X0188178Y0198463D01*
X0188395Y0197665D02*
X0186865Y0197665D01*
X0186795Y0197665D02*
X0185941Y0197665D01*
X0185480Y0198463D02*
X0186403Y0198463D01*
X0185942Y0199262D02*
X0185019Y0199262D01*
X0185481Y0200060D02*
X0174798Y0200060D01*
X0175012Y0200859D02*
X0185997Y0200859D01*
X0183231Y0199262D02*
X0174054Y0199262D01*
X0173020Y0198463D02*
X0182578Y0198463D01*
X0182564Y0197665D02*
X0173481Y0197665D01*
X0173942Y0196866D02*
X0178289Y0196866D01*
X0176905Y0196068D02*
X0174403Y0196068D01*
X0174864Y0195269D02*
X0175522Y0195269D01*
X0180306Y0196866D02*
X0182974Y0196866D01*
X0183435Y0196068D02*
X0180767Y0196068D01*
X0181229Y0195269D02*
X0184246Y0195269D01*
X0184357Y0194470D02*
X0181690Y0194470D01*
X0182151Y0193672D02*
X0184818Y0193672D01*
X0185772Y0192873D02*
X0182612Y0192873D01*
X0183073Y0192075D02*
X0185558Y0192075D01*
X0183943Y0191276D02*
X0183534Y0191276D01*
X0185842Y0186878D02*
X0182755Y0185095D01*
X0182755Y0185095D01*
X0185842Y0186878D01*
X0186069Y0186485D02*
X0210367Y0186485D01*
X0210080Y0185687D02*
X0186325Y0185687D01*
X0186092Y0184888D02*
X0210294Y0184888D01*
X0211273Y0184090D02*
X0184994Y0184090D01*
X0183750Y0183371D02*
X0182755Y0185095D01*
X0182754Y0185095D01*
X0183750Y0183371D01*
X0183611Y0183291D02*
X0212656Y0183291D01*
X0214039Y0182493D02*
X0182240Y0182493D01*
X0182701Y0181694D02*
X0205963Y0181694D01*
X0205307Y0180896D02*
X0183162Y0180896D01*
X0183623Y0180097D02*
X0204976Y0180097D01*
X0204944Y0179299D02*
X0184084Y0179299D01*
X0184373Y0178500D02*
X0205070Y0178500D01*
X0205401Y0177702D02*
X0186773Y0177702D01*
X0187234Y0176903D02*
X0206189Y0176903D01*
X0207976Y0176105D02*
X0209721Y0176105D01*
X0208693Y0175306D02*
X0211104Y0175306D01*
X0210955Y0174508D02*
X0208693Y0174508D01*
X0208693Y0173709D02*
X0210709Y0173709D01*
X0210147Y0173110D02*
X0212889Y0171527D01*
X0211404Y0168956D01*
X0209716Y0169931D01*
X0209455Y0170192D01*
X0209271Y0170511D01*
X0209176Y0170867D01*
X0209176Y0171236D01*
X0209271Y0171592D01*
X0210147Y0173110D01*
X0210033Y0172911D02*
X0208693Y0172911D01*
X0208693Y0172112D02*
X0209572Y0172112D01*
X0209196Y0171314D02*
X0208693Y0171314D01*
X0208693Y0170515D02*
X0209270Y0170515D01*
X0208693Y0169717D02*
X0210087Y0169717D01*
X0208693Y0168918D02*
X0212306Y0168918D01*
X0211844Y0169717D02*
X0212767Y0169717D01*
X0213228Y0170515D02*
X0212305Y0170515D01*
X0212766Y0171314D02*
X0213258Y0171314D01*
X0213227Y0172112D02*
X0211875Y0172112D01*
X0212092Y0172911D02*
X0210492Y0172911D01*
X0214783Y0175492D02*
X0207994Y0179412D01*
X0210024Y0181694D02*
X0213965Y0181694D01*
X0213504Y0180896D02*
X0210680Y0180896D01*
X0211011Y0180097D02*
X0213043Y0180097D01*
X0212582Y0179299D02*
X0212189Y0179299D01*
X0214783Y0175492D02*
X0216067Y0175836D01*
X0217766Y0178779D01*
X0224415Y0174940D02*
X0222804Y0172151D01*
X0221189Y0171718D01*
X0219231Y0168327D01*
X0217986Y0164926D02*
X0208693Y0164926D01*
X0208693Y0165724D02*
X0216602Y0165724D01*
X0215219Y0166523D02*
X0208693Y0166523D01*
X0208693Y0167321D02*
X0214818Y0167321D01*
X0212853Y0168120D02*
X0208693Y0168120D01*
X0208207Y0164127D02*
X0219369Y0164127D01*
X0221033Y0164127D02*
X0266333Y0164127D01*
X0266333Y0163329D02*
X0207433Y0163329D01*
X0207433Y0162530D02*
X0266333Y0162530D01*
X0266333Y0161732D02*
X0207433Y0161732D01*
X0207433Y0160933D02*
X0266333Y0160933D01*
X0266333Y0160134D02*
X0207433Y0160134D01*
X0207433Y0159336D02*
X0266333Y0159336D01*
X0266333Y0158537D02*
X0207433Y0158537D01*
X0207433Y0157739D02*
X0266333Y0157739D01*
X0266333Y0156940D02*
X0207433Y0156940D01*
X0207187Y0156142D02*
X0266333Y0156142D01*
X0266333Y0155343D02*
X0207892Y0155343D01*
X0208223Y0154545D02*
X0266333Y0154545D01*
X0266333Y0153746D02*
X0208554Y0153746D01*
X0208633Y0152948D02*
X0266333Y0152948D01*
X0266333Y0152149D02*
X0208633Y0152149D01*
X0208594Y0151351D02*
X0266333Y0151351D01*
X0266333Y0150552D02*
X0208263Y0150552D01*
X0207932Y0149754D02*
X0266333Y0149754D01*
X0266333Y0148955D02*
X0207284Y0148955D01*
X0206485Y0148157D02*
X0266333Y0148157D01*
X0266333Y0147358D02*
X0205533Y0147358D01*
X0205533Y0146560D02*
X0266333Y0146560D01*
X0266333Y0145761D02*
X0205533Y0145761D01*
X0205533Y0144963D02*
X0266333Y0144963D01*
X0266333Y0144164D02*
X0240346Y0144164D01*
X0242540Y0143366D02*
X0266333Y0143366D01*
X0266333Y0142567D02*
X0243783Y0142567D01*
X0243055Y0143178D02*
X0243055Y0143178D01*
X0244735Y0141769D02*
X0266333Y0141769D01*
X0266333Y0140970D02*
X0245625Y0140970D01*
X0245567Y0141070D02*
X0245567Y0141070D01*
X0246086Y0140172D02*
X0266333Y0140172D01*
X0266333Y0139373D02*
X0246547Y0139373D01*
X0247008Y0138575D02*
X0266333Y0138575D01*
X0266333Y0137776D02*
X0247287Y0137776D01*
X0247207Y0138230D02*
X0247207Y0138230D01*
X0247428Y0136978D02*
X0266333Y0136978D01*
X0266333Y0136179D02*
X0247569Y0136179D01*
X0247710Y0135381D02*
X0266333Y0135381D01*
X0266333Y0134582D02*
X0247703Y0134582D01*
X0247777Y0135000D02*
X0247777Y0135000D01*
X0247562Y0133784D02*
X0266333Y0133784D01*
X0266333Y0132985D02*
X0247421Y0132985D01*
X0247281Y0132187D02*
X0266333Y0132187D01*
X0266333Y0131388D02*
X0246987Y0131388D01*
X0246526Y0130590D02*
X0266333Y0130590D01*
X0266333Y0129791D02*
X0246065Y0129791D01*
X0245604Y0128993D02*
X0266333Y0128993D01*
X0266333Y0128194D02*
X0244691Y0128194D01*
X0245567Y0128930D02*
X0245567Y0128930D01*
X0245567Y0128930D01*
X0243739Y0127396D02*
X0266333Y0127396D01*
X0232928Y0127396D02*
X0227730Y0127396D01*
X0228109Y0128194D02*
X0231976Y0128194D01*
X0231099Y0128930D02*
X0231099Y0128930D01*
X0231063Y0128993D02*
X0228337Y0128993D01*
X0228433Y0130400D02*
X0228433Y0130402D01*
X0228308Y0131194D01*
X0228060Y0131958D01*
X0227695Y0132673D01*
X0227223Y0133323D01*
X0226656Y0133890D01*
X0226006Y0134362D01*
X0225291Y0134727D01*
X0224528Y0134975D01*
X0223735Y0135100D01*
X0223733Y0135100D01*
X0223733Y0130400D01*
X0228433Y0130400D01*
X0228404Y0130590D02*
X0230141Y0130590D01*
X0229680Y0131388D02*
X0228245Y0131388D01*
X0227943Y0132187D02*
X0229386Y0132187D01*
X0229459Y0131770D02*
X0229459Y0131770D01*
X0229245Y0132985D02*
X0227469Y0132985D01*
X0226762Y0133784D02*
X0229104Y0133784D01*
X0228964Y0134582D02*
X0225574Y0134582D01*
X0223733Y0134582D02*
X0222933Y0134582D01*
X0222933Y0133784D02*
X0223733Y0133784D01*
X0223733Y0132985D02*
X0222933Y0132985D01*
X0222933Y0132187D02*
X0223733Y0132187D01*
X0223733Y0131388D02*
X0222933Y0131388D01*
X0222933Y0130590D02*
X0223733Y0130590D01*
X0223733Y0129791D02*
X0230602Y0129791D01*
X0228890Y0135000D02*
X0228890Y0135000D01*
X0228957Y0135381D02*
X0215533Y0135381D01*
X0215265Y0136179D02*
X0229098Y0136179D01*
X0229239Y0136978D02*
X0214467Y0136978D01*
X0213668Y0137776D02*
X0229379Y0137776D01*
X0229459Y0138230D02*
X0229459Y0138230D01*
X0229658Y0138575D02*
X0212870Y0138575D01*
X0212071Y0139373D02*
X0230120Y0139373D01*
X0230581Y0140172D02*
X0211273Y0140172D01*
X0210474Y0140970D02*
X0231042Y0140970D01*
X0231099Y0141070D02*
X0231099Y0141070D01*
X0231099Y0141070D01*
X0231932Y0141769D02*
X0209676Y0141769D01*
X0205533Y0142567D02*
X0232883Y0142567D01*
X0234127Y0143366D02*
X0205533Y0143366D01*
X0205533Y0144164D02*
X0236321Y0144164D01*
X0221092Y0134582D02*
X0216121Y0134582D01*
X0217045Y0133784D02*
X0219904Y0133784D01*
X0219198Y0132985D02*
X0217834Y0132985D01*
X0218164Y0132187D02*
X0218723Y0132187D01*
X0210546Y0134582D02*
X0206121Y0134582D01*
X0207045Y0133784D02*
X0209621Y0133784D01*
X0208833Y0132985D02*
X0207834Y0132985D01*
X0208164Y0132187D02*
X0208502Y0132187D01*
X0200546Y0134582D02*
X0196121Y0134582D01*
X0197045Y0133784D02*
X0199621Y0133784D01*
X0198833Y0132985D02*
X0197834Y0132985D01*
X0198164Y0132187D02*
X0198502Y0132187D01*
X0190546Y0134582D02*
X0186121Y0134582D01*
X0187045Y0133784D02*
X0189621Y0133784D01*
X0188833Y0132985D02*
X0187834Y0132985D01*
X0188164Y0132187D02*
X0188502Y0132187D01*
X0180546Y0134582D02*
X0176121Y0134582D01*
X0177045Y0133784D02*
X0179621Y0133784D01*
X0178833Y0132985D02*
X0177834Y0132985D01*
X0178164Y0132187D02*
X0178502Y0132187D01*
X0193333Y0152500D02*
X0193333Y0160000D01*
X0192723Y0160610D01*
X0192723Y0170000D01*
X0192723Y0170000D01*
X0189333Y0170000D01*
X0188333Y0171000D01*
X0185446Y0176001D01*
X0183095Y0176631D01*
X0181117Y0180058D01*
X0183335Y0184090D02*
X0183335Y0184090D01*
X0182874Y0184888D02*
X0182874Y0184888D01*
X0183779Y0185687D02*
X0183779Y0185687D01*
X0185162Y0186485D02*
X0185162Y0186485D01*
X0186761Y0186914D02*
X0186761Y0186914D01*
X0186761Y0186914D01*
X0187401Y0187284D02*
X0188275Y0187284D01*
X0192828Y0193672D02*
X0193894Y0193672D01*
X0194693Y0194470D02*
X0192367Y0194470D01*
X0191906Y0195269D02*
X0195491Y0195269D01*
X0196133Y0196068D02*
X0190887Y0196068D01*
X0190753Y0196866D02*
X0196133Y0196866D01*
X0196133Y0197665D02*
X0190292Y0197665D01*
X0189831Y0198463D02*
X0196133Y0198463D01*
X0186402Y0196866D02*
X0185412Y0196866D01*
X0185629Y0196068D02*
X0184029Y0196068D01*
X0172964Y0200941D02*
X0173513Y0202990D01*
X0173513Y0205000D01*
X0178333Y0209820D01*
X0178333Y0222000D01*
X0171833Y0228500D01*
X0171833Y0235500D01*
X0178833Y0242500D01*
X0184333Y0242500D01*
X0186333Y0240500D01*
X0180833Y0239000D02*
X0180333Y0238500D01*
X0180333Y0233346D01*
X0182487Y0233346D01*
X0185833Y0230000D01*
X0189672Y0230000D01*
X0189672Y0227441D02*
X0185774Y0227441D01*
X0184833Y0226500D01*
X0184833Y0211500D01*
X0188333Y0211500D02*
X0188333Y0215000D01*
X0189833Y0216500D01*
X0191833Y0216500D01*
X0193215Y0217882D01*
X0193215Y0221338D01*
X0195774Y0221338D02*
X0195774Y0217441D01*
X0193333Y0215000D01*
X0192333Y0215000D01*
X0191333Y0214000D01*
X0191333Y0207000D01*
X0172964Y0200941D02*
X0169067Y0198691D01*
X0168540Y0196724D01*
X0170239Y0193781D01*
X0167004Y0201657D02*
X0166703Y0201657D01*
X0169897Y0202456D02*
X0171299Y0202456D01*
X0169991Y0210908D02*
X0165421Y0213547D01*
X0165212Y0213491D01*
X0163677Y0209642D02*
X0161383Y0209642D01*
X0161383Y0210441D02*
X0162294Y0210441D01*
X0152633Y0208045D02*
X0152012Y0208045D01*
X0152391Y0207247D02*
X0152633Y0207247D01*
X0152633Y0206448D02*
X0152391Y0206448D01*
X0148524Y0206448D02*
X0148143Y0206448D01*
X0148143Y0207247D02*
X0148524Y0207247D01*
X0148524Y0208045D02*
X0148143Y0208045D01*
X0148334Y0198031D02*
X0151365Y0198031D01*
X0153333Y0198000D01*
X0163573Y0182886D02*
X0159764Y0180687D01*
X0158688Y0180975D01*
X0155524Y0179148D01*
X0167414Y0173709D02*
X0170433Y0173709D01*
X0170894Y0172911D02*
X0169276Y0172911D01*
X0168797Y0174508D02*
X0169972Y0174508D01*
X0173501Y0171314D02*
X0178083Y0171314D01*
X0179886Y0172112D02*
X0174884Y0172112D01*
X0176267Y0172911D02*
X0179748Y0172911D01*
X0179287Y0173709D02*
X0177651Y0173709D01*
X0187696Y0176105D02*
X0188691Y0176105D01*
X0196755Y0176105D02*
X0199912Y0176105D01*
X0199194Y0175306D02*
X0197473Y0175306D01*
X0197473Y0174508D02*
X0199194Y0174508D01*
X0199194Y0173709D02*
X0197473Y0173709D01*
X0197473Y0172911D02*
X0199194Y0172911D01*
X0199194Y0172112D02*
X0197473Y0172112D01*
X0197473Y0171314D02*
X0199194Y0171314D01*
X0199194Y0170515D02*
X0197473Y0170515D01*
X0197473Y0169717D02*
X0199194Y0169717D01*
X0199194Y0168918D02*
X0197473Y0168918D01*
X0197473Y0168120D02*
X0199194Y0168120D01*
X0199194Y0167321D02*
X0197473Y0167321D01*
X0197473Y0166523D02*
X0199194Y0166523D01*
X0199194Y0165724D02*
X0197473Y0165724D01*
X0197473Y0164926D02*
X0199194Y0164926D01*
X0199233Y0164127D02*
X0196987Y0164127D01*
X0199233Y0163329D02*
X0194723Y0163329D01*
X0194723Y0162530D02*
X0199233Y0162530D01*
X0199233Y0161732D02*
X0194723Y0161732D01*
X0195229Y0160933D02*
X0199233Y0160933D01*
X0199233Y0160134D02*
X0195333Y0160134D01*
X0195333Y0159336D02*
X0199233Y0159336D01*
X0199233Y0158537D02*
X0195333Y0158537D01*
X0195333Y0157739D02*
X0199233Y0157739D01*
X0199233Y0156940D02*
X0196388Y0156940D01*
X0197187Y0156142D02*
X0199480Y0156142D01*
X0198774Y0155343D02*
X0197892Y0155343D01*
X0198223Y0154545D02*
X0198444Y0154545D01*
X0203333Y0162500D02*
X0203333Y0170000D01*
X0203333Y0170000D01*
X0203944Y0170000D01*
X0221615Y0164926D02*
X0266333Y0164926D01*
X0266333Y0165724D02*
X0222076Y0165724D01*
X0222537Y0166523D02*
X0266333Y0166523D01*
X0266333Y0167321D02*
X0222998Y0167321D01*
X0223459Y0168120D02*
X0266333Y0168120D01*
X0266333Y0168918D02*
X0223755Y0168918D01*
X0223542Y0169717D02*
X0236859Y0169717D01*
X0235476Y0170515D02*
X0224170Y0170515D01*
X0224631Y0171314D02*
X0234093Y0171314D01*
X0233377Y0172112D02*
X0225312Y0172112D01*
X0225773Y0172911D02*
X0233163Y0172911D01*
X0232920Y0173709D02*
X0232144Y0173709D01*
X0234236Y0175290D02*
X0237660Y0173602D01*
X0240921Y0172112D02*
X0252335Y0172112D01*
X0251109Y0172911D02*
X0241382Y0172911D01*
X0241843Y0173709D02*
X0250567Y0173709D01*
X0250283Y0174508D02*
X0242100Y0174508D01*
X0242294Y0175306D02*
X0250283Y0175306D01*
X0250490Y0176105D02*
X0242995Y0176105D01*
X0243456Y0176903D02*
X0250923Y0176903D01*
X0251333Y0177702D02*
X0243145Y0177702D01*
X0243362Y0178500D02*
X0241762Y0178500D01*
X0241979Y0179299D02*
X0241411Y0179299D01*
X0244378Y0178500D02*
X0251333Y0178500D01*
X0251333Y0179299D02*
X0244839Y0179299D01*
X0245192Y0180097D02*
X0251333Y0180097D01*
X0251333Y0180896D02*
X0245060Y0180896D01*
X0245384Y0181694D02*
X0251333Y0181694D01*
X0251333Y0182493D02*
X0245718Y0182493D01*
X0245854Y0183291D02*
X0251333Y0183291D01*
X0251333Y0184090D02*
X0245832Y0184090D01*
X0245501Y0184888D02*
X0251333Y0184888D01*
X0251333Y0185687D02*
X0244859Y0185687D01*
X0244746Y0187284D02*
X0251333Y0187284D01*
X0251333Y0188082D02*
X0245729Y0188082D01*
X0246171Y0188881D02*
X0251333Y0188881D01*
X0251333Y0189679D02*
X0246383Y0189679D01*
X0246383Y0190478D02*
X0251333Y0190478D01*
X0251333Y0191276D02*
X0246106Y0191276D01*
X0248143Y0192075D02*
X0248524Y0192075D01*
X0248524Y0192873D02*
X0248143Y0192873D01*
X0248143Y0193672D02*
X0248524Y0193672D01*
X0248143Y0193904D02*
X0244276Y0193904D01*
X0244276Y0192911D01*
X0243940Y0193050D01*
X0242727Y0193050D01*
X0241606Y0192586D01*
X0240748Y0191728D01*
X0240283Y0190607D01*
X0240283Y0189644D01*
X0237016Y0186105D01*
X0234297Y0187675D01*
X0236387Y0191296D01*
X0236044Y0192576D01*
X0233874Y0193830D01*
X0233838Y0193820D01*
X0233828Y0193856D01*
X0231657Y0195109D01*
X0231622Y0195100D01*
X0231612Y0195135D01*
X0230216Y0195942D01*
X0230474Y0196390D01*
X0230968Y0197245D01*
X0231100Y0197169D01*
X0232001Y0197410D01*
X0232067Y0197164D01*
X0232251Y0196845D01*
X0232512Y0196584D01*
X0234201Y0195610D01*
X0235685Y0198180D01*
X0236378Y0197780D01*
X0236778Y0198473D01*
X0239519Y0196890D01*
X0240395Y0198408D01*
X0240491Y0198765D01*
X0240491Y0199133D01*
X0240395Y0199489D01*
X0240211Y0199808D01*
X0239950Y0200069D01*
X0238262Y0201044D01*
X0236778Y0198473D01*
X0236085Y0198873D01*
X0237569Y0201444D01*
X0235881Y0202419D01*
X0235525Y0202514D01*
X0235156Y0202514D01*
X0234910Y0202448D01*
X0234816Y0202800D01*
X0237422Y0202800D01*
X0244384Y0195838D01*
X0244371Y0195816D01*
X0244276Y0195460D01*
X0244276Y0194285D01*
X0248143Y0194285D01*
X0248143Y0193904D01*
X0244276Y0193672D02*
X0234147Y0193672D01*
X0235530Y0192873D02*
X0242300Y0192873D01*
X0241095Y0192075D02*
X0236179Y0192075D01*
X0236376Y0191276D02*
X0240561Y0191276D01*
X0240283Y0190478D02*
X0235915Y0190478D01*
X0235454Y0189679D02*
X0240283Y0189679D01*
X0239579Y0188881D02*
X0234993Y0188881D01*
X0234532Y0188082D02*
X0238841Y0188082D01*
X0238104Y0187284D02*
X0234975Y0187284D01*
X0236358Y0186485D02*
X0237367Y0186485D01*
X0237333Y0183500D02*
X0234373Y0185102D01*
X0233094Y0182886D02*
X0237255Y0180922D01*
X0240333Y0184000D01*
X0242233Y0184000D01*
X0242804Y0183428D01*
X0242811Y0186485D02*
X0251333Y0186485D01*
X0255833Y0182500D02*
X0258333Y0180000D01*
X0261383Y0180097D02*
X0266333Y0180097D01*
X0266333Y0179299D02*
X0261344Y0179299D01*
X0261013Y0178500D02*
X0266333Y0178500D01*
X0266333Y0177702D02*
X0260348Y0177702D01*
X0261264Y0180896D02*
X0266333Y0180896D01*
X0266333Y0181694D02*
X0260933Y0181694D01*
X0260154Y0182493D02*
X0266333Y0182493D01*
X0266333Y0183291D02*
X0257870Y0183291D01*
X0257833Y0184090D02*
X0266333Y0184090D01*
X0266333Y0184888D02*
X0257833Y0184888D01*
X0255833Y0182500D02*
X0255833Y0202000D01*
X0251928Y0205906D01*
X0248333Y0205906D01*
X0243928Y0205906D01*
X0244365Y0201969D02*
X0238333Y0208000D01*
X0233333Y0208000D01*
X0234908Y0202456D02*
X0234937Y0202456D01*
X0235743Y0202456D02*
X0237766Y0202456D01*
X0237200Y0201657D02*
X0238565Y0201657D01*
X0238583Y0200859D02*
X0239363Y0200859D01*
X0239959Y0200060D02*
X0240162Y0200060D01*
X0240456Y0199262D02*
X0240961Y0199262D01*
X0240410Y0198463D02*
X0241759Y0198463D01*
X0242558Y0197665D02*
X0239966Y0197665D01*
X0239119Y0196198D02*
X0236378Y0197780D01*
X0234893Y0195210D01*
X0236582Y0194235D01*
X0236938Y0194139D01*
X0237307Y0194139D01*
X0237663Y0194235D01*
X0237982Y0194419D01*
X0238243Y0194680D01*
X0239119Y0196198D01*
X0239044Y0196068D02*
X0244155Y0196068D01*
X0244276Y0195269D02*
X0238583Y0195269D01*
X0238033Y0194470D02*
X0244276Y0194470D01*
X0243356Y0196866D02*
X0237961Y0196866D01*
X0238178Y0197665D02*
X0236578Y0197665D01*
X0236311Y0197665D02*
X0235387Y0197665D01*
X0234926Y0196866D02*
X0235850Y0196866D01*
X0235389Y0196068D02*
X0234465Y0196068D01*
X0234928Y0195269D02*
X0231381Y0195269D01*
X0230288Y0196068D02*
X0233407Y0196068D01*
X0232239Y0196866D02*
X0230749Y0196866D01*
X0232764Y0194470D02*
X0236174Y0194470D01*
X0236772Y0198463D02*
X0236795Y0198463D01*
X0237233Y0199262D02*
X0236309Y0199262D01*
X0236770Y0200060D02*
X0237694Y0200060D01*
X0238155Y0200859D02*
X0237231Y0200859D01*
X0244365Y0201969D02*
X0248333Y0201969D01*
X0251365Y0201969D01*
X0253333Y0200000D01*
X0253333Y0175000D01*
X0256177Y0176105D02*
X0266333Y0176105D01*
X0266333Y0176903D02*
X0255743Y0176903D01*
X0255333Y0177702D02*
X0256318Y0177702D01*
X0255653Y0178500D02*
X0255333Y0178500D01*
X0256383Y0175306D02*
X0266333Y0175306D01*
X0266333Y0174508D02*
X0256383Y0174508D01*
X0256100Y0173709D02*
X0266333Y0173709D01*
X0266333Y0172911D02*
X0255557Y0172911D01*
X0254332Y0172112D02*
X0266333Y0172112D01*
X0266333Y0171314D02*
X0240460Y0171314D01*
X0239999Y0170515D02*
X0266333Y0170515D01*
X0266333Y0169717D02*
X0239537Y0169717D01*
X0234236Y0175290D02*
X0233911Y0176504D01*
X0230535Y0178453D01*
X0227869Y0174508D02*
X0226695Y0174508D01*
X0226234Y0173709D02*
X0229252Y0173709D01*
X0237333Y0183500D02*
X0243333Y0190000D01*
X0257833Y0192873D02*
X0258137Y0192873D01*
X0257833Y0193672D02*
X0266333Y0193672D01*
X0266333Y0194470D02*
X0257833Y0194470D01*
X0257833Y0195269D02*
X0266333Y0195269D01*
X0266333Y0196068D02*
X0257833Y0196068D01*
X0257833Y0196866D02*
X0266333Y0196866D01*
X0266333Y0197665D02*
X0257833Y0197665D01*
X0257833Y0198463D02*
X0266333Y0198463D01*
X0266333Y0199262D02*
X0257833Y0199262D01*
X0257833Y0200060D02*
X0266333Y0200060D01*
X0266333Y0200859D02*
X0257833Y0200859D01*
X0257833Y0201657D02*
X0266333Y0201657D01*
X0266333Y0202456D02*
X0257833Y0202456D01*
X0257408Y0203254D02*
X0266333Y0203254D01*
X0266333Y0204053D02*
X0256609Y0204053D01*
X0255811Y0204851D02*
X0266333Y0204851D01*
X0266333Y0205650D02*
X0255012Y0205650D01*
X0254214Y0206448D02*
X0266333Y0206448D01*
X0258017Y0207247D02*
X0253415Y0207247D01*
X0252295Y0208045D02*
X0257265Y0208045D01*
X0255502Y0231202D02*
X0266333Y0231202D01*
X0266333Y0232001D02*
X0256077Y0232001D01*
X0256383Y0232799D02*
X0266333Y0232799D01*
X0266333Y0233598D02*
X0256383Y0233598D01*
X0256200Y0234396D02*
X0266333Y0234396D01*
X0266333Y0235195D02*
X0255798Y0235195D01*
X0254913Y0235993D02*
X0266333Y0235993D01*
X0266333Y0236792D02*
X0226285Y0236792D01*
X0226902Y0235993D02*
X0251753Y0235993D01*
X0246760Y0241583D02*
X0266333Y0241583D01*
X0266333Y0242381D02*
X0248028Y0242381D01*
X0248588Y0243180D02*
X0266333Y0243180D01*
X0266333Y0243978D02*
X0248883Y0243978D01*
X0248883Y0244777D02*
X0266333Y0244777D01*
X0266333Y0245575D02*
X0248689Y0245575D01*
X0248273Y0246374D02*
X0266333Y0246374D01*
X0266333Y0247172D02*
X0248033Y0247172D01*
X0248033Y0247971D02*
X0266333Y0247971D01*
X0266333Y0248769D02*
X0248033Y0248769D01*
X0248033Y0249568D02*
X0266333Y0249568D01*
X0266333Y0250366D02*
X0248033Y0250366D01*
X0248033Y0251165D02*
X0266333Y0251165D01*
X0266333Y0251963D02*
X0248033Y0251963D01*
X0248033Y0252762D02*
X0266333Y0252762D01*
X0266333Y0253560D02*
X0247884Y0253560D01*
X0247086Y0254359D02*
X0266333Y0254359D01*
X0266333Y0255157D02*
X0246287Y0255157D01*
X0245489Y0255956D02*
X0266333Y0255956D01*
X0266333Y0256754D02*
X0244690Y0256754D01*
X0243892Y0257553D02*
X0266333Y0257553D01*
X0266333Y0258351D02*
X0243093Y0258351D01*
X0242295Y0259150D02*
X0266333Y0259150D01*
X0266333Y0259948D02*
X0241496Y0259948D01*
X0240698Y0260747D02*
X0266333Y0260747D01*
X0266333Y0261545D02*
X0239899Y0261545D01*
X0239101Y0262344D02*
X0266333Y0262344D01*
X0266333Y0263142D02*
X0238302Y0263142D01*
X0237504Y0263941D02*
X0266333Y0263941D01*
X0266333Y0264739D02*
X0236705Y0264739D01*
X0235907Y0265538D02*
X0266333Y0265538D01*
X0266333Y0266337D02*
X0241722Y0266337D01*
X0243055Y0266822D02*
X0243055Y0266822D01*
X0243428Y0267135D02*
X0266333Y0267135D01*
X0266333Y0267934D02*
X0244380Y0267934D01*
X0245332Y0268732D02*
X0266333Y0268732D01*
X0266333Y0269531D02*
X0245914Y0269531D01*
X0245567Y0268930D02*
X0245567Y0268930D01*
X0245567Y0268930D01*
X0246375Y0270329D02*
X0266333Y0270329D01*
X0266333Y0271128D02*
X0246836Y0271128D01*
X0247235Y0271926D02*
X0266333Y0271926D01*
X0266333Y0272725D02*
X0247376Y0272725D01*
X0247516Y0273523D02*
X0266333Y0273523D01*
X0266333Y0274322D02*
X0247657Y0274322D01*
X0247777Y0275000D02*
X0247777Y0275000D01*
X0247756Y0275120D02*
X0266333Y0275120D01*
X0266333Y0275919D02*
X0247615Y0275919D01*
X0247474Y0276717D02*
X0261934Y0276717D01*
X0260771Y0277516D02*
X0247333Y0277516D01*
X0247207Y0278230D02*
X0247207Y0278230D01*
X0247159Y0278314D02*
X0260169Y0278314D01*
X0259838Y0279113D02*
X0246698Y0279113D01*
X0246237Y0279911D02*
X0259765Y0279911D01*
X0259765Y0280710D02*
X0245776Y0280710D01*
X0245567Y0281070D02*
X0245567Y0281070D01*
X0245045Y0281508D02*
X0260096Y0281508D01*
X0260593Y0282307D02*
X0244094Y0282307D01*
X0232573Y0282307D02*
X0228114Y0282307D01*
X0228445Y0281508D02*
X0231621Y0281508D01*
X0231099Y0281070D02*
X0231099Y0281070D01*
X0231099Y0281070D01*
X0230891Y0280710D02*
X0228633Y0280710D01*
X0228633Y0279911D02*
X0230430Y0279911D01*
X0229969Y0279113D02*
X0228633Y0279113D01*
X0228372Y0278314D02*
X0229508Y0278314D01*
X0229459Y0278230D02*
X0229459Y0278230D01*
X0229333Y0277516D02*
X0228041Y0277516D01*
X0227546Y0276717D02*
X0229193Y0276717D01*
X0229052Y0275919D02*
X0226747Y0275919D01*
X0225402Y0275120D02*
X0228911Y0275120D01*
X0228890Y0275000D02*
X0228890Y0275000D01*
X0229009Y0274322D02*
X0209623Y0274322D01*
X0208824Y0275120D02*
X0211264Y0275120D01*
X0209919Y0275919D02*
X0206747Y0275919D01*
X0207546Y0276717D02*
X0209121Y0276717D01*
X0208626Y0277516D02*
X0208041Y0277516D01*
X0210421Y0273523D02*
X0229150Y0273523D01*
X0229291Y0272725D02*
X0211220Y0272725D01*
X0211557Y0271926D02*
X0229432Y0271926D01*
X0229830Y0271128D02*
X0211557Y0271128D01*
X0211557Y0270329D02*
X0230291Y0270329D01*
X0230752Y0269531D02*
X0213132Y0269531D01*
X0213319Y0268732D02*
X0231335Y0268732D01*
X0231099Y0268930D02*
X0231099Y0268930D01*
X0232287Y0267934D02*
X0213319Y0267934D01*
X0213319Y0267135D02*
X0233238Y0267135D01*
X0234945Y0266337D02*
X0221740Y0266337D01*
X0223880Y0260747D02*
X0234475Y0260747D01*
X0235274Y0259948D02*
X0223880Y0259948D01*
X0223880Y0259150D02*
X0236072Y0259150D01*
X0236871Y0258351D02*
X0223880Y0258351D01*
X0223880Y0257553D02*
X0237669Y0257553D01*
X0238468Y0256754D02*
X0223880Y0256754D01*
X0223880Y0255956D02*
X0239266Y0255956D01*
X0240065Y0255157D02*
X0223880Y0255157D01*
X0223880Y0254359D02*
X0240863Y0254359D01*
X0241662Y0253560D02*
X0223880Y0253560D01*
X0223880Y0252762D02*
X0233531Y0252762D01*
X0232483Y0251963D02*
X0223880Y0251963D01*
X0223880Y0251165D02*
X0232015Y0251165D01*
X0231783Y0250366D02*
X0223880Y0250366D01*
X0223880Y0249568D02*
X0231783Y0249568D01*
X0232042Y0248769D02*
X0223880Y0248769D01*
X0225105Y0247971D02*
X0226998Y0247971D01*
X0229833Y0245047D02*
X0229880Y0245000D01*
X0226645Y0242381D02*
X0225445Y0242381D01*
X0224659Y0241583D02*
X0227444Y0241583D01*
X0224773Y0238389D02*
X0266333Y0238389D01*
X0266333Y0239187D02*
X0223974Y0239187D01*
X0223176Y0239986D02*
X0266333Y0239986D01*
X0266333Y0240784D02*
X0222377Y0240784D01*
X0219915Y0237590D02*
X0214333Y0237590D01*
X0214550Y0238389D02*
X0219116Y0238389D01*
X0218318Y0239187D02*
X0215349Y0239187D01*
X0215933Y0236792D02*
X0216733Y0236792D01*
X0216733Y0235993D02*
X0215933Y0235993D01*
X0215933Y0235195D02*
X0216733Y0235195D01*
X0218885Y0236792D02*
X0220382Y0236792D01*
X0219765Y0235993D02*
X0219622Y0235993D01*
X0219702Y0235195D02*
X0219765Y0235195D01*
X0219765Y0234396D02*
X0219702Y0234396D01*
X0225333Y0237590D02*
X0266333Y0237590D01*
X0244906Y0241583D02*
X0239223Y0241583D01*
X0240021Y0242381D02*
X0243639Y0242381D01*
X0243079Y0243180D02*
X0240354Y0243180D01*
X0240354Y0243978D02*
X0242783Y0243978D01*
X0242783Y0244777D02*
X0240354Y0244777D01*
X0240354Y0245575D02*
X0242977Y0245575D01*
X0243394Y0246374D02*
X0240354Y0246374D01*
X0240354Y0247172D02*
X0243633Y0247172D01*
X0243633Y0247971D02*
X0239669Y0247971D01*
X0238786Y0248769D02*
X0243633Y0248769D01*
X0243633Y0249568D02*
X0238094Y0249568D01*
X0237883Y0250366D02*
X0243633Y0250366D01*
X0243633Y0251165D02*
X0237652Y0251165D01*
X0237183Y0251963D02*
X0243259Y0251963D01*
X0242460Y0252762D02*
X0236136Y0252762D01*
X0234833Y0250000D02*
X0236786Y0248047D01*
X0236786Y0245000D01*
X0233551Y0242381D02*
X0233116Y0242381D01*
X0232317Y0241583D02*
X0234349Y0241583D01*
X0218333Y0254000D02*
X0217833Y0253500D01*
X0218333Y0254000D02*
X0218333Y0256653D01*
X0209357Y0257500D02*
X0205833Y0257500D01*
X0203333Y0260000D01*
X0203333Y0256500D02*
X0202333Y0256500D01*
X0203333Y0256500D02*
X0205833Y0254000D01*
X0205833Y0253500D01*
X0206834Y0252500D01*
X0209357Y0252500D01*
X0213201Y0265538D02*
X0213260Y0265538D01*
X0213319Y0266337D02*
X0214927Y0266337D01*
X0215402Y0275120D02*
X0221264Y0275120D01*
X0219919Y0275919D02*
X0216747Y0275919D01*
X0217546Y0276717D02*
X0219121Y0276717D01*
X0218626Y0277516D02*
X0218041Y0277516D01*
X0203333Y0270000D02*
X0203333Y0270000D01*
X0203333Y0266500D01*
X0201333Y0264500D01*
X0200333Y0263500D01*
X0190833Y0263500D01*
X0189833Y0262500D01*
X0187310Y0262500D01*
X0187310Y0267500D02*
X0190834Y0267500D01*
X0192333Y0266000D01*
X0196333Y0266000D01*
X0196833Y0266500D01*
X0181264Y0275120D02*
X0174819Y0275120D01*
X0176393Y0275919D02*
X0179919Y0275919D01*
X0179121Y0276717D02*
X0177252Y0276717D01*
X0177791Y0277516D02*
X0178626Y0277516D01*
X0178295Y0278314D02*
X0178148Y0278314D01*
X0170274Y0275919D02*
X0167615Y0275919D01*
X0167474Y0276717D02*
X0169414Y0276717D01*
X0168875Y0277516D02*
X0167333Y0277516D01*
X0167159Y0278314D02*
X0168519Y0278314D01*
X0172240Y0266337D02*
X0175225Y0266337D01*
X0174965Y0265538D02*
X0172402Y0265538D01*
X0172402Y0264739D02*
X0174965Y0264739D01*
X0174965Y0263941D02*
X0172402Y0263941D01*
X0172402Y0263142D02*
X0177933Y0263142D01*
X0177933Y0263941D02*
X0178733Y0263941D01*
X0178733Y0264739D02*
X0177933Y0264739D01*
X0177933Y0265538D02*
X0178733Y0265538D01*
X0178733Y0266337D02*
X0177933Y0266337D01*
X0174965Y0262344D02*
X0172402Y0262344D01*
X0172402Y0261545D02*
X0174965Y0261545D01*
X0175032Y0260747D02*
X0172402Y0260747D01*
X0171935Y0259948D02*
X0175232Y0259948D01*
X0174765Y0259150D02*
X0172402Y0259150D01*
X0172402Y0258351D02*
X0173573Y0258351D01*
X0168833Y0256653D02*
X0168680Y0256500D01*
X0163333Y0256500D01*
X0164207Y0253560D02*
X0165530Y0253560D01*
X0166386Y0247971D02*
X0167186Y0247971D01*
X0167186Y0243978D02*
X0166386Y0243978D01*
X0166386Y0243180D02*
X0167186Y0243180D01*
X0167186Y0242381D02*
X0166386Y0242381D01*
X0163834Y0242381D02*
X0163116Y0242381D01*
X0163449Y0243180D02*
X0163466Y0243180D01*
X0162317Y0241583D02*
X0175088Y0241583D01*
X0175886Y0242381D02*
X0169738Y0242381D01*
X0170106Y0243180D02*
X0176685Y0243180D01*
X0177483Y0243978D02*
X0170155Y0243978D01*
X0173491Y0239986D02*
X0148333Y0239986D01*
X0148333Y0239187D02*
X0172692Y0239187D01*
X0171894Y0238389D02*
X0152957Y0238389D01*
X0153183Y0237590D02*
X0156616Y0237590D01*
X0160050Y0237590D02*
X0171095Y0237590D01*
X0170296Y0236792D02*
X0160855Y0236792D01*
X0161223Y0235993D02*
X0169833Y0235993D01*
X0169833Y0235195D02*
X0161383Y0235195D01*
X0161383Y0234396D02*
X0169833Y0234396D01*
X0169833Y0233598D02*
X0161054Y0233598D01*
X0162860Y0232799D02*
X0169833Y0232799D01*
X0169833Y0232001D02*
X0163658Y0232001D01*
X0164380Y0231202D02*
X0169833Y0231202D01*
X0169833Y0230403D02*
X0164711Y0230403D01*
X0165042Y0229605D02*
X0169833Y0229605D01*
X0169833Y0228806D02*
X0165133Y0228806D01*
X0165133Y0228008D02*
X0169833Y0228008D01*
X0170295Y0227209D02*
X0165774Y0227209D01*
X0167157Y0226411D02*
X0171094Y0226411D01*
X0171892Y0225612D02*
X0167919Y0225612D01*
X0168133Y0224814D02*
X0172691Y0224814D01*
X0173490Y0224015D02*
X0168347Y0224015D01*
X0168633Y0223217D02*
X0173432Y0223217D01*
X0172971Y0222418D02*
X0170016Y0222418D01*
X0171399Y0221620D02*
X0172510Y0221620D01*
X0173981Y0217820D02*
X0166831Y0221948D01*
X0166088Y0224719D01*
X0159833Y0228330D01*
X0156009Y0232001D02*
X0153183Y0232001D01*
X0153183Y0232799D02*
X0156221Y0232799D01*
X0155286Y0231202D02*
X0152548Y0231202D01*
X0146333Y0235000D02*
X0146333Y0239500D01*
X0144987Y0240846D01*
X0144987Y0245000D01*
X0147966Y0241583D02*
X0148701Y0241583D01*
X0147878Y0240784D02*
X0174289Y0240784D01*
X0159881Y0245000D02*
X0151680Y0245000D01*
X0154659Y0241583D02*
X0157444Y0241583D01*
X0156646Y0242381D02*
X0155445Y0242381D01*
X0143333Y0250000D02*
X0143333Y0256653D01*
X0264733Y0276717D02*
X0266333Y0276717D01*
X0266333Y0277516D02*
X0265896Y0277516D01*
D29*
X0253333Y0250000D03*
X0245833Y0244500D03*
X0234833Y0250000D03*
X0225833Y0250000D03*
X0218333Y0250000D03*
X0216333Y0238500D03*
X0211833Y0230500D03*
X0213333Y0220000D03*
X0208333Y0215000D03*
X0198333Y0205000D03*
X0193333Y0200000D03*
X0191333Y0207000D03*
X0188333Y0211500D03*
X0178333Y0205000D03*
X0173513Y0205000D03*
X0163333Y0205000D03*
X0158333Y0210000D03*
X0153333Y0198000D03*
X0143333Y0195000D03*
X0138333Y0200000D03*
X0148333Y0175000D03*
X0168333Y0170000D03*
X0173333Y0165000D03*
X0178333Y0160000D03*
X0193333Y0180000D03*
X0207994Y0179412D03*
X0213333Y0160000D03*
X0243333Y0170000D03*
X0253333Y0175000D03*
X0258333Y0180000D03*
X0248333Y0185000D03*
X0242804Y0183428D03*
X0243333Y0190000D03*
X0240833Y0195000D03*
X0233333Y0208000D03*
X0238333Y0211500D03*
X0218333Y0200000D03*
X0260833Y0200000D03*
X0253333Y0233346D03*
X0233333Y0237500D03*
X0200892Y0243000D03*
X0200333Y0254000D03*
X0188833Y0248000D03*
X0186333Y0245000D03*
X0186333Y0240500D03*
X0180833Y0239000D03*
X0177333Y0245500D03*
X0181833Y0251500D03*
X0173333Y0255000D03*
X0165833Y0252000D03*
X0163333Y0256500D03*
X0158333Y0250000D03*
X0143333Y0250000D03*
X0158333Y0235000D03*
X0168333Y0230000D03*
X0175833Y0230000D03*
X0178333Y0268500D03*
X0196833Y0266500D03*
D30*
X0193333Y0270000D02*
X0193333Y0273500D01*
X0193333Y0273500D01*
X0193333Y0280000D01*
X0193333Y0273500D02*
X0207333Y0273500D01*
X0207333Y0273500D01*
X0208333Y0272500D01*
X0208333Y0272500D01*
X0209357Y0271476D01*
X0209357Y0267500D01*
X0209357Y0262500D01*
X0213333Y0262500D01*
X0214180Y0263346D01*
X0218333Y0263346D01*
X0221833Y0263346D01*
X0221680Y0263193D01*
X0221680Y0245000D01*
X0221680Y0245000D01*
X0229880Y0245000D01*
X0245833Y0244500D02*
X0245833Y0252500D01*
X0234987Y0263346D01*
X0229833Y0263346D01*
X0229880Y0263299D01*
X0229833Y0263346D02*
X0221833Y0263346D01*
X0193333Y0273500D02*
X0191333Y0273500D01*
X0191333Y0273500D01*
X0185833Y0273500D01*
X0183333Y0271000D01*
X0183333Y0257500D01*
X0182487Y0256653D01*
X0178333Y0256653D01*
X0174987Y0256653D01*
X0173333Y0255000D01*
X0183333Y0257500D02*
X0187310Y0257500D01*
X0158333Y0250000D02*
X0155833Y0252500D01*
X0155833Y0260000D01*
X0158333Y0235000D02*
X0150333Y0235000D01*
X0154833Y0219670D02*
X0154833Y0219507D01*
X0154893Y0219448D01*
X0161747Y0215491D01*
X0154833Y0219670D02*
X0154833Y0205000D01*
X0151802Y0201969D01*
X0148334Y0201969D01*
X0177478Y0185004D02*
X0176790Y0182435D01*
X0178900Y0178779D01*
X0181599Y0174104D01*
X0182636Y0173826D01*
X0184270Y0170996D01*
X0184270Y0149063D01*
X0193333Y0140000D01*
X0203333Y0140000D01*
X0208333Y0140000D01*
X0213333Y0135000D01*
X0213333Y0130000D01*
X0213333Y0130000D01*
X0203333Y0140000D02*
X0203333Y0152500D01*
X0203333Y0158500D01*
X0181475Y0187311D02*
X0177478Y0185004D01*
X0181475Y0187311D02*
X0185375Y0189563D01*
X0186450Y0189275D01*
X0190047Y0191352D01*
X0194685Y0191352D01*
X0198333Y0195000D01*
X0198333Y0200000D01*
X0206905Y0200000D01*
X0210006Y0196898D01*
X0214068Y0194553D01*
X0214284Y0193745D01*
X0217751Y0191744D01*
X0221314Y0189687D01*
X0224567Y0190558D01*
X0226428Y0193781D01*
X0228627Y0197590D01*
X0228453Y0198240D01*
X0230435Y0201673D01*
X0230435Y0202102D01*
X0233333Y0205000D01*
X0238333Y0205000D01*
X0245302Y0198031D01*
X0248333Y0198031D01*
X0232523Y0223781D02*
X0230791Y0222781D01*
X0230791Y0223542D01*
X0227680Y0226653D01*
X0223333Y0226653D01*
X0216333Y0226653D01*
X0213680Y0226653D01*
X0212892Y0227441D01*
X0207388Y0227441D01*
X0202774Y0227441D01*
X0200892Y0225559D01*
X0200892Y0221338D01*
X0200892Y0215941D01*
X0201680Y0215153D01*
X0201680Y0211500D01*
X0201680Y0203346D01*
X0198333Y0200000D01*
X0180333Y0226653D02*
X0176680Y0226653D01*
X0175833Y0227500D01*
X0175833Y0230000D01*
X0232523Y0223781D02*
X0233018Y0225627D01*
X0236833Y0227830D01*
M02*
