G75*
%MOIN*%
%OFA0B0*%
%FSLAX25Y25*%
%IPPOS*%
%LPD*%
%AMOC8*
5,1,8,0,0,1.08239X$1,22.5*
%
%ADD10C,0.08200*%
%ADD11R,0.05131X0.04737*%
%ADD12C,0.13800*%
%ADD13R,0.03300X0.05800*%
%ADD14C,0.00500*%
%ADD15C,0.04737*%
%ADD16R,0.01981X0.05131*%
%ADD17R,0.05131X0.01981*%
%ADD18R,0.04737X0.05131*%
%ADD19R,0.05524X0.03162*%
%ADD20R,0.08674X0.05524*%
%ADD21R,0.06115X0.03162*%
%ADD22C,0.01990*%
%ADD23R,0.03950X0.04737*%
%ADD24R,0.03950X0.08280*%
%ADD25R,0.05800X0.03300*%
%ADD26R,0.07099X0.10249*%
D10*
X0173333Y0130000D03*
X0183333Y0130000D03*
X0193333Y0130000D03*
X0203333Y0130000D03*
X0213333Y0130000D03*
X0223333Y0130000D03*
X0203333Y0152500D03*
X0193333Y0152500D03*
X0154833Y0219670D03*
X0159833Y0228330D03*
X0173333Y0280000D03*
X0183333Y0280000D03*
X0193333Y0280000D03*
X0203333Y0280000D03*
X0213333Y0280000D03*
X0223333Y0280000D03*
X0236833Y0227830D03*
X0241833Y0219170D03*
D11*
G36*
X0231472Y0198340D02*
X0227030Y0200905D01*
X0229398Y0205006D01*
X0233840Y0202441D01*
X0231472Y0198340D01*
G37*
G36*
X0237268Y0194994D02*
X0232826Y0197559D01*
X0235194Y0201660D01*
X0239636Y0199095D01*
X0237268Y0194994D01*
G37*
G36*
X0237674Y0178361D02*
X0240239Y0182803D01*
X0244340Y0180435D01*
X0241775Y0175993D01*
X0237674Y0178361D01*
G37*
G36*
X0234327Y0172565D02*
X0236892Y0177007D01*
X0240993Y0174639D01*
X0238428Y0170197D01*
X0234327Y0172565D01*
G37*
G36*
X0220268Y0164994D02*
X0215826Y0167559D01*
X0218194Y0171660D01*
X0222636Y0169095D01*
X0220268Y0164994D01*
G37*
G36*
X0214472Y0168340D02*
X0210030Y0170905D01*
X0212398Y0175006D01*
X0216840Y0172441D01*
X0214472Y0168340D01*
G37*
G36*
X0203327Y0190065D02*
X0205892Y0194507D01*
X0209993Y0192139D01*
X0207428Y0187697D01*
X0203327Y0190065D01*
G37*
G36*
X0206673Y0195861D02*
X0209238Y0200303D01*
X0213339Y0197935D01*
X0210774Y0193493D01*
X0206673Y0195861D01*
G37*
X0201680Y0211500D03*
X0194987Y0211500D03*
G36*
X0187469Y0200553D02*
X0190034Y0196111D01*
X0185933Y0193743D01*
X0183368Y0198185D01*
X0187469Y0200553D01*
G37*
G36*
X0190815Y0194757D02*
X0193380Y0190315D01*
X0189279Y0187947D01*
X0186714Y0192389D01*
X0190815Y0194757D01*
G37*
G36*
X0162827Y0202441D02*
X0167269Y0205006D01*
X0169637Y0200905D01*
X0165195Y0198340D01*
X0162827Y0202441D01*
G37*
G36*
X0157030Y0199095D02*
X0161472Y0201660D01*
X0163840Y0197559D01*
X0159398Y0194994D01*
X0157030Y0199095D01*
G37*
G36*
X0156292Y0182553D02*
X0158857Y0178111D01*
X0154756Y0175743D01*
X0152191Y0180185D01*
X0156292Y0182553D01*
G37*
G36*
X0159638Y0176757D02*
X0162203Y0172315D01*
X0158102Y0169947D01*
X0155537Y0174389D01*
X0159638Y0176757D01*
G37*
G36*
X0175069Y0168418D02*
X0179511Y0170983D01*
X0181879Y0166882D01*
X0177437Y0164317D01*
X0175069Y0168418D01*
G37*
G36*
X0180865Y0171764D02*
X0185307Y0174329D01*
X0187675Y0170228D01*
X0183233Y0167663D01*
X0180865Y0171764D01*
G37*
X0151680Y0245000D03*
X0144987Y0245000D03*
X0214987Y0245000D03*
X0221680Y0245000D03*
D12*
X0238333Y0275000D03*
X0158333Y0275000D03*
X0158333Y0135000D03*
X0238333Y0135000D03*
D13*
G36*
X0165233Y0216827D02*
X0168090Y0215177D01*
X0165191Y0210155D01*
X0162334Y0211805D01*
X0165233Y0216827D01*
G37*
G36*
X0161768Y0218827D02*
X0164625Y0217177D01*
X0161726Y0212155D01*
X0158869Y0213805D01*
X0161768Y0218827D01*
G37*
X0150333Y0235000D03*
X0146333Y0235000D03*
X0151833Y0260000D03*
X0155833Y0260000D03*
X0159833Y0260000D03*
G36*
X0230205Y0219095D02*
X0227348Y0217445D01*
X0224449Y0222467D01*
X0227306Y0224117D01*
X0230205Y0219095D01*
G37*
G36*
X0233669Y0221095D02*
X0230812Y0219445D01*
X0227913Y0224467D01*
X0230770Y0226117D01*
X0233669Y0221095D01*
G37*
D14*
X0229959Y0221723D02*
X0229459Y0222589D01*
X0228160Y0221839D01*
X0228660Y0220973D01*
X0229959Y0221723D01*
X0229938Y0221711D02*
X0228234Y0221711D01*
X0228521Y0221213D02*
X0229075Y0221213D01*
X0228802Y0222210D02*
X0229678Y0222210D01*
X0164379Y0214549D02*
X0163879Y0213683D01*
X0162580Y0214433D01*
X0163080Y0215299D01*
X0164379Y0214549D01*
X0164197Y0214234D02*
X0162925Y0214234D01*
X0162753Y0214732D02*
X0164061Y0214732D01*
X0163198Y0215231D02*
X0163041Y0215231D01*
X0163788Y0213735D02*
X0163909Y0213735D01*
X0149083Y0234500D02*
X0147583Y0234500D01*
X0147583Y0235500D01*
X0149083Y0235500D01*
X0149083Y0234500D01*
X0149083Y0234672D02*
X0147583Y0234672D01*
X0147583Y0235171D02*
X0149083Y0235171D01*
X0153083Y0259500D02*
X0153083Y0260500D01*
X0158583Y0260500D01*
X0158583Y0259500D01*
X0153083Y0259500D01*
X0153083Y0259598D02*
X0158583Y0259598D01*
X0158583Y0260097D02*
X0153083Y0260097D01*
X0202833Y0161250D02*
X0203833Y0161250D01*
X0203833Y0159750D01*
X0202833Y0159750D01*
X0202833Y0161250D01*
X0202833Y0160893D02*
X0203833Y0160893D01*
X0203833Y0160394D02*
X0202833Y0160394D01*
X0202833Y0159896D02*
X0203833Y0159896D01*
D15*
X0133333Y0130000D03*
X0263333Y0280000D03*
D16*
X0203451Y0238661D03*
X0200892Y0238661D03*
X0198333Y0238661D03*
X0195774Y0238661D03*
X0193215Y0238661D03*
X0193215Y0221338D03*
X0195774Y0221338D03*
X0198333Y0221338D03*
X0200892Y0221338D03*
X0203451Y0221338D03*
G36*
X0221746Y0193535D02*
X0220756Y0191821D01*
X0216314Y0194385D01*
X0217304Y0196099D01*
X0221746Y0193535D01*
G37*
G36*
X0223787Y0192344D02*
X0222073Y0193334D01*
X0224637Y0197776D01*
X0226351Y0196786D01*
X0223787Y0192344D01*
G37*
G36*
X0226003Y0191065D02*
X0224289Y0192055D01*
X0226853Y0196497D01*
X0228567Y0195507D01*
X0226003Y0191065D01*
G37*
G36*
X0228219Y0189785D02*
X0226505Y0190775D01*
X0229069Y0195217D01*
X0230783Y0194227D01*
X0228219Y0189785D01*
G37*
G36*
X0230435Y0188506D02*
X0228721Y0189496D01*
X0231285Y0193938D01*
X0232999Y0192948D01*
X0230435Y0188506D01*
G37*
G36*
X0232651Y0187226D02*
X0230937Y0188216D01*
X0233501Y0192658D01*
X0235215Y0191668D01*
X0232651Y0187226D01*
G37*
G36*
X0231657Y0185527D02*
X0232647Y0187241D01*
X0237089Y0184677D01*
X0236099Y0182963D01*
X0231657Y0185527D01*
G37*
G36*
X0230378Y0183311D02*
X0231368Y0185025D01*
X0235810Y0182461D01*
X0234820Y0180747D01*
X0230378Y0183311D01*
G37*
G36*
X0229098Y0181094D02*
X0230088Y0182808D01*
X0234530Y0180244D01*
X0233540Y0178530D01*
X0229098Y0181094D01*
G37*
G36*
X0227819Y0178878D02*
X0228809Y0180592D01*
X0233251Y0178028D01*
X0232261Y0176314D01*
X0227819Y0178878D01*
G37*
G36*
X0226539Y0176662D02*
X0227529Y0178376D01*
X0231971Y0175812D01*
X0230981Y0174098D01*
X0226539Y0176662D01*
G37*
G36*
X0224840Y0177656D02*
X0226554Y0176666D01*
X0223990Y0172224D01*
X0222276Y0173214D01*
X0224840Y0177656D01*
G37*
G36*
X0222624Y0178936D02*
X0224338Y0177946D01*
X0221774Y0173504D01*
X0220060Y0174494D01*
X0222624Y0178936D01*
G37*
G36*
X0220408Y0180215D02*
X0222122Y0179225D01*
X0219558Y0174783D01*
X0217844Y0175773D01*
X0220408Y0180215D01*
G37*
G36*
X0218191Y0181495D02*
X0219905Y0180505D01*
X0217341Y0176063D01*
X0215627Y0177053D01*
X0218191Y0181495D01*
G37*
G36*
X0215975Y0182774D02*
X0217689Y0181784D01*
X0215125Y0177342D01*
X0213411Y0178332D01*
X0215975Y0182774D01*
G37*
G36*
X0216628Y0184670D02*
X0215638Y0182956D01*
X0211196Y0185520D01*
X0212186Y0187234D01*
X0216628Y0184670D01*
G37*
G36*
X0217908Y0186886D02*
X0216918Y0185172D01*
X0212476Y0187736D01*
X0213466Y0189450D01*
X0217908Y0186886D01*
G37*
G36*
X0219187Y0189103D02*
X0218197Y0187389D01*
X0213755Y0189953D01*
X0214745Y0191667D01*
X0219187Y0189103D01*
G37*
G36*
X0220467Y0191319D02*
X0219477Y0189605D01*
X0215035Y0192169D01*
X0216025Y0193883D01*
X0220467Y0191319D01*
G37*
G36*
X0181028Y0182956D02*
X0180038Y0184670D01*
X0184480Y0187234D01*
X0185470Y0185520D01*
X0181028Y0182956D01*
G37*
G36*
X0178978Y0181784D02*
X0180692Y0182774D01*
X0183256Y0178332D01*
X0181542Y0177342D01*
X0178978Y0181784D01*
G37*
G36*
X0176761Y0180505D02*
X0178475Y0181495D01*
X0181039Y0177053D01*
X0179325Y0176063D01*
X0176761Y0180505D01*
G37*
G36*
X0174545Y0179225D02*
X0176259Y0180215D01*
X0178823Y0175773D01*
X0177109Y0174783D01*
X0174545Y0179225D01*
G37*
G36*
X0172329Y0177946D02*
X0174043Y0178936D01*
X0176607Y0174494D01*
X0174893Y0173504D01*
X0172329Y0177946D01*
G37*
G36*
X0170113Y0176666D02*
X0171827Y0177656D01*
X0174391Y0173214D01*
X0172677Y0172224D01*
X0170113Y0176666D01*
G37*
G36*
X0169138Y0178376D02*
X0170128Y0176662D01*
X0165686Y0174098D01*
X0164696Y0175812D01*
X0169138Y0178376D01*
G37*
G36*
X0167858Y0180592D02*
X0168848Y0178878D01*
X0164406Y0176314D01*
X0163416Y0178028D01*
X0167858Y0180592D01*
G37*
G36*
X0166578Y0182808D02*
X0167568Y0181094D01*
X0163126Y0178530D01*
X0162136Y0180244D01*
X0166578Y0182808D01*
G37*
G36*
X0165299Y0185025D02*
X0166289Y0183311D01*
X0161847Y0180747D01*
X0160857Y0182461D01*
X0165299Y0185025D01*
G37*
G36*
X0164019Y0187241D02*
X0165009Y0185527D01*
X0160567Y0182963D01*
X0159577Y0184677D01*
X0164019Y0187241D01*
G37*
G36*
X0165729Y0188216D02*
X0164015Y0187226D01*
X0161451Y0191668D01*
X0163165Y0192658D01*
X0165729Y0188216D01*
G37*
G36*
X0167946Y0189496D02*
X0166232Y0188506D01*
X0163668Y0192948D01*
X0165382Y0193938D01*
X0167946Y0189496D01*
G37*
G36*
X0170162Y0190775D02*
X0168448Y0189785D01*
X0165884Y0194227D01*
X0167598Y0195217D01*
X0170162Y0190775D01*
G37*
G36*
X0172378Y0192055D02*
X0170664Y0191065D01*
X0168100Y0195507D01*
X0169814Y0196497D01*
X0172378Y0192055D01*
G37*
G36*
X0174594Y0193334D02*
X0172880Y0192344D01*
X0170316Y0196786D01*
X0172030Y0197776D01*
X0174594Y0193334D01*
G37*
G36*
X0175910Y0191821D02*
X0174920Y0193535D01*
X0179362Y0196099D01*
X0180352Y0194385D01*
X0175910Y0191821D01*
G37*
G36*
X0177190Y0189605D02*
X0176200Y0191319D01*
X0180642Y0193883D01*
X0181632Y0192169D01*
X0177190Y0189605D01*
G37*
G36*
X0178469Y0187389D02*
X0177479Y0189103D01*
X0181921Y0191667D01*
X0182911Y0189953D01*
X0178469Y0187389D01*
G37*
G36*
X0179749Y0185172D02*
X0178759Y0186886D01*
X0183201Y0189450D01*
X0184191Y0187736D01*
X0179749Y0185172D01*
G37*
D17*
X0189672Y0224882D03*
X0189672Y0227441D03*
X0189672Y0230000D03*
X0189672Y0232559D03*
X0189672Y0235118D03*
X0207388Y0235118D03*
X0207388Y0232559D03*
X0207388Y0230000D03*
X0207388Y0227441D03*
X0207388Y0224882D03*
D18*
X0216333Y0226653D03*
X0223333Y0226653D03*
X0223333Y0233346D03*
X0216333Y0233346D03*
X0218333Y0256653D03*
X0218333Y0263346D03*
X0178333Y0263346D03*
X0178333Y0256653D03*
X0168833Y0256653D03*
X0168833Y0263346D03*
X0143333Y0263346D03*
X0143333Y0256653D03*
X0180333Y0233346D03*
X0180333Y0226653D03*
D19*
X0187310Y0252500D03*
X0187310Y0257500D03*
X0187310Y0262500D03*
X0187310Y0267500D03*
X0209357Y0267500D03*
X0209357Y0262500D03*
X0209357Y0257500D03*
X0209357Y0252500D03*
D20*
X0262802Y0211024D03*
X0262802Y0188976D03*
X0133865Y0188976D03*
X0133865Y0211024D03*
D21*
X0148334Y0205906D03*
X0148334Y0201969D03*
X0148334Y0198031D03*
X0148334Y0194094D03*
X0248333Y0194094D03*
X0248333Y0198031D03*
X0248333Y0201969D03*
X0248333Y0205906D03*
D22*
X0226562Y0213885D02*
X0224185Y0212512D01*
X0226562Y0213885D02*
X0227935Y0211508D01*
X0225558Y0210135D01*
X0224185Y0212512D01*
X0224466Y0212025D02*
X0227636Y0212025D01*
X0223109Y0219865D02*
X0220732Y0218492D01*
X0223109Y0219865D02*
X0224482Y0217488D01*
X0222105Y0216115D01*
X0220732Y0218492D01*
X0221013Y0218005D02*
X0224183Y0218005D01*
X0228507Y0243627D02*
X0228507Y0246373D01*
X0231253Y0246373D01*
X0231253Y0243627D01*
X0228507Y0243627D01*
X0228507Y0245517D02*
X0231253Y0245517D01*
X0235413Y0246373D02*
X0235413Y0243627D01*
X0235413Y0246373D02*
X0238159Y0246373D01*
X0238159Y0243627D01*
X0235413Y0243627D01*
X0235413Y0245517D02*
X0238159Y0245517D01*
X0165413Y0246373D02*
X0165413Y0243627D01*
X0165413Y0246373D02*
X0168159Y0246373D01*
X0168159Y0243627D01*
X0165413Y0243627D01*
X0165413Y0245517D02*
X0168159Y0245517D01*
X0158508Y0246373D02*
X0158508Y0243627D01*
X0158508Y0246373D02*
X0161254Y0246373D01*
X0161254Y0243627D01*
X0158508Y0243627D01*
X0158508Y0245517D02*
X0161254Y0245517D01*
D23*
G36*
X0169465Y0213946D02*
X0172885Y0211971D01*
X0170517Y0207870D01*
X0167097Y0209845D01*
X0169465Y0213946D01*
G37*
D24*
G36*
X0174340Y0222392D02*
X0177761Y0220417D01*
X0173622Y0213248D01*
X0170201Y0215223D01*
X0174340Y0222392D01*
G37*
D25*
X0203333Y0162500D03*
X0203333Y0158500D03*
D26*
X0203944Y0170000D03*
X0192723Y0170000D03*
M02*
