%
M48
M72
T01C0.0150
T02C0.0200
T03C0.0320
T04C0.0400
T05C0.1300
%
T01
X17833Y16000
X17333Y16500
X16833Y17000
X14833Y17500
X14333Y19500
X13833Y20000
X15333Y19800
X16333Y20500
X15833Y21000
X17351Y20500
X17833Y20500
X18833Y21150
X19133Y20700
X19333Y20000
X19833Y20500
X20833Y21500
X21333Y22000
X21183Y23050
X21633Y23850
X21833Y25000
X22583Y25000
X23483Y25000
X24583Y24450
X25333Y25000
X23333Y23750
X25333Y23335
X23833Y21150
X23333Y20800
X24083Y19500
X24333Y19000
X24280Y18343
X24833Y18500
X25333Y17500
X25833Y18000
X24333Y17000
X21333Y16000
X20799Y17941
X19333Y18000
X21833Y20000
X26083Y20000
X20089Y24300
X20033Y25400
X18883Y24800
X18633Y24500
X18633Y24050
X18083Y23900
X17733Y24550
X18183Y25150
X17333Y25500
X16583Y25200
X16333Y25650
X15833Y25000
X14333Y25000
X15833Y23500
X16833Y23000
X17583Y23000
X17833Y26850
X19683Y26650
T02
X19333Y27000
X19333Y26000
X19333Y25000
X20333Y25000
X20333Y26000
X20333Y27000
T03
X23683Y22783
X24183Y21917
X15983Y22833
X15483Y21967
X19333Y15250
X20333Y15250
T04
X20333Y13000
X21333Y13000
X22333Y13000
X19333Y13000
X18333Y13000
X17333Y13000
X17333Y28000
X18333Y28000
X19333Y28000
X20333Y28000
X21333Y28000
X22333Y28000
T05
X15833Y13500
X23833Y13500
X23833Y27500
X15833Y27500
M30
