G75*
%MOIN*%
%OFA0B0*%
%FSLAX25Y25*%
%IPPOS*%
%LPD*%
%AMOC8*
5,1,8,0,0,1.08239X$1,22.5*
%
%ADD10R,0.04331X0.03937*%
%ADD11R,0.13000X0.08800*%
%ADD12R,0.01181X0.04331*%
%ADD13R,0.04331X0.01181*%
%ADD14R,0.03937X0.04331*%
%ADD15R,0.04724X0.02362*%
%ADD16R,0.07874X0.04724*%
%ADD17R,0.05315X0.02362*%
%ADD18C,0.01181*%
%ADD19R,0.02362X0.02362*%
%ADD20R,0.06299X0.09449*%
D10*
G36*
X0061782Y0076604D02*
X0065530Y0078769D01*
X0067498Y0075362D01*
X0063750Y0073197D01*
X0061782Y0076604D01*
G37*
G36*
X0067579Y0079950D02*
X0071327Y0082115D01*
X0073295Y0078708D01*
X0069547Y0076543D01*
X0067579Y0079950D01*
G37*
G36*
X0076835Y0102543D02*
X0079000Y0098795D01*
X0075593Y0096827D01*
X0073428Y0100575D01*
X0076835Y0102543D01*
G37*
G36*
X0073488Y0108339D02*
X0075653Y0104591D01*
X0072246Y0102623D01*
X0070081Y0106371D01*
X0073488Y0108339D01*
G37*
X0081154Y0119833D03*
X0087846Y0119833D03*
G36*
X0093387Y0104342D02*
X0095552Y0108090D01*
X0098959Y0106122D01*
X0096794Y0102374D01*
X0093387Y0104342D01*
G37*
G36*
X0090041Y0098545D02*
X0092206Y0102293D01*
X0095613Y0100325D01*
X0093448Y0096577D01*
X0090041Y0098545D01*
G37*
G36*
X0100492Y0077221D02*
X0096744Y0079386D01*
X0098712Y0082793D01*
X0102460Y0080628D01*
X0100492Y0077221D01*
G37*
G36*
X0106288Y0073874D02*
X0102540Y0076039D01*
X0104508Y0079446D01*
X0108256Y0077281D01*
X0106288Y0073874D01*
G37*
G36*
X0121041Y0081045D02*
X0123206Y0084793D01*
X0126613Y0082825D01*
X0124448Y0079077D01*
X0121041Y0081045D01*
G37*
G36*
X0124387Y0086841D02*
X0126552Y0090589D01*
X0129959Y0088621D01*
X0127794Y0084873D01*
X0124387Y0086841D01*
G37*
G36*
X0123288Y0103874D02*
X0119540Y0106039D01*
X0121508Y0109446D01*
X0125256Y0107281D01*
X0123288Y0103874D01*
G37*
G36*
X0117492Y0107221D02*
X0113744Y0109386D01*
X0115712Y0112793D01*
X0119460Y0110628D01*
X0117492Y0107221D01*
G37*
X0107846Y0153333D03*
X0101154Y0153333D03*
G36*
X0049540Y0110628D02*
X0053288Y0112793D01*
X0055256Y0109386D01*
X0051508Y0107221D01*
X0049540Y0110628D01*
G37*
G36*
X0043744Y0107281D02*
X0047492Y0109446D01*
X0049460Y0106039D01*
X0045712Y0103874D01*
X0043744Y0107281D01*
G37*
G36*
X0042312Y0090339D02*
X0044477Y0086591D01*
X0041070Y0084623D01*
X0038905Y0088371D01*
X0042312Y0090339D01*
G37*
G36*
X0045658Y0084543D02*
X0047823Y0080795D01*
X0044416Y0078827D01*
X0042251Y0082575D01*
X0045658Y0084543D01*
G37*
X0037846Y0153333D03*
X0031154Y0153333D03*
G36*
X0061782Y0238604D02*
X0065530Y0240769D01*
X0067498Y0237362D01*
X0063750Y0235197D01*
X0061782Y0238604D01*
G37*
G36*
X0067579Y0241950D02*
X0071327Y0244115D01*
X0073295Y0240708D01*
X0069547Y0238543D01*
X0067579Y0241950D01*
G37*
G36*
X0076835Y0264543D02*
X0079000Y0260795D01*
X0075593Y0258827D01*
X0073428Y0262575D01*
X0076835Y0264543D01*
G37*
G36*
X0073488Y0270339D02*
X0075653Y0266591D01*
X0072246Y0264623D01*
X0070081Y0268371D01*
X0073488Y0270339D01*
G37*
X0081154Y0281833D03*
X0087846Y0281833D03*
G36*
X0093387Y0266342D02*
X0095552Y0270090D01*
X0098959Y0268122D01*
X0096794Y0264374D01*
X0093387Y0266342D01*
G37*
G36*
X0090041Y0260545D02*
X0092206Y0264293D01*
X0095613Y0262325D01*
X0093448Y0258577D01*
X0090041Y0260545D01*
G37*
G36*
X0100492Y0239221D02*
X0096744Y0241386D01*
X0098712Y0244793D01*
X0102460Y0242628D01*
X0100492Y0239221D01*
G37*
G36*
X0106288Y0235874D02*
X0102540Y0238039D01*
X0104508Y0241446D01*
X0108256Y0239281D01*
X0106288Y0235874D01*
G37*
G36*
X0121041Y0243045D02*
X0123206Y0246793D01*
X0126613Y0244825D01*
X0124448Y0241077D01*
X0121041Y0243045D01*
G37*
G36*
X0124387Y0248841D02*
X0126552Y0252589D01*
X0129959Y0250621D01*
X0127794Y0246873D01*
X0124387Y0248841D01*
G37*
G36*
X0123288Y0265874D02*
X0119540Y0268039D01*
X0121508Y0271446D01*
X0125256Y0269281D01*
X0123288Y0265874D01*
G37*
G36*
X0117492Y0269221D02*
X0113744Y0271386D01*
X0115712Y0274793D01*
X0119460Y0272628D01*
X0117492Y0269221D01*
G37*
X0107846Y0315333D03*
X0101154Y0315333D03*
G36*
X0049540Y0272628D02*
X0053288Y0274793D01*
X0055256Y0271386D01*
X0051508Y0269221D01*
X0049540Y0272628D01*
G37*
G36*
X0043744Y0269281D02*
X0047492Y0271446D01*
X0049460Y0268039D01*
X0045712Y0265874D01*
X0043744Y0269281D01*
G37*
G36*
X0042312Y0252339D02*
X0044477Y0248591D01*
X0041070Y0246623D01*
X0038905Y0250371D01*
X0042312Y0252339D01*
G37*
G36*
X0045658Y0246543D02*
X0047823Y0242795D01*
X0044416Y0240827D01*
X0042251Y0244575D01*
X0045658Y0246543D01*
G37*
X0037846Y0315333D03*
X0031154Y0315333D03*
X0173154Y0315333D03*
X0179846Y0315333D03*
G36*
X0191540Y0272628D02*
X0195288Y0274793D01*
X0197256Y0271386D01*
X0193508Y0269221D01*
X0191540Y0272628D01*
G37*
G36*
X0185744Y0269281D02*
X0189492Y0271446D01*
X0191460Y0268039D01*
X0187712Y0265874D01*
X0185744Y0269281D01*
G37*
G36*
X0184312Y0252339D02*
X0186477Y0248591D01*
X0183070Y0246623D01*
X0180905Y0250371D01*
X0184312Y0252339D01*
G37*
G36*
X0187658Y0246543D02*
X0189823Y0242795D01*
X0186416Y0240827D01*
X0184251Y0244575D01*
X0187658Y0246543D01*
G37*
G36*
X0203782Y0238604D02*
X0207530Y0240769D01*
X0209498Y0237362D01*
X0205750Y0235197D01*
X0203782Y0238604D01*
G37*
G36*
X0209579Y0241950D02*
X0213327Y0244115D01*
X0215295Y0240708D01*
X0211547Y0238543D01*
X0209579Y0241950D01*
G37*
G36*
X0218835Y0264543D02*
X0221000Y0260795D01*
X0217593Y0258827D01*
X0215428Y0262575D01*
X0218835Y0264543D01*
G37*
G36*
X0215488Y0270339D02*
X0217653Y0266591D01*
X0214246Y0264623D01*
X0212081Y0268371D01*
X0215488Y0270339D01*
G37*
X0223154Y0281833D03*
X0229846Y0281833D03*
G36*
X0235387Y0266342D02*
X0237552Y0270090D01*
X0240959Y0268122D01*
X0238794Y0264374D01*
X0235387Y0266342D01*
G37*
G36*
X0232041Y0260545D02*
X0234206Y0264293D01*
X0237613Y0262325D01*
X0235448Y0258577D01*
X0232041Y0260545D01*
G37*
G36*
X0242492Y0239221D02*
X0238744Y0241386D01*
X0240712Y0244793D01*
X0244460Y0242628D01*
X0242492Y0239221D01*
G37*
G36*
X0248288Y0235874D02*
X0244540Y0238039D01*
X0246508Y0241446D01*
X0250256Y0239281D01*
X0248288Y0235874D01*
G37*
G36*
X0263041Y0243045D02*
X0265206Y0246793D01*
X0268613Y0244825D01*
X0266448Y0241077D01*
X0263041Y0243045D01*
G37*
G36*
X0266387Y0248841D02*
X0268552Y0252589D01*
X0271959Y0250621D01*
X0269794Y0246873D01*
X0266387Y0248841D01*
G37*
G36*
X0265288Y0265874D02*
X0261540Y0268039D01*
X0263508Y0271446D01*
X0267256Y0269281D01*
X0265288Y0265874D01*
G37*
G36*
X0259492Y0269221D02*
X0255744Y0271386D01*
X0257712Y0274793D01*
X0261460Y0272628D01*
X0259492Y0269221D01*
G37*
X0249846Y0315333D03*
X0243154Y0315333D03*
X0315154Y0315333D03*
X0321846Y0315333D03*
X0365154Y0281833D03*
X0371846Y0281833D03*
G36*
X0377387Y0266342D02*
X0379552Y0270090D01*
X0382959Y0268122D01*
X0380794Y0264374D01*
X0377387Y0266342D01*
G37*
G36*
X0374041Y0260545D02*
X0376206Y0264293D01*
X0379613Y0262325D01*
X0377448Y0258577D01*
X0374041Y0260545D01*
G37*
G36*
X0360835Y0264543D02*
X0363000Y0260795D01*
X0359593Y0258827D01*
X0357428Y0262575D01*
X0360835Y0264543D01*
G37*
G36*
X0357488Y0270339D02*
X0359653Y0266591D01*
X0356246Y0264623D01*
X0354081Y0268371D01*
X0357488Y0270339D01*
G37*
G36*
X0333540Y0272628D02*
X0337288Y0274793D01*
X0339256Y0271386D01*
X0335508Y0269221D01*
X0333540Y0272628D01*
G37*
G36*
X0327744Y0269281D02*
X0331492Y0271446D01*
X0333460Y0268039D01*
X0329712Y0265874D01*
X0327744Y0269281D01*
G37*
G36*
X0326312Y0252339D02*
X0328477Y0248591D01*
X0325070Y0246623D01*
X0322905Y0250371D01*
X0326312Y0252339D01*
G37*
G36*
X0329658Y0246543D02*
X0331823Y0242795D01*
X0328416Y0240827D01*
X0326251Y0244575D01*
X0329658Y0246543D01*
G37*
G36*
X0345782Y0238604D02*
X0349530Y0240769D01*
X0351498Y0237362D01*
X0347750Y0235197D01*
X0345782Y0238604D01*
G37*
G36*
X0351579Y0241950D02*
X0355327Y0244115D01*
X0357295Y0240708D01*
X0353547Y0238543D01*
X0351579Y0241950D01*
G37*
G36*
X0384492Y0239221D02*
X0380744Y0241386D01*
X0382712Y0244793D01*
X0386460Y0242628D01*
X0384492Y0239221D01*
G37*
G36*
X0390288Y0235874D02*
X0386540Y0238039D01*
X0388508Y0241446D01*
X0392256Y0239281D01*
X0390288Y0235874D01*
G37*
G36*
X0405041Y0243045D02*
X0407206Y0246793D01*
X0410613Y0244825D01*
X0408448Y0241077D01*
X0405041Y0243045D01*
G37*
G36*
X0408387Y0248841D02*
X0410552Y0252589D01*
X0413959Y0250621D01*
X0411794Y0246873D01*
X0408387Y0248841D01*
G37*
G36*
X0407288Y0265874D02*
X0403540Y0268039D01*
X0405508Y0271446D01*
X0409256Y0269281D01*
X0407288Y0265874D01*
G37*
G36*
X0401492Y0269221D02*
X0397744Y0271386D01*
X0399712Y0274793D01*
X0403460Y0272628D01*
X0401492Y0269221D01*
G37*
X0391846Y0315333D03*
X0385154Y0315333D03*
X0385154Y0153333D03*
X0391846Y0153333D03*
X0371846Y0119833D03*
X0365154Y0119833D03*
G36*
X0357488Y0108339D02*
X0359653Y0104591D01*
X0356246Y0102623D01*
X0354081Y0106371D01*
X0357488Y0108339D01*
G37*
G36*
X0360835Y0102543D02*
X0363000Y0098795D01*
X0359593Y0096827D01*
X0357428Y0100575D01*
X0360835Y0102543D01*
G37*
G36*
X0374041Y0098545D02*
X0376206Y0102293D01*
X0379613Y0100325D01*
X0377448Y0096577D01*
X0374041Y0098545D01*
G37*
G36*
X0377387Y0104342D02*
X0379552Y0108090D01*
X0382959Y0106122D01*
X0380794Y0102374D01*
X0377387Y0104342D01*
G37*
G36*
X0401492Y0107221D02*
X0397744Y0109386D01*
X0399712Y0112793D01*
X0403460Y0110628D01*
X0401492Y0107221D01*
G37*
G36*
X0407288Y0103874D02*
X0403540Y0106039D01*
X0405508Y0109446D01*
X0409256Y0107281D01*
X0407288Y0103874D01*
G37*
G36*
X0408387Y0086841D02*
X0410552Y0090589D01*
X0413959Y0088621D01*
X0411794Y0084873D01*
X0408387Y0086841D01*
G37*
G36*
X0405041Y0081045D02*
X0407206Y0084793D01*
X0410613Y0082825D01*
X0408448Y0079077D01*
X0405041Y0081045D01*
G37*
G36*
X0390288Y0073874D02*
X0386540Y0076039D01*
X0388508Y0079446D01*
X0392256Y0077281D01*
X0390288Y0073874D01*
G37*
G36*
X0384492Y0077221D02*
X0380744Y0079386D01*
X0382712Y0082793D01*
X0386460Y0080628D01*
X0384492Y0077221D01*
G37*
G36*
X0351579Y0079950D02*
X0355327Y0082115D01*
X0357295Y0078708D01*
X0353547Y0076543D01*
X0351579Y0079950D01*
G37*
G36*
X0345782Y0076604D02*
X0349530Y0078769D01*
X0351498Y0075362D01*
X0347750Y0073197D01*
X0345782Y0076604D01*
G37*
G36*
X0329658Y0084543D02*
X0331823Y0080795D01*
X0328416Y0078827D01*
X0326251Y0082575D01*
X0329658Y0084543D01*
G37*
G36*
X0326312Y0090339D02*
X0328477Y0086591D01*
X0325070Y0084623D01*
X0322905Y0088371D01*
X0326312Y0090339D01*
G37*
G36*
X0327744Y0107281D02*
X0331492Y0109446D01*
X0333460Y0106039D01*
X0329712Y0103874D01*
X0327744Y0107281D01*
G37*
G36*
X0333540Y0110628D02*
X0337288Y0112793D01*
X0339256Y0109386D01*
X0335508Y0107221D01*
X0333540Y0110628D01*
G37*
X0321846Y0153333D03*
X0315154Y0153333D03*
G36*
X0265288Y0103874D02*
X0261540Y0106039D01*
X0263508Y0109446D01*
X0267256Y0107281D01*
X0265288Y0103874D01*
G37*
G36*
X0259492Y0107221D02*
X0255744Y0109386D01*
X0257712Y0112793D01*
X0261460Y0110628D01*
X0259492Y0107221D01*
G37*
G36*
X0235387Y0104342D02*
X0237552Y0108090D01*
X0240959Y0106122D01*
X0238794Y0102374D01*
X0235387Y0104342D01*
G37*
G36*
X0232041Y0098545D02*
X0234206Y0102293D01*
X0237613Y0100325D01*
X0235448Y0096577D01*
X0232041Y0098545D01*
G37*
G36*
X0218835Y0102543D02*
X0221000Y0098795D01*
X0217593Y0096827D01*
X0215428Y0100575D01*
X0218835Y0102543D01*
G37*
G36*
X0215488Y0108339D02*
X0217653Y0104591D01*
X0214246Y0102623D01*
X0212081Y0106371D01*
X0215488Y0108339D01*
G37*
X0223154Y0119833D03*
X0229846Y0119833D03*
X0243154Y0153333D03*
X0249846Y0153333D03*
G36*
X0191540Y0110628D02*
X0195288Y0112793D01*
X0197256Y0109386D01*
X0193508Y0107221D01*
X0191540Y0110628D01*
G37*
G36*
X0185744Y0107281D02*
X0189492Y0109446D01*
X0191460Y0106039D01*
X0187712Y0103874D01*
X0185744Y0107281D01*
G37*
G36*
X0184312Y0090339D02*
X0186477Y0086591D01*
X0183070Y0084623D01*
X0180905Y0088371D01*
X0184312Y0090339D01*
G37*
G36*
X0187658Y0084543D02*
X0189823Y0080795D01*
X0186416Y0078827D01*
X0184251Y0082575D01*
X0187658Y0084543D01*
G37*
G36*
X0203782Y0076604D02*
X0207530Y0078769D01*
X0209498Y0075362D01*
X0205750Y0073197D01*
X0203782Y0076604D01*
G37*
G36*
X0209579Y0079950D02*
X0213327Y0082115D01*
X0215295Y0078708D01*
X0211547Y0076543D01*
X0209579Y0079950D01*
G37*
G36*
X0242492Y0077221D02*
X0238744Y0079386D01*
X0240712Y0082793D01*
X0244460Y0080628D01*
X0242492Y0077221D01*
G37*
G36*
X0248288Y0073874D02*
X0244540Y0076039D01*
X0246508Y0079446D01*
X0250256Y0077281D01*
X0248288Y0073874D01*
G37*
G36*
X0263041Y0081045D02*
X0265206Y0084793D01*
X0268613Y0082825D01*
X0266448Y0079077D01*
X0263041Y0081045D01*
G37*
G36*
X0266387Y0086841D02*
X0268552Y0090589D01*
X0271959Y0088621D01*
X0269794Y0084873D01*
X0266387Y0086841D01*
G37*
X0179846Y0153333D03*
X0173154Y0153333D03*
D11*
X0184000Y0168333D03*
X0042000Y0168333D03*
X0042000Y0330333D03*
X0184000Y0330333D03*
X0326000Y0330333D03*
X0326000Y0168333D03*
D12*
X0363382Y0146995D03*
X0365941Y0146995D03*
X0368500Y0146995D03*
X0371059Y0146995D03*
X0373618Y0146995D03*
X0373618Y0129672D03*
X0371059Y0129672D03*
X0368500Y0129672D03*
X0365941Y0129672D03*
X0363382Y0129672D03*
G36*
X0346224Y0100700D02*
X0345634Y0101722D01*
X0349382Y0103886D01*
X0349972Y0102864D01*
X0346224Y0100700D01*
G37*
G36*
X0347504Y0098484D02*
X0346914Y0099506D01*
X0350662Y0101670D01*
X0351252Y0100648D01*
X0347504Y0098484D01*
G37*
G36*
X0348783Y0096268D02*
X0348193Y0097290D01*
X0351941Y0099454D01*
X0352531Y0098432D01*
X0348783Y0096268D01*
G37*
G36*
X0350063Y0094052D02*
X0349473Y0095074D01*
X0353221Y0097238D01*
X0353811Y0096216D01*
X0350063Y0094052D01*
G37*
G36*
X0351342Y0091836D02*
X0350752Y0092858D01*
X0354500Y0095022D01*
X0355090Y0094000D01*
X0351342Y0091836D01*
G37*
G36*
X0349690Y0089970D02*
X0350712Y0090560D01*
X0352876Y0086812D01*
X0351854Y0086222D01*
X0349690Y0089970D01*
G37*
G36*
X0347474Y0088691D02*
X0348496Y0089281D01*
X0350660Y0085533D01*
X0349638Y0084943D01*
X0347474Y0088691D01*
G37*
G36*
X0345258Y0087411D02*
X0346280Y0088001D01*
X0348444Y0084253D01*
X0347422Y0083663D01*
X0345258Y0087411D01*
G37*
G36*
X0343042Y0086132D02*
X0344064Y0086722D01*
X0346228Y0082974D01*
X0345206Y0082384D01*
X0343042Y0086132D01*
G37*
G36*
X0340825Y0084852D02*
X0341847Y0085442D01*
X0344011Y0081694D01*
X0342989Y0081104D01*
X0340825Y0084852D01*
G37*
G36*
X0339157Y0086163D02*
X0339747Y0085141D01*
X0335999Y0082977D01*
X0335409Y0083999D01*
X0339157Y0086163D01*
G37*
G36*
X0337878Y0088380D02*
X0338468Y0087358D01*
X0334720Y0085194D01*
X0334130Y0086216D01*
X0337878Y0088380D01*
G37*
G36*
X0336598Y0090596D02*
X0337188Y0089574D01*
X0333440Y0087410D01*
X0332850Y0088432D01*
X0336598Y0090596D01*
G37*
G36*
X0335319Y0092812D02*
X0335909Y0091790D01*
X0332161Y0089626D01*
X0331571Y0090648D01*
X0335319Y0092812D01*
G37*
G36*
X0334039Y0095028D02*
X0334629Y0094006D01*
X0330881Y0091842D01*
X0330291Y0092864D01*
X0334039Y0095028D01*
G37*
G36*
X0335350Y0096696D02*
X0334328Y0096106D01*
X0332164Y0099854D01*
X0333186Y0100444D01*
X0335350Y0096696D01*
G37*
G36*
X0337566Y0097976D02*
X0336544Y0097386D01*
X0334380Y0101134D01*
X0335402Y0101724D01*
X0337566Y0097976D01*
G37*
G36*
X0339782Y0099255D02*
X0338760Y0098665D01*
X0336596Y0102413D01*
X0337618Y0103003D01*
X0339782Y0099255D01*
G37*
G36*
X0341999Y0100535D02*
X0340977Y0099945D01*
X0338813Y0103693D01*
X0339835Y0104283D01*
X0341999Y0100535D01*
G37*
G36*
X0344215Y0101815D02*
X0343193Y0101225D01*
X0341029Y0104973D01*
X0342051Y0105563D01*
X0344215Y0101815D01*
G37*
G36*
X0386248Y0092858D02*
X0385658Y0091836D01*
X0381910Y0094000D01*
X0382500Y0095022D01*
X0386248Y0092858D01*
G37*
G36*
X0387527Y0095074D02*
X0386937Y0094052D01*
X0383189Y0096216D01*
X0383779Y0097238D01*
X0387527Y0095074D01*
G37*
G36*
X0388807Y0097290D02*
X0388217Y0096268D01*
X0384469Y0098432D01*
X0385059Y0099454D01*
X0388807Y0097290D01*
G37*
G36*
X0390086Y0099506D02*
X0389496Y0098484D01*
X0385748Y0100648D01*
X0386338Y0101670D01*
X0390086Y0099506D01*
G37*
G36*
X0391366Y0101722D02*
X0390776Y0100700D01*
X0387028Y0102864D01*
X0387618Y0103886D01*
X0391366Y0101722D01*
G37*
G36*
X0393807Y0101225D02*
X0392785Y0101815D01*
X0394949Y0105563D01*
X0395971Y0104973D01*
X0393807Y0101225D01*
G37*
G36*
X0396023Y0099945D02*
X0395001Y0100535D01*
X0397165Y0104283D01*
X0398187Y0103693D01*
X0396023Y0099945D01*
G37*
G36*
X0398240Y0098665D02*
X0397218Y0099255D01*
X0399382Y0103003D01*
X0400404Y0102413D01*
X0398240Y0098665D01*
G37*
G36*
X0400456Y0097386D02*
X0399434Y0097976D01*
X0401598Y0101724D01*
X0402620Y0101134D01*
X0400456Y0097386D01*
G37*
G36*
X0402672Y0096106D02*
X0401650Y0096696D01*
X0403814Y0100444D01*
X0404836Y0099854D01*
X0402672Y0096106D01*
G37*
G36*
X0402371Y0094006D02*
X0402961Y0095028D01*
X0406709Y0092864D01*
X0406119Y0091842D01*
X0402371Y0094006D01*
G37*
G36*
X0401091Y0091790D02*
X0401681Y0092812D01*
X0405429Y0090648D01*
X0404839Y0089626D01*
X0401091Y0091790D01*
G37*
G36*
X0399812Y0089574D02*
X0400402Y0090596D01*
X0404150Y0088432D01*
X0403560Y0087410D01*
X0399812Y0089574D01*
G37*
G36*
X0398532Y0087358D02*
X0399122Y0088380D01*
X0402870Y0086216D01*
X0402280Y0085194D01*
X0398532Y0087358D01*
G37*
G36*
X0397253Y0085141D02*
X0397843Y0086163D01*
X0401591Y0083999D01*
X0401001Y0082977D01*
X0397253Y0085141D01*
G37*
G36*
X0395153Y0085442D02*
X0396175Y0084852D01*
X0394011Y0081104D01*
X0392989Y0081694D01*
X0395153Y0085442D01*
G37*
G36*
X0392936Y0086722D02*
X0393958Y0086132D01*
X0391794Y0082384D01*
X0390772Y0082974D01*
X0392936Y0086722D01*
G37*
G36*
X0390720Y0088001D02*
X0391742Y0087411D01*
X0389578Y0083663D01*
X0388556Y0084253D01*
X0390720Y0088001D01*
G37*
G36*
X0388504Y0089281D02*
X0389526Y0088691D01*
X0387362Y0084943D01*
X0386340Y0085533D01*
X0388504Y0089281D01*
G37*
G36*
X0386288Y0090561D02*
X0387310Y0089971D01*
X0385146Y0086223D01*
X0384124Y0086813D01*
X0386288Y0090561D01*
G37*
G36*
X0260371Y0094006D02*
X0260961Y0095028D01*
X0264709Y0092864D01*
X0264119Y0091842D01*
X0260371Y0094006D01*
G37*
G36*
X0259091Y0091790D02*
X0259681Y0092812D01*
X0263429Y0090648D01*
X0262839Y0089626D01*
X0259091Y0091790D01*
G37*
G36*
X0257812Y0089574D02*
X0258402Y0090596D01*
X0262150Y0088432D01*
X0261560Y0087410D01*
X0257812Y0089574D01*
G37*
G36*
X0256532Y0087358D02*
X0257122Y0088380D01*
X0260870Y0086216D01*
X0260280Y0085194D01*
X0256532Y0087358D01*
G37*
G36*
X0255253Y0085141D02*
X0255843Y0086163D01*
X0259591Y0083999D01*
X0259001Y0082977D01*
X0255253Y0085141D01*
G37*
G36*
X0253153Y0085442D02*
X0254175Y0084852D01*
X0252011Y0081104D01*
X0250989Y0081694D01*
X0253153Y0085442D01*
G37*
G36*
X0250936Y0086722D02*
X0251958Y0086132D01*
X0249794Y0082384D01*
X0248772Y0082974D01*
X0250936Y0086722D01*
G37*
G36*
X0248720Y0088001D02*
X0249742Y0087411D01*
X0247578Y0083663D01*
X0246556Y0084253D01*
X0248720Y0088001D01*
G37*
G36*
X0246504Y0089281D02*
X0247526Y0088691D01*
X0245362Y0084943D01*
X0244340Y0085533D01*
X0246504Y0089281D01*
G37*
G36*
X0244288Y0090561D02*
X0245310Y0089971D01*
X0243146Y0086223D01*
X0242124Y0086813D01*
X0244288Y0090561D01*
G37*
G36*
X0244248Y0092858D02*
X0243658Y0091836D01*
X0239910Y0094000D01*
X0240500Y0095022D01*
X0244248Y0092858D01*
G37*
G36*
X0245527Y0095074D02*
X0244937Y0094052D01*
X0241189Y0096216D01*
X0241779Y0097238D01*
X0245527Y0095074D01*
G37*
G36*
X0246807Y0097290D02*
X0246217Y0096268D01*
X0242469Y0098432D01*
X0243059Y0099454D01*
X0246807Y0097290D01*
G37*
G36*
X0248086Y0099506D02*
X0247496Y0098484D01*
X0243748Y0100648D01*
X0244338Y0101670D01*
X0248086Y0099506D01*
G37*
G36*
X0249366Y0101722D02*
X0248776Y0100700D01*
X0245028Y0102864D01*
X0245618Y0103886D01*
X0249366Y0101722D01*
G37*
G36*
X0251807Y0101225D02*
X0250785Y0101815D01*
X0252949Y0105563D01*
X0253971Y0104973D01*
X0251807Y0101225D01*
G37*
G36*
X0254023Y0099945D02*
X0253001Y0100535D01*
X0255165Y0104283D01*
X0256187Y0103693D01*
X0254023Y0099945D01*
G37*
G36*
X0256240Y0098665D02*
X0255218Y0099255D01*
X0257382Y0103003D01*
X0258404Y0102413D01*
X0256240Y0098665D01*
G37*
G36*
X0258456Y0097386D02*
X0257434Y0097976D01*
X0259598Y0101724D01*
X0260620Y0101134D01*
X0258456Y0097386D01*
G37*
G36*
X0260672Y0096106D02*
X0259650Y0096696D01*
X0261814Y0100444D01*
X0262836Y0099854D01*
X0260672Y0096106D01*
G37*
X0231618Y0129672D03*
X0229059Y0129672D03*
X0226500Y0129672D03*
X0223941Y0129672D03*
X0221382Y0129672D03*
X0221382Y0146995D03*
X0223941Y0146995D03*
X0226500Y0146995D03*
X0229059Y0146995D03*
X0231618Y0146995D03*
G36*
X0204224Y0100700D02*
X0203634Y0101722D01*
X0207382Y0103886D01*
X0207972Y0102864D01*
X0204224Y0100700D01*
G37*
G36*
X0205504Y0098484D02*
X0204914Y0099506D01*
X0208662Y0101670D01*
X0209252Y0100648D01*
X0205504Y0098484D01*
G37*
G36*
X0206783Y0096268D02*
X0206193Y0097290D01*
X0209941Y0099454D01*
X0210531Y0098432D01*
X0206783Y0096268D01*
G37*
G36*
X0208063Y0094052D02*
X0207473Y0095074D01*
X0211221Y0097238D01*
X0211811Y0096216D01*
X0208063Y0094052D01*
G37*
G36*
X0209342Y0091836D02*
X0208752Y0092858D01*
X0212500Y0095022D01*
X0213090Y0094000D01*
X0209342Y0091836D01*
G37*
G36*
X0207690Y0089970D02*
X0208712Y0090560D01*
X0210876Y0086812D01*
X0209854Y0086222D01*
X0207690Y0089970D01*
G37*
G36*
X0205474Y0088691D02*
X0206496Y0089281D01*
X0208660Y0085533D01*
X0207638Y0084943D01*
X0205474Y0088691D01*
G37*
G36*
X0203258Y0087411D02*
X0204280Y0088001D01*
X0206444Y0084253D01*
X0205422Y0083663D01*
X0203258Y0087411D01*
G37*
G36*
X0201042Y0086132D02*
X0202064Y0086722D01*
X0204228Y0082974D01*
X0203206Y0082384D01*
X0201042Y0086132D01*
G37*
G36*
X0198825Y0084852D02*
X0199847Y0085442D01*
X0202011Y0081694D01*
X0200989Y0081104D01*
X0198825Y0084852D01*
G37*
G36*
X0197157Y0086163D02*
X0197747Y0085141D01*
X0193999Y0082977D01*
X0193409Y0083999D01*
X0197157Y0086163D01*
G37*
G36*
X0195878Y0088380D02*
X0196468Y0087358D01*
X0192720Y0085194D01*
X0192130Y0086216D01*
X0195878Y0088380D01*
G37*
G36*
X0194598Y0090596D02*
X0195188Y0089574D01*
X0191440Y0087410D01*
X0190850Y0088432D01*
X0194598Y0090596D01*
G37*
G36*
X0193319Y0092812D02*
X0193909Y0091790D01*
X0190161Y0089626D01*
X0189571Y0090648D01*
X0193319Y0092812D01*
G37*
G36*
X0192039Y0095028D02*
X0192629Y0094006D01*
X0188881Y0091842D01*
X0188291Y0092864D01*
X0192039Y0095028D01*
G37*
G36*
X0193350Y0096696D02*
X0192328Y0096106D01*
X0190164Y0099854D01*
X0191186Y0100444D01*
X0193350Y0096696D01*
G37*
G36*
X0195566Y0097976D02*
X0194544Y0097386D01*
X0192380Y0101134D01*
X0193402Y0101724D01*
X0195566Y0097976D01*
G37*
G36*
X0197782Y0099255D02*
X0196760Y0098665D01*
X0194596Y0102413D01*
X0195618Y0103003D01*
X0197782Y0099255D01*
G37*
G36*
X0199999Y0100535D02*
X0198977Y0099945D01*
X0196813Y0103693D01*
X0197835Y0104283D01*
X0199999Y0100535D01*
G37*
G36*
X0202215Y0101815D02*
X0201193Y0101225D01*
X0199029Y0104973D01*
X0200051Y0105563D01*
X0202215Y0101815D01*
G37*
G36*
X0118371Y0094006D02*
X0118961Y0095028D01*
X0122709Y0092864D01*
X0122119Y0091842D01*
X0118371Y0094006D01*
G37*
G36*
X0117091Y0091790D02*
X0117681Y0092812D01*
X0121429Y0090648D01*
X0120839Y0089626D01*
X0117091Y0091790D01*
G37*
G36*
X0115812Y0089574D02*
X0116402Y0090596D01*
X0120150Y0088432D01*
X0119560Y0087410D01*
X0115812Y0089574D01*
G37*
G36*
X0114532Y0087358D02*
X0115122Y0088380D01*
X0118870Y0086216D01*
X0118280Y0085194D01*
X0114532Y0087358D01*
G37*
G36*
X0113253Y0085141D02*
X0113843Y0086163D01*
X0117591Y0083999D01*
X0117001Y0082977D01*
X0113253Y0085141D01*
G37*
G36*
X0111153Y0085442D02*
X0112175Y0084852D01*
X0110011Y0081104D01*
X0108989Y0081694D01*
X0111153Y0085442D01*
G37*
G36*
X0108936Y0086722D02*
X0109958Y0086132D01*
X0107794Y0082384D01*
X0106772Y0082974D01*
X0108936Y0086722D01*
G37*
G36*
X0106720Y0088001D02*
X0107742Y0087411D01*
X0105578Y0083663D01*
X0104556Y0084253D01*
X0106720Y0088001D01*
G37*
G36*
X0104504Y0089281D02*
X0105526Y0088691D01*
X0103362Y0084943D01*
X0102340Y0085533D01*
X0104504Y0089281D01*
G37*
G36*
X0102288Y0090561D02*
X0103310Y0089971D01*
X0101146Y0086223D01*
X0100124Y0086813D01*
X0102288Y0090561D01*
G37*
G36*
X0102248Y0092858D02*
X0101658Y0091836D01*
X0097910Y0094000D01*
X0098500Y0095022D01*
X0102248Y0092858D01*
G37*
G36*
X0103527Y0095074D02*
X0102937Y0094052D01*
X0099189Y0096216D01*
X0099779Y0097238D01*
X0103527Y0095074D01*
G37*
G36*
X0104807Y0097290D02*
X0104217Y0096268D01*
X0100469Y0098432D01*
X0101059Y0099454D01*
X0104807Y0097290D01*
G37*
G36*
X0106086Y0099506D02*
X0105496Y0098484D01*
X0101748Y0100648D01*
X0102338Y0101670D01*
X0106086Y0099506D01*
G37*
G36*
X0107366Y0101722D02*
X0106776Y0100700D01*
X0103028Y0102864D01*
X0103618Y0103886D01*
X0107366Y0101722D01*
G37*
G36*
X0109807Y0101225D02*
X0108785Y0101815D01*
X0110949Y0105563D01*
X0111971Y0104973D01*
X0109807Y0101225D01*
G37*
G36*
X0112023Y0099945D02*
X0111001Y0100535D01*
X0113165Y0104283D01*
X0114187Y0103693D01*
X0112023Y0099945D01*
G37*
G36*
X0114240Y0098665D02*
X0113218Y0099255D01*
X0115382Y0103003D01*
X0116404Y0102413D01*
X0114240Y0098665D01*
G37*
G36*
X0116456Y0097386D02*
X0115434Y0097976D01*
X0117598Y0101724D01*
X0118620Y0101134D01*
X0116456Y0097386D01*
G37*
G36*
X0118672Y0096106D02*
X0117650Y0096696D01*
X0119814Y0100444D01*
X0120836Y0099854D01*
X0118672Y0096106D01*
G37*
X0089618Y0129672D03*
X0087059Y0129672D03*
X0084500Y0129672D03*
X0081941Y0129672D03*
X0079382Y0129672D03*
X0079382Y0146995D03*
X0081941Y0146995D03*
X0084500Y0146995D03*
X0087059Y0146995D03*
X0089618Y0146995D03*
G36*
X0062224Y0100700D02*
X0061634Y0101722D01*
X0065382Y0103886D01*
X0065972Y0102864D01*
X0062224Y0100700D01*
G37*
G36*
X0063504Y0098484D02*
X0062914Y0099506D01*
X0066662Y0101670D01*
X0067252Y0100648D01*
X0063504Y0098484D01*
G37*
G36*
X0064783Y0096268D02*
X0064193Y0097290D01*
X0067941Y0099454D01*
X0068531Y0098432D01*
X0064783Y0096268D01*
G37*
G36*
X0066063Y0094052D02*
X0065473Y0095074D01*
X0069221Y0097238D01*
X0069811Y0096216D01*
X0066063Y0094052D01*
G37*
G36*
X0067342Y0091836D02*
X0066752Y0092858D01*
X0070500Y0095022D01*
X0071090Y0094000D01*
X0067342Y0091836D01*
G37*
G36*
X0065690Y0089970D02*
X0066712Y0090560D01*
X0068876Y0086812D01*
X0067854Y0086222D01*
X0065690Y0089970D01*
G37*
G36*
X0063474Y0088691D02*
X0064496Y0089281D01*
X0066660Y0085533D01*
X0065638Y0084943D01*
X0063474Y0088691D01*
G37*
G36*
X0061258Y0087411D02*
X0062280Y0088001D01*
X0064444Y0084253D01*
X0063422Y0083663D01*
X0061258Y0087411D01*
G37*
G36*
X0059042Y0086132D02*
X0060064Y0086722D01*
X0062228Y0082974D01*
X0061206Y0082384D01*
X0059042Y0086132D01*
G37*
G36*
X0056825Y0084852D02*
X0057847Y0085442D01*
X0060011Y0081694D01*
X0058989Y0081104D01*
X0056825Y0084852D01*
G37*
G36*
X0055157Y0086163D02*
X0055747Y0085141D01*
X0051999Y0082977D01*
X0051409Y0083999D01*
X0055157Y0086163D01*
G37*
G36*
X0053878Y0088380D02*
X0054468Y0087358D01*
X0050720Y0085194D01*
X0050130Y0086216D01*
X0053878Y0088380D01*
G37*
G36*
X0052598Y0090596D02*
X0053188Y0089574D01*
X0049440Y0087410D01*
X0048850Y0088432D01*
X0052598Y0090596D01*
G37*
G36*
X0051319Y0092812D02*
X0051909Y0091790D01*
X0048161Y0089626D01*
X0047571Y0090648D01*
X0051319Y0092812D01*
G37*
G36*
X0050039Y0095028D02*
X0050629Y0094006D01*
X0046881Y0091842D01*
X0046291Y0092864D01*
X0050039Y0095028D01*
G37*
G36*
X0051350Y0096696D02*
X0050328Y0096106D01*
X0048164Y0099854D01*
X0049186Y0100444D01*
X0051350Y0096696D01*
G37*
G36*
X0053566Y0097976D02*
X0052544Y0097386D01*
X0050380Y0101134D01*
X0051402Y0101724D01*
X0053566Y0097976D01*
G37*
G36*
X0055782Y0099255D02*
X0054760Y0098665D01*
X0052596Y0102413D01*
X0053618Y0103003D01*
X0055782Y0099255D01*
G37*
G36*
X0057999Y0100535D02*
X0056977Y0099945D01*
X0054813Y0103693D01*
X0055835Y0104283D01*
X0057999Y0100535D01*
G37*
G36*
X0060215Y0101815D02*
X0059193Y0101225D01*
X0057029Y0104973D01*
X0058051Y0105563D01*
X0060215Y0101815D01*
G37*
G36*
X0056825Y0246852D02*
X0057847Y0247442D01*
X0060011Y0243694D01*
X0058989Y0243104D01*
X0056825Y0246852D01*
G37*
G36*
X0055157Y0248163D02*
X0055747Y0247141D01*
X0051999Y0244977D01*
X0051409Y0245999D01*
X0055157Y0248163D01*
G37*
G36*
X0053878Y0250380D02*
X0054468Y0249358D01*
X0050720Y0247194D01*
X0050130Y0248216D01*
X0053878Y0250380D01*
G37*
G36*
X0052598Y0252596D02*
X0053188Y0251574D01*
X0049440Y0249410D01*
X0048850Y0250432D01*
X0052598Y0252596D01*
G37*
G36*
X0051319Y0254812D02*
X0051909Y0253790D01*
X0048161Y0251626D01*
X0047571Y0252648D01*
X0051319Y0254812D01*
G37*
G36*
X0050039Y0257028D02*
X0050629Y0256006D01*
X0046881Y0253842D01*
X0046291Y0254864D01*
X0050039Y0257028D01*
G37*
G36*
X0051350Y0258696D02*
X0050328Y0258106D01*
X0048164Y0261854D01*
X0049186Y0262444D01*
X0051350Y0258696D01*
G37*
G36*
X0053566Y0259976D02*
X0052544Y0259386D01*
X0050380Y0263134D01*
X0051402Y0263724D01*
X0053566Y0259976D01*
G37*
G36*
X0055782Y0261255D02*
X0054760Y0260665D01*
X0052596Y0264413D01*
X0053618Y0265003D01*
X0055782Y0261255D01*
G37*
G36*
X0057999Y0262535D02*
X0056977Y0261945D01*
X0054813Y0265693D01*
X0055835Y0266283D01*
X0057999Y0262535D01*
G37*
G36*
X0060215Y0263815D02*
X0059193Y0263225D01*
X0057029Y0266973D01*
X0058051Y0267563D01*
X0060215Y0263815D01*
G37*
G36*
X0062224Y0262700D02*
X0061634Y0263722D01*
X0065382Y0265886D01*
X0065972Y0264864D01*
X0062224Y0262700D01*
G37*
G36*
X0063504Y0260484D02*
X0062914Y0261506D01*
X0066662Y0263670D01*
X0067252Y0262648D01*
X0063504Y0260484D01*
G37*
G36*
X0064783Y0258268D02*
X0064193Y0259290D01*
X0067941Y0261454D01*
X0068531Y0260432D01*
X0064783Y0258268D01*
G37*
G36*
X0066063Y0256052D02*
X0065473Y0257074D01*
X0069221Y0259238D01*
X0069811Y0258216D01*
X0066063Y0256052D01*
G37*
G36*
X0067342Y0253836D02*
X0066752Y0254858D01*
X0070500Y0257022D01*
X0071090Y0256000D01*
X0067342Y0253836D01*
G37*
G36*
X0065690Y0251970D02*
X0066712Y0252560D01*
X0068876Y0248812D01*
X0067854Y0248222D01*
X0065690Y0251970D01*
G37*
G36*
X0063474Y0250691D02*
X0064496Y0251281D01*
X0066660Y0247533D01*
X0065638Y0246943D01*
X0063474Y0250691D01*
G37*
G36*
X0061258Y0249411D02*
X0062280Y0250001D01*
X0064444Y0246253D01*
X0063422Y0245663D01*
X0061258Y0249411D01*
G37*
G36*
X0059042Y0248132D02*
X0060064Y0248722D01*
X0062228Y0244974D01*
X0061206Y0244384D01*
X0059042Y0248132D01*
G37*
G36*
X0102248Y0254858D02*
X0101658Y0253836D01*
X0097910Y0256000D01*
X0098500Y0257022D01*
X0102248Y0254858D01*
G37*
G36*
X0103527Y0257074D02*
X0102937Y0256052D01*
X0099189Y0258216D01*
X0099779Y0259238D01*
X0103527Y0257074D01*
G37*
G36*
X0104807Y0259290D02*
X0104217Y0258268D01*
X0100469Y0260432D01*
X0101059Y0261454D01*
X0104807Y0259290D01*
G37*
G36*
X0106086Y0261506D02*
X0105496Y0260484D01*
X0101748Y0262648D01*
X0102338Y0263670D01*
X0106086Y0261506D01*
G37*
G36*
X0107366Y0263722D02*
X0106776Y0262700D01*
X0103028Y0264864D01*
X0103618Y0265886D01*
X0107366Y0263722D01*
G37*
G36*
X0109807Y0263225D02*
X0108785Y0263815D01*
X0110949Y0267563D01*
X0111971Y0266973D01*
X0109807Y0263225D01*
G37*
G36*
X0112023Y0261945D02*
X0111001Y0262535D01*
X0113165Y0266283D01*
X0114187Y0265693D01*
X0112023Y0261945D01*
G37*
G36*
X0114240Y0260665D02*
X0113218Y0261255D01*
X0115382Y0265003D01*
X0116404Y0264413D01*
X0114240Y0260665D01*
G37*
G36*
X0116456Y0259386D02*
X0115434Y0259976D01*
X0117598Y0263724D01*
X0118620Y0263134D01*
X0116456Y0259386D01*
G37*
G36*
X0118672Y0258106D02*
X0117650Y0258696D01*
X0119814Y0262444D01*
X0120836Y0261854D01*
X0118672Y0258106D01*
G37*
G36*
X0118371Y0256006D02*
X0118961Y0257028D01*
X0122709Y0254864D01*
X0122119Y0253842D01*
X0118371Y0256006D01*
G37*
G36*
X0117091Y0253790D02*
X0117681Y0254812D01*
X0121429Y0252648D01*
X0120839Y0251626D01*
X0117091Y0253790D01*
G37*
G36*
X0115812Y0251574D02*
X0116402Y0252596D01*
X0120150Y0250432D01*
X0119560Y0249410D01*
X0115812Y0251574D01*
G37*
G36*
X0114532Y0249358D02*
X0115122Y0250380D01*
X0118870Y0248216D01*
X0118280Y0247194D01*
X0114532Y0249358D01*
G37*
G36*
X0113253Y0247141D02*
X0113843Y0248163D01*
X0117591Y0245999D01*
X0117001Y0244977D01*
X0113253Y0247141D01*
G37*
G36*
X0111153Y0247442D02*
X0112175Y0246852D01*
X0110011Y0243104D01*
X0108989Y0243694D01*
X0111153Y0247442D01*
G37*
G36*
X0108936Y0248722D02*
X0109958Y0248132D01*
X0107794Y0244384D01*
X0106772Y0244974D01*
X0108936Y0248722D01*
G37*
G36*
X0106720Y0250001D02*
X0107742Y0249411D01*
X0105578Y0245663D01*
X0104556Y0246253D01*
X0106720Y0250001D01*
G37*
G36*
X0104504Y0251281D02*
X0105526Y0250691D01*
X0103362Y0246943D01*
X0102340Y0247533D01*
X0104504Y0251281D01*
G37*
G36*
X0102288Y0252561D02*
X0103310Y0251971D01*
X0101146Y0248223D01*
X0100124Y0248813D01*
X0102288Y0252561D01*
G37*
X0089618Y0291672D03*
X0087059Y0291672D03*
X0084500Y0291672D03*
X0081941Y0291672D03*
X0079382Y0291672D03*
X0079382Y0308995D03*
X0081941Y0308995D03*
X0084500Y0308995D03*
X0087059Y0308995D03*
X0089618Y0308995D03*
G36*
X0192039Y0257028D02*
X0192629Y0256006D01*
X0188881Y0253842D01*
X0188291Y0254864D01*
X0192039Y0257028D01*
G37*
G36*
X0193350Y0258696D02*
X0192328Y0258106D01*
X0190164Y0261854D01*
X0191186Y0262444D01*
X0193350Y0258696D01*
G37*
G36*
X0195566Y0259976D02*
X0194544Y0259386D01*
X0192380Y0263134D01*
X0193402Y0263724D01*
X0195566Y0259976D01*
G37*
G36*
X0197782Y0261255D02*
X0196760Y0260665D01*
X0194596Y0264413D01*
X0195618Y0265003D01*
X0197782Y0261255D01*
G37*
G36*
X0199999Y0262535D02*
X0198977Y0261945D01*
X0196813Y0265693D01*
X0197835Y0266283D01*
X0199999Y0262535D01*
G37*
G36*
X0202215Y0263815D02*
X0201193Y0263225D01*
X0199029Y0266973D01*
X0200051Y0267563D01*
X0202215Y0263815D01*
G37*
G36*
X0204224Y0262700D02*
X0203634Y0263722D01*
X0207382Y0265886D01*
X0207972Y0264864D01*
X0204224Y0262700D01*
G37*
G36*
X0205504Y0260484D02*
X0204914Y0261506D01*
X0208662Y0263670D01*
X0209252Y0262648D01*
X0205504Y0260484D01*
G37*
G36*
X0206783Y0258268D02*
X0206193Y0259290D01*
X0209941Y0261454D01*
X0210531Y0260432D01*
X0206783Y0258268D01*
G37*
G36*
X0208063Y0256052D02*
X0207473Y0257074D01*
X0211221Y0259238D01*
X0211811Y0258216D01*
X0208063Y0256052D01*
G37*
G36*
X0209342Y0253836D02*
X0208752Y0254858D01*
X0212500Y0257022D01*
X0213090Y0256000D01*
X0209342Y0253836D01*
G37*
G36*
X0207690Y0251970D02*
X0208712Y0252560D01*
X0210876Y0248812D01*
X0209854Y0248222D01*
X0207690Y0251970D01*
G37*
G36*
X0205474Y0250691D02*
X0206496Y0251281D01*
X0208660Y0247533D01*
X0207638Y0246943D01*
X0205474Y0250691D01*
G37*
G36*
X0203258Y0249411D02*
X0204280Y0250001D01*
X0206444Y0246253D01*
X0205422Y0245663D01*
X0203258Y0249411D01*
G37*
G36*
X0201042Y0248132D02*
X0202064Y0248722D01*
X0204228Y0244974D01*
X0203206Y0244384D01*
X0201042Y0248132D01*
G37*
G36*
X0198825Y0246852D02*
X0199847Y0247442D01*
X0202011Y0243694D01*
X0200989Y0243104D01*
X0198825Y0246852D01*
G37*
G36*
X0197157Y0248163D02*
X0197747Y0247141D01*
X0193999Y0244977D01*
X0193409Y0245999D01*
X0197157Y0248163D01*
G37*
G36*
X0195878Y0250380D02*
X0196468Y0249358D01*
X0192720Y0247194D01*
X0192130Y0248216D01*
X0195878Y0250380D01*
G37*
G36*
X0194598Y0252596D02*
X0195188Y0251574D01*
X0191440Y0249410D01*
X0190850Y0250432D01*
X0194598Y0252596D01*
G37*
G36*
X0193319Y0254812D02*
X0193909Y0253790D01*
X0190161Y0251626D01*
X0189571Y0252648D01*
X0193319Y0254812D01*
G37*
X0221382Y0291672D03*
X0223941Y0291672D03*
X0226500Y0291672D03*
X0229059Y0291672D03*
X0231618Y0291672D03*
X0231618Y0308995D03*
X0229059Y0308995D03*
X0226500Y0308995D03*
X0223941Y0308995D03*
X0221382Y0308995D03*
G36*
X0249366Y0263722D02*
X0248776Y0262700D01*
X0245028Y0264864D01*
X0245618Y0265886D01*
X0249366Y0263722D01*
G37*
G36*
X0251807Y0263225D02*
X0250785Y0263815D01*
X0252949Y0267563D01*
X0253971Y0266973D01*
X0251807Y0263225D01*
G37*
G36*
X0254023Y0261945D02*
X0253001Y0262535D01*
X0255165Y0266283D01*
X0256187Y0265693D01*
X0254023Y0261945D01*
G37*
G36*
X0256240Y0260665D02*
X0255218Y0261255D01*
X0257382Y0265003D01*
X0258404Y0264413D01*
X0256240Y0260665D01*
G37*
G36*
X0258456Y0259386D02*
X0257434Y0259976D01*
X0259598Y0263724D01*
X0260620Y0263134D01*
X0258456Y0259386D01*
G37*
G36*
X0260672Y0258106D02*
X0259650Y0258696D01*
X0261814Y0262444D01*
X0262836Y0261854D01*
X0260672Y0258106D01*
G37*
G36*
X0260371Y0256006D02*
X0260961Y0257028D01*
X0264709Y0254864D01*
X0264119Y0253842D01*
X0260371Y0256006D01*
G37*
G36*
X0259091Y0253790D02*
X0259681Y0254812D01*
X0263429Y0252648D01*
X0262839Y0251626D01*
X0259091Y0253790D01*
G37*
G36*
X0257812Y0251574D02*
X0258402Y0252596D01*
X0262150Y0250432D01*
X0261560Y0249410D01*
X0257812Y0251574D01*
G37*
G36*
X0256532Y0249358D02*
X0257122Y0250380D01*
X0260870Y0248216D01*
X0260280Y0247194D01*
X0256532Y0249358D01*
G37*
G36*
X0255253Y0247141D02*
X0255843Y0248163D01*
X0259591Y0245999D01*
X0259001Y0244977D01*
X0255253Y0247141D01*
G37*
G36*
X0253153Y0247442D02*
X0254175Y0246852D01*
X0252011Y0243104D01*
X0250989Y0243694D01*
X0253153Y0247442D01*
G37*
G36*
X0250936Y0248722D02*
X0251958Y0248132D01*
X0249794Y0244384D01*
X0248772Y0244974D01*
X0250936Y0248722D01*
G37*
G36*
X0248720Y0250001D02*
X0249742Y0249411D01*
X0247578Y0245663D01*
X0246556Y0246253D01*
X0248720Y0250001D01*
G37*
G36*
X0246504Y0251281D02*
X0247526Y0250691D01*
X0245362Y0246943D01*
X0244340Y0247533D01*
X0246504Y0251281D01*
G37*
G36*
X0244288Y0252561D02*
X0245310Y0251971D01*
X0243146Y0248223D01*
X0242124Y0248813D01*
X0244288Y0252561D01*
G37*
G36*
X0244248Y0254858D02*
X0243658Y0253836D01*
X0239910Y0256000D01*
X0240500Y0257022D01*
X0244248Y0254858D01*
G37*
G36*
X0245527Y0257074D02*
X0244937Y0256052D01*
X0241189Y0258216D01*
X0241779Y0259238D01*
X0245527Y0257074D01*
G37*
G36*
X0246807Y0259290D02*
X0246217Y0258268D01*
X0242469Y0260432D01*
X0243059Y0261454D01*
X0246807Y0259290D01*
G37*
G36*
X0248086Y0261506D02*
X0247496Y0260484D01*
X0243748Y0262648D01*
X0244338Y0263670D01*
X0248086Y0261506D01*
G37*
G36*
X0334039Y0257028D02*
X0334629Y0256006D01*
X0330881Y0253842D01*
X0330291Y0254864D01*
X0334039Y0257028D01*
G37*
G36*
X0335350Y0258696D02*
X0334328Y0258106D01*
X0332164Y0261854D01*
X0333186Y0262444D01*
X0335350Y0258696D01*
G37*
G36*
X0337566Y0259976D02*
X0336544Y0259386D01*
X0334380Y0263134D01*
X0335402Y0263724D01*
X0337566Y0259976D01*
G37*
G36*
X0339782Y0261255D02*
X0338760Y0260665D01*
X0336596Y0264413D01*
X0337618Y0265003D01*
X0339782Y0261255D01*
G37*
G36*
X0341999Y0262535D02*
X0340977Y0261945D01*
X0338813Y0265693D01*
X0339835Y0266283D01*
X0341999Y0262535D01*
G37*
G36*
X0344215Y0263815D02*
X0343193Y0263225D01*
X0341029Y0266973D01*
X0342051Y0267563D01*
X0344215Y0263815D01*
G37*
G36*
X0346224Y0262700D02*
X0345634Y0263722D01*
X0349382Y0265886D01*
X0349972Y0264864D01*
X0346224Y0262700D01*
G37*
G36*
X0347504Y0260484D02*
X0346914Y0261506D01*
X0350662Y0263670D01*
X0351252Y0262648D01*
X0347504Y0260484D01*
G37*
G36*
X0348783Y0258268D02*
X0348193Y0259290D01*
X0351941Y0261454D01*
X0352531Y0260432D01*
X0348783Y0258268D01*
G37*
G36*
X0350063Y0256052D02*
X0349473Y0257074D01*
X0353221Y0259238D01*
X0353811Y0258216D01*
X0350063Y0256052D01*
G37*
G36*
X0351342Y0253836D02*
X0350752Y0254858D01*
X0354500Y0257022D01*
X0355090Y0256000D01*
X0351342Y0253836D01*
G37*
G36*
X0349690Y0251970D02*
X0350712Y0252560D01*
X0352876Y0248812D01*
X0351854Y0248222D01*
X0349690Y0251970D01*
G37*
G36*
X0347474Y0250691D02*
X0348496Y0251281D01*
X0350660Y0247533D01*
X0349638Y0246943D01*
X0347474Y0250691D01*
G37*
G36*
X0345258Y0249411D02*
X0346280Y0250001D01*
X0348444Y0246253D01*
X0347422Y0245663D01*
X0345258Y0249411D01*
G37*
G36*
X0343042Y0248132D02*
X0344064Y0248722D01*
X0346228Y0244974D01*
X0345206Y0244384D01*
X0343042Y0248132D01*
G37*
G36*
X0340825Y0246852D02*
X0341847Y0247442D01*
X0344011Y0243694D01*
X0342989Y0243104D01*
X0340825Y0246852D01*
G37*
G36*
X0339157Y0248163D02*
X0339747Y0247141D01*
X0335999Y0244977D01*
X0335409Y0245999D01*
X0339157Y0248163D01*
G37*
G36*
X0337878Y0250380D02*
X0338468Y0249358D01*
X0334720Y0247194D01*
X0334130Y0248216D01*
X0337878Y0250380D01*
G37*
G36*
X0336598Y0252596D02*
X0337188Y0251574D01*
X0333440Y0249410D01*
X0332850Y0250432D01*
X0336598Y0252596D01*
G37*
G36*
X0335319Y0254812D02*
X0335909Y0253790D01*
X0332161Y0251626D01*
X0331571Y0252648D01*
X0335319Y0254812D01*
G37*
X0363382Y0291672D03*
X0365941Y0291672D03*
X0368500Y0291672D03*
X0371059Y0291672D03*
X0373618Y0291672D03*
X0373618Y0308995D03*
X0371059Y0308995D03*
X0368500Y0308995D03*
X0365941Y0308995D03*
X0363382Y0308995D03*
G36*
X0391366Y0263722D02*
X0390776Y0262700D01*
X0387028Y0264864D01*
X0387618Y0265886D01*
X0391366Y0263722D01*
G37*
G36*
X0393807Y0263225D02*
X0392785Y0263815D01*
X0394949Y0267563D01*
X0395971Y0266973D01*
X0393807Y0263225D01*
G37*
G36*
X0396023Y0261945D02*
X0395001Y0262535D01*
X0397165Y0266283D01*
X0398187Y0265693D01*
X0396023Y0261945D01*
G37*
G36*
X0398240Y0260665D02*
X0397218Y0261255D01*
X0399382Y0265003D01*
X0400404Y0264413D01*
X0398240Y0260665D01*
G37*
G36*
X0400456Y0259386D02*
X0399434Y0259976D01*
X0401598Y0263724D01*
X0402620Y0263134D01*
X0400456Y0259386D01*
G37*
G36*
X0402672Y0258106D02*
X0401650Y0258696D01*
X0403814Y0262444D01*
X0404836Y0261854D01*
X0402672Y0258106D01*
G37*
G36*
X0402371Y0256006D02*
X0402961Y0257028D01*
X0406709Y0254864D01*
X0406119Y0253842D01*
X0402371Y0256006D01*
G37*
G36*
X0401091Y0253790D02*
X0401681Y0254812D01*
X0405429Y0252648D01*
X0404839Y0251626D01*
X0401091Y0253790D01*
G37*
G36*
X0399812Y0251574D02*
X0400402Y0252596D01*
X0404150Y0250432D01*
X0403560Y0249410D01*
X0399812Y0251574D01*
G37*
G36*
X0398532Y0249358D02*
X0399122Y0250380D01*
X0402870Y0248216D01*
X0402280Y0247194D01*
X0398532Y0249358D01*
G37*
G36*
X0397253Y0247141D02*
X0397843Y0248163D01*
X0401591Y0245999D01*
X0401001Y0244977D01*
X0397253Y0247141D01*
G37*
G36*
X0395153Y0247442D02*
X0396175Y0246852D01*
X0394011Y0243104D01*
X0392989Y0243694D01*
X0395153Y0247442D01*
G37*
G36*
X0392936Y0248722D02*
X0393958Y0248132D01*
X0391794Y0244384D01*
X0390772Y0244974D01*
X0392936Y0248722D01*
G37*
G36*
X0390720Y0250001D02*
X0391742Y0249411D01*
X0389578Y0245663D01*
X0388556Y0246253D01*
X0390720Y0250001D01*
G37*
G36*
X0388504Y0251281D02*
X0389526Y0250691D01*
X0387362Y0246943D01*
X0386340Y0247533D01*
X0388504Y0251281D01*
G37*
G36*
X0386288Y0252561D02*
X0387310Y0251971D01*
X0385146Y0248223D01*
X0384124Y0248813D01*
X0386288Y0252561D01*
G37*
G36*
X0386248Y0254858D02*
X0385658Y0253836D01*
X0381910Y0256000D01*
X0382500Y0257022D01*
X0386248Y0254858D01*
G37*
G36*
X0387527Y0257074D02*
X0386937Y0256052D01*
X0383189Y0258216D01*
X0383779Y0259238D01*
X0387527Y0257074D01*
G37*
G36*
X0388807Y0259290D02*
X0388217Y0258268D01*
X0384469Y0260432D01*
X0385059Y0261454D01*
X0388807Y0259290D01*
G37*
G36*
X0390086Y0261506D02*
X0389496Y0260484D01*
X0385748Y0262648D01*
X0386338Y0263670D01*
X0390086Y0261506D01*
G37*
D13*
X0377555Y0295215D03*
X0377555Y0297774D03*
X0377555Y0300333D03*
X0377555Y0302892D03*
X0377555Y0305451D03*
X0359839Y0305451D03*
X0359839Y0302892D03*
X0359839Y0300333D03*
X0359839Y0297774D03*
X0359839Y0295215D03*
X0235555Y0295215D03*
X0235555Y0297774D03*
X0235555Y0300333D03*
X0235555Y0302892D03*
X0235555Y0305451D03*
X0217839Y0305451D03*
X0217839Y0302892D03*
X0217839Y0300333D03*
X0217839Y0297774D03*
X0217839Y0295215D03*
X0093555Y0295215D03*
X0093555Y0297774D03*
X0093555Y0300333D03*
X0093555Y0302892D03*
X0093555Y0305451D03*
X0075839Y0305451D03*
X0075839Y0302892D03*
X0075839Y0300333D03*
X0075839Y0297774D03*
X0075839Y0295215D03*
X0075839Y0143451D03*
X0075839Y0140892D03*
X0075839Y0138333D03*
X0075839Y0135774D03*
X0075839Y0133215D03*
X0093555Y0133215D03*
X0093555Y0135774D03*
X0093555Y0138333D03*
X0093555Y0140892D03*
X0093555Y0143451D03*
X0217839Y0143451D03*
X0217839Y0140892D03*
X0217839Y0138333D03*
X0217839Y0135774D03*
X0217839Y0133215D03*
X0235555Y0133215D03*
X0235555Y0135774D03*
X0235555Y0138333D03*
X0235555Y0140892D03*
X0235555Y0143451D03*
X0359839Y0143451D03*
X0359839Y0140892D03*
X0359839Y0138333D03*
X0359839Y0135774D03*
X0359839Y0133215D03*
X0377555Y0133215D03*
X0377555Y0135774D03*
X0377555Y0138333D03*
X0377555Y0140892D03*
X0377555Y0143451D03*
D14*
X0386500Y0141680D03*
X0386500Y0134987D03*
X0393500Y0134987D03*
X0393500Y0141680D03*
X0388500Y0164987D03*
X0388500Y0171680D03*
X0350500Y0141680D03*
X0350500Y0134987D03*
X0348500Y0164987D03*
X0348500Y0171680D03*
X0338500Y0171680D03*
X0338500Y0164987D03*
X0313500Y0164987D03*
X0313500Y0171680D03*
X0251500Y0141680D03*
X0251500Y0134987D03*
X0244500Y0134987D03*
X0244500Y0141680D03*
X0246500Y0164987D03*
X0246500Y0171680D03*
X0206500Y0171680D03*
X0206500Y0164987D03*
X0196500Y0164987D03*
X0196500Y0171680D03*
X0171500Y0171680D03*
X0171500Y0164987D03*
X0208500Y0141680D03*
X0208500Y0134987D03*
X0109500Y0134987D03*
X0109500Y0141680D03*
X0102500Y0141680D03*
X0102500Y0134987D03*
X0104500Y0164987D03*
X0104500Y0171680D03*
X0064500Y0171680D03*
X0064500Y0164987D03*
X0054500Y0164987D03*
X0054500Y0171680D03*
X0029500Y0171680D03*
X0029500Y0164987D03*
X0066500Y0141680D03*
X0066500Y0134987D03*
X0066500Y0296987D03*
X0066500Y0303680D03*
X0064500Y0326987D03*
X0064500Y0333680D03*
X0054500Y0333680D03*
X0054500Y0326987D03*
X0029500Y0326987D03*
X0029500Y0333680D03*
X0102500Y0303680D03*
X0102500Y0296987D03*
X0109500Y0296987D03*
X0109500Y0303680D03*
X0104500Y0326987D03*
X0104500Y0333680D03*
X0171500Y0333680D03*
X0171500Y0326987D03*
X0196500Y0326987D03*
X0196500Y0333680D03*
X0206500Y0333680D03*
X0206500Y0326987D03*
X0208500Y0303680D03*
X0208500Y0296987D03*
X0244500Y0296987D03*
X0251500Y0296987D03*
X0251500Y0303680D03*
X0244500Y0303680D03*
X0246500Y0326987D03*
X0246500Y0333680D03*
X0313500Y0333680D03*
X0313500Y0326987D03*
X0338500Y0326987D03*
X0338500Y0333680D03*
X0348500Y0333680D03*
X0348500Y0326987D03*
X0350500Y0303680D03*
X0350500Y0296987D03*
X0386500Y0296987D03*
X0386500Y0303680D03*
X0393500Y0303680D03*
X0393500Y0296987D03*
X0388500Y0326987D03*
X0388500Y0333680D03*
D15*
X0379524Y0332833D03*
X0379524Y0327833D03*
X0379524Y0322833D03*
X0379524Y0337833D03*
X0357476Y0337833D03*
X0357476Y0332833D03*
X0357476Y0327833D03*
X0357476Y0322833D03*
X0237524Y0322833D03*
X0237524Y0327833D03*
X0237524Y0332833D03*
X0237524Y0337833D03*
X0215476Y0337833D03*
X0215476Y0332833D03*
X0215476Y0327833D03*
X0215476Y0322833D03*
X0095524Y0322833D03*
X0095524Y0327833D03*
X0095524Y0332833D03*
X0095524Y0337833D03*
X0073476Y0337833D03*
X0073476Y0332833D03*
X0073476Y0327833D03*
X0073476Y0322833D03*
X0073476Y0175833D03*
X0073476Y0170833D03*
X0073476Y0165833D03*
X0073476Y0160833D03*
X0095524Y0160833D03*
X0095524Y0165833D03*
X0095524Y0170833D03*
X0095524Y0175833D03*
X0215476Y0175833D03*
X0215476Y0170833D03*
X0215476Y0165833D03*
X0215476Y0160833D03*
X0237524Y0160833D03*
X0237524Y0165833D03*
X0237524Y0170833D03*
X0237524Y0175833D03*
X0357476Y0175833D03*
X0357476Y0170833D03*
X0357476Y0165833D03*
X0357476Y0160833D03*
X0379524Y0160833D03*
X0379524Y0165833D03*
X0379524Y0170833D03*
X0379524Y0175833D03*
D16*
X0432968Y0119357D03*
X0432968Y0097310D03*
X0304032Y0097310D03*
X0290968Y0097310D03*
X0290968Y0119357D03*
X0304032Y0119357D03*
X0162032Y0119357D03*
X0148968Y0119357D03*
X0148968Y0097310D03*
X0162032Y0097310D03*
X0020032Y0097310D03*
X0020032Y0119357D03*
X0020032Y0259310D03*
X0020032Y0281357D03*
X0148968Y0281357D03*
X0162032Y0281357D03*
X0162032Y0259310D03*
X0148968Y0259310D03*
X0290968Y0259310D03*
X0304032Y0259310D03*
X0304032Y0281357D03*
X0290968Y0281357D03*
X0432968Y0281357D03*
X0432968Y0259310D03*
D17*
X0418500Y0264428D03*
X0418500Y0268365D03*
X0418500Y0272302D03*
X0418500Y0276239D03*
X0318500Y0276239D03*
X0318500Y0272302D03*
X0318500Y0268365D03*
X0318500Y0264428D03*
X0276500Y0264428D03*
X0276500Y0268365D03*
X0276500Y0272302D03*
X0276500Y0276239D03*
X0176500Y0276239D03*
X0176500Y0272302D03*
X0176500Y0268365D03*
X0176500Y0264428D03*
X0134500Y0264428D03*
X0134500Y0268365D03*
X0134500Y0272302D03*
X0134500Y0276239D03*
X0034500Y0276239D03*
X0034500Y0272302D03*
X0034500Y0268365D03*
X0034500Y0264428D03*
X0034500Y0114239D03*
X0034500Y0110302D03*
X0034500Y0106365D03*
X0034500Y0102428D03*
X0134500Y0102428D03*
X0134500Y0106365D03*
X0134500Y0110302D03*
X0134500Y0114239D03*
X0176500Y0114239D03*
X0176500Y0110302D03*
X0176500Y0106365D03*
X0176500Y0102428D03*
X0276500Y0102428D03*
X0276500Y0106365D03*
X0276500Y0110302D03*
X0276500Y0114239D03*
X0318500Y0114239D03*
X0318500Y0110302D03*
X0318500Y0106365D03*
X0318500Y0102428D03*
X0418500Y0102428D03*
X0418500Y0106365D03*
X0418500Y0110302D03*
X0418500Y0114239D03*
D18*
X0396710Y0122225D02*
X0394324Y0120847D01*
X0396710Y0122225D02*
X0398088Y0119839D01*
X0395702Y0118461D01*
X0394324Y0120847D01*
X0395021Y0119641D02*
X0397745Y0119641D01*
X0397521Y0120821D02*
X0394339Y0120821D01*
X0396322Y0122001D02*
X0396839Y0122001D01*
X0393257Y0128205D02*
X0390871Y0126827D01*
X0393257Y0128205D02*
X0394635Y0125819D01*
X0392249Y0124441D01*
X0390871Y0126827D01*
X0391568Y0125621D02*
X0394292Y0125621D01*
X0394068Y0126801D02*
X0390886Y0126801D01*
X0392869Y0127981D02*
X0393386Y0127981D01*
X0398669Y0151955D02*
X0398669Y0154711D01*
X0401425Y0154711D01*
X0401425Y0151955D01*
X0398669Y0151955D01*
X0398669Y0153135D02*
X0401425Y0153135D01*
X0401425Y0154315D02*
X0398669Y0154315D01*
X0405575Y0154711D02*
X0405575Y0151955D01*
X0405575Y0154711D02*
X0408331Y0154711D01*
X0408331Y0151955D01*
X0405575Y0151955D01*
X0405575Y0153135D02*
X0408331Y0153135D01*
X0408331Y0154315D02*
X0405575Y0154315D01*
X0338331Y0154711D02*
X0338331Y0151955D01*
X0335575Y0151955D01*
X0335575Y0154711D01*
X0338331Y0154711D01*
X0338331Y0153135D02*
X0335575Y0153135D01*
X0335575Y0154315D02*
X0338331Y0154315D01*
X0331425Y0154711D02*
X0331425Y0151955D01*
X0328669Y0151955D01*
X0328669Y0154711D01*
X0331425Y0154711D01*
X0331425Y0153135D02*
X0328669Y0153135D01*
X0328669Y0154315D02*
X0331425Y0154315D01*
X0263575Y0154711D02*
X0263575Y0151955D01*
X0263575Y0154711D02*
X0266331Y0154711D01*
X0266331Y0151955D01*
X0263575Y0151955D01*
X0263575Y0153135D02*
X0266331Y0153135D01*
X0266331Y0154315D02*
X0263575Y0154315D01*
X0256669Y0154711D02*
X0256669Y0151955D01*
X0256669Y0154711D02*
X0259425Y0154711D01*
X0259425Y0151955D01*
X0256669Y0151955D01*
X0256669Y0153135D02*
X0259425Y0153135D01*
X0259425Y0154315D02*
X0256669Y0154315D01*
X0251257Y0128205D02*
X0248871Y0126827D01*
X0251257Y0128205D02*
X0252635Y0125819D01*
X0250249Y0124441D01*
X0248871Y0126827D01*
X0249568Y0125621D02*
X0252292Y0125621D01*
X0252068Y0126801D02*
X0248886Y0126801D01*
X0250869Y0127981D02*
X0251386Y0127981D01*
X0254710Y0122225D02*
X0252324Y0120847D01*
X0254710Y0122225D02*
X0256088Y0119839D01*
X0253702Y0118461D01*
X0252324Y0120847D01*
X0253021Y0119641D02*
X0255745Y0119641D01*
X0255521Y0120821D02*
X0252339Y0120821D01*
X0254322Y0122001D02*
X0254839Y0122001D01*
X0196331Y0151955D02*
X0196331Y0154711D01*
X0196331Y0151955D02*
X0193575Y0151955D01*
X0193575Y0154711D01*
X0196331Y0154711D01*
X0196331Y0153135D02*
X0193575Y0153135D01*
X0193575Y0154315D02*
X0196331Y0154315D01*
X0189425Y0154711D02*
X0189425Y0151955D01*
X0186669Y0151955D01*
X0186669Y0154711D01*
X0189425Y0154711D01*
X0189425Y0153135D02*
X0186669Y0153135D01*
X0186669Y0154315D02*
X0189425Y0154315D01*
X0121575Y0154711D02*
X0121575Y0151955D01*
X0121575Y0154711D02*
X0124331Y0154711D01*
X0124331Y0151955D01*
X0121575Y0151955D01*
X0121575Y0153135D02*
X0124331Y0153135D01*
X0124331Y0154315D02*
X0121575Y0154315D01*
X0114669Y0154711D02*
X0114669Y0151955D01*
X0114669Y0154711D02*
X0117425Y0154711D01*
X0117425Y0151955D01*
X0114669Y0151955D01*
X0114669Y0153135D02*
X0117425Y0153135D01*
X0117425Y0154315D02*
X0114669Y0154315D01*
X0109257Y0128205D02*
X0106871Y0126827D01*
X0109257Y0128205D02*
X0110635Y0125819D01*
X0108249Y0124441D01*
X0106871Y0126827D01*
X0107568Y0125621D02*
X0110292Y0125621D01*
X0110068Y0126801D02*
X0106886Y0126801D01*
X0108869Y0127981D02*
X0109386Y0127981D01*
X0112710Y0122225D02*
X0110324Y0120847D01*
X0112710Y0122225D02*
X0114088Y0119839D01*
X0111702Y0118461D01*
X0110324Y0120847D01*
X0111021Y0119641D02*
X0113745Y0119641D01*
X0113521Y0120821D02*
X0110339Y0120821D01*
X0112322Y0122001D02*
X0112839Y0122001D01*
X0054331Y0151955D02*
X0054331Y0154711D01*
X0054331Y0151955D02*
X0051575Y0151955D01*
X0051575Y0154711D01*
X0054331Y0154711D01*
X0054331Y0153135D02*
X0051575Y0153135D01*
X0051575Y0154315D02*
X0054331Y0154315D01*
X0047425Y0154711D02*
X0047425Y0151955D01*
X0044669Y0151955D01*
X0044669Y0154711D01*
X0047425Y0154711D01*
X0047425Y0153135D02*
X0044669Y0153135D01*
X0044669Y0154315D02*
X0047425Y0154315D01*
X0110324Y0282847D02*
X0112710Y0284225D01*
X0114088Y0281839D01*
X0111702Y0280461D01*
X0110324Y0282847D01*
X0111021Y0281641D02*
X0113745Y0281641D01*
X0113521Y0282821D02*
X0110339Y0282821D01*
X0112322Y0284001D02*
X0112839Y0284001D01*
X0109257Y0290205D02*
X0106871Y0288827D01*
X0109257Y0290205D02*
X0110635Y0287819D01*
X0108249Y0286441D01*
X0106871Y0288827D01*
X0107568Y0287621D02*
X0110292Y0287621D01*
X0110068Y0288801D02*
X0106886Y0288801D01*
X0108869Y0289981D02*
X0109386Y0289981D01*
X0114669Y0313955D02*
X0114669Y0316711D01*
X0117425Y0316711D01*
X0117425Y0313955D01*
X0114669Y0313955D01*
X0114669Y0315135D02*
X0117425Y0315135D01*
X0117425Y0316315D02*
X0114669Y0316315D01*
X0121575Y0316711D02*
X0121575Y0313955D01*
X0121575Y0316711D02*
X0124331Y0316711D01*
X0124331Y0313955D01*
X0121575Y0313955D01*
X0121575Y0315135D02*
X0124331Y0315135D01*
X0124331Y0316315D02*
X0121575Y0316315D01*
X0189425Y0316711D02*
X0189425Y0313955D01*
X0186669Y0313955D01*
X0186669Y0316711D01*
X0189425Y0316711D01*
X0189425Y0315135D02*
X0186669Y0315135D01*
X0186669Y0316315D02*
X0189425Y0316315D01*
X0196331Y0316711D02*
X0196331Y0313955D01*
X0193575Y0313955D01*
X0193575Y0316711D01*
X0196331Y0316711D01*
X0196331Y0315135D02*
X0193575Y0315135D01*
X0193575Y0316315D02*
X0196331Y0316315D01*
X0248871Y0288827D02*
X0251257Y0290205D01*
X0252635Y0287819D01*
X0250249Y0286441D01*
X0248871Y0288827D01*
X0249568Y0287621D02*
X0252292Y0287621D01*
X0252068Y0288801D02*
X0248886Y0288801D01*
X0250869Y0289981D02*
X0251386Y0289981D01*
X0254710Y0284225D02*
X0252324Y0282847D01*
X0254710Y0284225D02*
X0256088Y0281839D01*
X0253702Y0280461D01*
X0252324Y0282847D01*
X0253021Y0281641D02*
X0255745Y0281641D01*
X0255521Y0282821D02*
X0252339Y0282821D01*
X0254322Y0284001D02*
X0254839Y0284001D01*
X0256669Y0313955D02*
X0256669Y0316711D01*
X0259425Y0316711D01*
X0259425Y0313955D01*
X0256669Y0313955D01*
X0256669Y0315135D02*
X0259425Y0315135D01*
X0259425Y0316315D02*
X0256669Y0316315D01*
X0263575Y0316711D02*
X0263575Y0313955D01*
X0263575Y0316711D02*
X0266331Y0316711D01*
X0266331Y0313955D01*
X0263575Y0313955D01*
X0263575Y0315135D02*
X0266331Y0315135D01*
X0266331Y0316315D02*
X0263575Y0316315D01*
X0331425Y0316711D02*
X0331425Y0313955D01*
X0328669Y0313955D01*
X0328669Y0316711D01*
X0331425Y0316711D01*
X0331425Y0315135D02*
X0328669Y0315135D01*
X0328669Y0316315D02*
X0331425Y0316315D01*
X0338331Y0316711D02*
X0338331Y0313955D01*
X0335575Y0313955D01*
X0335575Y0316711D01*
X0338331Y0316711D01*
X0338331Y0315135D02*
X0335575Y0315135D01*
X0335575Y0316315D02*
X0338331Y0316315D01*
X0390871Y0288827D02*
X0393257Y0290205D01*
X0394635Y0287819D01*
X0392249Y0286441D01*
X0390871Y0288827D01*
X0391568Y0287621D02*
X0394292Y0287621D01*
X0394068Y0288801D02*
X0390886Y0288801D01*
X0392869Y0289981D02*
X0393386Y0289981D01*
X0396710Y0284225D02*
X0394324Y0282847D01*
X0396710Y0284225D02*
X0398088Y0281839D01*
X0395702Y0280461D01*
X0394324Y0282847D01*
X0395021Y0281641D02*
X0397745Y0281641D01*
X0397521Y0282821D02*
X0394339Y0282821D01*
X0396322Y0284001D02*
X0396839Y0284001D01*
X0398669Y0313955D02*
X0398669Y0316711D01*
X0401425Y0316711D01*
X0401425Y0313955D01*
X0398669Y0313955D01*
X0398669Y0315135D02*
X0401425Y0315135D01*
X0401425Y0316315D02*
X0398669Y0316315D01*
X0405575Y0316711D02*
X0405575Y0313955D01*
X0405575Y0316711D02*
X0408331Y0316711D01*
X0408331Y0313955D01*
X0405575Y0313955D01*
X0405575Y0315135D02*
X0408331Y0315135D01*
X0408331Y0316315D02*
X0405575Y0316315D01*
X0054331Y0316711D02*
X0054331Y0313955D01*
X0051575Y0313955D01*
X0051575Y0316711D01*
X0054331Y0316711D01*
X0054331Y0315135D02*
X0051575Y0315135D01*
X0051575Y0316315D02*
X0054331Y0316315D01*
X0047425Y0316711D02*
X0047425Y0313955D01*
X0044669Y0313955D01*
X0044669Y0316711D01*
X0047425Y0316711D01*
X0047425Y0315135D02*
X0044669Y0315135D01*
X0044669Y0316315D02*
X0047425Y0316315D01*
D19*
G36*
X0062692Y0290198D02*
X0061511Y0288153D01*
X0059466Y0289334D01*
X0060647Y0291379D01*
X0062692Y0290198D01*
G37*
G36*
X0060724Y0286788D02*
X0059543Y0284743D01*
X0057498Y0285924D01*
X0058679Y0287969D01*
X0060724Y0286788D01*
G37*
G36*
X0057771Y0281674D02*
X0056590Y0279629D01*
X0054545Y0280810D01*
X0055726Y0282855D01*
X0057771Y0281674D01*
G37*
G36*
X0199771Y0281674D02*
X0198590Y0279629D01*
X0196545Y0280810D01*
X0197726Y0282855D01*
X0199771Y0281674D01*
G37*
G36*
X0202724Y0286788D02*
X0201543Y0284743D01*
X0199498Y0285924D01*
X0200679Y0287969D01*
X0202724Y0286788D01*
G37*
G36*
X0204692Y0290198D02*
X0203511Y0288153D01*
X0201466Y0289334D01*
X0202647Y0291379D01*
X0204692Y0290198D01*
G37*
G36*
X0341771Y0281674D02*
X0340590Y0279629D01*
X0338545Y0280810D01*
X0339726Y0282855D01*
X0341771Y0281674D01*
G37*
G36*
X0344724Y0286788D02*
X0343543Y0284743D01*
X0341498Y0285924D01*
X0342679Y0287969D01*
X0344724Y0286788D01*
G37*
G36*
X0346692Y0290198D02*
X0345511Y0288153D01*
X0343466Y0289334D01*
X0344647Y0291379D01*
X0346692Y0290198D01*
G37*
G36*
X0346692Y0128198D02*
X0345511Y0126153D01*
X0343466Y0127334D01*
X0344647Y0129379D01*
X0346692Y0128198D01*
G37*
G36*
X0344724Y0124788D02*
X0343543Y0122743D01*
X0341498Y0123924D01*
X0342679Y0125969D01*
X0344724Y0124788D01*
G37*
G36*
X0341771Y0119674D02*
X0340590Y0117629D01*
X0338545Y0118810D01*
X0339726Y0120855D01*
X0341771Y0119674D01*
G37*
G36*
X0204692Y0128198D02*
X0203511Y0126153D01*
X0201466Y0127334D01*
X0202647Y0129379D01*
X0204692Y0128198D01*
G37*
G36*
X0202724Y0124788D02*
X0201543Y0122743D01*
X0199498Y0123924D01*
X0200679Y0125969D01*
X0202724Y0124788D01*
G37*
G36*
X0199771Y0119674D02*
X0198590Y0117629D01*
X0196545Y0118810D01*
X0197726Y0120855D01*
X0199771Y0119674D01*
G37*
G36*
X0062692Y0128198D02*
X0061511Y0126153D01*
X0059466Y0127334D01*
X0060647Y0129379D01*
X0062692Y0128198D01*
G37*
G36*
X0060724Y0124788D02*
X0059543Y0122743D01*
X0057498Y0123924D01*
X0058679Y0125969D01*
X0060724Y0124788D01*
G37*
G36*
X0057771Y0119674D02*
X0056590Y0117629D01*
X0054545Y0118810D01*
X0055726Y0120855D01*
X0057771Y0119674D01*
G37*
D20*
X0078890Y0078334D03*
X0090110Y0078334D03*
X0220890Y0078334D03*
X0232110Y0078334D03*
X0362890Y0078334D03*
X0374110Y0078334D03*
X0374110Y0240334D03*
X0362890Y0240334D03*
X0232110Y0240334D03*
X0220890Y0240334D03*
X0090110Y0240334D03*
X0078890Y0240334D03*
M02*
