%
M48
M72
T01C0.0120
T02C0.0150
T03C0.0200
T04C0.0320
T05C0.0400
T06C0.1300
%
T01
X5950Y7333
X5450Y7833
X7950Y8833
X9416Y8774
X10450Y10833
X11950Y11633
X12450Y11983
X13950Y14168
X12950Y15333
X12450Y14833
X13950Y15833
X17150Y15833
X19150Y16483
X19400Y16033
X20150Y16333
X20900Y16083
X21700Y15633
X21450Y15333
X21450Y14983
X20900Y14733
X20400Y13833
X21650Y11983
X21950Y11633
X22650Y11333
X22150Y10833
X20650Y11333
X20168Y11333
X19150Y11333
X18650Y11833
X18150Y10833
X17150Y10333
X16650Y10833
X14450Y8833
X13950Y8333
X13450Y9333
X12950Y9833
X12747Y9276
X9450Y12333
X9950Y12833
X9800Y13833
X10250Y14583
X10450Y15833
X8706Y15133
X8500Y15933
X7500Y15633
X7250Y15333
X7250Y14983
X6700Y14733
X6200Y13833
X7450Y11983
X7750Y11633
X8450Y11333
X7950Y10833
X6450Y11333
X5968Y11333
X4950Y11333
X4450Y11833
X3950Y10833
X2950Y10333
X2450Y10833
X2950Y15833
X4950Y16483
X5200Y16033
X5950Y16333
X6700Y16083
X6450Y17683
X7950Y17433
X5950Y23533
X5450Y24033
X7950Y25033
X9416Y24974
X10450Y27033
X11950Y27833
X12450Y28183
X12950Y26033
X12747Y25476
X13450Y25533
X13950Y24533
X14450Y25033
X16650Y27033
X17150Y26533
X18150Y27033
X19150Y27533
X18650Y28033
X20168Y27533
X20650Y27533
X21650Y28183
X21950Y27833
X22650Y27533
X22150Y27033
X23650Y28533
X24150Y29033
X24000Y30033
X24450Y30783
X24650Y32033
X22906Y31333
X22700Y32133
X21700Y31833
X21450Y31533
X21450Y31183
X20900Y30933
X20400Y30033
X20900Y32283
X20150Y32533
X19400Y32233
X19150Y32683
X20650Y33883
X22150Y33633
X26650Y31033
X27150Y31533
X28150Y32033
X28150Y30368
X26650Y28183
X26150Y27833
X24650Y27033
X23616Y24974
X22150Y25033
X20150Y23533
X19650Y24033
X20650Y17683
X22150Y17433
X22700Y15933
X22906Y15133
X24450Y14583
X24000Y13833
X24150Y12833
X23650Y12333
X24650Y10833
X26150Y11633
X26650Y11983
X28150Y14168
X27150Y15333
X26650Y14833
X28150Y15833
X31350Y15833
X33350Y16483
X33600Y16033
X34350Y16333
X35100Y16083
X35900Y15633
X35650Y15333
X35650Y14983
X35100Y14733
X34600Y13833
X35850Y11983
X36150Y11633
X36850Y11333
X36350Y10833
X34850Y11333
X34368Y11333
X33350Y11333
X32850Y11833
X32350Y10833
X31350Y10333
X30850Y10833
X28650Y8833
X28150Y8333
X27650Y9333
X26947Y9276
X27150Y9833
X23616Y8774
X22150Y8833
X20150Y7333
X19650Y7833
X24650Y15833
X28150Y24533
X28650Y25033
X27650Y25533
X26947Y25476
X27150Y26033
X30850Y27033
X31350Y26533
X32350Y27033
X33350Y27533
X32850Y28033
X34368Y27533
X34850Y27533
X35850Y28183
X36150Y27833
X36850Y27533
X36350Y27033
X37850Y28533
X38350Y29033
X38200Y30033
X38650Y30783
X38850Y32033
X37106Y31333
X36900Y32133
X35900Y31833
X35650Y31533
X35650Y31183
X35100Y30933
X34600Y30033
X35100Y32283
X34350Y32533
X33600Y32233
X33350Y32683
X34850Y33883
X36350Y33633
X40850Y31033
X41350Y31533
X42350Y32033
X42350Y30368
X40850Y28183
X40350Y27833
X38850Y27033
X37816Y24974
X36350Y25033
X34350Y23533
X33850Y24033
X34850Y17683
X36350Y17433
X36900Y15933
X37106Y15133
X38650Y14583
X38200Y13833
X38350Y12833
X37850Y12333
X38850Y10833
X40350Y11633
X40850Y11983
X42350Y14168
X41350Y15333
X40850Y14833
X42350Y15833
X38850Y15833
X41350Y9833
X41147Y9276
X41850Y9333
X42350Y8333
X42850Y8833
X37816Y8774
X36350Y8833
X34350Y7333
X33850Y7833
X42350Y24533
X42850Y25033
X41850Y25533
X41350Y26033
X41147Y25476
X31350Y32033
X17150Y32033
X13950Y32033
X12950Y31533
X12450Y31033
X13950Y30368
X10450Y32033
X10250Y30783
X9800Y30033
X9950Y29033
X9450Y28533
X8450Y27533
X7950Y27033
X7750Y27833
X7450Y28183
X6450Y27533
X5968Y27533
X4950Y27533
X4450Y28033
X3950Y27033
X2950Y26533
X2450Y27033
X6200Y30033
X6700Y30933
X7250Y31183
X7250Y31533
X7500Y31833
X6700Y32283
X5950Y32533
X5200Y32233
X4950Y32683
X6450Y33883
X7950Y33633
X8500Y32133
X8706Y31333
X2950Y32033
T02
X4450Y32033
X18650Y32033
X32850Y32033
X32850Y15833
X18650Y15833
X4450Y15833
T03
X7950Y15833
X8950Y15833
X8950Y16833
X7950Y16833
X7950Y17833
X8950Y17833
X22150Y17833
X22150Y16833
X22150Y15833
X23150Y15833
X23150Y16833
X23150Y17833
X36350Y17833
X36350Y16833
X36350Y15833
X37350Y15833
X37350Y16833
X37350Y17833
X37350Y32033
X36350Y32033
X36350Y33033
X37350Y33033
X37350Y34033
X36350Y34033
X23150Y34033
X23150Y33033
X23150Y32033
X22150Y32033
X22150Y33033
X22150Y34033
X8950Y34033
X8950Y33033
X8950Y32033
X7950Y32033
X7950Y33033
X7950Y34033
T04
X4600Y29866
X4100Y29000
X7950Y22283
X8950Y22283
X12800Y28950
X12300Y29816
X18300Y29000
X18800Y29866
X26500Y29816
X27000Y28950
X32500Y29000
X33000Y29866
X40700Y29816
X41200Y28950
X37350Y22283
X36350Y22283
X33000Y13666
X32500Y12800
X27000Y12750
X26500Y13616
X18800Y13666
X18300Y12800
X12800Y12750
X12300Y13616
X4600Y13666
X4100Y12800
X7950Y6083
X8950Y6083
X22150Y6083
X23150Y6083
X36350Y6083
X37350Y6083
X41200Y12750
X40700Y13616
X23150Y22283
X22150Y22283
T05
X22150Y20033
X21150Y20033
X20150Y20033
X20150Y18833
X21150Y18833
X22150Y18833
X23150Y18833
X24150Y18833
X25150Y18833
X25150Y20033
X24150Y20033
X23150Y20033
X34350Y20033
X35350Y20033
X36350Y20033
X37350Y20033
X38350Y20033
X39350Y20033
X39350Y18833
X38350Y18833
X37350Y18833
X36350Y18833
X35350Y18833
X34350Y18833
X34350Y3833
X35350Y3833
X36350Y3833
X37350Y3833
X38350Y3833
X39350Y3833
X25150Y3833
X24150Y3833
X23150Y3833
X22150Y3833
X21150Y3833
X20150Y3833
X10950Y3833
X9950Y3833
X8950Y3833
X7950Y3833
X6950Y3833
X5950Y3833
X5950Y18833
X6950Y18833
X7950Y18833
X8950Y18833
X9950Y18833
X10950Y18833
X10950Y20033
X9950Y20033
X8950Y20033
X7950Y20033
X6950Y20033
X5950Y20033
X5950Y35033
X6950Y35033
X7950Y35033
X8950Y35033
X9950Y35033
X10950Y35033
X20150Y35033
X21150Y35033
X22150Y35033
X23150Y35033
X24150Y35033
X25150Y35033
X34350Y35033
X35350Y35033
X36350Y35033
X37350Y35033
X38350Y35033
X39350Y35033
T06
X4450Y4333
X12450Y4333
X18650Y4333
X26650Y4333
X32850Y4333
X40850Y4333
X40850Y18333
X40850Y20533
X32850Y20533
X32850Y18333
X26650Y18333
X26650Y20533
X18650Y20533
X18650Y18333
X12450Y18333
X12450Y20533
X4450Y20533
X4450Y18333
X4450Y34533
X12450Y34533
X18650Y34533
X26650Y34533
X32850Y34533
X40850Y34533
M30
