G75*
%MOIN*%
%OFA0B0*%
%FSLAX25Y25*%
%IPPOS*%
%LPD*%
%AMOC8*
5,1,8,0,0,1.08239X$1,22.5*
%
%ADD10R,0.04331X0.03937*%
%ADD11R,0.01181X0.04331*%
%ADD12R,0.04331X0.01181*%
%ADD13R,0.03937X0.04331*%
%ADD14R,0.04724X0.02362*%
%ADD15R,0.07874X0.04724*%
%ADD16R,0.05315X0.02362*%
%ADD17C,0.01181*%
%ADD18R,0.02362X0.02362*%
%ADD19R,0.06299X0.09449*%
D10*
G36*
X0073232Y0079960D02*
X0075397Y0076212D01*
X0071990Y0074244D01*
X0069825Y0077992D01*
X0073232Y0079960D01*
G37*
G36*
X0069886Y0085756D02*
X0072051Y0082008D01*
X0068644Y0080040D01*
X0066479Y0083788D01*
X0069886Y0085756D01*
G37*
G36*
X0071318Y0102698D02*
X0075066Y0104863D01*
X0077034Y0101456D01*
X0073286Y0099291D01*
X0071318Y0102698D01*
G37*
G36*
X0077115Y0106044D02*
X0080863Y0108209D01*
X0082831Y0104802D01*
X0079083Y0102637D01*
X0077115Y0106044D01*
G37*
G36*
X0101063Y0103756D02*
X0103228Y0100008D01*
X0099821Y0098040D01*
X0097656Y0101788D01*
X0101063Y0103756D01*
G37*
G36*
X0104409Y0097960D02*
X0106574Y0094212D01*
X0103167Y0092244D01*
X0101002Y0095992D01*
X0104409Y0097960D01*
G37*
G36*
X0117615Y0093962D02*
X0119780Y0097710D01*
X0123187Y0095742D01*
X0121022Y0091994D01*
X0117615Y0093962D01*
G37*
G36*
X0120961Y0099758D02*
X0123126Y0103506D01*
X0126533Y0101538D01*
X0124368Y0097790D01*
X0120961Y0099758D01*
G37*
X0115421Y0115250D03*
X0108728Y0115250D03*
G36*
X0145066Y0102637D02*
X0141318Y0104802D01*
X0143286Y0108209D01*
X0147034Y0106044D01*
X0145066Y0102637D01*
G37*
G36*
X0150862Y0099291D02*
X0147114Y0101456D01*
X0149082Y0104863D01*
X0152830Y0102698D01*
X0150862Y0099291D01*
G37*
G36*
X0151962Y0082258D02*
X0154127Y0086006D01*
X0157534Y0084038D01*
X0155369Y0080290D01*
X0151962Y0082258D01*
G37*
G36*
X0148615Y0076462D02*
X0150780Y0080210D01*
X0154187Y0078242D01*
X0152022Y0074494D01*
X0148615Y0076462D01*
G37*
G36*
X0133862Y0069291D02*
X0130114Y0071456D01*
X0132082Y0074863D01*
X0135830Y0072698D01*
X0133862Y0069291D01*
G37*
G36*
X0128066Y0072637D02*
X0124318Y0074802D01*
X0126286Y0078209D01*
X0130034Y0076044D01*
X0128066Y0072637D01*
G37*
G36*
X0095153Y0075367D02*
X0098901Y0077532D01*
X0100869Y0074125D01*
X0097121Y0071960D01*
X0095153Y0075367D01*
G37*
G36*
X0089357Y0072021D02*
X0093105Y0074186D01*
X0095073Y0070779D01*
X0091325Y0068614D01*
X0089357Y0072021D01*
G37*
X0065421Y0148750D03*
X0058728Y0148750D03*
X0128728Y0148750D03*
X0135421Y0148750D03*
X0200728Y0148750D03*
X0207421Y0148750D03*
G36*
X0219114Y0106044D02*
X0222862Y0108209D01*
X0224830Y0104802D01*
X0221082Y0102637D01*
X0219114Y0106044D01*
G37*
G36*
X0213318Y0102698D02*
X0217066Y0104863D01*
X0219034Y0101456D01*
X0215286Y0099291D01*
X0213318Y0102698D01*
G37*
G36*
X0211886Y0085756D02*
X0214051Y0082008D01*
X0210644Y0080040D01*
X0208479Y0083788D01*
X0211886Y0085756D01*
G37*
G36*
X0215232Y0079960D02*
X0217397Y0076212D01*
X0213990Y0074244D01*
X0211825Y0077992D01*
X0215232Y0079960D01*
G37*
G36*
X0231356Y0072021D02*
X0235104Y0074186D01*
X0237072Y0070779D01*
X0233324Y0068614D01*
X0231356Y0072021D01*
G37*
G36*
X0237153Y0075367D02*
X0240901Y0077532D01*
X0242869Y0074125D01*
X0239121Y0071960D01*
X0237153Y0075367D01*
G37*
G36*
X0246409Y0097960D02*
X0248574Y0094212D01*
X0245167Y0092244D01*
X0243002Y0095992D01*
X0246409Y0097960D01*
G37*
G36*
X0243063Y0103756D02*
X0245228Y0100008D01*
X0241821Y0098040D01*
X0239656Y0101788D01*
X0243063Y0103756D01*
G37*
X0250728Y0115250D03*
X0257421Y0115250D03*
G36*
X0262961Y0099758D02*
X0265126Y0103506D01*
X0268533Y0101538D01*
X0266368Y0097790D01*
X0262961Y0099758D01*
G37*
G36*
X0259615Y0093962D02*
X0261780Y0097710D01*
X0265187Y0095742D01*
X0263022Y0091994D01*
X0259615Y0093962D01*
G37*
G36*
X0270066Y0072637D02*
X0266318Y0074802D01*
X0268286Y0078209D01*
X0272034Y0076044D01*
X0270066Y0072637D01*
G37*
G36*
X0275862Y0069291D02*
X0272114Y0071456D01*
X0274082Y0074863D01*
X0277830Y0072698D01*
X0275862Y0069291D01*
G37*
G36*
X0290615Y0076462D02*
X0292780Y0080210D01*
X0296187Y0078242D01*
X0294022Y0074494D01*
X0290615Y0076462D01*
G37*
G36*
X0293961Y0082258D02*
X0296126Y0086006D01*
X0299533Y0084038D01*
X0297368Y0080290D01*
X0293961Y0082258D01*
G37*
G36*
X0292862Y0099291D02*
X0289114Y0101456D01*
X0291082Y0104863D01*
X0294830Y0102698D01*
X0292862Y0099291D01*
G37*
G36*
X0287066Y0102637D02*
X0283318Y0104802D01*
X0285286Y0108209D01*
X0289034Y0106044D01*
X0287066Y0102637D01*
G37*
X0277421Y0148750D03*
X0270728Y0148750D03*
G36*
X0275862Y0231291D02*
X0272114Y0233456D01*
X0274082Y0236863D01*
X0277830Y0234698D01*
X0275862Y0231291D01*
G37*
G36*
X0270066Y0234637D02*
X0266318Y0236802D01*
X0268286Y0240209D01*
X0272034Y0238044D01*
X0270066Y0234637D01*
G37*
G36*
X0290615Y0238462D02*
X0292780Y0242210D01*
X0296187Y0240242D01*
X0294022Y0236494D01*
X0290615Y0238462D01*
G37*
G36*
X0293961Y0244258D02*
X0296126Y0248006D01*
X0299533Y0246038D01*
X0297368Y0242290D01*
X0293961Y0244258D01*
G37*
G36*
X0292862Y0261290D02*
X0289114Y0263455D01*
X0291082Y0266862D01*
X0294830Y0264697D01*
X0292862Y0261290D01*
G37*
G36*
X0287066Y0264637D02*
X0283318Y0266802D01*
X0285286Y0270209D01*
X0289034Y0268044D01*
X0287066Y0264637D01*
G37*
G36*
X0262961Y0261758D02*
X0265126Y0265506D01*
X0268533Y0263538D01*
X0266368Y0259790D01*
X0262961Y0261758D01*
G37*
G36*
X0259615Y0255962D02*
X0261780Y0259710D01*
X0265187Y0257742D01*
X0263022Y0253994D01*
X0259615Y0255962D01*
G37*
G36*
X0246409Y0259960D02*
X0248574Y0256212D01*
X0245167Y0254244D01*
X0243002Y0257992D01*
X0246409Y0259960D01*
G37*
G36*
X0243063Y0265756D02*
X0245228Y0262008D01*
X0241821Y0260040D01*
X0239656Y0263788D01*
X0243063Y0265756D01*
G37*
X0250728Y0277250D03*
X0257421Y0277250D03*
X0270728Y0310750D03*
X0277421Y0310750D03*
G36*
X0219114Y0268044D02*
X0222862Y0270209D01*
X0224830Y0266802D01*
X0221082Y0264637D01*
X0219114Y0268044D01*
G37*
G36*
X0213318Y0264697D02*
X0217066Y0266862D01*
X0219034Y0263455D01*
X0215286Y0261290D01*
X0213318Y0264697D01*
G37*
G36*
X0211886Y0247756D02*
X0214051Y0244008D01*
X0210644Y0242040D01*
X0208479Y0245788D01*
X0211886Y0247756D01*
G37*
G36*
X0215232Y0241960D02*
X0217397Y0238212D01*
X0213990Y0236244D01*
X0211825Y0239992D01*
X0215232Y0241960D01*
G37*
G36*
X0231356Y0234020D02*
X0235104Y0236185D01*
X0237072Y0232778D01*
X0233324Y0230613D01*
X0231356Y0234020D01*
G37*
G36*
X0237153Y0237367D02*
X0240901Y0239532D01*
X0242869Y0236125D01*
X0239121Y0233960D01*
X0237153Y0237367D01*
G37*
X0207421Y0310750D03*
X0200728Y0310750D03*
G36*
X0150862Y0261290D02*
X0147114Y0263455D01*
X0149082Y0266862D01*
X0152830Y0264697D01*
X0150862Y0261290D01*
G37*
G36*
X0145066Y0264637D02*
X0141318Y0266802D01*
X0143286Y0270209D01*
X0147034Y0268044D01*
X0145066Y0264637D01*
G37*
G36*
X0120961Y0261758D02*
X0123126Y0265506D01*
X0126533Y0263538D01*
X0124368Y0259790D01*
X0120961Y0261758D01*
G37*
G36*
X0117615Y0255962D02*
X0119780Y0259710D01*
X0123187Y0257742D01*
X0121022Y0253994D01*
X0117615Y0255962D01*
G37*
G36*
X0104409Y0259960D02*
X0106574Y0256212D01*
X0103167Y0254244D01*
X0101002Y0257992D01*
X0104409Y0259960D01*
G37*
G36*
X0101063Y0265756D02*
X0103228Y0262008D01*
X0099821Y0260040D01*
X0097656Y0263788D01*
X0101063Y0265756D01*
G37*
X0108728Y0277250D03*
X0115421Y0277250D03*
X0128728Y0310750D03*
X0135421Y0310750D03*
G36*
X0077115Y0268044D02*
X0080863Y0270209D01*
X0082831Y0266802D01*
X0079083Y0264637D01*
X0077115Y0268044D01*
G37*
G36*
X0071318Y0264697D02*
X0075066Y0266862D01*
X0077034Y0263455D01*
X0073286Y0261290D01*
X0071318Y0264697D01*
G37*
G36*
X0069886Y0247756D02*
X0072051Y0244008D01*
X0068644Y0242040D01*
X0066479Y0245788D01*
X0069886Y0247756D01*
G37*
G36*
X0073232Y0241960D02*
X0075397Y0238212D01*
X0071990Y0236244D01*
X0069825Y0239992D01*
X0073232Y0241960D01*
G37*
G36*
X0089357Y0234020D02*
X0093105Y0236185D01*
X0095073Y0232778D01*
X0091325Y0230613D01*
X0089357Y0234020D01*
G37*
G36*
X0095153Y0237367D02*
X0098901Y0239532D01*
X0100869Y0236125D01*
X0097121Y0233960D01*
X0095153Y0237367D01*
G37*
G36*
X0128066Y0234637D02*
X0124318Y0236802D01*
X0126286Y0240209D01*
X0130034Y0238044D01*
X0128066Y0234637D01*
G37*
G36*
X0133862Y0231291D02*
X0130114Y0233456D01*
X0132082Y0236863D01*
X0135830Y0234698D01*
X0133862Y0231291D01*
G37*
G36*
X0148615Y0238462D02*
X0150780Y0242210D01*
X0154187Y0240242D01*
X0152022Y0236494D01*
X0148615Y0238462D01*
G37*
G36*
X0151962Y0244258D02*
X0154127Y0248006D01*
X0157534Y0246038D01*
X0155369Y0242290D01*
X0151962Y0244258D01*
G37*
X0065421Y0310750D03*
X0058728Y0310750D03*
D11*
X0106956Y0304411D03*
X0109515Y0304411D03*
X0112074Y0304411D03*
X0114633Y0304411D03*
X0117192Y0304411D03*
X0117192Y0287088D03*
X0114633Y0287088D03*
X0112074Y0287088D03*
X0109515Y0287088D03*
X0106956Y0287088D03*
G36*
X0087789Y0259231D02*
X0086767Y0258641D01*
X0084603Y0262389D01*
X0085625Y0262979D01*
X0087789Y0259231D01*
G37*
G36*
X0089798Y0258117D02*
X0089208Y0259139D01*
X0092956Y0261303D01*
X0093546Y0260281D01*
X0089798Y0258117D01*
G37*
G36*
X0091078Y0255901D02*
X0090488Y0256923D01*
X0094236Y0259087D01*
X0094826Y0258065D01*
X0091078Y0255901D01*
G37*
G36*
X0092357Y0253684D02*
X0091767Y0254706D01*
X0095515Y0256870D01*
X0096105Y0255848D01*
X0092357Y0253684D01*
G37*
G36*
X0093637Y0251468D02*
X0093047Y0252490D01*
X0096795Y0254654D01*
X0097385Y0253632D01*
X0093637Y0251468D01*
G37*
G36*
X0094916Y0249252D02*
X0094326Y0250274D01*
X0098074Y0252438D01*
X0098664Y0251416D01*
X0094916Y0249252D01*
G37*
G36*
X0093265Y0247387D02*
X0094287Y0247977D01*
X0096451Y0244229D01*
X0095429Y0243639D01*
X0093265Y0247387D01*
G37*
G36*
X0091048Y0246107D02*
X0092070Y0246697D01*
X0094234Y0242949D01*
X0093212Y0242359D01*
X0091048Y0246107D01*
G37*
G36*
X0088832Y0244828D02*
X0089854Y0245418D01*
X0092018Y0241670D01*
X0090996Y0241080D01*
X0088832Y0244828D01*
G37*
G36*
X0086616Y0243548D02*
X0087638Y0244138D01*
X0089802Y0240390D01*
X0088780Y0239800D01*
X0086616Y0243548D01*
G37*
G36*
X0084400Y0242269D02*
X0085422Y0242859D01*
X0087586Y0239111D01*
X0086564Y0238521D01*
X0084400Y0242269D01*
G37*
G36*
X0082732Y0243580D02*
X0083322Y0242558D01*
X0079574Y0240394D01*
X0078984Y0241416D01*
X0082732Y0243580D01*
G37*
G36*
X0081452Y0245796D02*
X0082042Y0244774D01*
X0078294Y0242610D01*
X0077704Y0243632D01*
X0081452Y0245796D01*
G37*
G36*
X0080172Y0248012D02*
X0080762Y0246990D01*
X0077014Y0244826D01*
X0076424Y0245848D01*
X0080172Y0248012D01*
G37*
G36*
X0078893Y0250228D02*
X0079483Y0249206D01*
X0075735Y0247042D01*
X0075145Y0248064D01*
X0078893Y0250228D01*
G37*
G36*
X0077613Y0252445D02*
X0078203Y0251423D01*
X0074455Y0249259D01*
X0073865Y0250281D01*
X0077613Y0252445D01*
G37*
G36*
X0078924Y0254113D02*
X0077902Y0253523D01*
X0075738Y0257271D01*
X0076760Y0257861D01*
X0078924Y0254113D01*
G37*
G36*
X0081141Y0255392D02*
X0080119Y0254802D01*
X0077955Y0258550D01*
X0078977Y0259140D01*
X0081141Y0255392D01*
G37*
G36*
X0083357Y0256672D02*
X0082335Y0256082D01*
X0080171Y0259830D01*
X0081193Y0260420D01*
X0083357Y0256672D01*
G37*
G36*
X0085573Y0257951D02*
X0084551Y0257361D01*
X0082387Y0261109D01*
X0083409Y0261699D01*
X0085573Y0257951D01*
G37*
G36*
X0129822Y0250274D02*
X0129232Y0249252D01*
X0125484Y0251416D01*
X0126074Y0252438D01*
X0129822Y0250274D01*
G37*
G36*
X0131102Y0252490D02*
X0130512Y0251468D01*
X0126764Y0253632D01*
X0127354Y0254654D01*
X0131102Y0252490D01*
G37*
G36*
X0132381Y0254706D02*
X0131791Y0253684D01*
X0128043Y0255848D01*
X0128633Y0256870D01*
X0132381Y0254706D01*
G37*
G36*
X0133661Y0256923D02*
X0133071Y0255901D01*
X0129323Y0258065D01*
X0129913Y0259087D01*
X0133661Y0256923D01*
G37*
G36*
X0134940Y0259139D02*
X0134350Y0258117D01*
X0130602Y0260281D01*
X0131192Y0261303D01*
X0134940Y0259139D01*
G37*
G36*
X0137381Y0258641D02*
X0136359Y0259231D01*
X0138523Y0262979D01*
X0139545Y0262389D01*
X0137381Y0258641D01*
G37*
G36*
X0139598Y0257361D02*
X0138576Y0257951D01*
X0140740Y0261699D01*
X0141762Y0261109D01*
X0139598Y0257361D01*
G37*
G36*
X0141814Y0256082D02*
X0140792Y0256672D01*
X0142956Y0260420D01*
X0143978Y0259830D01*
X0141814Y0256082D01*
G37*
G36*
X0144030Y0254802D02*
X0143008Y0255392D01*
X0145172Y0259140D01*
X0146194Y0258550D01*
X0144030Y0254802D01*
G37*
G36*
X0146246Y0253523D02*
X0145224Y0254113D01*
X0147388Y0257861D01*
X0148410Y0257271D01*
X0146246Y0253523D01*
G37*
G36*
X0145945Y0251423D02*
X0146535Y0252445D01*
X0150283Y0250281D01*
X0149693Y0249259D01*
X0145945Y0251423D01*
G37*
G36*
X0144666Y0249206D02*
X0145256Y0250228D01*
X0149004Y0248064D01*
X0148414Y0247042D01*
X0144666Y0249206D01*
G37*
G36*
X0143386Y0246990D02*
X0143976Y0248012D01*
X0147724Y0245848D01*
X0147134Y0244826D01*
X0143386Y0246990D01*
G37*
G36*
X0142107Y0244774D02*
X0142697Y0245796D01*
X0146445Y0243632D01*
X0145855Y0242610D01*
X0142107Y0244774D01*
G37*
G36*
X0140827Y0242558D02*
X0141417Y0243580D01*
X0145165Y0241416D01*
X0144575Y0240394D01*
X0140827Y0242558D01*
G37*
G36*
X0138727Y0242859D02*
X0139749Y0242269D01*
X0137585Y0238521D01*
X0136563Y0239111D01*
X0138727Y0242859D01*
G37*
G36*
X0136511Y0244138D02*
X0137533Y0243548D01*
X0135369Y0239800D01*
X0134347Y0240390D01*
X0136511Y0244138D01*
G37*
G36*
X0134294Y0245418D02*
X0135316Y0244828D01*
X0133152Y0241080D01*
X0132130Y0241670D01*
X0134294Y0245418D01*
G37*
G36*
X0132078Y0246697D02*
X0133100Y0246107D01*
X0130936Y0242359D01*
X0129914Y0242949D01*
X0132078Y0246697D01*
G37*
G36*
X0129862Y0247977D02*
X0130884Y0247387D01*
X0128720Y0243639D01*
X0127698Y0244229D01*
X0129862Y0247977D01*
G37*
G36*
X0219613Y0252445D02*
X0220203Y0251423D01*
X0216455Y0249259D01*
X0215865Y0250281D01*
X0219613Y0252445D01*
G37*
G36*
X0220924Y0254113D02*
X0219902Y0253523D01*
X0217738Y0257271D01*
X0218760Y0257861D01*
X0220924Y0254113D01*
G37*
G36*
X0223140Y0255392D02*
X0222118Y0254802D01*
X0219954Y0258550D01*
X0220976Y0259140D01*
X0223140Y0255392D01*
G37*
G36*
X0225357Y0256672D02*
X0224335Y0256082D01*
X0222171Y0259830D01*
X0223193Y0260420D01*
X0225357Y0256672D01*
G37*
G36*
X0227573Y0257951D02*
X0226551Y0257361D01*
X0224387Y0261109D01*
X0225409Y0261699D01*
X0227573Y0257951D01*
G37*
G36*
X0229789Y0259231D02*
X0228767Y0258641D01*
X0226603Y0262389D01*
X0227625Y0262979D01*
X0229789Y0259231D01*
G37*
G36*
X0231798Y0258117D02*
X0231208Y0259139D01*
X0234956Y0261303D01*
X0235546Y0260281D01*
X0231798Y0258117D01*
G37*
G36*
X0233078Y0255901D02*
X0232488Y0256923D01*
X0236236Y0259087D01*
X0236826Y0258065D01*
X0233078Y0255901D01*
G37*
G36*
X0234357Y0253684D02*
X0233767Y0254706D01*
X0237515Y0256870D01*
X0238105Y0255848D01*
X0234357Y0253684D01*
G37*
G36*
X0235637Y0251468D02*
X0235047Y0252490D01*
X0238795Y0254654D01*
X0239385Y0253632D01*
X0235637Y0251468D01*
G37*
G36*
X0236916Y0249252D02*
X0236326Y0250274D01*
X0240074Y0252438D01*
X0240664Y0251416D01*
X0236916Y0249252D01*
G37*
G36*
X0235264Y0247387D02*
X0236286Y0247977D01*
X0238450Y0244229D01*
X0237428Y0243639D01*
X0235264Y0247387D01*
G37*
G36*
X0233048Y0246107D02*
X0234070Y0246697D01*
X0236234Y0242949D01*
X0235212Y0242359D01*
X0233048Y0246107D01*
G37*
G36*
X0230832Y0244828D02*
X0231854Y0245418D01*
X0234018Y0241670D01*
X0232996Y0241080D01*
X0230832Y0244828D01*
G37*
G36*
X0228616Y0243548D02*
X0229638Y0244138D01*
X0231802Y0240390D01*
X0230780Y0239800D01*
X0228616Y0243548D01*
G37*
G36*
X0226400Y0242269D02*
X0227422Y0242859D01*
X0229586Y0239111D01*
X0228564Y0238521D01*
X0226400Y0242269D01*
G37*
G36*
X0224731Y0243580D02*
X0225321Y0242558D01*
X0221573Y0240394D01*
X0220983Y0241416D01*
X0224731Y0243580D01*
G37*
G36*
X0223452Y0245796D02*
X0224042Y0244774D01*
X0220294Y0242610D01*
X0219704Y0243632D01*
X0223452Y0245796D01*
G37*
G36*
X0222172Y0248012D02*
X0222762Y0246990D01*
X0219014Y0244826D01*
X0218424Y0245848D01*
X0222172Y0248012D01*
G37*
G36*
X0220893Y0250228D02*
X0221483Y0249206D01*
X0217735Y0247042D01*
X0217145Y0248064D01*
X0220893Y0250228D01*
G37*
X0248956Y0287088D03*
X0251515Y0287088D03*
X0254074Y0287088D03*
X0256633Y0287088D03*
X0259192Y0287088D03*
X0259192Y0304411D03*
X0256633Y0304411D03*
X0254074Y0304411D03*
X0251515Y0304411D03*
X0248956Y0304411D03*
G36*
X0279381Y0258641D02*
X0278359Y0259231D01*
X0280523Y0262979D01*
X0281545Y0262389D01*
X0279381Y0258641D01*
G37*
G36*
X0281597Y0257361D02*
X0280575Y0257951D01*
X0282739Y0261699D01*
X0283761Y0261109D01*
X0281597Y0257361D01*
G37*
G36*
X0283814Y0256082D02*
X0282792Y0256672D01*
X0284956Y0260420D01*
X0285978Y0259830D01*
X0283814Y0256082D01*
G37*
G36*
X0286030Y0254802D02*
X0285008Y0255392D01*
X0287172Y0259140D01*
X0288194Y0258550D01*
X0286030Y0254802D01*
G37*
G36*
X0288246Y0253523D02*
X0287224Y0254113D01*
X0289388Y0257861D01*
X0290410Y0257271D01*
X0288246Y0253523D01*
G37*
G36*
X0287945Y0251423D02*
X0288535Y0252445D01*
X0292283Y0250281D01*
X0291693Y0249259D01*
X0287945Y0251423D01*
G37*
G36*
X0286666Y0249206D02*
X0287256Y0250228D01*
X0291004Y0248064D01*
X0290414Y0247042D01*
X0286666Y0249206D01*
G37*
G36*
X0285386Y0246990D02*
X0285976Y0248012D01*
X0289724Y0245848D01*
X0289134Y0244826D01*
X0285386Y0246990D01*
G37*
G36*
X0284106Y0244774D02*
X0284696Y0245796D01*
X0288444Y0243632D01*
X0287854Y0242610D01*
X0284106Y0244774D01*
G37*
G36*
X0282827Y0242558D02*
X0283417Y0243580D01*
X0287165Y0241416D01*
X0286575Y0240394D01*
X0282827Y0242558D01*
G37*
G36*
X0280727Y0242859D02*
X0281749Y0242269D01*
X0279585Y0238521D01*
X0278563Y0239111D01*
X0280727Y0242859D01*
G37*
G36*
X0278510Y0244138D02*
X0279532Y0243548D01*
X0277368Y0239800D01*
X0276346Y0240390D01*
X0278510Y0244138D01*
G37*
G36*
X0276294Y0245418D02*
X0277316Y0244828D01*
X0275152Y0241080D01*
X0274130Y0241670D01*
X0276294Y0245418D01*
G37*
G36*
X0274078Y0246697D02*
X0275100Y0246107D01*
X0272936Y0242359D01*
X0271914Y0242949D01*
X0274078Y0246697D01*
G37*
G36*
X0271862Y0247977D02*
X0272884Y0247387D01*
X0270720Y0243639D01*
X0269698Y0244229D01*
X0271862Y0247977D01*
G37*
G36*
X0271822Y0250274D02*
X0271232Y0249252D01*
X0267484Y0251416D01*
X0268074Y0252438D01*
X0271822Y0250274D01*
G37*
G36*
X0273102Y0252490D02*
X0272512Y0251468D01*
X0268764Y0253632D01*
X0269354Y0254654D01*
X0273102Y0252490D01*
G37*
G36*
X0274381Y0254706D02*
X0273791Y0253684D01*
X0270043Y0255848D01*
X0270633Y0256870D01*
X0274381Y0254706D01*
G37*
G36*
X0275661Y0256923D02*
X0275071Y0255901D01*
X0271323Y0258065D01*
X0271913Y0259087D01*
X0275661Y0256923D01*
G37*
G36*
X0276940Y0259139D02*
X0276350Y0258117D01*
X0272602Y0260281D01*
X0273192Y0261303D01*
X0276940Y0259139D01*
G37*
X0259192Y0142411D03*
X0256633Y0142411D03*
X0254074Y0142411D03*
X0251515Y0142411D03*
X0248956Y0142411D03*
X0248956Y0125088D03*
X0251515Y0125088D03*
X0254074Y0125088D03*
X0256633Y0125088D03*
X0259192Y0125088D03*
G36*
X0276940Y0097139D02*
X0276350Y0096117D01*
X0272602Y0098281D01*
X0273192Y0099303D01*
X0276940Y0097139D01*
G37*
G36*
X0279381Y0096641D02*
X0278359Y0097231D01*
X0280523Y0100979D01*
X0281545Y0100389D01*
X0279381Y0096641D01*
G37*
G36*
X0281597Y0095362D02*
X0280575Y0095952D01*
X0282739Y0099700D01*
X0283761Y0099110D01*
X0281597Y0095362D01*
G37*
G36*
X0283814Y0094082D02*
X0282792Y0094672D01*
X0284956Y0098420D01*
X0285978Y0097830D01*
X0283814Y0094082D01*
G37*
G36*
X0286030Y0092803D02*
X0285008Y0093393D01*
X0287172Y0097141D01*
X0288194Y0096551D01*
X0286030Y0092803D01*
G37*
G36*
X0288246Y0091523D02*
X0287224Y0092113D01*
X0289388Y0095861D01*
X0290410Y0095271D01*
X0288246Y0091523D01*
G37*
G36*
X0287945Y0089423D02*
X0288535Y0090445D01*
X0292283Y0088281D01*
X0291693Y0087259D01*
X0287945Y0089423D01*
G37*
G36*
X0286666Y0087207D02*
X0287256Y0088229D01*
X0291004Y0086065D01*
X0290414Y0085043D01*
X0286666Y0087207D01*
G37*
G36*
X0285386Y0084990D02*
X0285976Y0086012D01*
X0289724Y0083848D01*
X0289134Y0082826D01*
X0285386Y0084990D01*
G37*
G36*
X0284106Y0082774D02*
X0284696Y0083796D01*
X0288444Y0081632D01*
X0287854Y0080610D01*
X0284106Y0082774D01*
G37*
G36*
X0282827Y0080558D02*
X0283417Y0081580D01*
X0287165Y0079416D01*
X0286575Y0078394D01*
X0282827Y0080558D01*
G37*
G36*
X0280727Y0080859D02*
X0281749Y0080269D01*
X0279585Y0076521D01*
X0278563Y0077111D01*
X0280727Y0080859D01*
G37*
G36*
X0278510Y0082139D02*
X0279532Y0081549D01*
X0277368Y0077801D01*
X0276346Y0078391D01*
X0278510Y0082139D01*
G37*
G36*
X0276294Y0083418D02*
X0277316Y0082828D01*
X0275152Y0079080D01*
X0274130Y0079670D01*
X0276294Y0083418D01*
G37*
G36*
X0274078Y0084698D02*
X0275100Y0084108D01*
X0272936Y0080360D01*
X0271914Y0080950D01*
X0274078Y0084698D01*
G37*
G36*
X0271862Y0085977D02*
X0272884Y0085387D01*
X0270720Y0081639D01*
X0269698Y0082229D01*
X0271862Y0085977D01*
G37*
G36*
X0271822Y0088274D02*
X0271232Y0087252D01*
X0267484Y0089416D01*
X0268074Y0090438D01*
X0271822Y0088274D01*
G37*
G36*
X0273102Y0090490D02*
X0272512Y0089468D01*
X0268764Y0091632D01*
X0269354Y0092654D01*
X0273102Y0090490D01*
G37*
G36*
X0274381Y0092707D02*
X0273791Y0091685D01*
X0270043Y0093849D01*
X0270633Y0094871D01*
X0274381Y0092707D01*
G37*
G36*
X0275661Y0094923D02*
X0275071Y0093901D01*
X0271323Y0096065D01*
X0271913Y0097087D01*
X0275661Y0094923D01*
G37*
G36*
X0236916Y0087252D02*
X0236326Y0088274D01*
X0240074Y0090438D01*
X0240664Y0089416D01*
X0236916Y0087252D01*
G37*
G36*
X0235264Y0085387D02*
X0236286Y0085977D01*
X0238450Y0082229D01*
X0237428Y0081639D01*
X0235264Y0085387D01*
G37*
G36*
X0233048Y0084108D02*
X0234070Y0084698D01*
X0236234Y0080950D01*
X0235212Y0080360D01*
X0233048Y0084108D01*
G37*
G36*
X0230832Y0082828D02*
X0231854Y0083418D01*
X0234018Y0079670D01*
X0232996Y0079080D01*
X0230832Y0082828D01*
G37*
G36*
X0228616Y0081548D02*
X0229638Y0082138D01*
X0231802Y0078390D01*
X0230780Y0077800D01*
X0228616Y0081548D01*
G37*
G36*
X0226400Y0080269D02*
X0227422Y0080859D01*
X0229586Y0077111D01*
X0228564Y0076521D01*
X0226400Y0080269D01*
G37*
G36*
X0224731Y0081580D02*
X0225321Y0080558D01*
X0221573Y0078394D01*
X0220983Y0079416D01*
X0224731Y0081580D01*
G37*
G36*
X0223452Y0083796D02*
X0224042Y0082774D01*
X0220294Y0080610D01*
X0219704Y0081632D01*
X0223452Y0083796D01*
G37*
G36*
X0222172Y0086012D02*
X0222762Y0084990D01*
X0219014Y0082826D01*
X0218424Y0083848D01*
X0222172Y0086012D01*
G37*
G36*
X0220893Y0088229D02*
X0221483Y0087207D01*
X0217735Y0085043D01*
X0217145Y0086065D01*
X0220893Y0088229D01*
G37*
G36*
X0219613Y0090445D02*
X0220203Y0089423D01*
X0216455Y0087259D01*
X0215865Y0088281D01*
X0219613Y0090445D01*
G37*
G36*
X0220924Y0092113D02*
X0219902Y0091523D01*
X0217738Y0095271D01*
X0218760Y0095861D01*
X0220924Y0092113D01*
G37*
G36*
X0223140Y0093392D02*
X0222118Y0092802D01*
X0219954Y0096550D01*
X0220976Y0097140D01*
X0223140Y0093392D01*
G37*
G36*
X0225357Y0094672D02*
X0224335Y0094082D01*
X0222171Y0097830D01*
X0223193Y0098420D01*
X0225357Y0094672D01*
G37*
G36*
X0227573Y0095952D02*
X0226551Y0095362D01*
X0224387Y0099110D01*
X0225409Y0099700D01*
X0227573Y0095952D01*
G37*
G36*
X0229789Y0097231D02*
X0228767Y0096641D01*
X0226603Y0100389D01*
X0227625Y0100979D01*
X0229789Y0097231D01*
G37*
G36*
X0231798Y0096117D02*
X0231208Y0097139D01*
X0234956Y0099303D01*
X0235546Y0098281D01*
X0231798Y0096117D01*
G37*
G36*
X0233078Y0093901D02*
X0232488Y0094923D01*
X0236236Y0097087D01*
X0236826Y0096065D01*
X0233078Y0093901D01*
G37*
G36*
X0234357Y0091685D02*
X0233767Y0092707D01*
X0237515Y0094871D01*
X0238105Y0093849D01*
X0234357Y0091685D01*
G37*
G36*
X0235637Y0089468D02*
X0235047Y0090490D01*
X0238795Y0092654D01*
X0239385Y0091632D01*
X0235637Y0089468D01*
G37*
G36*
X0145945Y0089423D02*
X0146535Y0090445D01*
X0150283Y0088281D01*
X0149693Y0087259D01*
X0145945Y0089423D01*
G37*
G36*
X0144666Y0087207D02*
X0145256Y0088229D01*
X0149004Y0086065D01*
X0148414Y0085043D01*
X0144666Y0087207D01*
G37*
G36*
X0143386Y0084990D02*
X0143976Y0086012D01*
X0147724Y0083848D01*
X0147134Y0082826D01*
X0143386Y0084990D01*
G37*
G36*
X0142107Y0082774D02*
X0142697Y0083796D01*
X0146445Y0081632D01*
X0145855Y0080610D01*
X0142107Y0082774D01*
G37*
G36*
X0140827Y0080558D02*
X0141417Y0081580D01*
X0145165Y0079416D01*
X0144575Y0078394D01*
X0140827Y0080558D01*
G37*
G36*
X0138727Y0080859D02*
X0139749Y0080269D01*
X0137585Y0076521D01*
X0136563Y0077111D01*
X0138727Y0080859D01*
G37*
G36*
X0136511Y0082139D02*
X0137533Y0081549D01*
X0135369Y0077801D01*
X0134347Y0078391D01*
X0136511Y0082139D01*
G37*
G36*
X0134294Y0083418D02*
X0135316Y0082828D01*
X0133152Y0079080D01*
X0132130Y0079670D01*
X0134294Y0083418D01*
G37*
G36*
X0132078Y0084698D02*
X0133100Y0084108D01*
X0130936Y0080360D01*
X0129914Y0080950D01*
X0132078Y0084698D01*
G37*
G36*
X0129862Y0085977D02*
X0130884Y0085387D01*
X0128720Y0081639D01*
X0127698Y0082229D01*
X0129862Y0085977D01*
G37*
G36*
X0129822Y0088274D02*
X0129232Y0087252D01*
X0125484Y0089416D01*
X0126074Y0090438D01*
X0129822Y0088274D01*
G37*
G36*
X0131102Y0090490D02*
X0130512Y0089468D01*
X0126764Y0091632D01*
X0127354Y0092654D01*
X0131102Y0090490D01*
G37*
G36*
X0132381Y0092707D02*
X0131791Y0091685D01*
X0128043Y0093849D01*
X0128633Y0094871D01*
X0132381Y0092707D01*
G37*
G36*
X0133661Y0094923D02*
X0133071Y0093901D01*
X0129323Y0096065D01*
X0129913Y0097087D01*
X0133661Y0094923D01*
G37*
G36*
X0134940Y0097139D02*
X0134350Y0096117D01*
X0130602Y0098281D01*
X0131192Y0099303D01*
X0134940Y0097139D01*
G37*
G36*
X0137381Y0096641D02*
X0136359Y0097231D01*
X0138523Y0100979D01*
X0139545Y0100389D01*
X0137381Y0096641D01*
G37*
G36*
X0139598Y0095362D02*
X0138576Y0095952D01*
X0140740Y0099700D01*
X0141762Y0099110D01*
X0139598Y0095362D01*
G37*
G36*
X0141814Y0094082D02*
X0140792Y0094672D01*
X0142956Y0098420D01*
X0143978Y0097830D01*
X0141814Y0094082D01*
G37*
G36*
X0144030Y0092803D02*
X0143008Y0093393D01*
X0145172Y0097141D01*
X0146194Y0096551D01*
X0144030Y0092803D01*
G37*
G36*
X0146246Y0091523D02*
X0145224Y0092113D01*
X0147388Y0095861D01*
X0148410Y0095271D01*
X0146246Y0091523D01*
G37*
X0117192Y0125088D03*
X0114633Y0125088D03*
X0112074Y0125088D03*
X0109515Y0125088D03*
X0106956Y0125088D03*
X0106956Y0142411D03*
X0109515Y0142411D03*
X0112074Y0142411D03*
X0114633Y0142411D03*
X0117192Y0142411D03*
G36*
X0089798Y0096117D02*
X0089208Y0097139D01*
X0092956Y0099303D01*
X0093546Y0098281D01*
X0089798Y0096117D01*
G37*
G36*
X0091078Y0093901D02*
X0090488Y0094923D01*
X0094236Y0097087D01*
X0094826Y0096065D01*
X0091078Y0093901D01*
G37*
G36*
X0092357Y0091685D02*
X0091767Y0092707D01*
X0095515Y0094871D01*
X0096105Y0093849D01*
X0092357Y0091685D01*
G37*
G36*
X0093637Y0089468D02*
X0093047Y0090490D01*
X0096795Y0092654D01*
X0097385Y0091632D01*
X0093637Y0089468D01*
G37*
G36*
X0094916Y0087252D02*
X0094326Y0088274D01*
X0098074Y0090438D01*
X0098664Y0089416D01*
X0094916Y0087252D01*
G37*
G36*
X0093265Y0085387D02*
X0094287Y0085977D01*
X0096451Y0082229D01*
X0095429Y0081639D01*
X0093265Y0085387D01*
G37*
G36*
X0091048Y0084108D02*
X0092070Y0084698D01*
X0094234Y0080950D01*
X0093212Y0080360D01*
X0091048Y0084108D01*
G37*
G36*
X0088832Y0082828D02*
X0089854Y0083418D01*
X0092018Y0079670D01*
X0090996Y0079080D01*
X0088832Y0082828D01*
G37*
G36*
X0086616Y0081548D02*
X0087638Y0082138D01*
X0089802Y0078390D01*
X0088780Y0077800D01*
X0086616Y0081548D01*
G37*
G36*
X0084400Y0080269D02*
X0085422Y0080859D01*
X0087586Y0077111D01*
X0086564Y0076521D01*
X0084400Y0080269D01*
G37*
G36*
X0082732Y0081580D02*
X0083322Y0080558D01*
X0079574Y0078394D01*
X0078984Y0079416D01*
X0082732Y0081580D01*
G37*
G36*
X0081452Y0083796D02*
X0082042Y0082774D01*
X0078294Y0080610D01*
X0077704Y0081632D01*
X0081452Y0083796D01*
G37*
G36*
X0080172Y0086012D02*
X0080762Y0084990D01*
X0077014Y0082826D01*
X0076424Y0083848D01*
X0080172Y0086012D01*
G37*
G36*
X0078893Y0088229D02*
X0079483Y0087207D01*
X0075735Y0085043D01*
X0075145Y0086065D01*
X0078893Y0088229D01*
G37*
G36*
X0077613Y0090445D02*
X0078203Y0089423D01*
X0074455Y0087259D01*
X0073865Y0088281D01*
X0077613Y0090445D01*
G37*
G36*
X0078924Y0092113D02*
X0077902Y0091523D01*
X0075738Y0095271D01*
X0076760Y0095861D01*
X0078924Y0092113D01*
G37*
G36*
X0081141Y0093392D02*
X0080119Y0092802D01*
X0077955Y0096550D01*
X0078977Y0097140D01*
X0081141Y0093392D01*
G37*
G36*
X0083357Y0094672D02*
X0082335Y0094082D01*
X0080171Y0097830D01*
X0081193Y0098420D01*
X0083357Y0094672D01*
G37*
G36*
X0085573Y0095952D02*
X0084551Y0095362D01*
X0082387Y0099110D01*
X0083409Y0099700D01*
X0085573Y0095952D01*
G37*
G36*
X0087789Y0097231D02*
X0086767Y0096641D01*
X0084603Y0100389D01*
X0085625Y0100979D01*
X0087789Y0097231D01*
G37*
D12*
X0103413Y0128632D03*
X0103413Y0131191D03*
X0103413Y0133750D03*
X0103413Y0136309D03*
X0103413Y0138868D03*
X0121129Y0138868D03*
X0121129Y0136309D03*
X0121129Y0133750D03*
X0121129Y0131191D03*
X0121129Y0128632D03*
X0245413Y0128632D03*
X0245413Y0131191D03*
X0245413Y0133750D03*
X0245413Y0136309D03*
X0245413Y0138868D03*
X0263129Y0138868D03*
X0263129Y0136309D03*
X0263129Y0133750D03*
X0263129Y0131191D03*
X0263129Y0128632D03*
X0263129Y0290631D03*
X0263129Y0293190D03*
X0263129Y0295750D03*
X0263129Y0298309D03*
X0263129Y0300868D03*
X0245413Y0300868D03*
X0245413Y0298309D03*
X0245413Y0295750D03*
X0245413Y0293190D03*
X0245413Y0290631D03*
X0121129Y0290631D03*
X0121129Y0293190D03*
X0121129Y0295750D03*
X0121129Y0298309D03*
X0121129Y0300868D03*
X0103413Y0300868D03*
X0103413Y0298309D03*
X0103413Y0295750D03*
X0103413Y0293190D03*
X0103413Y0290631D03*
D13*
X0094074Y0292403D03*
X0094074Y0299096D03*
X0092074Y0322403D03*
X0092074Y0329096D03*
X0082574Y0329096D03*
X0082574Y0322403D03*
X0057074Y0322403D03*
X0057074Y0329096D03*
X0132074Y0329096D03*
X0132074Y0322403D03*
X0130074Y0299096D03*
X0130074Y0292403D03*
X0137074Y0292403D03*
X0137074Y0299096D03*
X0199074Y0322403D03*
X0199074Y0329096D03*
X0224574Y0329096D03*
X0224574Y0322403D03*
X0234074Y0322403D03*
X0234074Y0329096D03*
X0236074Y0299096D03*
X0236074Y0292403D03*
X0272074Y0292403D03*
X0272074Y0299096D03*
X0279074Y0299096D03*
X0279074Y0292403D03*
X0274074Y0322403D03*
X0274074Y0329096D03*
X0274074Y0167096D03*
X0274074Y0160403D03*
X0272074Y0137096D03*
X0272074Y0130403D03*
X0279074Y0130403D03*
X0279074Y0137096D03*
X0236074Y0137096D03*
X0236074Y0130403D03*
X0234074Y0160403D03*
X0234074Y0167096D03*
X0224574Y0167096D03*
X0224574Y0160403D03*
X0199074Y0160403D03*
X0199074Y0167096D03*
X0137074Y0137096D03*
X0137074Y0130403D03*
X0130074Y0130403D03*
X0130074Y0137096D03*
X0132074Y0160403D03*
X0132074Y0167096D03*
X0094074Y0137096D03*
X0094074Y0130403D03*
X0092074Y0160403D03*
X0092074Y0167096D03*
X0082574Y0167096D03*
X0082574Y0160403D03*
X0057074Y0160403D03*
X0057074Y0167096D03*
D14*
X0101051Y0166250D03*
X0101051Y0171250D03*
X0101051Y0161250D03*
X0101051Y0156250D03*
X0123098Y0156250D03*
X0123098Y0161250D03*
X0123098Y0166250D03*
X0123098Y0171250D03*
X0243050Y0171250D03*
X0243050Y0166250D03*
X0243050Y0161250D03*
X0243050Y0156250D03*
X0265098Y0156250D03*
X0265098Y0161250D03*
X0265098Y0166250D03*
X0265098Y0171250D03*
X0265098Y0318250D03*
X0265098Y0323250D03*
X0265098Y0328250D03*
X0265098Y0333250D03*
X0243050Y0333250D03*
X0243050Y0328250D03*
X0243050Y0323250D03*
X0243050Y0318250D03*
X0123098Y0318250D03*
X0123098Y0323250D03*
X0123098Y0328250D03*
X0123098Y0333250D03*
X0101051Y0333250D03*
X0101051Y0328250D03*
X0101051Y0323250D03*
X0101051Y0318250D03*
D15*
X0047606Y0276773D03*
X0047606Y0254726D03*
X0176543Y0254726D03*
X0189606Y0254726D03*
X0189606Y0276773D03*
X0176543Y0276773D03*
X0318542Y0276773D03*
X0318542Y0254726D03*
X0318542Y0114774D03*
X0318542Y0092726D03*
X0189606Y0092726D03*
X0176543Y0092726D03*
X0176543Y0114774D03*
X0189606Y0114774D03*
X0047606Y0114774D03*
X0047606Y0092726D03*
D16*
X0062074Y0097844D03*
X0062074Y0101781D03*
X0062074Y0105718D03*
X0062074Y0109655D03*
X0162074Y0109655D03*
X0162074Y0105718D03*
X0162074Y0101781D03*
X0162074Y0097844D03*
X0204074Y0097844D03*
X0204074Y0101781D03*
X0204074Y0105718D03*
X0204074Y0109655D03*
X0304074Y0109655D03*
X0304074Y0105718D03*
X0304074Y0101781D03*
X0304074Y0097844D03*
X0304074Y0259844D03*
X0304074Y0263781D03*
X0304074Y0267718D03*
X0304074Y0271655D03*
X0204074Y0271655D03*
X0204074Y0267718D03*
X0204074Y0263781D03*
X0204074Y0259844D03*
X0162074Y0259844D03*
X0162074Y0263781D03*
X0162074Y0267718D03*
X0162074Y0271655D03*
X0062074Y0271655D03*
X0062074Y0267718D03*
X0062074Y0263781D03*
X0062074Y0259844D03*
D17*
X0072244Y0309372D02*
X0072244Y0312128D01*
X0075000Y0312128D01*
X0075000Y0309372D01*
X0072244Y0309372D01*
X0072244Y0310494D02*
X0075000Y0310494D01*
X0075000Y0311616D02*
X0072244Y0311616D01*
X0079149Y0312128D02*
X0079149Y0309372D01*
X0079149Y0312128D02*
X0081905Y0312128D01*
X0081905Y0309372D01*
X0079149Y0309372D01*
X0079149Y0310494D02*
X0081905Y0310494D01*
X0081905Y0311616D02*
X0079149Y0311616D01*
X0134466Y0284244D02*
X0136852Y0285622D01*
X0138230Y0283236D01*
X0135844Y0281858D01*
X0134466Y0284244D01*
X0135196Y0282980D02*
X0137787Y0282980D01*
X0137730Y0284102D02*
X0134548Y0284102D01*
X0136163Y0285224D02*
X0137082Y0285224D01*
X0140305Y0279642D02*
X0137919Y0278264D01*
X0140305Y0279642D02*
X0141683Y0277256D01*
X0139297Y0275878D01*
X0137919Y0278264D01*
X0138649Y0277000D02*
X0141240Y0277000D01*
X0141183Y0278122D02*
X0138001Y0278122D01*
X0139616Y0279244D02*
X0140535Y0279244D01*
X0142243Y0309372D02*
X0142243Y0312128D01*
X0144999Y0312128D01*
X0144999Y0309372D01*
X0142243Y0309372D01*
X0142243Y0310494D02*
X0144999Y0310494D01*
X0144999Y0311616D02*
X0142243Y0311616D01*
X0149149Y0312128D02*
X0149149Y0309372D01*
X0149149Y0312128D02*
X0151905Y0312128D01*
X0151905Y0309372D01*
X0149149Y0309372D01*
X0149149Y0310494D02*
X0151905Y0310494D01*
X0151905Y0311616D02*
X0149149Y0311616D01*
X0214243Y0312128D02*
X0214243Y0309372D01*
X0214243Y0312128D02*
X0216999Y0312128D01*
X0216999Y0309372D01*
X0214243Y0309372D01*
X0214243Y0310494D02*
X0216999Y0310494D01*
X0216999Y0311616D02*
X0214243Y0311616D01*
X0221149Y0312128D02*
X0221149Y0309372D01*
X0221149Y0312128D02*
X0223905Y0312128D01*
X0223905Y0309372D01*
X0221149Y0309372D01*
X0221149Y0310494D02*
X0223905Y0310494D01*
X0223905Y0311616D02*
X0221149Y0311616D01*
X0276466Y0284244D02*
X0278852Y0285622D01*
X0280230Y0283236D01*
X0277844Y0281858D01*
X0276466Y0284244D01*
X0277196Y0282980D02*
X0279787Y0282980D01*
X0279730Y0284102D02*
X0276548Y0284102D01*
X0278163Y0285224D02*
X0279082Y0285224D01*
X0282304Y0279642D02*
X0279918Y0278264D01*
X0282304Y0279642D02*
X0283682Y0277256D01*
X0281296Y0275878D01*
X0279918Y0278264D01*
X0280648Y0277000D02*
X0283239Y0277000D01*
X0283182Y0278122D02*
X0280000Y0278122D01*
X0281615Y0279244D02*
X0282534Y0279244D01*
X0284243Y0309372D02*
X0284243Y0312128D01*
X0286999Y0312128D01*
X0286999Y0309372D01*
X0284243Y0309372D01*
X0284243Y0310494D02*
X0286999Y0310494D01*
X0286999Y0311616D02*
X0284243Y0311616D01*
X0291149Y0312128D02*
X0291149Y0309372D01*
X0291149Y0312128D02*
X0293905Y0312128D01*
X0293905Y0309372D01*
X0291149Y0309372D01*
X0291149Y0310494D02*
X0293905Y0310494D01*
X0293905Y0311616D02*
X0291149Y0311616D01*
X0291149Y0150128D02*
X0291149Y0147372D01*
X0291149Y0150128D02*
X0293905Y0150128D01*
X0293905Y0147372D01*
X0291149Y0147372D01*
X0291149Y0148494D02*
X0293905Y0148494D01*
X0293905Y0149616D02*
X0291149Y0149616D01*
X0284243Y0150128D02*
X0284243Y0147372D01*
X0284243Y0150128D02*
X0286999Y0150128D01*
X0286999Y0147372D01*
X0284243Y0147372D01*
X0284243Y0148494D02*
X0286999Y0148494D01*
X0286999Y0149616D02*
X0284243Y0149616D01*
X0278852Y0123622D02*
X0276466Y0122244D01*
X0278852Y0123622D02*
X0280230Y0121236D01*
X0277844Y0119858D01*
X0276466Y0122244D01*
X0277196Y0120980D02*
X0279787Y0120980D01*
X0279730Y0122102D02*
X0276548Y0122102D01*
X0278163Y0123224D02*
X0279082Y0123224D01*
X0282304Y0117642D02*
X0279918Y0116264D01*
X0282304Y0117642D02*
X0283682Y0115256D01*
X0281296Y0113878D01*
X0279918Y0116264D01*
X0280648Y0115000D02*
X0283239Y0115000D01*
X0283182Y0116122D02*
X0280000Y0116122D01*
X0281615Y0117244D02*
X0282534Y0117244D01*
X0221149Y0147372D02*
X0221149Y0150128D01*
X0223905Y0150128D01*
X0223905Y0147372D01*
X0221149Y0147372D01*
X0221149Y0148494D02*
X0223905Y0148494D01*
X0223905Y0149616D02*
X0221149Y0149616D01*
X0214243Y0150128D02*
X0214243Y0147372D01*
X0214243Y0150128D02*
X0216999Y0150128D01*
X0216999Y0147372D01*
X0214243Y0147372D01*
X0214243Y0148494D02*
X0216999Y0148494D01*
X0216999Y0149616D02*
X0214243Y0149616D01*
X0149149Y0150128D02*
X0149149Y0147372D01*
X0149149Y0150128D02*
X0151905Y0150128D01*
X0151905Y0147372D01*
X0149149Y0147372D01*
X0149149Y0148494D02*
X0151905Y0148494D01*
X0151905Y0149616D02*
X0149149Y0149616D01*
X0142243Y0150128D02*
X0142243Y0147372D01*
X0142243Y0150128D02*
X0144999Y0150128D01*
X0144999Y0147372D01*
X0142243Y0147372D01*
X0142243Y0148494D02*
X0144999Y0148494D01*
X0144999Y0149616D02*
X0142243Y0149616D01*
X0136852Y0123622D02*
X0134466Y0122244D01*
X0136852Y0123622D02*
X0138230Y0121236D01*
X0135844Y0119858D01*
X0134466Y0122244D01*
X0135196Y0120980D02*
X0137787Y0120980D01*
X0137730Y0122102D02*
X0134548Y0122102D01*
X0136163Y0123224D02*
X0137082Y0123224D01*
X0140305Y0117642D02*
X0137919Y0116264D01*
X0140305Y0117642D02*
X0141683Y0115256D01*
X0139297Y0113878D01*
X0137919Y0116264D01*
X0138649Y0115000D02*
X0141240Y0115000D01*
X0141183Y0116122D02*
X0138001Y0116122D01*
X0139616Y0117244D02*
X0140535Y0117244D01*
X0079149Y0147372D02*
X0079149Y0150128D01*
X0081905Y0150128D01*
X0081905Y0147372D01*
X0079149Y0147372D01*
X0079149Y0148494D02*
X0081905Y0148494D01*
X0081905Y0149616D02*
X0079149Y0149616D01*
X0072244Y0150128D02*
X0072244Y0147372D01*
X0072244Y0150128D02*
X0075000Y0150128D01*
X0075000Y0147372D01*
X0072244Y0147372D01*
X0072244Y0148494D02*
X0075000Y0148494D01*
X0075000Y0149616D02*
X0072244Y0149616D01*
D18*
G36*
X0090266Y0123614D02*
X0089085Y0121569D01*
X0087040Y0122750D01*
X0088221Y0124795D01*
X0090266Y0123614D01*
G37*
G36*
X0088298Y0120205D02*
X0087117Y0118160D01*
X0085072Y0119341D01*
X0086253Y0121386D01*
X0088298Y0120205D01*
G37*
G36*
X0085345Y0115090D02*
X0084164Y0113045D01*
X0082119Y0114226D01*
X0083300Y0116271D01*
X0085345Y0115090D01*
G37*
G36*
X0227345Y0115090D02*
X0226164Y0113045D01*
X0224119Y0114226D01*
X0225300Y0116271D01*
X0227345Y0115090D01*
G37*
G36*
X0230298Y0120205D02*
X0229117Y0118160D01*
X0227072Y0119341D01*
X0228253Y0121386D01*
X0230298Y0120205D01*
G37*
G36*
X0232266Y0123614D02*
X0231085Y0121569D01*
X0229040Y0122750D01*
X0230221Y0124795D01*
X0232266Y0123614D01*
G37*
G36*
X0227345Y0277090D02*
X0226164Y0275045D01*
X0224119Y0276226D01*
X0225300Y0278271D01*
X0227345Y0277090D01*
G37*
G36*
X0230298Y0282204D02*
X0229117Y0280159D01*
X0227072Y0281340D01*
X0228253Y0283385D01*
X0230298Y0282204D01*
G37*
G36*
X0232266Y0285614D02*
X0231085Y0283569D01*
X0229040Y0284750D01*
X0230221Y0286795D01*
X0232266Y0285614D01*
G37*
G36*
X0090266Y0285614D02*
X0089085Y0283569D01*
X0087040Y0284750D01*
X0088221Y0286795D01*
X0090266Y0285614D01*
G37*
G36*
X0088298Y0282204D02*
X0087117Y0280159D01*
X0085072Y0281340D01*
X0086253Y0283385D01*
X0088298Y0282204D01*
G37*
G36*
X0085345Y0277090D02*
X0084164Y0275045D01*
X0082119Y0276226D01*
X0083300Y0278271D01*
X0085345Y0277090D01*
G37*
D19*
X0106464Y0235750D03*
X0117685Y0235750D03*
X0248464Y0235750D03*
X0259684Y0235750D03*
X0259684Y0073750D03*
X0248464Y0073750D03*
X0117685Y0073750D03*
X0106464Y0073750D03*
M02*
