G04 EAGLE Gerber RS-274X export*
G75*
%MOMM*%
%FSLAX34Y34*%
%LPD*%
%INSoldermask Bottom*%
%IPPOS*%
%AMOC8*
5,1,8,0,0,1.08239X$1,22.5*%
G01*
%ADD10C,2.082800*%
%ADD11R,0.838200X1.473200*%
%ADD12C,3.505200*%
%ADD13C,1.221313*%
%ADD14C,1.203200*%
%ADD15C,0.965200*%


D10*
X241300Y12700D03*
X215900Y12700D03*
X190500Y12700D03*
X165100Y12700D03*
D11*
X97536Y304800D03*
X105664Y304800D03*
D12*
X279400Y381000D03*
X76200Y381000D03*
D10*
X139700Y12700D03*
X114300Y12700D03*
X241300Y393699D03*
X215900Y393699D03*
X190500Y393699D03*
X165100Y393699D03*
X139700Y393699D03*
X114300Y393699D03*
D13*
X165100Y368299D03*
X165100Y342899D03*
X165100Y317499D03*
X190500Y368299D03*
X190500Y342899D03*
X190500Y317499D03*
D10*
X67310Y240461D03*
X80010Y262458D03*
X275589Y261188D03*
X288289Y239191D03*
X190500Y69850D03*
X165100Y69850D03*
D12*
X279400Y25400D03*
X76200Y25400D03*
D14*
X342900Y393700D03*
X12700Y12700D03*
D15*
X139700Y266700D03*
D10*
X601979Y12700D03*
X576579Y12700D03*
X551179Y12700D03*
X525779Y12700D03*
D11*
X458215Y304800D03*
X466343Y304800D03*
D12*
X640079Y381000D03*
X436879Y381000D03*
D10*
X500379Y12700D03*
X474979Y12700D03*
X601979Y393699D03*
X576579Y393699D03*
X551179Y393699D03*
X525779Y393699D03*
X500379Y393699D03*
X474979Y393699D03*
D13*
X525779Y368299D03*
X525779Y342899D03*
X525779Y317499D03*
X551179Y368299D03*
X551179Y342899D03*
X551179Y317499D03*
D10*
X427990Y240461D03*
X440690Y262458D03*
X636269Y261188D03*
X648969Y239191D03*
X551179Y69850D03*
X525779Y69850D03*
D12*
X640079Y25400D03*
X436879Y25400D03*
D14*
X703579Y393700D03*
X373379Y12700D03*
D15*
X500379Y266700D03*
D10*
X241300Y424180D03*
X215900Y424180D03*
X190500Y424180D03*
X165100Y424180D03*
D11*
X97536Y716279D03*
X105664Y716279D03*
D12*
X279400Y792479D03*
X76200Y792479D03*
D10*
X139700Y424180D03*
X114300Y424180D03*
X241300Y805179D03*
X215900Y805179D03*
X190500Y805179D03*
X165100Y805179D03*
X139700Y805179D03*
X114300Y805179D03*
D13*
X165100Y779779D03*
X165100Y754379D03*
X165100Y728979D03*
X190500Y779779D03*
X190500Y754379D03*
X190500Y728979D03*
D10*
X67310Y651940D03*
X80010Y673937D03*
X275589Y672668D03*
X288289Y650671D03*
X190500Y481330D03*
X165100Y481330D03*
D12*
X279400Y436879D03*
X76200Y436879D03*
D14*
X342900Y805179D03*
X12700Y424179D03*
D15*
X139700Y678179D03*
D10*
X601979Y424180D03*
X576579Y424180D03*
X551179Y424180D03*
X525779Y424180D03*
D11*
X458215Y716279D03*
X466343Y716279D03*
D12*
X640079Y792479D03*
X436879Y792479D03*
D10*
X500379Y424180D03*
X474979Y424180D03*
X601979Y805179D03*
X576579Y805179D03*
X551179Y805179D03*
X525779Y805179D03*
X500379Y805179D03*
X474979Y805179D03*
D13*
X525779Y779779D03*
X525779Y754379D03*
X525779Y728979D03*
X551179Y779779D03*
X551179Y754379D03*
X551179Y728979D03*
D10*
X427990Y651940D03*
X440690Y673937D03*
X636269Y672668D03*
X648969Y650671D03*
X551179Y481330D03*
X525779Y481330D03*
D12*
X640079Y436879D03*
X436879Y436879D03*
D14*
X703579Y805179D03*
X373379Y424179D03*
D15*
X500379Y678179D03*
M02*
