G04 EAGLE Gerber RS-274X export*
G75*
%MOMM*%
%FSLAX34Y34*%
%LPD*%
%INBoardOutline*%
%IPPOS*%
%AMOC8*
5,1,8,0,0,1.08239X$1,22.5*%
G01*
%ADD10C,0.203200*%
%ADD11C,0.381000*%
%ADD12C,0.279400*%
%ADD13C,0.254000*%
%ADD14C,0.000000*%


D10*
X0Y0D02*
X0Y406399D01*
X355599Y406399D01*
X355599Y0D01*
X0Y0D01*
X360680Y0D02*
X360680Y406399D01*
X716279Y406399D01*
X716279Y0D01*
X360680Y0D01*
X0Y411480D02*
X0Y817879D01*
X355599Y817879D01*
X355599Y411480D01*
X0Y411480D01*
X360680Y411480D02*
X360680Y817879D01*
X716279Y817879D01*
X716279Y411480D01*
X360680Y411480D01*
D11*
X-2540Y-68580D02*
X-2540Y949959D01*
D12*
X-42921Y965326D02*
X-46251Y975317D01*
X-39590Y975317D02*
X-42921Y965326D01*
X-32806Y971154D02*
X-22815Y971154D01*
X-14261Y971154D02*
X-10098Y969489D01*
X-14261Y971153D02*
X-14346Y971189D01*
X-14429Y971229D01*
X-14510Y971272D01*
X-14590Y971319D01*
X-14667Y971369D01*
X-14743Y971422D01*
X-14816Y971478D01*
X-14886Y971538D01*
X-14954Y971600D01*
X-15019Y971665D01*
X-15081Y971733D01*
X-15141Y971804D01*
X-15197Y971877D01*
X-15250Y971952D01*
X-15300Y972030D01*
X-15346Y972109D01*
X-15389Y972191D01*
X-15429Y972274D01*
X-15465Y972359D01*
X-15497Y972445D01*
X-15526Y972533D01*
X-15550Y972622D01*
X-15571Y972712D01*
X-15588Y972802D01*
X-15602Y972893D01*
X-15611Y972985D01*
X-15616Y973077D01*
X-15618Y973169D01*
X-15616Y973261D01*
X-15609Y973353D01*
X-15599Y973445D01*
X-15585Y973536D01*
X-15567Y973627D01*
X-15545Y973716D01*
X-15519Y973805D01*
X-15489Y973892D01*
X-15456Y973978D01*
X-15419Y974062D01*
X-15379Y974145D01*
X-15335Y974226D01*
X-15288Y974305D01*
X-15237Y974382D01*
X-15183Y974457D01*
X-15126Y974530D01*
X-15066Y974600D01*
X-15003Y974667D01*
X-14937Y974731D01*
X-14869Y974793D01*
X-14798Y974852D01*
X-14724Y974907D01*
X-14648Y974960D01*
X-14570Y975009D01*
X-14490Y975055D01*
X-14409Y975097D01*
X-14325Y975136D01*
X-14240Y975171D01*
X-14153Y975202D01*
X-14065Y975230D01*
X-13976Y975254D01*
X-13886Y975274D01*
X-13796Y975291D01*
X-13704Y975303D01*
X-13612Y975312D01*
X-13520Y975316D01*
X-13428Y975317D01*
X-13201Y975311D01*
X-12974Y975300D01*
X-12747Y975283D01*
X-12521Y975260D01*
X-12295Y975233D01*
X-12070Y975199D01*
X-11846Y975161D01*
X-11623Y975117D01*
X-11401Y975068D01*
X-11180Y975013D01*
X-10961Y974953D01*
X-10743Y974888D01*
X-10527Y974817D01*
X-10313Y974742D01*
X-10100Y974661D01*
X-9890Y974575D01*
X-9681Y974484D01*
X-10098Y969489D02*
X-10013Y969453D01*
X-9930Y969413D01*
X-9849Y969370D01*
X-9769Y969323D01*
X-9692Y969273D01*
X-9616Y969220D01*
X-9543Y969164D01*
X-9473Y969104D01*
X-9405Y969042D01*
X-9340Y968977D01*
X-9278Y968909D01*
X-9218Y968838D01*
X-9162Y968765D01*
X-9109Y968690D01*
X-9059Y968612D01*
X-9013Y968533D01*
X-8970Y968451D01*
X-8930Y968368D01*
X-8894Y968283D01*
X-8862Y968197D01*
X-8833Y968109D01*
X-8809Y968020D01*
X-8788Y967930D01*
X-8771Y967840D01*
X-8757Y967749D01*
X-8748Y967657D01*
X-8743Y967565D01*
X-8741Y967473D01*
X-8743Y967381D01*
X-8750Y967289D01*
X-8760Y967197D01*
X-8774Y967106D01*
X-8792Y967015D01*
X-8814Y966926D01*
X-8840Y966837D01*
X-8870Y966750D01*
X-8903Y966664D01*
X-8940Y966580D01*
X-8980Y966497D01*
X-9024Y966416D01*
X-9071Y966337D01*
X-9122Y966260D01*
X-9176Y966185D01*
X-9233Y966112D01*
X-9293Y966042D01*
X-9356Y965975D01*
X-9422Y965911D01*
X-9490Y965849D01*
X-9561Y965790D01*
X-9635Y965735D01*
X-9711Y965682D01*
X-9789Y965633D01*
X-9869Y965587D01*
X-9950Y965545D01*
X-10034Y965506D01*
X-10119Y965471D01*
X-10206Y965440D01*
X-10294Y965412D01*
X-10383Y965388D01*
X-10473Y965368D01*
X-10563Y965351D01*
X-10655Y965339D01*
X-10747Y965330D01*
X-10839Y965326D01*
X-10931Y965325D01*
X-10931Y965326D02*
X-11265Y965335D01*
X-11598Y965352D01*
X-11931Y965376D01*
X-12264Y965409D01*
X-12595Y965449D01*
X-12926Y965497D01*
X-13255Y965553D01*
X-13583Y965616D01*
X-13909Y965688D01*
X-14233Y965767D01*
X-14556Y965853D01*
X-14876Y965948D01*
X-15194Y966050D01*
X-15510Y966159D01*
X562Y965326D02*
X3892Y965326D01*
X562Y965326D02*
X464Y965328D01*
X366Y965334D01*
X268Y965343D01*
X171Y965357D01*
X75Y965374D01*
X-21Y965395D01*
X-116Y965420D01*
X-210Y965448D01*
X-303Y965480D01*
X-394Y965516D01*
X-484Y965555D01*
X-572Y965598D01*
X-659Y965645D01*
X-743Y965694D01*
X-826Y965747D01*
X-906Y965803D01*
X-985Y965862D01*
X-1060Y965925D01*
X-1134Y965990D01*
X-1204Y966058D01*
X-1272Y966128D01*
X-1338Y966202D01*
X-1400Y966278D01*
X-1459Y966356D01*
X-1515Y966436D01*
X-1568Y966519D01*
X-1618Y966603D01*
X-1664Y966690D01*
X-1707Y966778D01*
X-1746Y966868D01*
X-1782Y966959D01*
X-1814Y967052D01*
X-1842Y967146D01*
X-1867Y967241D01*
X-1888Y967337D01*
X-1905Y967433D01*
X-1919Y967530D01*
X-1928Y967628D01*
X-1934Y967726D01*
X-1936Y967824D01*
X-1936Y972819D01*
X-1934Y972917D01*
X-1928Y973015D01*
X-1919Y973113D01*
X-1905Y973210D01*
X-1888Y973306D01*
X-1867Y973402D01*
X-1842Y973497D01*
X-1814Y973591D01*
X-1782Y973684D01*
X-1746Y973775D01*
X-1707Y973865D01*
X-1664Y973953D01*
X-1617Y974040D01*
X-1568Y974124D01*
X-1515Y974207D01*
X-1459Y974287D01*
X-1400Y974365D01*
X-1337Y974441D01*
X-1272Y974515D01*
X-1204Y974585D01*
X-1134Y974653D01*
X-1060Y974718D01*
X-984Y974781D01*
X-906Y974840D01*
X-826Y974896D01*
X-743Y974949D01*
X-659Y974998D01*
X-572Y975045D01*
X-484Y975088D01*
X-394Y975127D01*
X-303Y975163D01*
X-210Y975195D01*
X-116Y975223D01*
X-21Y975248D01*
X75Y975269D01*
X171Y975286D01*
X268Y975300D01*
X366Y975309D01*
X464Y975315D01*
X562Y975317D01*
X3892Y975317D01*
X10022Y971986D02*
X10022Y968656D01*
X10022Y971986D02*
X10024Y972100D01*
X10030Y972213D01*
X10039Y972327D01*
X10053Y972439D01*
X10070Y972552D01*
X10092Y972664D01*
X10117Y972774D01*
X10145Y972884D01*
X10178Y972993D01*
X10214Y973101D01*
X10254Y973208D01*
X10298Y973313D01*
X10345Y973416D01*
X10395Y973518D01*
X10449Y973618D01*
X10507Y973716D01*
X10568Y973812D01*
X10631Y973906D01*
X10699Y973998D01*
X10769Y974088D01*
X10842Y974174D01*
X10918Y974259D01*
X10997Y974341D01*
X11079Y974420D01*
X11164Y974496D01*
X11250Y974569D01*
X11340Y974639D01*
X11432Y974707D01*
X11526Y974770D01*
X11622Y974831D01*
X11720Y974889D01*
X11820Y974943D01*
X11922Y974993D01*
X12025Y975040D01*
X12130Y975084D01*
X12237Y975124D01*
X12345Y975160D01*
X12454Y975193D01*
X12564Y975221D01*
X12674Y975246D01*
X12786Y975268D01*
X12899Y975285D01*
X13011Y975299D01*
X13125Y975308D01*
X13238Y975314D01*
X13352Y975316D01*
X13466Y975314D01*
X13579Y975308D01*
X13693Y975299D01*
X13805Y975285D01*
X13918Y975268D01*
X14030Y975246D01*
X14140Y975221D01*
X14250Y975193D01*
X14359Y975160D01*
X14467Y975124D01*
X14574Y975084D01*
X14679Y975040D01*
X14782Y974993D01*
X14884Y974943D01*
X14984Y974889D01*
X15082Y974831D01*
X15178Y974770D01*
X15272Y974707D01*
X15364Y974639D01*
X15454Y974569D01*
X15540Y974496D01*
X15625Y974420D01*
X15707Y974341D01*
X15786Y974259D01*
X15862Y974174D01*
X15935Y974088D01*
X16005Y973998D01*
X16073Y973906D01*
X16136Y973812D01*
X16197Y973716D01*
X16255Y973618D01*
X16309Y973518D01*
X16359Y973416D01*
X16406Y973313D01*
X16450Y973208D01*
X16490Y973101D01*
X16526Y972993D01*
X16559Y972884D01*
X16587Y972774D01*
X16612Y972664D01*
X16634Y972552D01*
X16651Y972439D01*
X16665Y972327D01*
X16674Y972213D01*
X16680Y972100D01*
X16682Y971986D01*
X16682Y968656D01*
X16680Y968542D01*
X16674Y968429D01*
X16665Y968315D01*
X16651Y968203D01*
X16634Y968090D01*
X16612Y967978D01*
X16587Y967868D01*
X16559Y967758D01*
X16526Y967649D01*
X16490Y967541D01*
X16450Y967434D01*
X16406Y967329D01*
X16359Y967226D01*
X16309Y967124D01*
X16255Y967024D01*
X16197Y966926D01*
X16136Y966830D01*
X16073Y966736D01*
X16005Y966644D01*
X15935Y966554D01*
X15862Y966468D01*
X15786Y966383D01*
X15707Y966301D01*
X15625Y966222D01*
X15540Y966146D01*
X15454Y966073D01*
X15364Y966003D01*
X15272Y965935D01*
X15178Y965872D01*
X15082Y965811D01*
X14984Y965753D01*
X14884Y965699D01*
X14782Y965649D01*
X14679Y965602D01*
X14574Y965558D01*
X14467Y965518D01*
X14359Y965482D01*
X14250Y965449D01*
X14140Y965421D01*
X14030Y965396D01*
X13918Y965374D01*
X13805Y965357D01*
X13693Y965343D01*
X13579Y965334D01*
X13466Y965328D01*
X13352Y965326D01*
X13238Y965328D01*
X13125Y965334D01*
X13011Y965343D01*
X12899Y965357D01*
X12786Y965374D01*
X12674Y965396D01*
X12564Y965421D01*
X12454Y965449D01*
X12345Y965482D01*
X12237Y965518D01*
X12130Y965558D01*
X12025Y965602D01*
X11922Y965649D01*
X11820Y965699D01*
X11720Y965753D01*
X11622Y965811D01*
X11526Y965872D01*
X11432Y965935D01*
X11340Y966003D01*
X11250Y966073D01*
X11164Y966146D01*
X11079Y966222D01*
X10997Y966301D01*
X10918Y966383D01*
X10842Y966468D01*
X10769Y966554D01*
X10699Y966644D01*
X10631Y966736D01*
X10568Y966830D01*
X10507Y966926D01*
X10449Y967024D01*
X10395Y967124D01*
X10345Y967226D01*
X10298Y967329D01*
X10254Y967434D01*
X10214Y967541D01*
X10178Y967649D01*
X10145Y967758D01*
X10117Y967868D01*
X10092Y967978D01*
X10070Y968090D01*
X10053Y968203D01*
X10039Y968315D01*
X10030Y968429D01*
X10024Y968542D01*
X10022Y968656D01*
X24218Y965326D02*
X24218Y975317D01*
X29213Y975317D01*
X29213Y973652D01*
X37008Y965326D02*
X41171Y965326D01*
X37008Y965326D02*
X36910Y965328D01*
X36812Y965334D01*
X36714Y965343D01*
X36617Y965357D01*
X36521Y965374D01*
X36425Y965395D01*
X36330Y965420D01*
X36236Y965448D01*
X36143Y965480D01*
X36052Y965516D01*
X35962Y965555D01*
X35874Y965598D01*
X35787Y965645D01*
X35703Y965694D01*
X35620Y965747D01*
X35540Y965803D01*
X35462Y965862D01*
X35386Y965925D01*
X35312Y965990D01*
X35242Y966058D01*
X35174Y966128D01*
X35109Y966202D01*
X35046Y966278D01*
X34987Y966356D01*
X34931Y966436D01*
X34878Y966519D01*
X34829Y966603D01*
X34782Y966690D01*
X34739Y966778D01*
X34700Y966868D01*
X34664Y966959D01*
X34632Y967052D01*
X34604Y967146D01*
X34579Y967241D01*
X34558Y967337D01*
X34541Y967433D01*
X34527Y967530D01*
X34518Y967628D01*
X34512Y967726D01*
X34510Y967824D01*
X34510Y971986D01*
X34511Y971986D02*
X34513Y972100D01*
X34519Y972213D01*
X34528Y972327D01*
X34542Y972439D01*
X34559Y972552D01*
X34581Y972664D01*
X34606Y972774D01*
X34634Y972884D01*
X34667Y972993D01*
X34703Y973101D01*
X34743Y973208D01*
X34787Y973313D01*
X34834Y973416D01*
X34884Y973518D01*
X34938Y973618D01*
X34996Y973716D01*
X35057Y973812D01*
X35120Y973906D01*
X35188Y973998D01*
X35258Y974088D01*
X35331Y974174D01*
X35407Y974259D01*
X35486Y974341D01*
X35568Y974420D01*
X35653Y974496D01*
X35739Y974569D01*
X35829Y974639D01*
X35921Y974707D01*
X36015Y974770D01*
X36111Y974831D01*
X36209Y974889D01*
X36309Y974943D01*
X36411Y974993D01*
X36514Y975040D01*
X36619Y975084D01*
X36726Y975124D01*
X36834Y975160D01*
X36943Y975193D01*
X37053Y975221D01*
X37163Y975246D01*
X37275Y975268D01*
X37388Y975285D01*
X37500Y975299D01*
X37614Y975308D01*
X37727Y975314D01*
X37841Y975316D01*
X37955Y975314D01*
X38068Y975308D01*
X38182Y975299D01*
X38294Y975285D01*
X38407Y975268D01*
X38519Y975246D01*
X38629Y975221D01*
X38739Y975193D01*
X38848Y975160D01*
X38956Y975124D01*
X39063Y975084D01*
X39168Y975040D01*
X39271Y974993D01*
X39373Y974943D01*
X39473Y974889D01*
X39571Y974831D01*
X39667Y974770D01*
X39761Y974707D01*
X39853Y974639D01*
X39943Y974569D01*
X40029Y974496D01*
X40114Y974420D01*
X40196Y974341D01*
X40275Y974259D01*
X40351Y974174D01*
X40424Y974088D01*
X40494Y973998D01*
X40562Y973906D01*
X40625Y973812D01*
X40686Y973716D01*
X40744Y973618D01*
X40798Y973518D01*
X40848Y973416D01*
X40895Y973313D01*
X40939Y973208D01*
X40979Y973101D01*
X41015Y972993D01*
X41048Y972884D01*
X41076Y972774D01*
X41101Y972664D01*
X41123Y972552D01*
X41140Y972439D01*
X41154Y972327D01*
X41163Y972213D01*
X41169Y972100D01*
X41171Y971986D01*
X41171Y970321D01*
X34510Y970321D01*
D11*
X358140Y949959D02*
X358140Y-68580D01*
D12*
X317759Y965326D02*
X314429Y975317D01*
X321089Y975317D02*
X317759Y965326D01*
X327874Y971154D02*
X337864Y971154D01*
X346419Y971154D02*
X350582Y969489D01*
X346419Y971153D02*
X346334Y971189D01*
X346251Y971229D01*
X346170Y971272D01*
X346090Y971319D01*
X346013Y971369D01*
X345937Y971422D01*
X345864Y971478D01*
X345794Y971538D01*
X345726Y971600D01*
X345661Y971665D01*
X345599Y971733D01*
X345539Y971804D01*
X345483Y971877D01*
X345430Y971952D01*
X345380Y972030D01*
X345334Y972109D01*
X345291Y972191D01*
X345251Y972274D01*
X345215Y972359D01*
X345183Y972445D01*
X345154Y972533D01*
X345130Y972622D01*
X345109Y972712D01*
X345092Y972802D01*
X345078Y972893D01*
X345069Y972985D01*
X345064Y973077D01*
X345062Y973169D01*
X345064Y973261D01*
X345071Y973353D01*
X345081Y973445D01*
X345095Y973536D01*
X345113Y973627D01*
X345135Y973716D01*
X345161Y973805D01*
X345191Y973892D01*
X345224Y973978D01*
X345261Y974062D01*
X345301Y974145D01*
X345345Y974226D01*
X345392Y974305D01*
X345443Y974382D01*
X345497Y974457D01*
X345554Y974530D01*
X345614Y974600D01*
X345677Y974667D01*
X345743Y974731D01*
X345811Y974793D01*
X345882Y974852D01*
X345956Y974907D01*
X346032Y974960D01*
X346110Y975009D01*
X346190Y975055D01*
X346271Y975097D01*
X346355Y975136D01*
X346440Y975171D01*
X346527Y975202D01*
X346615Y975230D01*
X346704Y975254D01*
X346794Y975274D01*
X346884Y975291D01*
X346976Y975303D01*
X347068Y975312D01*
X347160Y975316D01*
X347252Y975317D01*
X347251Y975317D02*
X347478Y975311D01*
X347705Y975300D01*
X347932Y975283D01*
X348158Y975260D01*
X348384Y975233D01*
X348609Y975199D01*
X348833Y975161D01*
X349056Y975117D01*
X349278Y975068D01*
X349499Y975013D01*
X349718Y974953D01*
X349936Y974888D01*
X350152Y974817D01*
X350366Y974742D01*
X350579Y974661D01*
X350789Y974575D01*
X350998Y974484D01*
X350582Y969489D02*
X350667Y969453D01*
X350750Y969413D01*
X350831Y969370D01*
X350911Y969323D01*
X350988Y969273D01*
X351064Y969220D01*
X351137Y969164D01*
X351207Y969104D01*
X351275Y969042D01*
X351340Y968977D01*
X351402Y968909D01*
X351462Y968838D01*
X351518Y968765D01*
X351571Y968690D01*
X351621Y968612D01*
X351667Y968533D01*
X351710Y968451D01*
X351750Y968368D01*
X351786Y968283D01*
X351818Y968197D01*
X351847Y968109D01*
X351871Y968020D01*
X351892Y967930D01*
X351909Y967840D01*
X351923Y967749D01*
X351932Y967657D01*
X351937Y967565D01*
X351939Y967473D01*
X351937Y967381D01*
X351930Y967289D01*
X351920Y967197D01*
X351906Y967106D01*
X351888Y967015D01*
X351866Y966926D01*
X351840Y966837D01*
X351810Y966750D01*
X351777Y966664D01*
X351740Y966580D01*
X351700Y966497D01*
X351656Y966416D01*
X351609Y966337D01*
X351558Y966260D01*
X351504Y966185D01*
X351447Y966112D01*
X351387Y966042D01*
X351324Y965975D01*
X351258Y965911D01*
X351190Y965849D01*
X351119Y965790D01*
X351045Y965735D01*
X350969Y965682D01*
X350891Y965633D01*
X350811Y965587D01*
X350730Y965545D01*
X350646Y965506D01*
X350561Y965471D01*
X350474Y965440D01*
X350386Y965412D01*
X350297Y965388D01*
X350207Y965368D01*
X350117Y965351D01*
X350025Y965339D01*
X349933Y965330D01*
X349841Y965326D01*
X349749Y965325D01*
X349749Y965326D02*
X349415Y965335D01*
X349082Y965352D01*
X348749Y965376D01*
X348416Y965409D01*
X348085Y965449D01*
X347754Y965497D01*
X347425Y965553D01*
X347097Y965616D01*
X346771Y965688D01*
X346447Y965767D01*
X346124Y965853D01*
X345804Y965948D01*
X345486Y966050D01*
X345170Y966159D01*
X361241Y965326D02*
X364571Y965326D01*
X361241Y965326D02*
X361143Y965328D01*
X361045Y965334D01*
X360947Y965343D01*
X360850Y965357D01*
X360754Y965374D01*
X360658Y965395D01*
X360563Y965420D01*
X360469Y965448D01*
X360376Y965480D01*
X360285Y965516D01*
X360195Y965555D01*
X360107Y965598D01*
X360020Y965645D01*
X359936Y965694D01*
X359853Y965747D01*
X359773Y965803D01*
X359695Y965862D01*
X359619Y965925D01*
X359545Y965990D01*
X359475Y966058D01*
X359407Y966128D01*
X359342Y966202D01*
X359279Y966278D01*
X359220Y966356D01*
X359164Y966436D01*
X359111Y966519D01*
X359062Y966603D01*
X359015Y966690D01*
X358972Y966778D01*
X358933Y966868D01*
X358897Y966959D01*
X358865Y967052D01*
X358837Y967146D01*
X358812Y967241D01*
X358791Y967337D01*
X358774Y967433D01*
X358760Y967530D01*
X358751Y967628D01*
X358745Y967726D01*
X358743Y967824D01*
X358744Y967824D02*
X358744Y972819D01*
X358743Y972819D02*
X358745Y972917D01*
X358751Y973015D01*
X358760Y973113D01*
X358774Y973210D01*
X358791Y973306D01*
X358812Y973402D01*
X358837Y973497D01*
X358865Y973591D01*
X358897Y973684D01*
X358933Y973775D01*
X358972Y973865D01*
X359015Y973953D01*
X359062Y974040D01*
X359111Y974124D01*
X359164Y974207D01*
X359220Y974287D01*
X359279Y974366D01*
X359342Y974441D01*
X359407Y974515D01*
X359475Y974585D01*
X359545Y974653D01*
X359619Y974719D01*
X359695Y974781D01*
X359773Y974840D01*
X359853Y974896D01*
X359936Y974949D01*
X360020Y974999D01*
X360107Y975045D01*
X360195Y975088D01*
X360285Y975127D01*
X360376Y975163D01*
X360469Y975195D01*
X360563Y975223D01*
X360658Y975248D01*
X360754Y975269D01*
X360850Y975286D01*
X360947Y975300D01*
X361045Y975309D01*
X361143Y975315D01*
X361241Y975317D01*
X364571Y975317D01*
X370701Y971986D02*
X370701Y968656D01*
X370701Y971986D02*
X370703Y972100D01*
X370709Y972213D01*
X370718Y972327D01*
X370732Y972439D01*
X370749Y972552D01*
X370771Y972664D01*
X370796Y972774D01*
X370824Y972884D01*
X370857Y972993D01*
X370893Y973101D01*
X370933Y973208D01*
X370977Y973313D01*
X371024Y973416D01*
X371074Y973518D01*
X371128Y973618D01*
X371186Y973716D01*
X371247Y973812D01*
X371310Y973906D01*
X371378Y973998D01*
X371448Y974088D01*
X371521Y974174D01*
X371597Y974259D01*
X371676Y974341D01*
X371758Y974420D01*
X371843Y974496D01*
X371929Y974569D01*
X372019Y974639D01*
X372111Y974707D01*
X372205Y974770D01*
X372301Y974831D01*
X372399Y974889D01*
X372499Y974943D01*
X372601Y974993D01*
X372704Y975040D01*
X372809Y975084D01*
X372916Y975124D01*
X373024Y975160D01*
X373133Y975193D01*
X373243Y975221D01*
X373353Y975246D01*
X373465Y975268D01*
X373578Y975285D01*
X373690Y975299D01*
X373804Y975308D01*
X373917Y975314D01*
X374031Y975316D01*
X374145Y975314D01*
X374258Y975308D01*
X374372Y975299D01*
X374484Y975285D01*
X374597Y975268D01*
X374709Y975246D01*
X374819Y975221D01*
X374929Y975193D01*
X375038Y975160D01*
X375146Y975124D01*
X375253Y975084D01*
X375358Y975040D01*
X375461Y974993D01*
X375563Y974943D01*
X375663Y974889D01*
X375761Y974831D01*
X375857Y974770D01*
X375951Y974707D01*
X376043Y974639D01*
X376133Y974569D01*
X376219Y974496D01*
X376304Y974420D01*
X376386Y974341D01*
X376465Y974259D01*
X376541Y974174D01*
X376614Y974088D01*
X376684Y973998D01*
X376752Y973906D01*
X376815Y973812D01*
X376876Y973716D01*
X376934Y973618D01*
X376988Y973518D01*
X377038Y973416D01*
X377085Y973313D01*
X377129Y973208D01*
X377169Y973101D01*
X377205Y972993D01*
X377238Y972884D01*
X377266Y972774D01*
X377291Y972664D01*
X377313Y972552D01*
X377330Y972439D01*
X377344Y972327D01*
X377353Y972213D01*
X377359Y972100D01*
X377361Y971986D01*
X377361Y968656D01*
X377359Y968542D01*
X377353Y968429D01*
X377344Y968315D01*
X377330Y968203D01*
X377313Y968090D01*
X377291Y967978D01*
X377266Y967868D01*
X377238Y967758D01*
X377205Y967649D01*
X377169Y967541D01*
X377129Y967434D01*
X377085Y967329D01*
X377038Y967226D01*
X376988Y967124D01*
X376934Y967024D01*
X376876Y966926D01*
X376815Y966830D01*
X376752Y966736D01*
X376684Y966644D01*
X376614Y966554D01*
X376541Y966468D01*
X376465Y966383D01*
X376386Y966301D01*
X376304Y966222D01*
X376219Y966146D01*
X376133Y966073D01*
X376043Y966003D01*
X375951Y965935D01*
X375857Y965872D01*
X375761Y965811D01*
X375663Y965753D01*
X375563Y965699D01*
X375461Y965649D01*
X375358Y965602D01*
X375253Y965558D01*
X375146Y965518D01*
X375038Y965482D01*
X374929Y965449D01*
X374819Y965421D01*
X374709Y965396D01*
X374597Y965374D01*
X374484Y965357D01*
X374372Y965343D01*
X374258Y965334D01*
X374145Y965328D01*
X374031Y965326D01*
X373917Y965328D01*
X373804Y965334D01*
X373690Y965343D01*
X373578Y965357D01*
X373465Y965374D01*
X373353Y965396D01*
X373243Y965421D01*
X373133Y965449D01*
X373024Y965482D01*
X372916Y965518D01*
X372809Y965558D01*
X372704Y965602D01*
X372601Y965649D01*
X372499Y965699D01*
X372399Y965753D01*
X372301Y965811D01*
X372205Y965872D01*
X372111Y965935D01*
X372019Y966003D01*
X371929Y966073D01*
X371843Y966146D01*
X371758Y966222D01*
X371676Y966301D01*
X371597Y966383D01*
X371521Y966468D01*
X371448Y966554D01*
X371378Y966644D01*
X371310Y966736D01*
X371247Y966830D01*
X371186Y966926D01*
X371128Y967024D01*
X371074Y967124D01*
X371024Y967226D01*
X370977Y967329D01*
X370933Y967434D01*
X370893Y967541D01*
X370857Y967649D01*
X370824Y967758D01*
X370796Y967868D01*
X370771Y967978D01*
X370749Y968090D01*
X370732Y968203D01*
X370718Y968315D01*
X370709Y968429D01*
X370703Y968542D01*
X370701Y968656D01*
X384897Y965326D02*
X384897Y975317D01*
X389892Y975317D01*
X389892Y973652D01*
X397688Y965326D02*
X401850Y965326D01*
X397688Y965326D02*
X397590Y965328D01*
X397492Y965334D01*
X397394Y965343D01*
X397297Y965357D01*
X397201Y965374D01*
X397105Y965395D01*
X397010Y965420D01*
X396916Y965448D01*
X396823Y965480D01*
X396732Y965516D01*
X396642Y965555D01*
X396554Y965598D01*
X396467Y965645D01*
X396383Y965694D01*
X396300Y965747D01*
X396220Y965803D01*
X396142Y965862D01*
X396066Y965925D01*
X395992Y965990D01*
X395922Y966058D01*
X395854Y966128D01*
X395789Y966202D01*
X395726Y966278D01*
X395667Y966356D01*
X395611Y966436D01*
X395558Y966519D01*
X395509Y966603D01*
X395462Y966690D01*
X395419Y966778D01*
X395380Y966868D01*
X395344Y966959D01*
X395312Y967052D01*
X395284Y967146D01*
X395259Y967241D01*
X395238Y967337D01*
X395221Y967433D01*
X395207Y967530D01*
X395198Y967628D01*
X395192Y967726D01*
X395190Y967824D01*
X395190Y971986D01*
X395192Y972100D01*
X395198Y972213D01*
X395207Y972327D01*
X395221Y972439D01*
X395238Y972552D01*
X395260Y972664D01*
X395285Y972774D01*
X395313Y972884D01*
X395346Y972993D01*
X395382Y973101D01*
X395422Y973208D01*
X395466Y973313D01*
X395513Y973416D01*
X395563Y973518D01*
X395617Y973618D01*
X395675Y973716D01*
X395736Y973812D01*
X395799Y973906D01*
X395867Y973998D01*
X395937Y974088D01*
X396010Y974174D01*
X396086Y974259D01*
X396165Y974341D01*
X396247Y974420D01*
X396332Y974496D01*
X396418Y974569D01*
X396508Y974639D01*
X396600Y974707D01*
X396694Y974770D01*
X396790Y974831D01*
X396888Y974889D01*
X396988Y974943D01*
X397090Y974993D01*
X397193Y975040D01*
X397298Y975084D01*
X397405Y975124D01*
X397513Y975160D01*
X397622Y975193D01*
X397732Y975221D01*
X397842Y975246D01*
X397954Y975268D01*
X398067Y975285D01*
X398179Y975299D01*
X398293Y975308D01*
X398406Y975314D01*
X398520Y975316D01*
X398634Y975314D01*
X398747Y975308D01*
X398861Y975299D01*
X398973Y975285D01*
X399086Y975268D01*
X399198Y975246D01*
X399308Y975221D01*
X399418Y975193D01*
X399527Y975160D01*
X399635Y975124D01*
X399742Y975084D01*
X399847Y975040D01*
X399950Y974993D01*
X400052Y974943D01*
X400152Y974889D01*
X400250Y974831D01*
X400346Y974770D01*
X400440Y974707D01*
X400532Y974639D01*
X400622Y974569D01*
X400708Y974496D01*
X400793Y974420D01*
X400875Y974341D01*
X400954Y974259D01*
X401030Y974174D01*
X401103Y974088D01*
X401173Y973998D01*
X401241Y973906D01*
X401304Y973812D01*
X401365Y973716D01*
X401423Y973618D01*
X401477Y973518D01*
X401527Y973416D01*
X401574Y973313D01*
X401618Y973208D01*
X401658Y973101D01*
X401694Y972993D01*
X401727Y972884D01*
X401755Y972774D01*
X401780Y972664D01*
X401802Y972552D01*
X401819Y972439D01*
X401833Y972327D01*
X401842Y972213D01*
X401848Y972100D01*
X401850Y971986D01*
X401850Y970321D01*
X395190Y970321D01*
D11*
X718819Y949959D02*
X718819Y-68580D01*
D12*
X678438Y965326D02*
X675108Y975317D01*
X681769Y975317D02*
X678438Y965326D01*
X688553Y971154D02*
X698544Y971154D01*
X707098Y971154D02*
X711261Y969489D01*
X707098Y971153D02*
X707013Y971189D01*
X706930Y971229D01*
X706849Y971272D01*
X706769Y971319D01*
X706692Y971369D01*
X706616Y971422D01*
X706543Y971478D01*
X706473Y971538D01*
X706405Y971600D01*
X706340Y971665D01*
X706278Y971733D01*
X706218Y971804D01*
X706162Y971877D01*
X706109Y971952D01*
X706059Y972030D01*
X706013Y972109D01*
X705970Y972191D01*
X705930Y972274D01*
X705894Y972359D01*
X705862Y972445D01*
X705833Y972533D01*
X705809Y972622D01*
X705788Y972712D01*
X705771Y972802D01*
X705757Y972893D01*
X705748Y972985D01*
X705743Y973077D01*
X705741Y973169D01*
X705743Y973261D01*
X705750Y973353D01*
X705760Y973445D01*
X705774Y973536D01*
X705792Y973627D01*
X705814Y973716D01*
X705840Y973805D01*
X705870Y973892D01*
X705903Y973978D01*
X705940Y974062D01*
X705980Y974145D01*
X706024Y974226D01*
X706071Y974305D01*
X706122Y974382D01*
X706176Y974457D01*
X706233Y974530D01*
X706293Y974600D01*
X706356Y974667D01*
X706422Y974731D01*
X706490Y974793D01*
X706561Y974852D01*
X706635Y974907D01*
X706711Y974960D01*
X706789Y975009D01*
X706869Y975055D01*
X706950Y975097D01*
X707034Y975136D01*
X707119Y975171D01*
X707206Y975202D01*
X707294Y975230D01*
X707383Y975254D01*
X707473Y975274D01*
X707563Y975291D01*
X707655Y975303D01*
X707747Y975312D01*
X707839Y975316D01*
X707931Y975317D01*
X708158Y975311D01*
X708385Y975300D01*
X708612Y975283D01*
X708838Y975260D01*
X709064Y975233D01*
X709289Y975199D01*
X709513Y975161D01*
X709736Y975117D01*
X709958Y975068D01*
X710179Y975013D01*
X710398Y974953D01*
X710616Y974888D01*
X710832Y974817D01*
X711046Y974742D01*
X711259Y974661D01*
X711469Y974575D01*
X711678Y974484D01*
X711261Y969489D02*
X711346Y969453D01*
X711429Y969413D01*
X711510Y969370D01*
X711590Y969323D01*
X711667Y969273D01*
X711743Y969220D01*
X711816Y969164D01*
X711886Y969104D01*
X711954Y969042D01*
X712019Y968977D01*
X712081Y968909D01*
X712141Y968838D01*
X712197Y968765D01*
X712250Y968690D01*
X712300Y968612D01*
X712346Y968533D01*
X712389Y968451D01*
X712429Y968368D01*
X712465Y968283D01*
X712497Y968197D01*
X712526Y968109D01*
X712550Y968020D01*
X712571Y967930D01*
X712588Y967840D01*
X712602Y967749D01*
X712611Y967657D01*
X712616Y967565D01*
X712618Y967473D01*
X712616Y967381D01*
X712609Y967289D01*
X712599Y967197D01*
X712585Y967106D01*
X712567Y967015D01*
X712545Y966926D01*
X712519Y966837D01*
X712489Y966750D01*
X712456Y966664D01*
X712419Y966580D01*
X712379Y966497D01*
X712335Y966416D01*
X712288Y966337D01*
X712237Y966260D01*
X712183Y966185D01*
X712126Y966112D01*
X712066Y966042D01*
X712003Y965975D01*
X711937Y965911D01*
X711869Y965849D01*
X711798Y965790D01*
X711724Y965735D01*
X711648Y965682D01*
X711570Y965633D01*
X711490Y965587D01*
X711409Y965545D01*
X711325Y965506D01*
X711240Y965471D01*
X711153Y965440D01*
X711065Y965412D01*
X710976Y965388D01*
X710886Y965368D01*
X710796Y965351D01*
X710704Y965339D01*
X710612Y965330D01*
X710520Y965326D01*
X710428Y965325D01*
X710428Y965326D02*
X710094Y965335D01*
X709761Y965352D01*
X709428Y965376D01*
X709095Y965409D01*
X708764Y965449D01*
X708433Y965497D01*
X708104Y965553D01*
X707776Y965616D01*
X707450Y965688D01*
X707126Y965767D01*
X706803Y965853D01*
X706483Y965948D01*
X706165Y966050D01*
X705849Y966159D01*
X721921Y965326D02*
X725251Y965326D01*
X721921Y965326D02*
X721823Y965328D01*
X721725Y965334D01*
X721627Y965343D01*
X721530Y965357D01*
X721434Y965374D01*
X721338Y965395D01*
X721243Y965420D01*
X721149Y965448D01*
X721056Y965480D01*
X720965Y965516D01*
X720875Y965555D01*
X720787Y965598D01*
X720700Y965645D01*
X720616Y965694D01*
X720533Y965747D01*
X720453Y965803D01*
X720375Y965862D01*
X720299Y965925D01*
X720225Y965990D01*
X720155Y966058D01*
X720087Y966128D01*
X720022Y966202D01*
X719959Y966278D01*
X719900Y966356D01*
X719844Y966436D01*
X719791Y966519D01*
X719742Y966603D01*
X719695Y966690D01*
X719652Y966778D01*
X719613Y966868D01*
X719577Y966959D01*
X719545Y967052D01*
X719517Y967146D01*
X719492Y967241D01*
X719471Y967337D01*
X719454Y967433D01*
X719440Y967530D01*
X719431Y967628D01*
X719425Y967726D01*
X719423Y967824D01*
X719423Y972819D01*
X719425Y972917D01*
X719431Y973015D01*
X719440Y973113D01*
X719454Y973210D01*
X719471Y973306D01*
X719492Y973402D01*
X719517Y973497D01*
X719545Y973591D01*
X719577Y973684D01*
X719613Y973775D01*
X719652Y973865D01*
X719695Y973953D01*
X719742Y974040D01*
X719791Y974124D01*
X719844Y974207D01*
X719900Y974287D01*
X719959Y974366D01*
X720022Y974441D01*
X720087Y974515D01*
X720155Y974585D01*
X720225Y974653D01*
X720299Y974719D01*
X720375Y974781D01*
X720453Y974840D01*
X720533Y974896D01*
X720616Y974949D01*
X720700Y974999D01*
X720787Y975045D01*
X720875Y975088D01*
X720965Y975127D01*
X721056Y975163D01*
X721149Y975195D01*
X721243Y975223D01*
X721338Y975248D01*
X721434Y975269D01*
X721530Y975286D01*
X721627Y975300D01*
X721725Y975309D01*
X721823Y975315D01*
X721921Y975317D01*
X725251Y975317D01*
X731381Y971986D02*
X731381Y968656D01*
X731381Y971986D02*
X731383Y972100D01*
X731389Y972213D01*
X731398Y972327D01*
X731412Y972439D01*
X731429Y972552D01*
X731451Y972664D01*
X731476Y972774D01*
X731504Y972884D01*
X731537Y972993D01*
X731573Y973101D01*
X731613Y973208D01*
X731657Y973313D01*
X731704Y973416D01*
X731754Y973518D01*
X731808Y973618D01*
X731866Y973716D01*
X731927Y973812D01*
X731990Y973906D01*
X732058Y973998D01*
X732128Y974088D01*
X732201Y974174D01*
X732277Y974259D01*
X732356Y974341D01*
X732438Y974420D01*
X732523Y974496D01*
X732609Y974569D01*
X732699Y974639D01*
X732791Y974707D01*
X732885Y974770D01*
X732981Y974831D01*
X733079Y974889D01*
X733179Y974943D01*
X733281Y974993D01*
X733384Y975040D01*
X733489Y975084D01*
X733596Y975124D01*
X733704Y975160D01*
X733813Y975193D01*
X733923Y975221D01*
X734033Y975246D01*
X734145Y975268D01*
X734258Y975285D01*
X734370Y975299D01*
X734484Y975308D01*
X734597Y975314D01*
X734711Y975316D01*
X734825Y975314D01*
X734938Y975308D01*
X735052Y975299D01*
X735164Y975285D01*
X735277Y975268D01*
X735389Y975246D01*
X735499Y975221D01*
X735609Y975193D01*
X735718Y975160D01*
X735826Y975124D01*
X735933Y975084D01*
X736038Y975040D01*
X736141Y974993D01*
X736243Y974943D01*
X736343Y974889D01*
X736441Y974831D01*
X736537Y974770D01*
X736631Y974707D01*
X736723Y974639D01*
X736813Y974569D01*
X736899Y974496D01*
X736984Y974420D01*
X737066Y974341D01*
X737145Y974259D01*
X737221Y974174D01*
X737294Y974088D01*
X737364Y973998D01*
X737432Y973906D01*
X737495Y973812D01*
X737556Y973716D01*
X737614Y973618D01*
X737668Y973518D01*
X737718Y973416D01*
X737765Y973313D01*
X737809Y973208D01*
X737849Y973101D01*
X737885Y972993D01*
X737918Y972884D01*
X737946Y972774D01*
X737971Y972664D01*
X737993Y972552D01*
X738010Y972439D01*
X738024Y972327D01*
X738033Y972213D01*
X738039Y972100D01*
X738041Y971986D01*
X738041Y968656D01*
X738039Y968542D01*
X738033Y968429D01*
X738024Y968315D01*
X738010Y968203D01*
X737993Y968090D01*
X737971Y967978D01*
X737946Y967868D01*
X737918Y967758D01*
X737885Y967649D01*
X737849Y967541D01*
X737809Y967434D01*
X737765Y967329D01*
X737718Y967226D01*
X737668Y967124D01*
X737614Y967024D01*
X737556Y966926D01*
X737495Y966830D01*
X737432Y966736D01*
X737364Y966644D01*
X737294Y966554D01*
X737221Y966468D01*
X737145Y966383D01*
X737066Y966301D01*
X736984Y966222D01*
X736899Y966146D01*
X736813Y966073D01*
X736723Y966003D01*
X736631Y965935D01*
X736537Y965872D01*
X736441Y965811D01*
X736343Y965753D01*
X736243Y965699D01*
X736141Y965649D01*
X736038Y965602D01*
X735933Y965558D01*
X735826Y965518D01*
X735718Y965482D01*
X735609Y965449D01*
X735499Y965421D01*
X735389Y965396D01*
X735277Y965374D01*
X735164Y965357D01*
X735052Y965343D01*
X734938Y965334D01*
X734825Y965328D01*
X734711Y965326D01*
X734597Y965328D01*
X734484Y965334D01*
X734370Y965343D01*
X734258Y965357D01*
X734145Y965374D01*
X734033Y965396D01*
X733923Y965421D01*
X733813Y965449D01*
X733704Y965482D01*
X733596Y965518D01*
X733489Y965558D01*
X733384Y965602D01*
X733281Y965649D01*
X733179Y965699D01*
X733079Y965753D01*
X732981Y965811D01*
X732885Y965872D01*
X732791Y965935D01*
X732699Y966003D01*
X732609Y966073D01*
X732523Y966146D01*
X732438Y966222D01*
X732356Y966301D01*
X732277Y966383D01*
X732201Y966468D01*
X732128Y966554D01*
X732058Y966644D01*
X731990Y966736D01*
X731927Y966830D01*
X731866Y966926D01*
X731808Y967024D01*
X731754Y967124D01*
X731704Y967226D01*
X731657Y967329D01*
X731613Y967434D01*
X731573Y967541D01*
X731537Y967649D01*
X731504Y967758D01*
X731476Y967868D01*
X731451Y967978D01*
X731429Y968090D01*
X731412Y968203D01*
X731398Y968315D01*
X731389Y968429D01*
X731383Y968542D01*
X731381Y968656D01*
X745577Y965326D02*
X745577Y975317D01*
X750572Y975317D01*
X750572Y973652D01*
X758367Y965326D02*
X762530Y965326D01*
X758367Y965326D02*
X758269Y965328D01*
X758171Y965334D01*
X758073Y965343D01*
X757976Y965357D01*
X757880Y965374D01*
X757784Y965395D01*
X757689Y965420D01*
X757595Y965448D01*
X757502Y965480D01*
X757411Y965516D01*
X757321Y965555D01*
X757233Y965598D01*
X757146Y965645D01*
X757062Y965694D01*
X756979Y965747D01*
X756899Y965803D01*
X756821Y965862D01*
X756745Y965925D01*
X756671Y965990D01*
X756601Y966058D01*
X756533Y966128D01*
X756468Y966202D01*
X756405Y966278D01*
X756346Y966356D01*
X756290Y966436D01*
X756237Y966519D01*
X756188Y966603D01*
X756141Y966690D01*
X756098Y966778D01*
X756059Y966868D01*
X756023Y966959D01*
X755991Y967052D01*
X755963Y967146D01*
X755938Y967241D01*
X755917Y967337D01*
X755900Y967433D01*
X755886Y967530D01*
X755877Y967628D01*
X755871Y967726D01*
X755869Y967824D01*
X755869Y971986D01*
X755870Y971986D02*
X755872Y972100D01*
X755878Y972213D01*
X755887Y972327D01*
X755901Y972439D01*
X755918Y972552D01*
X755940Y972664D01*
X755965Y972774D01*
X755993Y972884D01*
X756026Y972993D01*
X756062Y973101D01*
X756102Y973208D01*
X756146Y973313D01*
X756193Y973416D01*
X756243Y973518D01*
X756297Y973618D01*
X756355Y973716D01*
X756416Y973812D01*
X756479Y973906D01*
X756547Y973998D01*
X756617Y974088D01*
X756690Y974174D01*
X756766Y974259D01*
X756845Y974341D01*
X756927Y974420D01*
X757012Y974496D01*
X757098Y974569D01*
X757188Y974639D01*
X757280Y974707D01*
X757374Y974770D01*
X757470Y974831D01*
X757568Y974889D01*
X757668Y974943D01*
X757770Y974993D01*
X757873Y975040D01*
X757978Y975084D01*
X758085Y975124D01*
X758193Y975160D01*
X758302Y975193D01*
X758412Y975221D01*
X758522Y975246D01*
X758634Y975268D01*
X758747Y975285D01*
X758859Y975299D01*
X758973Y975308D01*
X759086Y975314D01*
X759200Y975316D01*
X759314Y975314D01*
X759427Y975308D01*
X759541Y975299D01*
X759653Y975285D01*
X759766Y975268D01*
X759878Y975246D01*
X759988Y975221D01*
X760098Y975193D01*
X760207Y975160D01*
X760315Y975124D01*
X760422Y975084D01*
X760527Y975040D01*
X760630Y974993D01*
X760732Y974943D01*
X760832Y974889D01*
X760930Y974831D01*
X761026Y974770D01*
X761120Y974707D01*
X761212Y974639D01*
X761302Y974569D01*
X761388Y974496D01*
X761473Y974420D01*
X761555Y974341D01*
X761634Y974259D01*
X761710Y974174D01*
X761783Y974088D01*
X761853Y973998D01*
X761921Y973906D01*
X761984Y973812D01*
X762045Y973716D01*
X762103Y973618D01*
X762157Y973518D01*
X762207Y973416D01*
X762254Y973313D01*
X762298Y973208D01*
X762338Y973101D01*
X762374Y972993D01*
X762407Y972884D01*
X762435Y972774D01*
X762460Y972664D01*
X762482Y972552D01*
X762499Y972439D01*
X762513Y972327D01*
X762522Y972213D01*
X762528Y972100D01*
X762530Y971986D01*
X762530Y970321D01*
X755869Y970321D01*
D11*
X848359Y-2540D02*
X-68580Y-2540D01*
D12*
X880848Y-42D02*
X884178Y-10033D01*
X887509Y-42D01*
X894293Y-4205D02*
X904284Y-4205D01*
X912838Y-4205D02*
X917001Y-5870D01*
X912838Y-4206D02*
X912753Y-4170D01*
X912670Y-4130D01*
X912589Y-4087D01*
X912509Y-4040D01*
X912432Y-3990D01*
X912356Y-3937D01*
X912283Y-3881D01*
X912213Y-3821D01*
X912145Y-3759D01*
X912080Y-3694D01*
X912018Y-3626D01*
X911958Y-3555D01*
X911902Y-3482D01*
X911849Y-3407D01*
X911799Y-3329D01*
X911753Y-3250D01*
X911710Y-3168D01*
X911670Y-3085D01*
X911634Y-3000D01*
X911602Y-2914D01*
X911573Y-2826D01*
X911549Y-2737D01*
X911528Y-2647D01*
X911511Y-2557D01*
X911497Y-2466D01*
X911488Y-2374D01*
X911483Y-2282D01*
X911481Y-2190D01*
X911483Y-2098D01*
X911490Y-2006D01*
X911500Y-1914D01*
X911514Y-1823D01*
X911532Y-1732D01*
X911554Y-1643D01*
X911580Y-1554D01*
X911610Y-1467D01*
X911643Y-1381D01*
X911680Y-1297D01*
X911720Y-1214D01*
X911764Y-1133D01*
X911811Y-1054D01*
X911862Y-977D01*
X911916Y-902D01*
X911973Y-829D01*
X912033Y-759D01*
X912096Y-692D01*
X912162Y-628D01*
X912230Y-566D01*
X912301Y-507D01*
X912375Y-452D01*
X912451Y-399D01*
X912529Y-350D01*
X912609Y-304D01*
X912690Y-262D01*
X912774Y-223D01*
X912859Y-188D01*
X912946Y-157D01*
X913034Y-129D01*
X913123Y-105D01*
X913213Y-85D01*
X913303Y-68D01*
X913395Y-56D01*
X913487Y-47D01*
X913579Y-43D01*
X913671Y-42D01*
X913898Y-48D01*
X914125Y-59D01*
X914352Y-76D01*
X914578Y-99D01*
X914804Y-126D01*
X915029Y-160D01*
X915253Y-198D01*
X915476Y-242D01*
X915698Y-291D01*
X915919Y-346D01*
X916138Y-406D01*
X916356Y-471D01*
X916572Y-542D01*
X916786Y-617D01*
X916999Y-698D01*
X917209Y-784D01*
X917418Y-875D01*
X917001Y-5870D02*
X917086Y-5906D01*
X917169Y-5946D01*
X917250Y-5989D01*
X917330Y-6036D01*
X917407Y-6086D01*
X917483Y-6139D01*
X917556Y-6195D01*
X917626Y-6255D01*
X917694Y-6317D01*
X917759Y-6382D01*
X917821Y-6450D01*
X917881Y-6521D01*
X917937Y-6594D01*
X917990Y-6669D01*
X918040Y-6747D01*
X918086Y-6826D01*
X918129Y-6908D01*
X918169Y-6991D01*
X918205Y-7076D01*
X918237Y-7162D01*
X918266Y-7250D01*
X918290Y-7339D01*
X918311Y-7429D01*
X918328Y-7519D01*
X918342Y-7610D01*
X918351Y-7702D01*
X918356Y-7794D01*
X918358Y-7886D01*
X918356Y-7978D01*
X918349Y-8070D01*
X918339Y-8162D01*
X918325Y-8253D01*
X918307Y-8344D01*
X918285Y-8433D01*
X918259Y-8522D01*
X918229Y-8609D01*
X918196Y-8695D01*
X918159Y-8779D01*
X918119Y-8862D01*
X918075Y-8943D01*
X918028Y-9022D01*
X917977Y-9099D01*
X917923Y-9174D01*
X917866Y-9247D01*
X917806Y-9317D01*
X917743Y-9384D01*
X917677Y-9448D01*
X917609Y-9510D01*
X917538Y-9569D01*
X917464Y-9624D01*
X917388Y-9677D01*
X917310Y-9726D01*
X917230Y-9772D01*
X917149Y-9814D01*
X917065Y-9853D01*
X916980Y-9888D01*
X916893Y-9919D01*
X916805Y-9947D01*
X916716Y-9971D01*
X916626Y-9991D01*
X916536Y-10008D01*
X916444Y-10020D01*
X916352Y-10029D01*
X916260Y-10033D01*
X916168Y-10034D01*
X916168Y-10033D02*
X915834Y-10024D01*
X915501Y-10007D01*
X915168Y-9983D01*
X914835Y-9950D01*
X914504Y-9910D01*
X914173Y-9862D01*
X913844Y-9806D01*
X913516Y-9743D01*
X913190Y-9671D01*
X912866Y-9592D01*
X912543Y-9506D01*
X912223Y-9411D01*
X911905Y-9309D01*
X911589Y-9200D01*
X927661Y-10033D02*
X930991Y-10033D01*
X927661Y-10033D02*
X927563Y-10031D01*
X927465Y-10025D01*
X927367Y-10016D01*
X927270Y-10002D01*
X927174Y-9985D01*
X927078Y-9964D01*
X926983Y-9939D01*
X926889Y-9911D01*
X926796Y-9879D01*
X926705Y-9843D01*
X926615Y-9804D01*
X926527Y-9761D01*
X926440Y-9714D01*
X926356Y-9665D01*
X926273Y-9612D01*
X926193Y-9556D01*
X926115Y-9497D01*
X926039Y-9435D01*
X925965Y-9369D01*
X925895Y-9301D01*
X925827Y-9231D01*
X925762Y-9157D01*
X925699Y-9082D01*
X925640Y-9003D01*
X925584Y-8923D01*
X925531Y-8840D01*
X925482Y-8756D01*
X925435Y-8669D01*
X925392Y-8581D01*
X925353Y-8491D01*
X925317Y-8400D01*
X925285Y-8307D01*
X925257Y-8213D01*
X925232Y-8118D01*
X925211Y-8022D01*
X925194Y-7926D01*
X925180Y-7829D01*
X925171Y-7731D01*
X925165Y-7633D01*
X925163Y-7535D01*
X925163Y-2540D01*
X925165Y-2442D01*
X925171Y-2344D01*
X925180Y-2246D01*
X925194Y-2149D01*
X925211Y-2053D01*
X925232Y-1957D01*
X925257Y-1862D01*
X925285Y-1768D01*
X925317Y-1675D01*
X925353Y-1584D01*
X925392Y-1494D01*
X925435Y-1406D01*
X925482Y-1319D01*
X925531Y-1235D01*
X925584Y-1152D01*
X925640Y-1072D01*
X925699Y-994D01*
X925762Y-918D01*
X925827Y-844D01*
X925895Y-774D01*
X925965Y-706D01*
X926039Y-641D01*
X926115Y-578D01*
X926193Y-519D01*
X926273Y-463D01*
X926356Y-410D01*
X926440Y-361D01*
X926527Y-314D01*
X926615Y-271D01*
X926705Y-232D01*
X926796Y-196D01*
X926889Y-164D01*
X926983Y-136D01*
X927078Y-111D01*
X927174Y-90D01*
X927270Y-73D01*
X927367Y-59D01*
X927465Y-50D01*
X927563Y-44D01*
X927661Y-42D01*
X930991Y-42D01*
X937121Y-3373D02*
X937121Y-6703D01*
X937121Y-3373D02*
X937123Y-3259D01*
X937129Y-3146D01*
X937138Y-3032D01*
X937152Y-2920D01*
X937169Y-2807D01*
X937191Y-2695D01*
X937216Y-2585D01*
X937244Y-2475D01*
X937277Y-2366D01*
X937313Y-2258D01*
X937353Y-2151D01*
X937397Y-2046D01*
X937444Y-1943D01*
X937494Y-1841D01*
X937548Y-1741D01*
X937606Y-1643D01*
X937667Y-1547D01*
X937730Y-1453D01*
X937798Y-1361D01*
X937868Y-1271D01*
X937941Y-1185D01*
X938017Y-1100D01*
X938096Y-1018D01*
X938178Y-939D01*
X938263Y-863D01*
X938349Y-790D01*
X938439Y-720D01*
X938531Y-652D01*
X938625Y-589D01*
X938721Y-528D01*
X938819Y-470D01*
X938919Y-416D01*
X939021Y-366D01*
X939124Y-319D01*
X939229Y-275D01*
X939336Y-235D01*
X939444Y-199D01*
X939553Y-166D01*
X939663Y-138D01*
X939773Y-113D01*
X939885Y-91D01*
X939998Y-74D01*
X940110Y-60D01*
X940224Y-51D01*
X940337Y-45D01*
X940451Y-43D01*
X940565Y-45D01*
X940678Y-51D01*
X940792Y-60D01*
X940904Y-74D01*
X941017Y-91D01*
X941129Y-113D01*
X941239Y-138D01*
X941349Y-166D01*
X941458Y-199D01*
X941566Y-235D01*
X941673Y-275D01*
X941778Y-319D01*
X941881Y-366D01*
X941983Y-416D01*
X942083Y-470D01*
X942181Y-528D01*
X942277Y-589D01*
X942371Y-652D01*
X942463Y-720D01*
X942553Y-790D01*
X942639Y-863D01*
X942724Y-939D01*
X942806Y-1018D01*
X942885Y-1100D01*
X942961Y-1185D01*
X943034Y-1271D01*
X943104Y-1361D01*
X943172Y-1453D01*
X943235Y-1547D01*
X943296Y-1643D01*
X943354Y-1741D01*
X943408Y-1841D01*
X943458Y-1943D01*
X943505Y-2046D01*
X943549Y-2151D01*
X943589Y-2258D01*
X943625Y-2366D01*
X943658Y-2475D01*
X943686Y-2585D01*
X943711Y-2695D01*
X943733Y-2807D01*
X943750Y-2920D01*
X943764Y-3032D01*
X943773Y-3146D01*
X943779Y-3259D01*
X943781Y-3373D01*
X943781Y-6703D01*
X943779Y-6817D01*
X943773Y-6930D01*
X943764Y-7044D01*
X943750Y-7156D01*
X943733Y-7269D01*
X943711Y-7381D01*
X943686Y-7491D01*
X943658Y-7601D01*
X943625Y-7710D01*
X943589Y-7818D01*
X943549Y-7925D01*
X943505Y-8030D01*
X943458Y-8133D01*
X943408Y-8235D01*
X943354Y-8335D01*
X943296Y-8433D01*
X943235Y-8529D01*
X943172Y-8623D01*
X943104Y-8715D01*
X943034Y-8805D01*
X942961Y-8891D01*
X942885Y-8976D01*
X942806Y-9058D01*
X942724Y-9137D01*
X942639Y-9213D01*
X942553Y-9286D01*
X942463Y-9356D01*
X942371Y-9424D01*
X942277Y-9487D01*
X942181Y-9548D01*
X942083Y-9606D01*
X941983Y-9660D01*
X941881Y-9710D01*
X941778Y-9757D01*
X941673Y-9801D01*
X941566Y-9841D01*
X941458Y-9877D01*
X941349Y-9910D01*
X941239Y-9938D01*
X941129Y-9963D01*
X941017Y-9985D01*
X940904Y-10002D01*
X940792Y-10016D01*
X940678Y-10025D01*
X940565Y-10031D01*
X940451Y-10033D01*
X940337Y-10031D01*
X940224Y-10025D01*
X940110Y-10016D01*
X939998Y-10002D01*
X939885Y-9985D01*
X939773Y-9963D01*
X939663Y-9938D01*
X939553Y-9910D01*
X939444Y-9877D01*
X939336Y-9841D01*
X939229Y-9801D01*
X939124Y-9757D01*
X939021Y-9710D01*
X938919Y-9660D01*
X938819Y-9606D01*
X938721Y-9548D01*
X938625Y-9487D01*
X938531Y-9424D01*
X938439Y-9356D01*
X938349Y-9286D01*
X938263Y-9213D01*
X938178Y-9137D01*
X938096Y-9058D01*
X938017Y-8976D01*
X937941Y-8891D01*
X937868Y-8805D01*
X937798Y-8715D01*
X937730Y-8623D01*
X937667Y-8529D01*
X937606Y-8433D01*
X937548Y-8335D01*
X937494Y-8235D01*
X937444Y-8133D01*
X937397Y-8030D01*
X937353Y-7925D01*
X937313Y-7818D01*
X937277Y-7710D01*
X937244Y-7601D01*
X937216Y-7491D01*
X937191Y-7381D01*
X937169Y-7269D01*
X937152Y-7156D01*
X937138Y-7044D01*
X937129Y-6930D01*
X937123Y-6817D01*
X937121Y-6703D01*
X951317Y-10033D02*
X951317Y-42D01*
X956312Y-42D01*
X956312Y-1707D01*
X964107Y-10033D02*
X968270Y-10033D01*
X964107Y-10033D02*
X964009Y-10031D01*
X963911Y-10025D01*
X963813Y-10016D01*
X963716Y-10002D01*
X963620Y-9985D01*
X963524Y-9964D01*
X963429Y-9939D01*
X963335Y-9911D01*
X963242Y-9879D01*
X963151Y-9843D01*
X963061Y-9804D01*
X962973Y-9761D01*
X962886Y-9714D01*
X962802Y-9665D01*
X962719Y-9612D01*
X962639Y-9556D01*
X962561Y-9497D01*
X962485Y-9435D01*
X962411Y-9369D01*
X962341Y-9301D01*
X962273Y-9231D01*
X962208Y-9157D01*
X962145Y-9082D01*
X962086Y-9003D01*
X962030Y-8923D01*
X961977Y-8840D01*
X961928Y-8756D01*
X961881Y-8669D01*
X961838Y-8581D01*
X961799Y-8491D01*
X961763Y-8400D01*
X961731Y-8307D01*
X961703Y-8213D01*
X961678Y-8118D01*
X961657Y-8022D01*
X961640Y-7926D01*
X961626Y-7829D01*
X961617Y-7731D01*
X961611Y-7633D01*
X961609Y-7535D01*
X961609Y-3373D01*
X961610Y-3373D02*
X961612Y-3259D01*
X961618Y-3146D01*
X961627Y-3032D01*
X961641Y-2920D01*
X961658Y-2807D01*
X961680Y-2695D01*
X961705Y-2585D01*
X961733Y-2475D01*
X961766Y-2366D01*
X961802Y-2258D01*
X961842Y-2151D01*
X961886Y-2046D01*
X961933Y-1943D01*
X961983Y-1841D01*
X962037Y-1741D01*
X962095Y-1643D01*
X962156Y-1547D01*
X962219Y-1453D01*
X962287Y-1361D01*
X962357Y-1271D01*
X962430Y-1185D01*
X962506Y-1100D01*
X962585Y-1018D01*
X962667Y-939D01*
X962752Y-863D01*
X962838Y-790D01*
X962928Y-720D01*
X963020Y-652D01*
X963114Y-589D01*
X963210Y-528D01*
X963308Y-470D01*
X963408Y-416D01*
X963510Y-366D01*
X963613Y-319D01*
X963718Y-275D01*
X963825Y-235D01*
X963933Y-199D01*
X964042Y-166D01*
X964152Y-138D01*
X964262Y-113D01*
X964374Y-91D01*
X964487Y-74D01*
X964599Y-60D01*
X964713Y-51D01*
X964826Y-45D01*
X964940Y-43D01*
X965054Y-45D01*
X965167Y-51D01*
X965281Y-60D01*
X965393Y-74D01*
X965506Y-91D01*
X965618Y-113D01*
X965728Y-138D01*
X965838Y-166D01*
X965947Y-199D01*
X966055Y-235D01*
X966162Y-275D01*
X966267Y-319D01*
X966370Y-366D01*
X966472Y-416D01*
X966572Y-470D01*
X966670Y-528D01*
X966766Y-589D01*
X966860Y-652D01*
X966952Y-720D01*
X967042Y-790D01*
X967128Y-863D01*
X967213Y-939D01*
X967295Y-1018D01*
X967374Y-1100D01*
X967450Y-1185D01*
X967523Y-1271D01*
X967593Y-1361D01*
X967661Y-1453D01*
X967724Y-1547D01*
X967785Y-1643D01*
X967843Y-1741D01*
X967897Y-1841D01*
X967947Y-1943D01*
X967994Y-2046D01*
X968038Y-2151D01*
X968078Y-2258D01*
X968114Y-2366D01*
X968147Y-2475D01*
X968175Y-2585D01*
X968200Y-2695D01*
X968222Y-2807D01*
X968239Y-2920D01*
X968253Y-3032D01*
X968262Y-3146D01*
X968268Y-3259D01*
X968270Y-3373D01*
X968270Y-5038D01*
X961609Y-5038D01*
D11*
X848359Y408940D02*
X-68580Y408940D01*
D12*
X880848Y411437D02*
X884178Y401447D01*
X887509Y411437D01*
X894293Y407274D02*
X904284Y407274D01*
X912838Y407274D02*
X917001Y405609D01*
X912838Y407274D02*
X912753Y407310D01*
X912670Y407350D01*
X912589Y407393D01*
X912509Y407440D01*
X912432Y407490D01*
X912356Y407543D01*
X912283Y407599D01*
X912213Y407659D01*
X912145Y407721D01*
X912080Y407786D01*
X912018Y407854D01*
X911958Y407925D01*
X911902Y407998D01*
X911849Y408073D01*
X911799Y408151D01*
X911753Y408230D01*
X911710Y408312D01*
X911670Y408395D01*
X911634Y408480D01*
X911602Y408566D01*
X911573Y408654D01*
X911549Y408743D01*
X911528Y408833D01*
X911511Y408923D01*
X911497Y409014D01*
X911488Y409106D01*
X911483Y409198D01*
X911481Y409290D01*
X911483Y409382D01*
X911490Y409474D01*
X911500Y409566D01*
X911514Y409657D01*
X911532Y409748D01*
X911554Y409837D01*
X911580Y409926D01*
X911610Y410013D01*
X911643Y410099D01*
X911680Y410183D01*
X911720Y410266D01*
X911764Y410347D01*
X911811Y410426D01*
X911862Y410503D01*
X911916Y410578D01*
X911973Y410651D01*
X912033Y410721D01*
X912096Y410788D01*
X912162Y410852D01*
X912230Y410914D01*
X912301Y410973D01*
X912375Y411028D01*
X912451Y411081D01*
X912529Y411130D01*
X912609Y411176D01*
X912690Y411218D01*
X912774Y411257D01*
X912859Y411292D01*
X912946Y411323D01*
X913034Y411351D01*
X913123Y411375D01*
X913213Y411395D01*
X913303Y411412D01*
X913395Y411424D01*
X913487Y411433D01*
X913579Y411437D01*
X913671Y411438D01*
X913671Y411437D02*
X913898Y411431D01*
X914125Y411420D01*
X914352Y411403D01*
X914578Y411380D01*
X914804Y411353D01*
X915029Y411319D01*
X915253Y411281D01*
X915476Y411237D01*
X915698Y411188D01*
X915919Y411133D01*
X916138Y411073D01*
X916356Y411008D01*
X916572Y410937D01*
X916786Y410862D01*
X916999Y410781D01*
X917209Y410695D01*
X917418Y410604D01*
X917001Y405610D02*
X917086Y405574D01*
X917169Y405534D01*
X917250Y405491D01*
X917330Y405444D01*
X917407Y405394D01*
X917483Y405341D01*
X917556Y405285D01*
X917626Y405225D01*
X917694Y405163D01*
X917759Y405098D01*
X917821Y405030D01*
X917881Y404959D01*
X917937Y404886D01*
X917990Y404811D01*
X918040Y404733D01*
X918086Y404654D01*
X918129Y404572D01*
X918169Y404489D01*
X918205Y404404D01*
X918237Y404318D01*
X918266Y404230D01*
X918290Y404141D01*
X918311Y404051D01*
X918328Y403961D01*
X918342Y403870D01*
X918351Y403778D01*
X918356Y403686D01*
X918358Y403594D01*
X918356Y403502D01*
X918349Y403410D01*
X918339Y403318D01*
X918325Y403227D01*
X918307Y403136D01*
X918285Y403047D01*
X918259Y402958D01*
X918229Y402871D01*
X918196Y402785D01*
X918159Y402701D01*
X918119Y402618D01*
X918075Y402537D01*
X918028Y402458D01*
X917977Y402381D01*
X917923Y402306D01*
X917866Y402233D01*
X917806Y402163D01*
X917743Y402096D01*
X917677Y402032D01*
X917609Y401970D01*
X917538Y401911D01*
X917464Y401856D01*
X917388Y401803D01*
X917310Y401754D01*
X917230Y401708D01*
X917149Y401666D01*
X917065Y401627D01*
X916980Y401592D01*
X916893Y401561D01*
X916805Y401533D01*
X916716Y401509D01*
X916626Y401489D01*
X916536Y401472D01*
X916444Y401460D01*
X916352Y401451D01*
X916260Y401447D01*
X916168Y401446D01*
X915834Y401455D01*
X915501Y401472D01*
X915168Y401496D01*
X914835Y401529D01*
X914504Y401569D01*
X914173Y401617D01*
X913844Y401673D01*
X913516Y401736D01*
X913190Y401808D01*
X912866Y401887D01*
X912543Y401973D01*
X912223Y402068D01*
X911905Y402170D01*
X911589Y402279D01*
X927661Y401447D02*
X930991Y401447D01*
X927661Y401446D02*
X927563Y401448D01*
X927465Y401454D01*
X927367Y401463D01*
X927270Y401477D01*
X927174Y401494D01*
X927078Y401515D01*
X926983Y401540D01*
X926889Y401568D01*
X926796Y401600D01*
X926705Y401636D01*
X926615Y401675D01*
X926527Y401718D01*
X926440Y401765D01*
X926356Y401814D01*
X926273Y401867D01*
X926193Y401923D01*
X926115Y401982D01*
X926039Y402045D01*
X925965Y402110D01*
X925895Y402178D01*
X925827Y402248D01*
X925762Y402322D01*
X925699Y402398D01*
X925640Y402476D01*
X925584Y402556D01*
X925531Y402639D01*
X925482Y402723D01*
X925435Y402810D01*
X925392Y402898D01*
X925353Y402988D01*
X925317Y403079D01*
X925285Y403172D01*
X925257Y403266D01*
X925232Y403361D01*
X925211Y403457D01*
X925194Y403553D01*
X925180Y403650D01*
X925171Y403748D01*
X925165Y403846D01*
X925163Y403944D01*
X925163Y408940D01*
X925165Y409038D01*
X925171Y409136D01*
X925180Y409234D01*
X925194Y409331D01*
X925211Y409427D01*
X925232Y409523D01*
X925257Y409618D01*
X925285Y409712D01*
X925317Y409805D01*
X925353Y409896D01*
X925392Y409986D01*
X925435Y410074D01*
X925482Y410161D01*
X925531Y410245D01*
X925584Y410328D01*
X925640Y410408D01*
X925699Y410487D01*
X925762Y410562D01*
X925827Y410636D01*
X925895Y410706D01*
X925965Y410774D01*
X926039Y410840D01*
X926115Y410902D01*
X926193Y410961D01*
X926273Y411017D01*
X926356Y411070D01*
X926440Y411120D01*
X926527Y411166D01*
X926615Y411209D01*
X926705Y411248D01*
X926796Y411284D01*
X926889Y411316D01*
X926983Y411344D01*
X927078Y411369D01*
X927174Y411390D01*
X927270Y411407D01*
X927367Y411421D01*
X927465Y411430D01*
X927563Y411436D01*
X927661Y411438D01*
X927661Y411437D02*
X930991Y411437D01*
X937121Y408107D02*
X937121Y404777D01*
X937121Y408107D02*
X937123Y408221D01*
X937129Y408334D01*
X937138Y408448D01*
X937152Y408560D01*
X937169Y408673D01*
X937191Y408785D01*
X937216Y408895D01*
X937244Y409005D01*
X937277Y409114D01*
X937313Y409222D01*
X937353Y409329D01*
X937397Y409434D01*
X937444Y409537D01*
X937494Y409639D01*
X937548Y409739D01*
X937606Y409837D01*
X937667Y409933D01*
X937730Y410027D01*
X937798Y410119D01*
X937868Y410209D01*
X937941Y410295D01*
X938017Y410380D01*
X938096Y410462D01*
X938178Y410541D01*
X938263Y410617D01*
X938349Y410690D01*
X938439Y410760D01*
X938531Y410828D01*
X938625Y410891D01*
X938721Y410952D01*
X938819Y411010D01*
X938919Y411064D01*
X939021Y411114D01*
X939124Y411161D01*
X939229Y411205D01*
X939336Y411245D01*
X939444Y411281D01*
X939553Y411314D01*
X939663Y411342D01*
X939773Y411367D01*
X939885Y411389D01*
X939998Y411406D01*
X940110Y411420D01*
X940224Y411429D01*
X940337Y411435D01*
X940451Y411437D01*
X940565Y411435D01*
X940678Y411429D01*
X940792Y411420D01*
X940904Y411406D01*
X941017Y411389D01*
X941129Y411367D01*
X941239Y411342D01*
X941349Y411314D01*
X941458Y411281D01*
X941566Y411245D01*
X941673Y411205D01*
X941778Y411161D01*
X941881Y411114D01*
X941983Y411064D01*
X942083Y411010D01*
X942181Y410952D01*
X942277Y410891D01*
X942371Y410828D01*
X942463Y410760D01*
X942553Y410690D01*
X942639Y410617D01*
X942724Y410541D01*
X942806Y410462D01*
X942885Y410380D01*
X942961Y410295D01*
X943034Y410209D01*
X943104Y410119D01*
X943172Y410027D01*
X943235Y409933D01*
X943296Y409837D01*
X943354Y409739D01*
X943408Y409639D01*
X943458Y409537D01*
X943505Y409434D01*
X943549Y409329D01*
X943589Y409222D01*
X943625Y409114D01*
X943658Y409005D01*
X943686Y408895D01*
X943711Y408785D01*
X943733Y408673D01*
X943750Y408560D01*
X943764Y408448D01*
X943773Y408334D01*
X943779Y408221D01*
X943781Y408107D01*
X943781Y404777D01*
X943779Y404663D01*
X943773Y404550D01*
X943764Y404436D01*
X943750Y404324D01*
X943733Y404211D01*
X943711Y404099D01*
X943686Y403989D01*
X943658Y403879D01*
X943625Y403770D01*
X943589Y403662D01*
X943549Y403555D01*
X943505Y403450D01*
X943458Y403347D01*
X943408Y403245D01*
X943354Y403145D01*
X943296Y403047D01*
X943235Y402951D01*
X943172Y402857D01*
X943104Y402765D01*
X943034Y402675D01*
X942961Y402589D01*
X942885Y402504D01*
X942806Y402422D01*
X942724Y402343D01*
X942639Y402267D01*
X942553Y402194D01*
X942463Y402124D01*
X942371Y402056D01*
X942277Y401993D01*
X942181Y401932D01*
X942083Y401874D01*
X941983Y401820D01*
X941881Y401770D01*
X941778Y401723D01*
X941673Y401679D01*
X941566Y401639D01*
X941458Y401603D01*
X941349Y401570D01*
X941239Y401542D01*
X941129Y401517D01*
X941017Y401495D01*
X940904Y401478D01*
X940792Y401464D01*
X940678Y401455D01*
X940565Y401449D01*
X940451Y401447D01*
X940337Y401449D01*
X940224Y401455D01*
X940110Y401464D01*
X939998Y401478D01*
X939885Y401495D01*
X939773Y401517D01*
X939663Y401542D01*
X939553Y401570D01*
X939444Y401603D01*
X939336Y401639D01*
X939229Y401679D01*
X939124Y401723D01*
X939021Y401770D01*
X938919Y401820D01*
X938819Y401874D01*
X938721Y401932D01*
X938625Y401993D01*
X938531Y402056D01*
X938439Y402124D01*
X938349Y402194D01*
X938263Y402267D01*
X938178Y402343D01*
X938096Y402422D01*
X938017Y402504D01*
X937941Y402589D01*
X937868Y402675D01*
X937798Y402765D01*
X937730Y402857D01*
X937667Y402951D01*
X937606Y403047D01*
X937548Y403145D01*
X937494Y403245D01*
X937444Y403347D01*
X937397Y403450D01*
X937353Y403555D01*
X937313Y403662D01*
X937277Y403770D01*
X937244Y403879D01*
X937216Y403989D01*
X937191Y404099D01*
X937169Y404211D01*
X937152Y404324D01*
X937138Y404436D01*
X937129Y404550D01*
X937123Y404663D01*
X937121Y404777D01*
X951317Y401447D02*
X951317Y411437D01*
X956312Y411437D01*
X956312Y409772D01*
X964107Y401447D02*
X968270Y401447D01*
X964107Y401446D02*
X964009Y401448D01*
X963911Y401454D01*
X963813Y401463D01*
X963716Y401477D01*
X963620Y401494D01*
X963524Y401515D01*
X963429Y401540D01*
X963335Y401568D01*
X963242Y401600D01*
X963151Y401636D01*
X963061Y401675D01*
X962973Y401718D01*
X962886Y401765D01*
X962802Y401814D01*
X962719Y401867D01*
X962639Y401923D01*
X962561Y401982D01*
X962485Y402045D01*
X962411Y402110D01*
X962341Y402178D01*
X962273Y402248D01*
X962208Y402322D01*
X962145Y402398D01*
X962086Y402476D01*
X962030Y402556D01*
X961977Y402639D01*
X961928Y402723D01*
X961881Y402810D01*
X961838Y402898D01*
X961799Y402988D01*
X961763Y403079D01*
X961731Y403172D01*
X961703Y403266D01*
X961678Y403361D01*
X961657Y403457D01*
X961640Y403553D01*
X961626Y403650D01*
X961617Y403748D01*
X961611Y403846D01*
X961609Y403944D01*
X961609Y408107D01*
X961610Y408107D02*
X961612Y408221D01*
X961618Y408334D01*
X961627Y408448D01*
X961641Y408560D01*
X961658Y408673D01*
X961680Y408785D01*
X961705Y408895D01*
X961733Y409005D01*
X961766Y409114D01*
X961802Y409222D01*
X961842Y409329D01*
X961886Y409434D01*
X961933Y409537D01*
X961983Y409639D01*
X962037Y409739D01*
X962095Y409837D01*
X962156Y409933D01*
X962219Y410027D01*
X962287Y410119D01*
X962357Y410209D01*
X962430Y410295D01*
X962506Y410380D01*
X962585Y410462D01*
X962667Y410541D01*
X962752Y410617D01*
X962838Y410690D01*
X962928Y410760D01*
X963020Y410828D01*
X963114Y410891D01*
X963210Y410952D01*
X963308Y411010D01*
X963408Y411064D01*
X963510Y411114D01*
X963613Y411161D01*
X963718Y411205D01*
X963825Y411245D01*
X963933Y411281D01*
X964042Y411314D01*
X964152Y411342D01*
X964262Y411367D01*
X964374Y411389D01*
X964487Y411406D01*
X964599Y411420D01*
X964713Y411429D01*
X964826Y411435D01*
X964940Y411437D01*
X965054Y411435D01*
X965167Y411429D01*
X965281Y411420D01*
X965393Y411406D01*
X965506Y411389D01*
X965618Y411367D01*
X965728Y411342D01*
X965838Y411314D01*
X965947Y411281D01*
X966055Y411245D01*
X966162Y411205D01*
X966267Y411161D01*
X966370Y411114D01*
X966472Y411064D01*
X966572Y411010D01*
X966670Y410952D01*
X966766Y410891D01*
X966860Y410828D01*
X966952Y410760D01*
X967042Y410690D01*
X967128Y410617D01*
X967213Y410541D01*
X967295Y410462D01*
X967374Y410380D01*
X967450Y410295D01*
X967523Y410209D01*
X967593Y410119D01*
X967661Y410027D01*
X967724Y409933D01*
X967785Y409837D01*
X967843Y409739D01*
X967897Y409639D01*
X967947Y409537D01*
X967994Y409434D01*
X968038Y409329D01*
X968078Y409222D01*
X968114Y409114D01*
X968147Y409005D01*
X968175Y408895D01*
X968200Y408785D01*
X968222Y408673D01*
X968239Y408560D01*
X968253Y408448D01*
X968262Y408334D01*
X968268Y408221D01*
X968270Y408107D01*
X968270Y406442D01*
X961609Y406442D01*
D11*
X848359Y820419D02*
X-68580Y820419D01*
D12*
X880848Y822917D02*
X884178Y812926D01*
X887509Y822917D01*
X894293Y818754D02*
X904284Y818754D01*
X912838Y818754D02*
X917001Y817089D01*
X912838Y818753D02*
X912753Y818789D01*
X912670Y818829D01*
X912589Y818872D01*
X912509Y818919D01*
X912432Y818969D01*
X912356Y819022D01*
X912283Y819078D01*
X912213Y819138D01*
X912145Y819200D01*
X912080Y819265D01*
X912018Y819333D01*
X911958Y819404D01*
X911902Y819477D01*
X911849Y819552D01*
X911799Y819630D01*
X911753Y819709D01*
X911710Y819791D01*
X911670Y819874D01*
X911634Y819959D01*
X911602Y820045D01*
X911573Y820133D01*
X911549Y820222D01*
X911528Y820312D01*
X911511Y820402D01*
X911497Y820493D01*
X911488Y820585D01*
X911483Y820677D01*
X911481Y820769D01*
X911483Y820861D01*
X911490Y820953D01*
X911500Y821045D01*
X911514Y821136D01*
X911532Y821227D01*
X911554Y821316D01*
X911580Y821405D01*
X911610Y821492D01*
X911643Y821578D01*
X911680Y821662D01*
X911720Y821745D01*
X911764Y821826D01*
X911811Y821905D01*
X911862Y821982D01*
X911916Y822057D01*
X911973Y822130D01*
X912033Y822200D01*
X912096Y822267D01*
X912162Y822331D01*
X912230Y822393D01*
X912301Y822452D01*
X912375Y822507D01*
X912451Y822560D01*
X912529Y822609D01*
X912609Y822655D01*
X912690Y822697D01*
X912774Y822736D01*
X912859Y822771D01*
X912946Y822802D01*
X913034Y822830D01*
X913123Y822854D01*
X913213Y822874D01*
X913303Y822891D01*
X913395Y822903D01*
X913487Y822912D01*
X913579Y822916D01*
X913671Y822917D01*
X913898Y822911D01*
X914125Y822900D01*
X914352Y822883D01*
X914578Y822860D01*
X914804Y822833D01*
X915029Y822799D01*
X915253Y822761D01*
X915476Y822717D01*
X915698Y822668D01*
X915919Y822613D01*
X916138Y822553D01*
X916356Y822488D01*
X916572Y822417D01*
X916786Y822342D01*
X916999Y822261D01*
X917209Y822175D01*
X917418Y822084D01*
X917001Y817089D02*
X917086Y817053D01*
X917169Y817013D01*
X917250Y816970D01*
X917330Y816923D01*
X917407Y816873D01*
X917483Y816820D01*
X917556Y816764D01*
X917626Y816704D01*
X917694Y816642D01*
X917759Y816577D01*
X917821Y816509D01*
X917881Y816438D01*
X917937Y816365D01*
X917990Y816290D01*
X918040Y816212D01*
X918086Y816133D01*
X918129Y816051D01*
X918169Y815968D01*
X918205Y815883D01*
X918237Y815797D01*
X918266Y815709D01*
X918290Y815620D01*
X918311Y815530D01*
X918328Y815440D01*
X918342Y815349D01*
X918351Y815257D01*
X918356Y815165D01*
X918358Y815073D01*
X918356Y814981D01*
X918349Y814889D01*
X918339Y814797D01*
X918325Y814706D01*
X918307Y814615D01*
X918285Y814526D01*
X918259Y814437D01*
X918229Y814350D01*
X918196Y814264D01*
X918159Y814180D01*
X918119Y814097D01*
X918075Y814016D01*
X918028Y813937D01*
X917977Y813860D01*
X917923Y813785D01*
X917866Y813712D01*
X917806Y813642D01*
X917743Y813575D01*
X917677Y813511D01*
X917609Y813449D01*
X917538Y813390D01*
X917464Y813335D01*
X917388Y813282D01*
X917310Y813233D01*
X917230Y813187D01*
X917149Y813145D01*
X917065Y813106D01*
X916980Y813071D01*
X916893Y813040D01*
X916805Y813012D01*
X916716Y812988D01*
X916626Y812968D01*
X916536Y812951D01*
X916444Y812939D01*
X916352Y812930D01*
X916260Y812926D01*
X916168Y812925D01*
X916168Y812926D02*
X915834Y812935D01*
X915501Y812952D01*
X915168Y812976D01*
X914835Y813009D01*
X914504Y813049D01*
X914173Y813097D01*
X913844Y813153D01*
X913516Y813216D01*
X913190Y813288D01*
X912866Y813367D01*
X912543Y813453D01*
X912223Y813548D01*
X911905Y813650D01*
X911589Y813759D01*
X927661Y812926D02*
X930991Y812926D01*
X927661Y812926D02*
X927563Y812928D01*
X927465Y812934D01*
X927367Y812943D01*
X927270Y812957D01*
X927174Y812974D01*
X927078Y812995D01*
X926983Y813020D01*
X926889Y813048D01*
X926796Y813080D01*
X926705Y813116D01*
X926615Y813155D01*
X926527Y813198D01*
X926440Y813245D01*
X926356Y813294D01*
X926273Y813347D01*
X926193Y813403D01*
X926115Y813462D01*
X926039Y813525D01*
X925965Y813590D01*
X925895Y813658D01*
X925827Y813728D01*
X925762Y813802D01*
X925699Y813878D01*
X925640Y813956D01*
X925584Y814036D01*
X925531Y814119D01*
X925482Y814203D01*
X925435Y814290D01*
X925392Y814378D01*
X925353Y814468D01*
X925317Y814559D01*
X925285Y814652D01*
X925257Y814746D01*
X925232Y814841D01*
X925211Y814937D01*
X925194Y815033D01*
X925180Y815130D01*
X925171Y815228D01*
X925165Y815326D01*
X925163Y815424D01*
X925163Y820419D01*
X925165Y820517D01*
X925171Y820615D01*
X925180Y820713D01*
X925194Y820810D01*
X925211Y820906D01*
X925232Y821002D01*
X925257Y821097D01*
X925285Y821191D01*
X925317Y821284D01*
X925353Y821375D01*
X925392Y821465D01*
X925435Y821553D01*
X925482Y821640D01*
X925531Y821724D01*
X925584Y821807D01*
X925640Y821887D01*
X925699Y821966D01*
X925762Y822041D01*
X925827Y822115D01*
X925895Y822185D01*
X925965Y822253D01*
X926039Y822319D01*
X926115Y822381D01*
X926193Y822440D01*
X926273Y822496D01*
X926356Y822549D01*
X926440Y822599D01*
X926527Y822645D01*
X926615Y822688D01*
X926705Y822727D01*
X926796Y822763D01*
X926889Y822795D01*
X926983Y822823D01*
X927078Y822848D01*
X927174Y822869D01*
X927270Y822886D01*
X927367Y822900D01*
X927465Y822909D01*
X927563Y822915D01*
X927661Y822917D01*
X930991Y822917D01*
X937121Y819586D02*
X937121Y816256D01*
X937121Y819586D02*
X937123Y819700D01*
X937129Y819813D01*
X937138Y819927D01*
X937152Y820039D01*
X937169Y820152D01*
X937191Y820264D01*
X937216Y820374D01*
X937244Y820484D01*
X937277Y820593D01*
X937313Y820701D01*
X937353Y820808D01*
X937397Y820913D01*
X937444Y821016D01*
X937494Y821118D01*
X937548Y821218D01*
X937606Y821316D01*
X937667Y821412D01*
X937730Y821506D01*
X937798Y821598D01*
X937868Y821688D01*
X937941Y821774D01*
X938017Y821859D01*
X938096Y821941D01*
X938178Y822020D01*
X938263Y822096D01*
X938349Y822169D01*
X938439Y822239D01*
X938531Y822307D01*
X938625Y822370D01*
X938721Y822431D01*
X938819Y822489D01*
X938919Y822543D01*
X939021Y822593D01*
X939124Y822640D01*
X939229Y822684D01*
X939336Y822724D01*
X939444Y822760D01*
X939553Y822793D01*
X939663Y822821D01*
X939773Y822846D01*
X939885Y822868D01*
X939998Y822885D01*
X940110Y822899D01*
X940224Y822908D01*
X940337Y822914D01*
X940451Y822916D01*
X940565Y822914D01*
X940678Y822908D01*
X940792Y822899D01*
X940904Y822885D01*
X941017Y822868D01*
X941129Y822846D01*
X941239Y822821D01*
X941349Y822793D01*
X941458Y822760D01*
X941566Y822724D01*
X941673Y822684D01*
X941778Y822640D01*
X941881Y822593D01*
X941983Y822543D01*
X942083Y822489D01*
X942181Y822431D01*
X942277Y822370D01*
X942371Y822307D01*
X942463Y822239D01*
X942553Y822169D01*
X942639Y822096D01*
X942724Y822020D01*
X942806Y821941D01*
X942885Y821859D01*
X942961Y821774D01*
X943034Y821688D01*
X943104Y821598D01*
X943172Y821506D01*
X943235Y821412D01*
X943296Y821316D01*
X943354Y821218D01*
X943408Y821118D01*
X943458Y821016D01*
X943505Y820913D01*
X943549Y820808D01*
X943589Y820701D01*
X943625Y820593D01*
X943658Y820484D01*
X943686Y820374D01*
X943711Y820264D01*
X943733Y820152D01*
X943750Y820039D01*
X943764Y819927D01*
X943773Y819813D01*
X943779Y819700D01*
X943781Y819586D01*
X943781Y816256D01*
X943779Y816142D01*
X943773Y816029D01*
X943764Y815915D01*
X943750Y815803D01*
X943733Y815690D01*
X943711Y815578D01*
X943686Y815468D01*
X943658Y815358D01*
X943625Y815249D01*
X943589Y815141D01*
X943549Y815034D01*
X943505Y814929D01*
X943458Y814826D01*
X943408Y814724D01*
X943354Y814624D01*
X943296Y814526D01*
X943235Y814430D01*
X943172Y814336D01*
X943104Y814244D01*
X943034Y814154D01*
X942961Y814068D01*
X942885Y813983D01*
X942806Y813901D01*
X942724Y813822D01*
X942639Y813746D01*
X942553Y813673D01*
X942463Y813603D01*
X942371Y813535D01*
X942277Y813472D01*
X942181Y813411D01*
X942083Y813353D01*
X941983Y813299D01*
X941881Y813249D01*
X941778Y813202D01*
X941673Y813158D01*
X941566Y813118D01*
X941458Y813082D01*
X941349Y813049D01*
X941239Y813021D01*
X941129Y812996D01*
X941017Y812974D01*
X940904Y812957D01*
X940792Y812943D01*
X940678Y812934D01*
X940565Y812928D01*
X940451Y812926D01*
X940337Y812928D01*
X940224Y812934D01*
X940110Y812943D01*
X939998Y812957D01*
X939885Y812974D01*
X939773Y812996D01*
X939663Y813021D01*
X939553Y813049D01*
X939444Y813082D01*
X939336Y813118D01*
X939229Y813158D01*
X939124Y813202D01*
X939021Y813249D01*
X938919Y813299D01*
X938819Y813353D01*
X938721Y813411D01*
X938625Y813472D01*
X938531Y813535D01*
X938439Y813603D01*
X938349Y813673D01*
X938263Y813746D01*
X938178Y813822D01*
X938096Y813901D01*
X938017Y813983D01*
X937941Y814068D01*
X937868Y814154D01*
X937798Y814244D01*
X937730Y814336D01*
X937667Y814430D01*
X937606Y814526D01*
X937548Y814624D01*
X937494Y814724D01*
X937444Y814826D01*
X937397Y814929D01*
X937353Y815034D01*
X937313Y815141D01*
X937277Y815249D01*
X937244Y815358D01*
X937216Y815468D01*
X937191Y815578D01*
X937169Y815690D01*
X937152Y815803D01*
X937138Y815915D01*
X937129Y816029D01*
X937123Y816142D01*
X937121Y816256D01*
X951317Y812926D02*
X951317Y822917D01*
X956312Y822917D01*
X956312Y821252D01*
X964107Y812926D02*
X968270Y812926D01*
X964107Y812926D02*
X964009Y812928D01*
X963911Y812934D01*
X963813Y812943D01*
X963716Y812957D01*
X963620Y812974D01*
X963524Y812995D01*
X963429Y813020D01*
X963335Y813048D01*
X963242Y813080D01*
X963151Y813116D01*
X963061Y813155D01*
X962973Y813198D01*
X962886Y813245D01*
X962802Y813294D01*
X962719Y813347D01*
X962639Y813403D01*
X962561Y813462D01*
X962485Y813525D01*
X962411Y813590D01*
X962341Y813658D01*
X962273Y813728D01*
X962208Y813802D01*
X962145Y813878D01*
X962086Y813956D01*
X962030Y814036D01*
X961977Y814119D01*
X961928Y814203D01*
X961881Y814290D01*
X961838Y814378D01*
X961799Y814468D01*
X961763Y814559D01*
X961731Y814652D01*
X961703Y814746D01*
X961678Y814841D01*
X961657Y814937D01*
X961640Y815033D01*
X961626Y815130D01*
X961617Y815228D01*
X961611Y815326D01*
X961609Y815424D01*
X961609Y819586D01*
X961610Y819586D02*
X961612Y819700D01*
X961618Y819813D01*
X961627Y819927D01*
X961641Y820039D01*
X961658Y820152D01*
X961680Y820264D01*
X961705Y820374D01*
X961733Y820484D01*
X961766Y820593D01*
X961802Y820701D01*
X961842Y820808D01*
X961886Y820913D01*
X961933Y821016D01*
X961983Y821118D01*
X962037Y821218D01*
X962095Y821316D01*
X962156Y821412D01*
X962219Y821506D01*
X962287Y821598D01*
X962357Y821688D01*
X962430Y821774D01*
X962506Y821859D01*
X962585Y821941D01*
X962667Y822020D01*
X962752Y822096D01*
X962838Y822169D01*
X962928Y822239D01*
X963020Y822307D01*
X963114Y822370D01*
X963210Y822431D01*
X963308Y822489D01*
X963408Y822543D01*
X963510Y822593D01*
X963613Y822640D01*
X963718Y822684D01*
X963825Y822724D01*
X963933Y822760D01*
X964042Y822793D01*
X964152Y822821D01*
X964262Y822846D01*
X964374Y822868D01*
X964487Y822885D01*
X964599Y822899D01*
X964713Y822908D01*
X964826Y822914D01*
X964940Y822916D01*
X965054Y822914D01*
X965167Y822908D01*
X965281Y822899D01*
X965393Y822885D01*
X965506Y822868D01*
X965618Y822846D01*
X965728Y822821D01*
X965838Y822793D01*
X965947Y822760D01*
X966055Y822724D01*
X966162Y822684D01*
X966267Y822640D01*
X966370Y822593D01*
X966472Y822543D01*
X966572Y822489D01*
X966670Y822431D01*
X966766Y822370D01*
X966860Y822307D01*
X966952Y822239D01*
X967042Y822169D01*
X967128Y822096D01*
X967213Y822020D01*
X967295Y821941D01*
X967374Y821859D01*
X967450Y821774D01*
X967523Y821688D01*
X967593Y821598D01*
X967661Y821506D01*
X967724Y821412D01*
X967785Y821316D01*
X967843Y821218D01*
X967897Y821118D01*
X967947Y821016D01*
X967994Y820913D01*
X968038Y820808D01*
X968078Y820701D01*
X968114Y820593D01*
X968147Y820484D01*
X968175Y820374D01*
X968200Y820264D01*
X968222Y820152D01*
X968239Y820039D01*
X968253Y819927D01*
X968262Y819813D01*
X968268Y819700D01*
X968270Y819586D01*
X968270Y817921D01*
X961609Y817921D01*
D13*
X784859Y-5080D02*
X-68580Y-5080D01*
X784859Y-5080D02*
X784859Y-68580D01*
X-68580Y-68580D01*
X-68580Y-5080D01*
X721359Y817879D02*
X784859Y817879D01*
X784859Y0D01*
X721359Y0D01*
X721359Y817879D01*
X784859Y886459D02*
X-68580Y886459D01*
X784859Y886459D02*
X784859Y822959D01*
X-68580Y822959D01*
X-68580Y886459D01*
X-68580Y817879D02*
X-5080Y817879D01*
X-5080Y0D01*
X-68580Y0D01*
X-68580Y817879D01*
D14*
X262890Y381000D02*
X262895Y381405D01*
X262910Y381810D01*
X262935Y382215D01*
X262970Y382618D01*
X263014Y383021D01*
X263069Y383423D01*
X263133Y383823D01*
X263207Y384221D01*
X263291Y384617D01*
X263385Y385012D01*
X263488Y385403D01*
X263601Y385793D01*
X263723Y386179D01*
X263855Y386562D01*
X263996Y386942D01*
X264147Y387318D01*
X264306Y387691D01*
X264475Y388059D01*
X264653Y388423D01*
X264839Y388783D01*
X265035Y389138D01*
X265239Y389488D01*
X265451Y389833D01*
X265672Y390172D01*
X265902Y390507D01*
X266139Y390835D01*
X266384Y391157D01*
X266638Y391474D01*
X266898Y391784D01*
X267167Y392087D01*
X267443Y392384D01*
X267726Y392674D01*
X268016Y392957D01*
X268313Y393233D01*
X268616Y393502D01*
X268926Y393762D01*
X269243Y394016D01*
X269565Y394261D01*
X269893Y394498D01*
X270228Y394728D01*
X270567Y394949D01*
X270912Y395161D01*
X271262Y395365D01*
X271617Y395561D01*
X271977Y395747D01*
X272341Y395925D01*
X272709Y396094D01*
X273082Y396253D01*
X273458Y396404D01*
X273838Y396545D01*
X274221Y396677D01*
X274607Y396799D01*
X274997Y396912D01*
X275388Y397015D01*
X275783Y397109D01*
X276179Y397193D01*
X276577Y397267D01*
X276977Y397331D01*
X277379Y397386D01*
X277782Y397430D01*
X278185Y397465D01*
X278590Y397490D01*
X278995Y397505D01*
X279400Y397510D01*
X279805Y397505D01*
X280210Y397490D01*
X280615Y397465D01*
X281018Y397430D01*
X281421Y397386D01*
X281823Y397331D01*
X282223Y397267D01*
X282621Y397193D01*
X283017Y397109D01*
X283412Y397015D01*
X283803Y396912D01*
X284193Y396799D01*
X284579Y396677D01*
X284962Y396545D01*
X285342Y396404D01*
X285718Y396253D01*
X286091Y396094D01*
X286459Y395925D01*
X286823Y395747D01*
X287183Y395561D01*
X287538Y395365D01*
X287888Y395161D01*
X288233Y394949D01*
X288572Y394728D01*
X288907Y394498D01*
X289235Y394261D01*
X289557Y394016D01*
X289874Y393762D01*
X290184Y393502D01*
X290487Y393233D01*
X290784Y392957D01*
X291074Y392674D01*
X291357Y392384D01*
X291633Y392087D01*
X291902Y391784D01*
X292162Y391474D01*
X292416Y391157D01*
X292661Y390835D01*
X292898Y390507D01*
X293128Y390172D01*
X293349Y389833D01*
X293561Y389488D01*
X293765Y389138D01*
X293961Y388783D01*
X294147Y388423D01*
X294325Y388059D01*
X294494Y387691D01*
X294653Y387318D01*
X294804Y386942D01*
X294945Y386562D01*
X295077Y386179D01*
X295199Y385793D01*
X295312Y385403D01*
X295415Y385012D01*
X295509Y384617D01*
X295593Y384221D01*
X295667Y383823D01*
X295731Y383423D01*
X295786Y383021D01*
X295830Y382618D01*
X295865Y382215D01*
X295890Y381810D01*
X295905Y381405D01*
X295910Y381000D01*
X295905Y380595D01*
X295890Y380190D01*
X295865Y379785D01*
X295830Y379382D01*
X295786Y378979D01*
X295731Y378577D01*
X295667Y378177D01*
X295593Y377779D01*
X295509Y377383D01*
X295415Y376988D01*
X295312Y376597D01*
X295199Y376207D01*
X295077Y375821D01*
X294945Y375438D01*
X294804Y375058D01*
X294653Y374682D01*
X294494Y374309D01*
X294325Y373941D01*
X294147Y373577D01*
X293961Y373217D01*
X293765Y372862D01*
X293561Y372512D01*
X293349Y372167D01*
X293128Y371828D01*
X292898Y371493D01*
X292661Y371165D01*
X292416Y370843D01*
X292162Y370526D01*
X291902Y370216D01*
X291633Y369913D01*
X291357Y369616D01*
X291074Y369326D01*
X290784Y369043D01*
X290487Y368767D01*
X290184Y368498D01*
X289874Y368238D01*
X289557Y367984D01*
X289235Y367739D01*
X288907Y367502D01*
X288572Y367272D01*
X288233Y367051D01*
X287888Y366839D01*
X287538Y366635D01*
X287183Y366439D01*
X286823Y366253D01*
X286459Y366075D01*
X286091Y365906D01*
X285718Y365747D01*
X285342Y365596D01*
X284962Y365455D01*
X284579Y365323D01*
X284193Y365201D01*
X283803Y365088D01*
X283412Y364985D01*
X283017Y364891D01*
X282621Y364807D01*
X282223Y364733D01*
X281823Y364669D01*
X281421Y364614D01*
X281018Y364570D01*
X280615Y364535D01*
X280210Y364510D01*
X279805Y364495D01*
X279400Y364490D01*
X278995Y364495D01*
X278590Y364510D01*
X278185Y364535D01*
X277782Y364570D01*
X277379Y364614D01*
X276977Y364669D01*
X276577Y364733D01*
X276179Y364807D01*
X275783Y364891D01*
X275388Y364985D01*
X274997Y365088D01*
X274607Y365201D01*
X274221Y365323D01*
X273838Y365455D01*
X273458Y365596D01*
X273082Y365747D01*
X272709Y365906D01*
X272341Y366075D01*
X271977Y366253D01*
X271617Y366439D01*
X271262Y366635D01*
X270912Y366839D01*
X270567Y367051D01*
X270228Y367272D01*
X269893Y367502D01*
X269565Y367739D01*
X269243Y367984D01*
X268926Y368238D01*
X268616Y368498D01*
X268313Y368767D01*
X268016Y369043D01*
X267726Y369326D01*
X267443Y369616D01*
X267167Y369913D01*
X266898Y370216D01*
X266638Y370526D01*
X266384Y370843D01*
X266139Y371165D01*
X265902Y371493D01*
X265672Y371828D01*
X265451Y372167D01*
X265239Y372512D01*
X265035Y372862D01*
X264839Y373217D01*
X264653Y373577D01*
X264475Y373941D01*
X264306Y374309D01*
X264147Y374682D01*
X263996Y375058D01*
X263855Y375438D01*
X263723Y375821D01*
X263601Y376207D01*
X263488Y376597D01*
X263385Y376988D01*
X263291Y377383D01*
X263207Y377779D01*
X263133Y378177D01*
X263069Y378577D01*
X263014Y378979D01*
X262970Y379382D01*
X262935Y379785D01*
X262910Y380190D01*
X262895Y380595D01*
X262890Y381000D01*
X59690Y381000D02*
X59695Y381405D01*
X59710Y381810D01*
X59735Y382215D01*
X59770Y382618D01*
X59814Y383021D01*
X59869Y383423D01*
X59933Y383823D01*
X60007Y384221D01*
X60091Y384617D01*
X60185Y385012D01*
X60288Y385403D01*
X60401Y385793D01*
X60523Y386179D01*
X60655Y386562D01*
X60796Y386942D01*
X60947Y387318D01*
X61106Y387691D01*
X61275Y388059D01*
X61453Y388423D01*
X61639Y388783D01*
X61835Y389138D01*
X62039Y389488D01*
X62251Y389833D01*
X62472Y390172D01*
X62702Y390507D01*
X62939Y390835D01*
X63184Y391157D01*
X63438Y391474D01*
X63698Y391784D01*
X63967Y392087D01*
X64243Y392384D01*
X64526Y392674D01*
X64816Y392957D01*
X65113Y393233D01*
X65416Y393502D01*
X65726Y393762D01*
X66043Y394016D01*
X66365Y394261D01*
X66693Y394498D01*
X67028Y394728D01*
X67367Y394949D01*
X67712Y395161D01*
X68062Y395365D01*
X68417Y395561D01*
X68777Y395747D01*
X69141Y395925D01*
X69509Y396094D01*
X69882Y396253D01*
X70258Y396404D01*
X70638Y396545D01*
X71021Y396677D01*
X71407Y396799D01*
X71797Y396912D01*
X72188Y397015D01*
X72583Y397109D01*
X72979Y397193D01*
X73377Y397267D01*
X73777Y397331D01*
X74179Y397386D01*
X74582Y397430D01*
X74985Y397465D01*
X75390Y397490D01*
X75795Y397505D01*
X76200Y397510D01*
X76605Y397505D01*
X77010Y397490D01*
X77415Y397465D01*
X77818Y397430D01*
X78221Y397386D01*
X78623Y397331D01*
X79023Y397267D01*
X79421Y397193D01*
X79817Y397109D01*
X80212Y397015D01*
X80603Y396912D01*
X80993Y396799D01*
X81379Y396677D01*
X81762Y396545D01*
X82142Y396404D01*
X82518Y396253D01*
X82891Y396094D01*
X83259Y395925D01*
X83623Y395747D01*
X83983Y395561D01*
X84338Y395365D01*
X84688Y395161D01*
X85033Y394949D01*
X85372Y394728D01*
X85707Y394498D01*
X86035Y394261D01*
X86357Y394016D01*
X86674Y393762D01*
X86984Y393502D01*
X87287Y393233D01*
X87584Y392957D01*
X87874Y392674D01*
X88157Y392384D01*
X88433Y392087D01*
X88702Y391784D01*
X88962Y391474D01*
X89216Y391157D01*
X89461Y390835D01*
X89698Y390507D01*
X89928Y390172D01*
X90149Y389833D01*
X90361Y389488D01*
X90565Y389138D01*
X90761Y388783D01*
X90947Y388423D01*
X91125Y388059D01*
X91294Y387691D01*
X91453Y387318D01*
X91604Y386942D01*
X91745Y386562D01*
X91877Y386179D01*
X91999Y385793D01*
X92112Y385403D01*
X92215Y385012D01*
X92309Y384617D01*
X92393Y384221D01*
X92467Y383823D01*
X92531Y383423D01*
X92586Y383021D01*
X92630Y382618D01*
X92665Y382215D01*
X92690Y381810D01*
X92705Y381405D01*
X92710Y381000D01*
X92705Y380595D01*
X92690Y380190D01*
X92665Y379785D01*
X92630Y379382D01*
X92586Y378979D01*
X92531Y378577D01*
X92467Y378177D01*
X92393Y377779D01*
X92309Y377383D01*
X92215Y376988D01*
X92112Y376597D01*
X91999Y376207D01*
X91877Y375821D01*
X91745Y375438D01*
X91604Y375058D01*
X91453Y374682D01*
X91294Y374309D01*
X91125Y373941D01*
X90947Y373577D01*
X90761Y373217D01*
X90565Y372862D01*
X90361Y372512D01*
X90149Y372167D01*
X89928Y371828D01*
X89698Y371493D01*
X89461Y371165D01*
X89216Y370843D01*
X88962Y370526D01*
X88702Y370216D01*
X88433Y369913D01*
X88157Y369616D01*
X87874Y369326D01*
X87584Y369043D01*
X87287Y368767D01*
X86984Y368498D01*
X86674Y368238D01*
X86357Y367984D01*
X86035Y367739D01*
X85707Y367502D01*
X85372Y367272D01*
X85033Y367051D01*
X84688Y366839D01*
X84338Y366635D01*
X83983Y366439D01*
X83623Y366253D01*
X83259Y366075D01*
X82891Y365906D01*
X82518Y365747D01*
X82142Y365596D01*
X81762Y365455D01*
X81379Y365323D01*
X80993Y365201D01*
X80603Y365088D01*
X80212Y364985D01*
X79817Y364891D01*
X79421Y364807D01*
X79023Y364733D01*
X78623Y364669D01*
X78221Y364614D01*
X77818Y364570D01*
X77415Y364535D01*
X77010Y364510D01*
X76605Y364495D01*
X76200Y364490D01*
X75795Y364495D01*
X75390Y364510D01*
X74985Y364535D01*
X74582Y364570D01*
X74179Y364614D01*
X73777Y364669D01*
X73377Y364733D01*
X72979Y364807D01*
X72583Y364891D01*
X72188Y364985D01*
X71797Y365088D01*
X71407Y365201D01*
X71021Y365323D01*
X70638Y365455D01*
X70258Y365596D01*
X69882Y365747D01*
X69509Y365906D01*
X69141Y366075D01*
X68777Y366253D01*
X68417Y366439D01*
X68062Y366635D01*
X67712Y366839D01*
X67367Y367051D01*
X67028Y367272D01*
X66693Y367502D01*
X66365Y367739D01*
X66043Y367984D01*
X65726Y368238D01*
X65416Y368498D01*
X65113Y368767D01*
X64816Y369043D01*
X64526Y369326D01*
X64243Y369616D01*
X63967Y369913D01*
X63698Y370216D01*
X63438Y370526D01*
X63184Y370843D01*
X62939Y371165D01*
X62702Y371493D01*
X62472Y371828D01*
X62251Y372167D01*
X62039Y372512D01*
X61835Y372862D01*
X61639Y373217D01*
X61453Y373577D01*
X61275Y373941D01*
X61106Y374309D01*
X60947Y374682D01*
X60796Y375058D01*
X60655Y375438D01*
X60523Y375821D01*
X60401Y376207D01*
X60288Y376597D01*
X60185Y376988D01*
X60091Y377383D01*
X60007Y377779D01*
X59933Y378177D01*
X59869Y378577D01*
X59814Y378979D01*
X59770Y379382D01*
X59735Y379785D01*
X59710Y380190D01*
X59695Y380595D01*
X59690Y381000D01*
X262890Y25400D02*
X262895Y25805D01*
X262910Y26210D01*
X262935Y26615D01*
X262970Y27018D01*
X263014Y27421D01*
X263069Y27823D01*
X263133Y28223D01*
X263207Y28621D01*
X263291Y29017D01*
X263385Y29412D01*
X263488Y29803D01*
X263601Y30193D01*
X263723Y30579D01*
X263855Y30962D01*
X263996Y31342D01*
X264147Y31718D01*
X264306Y32091D01*
X264475Y32459D01*
X264653Y32823D01*
X264839Y33183D01*
X265035Y33538D01*
X265239Y33888D01*
X265451Y34233D01*
X265672Y34572D01*
X265902Y34907D01*
X266139Y35235D01*
X266384Y35557D01*
X266638Y35874D01*
X266898Y36184D01*
X267167Y36487D01*
X267443Y36784D01*
X267726Y37074D01*
X268016Y37357D01*
X268313Y37633D01*
X268616Y37902D01*
X268926Y38162D01*
X269243Y38416D01*
X269565Y38661D01*
X269893Y38898D01*
X270228Y39128D01*
X270567Y39349D01*
X270912Y39561D01*
X271262Y39765D01*
X271617Y39961D01*
X271977Y40147D01*
X272341Y40325D01*
X272709Y40494D01*
X273082Y40653D01*
X273458Y40804D01*
X273838Y40945D01*
X274221Y41077D01*
X274607Y41199D01*
X274997Y41312D01*
X275388Y41415D01*
X275783Y41509D01*
X276179Y41593D01*
X276577Y41667D01*
X276977Y41731D01*
X277379Y41786D01*
X277782Y41830D01*
X278185Y41865D01*
X278590Y41890D01*
X278995Y41905D01*
X279400Y41910D01*
X279805Y41905D01*
X280210Y41890D01*
X280615Y41865D01*
X281018Y41830D01*
X281421Y41786D01*
X281823Y41731D01*
X282223Y41667D01*
X282621Y41593D01*
X283017Y41509D01*
X283412Y41415D01*
X283803Y41312D01*
X284193Y41199D01*
X284579Y41077D01*
X284962Y40945D01*
X285342Y40804D01*
X285718Y40653D01*
X286091Y40494D01*
X286459Y40325D01*
X286823Y40147D01*
X287183Y39961D01*
X287538Y39765D01*
X287888Y39561D01*
X288233Y39349D01*
X288572Y39128D01*
X288907Y38898D01*
X289235Y38661D01*
X289557Y38416D01*
X289874Y38162D01*
X290184Y37902D01*
X290487Y37633D01*
X290784Y37357D01*
X291074Y37074D01*
X291357Y36784D01*
X291633Y36487D01*
X291902Y36184D01*
X292162Y35874D01*
X292416Y35557D01*
X292661Y35235D01*
X292898Y34907D01*
X293128Y34572D01*
X293349Y34233D01*
X293561Y33888D01*
X293765Y33538D01*
X293961Y33183D01*
X294147Y32823D01*
X294325Y32459D01*
X294494Y32091D01*
X294653Y31718D01*
X294804Y31342D01*
X294945Y30962D01*
X295077Y30579D01*
X295199Y30193D01*
X295312Y29803D01*
X295415Y29412D01*
X295509Y29017D01*
X295593Y28621D01*
X295667Y28223D01*
X295731Y27823D01*
X295786Y27421D01*
X295830Y27018D01*
X295865Y26615D01*
X295890Y26210D01*
X295905Y25805D01*
X295910Y25400D01*
X295905Y24995D01*
X295890Y24590D01*
X295865Y24185D01*
X295830Y23782D01*
X295786Y23379D01*
X295731Y22977D01*
X295667Y22577D01*
X295593Y22179D01*
X295509Y21783D01*
X295415Y21388D01*
X295312Y20997D01*
X295199Y20607D01*
X295077Y20221D01*
X294945Y19838D01*
X294804Y19458D01*
X294653Y19082D01*
X294494Y18709D01*
X294325Y18341D01*
X294147Y17977D01*
X293961Y17617D01*
X293765Y17262D01*
X293561Y16912D01*
X293349Y16567D01*
X293128Y16228D01*
X292898Y15893D01*
X292661Y15565D01*
X292416Y15243D01*
X292162Y14926D01*
X291902Y14616D01*
X291633Y14313D01*
X291357Y14016D01*
X291074Y13726D01*
X290784Y13443D01*
X290487Y13167D01*
X290184Y12898D01*
X289874Y12638D01*
X289557Y12384D01*
X289235Y12139D01*
X288907Y11902D01*
X288572Y11672D01*
X288233Y11451D01*
X287888Y11239D01*
X287538Y11035D01*
X287183Y10839D01*
X286823Y10653D01*
X286459Y10475D01*
X286091Y10306D01*
X285718Y10147D01*
X285342Y9996D01*
X284962Y9855D01*
X284579Y9723D01*
X284193Y9601D01*
X283803Y9488D01*
X283412Y9385D01*
X283017Y9291D01*
X282621Y9207D01*
X282223Y9133D01*
X281823Y9069D01*
X281421Y9014D01*
X281018Y8970D01*
X280615Y8935D01*
X280210Y8910D01*
X279805Y8895D01*
X279400Y8890D01*
X278995Y8895D01*
X278590Y8910D01*
X278185Y8935D01*
X277782Y8970D01*
X277379Y9014D01*
X276977Y9069D01*
X276577Y9133D01*
X276179Y9207D01*
X275783Y9291D01*
X275388Y9385D01*
X274997Y9488D01*
X274607Y9601D01*
X274221Y9723D01*
X273838Y9855D01*
X273458Y9996D01*
X273082Y10147D01*
X272709Y10306D01*
X272341Y10475D01*
X271977Y10653D01*
X271617Y10839D01*
X271262Y11035D01*
X270912Y11239D01*
X270567Y11451D01*
X270228Y11672D01*
X269893Y11902D01*
X269565Y12139D01*
X269243Y12384D01*
X268926Y12638D01*
X268616Y12898D01*
X268313Y13167D01*
X268016Y13443D01*
X267726Y13726D01*
X267443Y14016D01*
X267167Y14313D01*
X266898Y14616D01*
X266638Y14926D01*
X266384Y15243D01*
X266139Y15565D01*
X265902Y15893D01*
X265672Y16228D01*
X265451Y16567D01*
X265239Y16912D01*
X265035Y17262D01*
X264839Y17617D01*
X264653Y17977D01*
X264475Y18341D01*
X264306Y18709D01*
X264147Y19082D01*
X263996Y19458D01*
X263855Y19838D01*
X263723Y20221D01*
X263601Y20607D01*
X263488Y20997D01*
X263385Y21388D01*
X263291Y21783D01*
X263207Y22179D01*
X263133Y22577D01*
X263069Y22977D01*
X263014Y23379D01*
X262970Y23782D01*
X262935Y24185D01*
X262910Y24590D01*
X262895Y24995D01*
X262890Y25400D01*
X59690Y25400D02*
X59695Y25805D01*
X59710Y26210D01*
X59735Y26615D01*
X59770Y27018D01*
X59814Y27421D01*
X59869Y27823D01*
X59933Y28223D01*
X60007Y28621D01*
X60091Y29017D01*
X60185Y29412D01*
X60288Y29803D01*
X60401Y30193D01*
X60523Y30579D01*
X60655Y30962D01*
X60796Y31342D01*
X60947Y31718D01*
X61106Y32091D01*
X61275Y32459D01*
X61453Y32823D01*
X61639Y33183D01*
X61835Y33538D01*
X62039Y33888D01*
X62251Y34233D01*
X62472Y34572D01*
X62702Y34907D01*
X62939Y35235D01*
X63184Y35557D01*
X63438Y35874D01*
X63698Y36184D01*
X63967Y36487D01*
X64243Y36784D01*
X64526Y37074D01*
X64816Y37357D01*
X65113Y37633D01*
X65416Y37902D01*
X65726Y38162D01*
X66043Y38416D01*
X66365Y38661D01*
X66693Y38898D01*
X67028Y39128D01*
X67367Y39349D01*
X67712Y39561D01*
X68062Y39765D01*
X68417Y39961D01*
X68777Y40147D01*
X69141Y40325D01*
X69509Y40494D01*
X69882Y40653D01*
X70258Y40804D01*
X70638Y40945D01*
X71021Y41077D01*
X71407Y41199D01*
X71797Y41312D01*
X72188Y41415D01*
X72583Y41509D01*
X72979Y41593D01*
X73377Y41667D01*
X73777Y41731D01*
X74179Y41786D01*
X74582Y41830D01*
X74985Y41865D01*
X75390Y41890D01*
X75795Y41905D01*
X76200Y41910D01*
X76605Y41905D01*
X77010Y41890D01*
X77415Y41865D01*
X77818Y41830D01*
X78221Y41786D01*
X78623Y41731D01*
X79023Y41667D01*
X79421Y41593D01*
X79817Y41509D01*
X80212Y41415D01*
X80603Y41312D01*
X80993Y41199D01*
X81379Y41077D01*
X81762Y40945D01*
X82142Y40804D01*
X82518Y40653D01*
X82891Y40494D01*
X83259Y40325D01*
X83623Y40147D01*
X83983Y39961D01*
X84338Y39765D01*
X84688Y39561D01*
X85033Y39349D01*
X85372Y39128D01*
X85707Y38898D01*
X86035Y38661D01*
X86357Y38416D01*
X86674Y38162D01*
X86984Y37902D01*
X87287Y37633D01*
X87584Y37357D01*
X87874Y37074D01*
X88157Y36784D01*
X88433Y36487D01*
X88702Y36184D01*
X88962Y35874D01*
X89216Y35557D01*
X89461Y35235D01*
X89698Y34907D01*
X89928Y34572D01*
X90149Y34233D01*
X90361Y33888D01*
X90565Y33538D01*
X90761Y33183D01*
X90947Y32823D01*
X91125Y32459D01*
X91294Y32091D01*
X91453Y31718D01*
X91604Y31342D01*
X91745Y30962D01*
X91877Y30579D01*
X91999Y30193D01*
X92112Y29803D01*
X92215Y29412D01*
X92309Y29017D01*
X92393Y28621D01*
X92467Y28223D01*
X92531Y27823D01*
X92586Y27421D01*
X92630Y27018D01*
X92665Y26615D01*
X92690Y26210D01*
X92705Y25805D01*
X92710Y25400D01*
X92705Y24995D01*
X92690Y24590D01*
X92665Y24185D01*
X92630Y23782D01*
X92586Y23379D01*
X92531Y22977D01*
X92467Y22577D01*
X92393Y22179D01*
X92309Y21783D01*
X92215Y21388D01*
X92112Y20997D01*
X91999Y20607D01*
X91877Y20221D01*
X91745Y19838D01*
X91604Y19458D01*
X91453Y19082D01*
X91294Y18709D01*
X91125Y18341D01*
X90947Y17977D01*
X90761Y17617D01*
X90565Y17262D01*
X90361Y16912D01*
X90149Y16567D01*
X89928Y16228D01*
X89698Y15893D01*
X89461Y15565D01*
X89216Y15243D01*
X88962Y14926D01*
X88702Y14616D01*
X88433Y14313D01*
X88157Y14016D01*
X87874Y13726D01*
X87584Y13443D01*
X87287Y13167D01*
X86984Y12898D01*
X86674Y12638D01*
X86357Y12384D01*
X86035Y12139D01*
X85707Y11902D01*
X85372Y11672D01*
X85033Y11451D01*
X84688Y11239D01*
X84338Y11035D01*
X83983Y10839D01*
X83623Y10653D01*
X83259Y10475D01*
X82891Y10306D01*
X82518Y10147D01*
X82142Y9996D01*
X81762Y9855D01*
X81379Y9723D01*
X80993Y9601D01*
X80603Y9488D01*
X80212Y9385D01*
X79817Y9291D01*
X79421Y9207D01*
X79023Y9133D01*
X78623Y9069D01*
X78221Y9014D01*
X77818Y8970D01*
X77415Y8935D01*
X77010Y8910D01*
X76605Y8895D01*
X76200Y8890D01*
X75795Y8895D01*
X75390Y8910D01*
X74985Y8935D01*
X74582Y8970D01*
X74179Y9014D01*
X73777Y9069D01*
X73377Y9133D01*
X72979Y9207D01*
X72583Y9291D01*
X72188Y9385D01*
X71797Y9488D01*
X71407Y9601D01*
X71021Y9723D01*
X70638Y9855D01*
X70258Y9996D01*
X69882Y10147D01*
X69509Y10306D01*
X69141Y10475D01*
X68777Y10653D01*
X68417Y10839D01*
X68062Y11035D01*
X67712Y11239D01*
X67367Y11451D01*
X67028Y11672D01*
X66693Y11902D01*
X66365Y12139D01*
X66043Y12384D01*
X65726Y12638D01*
X65416Y12898D01*
X65113Y13167D01*
X64816Y13443D01*
X64526Y13726D01*
X64243Y14016D01*
X63967Y14313D01*
X63698Y14616D01*
X63438Y14926D01*
X63184Y15243D01*
X62939Y15565D01*
X62702Y15893D01*
X62472Y16228D01*
X62251Y16567D01*
X62039Y16912D01*
X61835Y17262D01*
X61639Y17617D01*
X61453Y17977D01*
X61275Y18341D01*
X61106Y18709D01*
X60947Y19082D01*
X60796Y19458D01*
X60655Y19838D01*
X60523Y20221D01*
X60401Y20607D01*
X60288Y20997D01*
X60185Y21388D01*
X60091Y21783D01*
X60007Y22179D01*
X59933Y22577D01*
X59869Y22977D01*
X59814Y23379D01*
X59770Y23782D01*
X59735Y24185D01*
X59710Y24590D01*
X59695Y24995D01*
X59690Y25400D01*
X623569Y381000D02*
X623574Y381405D01*
X623589Y381810D01*
X623614Y382215D01*
X623649Y382618D01*
X623693Y383021D01*
X623748Y383423D01*
X623812Y383823D01*
X623886Y384221D01*
X623970Y384617D01*
X624064Y385012D01*
X624167Y385403D01*
X624280Y385793D01*
X624402Y386179D01*
X624534Y386562D01*
X624675Y386942D01*
X624826Y387318D01*
X624985Y387691D01*
X625154Y388059D01*
X625332Y388423D01*
X625518Y388783D01*
X625714Y389138D01*
X625918Y389488D01*
X626130Y389833D01*
X626351Y390172D01*
X626581Y390507D01*
X626818Y390835D01*
X627063Y391157D01*
X627317Y391474D01*
X627577Y391784D01*
X627846Y392087D01*
X628122Y392384D01*
X628405Y392674D01*
X628695Y392957D01*
X628992Y393233D01*
X629295Y393502D01*
X629605Y393762D01*
X629922Y394016D01*
X630244Y394261D01*
X630572Y394498D01*
X630907Y394728D01*
X631246Y394949D01*
X631591Y395161D01*
X631941Y395365D01*
X632296Y395561D01*
X632656Y395747D01*
X633020Y395925D01*
X633388Y396094D01*
X633761Y396253D01*
X634137Y396404D01*
X634517Y396545D01*
X634900Y396677D01*
X635286Y396799D01*
X635676Y396912D01*
X636067Y397015D01*
X636462Y397109D01*
X636858Y397193D01*
X637256Y397267D01*
X637656Y397331D01*
X638058Y397386D01*
X638461Y397430D01*
X638864Y397465D01*
X639269Y397490D01*
X639674Y397505D01*
X640079Y397510D01*
X640484Y397505D01*
X640889Y397490D01*
X641294Y397465D01*
X641697Y397430D01*
X642100Y397386D01*
X642502Y397331D01*
X642902Y397267D01*
X643300Y397193D01*
X643696Y397109D01*
X644091Y397015D01*
X644482Y396912D01*
X644872Y396799D01*
X645258Y396677D01*
X645641Y396545D01*
X646021Y396404D01*
X646397Y396253D01*
X646770Y396094D01*
X647138Y395925D01*
X647502Y395747D01*
X647862Y395561D01*
X648217Y395365D01*
X648567Y395161D01*
X648912Y394949D01*
X649251Y394728D01*
X649586Y394498D01*
X649914Y394261D01*
X650236Y394016D01*
X650553Y393762D01*
X650863Y393502D01*
X651166Y393233D01*
X651463Y392957D01*
X651753Y392674D01*
X652036Y392384D01*
X652312Y392087D01*
X652581Y391784D01*
X652841Y391474D01*
X653095Y391157D01*
X653340Y390835D01*
X653577Y390507D01*
X653807Y390172D01*
X654028Y389833D01*
X654240Y389488D01*
X654444Y389138D01*
X654640Y388783D01*
X654826Y388423D01*
X655004Y388059D01*
X655173Y387691D01*
X655332Y387318D01*
X655483Y386942D01*
X655624Y386562D01*
X655756Y386179D01*
X655878Y385793D01*
X655991Y385403D01*
X656094Y385012D01*
X656188Y384617D01*
X656272Y384221D01*
X656346Y383823D01*
X656410Y383423D01*
X656465Y383021D01*
X656509Y382618D01*
X656544Y382215D01*
X656569Y381810D01*
X656584Y381405D01*
X656589Y381000D01*
X656584Y380595D01*
X656569Y380190D01*
X656544Y379785D01*
X656509Y379382D01*
X656465Y378979D01*
X656410Y378577D01*
X656346Y378177D01*
X656272Y377779D01*
X656188Y377383D01*
X656094Y376988D01*
X655991Y376597D01*
X655878Y376207D01*
X655756Y375821D01*
X655624Y375438D01*
X655483Y375058D01*
X655332Y374682D01*
X655173Y374309D01*
X655004Y373941D01*
X654826Y373577D01*
X654640Y373217D01*
X654444Y372862D01*
X654240Y372512D01*
X654028Y372167D01*
X653807Y371828D01*
X653577Y371493D01*
X653340Y371165D01*
X653095Y370843D01*
X652841Y370526D01*
X652581Y370216D01*
X652312Y369913D01*
X652036Y369616D01*
X651753Y369326D01*
X651463Y369043D01*
X651166Y368767D01*
X650863Y368498D01*
X650553Y368238D01*
X650236Y367984D01*
X649914Y367739D01*
X649586Y367502D01*
X649251Y367272D01*
X648912Y367051D01*
X648567Y366839D01*
X648217Y366635D01*
X647862Y366439D01*
X647502Y366253D01*
X647138Y366075D01*
X646770Y365906D01*
X646397Y365747D01*
X646021Y365596D01*
X645641Y365455D01*
X645258Y365323D01*
X644872Y365201D01*
X644482Y365088D01*
X644091Y364985D01*
X643696Y364891D01*
X643300Y364807D01*
X642902Y364733D01*
X642502Y364669D01*
X642100Y364614D01*
X641697Y364570D01*
X641294Y364535D01*
X640889Y364510D01*
X640484Y364495D01*
X640079Y364490D01*
X639674Y364495D01*
X639269Y364510D01*
X638864Y364535D01*
X638461Y364570D01*
X638058Y364614D01*
X637656Y364669D01*
X637256Y364733D01*
X636858Y364807D01*
X636462Y364891D01*
X636067Y364985D01*
X635676Y365088D01*
X635286Y365201D01*
X634900Y365323D01*
X634517Y365455D01*
X634137Y365596D01*
X633761Y365747D01*
X633388Y365906D01*
X633020Y366075D01*
X632656Y366253D01*
X632296Y366439D01*
X631941Y366635D01*
X631591Y366839D01*
X631246Y367051D01*
X630907Y367272D01*
X630572Y367502D01*
X630244Y367739D01*
X629922Y367984D01*
X629605Y368238D01*
X629295Y368498D01*
X628992Y368767D01*
X628695Y369043D01*
X628405Y369326D01*
X628122Y369616D01*
X627846Y369913D01*
X627577Y370216D01*
X627317Y370526D01*
X627063Y370843D01*
X626818Y371165D01*
X626581Y371493D01*
X626351Y371828D01*
X626130Y372167D01*
X625918Y372512D01*
X625714Y372862D01*
X625518Y373217D01*
X625332Y373577D01*
X625154Y373941D01*
X624985Y374309D01*
X624826Y374682D01*
X624675Y375058D01*
X624534Y375438D01*
X624402Y375821D01*
X624280Y376207D01*
X624167Y376597D01*
X624064Y376988D01*
X623970Y377383D01*
X623886Y377779D01*
X623812Y378177D01*
X623748Y378577D01*
X623693Y378979D01*
X623649Y379382D01*
X623614Y379785D01*
X623589Y380190D01*
X623574Y380595D01*
X623569Y381000D01*
X420369Y381000D02*
X420374Y381405D01*
X420389Y381810D01*
X420414Y382215D01*
X420449Y382618D01*
X420493Y383021D01*
X420548Y383423D01*
X420612Y383823D01*
X420686Y384221D01*
X420770Y384617D01*
X420864Y385012D01*
X420967Y385403D01*
X421080Y385793D01*
X421202Y386179D01*
X421334Y386562D01*
X421475Y386942D01*
X421626Y387318D01*
X421785Y387691D01*
X421954Y388059D01*
X422132Y388423D01*
X422318Y388783D01*
X422514Y389138D01*
X422718Y389488D01*
X422930Y389833D01*
X423151Y390172D01*
X423381Y390507D01*
X423618Y390835D01*
X423863Y391157D01*
X424117Y391474D01*
X424377Y391784D01*
X424646Y392087D01*
X424922Y392384D01*
X425205Y392674D01*
X425495Y392957D01*
X425792Y393233D01*
X426095Y393502D01*
X426405Y393762D01*
X426722Y394016D01*
X427044Y394261D01*
X427372Y394498D01*
X427707Y394728D01*
X428046Y394949D01*
X428391Y395161D01*
X428741Y395365D01*
X429096Y395561D01*
X429456Y395747D01*
X429820Y395925D01*
X430188Y396094D01*
X430561Y396253D01*
X430937Y396404D01*
X431317Y396545D01*
X431700Y396677D01*
X432086Y396799D01*
X432476Y396912D01*
X432867Y397015D01*
X433262Y397109D01*
X433658Y397193D01*
X434056Y397267D01*
X434456Y397331D01*
X434858Y397386D01*
X435261Y397430D01*
X435664Y397465D01*
X436069Y397490D01*
X436474Y397505D01*
X436879Y397510D01*
X437284Y397505D01*
X437689Y397490D01*
X438094Y397465D01*
X438497Y397430D01*
X438900Y397386D01*
X439302Y397331D01*
X439702Y397267D01*
X440100Y397193D01*
X440496Y397109D01*
X440891Y397015D01*
X441282Y396912D01*
X441672Y396799D01*
X442058Y396677D01*
X442441Y396545D01*
X442821Y396404D01*
X443197Y396253D01*
X443570Y396094D01*
X443938Y395925D01*
X444302Y395747D01*
X444662Y395561D01*
X445017Y395365D01*
X445367Y395161D01*
X445712Y394949D01*
X446051Y394728D01*
X446386Y394498D01*
X446714Y394261D01*
X447036Y394016D01*
X447353Y393762D01*
X447663Y393502D01*
X447966Y393233D01*
X448263Y392957D01*
X448553Y392674D01*
X448836Y392384D01*
X449112Y392087D01*
X449381Y391784D01*
X449641Y391474D01*
X449895Y391157D01*
X450140Y390835D01*
X450377Y390507D01*
X450607Y390172D01*
X450828Y389833D01*
X451040Y389488D01*
X451244Y389138D01*
X451440Y388783D01*
X451626Y388423D01*
X451804Y388059D01*
X451973Y387691D01*
X452132Y387318D01*
X452283Y386942D01*
X452424Y386562D01*
X452556Y386179D01*
X452678Y385793D01*
X452791Y385403D01*
X452894Y385012D01*
X452988Y384617D01*
X453072Y384221D01*
X453146Y383823D01*
X453210Y383423D01*
X453265Y383021D01*
X453309Y382618D01*
X453344Y382215D01*
X453369Y381810D01*
X453384Y381405D01*
X453389Y381000D01*
X453384Y380595D01*
X453369Y380190D01*
X453344Y379785D01*
X453309Y379382D01*
X453265Y378979D01*
X453210Y378577D01*
X453146Y378177D01*
X453072Y377779D01*
X452988Y377383D01*
X452894Y376988D01*
X452791Y376597D01*
X452678Y376207D01*
X452556Y375821D01*
X452424Y375438D01*
X452283Y375058D01*
X452132Y374682D01*
X451973Y374309D01*
X451804Y373941D01*
X451626Y373577D01*
X451440Y373217D01*
X451244Y372862D01*
X451040Y372512D01*
X450828Y372167D01*
X450607Y371828D01*
X450377Y371493D01*
X450140Y371165D01*
X449895Y370843D01*
X449641Y370526D01*
X449381Y370216D01*
X449112Y369913D01*
X448836Y369616D01*
X448553Y369326D01*
X448263Y369043D01*
X447966Y368767D01*
X447663Y368498D01*
X447353Y368238D01*
X447036Y367984D01*
X446714Y367739D01*
X446386Y367502D01*
X446051Y367272D01*
X445712Y367051D01*
X445367Y366839D01*
X445017Y366635D01*
X444662Y366439D01*
X444302Y366253D01*
X443938Y366075D01*
X443570Y365906D01*
X443197Y365747D01*
X442821Y365596D01*
X442441Y365455D01*
X442058Y365323D01*
X441672Y365201D01*
X441282Y365088D01*
X440891Y364985D01*
X440496Y364891D01*
X440100Y364807D01*
X439702Y364733D01*
X439302Y364669D01*
X438900Y364614D01*
X438497Y364570D01*
X438094Y364535D01*
X437689Y364510D01*
X437284Y364495D01*
X436879Y364490D01*
X436474Y364495D01*
X436069Y364510D01*
X435664Y364535D01*
X435261Y364570D01*
X434858Y364614D01*
X434456Y364669D01*
X434056Y364733D01*
X433658Y364807D01*
X433262Y364891D01*
X432867Y364985D01*
X432476Y365088D01*
X432086Y365201D01*
X431700Y365323D01*
X431317Y365455D01*
X430937Y365596D01*
X430561Y365747D01*
X430188Y365906D01*
X429820Y366075D01*
X429456Y366253D01*
X429096Y366439D01*
X428741Y366635D01*
X428391Y366839D01*
X428046Y367051D01*
X427707Y367272D01*
X427372Y367502D01*
X427044Y367739D01*
X426722Y367984D01*
X426405Y368238D01*
X426095Y368498D01*
X425792Y368767D01*
X425495Y369043D01*
X425205Y369326D01*
X424922Y369616D01*
X424646Y369913D01*
X424377Y370216D01*
X424117Y370526D01*
X423863Y370843D01*
X423618Y371165D01*
X423381Y371493D01*
X423151Y371828D01*
X422930Y372167D01*
X422718Y372512D01*
X422514Y372862D01*
X422318Y373217D01*
X422132Y373577D01*
X421954Y373941D01*
X421785Y374309D01*
X421626Y374682D01*
X421475Y375058D01*
X421334Y375438D01*
X421202Y375821D01*
X421080Y376207D01*
X420967Y376597D01*
X420864Y376988D01*
X420770Y377383D01*
X420686Y377779D01*
X420612Y378177D01*
X420548Y378577D01*
X420493Y378979D01*
X420449Y379382D01*
X420414Y379785D01*
X420389Y380190D01*
X420374Y380595D01*
X420369Y381000D01*
X623569Y25400D02*
X623574Y25805D01*
X623589Y26210D01*
X623614Y26615D01*
X623649Y27018D01*
X623693Y27421D01*
X623748Y27823D01*
X623812Y28223D01*
X623886Y28621D01*
X623970Y29017D01*
X624064Y29412D01*
X624167Y29803D01*
X624280Y30193D01*
X624402Y30579D01*
X624534Y30962D01*
X624675Y31342D01*
X624826Y31718D01*
X624985Y32091D01*
X625154Y32459D01*
X625332Y32823D01*
X625518Y33183D01*
X625714Y33538D01*
X625918Y33888D01*
X626130Y34233D01*
X626351Y34572D01*
X626581Y34907D01*
X626818Y35235D01*
X627063Y35557D01*
X627317Y35874D01*
X627577Y36184D01*
X627846Y36487D01*
X628122Y36784D01*
X628405Y37074D01*
X628695Y37357D01*
X628992Y37633D01*
X629295Y37902D01*
X629605Y38162D01*
X629922Y38416D01*
X630244Y38661D01*
X630572Y38898D01*
X630907Y39128D01*
X631246Y39349D01*
X631591Y39561D01*
X631941Y39765D01*
X632296Y39961D01*
X632656Y40147D01*
X633020Y40325D01*
X633388Y40494D01*
X633761Y40653D01*
X634137Y40804D01*
X634517Y40945D01*
X634900Y41077D01*
X635286Y41199D01*
X635676Y41312D01*
X636067Y41415D01*
X636462Y41509D01*
X636858Y41593D01*
X637256Y41667D01*
X637656Y41731D01*
X638058Y41786D01*
X638461Y41830D01*
X638864Y41865D01*
X639269Y41890D01*
X639674Y41905D01*
X640079Y41910D01*
X640484Y41905D01*
X640889Y41890D01*
X641294Y41865D01*
X641697Y41830D01*
X642100Y41786D01*
X642502Y41731D01*
X642902Y41667D01*
X643300Y41593D01*
X643696Y41509D01*
X644091Y41415D01*
X644482Y41312D01*
X644872Y41199D01*
X645258Y41077D01*
X645641Y40945D01*
X646021Y40804D01*
X646397Y40653D01*
X646770Y40494D01*
X647138Y40325D01*
X647502Y40147D01*
X647862Y39961D01*
X648217Y39765D01*
X648567Y39561D01*
X648912Y39349D01*
X649251Y39128D01*
X649586Y38898D01*
X649914Y38661D01*
X650236Y38416D01*
X650553Y38162D01*
X650863Y37902D01*
X651166Y37633D01*
X651463Y37357D01*
X651753Y37074D01*
X652036Y36784D01*
X652312Y36487D01*
X652581Y36184D01*
X652841Y35874D01*
X653095Y35557D01*
X653340Y35235D01*
X653577Y34907D01*
X653807Y34572D01*
X654028Y34233D01*
X654240Y33888D01*
X654444Y33538D01*
X654640Y33183D01*
X654826Y32823D01*
X655004Y32459D01*
X655173Y32091D01*
X655332Y31718D01*
X655483Y31342D01*
X655624Y30962D01*
X655756Y30579D01*
X655878Y30193D01*
X655991Y29803D01*
X656094Y29412D01*
X656188Y29017D01*
X656272Y28621D01*
X656346Y28223D01*
X656410Y27823D01*
X656465Y27421D01*
X656509Y27018D01*
X656544Y26615D01*
X656569Y26210D01*
X656584Y25805D01*
X656589Y25400D01*
X656584Y24995D01*
X656569Y24590D01*
X656544Y24185D01*
X656509Y23782D01*
X656465Y23379D01*
X656410Y22977D01*
X656346Y22577D01*
X656272Y22179D01*
X656188Y21783D01*
X656094Y21388D01*
X655991Y20997D01*
X655878Y20607D01*
X655756Y20221D01*
X655624Y19838D01*
X655483Y19458D01*
X655332Y19082D01*
X655173Y18709D01*
X655004Y18341D01*
X654826Y17977D01*
X654640Y17617D01*
X654444Y17262D01*
X654240Y16912D01*
X654028Y16567D01*
X653807Y16228D01*
X653577Y15893D01*
X653340Y15565D01*
X653095Y15243D01*
X652841Y14926D01*
X652581Y14616D01*
X652312Y14313D01*
X652036Y14016D01*
X651753Y13726D01*
X651463Y13443D01*
X651166Y13167D01*
X650863Y12898D01*
X650553Y12638D01*
X650236Y12384D01*
X649914Y12139D01*
X649586Y11902D01*
X649251Y11672D01*
X648912Y11451D01*
X648567Y11239D01*
X648217Y11035D01*
X647862Y10839D01*
X647502Y10653D01*
X647138Y10475D01*
X646770Y10306D01*
X646397Y10147D01*
X646021Y9996D01*
X645641Y9855D01*
X645258Y9723D01*
X644872Y9601D01*
X644482Y9488D01*
X644091Y9385D01*
X643696Y9291D01*
X643300Y9207D01*
X642902Y9133D01*
X642502Y9069D01*
X642100Y9014D01*
X641697Y8970D01*
X641294Y8935D01*
X640889Y8910D01*
X640484Y8895D01*
X640079Y8890D01*
X639674Y8895D01*
X639269Y8910D01*
X638864Y8935D01*
X638461Y8970D01*
X638058Y9014D01*
X637656Y9069D01*
X637256Y9133D01*
X636858Y9207D01*
X636462Y9291D01*
X636067Y9385D01*
X635676Y9488D01*
X635286Y9601D01*
X634900Y9723D01*
X634517Y9855D01*
X634137Y9996D01*
X633761Y10147D01*
X633388Y10306D01*
X633020Y10475D01*
X632656Y10653D01*
X632296Y10839D01*
X631941Y11035D01*
X631591Y11239D01*
X631246Y11451D01*
X630907Y11672D01*
X630572Y11902D01*
X630244Y12139D01*
X629922Y12384D01*
X629605Y12638D01*
X629295Y12898D01*
X628992Y13167D01*
X628695Y13443D01*
X628405Y13726D01*
X628122Y14016D01*
X627846Y14313D01*
X627577Y14616D01*
X627317Y14926D01*
X627063Y15243D01*
X626818Y15565D01*
X626581Y15893D01*
X626351Y16228D01*
X626130Y16567D01*
X625918Y16912D01*
X625714Y17262D01*
X625518Y17617D01*
X625332Y17977D01*
X625154Y18341D01*
X624985Y18709D01*
X624826Y19082D01*
X624675Y19458D01*
X624534Y19838D01*
X624402Y20221D01*
X624280Y20607D01*
X624167Y20997D01*
X624064Y21388D01*
X623970Y21783D01*
X623886Y22179D01*
X623812Y22577D01*
X623748Y22977D01*
X623693Y23379D01*
X623649Y23782D01*
X623614Y24185D01*
X623589Y24590D01*
X623574Y24995D01*
X623569Y25400D01*
X420369Y25400D02*
X420374Y25805D01*
X420389Y26210D01*
X420414Y26615D01*
X420449Y27018D01*
X420493Y27421D01*
X420548Y27823D01*
X420612Y28223D01*
X420686Y28621D01*
X420770Y29017D01*
X420864Y29412D01*
X420967Y29803D01*
X421080Y30193D01*
X421202Y30579D01*
X421334Y30962D01*
X421475Y31342D01*
X421626Y31718D01*
X421785Y32091D01*
X421954Y32459D01*
X422132Y32823D01*
X422318Y33183D01*
X422514Y33538D01*
X422718Y33888D01*
X422930Y34233D01*
X423151Y34572D01*
X423381Y34907D01*
X423618Y35235D01*
X423863Y35557D01*
X424117Y35874D01*
X424377Y36184D01*
X424646Y36487D01*
X424922Y36784D01*
X425205Y37074D01*
X425495Y37357D01*
X425792Y37633D01*
X426095Y37902D01*
X426405Y38162D01*
X426722Y38416D01*
X427044Y38661D01*
X427372Y38898D01*
X427707Y39128D01*
X428046Y39349D01*
X428391Y39561D01*
X428741Y39765D01*
X429096Y39961D01*
X429456Y40147D01*
X429820Y40325D01*
X430188Y40494D01*
X430561Y40653D01*
X430937Y40804D01*
X431317Y40945D01*
X431700Y41077D01*
X432086Y41199D01*
X432476Y41312D01*
X432867Y41415D01*
X433262Y41509D01*
X433658Y41593D01*
X434056Y41667D01*
X434456Y41731D01*
X434858Y41786D01*
X435261Y41830D01*
X435664Y41865D01*
X436069Y41890D01*
X436474Y41905D01*
X436879Y41910D01*
X437284Y41905D01*
X437689Y41890D01*
X438094Y41865D01*
X438497Y41830D01*
X438900Y41786D01*
X439302Y41731D01*
X439702Y41667D01*
X440100Y41593D01*
X440496Y41509D01*
X440891Y41415D01*
X441282Y41312D01*
X441672Y41199D01*
X442058Y41077D01*
X442441Y40945D01*
X442821Y40804D01*
X443197Y40653D01*
X443570Y40494D01*
X443938Y40325D01*
X444302Y40147D01*
X444662Y39961D01*
X445017Y39765D01*
X445367Y39561D01*
X445712Y39349D01*
X446051Y39128D01*
X446386Y38898D01*
X446714Y38661D01*
X447036Y38416D01*
X447353Y38162D01*
X447663Y37902D01*
X447966Y37633D01*
X448263Y37357D01*
X448553Y37074D01*
X448836Y36784D01*
X449112Y36487D01*
X449381Y36184D01*
X449641Y35874D01*
X449895Y35557D01*
X450140Y35235D01*
X450377Y34907D01*
X450607Y34572D01*
X450828Y34233D01*
X451040Y33888D01*
X451244Y33538D01*
X451440Y33183D01*
X451626Y32823D01*
X451804Y32459D01*
X451973Y32091D01*
X452132Y31718D01*
X452283Y31342D01*
X452424Y30962D01*
X452556Y30579D01*
X452678Y30193D01*
X452791Y29803D01*
X452894Y29412D01*
X452988Y29017D01*
X453072Y28621D01*
X453146Y28223D01*
X453210Y27823D01*
X453265Y27421D01*
X453309Y27018D01*
X453344Y26615D01*
X453369Y26210D01*
X453384Y25805D01*
X453389Y25400D01*
X453384Y24995D01*
X453369Y24590D01*
X453344Y24185D01*
X453309Y23782D01*
X453265Y23379D01*
X453210Y22977D01*
X453146Y22577D01*
X453072Y22179D01*
X452988Y21783D01*
X452894Y21388D01*
X452791Y20997D01*
X452678Y20607D01*
X452556Y20221D01*
X452424Y19838D01*
X452283Y19458D01*
X452132Y19082D01*
X451973Y18709D01*
X451804Y18341D01*
X451626Y17977D01*
X451440Y17617D01*
X451244Y17262D01*
X451040Y16912D01*
X450828Y16567D01*
X450607Y16228D01*
X450377Y15893D01*
X450140Y15565D01*
X449895Y15243D01*
X449641Y14926D01*
X449381Y14616D01*
X449112Y14313D01*
X448836Y14016D01*
X448553Y13726D01*
X448263Y13443D01*
X447966Y13167D01*
X447663Y12898D01*
X447353Y12638D01*
X447036Y12384D01*
X446714Y12139D01*
X446386Y11902D01*
X446051Y11672D01*
X445712Y11451D01*
X445367Y11239D01*
X445017Y11035D01*
X444662Y10839D01*
X444302Y10653D01*
X443938Y10475D01*
X443570Y10306D01*
X443197Y10147D01*
X442821Y9996D01*
X442441Y9855D01*
X442058Y9723D01*
X441672Y9601D01*
X441282Y9488D01*
X440891Y9385D01*
X440496Y9291D01*
X440100Y9207D01*
X439702Y9133D01*
X439302Y9069D01*
X438900Y9014D01*
X438497Y8970D01*
X438094Y8935D01*
X437689Y8910D01*
X437284Y8895D01*
X436879Y8890D01*
X436474Y8895D01*
X436069Y8910D01*
X435664Y8935D01*
X435261Y8970D01*
X434858Y9014D01*
X434456Y9069D01*
X434056Y9133D01*
X433658Y9207D01*
X433262Y9291D01*
X432867Y9385D01*
X432476Y9488D01*
X432086Y9601D01*
X431700Y9723D01*
X431317Y9855D01*
X430937Y9996D01*
X430561Y10147D01*
X430188Y10306D01*
X429820Y10475D01*
X429456Y10653D01*
X429096Y10839D01*
X428741Y11035D01*
X428391Y11239D01*
X428046Y11451D01*
X427707Y11672D01*
X427372Y11902D01*
X427044Y12139D01*
X426722Y12384D01*
X426405Y12638D01*
X426095Y12898D01*
X425792Y13167D01*
X425495Y13443D01*
X425205Y13726D01*
X424922Y14016D01*
X424646Y14313D01*
X424377Y14616D01*
X424117Y14926D01*
X423863Y15243D01*
X423618Y15565D01*
X423381Y15893D01*
X423151Y16228D01*
X422930Y16567D01*
X422718Y16912D01*
X422514Y17262D01*
X422318Y17617D01*
X422132Y17977D01*
X421954Y18341D01*
X421785Y18709D01*
X421626Y19082D01*
X421475Y19458D01*
X421334Y19838D01*
X421202Y20221D01*
X421080Y20607D01*
X420967Y20997D01*
X420864Y21388D01*
X420770Y21783D01*
X420686Y22179D01*
X420612Y22577D01*
X420548Y22977D01*
X420493Y23379D01*
X420449Y23782D01*
X420414Y24185D01*
X420389Y24590D01*
X420374Y24995D01*
X420369Y25400D01*
X262890Y792479D02*
X262895Y792884D01*
X262910Y793289D01*
X262935Y793694D01*
X262970Y794097D01*
X263014Y794500D01*
X263069Y794902D01*
X263133Y795302D01*
X263207Y795700D01*
X263291Y796096D01*
X263385Y796491D01*
X263488Y796882D01*
X263601Y797272D01*
X263723Y797658D01*
X263855Y798041D01*
X263996Y798421D01*
X264147Y798797D01*
X264306Y799170D01*
X264475Y799538D01*
X264653Y799902D01*
X264839Y800262D01*
X265035Y800617D01*
X265239Y800967D01*
X265451Y801312D01*
X265672Y801651D01*
X265902Y801986D01*
X266139Y802314D01*
X266384Y802636D01*
X266638Y802953D01*
X266898Y803263D01*
X267167Y803566D01*
X267443Y803863D01*
X267726Y804153D01*
X268016Y804436D01*
X268313Y804712D01*
X268616Y804981D01*
X268926Y805241D01*
X269243Y805495D01*
X269565Y805740D01*
X269893Y805977D01*
X270228Y806207D01*
X270567Y806428D01*
X270912Y806640D01*
X271262Y806844D01*
X271617Y807040D01*
X271977Y807226D01*
X272341Y807404D01*
X272709Y807573D01*
X273082Y807732D01*
X273458Y807883D01*
X273838Y808024D01*
X274221Y808156D01*
X274607Y808278D01*
X274997Y808391D01*
X275388Y808494D01*
X275783Y808588D01*
X276179Y808672D01*
X276577Y808746D01*
X276977Y808810D01*
X277379Y808865D01*
X277782Y808909D01*
X278185Y808944D01*
X278590Y808969D01*
X278995Y808984D01*
X279400Y808989D01*
X279805Y808984D01*
X280210Y808969D01*
X280615Y808944D01*
X281018Y808909D01*
X281421Y808865D01*
X281823Y808810D01*
X282223Y808746D01*
X282621Y808672D01*
X283017Y808588D01*
X283412Y808494D01*
X283803Y808391D01*
X284193Y808278D01*
X284579Y808156D01*
X284962Y808024D01*
X285342Y807883D01*
X285718Y807732D01*
X286091Y807573D01*
X286459Y807404D01*
X286823Y807226D01*
X287183Y807040D01*
X287538Y806844D01*
X287888Y806640D01*
X288233Y806428D01*
X288572Y806207D01*
X288907Y805977D01*
X289235Y805740D01*
X289557Y805495D01*
X289874Y805241D01*
X290184Y804981D01*
X290487Y804712D01*
X290784Y804436D01*
X291074Y804153D01*
X291357Y803863D01*
X291633Y803566D01*
X291902Y803263D01*
X292162Y802953D01*
X292416Y802636D01*
X292661Y802314D01*
X292898Y801986D01*
X293128Y801651D01*
X293349Y801312D01*
X293561Y800967D01*
X293765Y800617D01*
X293961Y800262D01*
X294147Y799902D01*
X294325Y799538D01*
X294494Y799170D01*
X294653Y798797D01*
X294804Y798421D01*
X294945Y798041D01*
X295077Y797658D01*
X295199Y797272D01*
X295312Y796882D01*
X295415Y796491D01*
X295509Y796096D01*
X295593Y795700D01*
X295667Y795302D01*
X295731Y794902D01*
X295786Y794500D01*
X295830Y794097D01*
X295865Y793694D01*
X295890Y793289D01*
X295905Y792884D01*
X295910Y792479D01*
X295905Y792074D01*
X295890Y791669D01*
X295865Y791264D01*
X295830Y790861D01*
X295786Y790458D01*
X295731Y790056D01*
X295667Y789656D01*
X295593Y789258D01*
X295509Y788862D01*
X295415Y788467D01*
X295312Y788076D01*
X295199Y787686D01*
X295077Y787300D01*
X294945Y786917D01*
X294804Y786537D01*
X294653Y786161D01*
X294494Y785788D01*
X294325Y785420D01*
X294147Y785056D01*
X293961Y784696D01*
X293765Y784341D01*
X293561Y783991D01*
X293349Y783646D01*
X293128Y783307D01*
X292898Y782972D01*
X292661Y782644D01*
X292416Y782322D01*
X292162Y782005D01*
X291902Y781695D01*
X291633Y781392D01*
X291357Y781095D01*
X291074Y780805D01*
X290784Y780522D01*
X290487Y780246D01*
X290184Y779977D01*
X289874Y779717D01*
X289557Y779463D01*
X289235Y779218D01*
X288907Y778981D01*
X288572Y778751D01*
X288233Y778530D01*
X287888Y778318D01*
X287538Y778114D01*
X287183Y777918D01*
X286823Y777732D01*
X286459Y777554D01*
X286091Y777385D01*
X285718Y777226D01*
X285342Y777075D01*
X284962Y776934D01*
X284579Y776802D01*
X284193Y776680D01*
X283803Y776567D01*
X283412Y776464D01*
X283017Y776370D01*
X282621Y776286D01*
X282223Y776212D01*
X281823Y776148D01*
X281421Y776093D01*
X281018Y776049D01*
X280615Y776014D01*
X280210Y775989D01*
X279805Y775974D01*
X279400Y775969D01*
X278995Y775974D01*
X278590Y775989D01*
X278185Y776014D01*
X277782Y776049D01*
X277379Y776093D01*
X276977Y776148D01*
X276577Y776212D01*
X276179Y776286D01*
X275783Y776370D01*
X275388Y776464D01*
X274997Y776567D01*
X274607Y776680D01*
X274221Y776802D01*
X273838Y776934D01*
X273458Y777075D01*
X273082Y777226D01*
X272709Y777385D01*
X272341Y777554D01*
X271977Y777732D01*
X271617Y777918D01*
X271262Y778114D01*
X270912Y778318D01*
X270567Y778530D01*
X270228Y778751D01*
X269893Y778981D01*
X269565Y779218D01*
X269243Y779463D01*
X268926Y779717D01*
X268616Y779977D01*
X268313Y780246D01*
X268016Y780522D01*
X267726Y780805D01*
X267443Y781095D01*
X267167Y781392D01*
X266898Y781695D01*
X266638Y782005D01*
X266384Y782322D01*
X266139Y782644D01*
X265902Y782972D01*
X265672Y783307D01*
X265451Y783646D01*
X265239Y783991D01*
X265035Y784341D01*
X264839Y784696D01*
X264653Y785056D01*
X264475Y785420D01*
X264306Y785788D01*
X264147Y786161D01*
X263996Y786537D01*
X263855Y786917D01*
X263723Y787300D01*
X263601Y787686D01*
X263488Y788076D01*
X263385Y788467D01*
X263291Y788862D01*
X263207Y789258D01*
X263133Y789656D01*
X263069Y790056D01*
X263014Y790458D01*
X262970Y790861D01*
X262935Y791264D01*
X262910Y791669D01*
X262895Y792074D01*
X262890Y792479D01*
X59690Y792479D02*
X59695Y792884D01*
X59710Y793289D01*
X59735Y793694D01*
X59770Y794097D01*
X59814Y794500D01*
X59869Y794902D01*
X59933Y795302D01*
X60007Y795700D01*
X60091Y796096D01*
X60185Y796491D01*
X60288Y796882D01*
X60401Y797272D01*
X60523Y797658D01*
X60655Y798041D01*
X60796Y798421D01*
X60947Y798797D01*
X61106Y799170D01*
X61275Y799538D01*
X61453Y799902D01*
X61639Y800262D01*
X61835Y800617D01*
X62039Y800967D01*
X62251Y801312D01*
X62472Y801651D01*
X62702Y801986D01*
X62939Y802314D01*
X63184Y802636D01*
X63438Y802953D01*
X63698Y803263D01*
X63967Y803566D01*
X64243Y803863D01*
X64526Y804153D01*
X64816Y804436D01*
X65113Y804712D01*
X65416Y804981D01*
X65726Y805241D01*
X66043Y805495D01*
X66365Y805740D01*
X66693Y805977D01*
X67028Y806207D01*
X67367Y806428D01*
X67712Y806640D01*
X68062Y806844D01*
X68417Y807040D01*
X68777Y807226D01*
X69141Y807404D01*
X69509Y807573D01*
X69882Y807732D01*
X70258Y807883D01*
X70638Y808024D01*
X71021Y808156D01*
X71407Y808278D01*
X71797Y808391D01*
X72188Y808494D01*
X72583Y808588D01*
X72979Y808672D01*
X73377Y808746D01*
X73777Y808810D01*
X74179Y808865D01*
X74582Y808909D01*
X74985Y808944D01*
X75390Y808969D01*
X75795Y808984D01*
X76200Y808989D01*
X76605Y808984D01*
X77010Y808969D01*
X77415Y808944D01*
X77818Y808909D01*
X78221Y808865D01*
X78623Y808810D01*
X79023Y808746D01*
X79421Y808672D01*
X79817Y808588D01*
X80212Y808494D01*
X80603Y808391D01*
X80993Y808278D01*
X81379Y808156D01*
X81762Y808024D01*
X82142Y807883D01*
X82518Y807732D01*
X82891Y807573D01*
X83259Y807404D01*
X83623Y807226D01*
X83983Y807040D01*
X84338Y806844D01*
X84688Y806640D01*
X85033Y806428D01*
X85372Y806207D01*
X85707Y805977D01*
X86035Y805740D01*
X86357Y805495D01*
X86674Y805241D01*
X86984Y804981D01*
X87287Y804712D01*
X87584Y804436D01*
X87874Y804153D01*
X88157Y803863D01*
X88433Y803566D01*
X88702Y803263D01*
X88962Y802953D01*
X89216Y802636D01*
X89461Y802314D01*
X89698Y801986D01*
X89928Y801651D01*
X90149Y801312D01*
X90361Y800967D01*
X90565Y800617D01*
X90761Y800262D01*
X90947Y799902D01*
X91125Y799538D01*
X91294Y799170D01*
X91453Y798797D01*
X91604Y798421D01*
X91745Y798041D01*
X91877Y797658D01*
X91999Y797272D01*
X92112Y796882D01*
X92215Y796491D01*
X92309Y796096D01*
X92393Y795700D01*
X92467Y795302D01*
X92531Y794902D01*
X92586Y794500D01*
X92630Y794097D01*
X92665Y793694D01*
X92690Y793289D01*
X92705Y792884D01*
X92710Y792479D01*
X92705Y792074D01*
X92690Y791669D01*
X92665Y791264D01*
X92630Y790861D01*
X92586Y790458D01*
X92531Y790056D01*
X92467Y789656D01*
X92393Y789258D01*
X92309Y788862D01*
X92215Y788467D01*
X92112Y788076D01*
X91999Y787686D01*
X91877Y787300D01*
X91745Y786917D01*
X91604Y786537D01*
X91453Y786161D01*
X91294Y785788D01*
X91125Y785420D01*
X90947Y785056D01*
X90761Y784696D01*
X90565Y784341D01*
X90361Y783991D01*
X90149Y783646D01*
X89928Y783307D01*
X89698Y782972D01*
X89461Y782644D01*
X89216Y782322D01*
X88962Y782005D01*
X88702Y781695D01*
X88433Y781392D01*
X88157Y781095D01*
X87874Y780805D01*
X87584Y780522D01*
X87287Y780246D01*
X86984Y779977D01*
X86674Y779717D01*
X86357Y779463D01*
X86035Y779218D01*
X85707Y778981D01*
X85372Y778751D01*
X85033Y778530D01*
X84688Y778318D01*
X84338Y778114D01*
X83983Y777918D01*
X83623Y777732D01*
X83259Y777554D01*
X82891Y777385D01*
X82518Y777226D01*
X82142Y777075D01*
X81762Y776934D01*
X81379Y776802D01*
X80993Y776680D01*
X80603Y776567D01*
X80212Y776464D01*
X79817Y776370D01*
X79421Y776286D01*
X79023Y776212D01*
X78623Y776148D01*
X78221Y776093D01*
X77818Y776049D01*
X77415Y776014D01*
X77010Y775989D01*
X76605Y775974D01*
X76200Y775969D01*
X75795Y775974D01*
X75390Y775989D01*
X74985Y776014D01*
X74582Y776049D01*
X74179Y776093D01*
X73777Y776148D01*
X73377Y776212D01*
X72979Y776286D01*
X72583Y776370D01*
X72188Y776464D01*
X71797Y776567D01*
X71407Y776680D01*
X71021Y776802D01*
X70638Y776934D01*
X70258Y777075D01*
X69882Y777226D01*
X69509Y777385D01*
X69141Y777554D01*
X68777Y777732D01*
X68417Y777918D01*
X68062Y778114D01*
X67712Y778318D01*
X67367Y778530D01*
X67028Y778751D01*
X66693Y778981D01*
X66365Y779218D01*
X66043Y779463D01*
X65726Y779717D01*
X65416Y779977D01*
X65113Y780246D01*
X64816Y780522D01*
X64526Y780805D01*
X64243Y781095D01*
X63967Y781392D01*
X63698Y781695D01*
X63438Y782005D01*
X63184Y782322D01*
X62939Y782644D01*
X62702Y782972D01*
X62472Y783307D01*
X62251Y783646D01*
X62039Y783991D01*
X61835Y784341D01*
X61639Y784696D01*
X61453Y785056D01*
X61275Y785420D01*
X61106Y785788D01*
X60947Y786161D01*
X60796Y786537D01*
X60655Y786917D01*
X60523Y787300D01*
X60401Y787686D01*
X60288Y788076D01*
X60185Y788467D01*
X60091Y788862D01*
X60007Y789258D01*
X59933Y789656D01*
X59869Y790056D01*
X59814Y790458D01*
X59770Y790861D01*
X59735Y791264D01*
X59710Y791669D01*
X59695Y792074D01*
X59690Y792479D01*
X262890Y436879D02*
X262895Y437284D01*
X262910Y437689D01*
X262935Y438094D01*
X262970Y438497D01*
X263014Y438900D01*
X263069Y439302D01*
X263133Y439702D01*
X263207Y440100D01*
X263291Y440496D01*
X263385Y440891D01*
X263488Y441282D01*
X263601Y441672D01*
X263723Y442058D01*
X263855Y442441D01*
X263996Y442821D01*
X264147Y443197D01*
X264306Y443570D01*
X264475Y443938D01*
X264653Y444302D01*
X264839Y444662D01*
X265035Y445017D01*
X265239Y445367D01*
X265451Y445712D01*
X265672Y446051D01*
X265902Y446386D01*
X266139Y446714D01*
X266384Y447036D01*
X266638Y447353D01*
X266898Y447663D01*
X267167Y447966D01*
X267443Y448263D01*
X267726Y448553D01*
X268016Y448836D01*
X268313Y449112D01*
X268616Y449381D01*
X268926Y449641D01*
X269243Y449895D01*
X269565Y450140D01*
X269893Y450377D01*
X270228Y450607D01*
X270567Y450828D01*
X270912Y451040D01*
X271262Y451244D01*
X271617Y451440D01*
X271977Y451626D01*
X272341Y451804D01*
X272709Y451973D01*
X273082Y452132D01*
X273458Y452283D01*
X273838Y452424D01*
X274221Y452556D01*
X274607Y452678D01*
X274997Y452791D01*
X275388Y452894D01*
X275783Y452988D01*
X276179Y453072D01*
X276577Y453146D01*
X276977Y453210D01*
X277379Y453265D01*
X277782Y453309D01*
X278185Y453344D01*
X278590Y453369D01*
X278995Y453384D01*
X279400Y453389D01*
X279805Y453384D01*
X280210Y453369D01*
X280615Y453344D01*
X281018Y453309D01*
X281421Y453265D01*
X281823Y453210D01*
X282223Y453146D01*
X282621Y453072D01*
X283017Y452988D01*
X283412Y452894D01*
X283803Y452791D01*
X284193Y452678D01*
X284579Y452556D01*
X284962Y452424D01*
X285342Y452283D01*
X285718Y452132D01*
X286091Y451973D01*
X286459Y451804D01*
X286823Y451626D01*
X287183Y451440D01*
X287538Y451244D01*
X287888Y451040D01*
X288233Y450828D01*
X288572Y450607D01*
X288907Y450377D01*
X289235Y450140D01*
X289557Y449895D01*
X289874Y449641D01*
X290184Y449381D01*
X290487Y449112D01*
X290784Y448836D01*
X291074Y448553D01*
X291357Y448263D01*
X291633Y447966D01*
X291902Y447663D01*
X292162Y447353D01*
X292416Y447036D01*
X292661Y446714D01*
X292898Y446386D01*
X293128Y446051D01*
X293349Y445712D01*
X293561Y445367D01*
X293765Y445017D01*
X293961Y444662D01*
X294147Y444302D01*
X294325Y443938D01*
X294494Y443570D01*
X294653Y443197D01*
X294804Y442821D01*
X294945Y442441D01*
X295077Y442058D01*
X295199Y441672D01*
X295312Y441282D01*
X295415Y440891D01*
X295509Y440496D01*
X295593Y440100D01*
X295667Y439702D01*
X295731Y439302D01*
X295786Y438900D01*
X295830Y438497D01*
X295865Y438094D01*
X295890Y437689D01*
X295905Y437284D01*
X295910Y436879D01*
X295905Y436474D01*
X295890Y436069D01*
X295865Y435664D01*
X295830Y435261D01*
X295786Y434858D01*
X295731Y434456D01*
X295667Y434056D01*
X295593Y433658D01*
X295509Y433262D01*
X295415Y432867D01*
X295312Y432476D01*
X295199Y432086D01*
X295077Y431700D01*
X294945Y431317D01*
X294804Y430937D01*
X294653Y430561D01*
X294494Y430188D01*
X294325Y429820D01*
X294147Y429456D01*
X293961Y429096D01*
X293765Y428741D01*
X293561Y428391D01*
X293349Y428046D01*
X293128Y427707D01*
X292898Y427372D01*
X292661Y427044D01*
X292416Y426722D01*
X292162Y426405D01*
X291902Y426095D01*
X291633Y425792D01*
X291357Y425495D01*
X291074Y425205D01*
X290784Y424922D01*
X290487Y424646D01*
X290184Y424377D01*
X289874Y424117D01*
X289557Y423863D01*
X289235Y423618D01*
X288907Y423381D01*
X288572Y423151D01*
X288233Y422930D01*
X287888Y422718D01*
X287538Y422514D01*
X287183Y422318D01*
X286823Y422132D01*
X286459Y421954D01*
X286091Y421785D01*
X285718Y421626D01*
X285342Y421475D01*
X284962Y421334D01*
X284579Y421202D01*
X284193Y421080D01*
X283803Y420967D01*
X283412Y420864D01*
X283017Y420770D01*
X282621Y420686D01*
X282223Y420612D01*
X281823Y420548D01*
X281421Y420493D01*
X281018Y420449D01*
X280615Y420414D01*
X280210Y420389D01*
X279805Y420374D01*
X279400Y420369D01*
X278995Y420374D01*
X278590Y420389D01*
X278185Y420414D01*
X277782Y420449D01*
X277379Y420493D01*
X276977Y420548D01*
X276577Y420612D01*
X276179Y420686D01*
X275783Y420770D01*
X275388Y420864D01*
X274997Y420967D01*
X274607Y421080D01*
X274221Y421202D01*
X273838Y421334D01*
X273458Y421475D01*
X273082Y421626D01*
X272709Y421785D01*
X272341Y421954D01*
X271977Y422132D01*
X271617Y422318D01*
X271262Y422514D01*
X270912Y422718D01*
X270567Y422930D01*
X270228Y423151D01*
X269893Y423381D01*
X269565Y423618D01*
X269243Y423863D01*
X268926Y424117D01*
X268616Y424377D01*
X268313Y424646D01*
X268016Y424922D01*
X267726Y425205D01*
X267443Y425495D01*
X267167Y425792D01*
X266898Y426095D01*
X266638Y426405D01*
X266384Y426722D01*
X266139Y427044D01*
X265902Y427372D01*
X265672Y427707D01*
X265451Y428046D01*
X265239Y428391D01*
X265035Y428741D01*
X264839Y429096D01*
X264653Y429456D01*
X264475Y429820D01*
X264306Y430188D01*
X264147Y430561D01*
X263996Y430937D01*
X263855Y431317D01*
X263723Y431700D01*
X263601Y432086D01*
X263488Y432476D01*
X263385Y432867D01*
X263291Y433262D01*
X263207Y433658D01*
X263133Y434056D01*
X263069Y434456D01*
X263014Y434858D01*
X262970Y435261D01*
X262935Y435664D01*
X262910Y436069D01*
X262895Y436474D01*
X262890Y436879D01*
X59690Y436879D02*
X59695Y437284D01*
X59710Y437689D01*
X59735Y438094D01*
X59770Y438497D01*
X59814Y438900D01*
X59869Y439302D01*
X59933Y439702D01*
X60007Y440100D01*
X60091Y440496D01*
X60185Y440891D01*
X60288Y441282D01*
X60401Y441672D01*
X60523Y442058D01*
X60655Y442441D01*
X60796Y442821D01*
X60947Y443197D01*
X61106Y443570D01*
X61275Y443938D01*
X61453Y444302D01*
X61639Y444662D01*
X61835Y445017D01*
X62039Y445367D01*
X62251Y445712D01*
X62472Y446051D01*
X62702Y446386D01*
X62939Y446714D01*
X63184Y447036D01*
X63438Y447353D01*
X63698Y447663D01*
X63967Y447966D01*
X64243Y448263D01*
X64526Y448553D01*
X64816Y448836D01*
X65113Y449112D01*
X65416Y449381D01*
X65726Y449641D01*
X66043Y449895D01*
X66365Y450140D01*
X66693Y450377D01*
X67028Y450607D01*
X67367Y450828D01*
X67712Y451040D01*
X68062Y451244D01*
X68417Y451440D01*
X68777Y451626D01*
X69141Y451804D01*
X69509Y451973D01*
X69882Y452132D01*
X70258Y452283D01*
X70638Y452424D01*
X71021Y452556D01*
X71407Y452678D01*
X71797Y452791D01*
X72188Y452894D01*
X72583Y452988D01*
X72979Y453072D01*
X73377Y453146D01*
X73777Y453210D01*
X74179Y453265D01*
X74582Y453309D01*
X74985Y453344D01*
X75390Y453369D01*
X75795Y453384D01*
X76200Y453389D01*
X76605Y453384D01*
X77010Y453369D01*
X77415Y453344D01*
X77818Y453309D01*
X78221Y453265D01*
X78623Y453210D01*
X79023Y453146D01*
X79421Y453072D01*
X79817Y452988D01*
X80212Y452894D01*
X80603Y452791D01*
X80993Y452678D01*
X81379Y452556D01*
X81762Y452424D01*
X82142Y452283D01*
X82518Y452132D01*
X82891Y451973D01*
X83259Y451804D01*
X83623Y451626D01*
X83983Y451440D01*
X84338Y451244D01*
X84688Y451040D01*
X85033Y450828D01*
X85372Y450607D01*
X85707Y450377D01*
X86035Y450140D01*
X86357Y449895D01*
X86674Y449641D01*
X86984Y449381D01*
X87287Y449112D01*
X87584Y448836D01*
X87874Y448553D01*
X88157Y448263D01*
X88433Y447966D01*
X88702Y447663D01*
X88962Y447353D01*
X89216Y447036D01*
X89461Y446714D01*
X89698Y446386D01*
X89928Y446051D01*
X90149Y445712D01*
X90361Y445367D01*
X90565Y445017D01*
X90761Y444662D01*
X90947Y444302D01*
X91125Y443938D01*
X91294Y443570D01*
X91453Y443197D01*
X91604Y442821D01*
X91745Y442441D01*
X91877Y442058D01*
X91999Y441672D01*
X92112Y441282D01*
X92215Y440891D01*
X92309Y440496D01*
X92393Y440100D01*
X92467Y439702D01*
X92531Y439302D01*
X92586Y438900D01*
X92630Y438497D01*
X92665Y438094D01*
X92690Y437689D01*
X92705Y437284D01*
X92710Y436879D01*
X92705Y436474D01*
X92690Y436069D01*
X92665Y435664D01*
X92630Y435261D01*
X92586Y434858D01*
X92531Y434456D01*
X92467Y434056D01*
X92393Y433658D01*
X92309Y433262D01*
X92215Y432867D01*
X92112Y432476D01*
X91999Y432086D01*
X91877Y431700D01*
X91745Y431317D01*
X91604Y430937D01*
X91453Y430561D01*
X91294Y430188D01*
X91125Y429820D01*
X90947Y429456D01*
X90761Y429096D01*
X90565Y428741D01*
X90361Y428391D01*
X90149Y428046D01*
X89928Y427707D01*
X89698Y427372D01*
X89461Y427044D01*
X89216Y426722D01*
X88962Y426405D01*
X88702Y426095D01*
X88433Y425792D01*
X88157Y425495D01*
X87874Y425205D01*
X87584Y424922D01*
X87287Y424646D01*
X86984Y424377D01*
X86674Y424117D01*
X86357Y423863D01*
X86035Y423618D01*
X85707Y423381D01*
X85372Y423151D01*
X85033Y422930D01*
X84688Y422718D01*
X84338Y422514D01*
X83983Y422318D01*
X83623Y422132D01*
X83259Y421954D01*
X82891Y421785D01*
X82518Y421626D01*
X82142Y421475D01*
X81762Y421334D01*
X81379Y421202D01*
X80993Y421080D01*
X80603Y420967D01*
X80212Y420864D01*
X79817Y420770D01*
X79421Y420686D01*
X79023Y420612D01*
X78623Y420548D01*
X78221Y420493D01*
X77818Y420449D01*
X77415Y420414D01*
X77010Y420389D01*
X76605Y420374D01*
X76200Y420369D01*
X75795Y420374D01*
X75390Y420389D01*
X74985Y420414D01*
X74582Y420449D01*
X74179Y420493D01*
X73777Y420548D01*
X73377Y420612D01*
X72979Y420686D01*
X72583Y420770D01*
X72188Y420864D01*
X71797Y420967D01*
X71407Y421080D01*
X71021Y421202D01*
X70638Y421334D01*
X70258Y421475D01*
X69882Y421626D01*
X69509Y421785D01*
X69141Y421954D01*
X68777Y422132D01*
X68417Y422318D01*
X68062Y422514D01*
X67712Y422718D01*
X67367Y422930D01*
X67028Y423151D01*
X66693Y423381D01*
X66365Y423618D01*
X66043Y423863D01*
X65726Y424117D01*
X65416Y424377D01*
X65113Y424646D01*
X64816Y424922D01*
X64526Y425205D01*
X64243Y425495D01*
X63967Y425792D01*
X63698Y426095D01*
X63438Y426405D01*
X63184Y426722D01*
X62939Y427044D01*
X62702Y427372D01*
X62472Y427707D01*
X62251Y428046D01*
X62039Y428391D01*
X61835Y428741D01*
X61639Y429096D01*
X61453Y429456D01*
X61275Y429820D01*
X61106Y430188D01*
X60947Y430561D01*
X60796Y430937D01*
X60655Y431317D01*
X60523Y431700D01*
X60401Y432086D01*
X60288Y432476D01*
X60185Y432867D01*
X60091Y433262D01*
X60007Y433658D01*
X59933Y434056D01*
X59869Y434456D01*
X59814Y434858D01*
X59770Y435261D01*
X59735Y435664D01*
X59710Y436069D01*
X59695Y436474D01*
X59690Y436879D01*
X623569Y792479D02*
X623574Y792884D01*
X623589Y793289D01*
X623614Y793694D01*
X623649Y794097D01*
X623693Y794500D01*
X623748Y794902D01*
X623812Y795302D01*
X623886Y795700D01*
X623970Y796096D01*
X624064Y796491D01*
X624167Y796882D01*
X624280Y797272D01*
X624402Y797658D01*
X624534Y798041D01*
X624675Y798421D01*
X624826Y798797D01*
X624985Y799170D01*
X625154Y799538D01*
X625332Y799902D01*
X625518Y800262D01*
X625714Y800617D01*
X625918Y800967D01*
X626130Y801312D01*
X626351Y801651D01*
X626581Y801986D01*
X626818Y802314D01*
X627063Y802636D01*
X627317Y802953D01*
X627577Y803263D01*
X627846Y803566D01*
X628122Y803863D01*
X628405Y804153D01*
X628695Y804436D01*
X628992Y804712D01*
X629295Y804981D01*
X629605Y805241D01*
X629922Y805495D01*
X630244Y805740D01*
X630572Y805977D01*
X630907Y806207D01*
X631246Y806428D01*
X631591Y806640D01*
X631941Y806844D01*
X632296Y807040D01*
X632656Y807226D01*
X633020Y807404D01*
X633388Y807573D01*
X633761Y807732D01*
X634137Y807883D01*
X634517Y808024D01*
X634900Y808156D01*
X635286Y808278D01*
X635676Y808391D01*
X636067Y808494D01*
X636462Y808588D01*
X636858Y808672D01*
X637256Y808746D01*
X637656Y808810D01*
X638058Y808865D01*
X638461Y808909D01*
X638864Y808944D01*
X639269Y808969D01*
X639674Y808984D01*
X640079Y808989D01*
X640484Y808984D01*
X640889Y808969D01*
X641294Y808944D01*
X641697Y808909D01*
X642100Y808865D01*
X642502Y808810D01*
X642902Y808746D01*
X643300Y808672D01*
X643696Y808588D01*
X644091Y808494D01*
X644482Y808391D01*
X644872Y808278D01*
X645258Y808156D01*
X645641Y808024D01*
X646021Y807883D01*
X646397Y807732D01*
X646770Y807573D01*
X647138Y807404D01*
X647502Y807226D01*
X647862Y807040D01*
X648217Y806844D01*
X648567Y806640D01*
X648912Y806428D01*
X649251Y806207D01*
X649586Y805977D01*
X649914Y805740D01*
X650236Y805495D01*
X650553Y805241D01*
X650863Y804981D01*
X651166Y804712D01*
X651463Y804436D01*
X651753Y804153D01*
X652036Y803863D01*
X652312Y803566D01*
X652581Y803263D01*
X652841Y802953D01*
X653095Y802636D01*
X653340Y802314D01*
X653577Y801986D01*
X653807Y801651D01*
X654028Y801312D01*
X654240Y800967D01*
X654444Y800617D01*
X654640Y800262D01*
X654826Y799902D01*
X655004Y799538D01*
X655173Y799170D01*
X655332Y798797D01*
X655483Y798421D01*
X655624Y798041D01*
X655756Y797658D01*
X655878Y797272D01*
X655991Y796882D01*
X656094Y796491D01*
X656188Y796096D01*
X656272Y795700D01*
X656346Y795302D01*
X656410Y794902D01*
X656465Y794500D01*
X656509Y794097D01*
X656544Y793694D01*
X656569Y793289D01*
X656584Y792884D01*
X656589Y792479D01*
X656584Y792074D01*
X656569Y791669D01*
X656544Y791264D01*
X656509Y790861D01*
X656465Y790458D01*
X656410Y790056D01*
X656346Y789656D01*
X656272Y789258D01*
X656188Y788862D01*
X656094Y788467D01*
X655991Y788076D01*
X655878Y787686D01*
X655756Y787300D01*
X655624Y786917D01*
X655483Y786537D01*
X655332Y786161D01*
X655173Y785788D01*
X655004Y785420D01*
X654826Y785056D01*
X654640Y784696D01*
X654444Y784341D01*
X654240Y783991D01*
X654028Y783646D01*
X653807Y783307D01*
X653577Y782972D01*
X653340Y782644D01*
X653095Y782322D01*
X652841Y782005D01*
X652581Y781695D01*
X652312Y781392D01*
X652036Y781095D01*
X651753Y780805D01*
X651463Y780522D01*
X651166Y780246D01*
X650863Y779977D01*
X650553Y779717D01*
X650236Y779463D01*
X649914Y779218D01*
X649586Y778981D01*
X649251Y778751D01*
X648912Y778530D01*
X648567Y778318D01*
X648217Y778114D01*
X647862Y777918D01*
X647502Y777732D01*
X647138Y777554D01*
X646770Y777385D01*
X646397Y777226D01*
X646021Y777075D01*
X645641Y776934D01*
X645258Y776802D01*
X644872Y776680D01*
X644482Y776567D01*
X644091Y776464D01*
X643696Y776370D01*
X643300Y776286D01*
X642902Y776212D01*
X642502Y776148D01*
X642100Y776093D01*
X641697Y776049D01*
X641294Y776014D01*
X640889Y775989D01*
X640484Y775974D01*
X640079Y775969D01*
X639674Y775974D01*
X639269Y775989D01*
X638864Y776014D01*
X638461Y776049D01*
X638058Y776093D01*
X637656Y776148D01*
X637256Y776212D01*
X636858Y776286D01*
X636462Y776370D01*
X636067Y776464D01*
X635676Y776567D01*
X635286Y776680D01*
X634900Y776802D01*
X634517Y776934D01*
X634137Y777075D01*
X633761Y777226D01*
X633388Y777385D01*
X633020Y777554D01*
X632656Y777732D01*
X632296Y777918D01*
X631941Y778114D01*
X631591Y778318D01*
X631246Y778530D01*
X630907Y778751D01*
X630572Y778981D01*
X630244Y779218D01*
X629922Y779463D01*
X629605Y779717D01*
X629295Y779977D01*
X628992Y780246D01*
X628695Y780522D01*
X628405Y780805D01*
X628122Y781095D01*
X627846Y781392D01*
X627577Y781695D01*
X627317Y782005D01*
X627063Y782322D01*
X626818Y782644D01*
X626581Y782972D01*
X626351Y783307D01*
X626130Y783646D01*
X625918Y783991D01*
X625714Y784341D01*
X625518Y784696D01*
X625332Y785056D01*
X625154Y785420D01*
X624985Y785788D01*
X624826Y786161D01*
X624675Y786537D01*
X624534Y786917D01*
X624402Y787300D01*
X624280Y787686D01*
X624167Y788076D01*
X624064Y788467D01*
X623970Y788862D01*
X623886Y789258D01*
X623812Y789656D01*
X623748Y790056D01*
X623693Y790458D01*
X623649Y790861D01*
X623614Y791264D01*
X623589Y791669D01*
X623574Y792074D01*
X623569Y792479D01*
X420369Y792479D02*
X420374Y792884D01*
X420389Y793289D01*
X420414Y793694D01*
X420449Y794097D01*
X420493Y794500D01*
X420548Y794902D01*
X420612Y795302D01*
X420686Y795700D01*
X420770Y796096D01*
X420864Y796491D01*
X420967Y796882D01*
X421080Y797272D01*
X421202Y797658D01*
X421334Y798041D01*
X421475Y798421D01*
X421626Y798797D01*
X421785Y799170D01*
X421954Y799538D01*
X422132Y799902D01*
X422318Y800262D01*
X422514Y800617D01*
X422718Y800967D01*
X422930Y801312D01*
X423151Y801651D01*
X423381Y801986D01*
X423618Y802314D01*
X423863Y802636D01*
X424117Y802953D01*
X424377Y803263D01*
X424646Y803566D01*
X424922Y803863D01*
X425205Y804153D01*
X425495Y804436D01*
X425792Y804712D01*
X426095Y804981D01*
X426405Y805241D01*
X426722Y805495D01*
X427044Y805740D01*
X427372Y805977D01*
X427707Y806207D01*
X428046Y806428D01*
X428391Y806640D01*
X428741Y806844D01*
X429096Y807040D01*
X429456Y807226D01*
X429820Y807404D01*
X430188Y807573D01*
X430561Y807732D01*
X430937Y807883D01*
X431317Y808024D01*
X431700Y808156D01*
X432086Y808278D01*
X432476Y808391D01*
X432867Y808494D01*
X433262Y808588D01*
X433658Y808672D01*
X434056Y808746D01*
X434456Y808810D01*
X434858Y808865D01*
X435261Y808909D01*
X435664Y808944D01*
X436069Y808969D01*
X436474Y808984D01*
X436879Y808989D01*
X437284Y808984D01*
X437689Y808969D01*
X438094Y808944D01*
X438497Y808909D01*
X438900Y808865D01*
X439302Y808810D01*
X439702Y808746D01*
X440100Y808672D01*
X440496Y808588D01*
X440891Y808494D01*
X441282Y808391D01*
X441672Y808278D01*
X442058Y808156D01*
X442441Y808024D01*
X442821Y807883D01*
X443197Y807732D01*
X443570Y807573D01*
X443938Y807404D01*
X444302Y807226D01*
X444662Y807040D01*
X445017Y806844D01*
X445367Y806640D01*
X445712Y806428D01*
X446051Y806207D01*
X446386Y805977D01*
X446714Y805740D01*
X447036Y805495D01*
X447353Y805241D01*
X447663Y804981D01*
X447966Y804712D01*
X448263Y804436D01*
X448553Y804153D01*
X448836Y803863D01*
X449112Y803566D01*
X449381Y803263D01*
X449641Y802953D01*
X449895Y802636D01*
X450140Y802314D01*
X450377Y801986D01*
X450607Y801651D01*
X450828Y801312D01*
X451040Y800967D01*
X451244Y800617D01*
X451440Y800262D01*
X451626Y799902D01*
X451804Y799538D01*
X451973Y799170D01*
X452132Y798797D01*
X452283Y798421D01*
X452424Y798041D01*
X452556Y797658D01*
X452678Y797272D01*
X452791Y796882D01*
X452894Y796491D01*
X452988Y796096D01*
X453072Y795700D01*
X453146Y795302D01*
X453210Y794902D01*
X453265Y794500D01*
X453309Y794097D01*
X453344Y793694D01*
X453369Y793289D01*
X453384Y792884D01*
X453389Y792479D01*
X453384Y792074D01*
X453369Y791669D01*
X453344Y791264D01*
X453309Y790861D01*
X453265Y790458D01*
X453210Y790056D01*
X453146Y789656D01*
X453072Y789258D01*
X452988Y788862D01*
X452894Y788467D01*
X452791Y788076D01*
X452678Y787686D01*
X452556Y787300D01*
X452424Y786917D01*
X452283Y786537D01*
X452132Y786161D01*
X451973Y785788D01*
X451804Y785420D01*
X451626Y785056D01*
X451440Y784696D01*
X451244Y784341D01*
X451040Y783991D01*
X450828Y783646D01*
X450607Y783307D01*
X450377Y782972D01*
X450140Y782644D01*
X449895Y782322D01*
X449641Y782005D01*
X449381Y781695D01*
X449112Y781392D01*
X448836Y781095D01*
X448553Y780805D01*
X448263Y780522D01*
X447966Y780246D01*
X447663Y779977D01*
X447353Y779717D01*
X447036Y779463D01*
X446714Y779218D01*
X446386Y778981D01*
X446051Y778751D01*
X445712Y778530D01*
X445367Y778318D01*
X445017Y778114D01*
X444662Y777918D01*
X444302Y777732D01*
X443938Y777554D01*
X443570Y777385D01*
X443197Y777226D01*
X442821Y777075D01*
X442441Y776934D01*
X442058Y776802D01*
X441672Y776680D01*
X441282Y776567D01*
X440891Y776464D01*
X440496Y776370D01*
X440100Y776286D01*
X439702Y776212D01*
X439302Y776148D01*
X438900Y776093D01*
X438497Y776049D01*
X438094Y776014D01*
X437689Y775989D01*
X437284Y775974D01*
X436879Y775969D01*
X436474Y775974D01*
X436069Y775989D01*
X435664Y776014D01*
X435261Y776049D01*
X434858Y776093D01*
X434456Y776148D01*
X434056Y776212D01*
X433658Y776286D01*
X433262Y776370D01*
X432867Y776464D01*
X432476Y776567D01*
X432086Y776680D01*
X431700Y776802D01*
X431317Y776934D01*
X430937Y777075D01*
X430561Y777226D01*
X430188Y777385D01*
X429820Y777554D01*
X429456Y777732D01*
X429096Y777918D01*
X428741Y778114D01*
X428391Y778318D01*
X428046Y778530D01*
X427707Y778751D01*
X427372Y778981D01*
X427044Y779218D01*
X426722Y779463D01*
X426405Y779717D01*
X426095Y779977D01*
X425792Y780246D01*
X425495Y780522D01*
X425205Y780805D01*
X424922Y781095D01*
X424646Y781392D01*
X424377Y781695D01*
X424117Y782005D01*
X423863Y782322D01*
X423618Y782644D01*
X423381Y782972D01*
X423151Y783307D01*
X422930Y783646D01*
X422718Y783991D01*
X422514Y784341D01*
X422318Y784696D01*
X422132Y785056D01*
X421954Y785420D01*
X421785Y785788D01*
X421626Y786161D01*
X421475Y786537D01*
X421334Y786917D01*
X421202Y787300D01*
X421080Y787686D01*
X420967Y788076D01*
X420864Y788467D01*
X420770Y788862D01*
X420686Y789258D01*
X420612Y789656D01*
X420548Y790056D01*
X420493Y790458D01*
X420449Y790861D01*
X420414Y791264D01*
X420389Y791669D01*
X420374Y792074D01*
X420369Y792479D01*
X623569Y436879D02*
X623574Y437284D01*
X623589Y437689D01*
X623614Y438094D01*
X623649Y438497D01*
X623693Y438900D01*
X623748Y439302D01*
X623812Y439702D01*
X623886Y440100D01*
X623970Y440496D01*
X624064Y440891D01*
X624167Y441282D01*
X624280Y441672D01*
X624402Y442058D01*
X624534Y442441D01*
X624675Y442821D01*
X624826Y443197D01*
X624985Y443570D01*
X625154Y443938D01*
X625332Y444302D01*
X625518Y444662D01*
X625714Y445017D01*
X625918Y445367D01*
X626130Y445712D01*
X626351Y446051D01*
X626581Y446386D01*
X626818Y446714D01*
X627063Y447036D01*
X627317Y447353D01*
X627577Y447663D01*
X627846Y447966D01*
X628122Y448263D01*
X628405Y448553D01*
X628695Y448836D01*
X628992Y449112D01*
X629295Y449381D01*
X629605Y449641D01*
X629922Y449895D01*
X630244Y450140D01*
X630572Y450377D01*
X630907Y450607D01*
X631246Y450828D01*
X631591Y451040D01*
X631941Y451244D01*
X632296Y451440D01*
X632656Y451626D01*
X633020Y451804D01*
X633388Y451973D01*
X633761Y452132D01*
X634137Y452283D01*
X634517Y452424D01*
X634900Y452556D01*
X635286Y452678D01*
X635676Y452791D01*
X636067Y452894D01*
X636462Y452988D01*
X636858Y453072D01*
X637256Y453146D01*
X637656Y453210D01*
X638058Y453265D01*
X638461Y453309D01*
X638864Y453344D01*
X639269Y453369D01*
X639674Y453384D01*
X640079Y453389D01*
X640484Y453384D01*
X640889Y453369D01*
X641294Y453344D01*
X641697Y453309D01*
X642100Y453265D01*
X642502Y453210D01*
X642902Y453146D01*
X643300Y453072D01*
X643696Y452988D01*
X644091Y452894D01*
X644482Y452791D01*
X644872Y452678D01*
X645258Y452556D01*
X645641Y452424D01*
X646021Y452283D01*
X646397Y452132D01*
X646770Y451973D01*
X647138Y451804D01*
X647502Y451626D01*
X647862Y451440D01*
X648217Y451244D01*
X648567Y451040D01*
X648912Y450828D01*
X649251Y450607D01*
X649586Y450377D01*
X649914Y450140D01*
X650236Y449895D01*
X650553Y449641D01*
X650863Y449381D01*
X651166Y449112D01*
X651463Y448836D01*
X651753Y448553D01*
X652036Y448263D01*
X652312Y447966D01*
X652581Y447663D01*
X652841Y447353D01*
X653095Y447036D01*
X653340Y446714D01*
X653577Y446386D01*
X653807Y446051D01*
X654028Y445712D01*
X654240Y445367D01*
X654444Y445017D01*
X654640Y444662D01*
X654826Y444302D01*
X655004Y443938D01*
X655173Y443570D01*
X655332Y443197D01*
X655483Y442821D01*
X655624Y442441D01*
X655756Y442058D01*
X655878Y441672D01*
X655991Y441282D01*
X656094Y440891D01*
X656188Y440496D01*
X656272Y440100D01*
X656346Y439702D01*
X656410Y439302D01*
X656465Y438900D01*
X656509Y438497D01*
X656544Y438094D01*
X656569Y437689D01*
X656584Y437284D01*
X656589Y436879D01*
X656584Y436474D01*
X656569Y436069D01*
X656544Y435664D01*
X656509Y435261D01*
X656465Y434858D01*
X656410Y434456D01*
X656346Y434056D01*
X656272Y433658D01*
X656188Y433262D01*
X656094Y432867D01*
X655991Y432476D01*
X655878Y432086D01*
X655756Y431700D01*
X655624Y431317D01*
X655483Y430937D01*
X655332Y430561D01*
X655173Y430188D01*
X655004Y429820D01*
X654826Y429456D01*
X654640Y429096D01*
X654444Y428741D01*
X654240Y428391D01*
X654028Y428046D01*
X653807Y427707D01*
X653577Y427372D01*
X653340Y427044D01*
X653095Y426722D01*
X652841Y426405D01*
X652581Y426095D01*
X652312Y425792D01*
X652036Y425495D01*
X651753Y425205D01*
X651463Y424922D01*
X651166Y424646D01*
X650863Y424377D01*
X650553Y424117D01*
X650236Y423863D01*
X649914Y423618D01*
X649586Y423381D01*
X649251Y423151D01*
X648912Y422930D01*
X648567Y422718D01*
X648217Y422514D01*
X647862Y422318D01*
X647502Y422132D01*
X647138Y421954D01*
X646770Y421785D01*
X646397Y421626D01*
X646021Y421475D01*
X645641Y421334D01*
X645258Y421202D01*
X644872Y421080D01*
X644482Y420967D01*
X644091Y420864D01*
X643696Y420770D01*
X643300Y420686D01*
X642902Y420612D01*
X642502Y420548D01*
X642100Y420493D01*
X641697Y420449D01*
X641294Y420414D01*
X640889Y420389D01*
X640484Y420374D01*
X640079Y420369D01*
X639674Y420374D01*
X639269Y420389D01*
X638864Y420414D01*
X638461Y420449D01*
X638058Y420493D01*
X637656Y420548D01*
X637256Y420612D01*
X636858Y420686D01*
X636462Y420770D01*
X636067Y420864D01*
X635676Y420967D01*
X635286Y421080D01*
X634900Y421202D01*
X634517Y421334D01*
X634137Y421475D01*
X633761Y421626D01*
X633388Y421785D01*
X633020Y421954D01*
X632656Y422132D01*
X632296Y422318D01*
X631941Y422514D01*
X631591Y422718D01*
X631246Y422930D01*
X630907Y423151D01*
X630572Y423381D01*
X630244Y423618D01*
X629922Y423863D01*
X629605Y424117D01*
X629295Y424377D01*
X628992Y424646D01*
X628695Y424922D01*
X628405Y425205D01*
X628122Y425495D01*
X627846Y425792D01*
X627577Y426095D01*
X627317Y426405D01*
X627063Y426722D01*
X626818Y427044D01*
X626581Y427372D01*
X626351Y427707D01*
X626130Y428046D01*
X625918Y428391D01*
X625714Y428741D01*
X625518Y429096D01*
X625332Y429456D01*
X625154Y429820D01*
X624985Y430188D01*
X624826Y430561D01*
X624675Y430937D01*
X624534Y431317D01*
X624402Y431700D01*
X624280Y432086D01*
X624167Y432476D01*
X624064Y432867D01*
X623970Y433262D01*
X623886Y433658D01*
X623812Y434056D01*
X623748Y434456D01*
X623693Y434858D01*
X623649Y435261D01*
X623614Y435664D01*
X623589Y436069D01*
X623574Y436474D01*
X623569Y436879D01*
X420369Y436879D02*
X420374Y437284D01*
X420389Y437689D01*
X420414Y438094D01*
X420449Y438497D01*
X420493Y438900D01*
X420548Y439302D01*
X420612Y439702D01*
X420686Y440100D01*
X420770Y440496D01*
X420864Y440891D01*
X420967Y441282D01*
X421080Y441672D01*
X421202Y442058D01*
X421334Y442441D01*
X421475Y442821D01*
X421626Y443197D01*
X421785Y443570D01*
X421954Y443938D01*
X422132Y444302D01*
X422318Y444662D01*
X422514Y445017D01*
X422718Y445367D01*
X422930Y445712D01*
X423151Y446051D01*
X423381Y446386D01*
X423618Y446714D01*
X423863Y447036D01*
X424117Y447353D01*
X424377Y447663D01*
X424646Y447966D01*
X424922Y448263D01*
X425205Y448553D01*
X425495Y448836D01*
X425792Y449112D01*
X426095Y449381D01*
X426405Y449641D01*
X426722Y449895D01*
X427044Y450140D01*
X427372Y450377D01*
X427707Y450607D01*
X428046Y450828D01*
X428391Y451040D01*
X428741Y451244D01*
X429096Y451440D01*
X429456Y451626D01*
X429820Y451804D01*
X430188Y451973D01*
X430561Y452132D01*
X430937Y452283D01*
X431317Y452424D01*
X431700Y452556D01*
X432086Y452678D01*
X432476Y452791D01*
X432867Y452894D01*
X433262Y452988D01*
X433658Y453072D01*
X434056Y453146D01*
X434456Y453210D01*
X434858Y453265D01*
X435261Y453309D01*
X435664Y453344D01*
X436069Y453369D01*
X436474Y453384D01*
X436879Y453389D01*
X437284Y453384D01*
X437689Y453369D01*
X438094Y453344D01*
X438497Y453309D01*
X438900Y453265D01*
X439302Y453210D01*
X439702Y453146D01*
X440100Y453072D01*
X440496Y452988D01*
X440891Y452894D01*
X441282Y452791D01*
X441672Y452678D01*
X442058Y452556D01*
X442441Y452424D01*
X442821Y452283D01*
X443197Y452132D01*
X443570Y451973D01*
X443938Y451804D01*
X444302Y451626D01*
X444662Y451440D01*
X445017Y451244D01*
X445367Y451040D01*
X445712Y450828D01*
X446051Y450607D01*
X446386Y450377D01*
X446714Y450140D01*
X447036Y449895D01*
X447353Y449641D01*
X447663Y449381D01*
X447966Y449112D01*
X448263Y448836D01*
X448553Y448553D01*
X448836Y448263D01*
X449112Y447966D01*
X449381Y447663D01*
X449641Y447353D01*
X449895Y447036D01*
X450140Y446714D01*
X450377Y446386D01*
X450607Y446051D01*
X450828Y445712D01*
X451040Y445367D01*
X451244Y445017D01*
X451440Y444662D01*
X451626Y444302D01*
X451804Y443938D01*
X451973Y443570D01*
X452132Y443197D01*
X452283Y442821D01*
X452424Y442441D01*
X452556Y442058D01*
X452678Y441672D01*
X452791Y441282D01*
X452894Y440891D01*
X452988Y440496D01*
X453072Y440100D01*
X453146Y439702D01*
X453210Y439302D01*
X453265Y438900D01*
X453309Y438497D01*
X453344Y438094D01*
X453369Y437689D01*
X453384Y437284D01*
X453389Y436879D01*
X453384Y436474D01*
X453369Y436069D01*
X453344Y435664D01*
X453309Y435261D01*
X453265Y434858D01*
X453210Y434456D01*
X453146Y434056D01*
X453072Y433658D01*
X452988Y433262D01*
X452894Y432867D01*
X452791Y432476D01*
X452678Y432086D01*
X452556Y431700D01*
X452424Y431317D01*
X452283Y430937D01*
X452132Y430561D01*
X451973Y430188D01*
X451804Y429820D01*
X451626Y429456D01*
X451440Y429096D01*
X451244Y428741D01*
X451040Y428391D01*
X450828Y428046D01*
X450607Y427707D01*
X450377Y427372D01*
X450140Y427044D01*
X449895Y426722D01*
X449641Y426405D01*
X449381Y426095D01*
X449112Y425792D01*
X448836Y425495D01*
X448553Y425205D01*
X448263Y424922D01*
X447966Y424646D01*
X447663Y424377D01*
X447353Y424117D01*
X447036Y423863D01*
X446714Y423618D01*
X446386Y423381D01*
X446051Y423151D01*
X445712Y422930D01*
X445367Y422718D01*
X445017Y422514D01*
X444662Y422318D01*
X444302Y422132D01*
X443938Y421954D01*
X443570Y421785D01*
X443197Y421626D01*
X442821Y421475D01*
X442441Y421334D01*
X442058Y421202D01*
X441672Y421080D01*
X441282Y420967D01*
X440891Y420864D01*
X440496Y420770D01*
X440100Y420686D01*
X439702Y420612D01*
X439302Y420548D01*
X438900Y420493D01*
X438497Y420449D01*
X438094Y420414D01*
X437689Y420389D01*
X437284Y420374D01*
X436879Y420369D01*
X436474Y420374D01*
X436069Y420389D01*
X435664Y420414D01*
X435261Y420449D01*
X434858Y420493D01*
X434456Y420548D01*
X434056Y420612D01*
X433658Y420686D01*
X433262Y420770D01*
X432867Y420864D01*
X432476Y420967D01*
X432086Y421080D01*
X431700Y421202D01*
X431317Y421334D01*
X430937Y421475D01*
X430561Y421626D01*
X430188Y421785D01*
X429820Y421954D01*
X429456Y422132D01*
X429096Y422318D01*
X428741Y422514D01*
X428391Y422718D01*
X428046Y422930D01*
X427707Y423151D01*
X427372Y423381D01*
X427044Y423618D01*
X426722Y423863D01*
X426405Y424117D01*
X426095Y424377D01*
X425792Y424646D01*
X425495Y424922D01*
X425205Y425205D01*
X424922Y425495D01*
X424646Y425792D01*
X424377Y426095D01*
X424117Y426405D01*
X423863Y426722D01*
X423618Y427044D01*
X423381Y427372D01*
X423151Y427707D01*
X422930Y428046D01*
X422718Y428391D01*
X422514Y428741D01*
X422318Y429096D01*
X422132Y429456D01*
X421954Y429820D01*
X421785Y430188D01*
X421626Y430561D01*
X421475Y430937D01*
X421334Y431317D01*
X421202Y431700D01*
X421080Y432086D01*
X420967Y432476D01*
X420864Y432867D01*
X420770Y433262D01*
X420686Y433658D01*
X420612Y434056D01*
X420548Y434456D01*
X420493Y434858D01*
X420449Y435261D01*
X420414Y435664D01*
X420389Y436069D01*
X420374Y436474D01*
X420369Y436879D01*
M02*
