M48
;GenerationSoftware,Autodesk,EAGLE,9.2.1*%
;CreationDate,2018-10-16T20:36:20Z*%
FMAT,2
ICI,OFF
METRIC,TZ,000.000
T5C0.381
T4C0.508
T3C0.813
T2C1.016
T1C3.302
%
G90
M71
T1
X43688Y79248
X27940Y38100
X7620Y38100
X27940Y2540
X7620Y2540
X64008Y38100
X43688Y38100
X64008Y2540
X43688Y2540
X27940Y79248
X7620Y79248
X27940Y43688
X7620Y43688
X64008Y79248
X43688Y43688
X64008Y43688
T2
X13970Y42418
X24130Y1270
X21590Y1270
X19050Y1270
X16510Y1270
X13970Y1270
X11430Y1270
X24130Y39370
X21590Y39370
X19050Y39370
X16510Y39370
X13970Y39370
X11430Y39370
X16510Y80518
X13970Y80518
X11430Y80518
X52578Y80518
X60198Y42418
X57658Y42418
X55118Y42418
X52578Y42418
X50038Y42418
X47498Y42418
X60198Y80518
X57658Y80518
X60198Y1270
X57658Y1270
X55118Y1270
X52578Y1270
X50038Y1270
X47498Y1270
X60198Y39370
X57658Y39370
X55118Y39370
X52578Y39370
X50038Y39370
X47498Y39370
X55118Y80518
X50038Y80518
X47498Y80518
X24130Y80518
X24130Y42418
X21590Y42418
X19050Y42418
X16510Y42418
X11430Y42418
X21590Y80518
X19050Y80518
T3
X6731Y24046
X42799Y24046
X27559Y67267
X28829Y65067
X19050Y48133
X16510Y48133
X44069Y26246
X8001Y26246
X27559Y26119
X28829Y23919
X19050Y6985
X16510Y6985
X6731Y65194
X63627Y26119
X64897Y23919
X55118Y6985
X52578Y6985
X8001Y67394
X52578Y48133
X42799Y65194
X44069Y67394
X63627Y67267
X64897Y65067
X55118Y48133
T4
X19050Y36830
X16510Y36830
X52578Y34290
X19050Y34290
X16510Y34290
X19050Y31750
X55118Y31750
X52578Y31750
X19050Y77978
X16510Y31750
X16510Y77978
X55118Y36830
X55118Y77978
X52578Y77978
X55118Y75438
X52578Y75438
X55118Y72898
X19050Y75438
X52578Y36830
X55118Y34290
X16510Y75438
X19050Y72898
X16510Y72898
X52578Y72898
T5
X46228Y11430
X58928Y31750
X53848Y20320
X56302Y13821
X2540Y60198
X8890Y61468
X16510Y60198
X16510Y55118
X22860Y60198
X21590Y65278
X22352Y69977
X12700Y77597
X13589Y73279
X31750Y72898
X30480Y56388
X9525Y73406
X12700Y50038
X5080Y53848
X10160Y67818
X26670Y69723
X28575Y58928
X33655Y60198
X24765Y72898
X12446Y71755
X21590Y50038
X29210Y52578
X3810Y72898
X27940Y63119
X7620Y62738
X15240Y63119
X3810Y58928
X33020Y55118
X8890Y74549
X26670Y62230
X6350Y59690
X16002Y61976
X31750Y53848
X29845Y71501
X12065Y67818
X11430Y74168
X7620Y72898
X7620Y69088
X14732Y70485
X18430Y71120
X11476Y61468
X12700Y61468
X13335Y70104
X15367Y72390
X18288Y73914
X14732Y71628
X17399Y77089
X27051Y72898
X21209Y67945
X20320Y64008
X29076Y55989
X11430Y51308
X31750Y68668
X29210Y57658
X10160Y52578
X22860Y72898
X15367Y31242
X20234Y54968
X38608Y60198
X44958Y61468
X52578Y60198
X52578Y55118
X58928Y60198
X57658Y65278
X58420Y69977
X48768Y77597
X49657Y73279
X67818Y72898
X66548Y56388
X45593Y73406
X48768Y50038
X41148Y53848
X46228Y67818
X62738Y69723
X64643Y58928
X69723Y60198
X60833Y72898
X48514Y71755
X57658Y50038
X65278Y52578
X39878Y72898
X64008Y63119
X43688Y62738
X51308Y63119
X39878Y58928
X69088Y55118
X44958Y74549
X62738Y62230
X42418Y59690
X52070Y61976
X67818Y53848
X65913Y71501
X48133Y67818
X47498Y74168
X43688Y72898
X43688Y69088
X50800Y70485
X54498Y71120
X47544Y61468
X48768Y61468
X49403Y70104
X51435Y72390
X54356Y73914
X50800Y71628
X53467Y77089
X63119Y72898
X57277Y67945
X56388Y64008
X65144Y55989
X47498Y51308
X67818Y68668
X65278Y57658
X46228Y52578
X58928Y72898
X53848Y61468
X56302Y54968
X2540Y19050
X8890Y20320
X16510Y19050
X16510Y13970
X22860Y19050
X21590Y24130
X22352Y28829
X12700Y36449
X13589Y32131
X31750Y31750
X30480Y15240
X9525Y32258
X12700Y8890
X5080Y12700
X10160Y26670
X26670Y28575
X28575Y17780
X33655Y19050
X24765Y31750
X12446Y30607
X21590Y8890
X29210Y11430
X3810Y31750
X27940Y21971
X7620Y21590
X15240Y21971
X3810Y17780
X33020Y13970
X8890Y33401
X26670Y21082
X6350Y18542
X16002Y20828
X31750Y12700
X29845Y30353
X12065Y26670
X11430Y33020
X7620Y31750
X7620Y27940
X14732Y29337
X18430Y29972
X11476Y20320
X12700Y20320
X13335Y28956
X18288Y32766
X14732Y30480
X17399Y35941
X27051Y31750
X21209Y26797
X20320Y22860
X29076Y14841
X11430Y10160
X31750Y27520
X29210Y16510
X10160Y11430
X22860Y31750
X17780Y20320
X20234Y13821
X38608Y19050
X44958Y20320
X52578Y19050
X52578Y13970
X58928Y19050
X57658Y24130
X58420Y28829
X48768Y36449
X49657Y32131
X67818Y31750
X66548Y15240
X17780Y61468
X45593Y32258
X48768Y8890
X41148Y12700
X46228Y26670
X62738Y28575
X64643Y17780
X69723Y19050
X60833Y31750
X48514Y30607
X57658Y8890
X65278Y11430
X39878Y31750
X64008Y21971
X43688Y21590
X51308Y21971
X39878Y17780
X69088Y13970
X44958Y33401
X62738Y21082
X42418Y18542
X52070Y20828
X67818Y12700
X65913Y30353
X48133Y26670
X47498Y33020
X43688Y31750
X43688Y27940
X50800Y29337
X54498Y29972
X47544Y20320
X48768Y20320
X49403Y28956
X51435Y31242
X54356Y32766
X50800Y30480
X53467Y35941
X63119Y31750
X57277Y26797
X56388Y22860
X65144Y14841
X47498Y10160
X67818Y27520
X65278Y16510
M30