G75*
%MOIN*%
%OFA0B0*%
%FSLAX25Y25*%
%IPPOS*%
%LPD*%
%AMOC8*
5,1,8,0,0,1.08239X$1,22.5*
%
%ADD10C,0.00800*%
%ADD11C,0.01500*%
%ADD12C,0.01100*%
%ADD13C,0.01000*%
%ADD14C,0.00000*%
D10*
X0042074Y0028750D02*
X0182074Y0028750D01*
X0182074Y0188750D01*
X0042074Y0188750D01*
X0042074Y0028750D01*
X0184074Y0028750D02*
X0324074Y0028750D01*
X0324074Y0188750D01*
X0184074Y0188750D01*
X0184074Y0028750D01*
X0184074Y0190750D02*
X0324074Y0190750D01*
X0324074Y0350750D01*
X0184074Y0350750D01*
X0184074Y0190750D01*
X0182074Y0190750D02*
X0042074Y0190750D01*
X0042074Y0350750D01*
X0182074Y0350750D01*
X0182074Y0190750D01*
D11*
X0015074Y0189750D02*
X0376074Y0189750D01*
X0376074Y0351750D02*
X0015074Y0351750D01*
X0041074Y0402750D02*
X0041074Y0001750D01*
X0015074Y0027750D02*
X0376074Y0027750D01*
X0325074Y0001750D02*
X0325074Y0402750D01*
X0183074Y0402750D02*
X0183074Y0001750D01*
D12*
X0388865Y0028733D02*
X0390176Y0024800D01*
X0391487Y0028733D01*
X0394158Y0027094D02*
X0398092Y0027094D01*
X0401460Y0027094D02*
X0403098Y0026439D01*
X0403099Y0026439D02*
X0403151Y0026416D01*
X0403202Y0026389D01*
X0403251Y0026359D01*
X0403298Y0026326D01*
X0403343Y0026290D01*
X0403385Y0026250D01*
X0403424Y0026208D01*
X0403460Y0026164D01*
X0403493Y0026117D01*
X0403523Y0026067D01*
X0403550Y0026016D01*
X0403573Y0025964D01*
X0403592Y0025910D01*
X0403608Y0025854D01*
X0403620Y0025798D01*
X0403628Y0025741D01*
X0403632Y0025684D01*
X0403633Y0025626D01*
X0403629Y0025569D01*
X0403622Y0025512D01*
X0403610Y0025455D01*
X0403595Y0025400D01*
X0403577Y0025345D01*
X0403554Y0025292D01*
X0403528Y0025241D01*
X0403499Y0025192D01*
X0403466Y0025144D01*
X0403430Y0025099D01*
X0403392Y0025057D01*
X0403350Y0025017D01*
X0403306Y0024980D01*
X0403259Y0024946D01*
X0403211Y0024915D01*
X0403160Y0024888D01*
X0403108Y0024864D01*
X0403054Y0024844D01*
X0402999Y0024828D01*
X0402943Y0024815D01*
X0402886Y0024806D01*
X0402828Y0024801D01*
X0402771Y0024800D01*
X0403262Y0028405D02*
X0403155Y0028451D01*
X0403046Y0028494D01*
X0402936Y0028534D01*
X0402824Y0028570D01*
X0402712Y0028602D01*
X0402598Y0028631D01*
X0402484Y0028657D01*
X0402369Y0028678D01*
X0402254Y0028697D01*
X0402137Y0028711D01*
X0402021Y0028722D01*
X0401904Y0028729D01*
X0401787Y0028733D01*
X0401787Y0028734D02*
X0401730Y0028733D01*
X0401672Y0028728D01*
X0401615Y0028719D01*
X0401559Y0028706D01*
X0401504Y0028690D01*
X0401450Y0028670D01*
X0401398Y0028646D01*
X0401347Y0028619D01*
X0401299Y0028588D01*
X0401252Y0028554D01*
X0401208Y0028517D01*
X0401166Y0028477D01*
X0401128Y0028435D01*
X0401092Y0028390D01*
X0401059Y0028342D01*
X0401030Y0028293D01*
X0401004Y0028242D01*
X0400981Y0028189D01*
X0400963Y0028134D01*
X0400948Y0028079D01*
X0400936Y0028022D01*
X0400929Y0027965D01*
X0400925Y0027908D01*
X0400926Y0027850D01*
X0400930Y0027793D01*
X0400938Y0027736D01*
X0400950Y0027680D01*
X0400966Y0027624D01*
X0400985Y0027570D01*
X0401008Y0027518D01*
X0401035Y0027467D01*
X0401065Y0027417D01*
X0401098Y0027370D01*
X0401134Y0027326D01*
X0401173Y0027284D01*
X0401215Y0027244D01*
X0401260Y0027208D01*
X0401307Y0027175D01*
X0401356Y0027145D01*
X0401407Y0027118D01*
X0401459Y0027095D01*
X0400968Y0025128D02*
X0401102Y0025082D01*
X0401237Y0025039D01*
X0401373Y0025000D01*
X0401510Y0024964D01*
X0401647Y0024932D01*
X0401786Y0024903D01*
X0401925Y0024877D01*
X0402065Y0024856D01*
X0402206Y0024837D01*
X0402346Y0024823D01*
X0402488Y0024812D01*
X0402629Y0024804D01*
X0402771Y0024801D01*
X0406312Y0025783D02*
X0406312Y0027750D01*
X0406314Y0027812D01*
X0406320Y0027873D01*
X0406329Y0027934D01*
X0406343Y0027994D01*
X0406360Y0028054D01*
X0406381Y0028112D01*
X0406406Y0028169D01*
X0406434Y0028224D01*
X0406465Y0028277D01*
X0406500Y0028328D01*
X0406538Y0028377D01*
X0406578Y0028423D01*
X0406622Y0028467D01*
X0406668Y0028507D01*
X0406717Y0028545D01*
X0406768Y0028580D01*
X0406821Y0028611D01*
X0406876Y0028639D01*
X0406933Y0028664D01*
X0406991Y0028685D01*
X0407051Y0028702D01*
X0407111Y0028716D01*
X0407172Y0028725D01*
X0407233Y0028731D01*
X0407295Y0028733D01*
X0408606Y0028733D01*
X0411019Y0027422D02*
X0411019Y0026111D01*
X0411020Y0026111D02*
X0411022Y0026040D01*
X0411028Y0025969D01*
X0411037Y0025899D01*
X0411051Y0025829D01*
X0411068Y0025760D01*
X0411089Y0025692D01*
X0411113Y0025626D01*
X0411141Y0025561D01*
X0411173Y0025497D01*
X0411208Y0025435D01*
X0411246Y0025375D01*
X0411287Y0025318D01*
X0411332Y0025262D01*
X0411379Y0025209D01*
X0411429Y0025159D01*
X0411482Y0025112D01*
X0411538Y0025067D01*
X0411595Y0025026D01*
X0411655Y0024988D01*
X0411717Y0024953D01*
X0411781Y0024921D01*
X0411846Y0024893D01*
X0411912Y0024869D01*
X0411980Y0024848D01*
X0412049Y0024831D01*
X0412119Y0024817D01*
X0412189Y0024808D01*
X0412260Y0024802D01*
X0412331Y0024800D01*
X0412402Y0024802D01*
X0412473Y0024808D01*
X0412543Y0024817D01*
X0412613Y0024831D01*
X0412682Y0024848D01*
X0412750Y0024869D01*
X0412816Y0024893D01*
X0412881Y0024921D01*
X0412945Y0024953D01*
X0413007Y0024988D01*
X0413067Y0025026D01*
X0413124Y0025067D01*
X0413180Y0025112D01*
X0413233Y0025159D01*
X0413283Y0025209D01*
X0413330Y0025262D01*
X0413375Y0025318D01*
X0413416Y0025375D01*
X0413454Y0025435D01*
X0413489Y0025497D01*
X0413521Y0025561D01*
X0413549Y0025626D01*
X0413573Y0025692D01*
X0413594Y0025760D01*
X0413611Y0025829D01*
X0413625Y0025899D01*
X0413634Y0025969D01*
X0413640Y0026040D01*
X0413642Y0026111D01*
X0413642Y0027422D01*
X0413640Y0027493D01*
X0413634Y0027564D01*
X0413625Y0027634D01*
X0413611Y0027704D01*
X0413594Y0027773D01*
X0413573Y0027841D01*
X0413549Y0027907D01*
X0413521Y0027972D01*
X0413489Y0028036D01*
X0413454Y0028098D01*
X0413416Y0028158D01*
X0413375Y0028215D01*
X0413330Y0028271D01*
X0413283Y0028324D01*
X0413233Y0028374D01*
X0413180Y0028421D01*
X0413124Y0028466D01*
X0413067Y0028507D01*
X0413007Y0028545D01*
X0412945Y0028580D01*
X0412881Y0028612D01*
X0412816Y0028640D01*
X0412750Y0028664D01*
X0412682Y0028685D01*
X0412613Y0028702D01*
X0412543Y0028716D01*
X0412473Y0028725D01*
X0412402Y0028731D01*
X0412331Y0028733D01*
X0412260Y0028731D01*
X0412189Y0028725D01*
X0412119Y0028716D01*
X0412049Y0028702D01*
X0411980Y0028685D01*
X0411912Y0028664D01*
X0411846Y0028640D01*
X0411781Y0028612D01*
X0411717Y0028580D01*
X0411655Y0028545D01*
X0411595Y0028507D01*
X0411538Y0028466D01*
X0411482Y0028421D01*
X0411429Y0028374D01*
X0411379Y0028324D01*
X0411332Y0028271D01*
X0411287Y0028215D01*
X0411246Y0028158D01*
X0411208Y0028098D01*
X0411173Y0028036D01*
X0411141Y0027972D01*
X0411113Y0027907D01*
X0411089Y0027841D01*
X0411068Y0027773D01*
X0411051Y0027704D01*
X0411037Y0027634D01*
X0411028Y0027564D01*
X0411022Y0027493D01*
X0411020Y0027422D01*
X0408606Y0024800D02*
X0407295Y0024800D01*
X0407233Y0024802D01*
X0407172Y0024808D01*
X0407111Y0024817D01*
X0407051Y0024831D01*
X0406991Y0024848D01*
X0406933Y0024869D01*
X0406876Y0024894D01*
X0406821Y0024922D01*
X0406768Y0024953D01*
X0406717Y0024988D01*
X0406668Y0025026D01*
X0406622Y0025066D01*
X0406578Y0025110D01*
X0406538Y0025156D01*
X0406500Y0025205D01*
X0406465Y0025256D01*
X0406434Y0025309D01*
X0406406Y0025364D01*
X0406381Y0025421D01*
X0406360Y0025479D01*
X0406343Y0025539D01*
X0406329Y0025599D01*
X0406320Y0025660D01*
X0406314Y0025721D01*
X0406312Y0025783D01*
X0416609Y0024800D02*
X0416609Y0028733D01*
X0418575Y0028733D01*
X0418575Y0028078D01*
X0420661Y0027422D02*
X0420661Y0025783D01*
X0420663Y0025721D01*
X0420669Y0025660D01*
X0420678Y0025599D01*
X0420692Y0025539D01*
X0420709Y0025479D01*
X0420730Y0025421D01*
X0420755Y0025364D01*
X0420783Y0025309D01*
X0420814Y0025256D01*
X0420849Y0025205D01*
X0420887Y0025156D01*
X0420927Y0025110D01*
X0420971Y0025066D01*
X0421017Y0025026D01*
X0421066Y0024988D01*
X0421117Y0024953D01*
X0421170Y0024922D01*
X0421225Y0024894D01*
X0421282Y0024869D01*
X0421340Y0024848D01*
X0421400Y0024831D01*
X0421460Y0024817D01*
X0421521Y0024808D01*
X0421582Y0024802D01*
X0421644Y0024800D01*
X0423283Y0024800D01*
X0423283Y0026767D02*
X0420661Y0026767D01*
X0420661Y0027422D02*
X0420663Y0027493D01*
X0420669Y0027564D01*
X0420678Y0027634D01*
X0420692Y0027704D01*
X0420709Y0027773D01*
X0420730Y0027841D01*
X0420754Y0027907D01*
X0420782Y0027972D01*
X0420814Y0028036D01*
X0420849Y0028098D01*
X0420887Y0028158D01*
X0420928Y0028215D01*
X0420973Y0028271D01*
X0421020Y0028324D01*
X0421070Y0028374D01*
X0421123Y0028421D01*
X0421179Y0028466D01*
X0421236Y0028507D01*
X0421296Y0028545D01*
X0421358Y0028580D01*
X0421422Y0028612D01*
X0421487Y0028640D01*
X0421553Y0028664D01*
X0421621Y0028685D01*
X0421690Y0028702D01*
X0421760Y0028716D01*
X0421830Y0028725D01*
X0421901Y0028731D01*
X0421972Y0028733D01*
X0422043Y0028731D01*
X0422114Y0028725D01*
X0422184Y0028716D01*
X0422254Y0028702D01*
X0422323Y0028685D01*
X0422391Y0028664D01*
X0422457Y0028640D01*
X0422522Y0028612D01*
X0422586Y0028580D01*
X0422648Y0028545D01*
X0422708Y0028507D01*
X0422765Y0028466D01*
X0422821Y0028421D01*
X0422874Y0028374D01*
X0422924Y0028324D01*
X0422971Y0028271D01*
X0423016Y0028215D01*
X0423057Y0028158D01*
X0423095Y0028098D01*
X0423130Y0028036D01*
X0423162Y0027972D01*
X0423190Y0027907D01*
X0423214Y0027841D01*
X0423235Y0027773D01*
X0423252Y0027704D01*
X0423266Y0027634D01*
X0423275Y0027564D01*
X0423281Y0027493D01*
X0423283Y0027422D01*
X0423283Y0026767D01*
X0423283Y0186800D02*
X0421644Y0186800D01*
X0421582Y0186802D01*
X0421521Y0186808D01*
X0421460Y0186817D01*
X0421400Y0186831D01*
X0421340Y0186848D01*
X0421282Y0186869D01*
X0421225Y0186894D01*
X0421170Y0186922D01*
X0421117Y0186953D01*
X0421066Y0186988D01*
X0421017Y0187026D01*
X0420971Y0187066D01*
X0420927Y0187110D01*
X0420887Y0187156D01*
X0420849Y0187205D01*
X0420814Y0187256D01*
X0420783Y0187309D01*
X0420755Y0187364D01*
X0420730Y0187421D01*
X0420709Y0187479D01*
X0420692Y0187539D01*
X0420678Y0187599D01*
X0420669Y0187660D01*
X0420663Y0187721D01*
X0420661Y0187783D01*
X0420661Y0189422D01*
X0420661Y0188766D02*
X0423283Y0188766D01*
X0423283Y0189422D01*
X0423281Y0189493D01*
X0423275Y0189564D01*
X0423266Y0189634D01*
X0423252Y0189704D01*
X0423235Y0189773D01*
X0423214Y0189841D01*
X0423190Y0189907D01*
X0423162Y0189972D01*
X0423130Y0190036D01*
X0423095Y0190098D01*
X0423057Y0190158D01*
X0423016Y0190215D01*
X0422971Y0190271D01*
X0422924Y0190324D01*
X0422874Y0190374D01*
X0422821Y0190421D01*
X0422765Y0190466D01*
X0422708Y0190507D01*
X0422648Y0190545D01*
X0422586Y0190580D01*
X0422522Y0190612D01*
X0422457Y0190640D01*
X0422391Y0190664D01*
X0422323Y0190685D01*
X0422254Y0190702D01*
X0422184Y0190716D01*
X0422114Y0190725D01*
X0422043Y0190731D01*
X0421972Y0190733D01*
X0421901Y0190731D01*
X0421830Y0190725D01*
X0421760Y0190716D01*
X0421690Y0190702D01*
X0421621Y0190685D01*
X0421553Y0190664D01*
X0421487Y0190640D01*
X0421422Y0190612D01*
X0421358Y0190580D01*
X0421296Y0190545D01*
X0421236Y0190507D01*
X0421179Y0190466D01*
X0421123Y0190421D01*
X0421070Y0190374D01*
X0421020Y0190324D01*
X0420973Y0190271D01*
X0420928Y0190215D01*
X0420887Y0190158D01*
X0420849Y0190098D01*
X0420814Y0190036D01*
X0420782Y0189972D01*
X0420754Y0189907D01*
X0420730Y0189841D01*
X0420709Y0189773D01*
X0420692Y0189704D01*
X0420678Y0189634D01*
X0420669Y0189564D01*
X0420663Y0189493D01*
X0420661Y0189422D01*
X0418575Y0190078D02*
X0418575Y0190733D01*
X0416609Y0190733D01*
X0416609Y0186800D01*
X0413642Y0188111D02*
X0413642Y0189422D01*
X0413640Y0189493D01*
X0413634Y0189564D01*
X0413625Y0189634D01*
X0413611Y0189704D01*
X0413594Y0189773D01*
X0413573Y0189841D01*
X0413549Y0189907D01*
X0413521Y0189972D01*
X0413489Y0190036D01*
X0413454Y0190098D01*
X0413416Y0190158D01*
X0413375Y0190215D01*
X0413330Y0190271D01*
X0413283Y0190324D01*
X0413233Y0190374D01*
X0413180Y0190421D01*
X0413124Y0190466D01*
X0413067Y0190507D01*
X0413007Y0190545D01*
X0412945Y0190580D01*
X0412881Y0190612D01*
X0412816Y0190640D01*
X0412750Y0190664D01*
X0412682Y0190685D01*
X0412613Y0190702D01*
X0412543Y0190716D01*
X0412473Y0190725D01*
X0412402Y0190731D01*
X0412331Y0190733D01*
X0412260Y0190731D01*
X0412189Y0190725D01*
X0412119Y0190716D01*
X0412049Y0190702D01*
X0411980Y0190685D01*
X0411912Y0190664D01*
X0411846Y0190640D01*
X0411781Y0190612D01*
X0411717Y0190580D01*
X0411655Y0190545D01*
X0411595Y0190507D01*
X0411538Y0190466D01*
X0411482Y0190421D01*
X0411429Y0190374D01*
X0411379Y0190324D01*
X0411332Y0190271D01*
X0411287Y0190215D01*
X0411246Y0190158D01*
X0411208Y0190098D01*
X0411173Y0190036D01*
X0411141Y0189972D01*
X0411113Y0189907D01*
X0411089Y0189841D01*
X0411068Y0189773D01*
X0411051Y0189704D01*
X0411037Y0189634D01*
X0411028Y0189564D01*
X0411022Y0189493D01*
X0411020Y0189422D01*
X0411019Y0189422D02*
X0411019Y0188111D01*
X0411020Y0188111D02*
X0411022Y0188040D01*
X0411028Y0187969D01*
X0411037Y0187899D01*
X0411051Y0187829D01*
X0411068Y0187760D01*
X0411089Y0187692D01*
X0411113Y0187626D01*
X0411141Y0187561D01*
X0411173Y0187497D01*
X0411208Y0187435D01*
X0411246Y0187375D01*
X0411287Y0187318D01*
X0411332Y0187262D01*
X0411379Y0187209D01*
X0411429Y0187159D01*
X0411482Y0187112D01*
X0411538Y0187067D01*
X0411595Y0187026D01*
X0411655Y0186988D01*
X0411717Y0186953D01*
X0411781Y0186921D01*
X0411846Y0186893D01*
X0411912Y0186869D01*
X0411980Y0186848D01*
X0412049Y0186831D01*
X0412119Y0186817D01*
X0412189Y0186808D01*
X0412260Y0186802D01*
X0412331Y0186800D01*
X0412402Y0186802D01*
X0412473Y0186808D01*
X0412543Y0186817D01*
X0412613Y0186831D01*
X0412682Y0186848D01*
X0412750Y0186869D01*
X0412816Y0186893D01*
X0412881Y0186921D01*
X0412945Y0186953D01*
X0413007Y0186988D01*
X0413067Y0187026D01*
X0413124Y0187067D01*
X0413180Y0187112D01*
X0413233Y0187159D01*
X0413283Y0187209D01*
X0413330Y0187262D01*
X0413375Y0187318D01*
X0413416Y0187375D01*
X0413454Y0187435D01*
X0413489Y0187497D01*
X0413521Y0187561D01*
X0413549Y0187626D01*
X0413573Y0187692D01*
X0413594Y0187760D01*
X0413611Y0187829D01*
X0413625Y0187899D01*
X0413634Y0187969D01*
X0413640Y0188040D01*
X0413642Y0188111D01*
X0408606Y0186800D02*
X0407295Y0186800D01*
X0407233Y0186802D01*
X0407172Y0186808D01*
X0407111Y0186817D01*
X0407051Y0186831D01*
X0406991Y0186848D01*
X0406933Y0186869D01*
X0406876Y0186894D01*
X0406821Y0186922D01*
X0406768Y0186953D01*
X0406717Y0186988D01*
X0406668Y0187026D01*
X0406622Y0187066D01*
X0406578Y0187110D01*
X0406538Y0187156D01*
X0406500Y0187205D01*
X0406465Y0187256D01*
X0406434Y0187309D01*
X0406406Y0187364D01*
X0406381Y0187421D01*
X0406360Y0187479D01*
X0406343Y0187539D01*
X0406329Y0187599D01*
X0406320Y0187660D01*
X0406314Y0187721D01*
X0406312Y0187783D01*
X0406312Y0189750D01*
X0406314Y0189812D01*
X0406320Y0189873D01*
X0406329Y0189934D01*
X0406343Y0189994D01*
X0406360Y0190054D01*
X0406381Y0190112D01*
X0406406Y0190169D01*
X0406434Y0190224D01*
X0406465Y0190277D01*
X0406500Y0190328D01*
X0406538Y0190377D01*
X0406578Y0190423D01*
X0406622Y0190467D01*
X0406668Y0190507D01*
X0406717Y0190545D01*
X0406768Y0190580D01*
X0406821Y0190611D01*
X0406876Y0190639D01*
X0406933Y0190664D01*
X0406991Y0190685D01*
X0407051Y0190702D01*
X0407111Y0190716D01*
X0407172Y0190725D01*
X0407233Y0190731D01*
X0407295Y0190733D01*
X0408606Y0190733D01*
X0403098Y0188439D02*
X0401460Y0189094D01*
X0401459Y0189094D02*
X0401407Y0189117D01*
X0401356Y0189144D01*
X0401307Y0189174D01*
X0401260Y0189207D01*
X0401215Y0189243D01*
X0401173Y0189283D01*
X0401134Y0189325D01*
X0401098Y0189369D01*
X0401065Y0189416D01*
X0401035Y0189466D01*
X0401008Y0189517D01*
X0400985Y0189569D01*
X0400966Y0189623D01*
X0400950Y0189679D01*
X0400938Y0189735D01*
X0400930Y0189792D01*
X0400926Y0189849D01*
X0400925Y0189907D01*
X0400929Y0189964D01*
X0400936Y0190021D01*
X0400948Y0190078D01*
X0400963Y0190133D01*
X0400981Y0190188D01*
X0401004Y0190241D01*
X0401030Y0190292D01*
X0401059Y0190341D01*
X0401092Y0190389D01*
X0401128Y0190434D01*
X0401166Y0190476D01*
X0401208Y0190516D01*
X0401252Y0190553D01*
X0401299Y0190587D01*
X0401347Y0190618D01*
X0401398Y0190645D01*
X0401450Y0190669D01*
X0401504Y0190689D01*
X0401559Y0190705D01*
X0401615Y0190718D01*
X0401672Y0190727D01*
X0401730Y0190732D01*
X0401787Y0190733D01*
X0400968Y0187127D02*
X0401102Y0187081D01*
X0401237Y0187038D01*
X0401373Y0186999D01*
X0401510Y0186963D01*
X0401647Y0186931D01*
X0401786Y0186902D01*
X0401925Y0186876D01*
X0402065Y0186855D01*
X0402206Y0186836D01*
X0402346Y0186822D01*
X0402488Y0186811D01*
X0402629Y0186803D01*
X0402771Y0186800D01*
X0402828Y0186801D01*
X0402886Y0186806D01*
X0402943Y0186815D01*
X0402999Y0186828D01*
X0403054Y0186844D01*
X0403108Y0186864D01*
X0403160Y0186888D01*
X0403211Y0186915D01*
X0403259Y0186946D01*
X0403306Y0186980D01*
X0403350Y0187017D01*
X0403392Y0187057D01*
X0403430Y0187099D01*
X0403466Y0187144D01*
X0403499Y0187192D01*
X0403528Y0187241D01*
X0403554Y0187292D01*
X0403577Y0187345D01*
X0403595Y0187400D01*
X0403610Y0187455D01*
X0403622Y0187512D01*
X0403629Y0187569D01*
X0403633Y0187626D01*
X0403632Y0187684D01*
X0403628Y0187741D01*
X0403620Y0187798D01*
X0403608Y0187854D01*
X0403592Y0187910D01*
X0403573Y0187964D01*
X0403550Y0188016D01*
X0403523Y0188067D01*
X0403493Y0188117D01*
X0403460Y0188164D01*
X0403424Y0188208D01*
X0403385Y0188250D01*
X0403343Y0188290D01*
X0403298Y0188326D01*
X0403251Y0188359D01*
X0403202Y0188389D01*
X0403151Y0188416D01*
X0403099Y0188439D01*
X0403262Y0190405D02*
X0403155Y0190451D01*
X0403046Y0190494D01*
X0402936Y0190534D01*
X0402824Y0190570D01*
X0402712Y0190602D01*
X0402598Y0190631D01*
X0402484Y0190657D01*
X0402369Y0190678D01*
X0402254Y0190697D01*
X0402137Y0190711D01*
X0402021Y0190722D01*
X0401904Y0190729D01*
X0401787Y0190733D01*
X0398092Y0189094D02*
X0394158Y0189094D01*
X0391487Y0190733D02*
X0390176Y0186800D01*
X0388865Y0190733D01*
X0390176Y0348800D02*
X0391487Y0352733D01*
X0388865Y0352733D02*
X0390176Y0348800D01*
X0394158Y0351094D02*
X0398092Y0351094D01*
X0401460Y0351094D02*
X0403098Y0350438D01*
X0403099Y0350438D02*
X0403151Y0350415D01*
X0403202Y0350388D01*
X0403251Y0350358D01*
X0403298Y0350325D01*
X0403343Y0350289D01*
X0403385Y0350249D01*
X0403424Y0350207D01*
X0403460Y0350163D01*
X0403493Y0350116D01*
X0403523Y0350066D01*
X0403550Y0350015D01*
X0403573Y0349963D01*
X0403592Y0349909D01*
X0403608Y0349853D01*
X0403620Y0349797D01*
X0403628Y0349740D01*
X0403632Y0349683D01*
X0403633Y0349625D01*
X0403629Y0349568D01*
X0403622Y0349511D01*
X0403610Y0349454D01*
X0403595Y0349399D01*
X0403577Y0349344D01*
X0403554Y0349291D01*
X0403528Y0349240D01*
X0403499Y0349191D01*
X0403466Y0349143D01*
X0403430Y0349098D01*
X0403392Y0349056D01*
X0403350Y0349016D01*
X0403306Y0348979D01*
X0403259Y0348945D01*
X0403211Y0348914D01*
X0403160Y0348887D01*
X0403108Y0348863D01*
X0403054Y0348843D01*
X0402999Y0348827D01*
X0402943Y0348814D01*
X0402886Y0348805D01*
X0402828Y0348800D01*
X0402771Y0348799D01*
X0403262Y0352405D02*
X0403155Y0352451D01*
X0403046Y0352494D01*
X0402936Y0352534D01*
X0402824Y0352570D01*
X0402712Y0352602D01*
X0402598Y0352631D01*
X0402484Y0352657D01*
X0402369Y0352678D01*
X0402254Y0352697D01*
X0402137Y0352711D01*
X0402021Y0352722D01*
X0401904Y0352729D01*
X0401787Y0352733D01*
X0401730Y0352732D01*
X0401672Y0352727D01*
X0401615Y0352718D01*
X0401559Y0352705D01*
X0401504Y0352689D01*
X0401450Y0352669D01*
X0401398Y0352645D01*
X0401347Y0352618D01*
X0401299Y0352587D01*
X0401252Y0352553D01*
X0401208Y0352516D01*
X0401166Y0352476D01*
X0401128Y0352434D01*
X0401092Y0352389D01*
X0401059Y0352341D01*
X0401030Y0352292D01*
X0401004Y0352241D01*
X0400981Y0352188D01*
X0400963Y0352133D01*
X0400948Y0352078D01*
X0400936Y0352021D01*
X0400929Y0351964D01*
X0400925Y0351907D01*
X0400926Y0351849D01*
X0400930Y0351792D01*
X0400938Y0351735D01*
X0400950Y0351679D01*
X0400966Y0351623D01*
X0400985Y0351569D01*
X0401008Y0351517D01*
X0401035Y0351466D01*
X0401065Y0351416D01*
X0401098Y0351369D01*
X0401134Y0351325D01*
X0401173Y0351283D01*
X0401215Y0351243D01*
X0401260Y0351207D01*
X0401307Y0351174D01*
X0401356Y0351144D01*
X0401407Y0351117D01*
X0401459Y0351094D01*
X0400968Y0349127D02*
X0401102Y0349081D01*
X0401237Y0349038D01*
X0401373Y0348999D01*
X0401510Y0348963D01*
X0401647Y0348931D01*
X0401786Y0348902D01*
X0401925Y0348876D01*
X0402065Y0348855D01*
X0402206Y0348836D01*
X0402346Y0348822D01*
X0402488Y0348811D01*
X0402629Y0348803D01*
X0402771Y0348800D01*
X0406312Y0349783D02*
X0406312Y0351750D01*
X0406314Y0351812D01*
X0406320Y0351873D01*
X0406329Y0351934D01*
X0406343Y0351994D01*
X0406360Y0352054D01*
X0406381Y0352112D01*
X0406406Y0352169D01*
X0406434Y0352224D01*
X0406465Y0352277D01*
X0406500Y0352328D01*
X0406538Y0352377D01*
X0406578Y0352423D01*
X0406622Y0352467D01*
X0406668Y0352507D01*
X0406717Y0352545D01*
X0406768Y0352580D01*
X0406821Y0352611D01*
X0406876Y0352639D01*
X0406933Y0352664D01*
X0406991Y0352685D01*
X0407051Y0352702D01*
X0407111Y0352716D01*
X0407172Y0352725D01*
X0407233Y0352731D01*
X0407295Y0352733D01*
X0408606Y0352733D01*
X0411019Y0351422D02*
X0411019Y0350111D01*
X0411020Y0350111D02*
X0411022Y0350040D01*
X0411028Y0349969D01*
X0411037Y0349899D01*
X0411051Y0349829D01*
X0411068Y0349760D01*
X0411089Y0349692D01*
X0411113Y0349626D01*
X0411141Y0349561D01*
X0411173Y0349497D01*
X0411208Y0349435D01*
X0411246Y0349375D01*
X0411287Y0349318D01*
X0411332Y0349262D01*
X0411379Y0349209D01*
X0411429Y0349159D01*
X0411482Y0349112D01*
X0411538Y0349067D01*
X0411595Y0349026D01*
X0411655Y0348988D01*
X0411717Y0348953D01*
X0411781Y0348921D01*
X0411846Y0348893D01*
X0411912Y0348869D01*
X0411980Y0348848D01*
X0412049Y0348831D01*
X0412119Y0348817D01*
X0412189Y0348808D01*
X0412260Y0348802D01*
X0412331Y0348800D01*
X0412402Y0348802D01*
X0412473Y0348808D01*
X0412543Y0348817D01*
X0412613Y0348831D01*
X0412682Y0348848D01*
X0412750Y0348869D01*
X0412816Y0348893D01*
X0412881Y0348921D01*
X0412945Y0348953D01*
X0413007Y0348988D01*
X0413067Y0349026D01*
X0413124Y0349067D01*
X0413180Y0349112D01*
X0413233Y0349159D01*
X0413283Y0349209D01*
X0413330Y0349262D01*
X0413375Y0349318D01*
X0413416Y0349375D01*
X0413454Y0349435D01*
X0413489Y0349497D01*
X0413521Y0349561D01*
X0413549Y0349626D01*
X0413573Y0349692D01*
X0413594Y0349760D01*
X0413611Y0349829D01*
X0413625Y0349899D01*
X0413634Y0349969D01*
X0413640Y0350040D01*
X0413642Y0350111D01*
X0413642Y0351422D01*
X0413640Y0351493D01*
X0413634Y0351564D01*
X0413625Y0351634D01*
X0413611Y0351704D01*
X0413594Y0351773D01*
X0413573Y0351841D01*
X0413549Y0351907D01*
X0413521Y0351972D01*
X0413489Y0352036D01*
X0413454Y0352098D01*
X0413416Y0352158D01*
X0413375Y0352215D01*
X0413330Y0352271D01*
X0413283Y0352324D01*
X0413233Y0352374D01*
X0413180Y0352421D01*
X0413124Y0352466D01*
X0413067Y0352507D01*
X0413007Y0352545D01*
X0412945Y0352580D01*
X0412881Y0352612D01*
X0412816Y0352640D01*
X0412750Y0352664D01*
X0412682Y0352685D01*
X0412613Y0352702D01*
X0412543Y0352716D01*
X0412473Y0352725D01*
X0412402Y0352731D01*
X0412331Y0352733D01*
X0412260Y0352731D01*
X0412189Y0352725D01*
X0412119Y0352716D01*
X0412049Y0352702D01*
X0411980Y0352685D01*
X0411912Y0352664D01*
X0411846Y0352640D01*
X0411781Y0352612D01*
X0411717Y0352580D01*
X0411655Y0352545D01*
X0411595Y0352507D01*
X0411538Y0352466D01*
X0411482Y0352421D01*
X0411429Y0352374D01*
X0411379Y0352324D01*
X0411332Y0352271D01*
X0411287Y0352215D01*
X0411246Y0352158D01*
X0411208Y0352098D01*
X0411173Y0352036D01*
X0411141Y0351972D01*
X0411113Y0351907D01*
X0411089Y0351841D01*
X0411068Y0351773D01*
X0411051Y0351704D01*
X0411037Y0351634D01*
X0411028Y0351564D01*
X0411022Y0351493D01*
X0411020Y0351422D01*
X0408606Y0348800D02*
X0407295Y0348800D01*
X0407233Y0348802D01*
X0407172Y0348808D01*
X0407111Y0348817D01*
X0407051Y0348831D01*
X0406991Y0348848D01*
X0406933Y0348869D01*
X0406876Y0348894D01*
X0406821Y0348922D01*
X0406768Y0348953D01*
X0406717Y0348988D01*
X0406668Y0349026D01*
X0406622Y0349066D01*
X0406578Y0349110D01*
X0406538Y0349156D01*
X0406500Y0349205D01*
X0406465Y0349256D01*
X0406434Y0349309D01*
X0406406Y0349364D01*
X0406381Y0349421D01*
X0406360Y0349479D01*
X0406343Y0349539D01*
X0406329Y0349599D01*
X0406320Y0349660D01*
X0406314Y0349721D01*
X0406312Y0349783D01*
X0416609Y0348800D02*
X0416609Y0352733D01*
X0418575Y0352733D01*
X0418575Y0352077D01*
X0420661Y0351422D02*
X0420661Y0349783D01*
X0420663Y0349721D01*
X0420669Y0349660D01*
X0420678Y0349599D01*
X0420692Y0349539D01*
X0420709Y0349479D01*
X0420730Y0349421D01*
X0420755Y0349364D01*
X0420783Y0349309D01*
X0420814Y0349256D01*
X0420849Y0349205D01*
X0420887Y0349156D01*
X0420927Y0349110D01*
X0420971Y0349066D01*
X0421017Y0349026D01*
X0421066Y0348988D01*
X0421117Y0348953D01*
X0421170Y0348922D01*
X0421225Y0348894D01*
X0421282Y0348869D01*
X0421340Y0348848D01*
X0421400Y0348831D01*
X0421460Y0348817D01*
X0421521Y0348808D01*
X0421582Y0348802D01*
X0421644Y0348800D01*
X0423283Y0348800D01*
X0423283Y0350766D02*
X0420661Y0350766D01*
X0420661Y0351422D02*
X0420663Y0351493D01*
X0420669Y0351564D01*
X0420678Y0351634D01*
X0420692Y0351704D01*
X0420709Y0351773D01*
X0420730Y0351841D01*
X0420754Y0351907D01*
X0420782Y0351972D01*
X0420814Y0352036D01*
X0420849Y0352098D01*
X0420887Y0352158D01*
X0420928Y0352215D01*
X0420973Y0352271D01*
X0421020Y0352324D01*
X0421070Y0352374D01*
X0421123Y0352421D01*
X0421179Y0352466D01*
X0421236Y0352507D01*
X0421296Y0352545D01*
X0421358Y0352580D01*
X0421422Y0352612D01*
X0421487Y0352640D01*
X0421553Y0352664D01*
X0421621Y0352685D01*
X0421690Y0352702D01*
X0421760Y0352716D01*
X0421830Y0352725D01*
X0421901Y0352731D01*
X0421972Y0352733D01*
X0422043Y0352731D01*
X0422114Y0352725D01*
X0422184Y0352716D01*
X0422254Y0352702D01*
X0422323Y0352685D01*
X0422391Y0352664D01*
X0422457Y0352640D01*
X0422522Y0352612D01*
X0422586Y0352580D01*
X0422648Y0352545D01*
X0422708Y0352507D01*
X0422765Y0352466D01*
X0422821Y0352421D01*
X0422874Y0352374D01*
X0422924Y0352324D01*
X0422971Y0352271D01*
X0423016Y0352215D01*
X0423057Y0352158D01*
X0423095Y0352098D01*
X0423130Y0352036D01*
X0423162Y0351972D01*
X0423190Y0351907D01*
X0423214Y0351841D01*
X0423235Y0351773D01*
X0423252Y0351704D01*
X0423266Y0351634D01*
X0423275Y0351564D01*
X0423281Y0351493D01*
X0423283Y0351422D01*
X0423283Y0350766D01*
X0342283Y0408800D02*
X0340644Y0408800D01*
X0340582Y0408802D01*
X0340521Y0408808D01*
X0340460Y0408817D01*
X0340400Y0408831D01*
X0340340Y0408848D01*
X0340282Y0408869D01*
X0340225Y0408894D01*
X0340170Y0408922D01*
X0340117Y0408953D01*
X0340066Y0408988D01*
X0340017Y0409026D01*
X0339971Y0409066D01*
X0339927Y0409110D01*
X0339887Y0409156D01*
X0339849Y0409205D01*
X0339814Y0409256D01*
X0339783Y0409309D01*
X0339755Y0409364D01*
X0339730Y0409421D01*
X0339709Y0409479D01*
X0339692Y0409539D01*
X0339678Y0409599D01*
X0339669Y0409660D01*
X0339663Y0409721D01*
X0339661Y0409783D01*
X0339661Y0411422D01*
X0339661Y0410766D02*
X0342283Y0410766D01*
X0342283Y0411422D01*
X0342281Y0411493D01*
X0342275Y0411564D01*
X0342266Y0411634D01*
X0342252Y0411704D01*
X0342235Y0411773D01*
X0342214Y0411841D01*
X0342190Y0411907D01*
X0342162Y0411972D01*
X0342130Y0412036D01*
X0342095Y0412098D01*
X0342057Y0412158D01*
X0342016Y0412215D01*
X0341971Y0412271D01*
X0341924Y0412324D01*
X0341874Y0412374D01*
X0341821Y0412421D01*
X0341765Y0412466D01*
X0341708Y0412507D01*
X0341648Y0412545D01*
X0341586Y0412580D01*
X0341522Y0412612D01*
X0341457Y0412640D01*
X0341391Y0412664D01*
X0341323Y0412685D01*
X0341254Y0412702D01*
X0341184Y0412716D01*
X0341114Y0412725D01*
X0341043Y0412731D01*
X0340972Y0412733D01*
X0340901Y0412731D01*
X0340830Y0412725D01*
X0340760Y0412716D01*
X0340690Y0412702D01*
X0340621Y0412685D01*
X0340553Y0412664D01*
X0340487Y0412640D01*
X0340422Y0412612D01*
X0340358Y0412580D01*
X0340296Y0412545D01*
X0340236Y0412507D01*
X0340179Y0412466D01*
X0340123Y0412421D01*
X0340070Y0412374D01*
X0340020Y0412324D01*
X0339973Y0412271D01*
X0339928Y0412215D01*
X0339887Y0412158D01*
X0339849Y0412098D01*
X0339814Y0412036D01*
X0339782Y0411972D01*
X0339754Y0411907D01*
X0339730Y0411841D01*
X0339709Y0411773D01*
X0339692Y0411704D01*
X0339678Y0411634D01*
X0339669Y0411564D01*
X0339663Y0411493D01*
X0339661Y0411422D01*
X0337575Y0412077D02*
X0337575Y0412733D01*
X0335609Y0412733D01*
X0335609Y0408800D01*
X0332642Y0410111D02*
X0332642Y0411422D01*
X0332640Y0411493D01*
X0332634Y0411564D01*
X0332625Y0411634D01*
X0332611Y0411704D01*
X0332594Y0411773D01*
X0332573Y0411841D01*
X0332549Y0411907D01*
X0332521Y0411972D01*
X0332489Y0412036D01*
X0332454Y0412098D01*
X0332416Y0412158D01*
X0332375Y0412215D01*
X0332330Y0412271D01*
X0332283Y0412324D01*
X0332233Y0412374D01*
X0332180Y0412421D01*
X0332124Y0412466D01*
X0332067Y0412507D01*
X0332007Y0412545D01*
X0331945Y0412580D01*
X0331881Y0412612D01*
X0331816Y0412640D01*
X0331750Y0412664D01*
X0331682Y0412685D01*
X0331613Y0412702D01*
X0331543Y0412716D01*
X0331473Y0412725D01*
X0331402Y0412731D01*
X0331331Y0412733D01*
X0331260Y0412731D01*
X0331189Y0412725D01*
X0331119Y0412716D01*
X0331049Y0412702D01*
X0330980Y0412685D01*
X0330912Y0412664D01*
X0330846Y0412640D01*
X0330781Y0412612D01*
X0330717Y0412580D01*
X0330655Y0412545D01*
X0330595Y0412507D01*
X0330538Y0412466D01*
X0330482Y0412421D01*
X0330429Y0412374D01*
X0330379Y0412324D01*
X0330332Y0412271D01*
X0330287Y0412215D01*
X0330246Y0412158D01*
X0330208Y0412098D01*
X0330173Y0412036D01*
X0330141Y0411972D01*
X0330113Y0411907D01*
X0330089Y0411841D01*
X0330068Y0411773D01*
X0330051Y0411704D01*
X0330037Y0411634D01*
X0330028Y0411564D01*
X0330022Y0411493D01*
X0330020Y0411422D01*
X0330019Y0411422D02*
X0330019Y0410111D01*
X0330020Y0410111D02*
X0330022Y0410040D01*
X0330028Y0409969D01*
X0330037Y0409899D01*
X0330051Y0409829D01*
X0330068Y0409760D01*
X0330089Y0409692D01*
X0330113Y0409626D01*
X0330141Y0409561D01*
X0330173Y0409497D01*
X0330208Y0409435D01*
X0330246Y0409375D01*
X0330287Y0409318D01*
X0330332Y0409262D01*
X0330379Y0409209D01*
X0330429Y0409159D01*
X0330482Y0409112D01*
X0330538Y0409067D01*
X0330595Y0409026D01*
X0330655Y0408988D01*
X0330717Y0408953D01*
X0330781Y0408921D01*
X0330846Y0408893D01*
X0330912Y0408869D01*
X0330980Y0408848D01*
X0331049Y0408831D01*
X0331119Y0408817D01*
X0331189Y0408808D01*
X0331260Y0408802D01*
X0331331Y0408800D01*
X0331402Y0408802D01*
X0331473Y0408808D01*
X0331543Y0408817D01*
X0331613Y0408831D01*
X0331682Y0408848D01*
X0331750Y0408869D01*
X0331816Y0408893D01*
X0331881Y0408921D01*
X0331945Y0408953D01*
X0332007Y0408988D01*
X0332067Y0409026D01*
X0332124Y0409067D01*
X0332180Y0409112D01*
X0332233Y0409159D01*
X0332283Y0409209D01*
X0332330Y0409262D01*
X0332375Y0409318D01*
X0332416Y0409375D01*
X0332454Y0409435D01*
X0332489Y0409497D01*
X0332521Y0409561D01*
X0332549Y0409626D01*
X0332573Y0409692D01*
X0332594Y0409760D01*
X0332611Y0409829D01*
X0332625Y0409899D01*
X0332634Y0409969D01*
X0332640Y0410040D01*
X0332642Y0410111D01*
X0327606Y0408800D02*
X0326295Y0408800D01*
X0326233Y0408802D01*
X0326172Y0408808D01*
X0326111Y0408817D01*
X0326051Y0408831D01*
X0325991Y0408848D01*
X0325933Y0408869D01*
X0325876Y0408894D01*
X0325821Y0408922D01*
X0325768Y0408953D01*
X0325717Y0408988D01*
X0325668Y0409026D01*
X0325622Y0409066D01*
X0325578Y0409110D01*
X0325538Y0409156D01*
X0325500Y0409205D01*
X0325465Y0409256D01*
X0325434Y0409309D01*
X0325406Y0409364D01*
X0325381Y0409421D01*
X0325360Y0409479D01*
X0325343Y0409539D01*
X0325329Y0409599D01*
X0325320Y0409660D01*
X0325314Y0409721D01*
X0325312Y0409783D01*
X0325312Y0411750D01*
X0325314Y0411812D01*
X0325320Y0411873D01*
X0325329Y0411934D01*
X0325343Y0411994D01*
X0325360Y0412054D01*
X0325381Y0412112D01*
X0325406Y0412169D01*
X0325434Y0412224D01*
X0325465Y0412277D01*
X0325500Y0412328D01*
X0325538Y0412377D01*
X0325578Y0412423D01*
X0325622Y0412467D01*
X0325668Y0412507D01*
X0325717Y0412545D01*
X0325768Y0412580D01*
X0325821Y0412611D01*
X0325876Y0412639D01*
X0325933Y0412664D01*
X0325991Y0412685D01*
X0326051Y0412702D01*
X0326111Y0412716D01*
X0326172Y0412725D01*
X0326233Y0412731D01*
X0326295Y0412733D01*
X0327606Y0412733D01*
X0322098Y0410438D02*
X0320460Y0411094D01*
X0320459Y0411094D02*
X0320407Y0411117D01*
X0320356Y0411144D01*
X0320307Y0411174D01*
X0320260Y0411207D01*
X0320215Y0411243D01*
X0320173Y0411283D01*
X0320134Y0411325D01*
X0320098Y0411369D01*
X0320065Y0411416D01*
X0320035Y0411466D01*
X0320008Y0411517D01*
X0319985Y0411569D01*
X0319966Y0411623D01*
X0319950Y0411679D01*
X0319938Y0411735D01*
X0319930Y0411792D01*
X0319926Y0411849D01*
X0319925Y0411907D01*
X0319929Y0411964D01*
X0319936Y0412021D01*
X0319948Y0412078D01*
X0319963Y0412133D01*
X0319981Y0412188D01*
X0320004Y0412241D01*
X0320030Y0412292D01*
X0320059Y0412341D01*
X0320092Y0412389D01*
X0320128Y0412434D01*
X0320166Y0412476D01*
X0320208Y0412516D01*
X0320252Y0412553D01*
X0320299Y0412587D01*
X0320347Y0412618D01*
X0320398Y0412645D01*
X0320450Y0412669D01*
X0320504Y0412689D01*
X0320559Y0412705D01*
X0320615Y0412718D01*
X0320672Y0412727D01*
X0320730Y0412732D01*
X0320787Y0412733D01*
X0319968Y0409127D02*
X0320102Y0409081D01*
X0320237Y0409038D01*
X0320373Y0408999D01*
X0320510Y0408963D01*
X0320647Y0408931D01*
X0320786Y0408902D01*
X0320925Y0408876D01*
X0321065Y0408855D01*
X0321206Y0408836D01*
X0321346Y0408822D01*
X0321488Y0408811D01*
X0321629Y0408803D01*
X0321771Y0408800D01*
X0321771Y0408799D02*
X0321828Y0408800D01*
X0321886Y0408805D01*
X0321943Y0408814D01*
X0321999Y0408827D01*
X0322054Y0408843D01*
X0322108Y0408863D01*
X0322160Y0408887D01*
X0322211Y0408914D01*
X0322259Y0408945D01*
X0322306Y0408979D01*
X0322350Y0409016D01*
X0322392Y0409056D01*
X0322430Y0409098D01*
X0322466Y0409143D01*
X0322499Y0409191D01*
X0322528Y0409240D01*
X0322554Y0409291D01*
X0322577Y0409344D01*
X0322595Y0409399D01*
X0322610Y0409454D01*
X0322622Y0409511D01*
X0322629Y0409568D01*
X0322633Y0409625D01*
X0322632Y0409683D01*
X0322628Y0409740D01*
X0322620Y0409797D01*
X0322608Y0409853D01*
X0322592Y0409909D01*
X0322573Y0409963D01*
X0322550Y0410015D01*
X0322523Y0410066D01*
X0322493Y0410116D01*
X0322460Y0410163D01*
X0322424Y0410207D01*
X0322385Y0410249D01*
X0322343Y0410289D01*
X0322298Y0410325D01*
X0322251Y0410358D01*
X0322202Y0410388D01*
X0322151Y0410415D01*
X0322099Y0410438D01*
X0322262Y0412405D02*
X0322155Y0412451D01*
X0322046Y0412494D01*
X0321936Y0412534D01*
X0321824Y0412570D01*
X0321712Y0412602D01*
X0321598Y0412631D01*
X0321484Y0412657D01*
X0321369Y0412678D01*
X0321254Y0412697D01*
X0321137Y0412711D01*
X0321021Y0412722D01*
X0320904Y0412729D01*
X0320787Y0412733D01*
X0317092Y0411094D02*
X0313158Y0411094D01*
X0310487Y0412733D02*
X0309176Y0408800D01*
X0307865Y0412733D01*
X0200283Y0411422D02*
X0200283Y0410766D01*
X0197661Y0410766D01*
X0197661Y0411422D02*
X0197661Y0409783D01*
X0197663Y0409721D01*
X0197669Y0409660D01*
X0197678Y0409599D01*
X0197692Y0409539D01*
X0197709Y0409479D01*
X0197730Y0409421D01*
X0197755Y0409364D01*
X0197783Y0409309D01*
X0197814Y0409256D01*
X0197849Y0409205D01*
X0197887Y0409156D01*
X0197927Y0409110D01*
X0197971Y0409066D01*
X0198017Y0409026D01*
X0198066Y0408988D01*
X0198117Y0408953D01*
X0198170Y0408922D01*
X0198225Y0408894D01*
X0198282Y0408869D01*
X0198340Y0408848D01*
X0198400Y0408831D01*
X0198460Y0408817D01*
X0198521Y0408808D01*
X0198582Y0408802D01*
X0198644Y0408800D01*
X0200283Y0408800D01*
X0200283Y0411422D02*
X0200281Y0411493D01*
X0200275Y0411564D01*
X0200266Y0411634D01*
X0200252Y0411704D01*
X0200235Y0411773D01*
X0200214Y0411841D01*
X0200190Y0411907D01*
X0200162Y0411972D01*
X0200130Y0412036D01*
X0200095Y0412098D01*
X0200057Y0412158D01*
X0200016Y0412215D01*
X0199971Y0412271D01*
X0199924Y0412324D01*
X0199874Y0412374D01*
X0199821Y0412421D01*
X0199765Y0412466D01*
X0199708Y0412507D01*
X0199648Y0412545D01*
X0199586Y0412580D01*
X0199522Y0412612D01*
X0199457Y0412640D01*
X0199391Y0412664D01*
X0199323Y0412685D01*
X0199254Y0412702D01*
X0199184Y0412716D01*
X0199114Y0412725D01*
X0199043Y0412731D01*
X0198972Y0412733D01*
X0198901Y0412731D01*
X0198830Y0412725D01*
X0198760Y0412716D01*
X0198690Y0412702D01*
X0198621Y0412685D01*
X0198553Y0412664D01*
X0198487Y0412640D01*
X0198422Y0412612D01*
X0198358Y0412580D01*
X0198296Y0412545D01*
X0198236Y0412507D01*
X0198179Y0412466D01*
X0198123Y0412421D01*
X0198070Y0412374D01*
X0198020Y0412324D01*
X0197973Y0412271D01*
X0197928Y0412215D01*
X0197887Y0412158D01*
X0197849Y0412098D01*
X0197814Y0412036D01*
X0197782Y0411972D01*
X0197754Y0411907D01*
X0197730Y0411841D01*
X0197709Y0411773D01*
X0197692Y0411704D01*
X0197678Y0411634D01*
X0197669Y0411564D01*
X0197663Y0411493D01*
X0197661Y0411422D01*
X0195575Y0412077D02*
X0195575Y0412733D01*
X0193609Y0412733D01*
X0193609Y0408800D01*
X0190642Y0410111D02*
X0190642Y0411422D01*
X0190640Y0411493D01*
X0190634Y0411564D01*
X0190625Y0411634D01*
X0190611Y0411704D01*
X0190594Y0411773D01*
X0190573Y0411841D01*
X0190549Y0411907D01*
X0190521Y0411972D01*
X0190489Y0412036D01*
X0190454Y0412098D01*
X0190416Y0412158D01*
X0190375Y0412215D01*
X0190330Y0412271D01*
X0190283Y0412324D01*
X0190233Y0412374D01*
X0190180Y0412421D01*
X0190124Y0412466D01*
X0190067Y0412507D01*
X0190007Y0412545D01*
X0189945Y0412580D01*
X0189881Y0412612D01*
X0189816Y0412640D01*
X0189750Y0412664D01*
X0189682Y0412685D01*
X0189613Y0412702D01*
X0189543Y0412716D01*
X0189473Y0412725D01*
X0189402Y0412731D01*
X0189331Y0412733D01*
X0189260Y0412731D01*
X0189189Y0412725D01*
X0189119Y0412716D01*
X0189049Y0412702D01*
X0188980Y0412685D01*
X0188912Y0412664D01*
X0188846Y0412640D01*
X0188781Y0412612D01*
X0188717Y0412580D01*
X0188655Y0412545D01*
X0188595Y0412507D01*
X0188538Y0412466D01*
X0188482Y0412421D01*
X0188429Y0412374D01*
X0188379Y0412324D01*
X0188332Y0412271D01*
X0188287Y0412215D01*
X0188246Y0412158D01*
X0188208Y0412098D01*
X0188173Y0412036D01*
X0188141Y0411972D01*
X0188113Y0411907D01*
X0188089Y0411841D01*
X0188068Y0411773D01*
X0188051Y0411704D01*
X0188037Y0411634D01*
X0188028Y0411564D01*
X0188022Y0411493D01*
X0188020Y0411422D01*
X0188020Y0410111D01*
X0188022Y0410040D01*
X0188028Y0409969D01*
X0188037Y0409899D01*
X0188051Y0409829D01*
X0188068Y0409760D01*
X0188089Y0409692D01*
X0188113Y0409626D01*
X0188141Y0409561D01*
X0188173Y0409497D01*
X0188208Y0409435D01*
X0188246Y0409375D01*
X0188287Y0409318D01*
X0188332Y0409262D01*
X0188379Y0409209D01*
X0188429Y0409159D01*
X0188482Y0409112D01*
X0188538Y0409067D01*
X0188595Y0409026D01*
X0188655Y0408988D01*
X0188717Y0408953D01*
X0188781Y0408921D01*
X0188846Y0408893D01*
X0188912Y0408869D01*
X0188980Y0408848D01*
X0189049Y0408831D01*
X0189119Y0408817D01*
X0189189Y0408808D01*
X0189260Y0408802D01*
X0189331Y0408800D01*
X0189402Y0408802D01*
X0189473Y0408808D01*
X0189543Y0408817D01*
X0189613Y0408831D01*
X0189682Y0408848D01*
X0189750Y0408869D01*
X0189816Y0408893D01*
X0189881Y0408921D01*
X0189945Y0408953D01*
X0190007Y0408988D01*
X0190067Y0409026D01*
X0190124Y0409067D01*
X0190180Y0409112D01*
X0190233Y0409159D01*
X0190283Y0409209D01*
X0190330Y0409262D01*
X0190375Y0409318D01*
X0190416Y0409375D01*
X0190454Y0409435D01*
X0190489Y0409497D01*
X0190521Y0409561D01*
X0190549Y0409626D01*
X0190573Y0409692D01*
X0190594Y0409760D01*
X0190611Y0409829D01*
X0190625Y0409899D01*
X0190634Y0409969D01*
X0190640Y0410040D01*
X0190642Y0410111D01*
X0185606Y0408800D02*
X0184295Y0408800D01*
X0184233Y0408802D01*
X0184172Y0408808D01*
X0184111Y0408817D01*
X0184051Y0408831D01*
X0183991Y0408848D01*
X0183933Y0408869D01*
X0183876Y0408894D01*
X0183821Y0408922D01*
X0183768Y0408953D01*
X0183717Y0408988D01*
X0183668Y0409026D01*
X0183622Y0409066D01*
X0183578Y0409110D01*
X0183538Y0409156D01*
X0183500Y0409205D01*
X0183465Y0409256D01*
X0183434Y0409309D01*
X0183406Y0409364D01*
X0183381Y0409421D01*
X0183360Y0409479D01*
X0183343Y0409539D01*
X0183329Y0409599D01*
X0183320Y0409660D01*
X0183314Y0409721D01*
X0183312Y0409783D01*
X0183312Y0411750D01*
X0183314Y0411812D01*
X0183320Y0411873D01*
X0183329Y0411934D01*
X0183343Y0411994D01*
X0183360Y0412054D01*
X0183381Y0412112D01*
X0183406Y0412169D01*
X0183434Y0412224D01*
X0183465Y0412277D01*
X0183500Y0412328D01*
X0183538Y0412377D01*
X0183578Y0412423D01*
X0183622Y0412467D01*
X0183668Y0412507D01*
X0183717Y0412545D01*
X0183768Y0412580D01*
X0183821Y0412611D01*
X0183876Y0412639D01*
X0183933Y0412664D01*
X0183991Y0412685D01*
X0184051Y0412702D01*
X0184111Y0412716D01*
X0184172Y0412725D01*
X0184233Y0412731D01*
X0184295Y0412733D01*
X0185606Y0412733D01*
X0180099Y0410438D02*
X0178460Y0411094D01*
X0178459Y0411094D02*
X0178407Y0411117D01*
X0178356Y0411144D01*
X0178307Y0411174D01*
X0178260Y0411207D01*
X0178215Y0411243D01*
X0178173Y0411283D01*
X0178134Y0411325D01*
X0178098Y0411369D01*
X0178065Y0411416D01*
X0178035Y0411466D01*
X0178008Y0411517D01*
X0177985Y0411569D01*
X0177966Y0411623D01*
X0177950Y0411679D01*
X0177938Y0411735D01*
X0177930Y0411792D01*
X0177926Y0411849D01*
X0177925Y0411907D01*
X0177929Y0411964D01*
X0177936Y0412021D01*
X0177948Y0412078D01*
X0177963Y0412133D01*
X0177981Y0412188D01*
X0178004Y0412241D01*
X0178030Y0412292D01*
X0178059Y0412341D01*
X0178092Y0412389D01*
X0178128Y0412434D01*
X0178166Y0412476D01*
X0178208Y0412516D01*
X0178252Y0412553D01*
X0178299Y0412587D01*
X0178347Y0412618D01*
X0178398Y0412645D01*
X0178450Y0412669D01*
X0178504Y0412689D01*
X0178559Y0412705D01*
X0178615Y0412718D01*
X0178672Y0412727D01*
X0178730Y0412732D01*
X0178787Y0412733D01*
X0177968Y0409127D02*
X0178102Y0409081D01*
X0178237Y0409038D01*
X0178373Y0408999D01*
X0178510Y0408963D01*
X0178647Y0408931D01*
X0178786Y0408902D01*
X0178925Y0408876D01*
X0179065Y0408855D01*
X0179206Y0408836D01*
X0179346Y0408822D01*
X0179488Y0408811D01*
X0179629Y0408803D01*
X0179771Y0408800D01*
X0179771Y0408799D02*
X0179828Y0408800D01*
X0179886Y0408805D01*
X0179943Y0408814D01*
X0179999Y0408827D01*
X0180054Y0408843D01*
X0180108Y0408863D01*
X0180160Y0408887D01*
X0180211Y0408914D01*
X0180259Y0408945D01*
X0180306Y0408979D01*
X0180350Y0409016D01*
X0180392Y0409056D01*
X0180430Y0409098D01*
X0180466Y0409143D01*
X0180499Y0409191D01*
X0180528Y0409240D01*
X0180554Y0409291D01*
X0180577Y0409344D01*
X0180595Y0409399D01*
X0180610Y0409454D01*
X0180622Y0409511D01*
X0180629Y0409568D01*
X0180633Y0409625D01*
X0180632Y0409683D01*
X0180628Y0409740D01*
X0180620Y0409797D01*
X0180608Y0409853D01*
X0180592Y0409909D01*
X0180573Y0409963D01*
X0180550Y0410015D01*
X0180523Y0410066D01*
X0180493Y0410116D01*
X0180460Y0410163D01*
X0180424Y0410207D01*
X0180385Y0410249D01*
X0180343Y0410289D01*
X0180298Y0410325D01*
X0180251Y0410358D01*
X0180202Y0410388D01*
X0180151Y0410415D01*
X0180099Y0410438D01*
X0180262Y0412405D02*
X0180155Y0412451D01*
X0180046Y0412494D01*
X0179936Y0412534D01*
X0179824Y0412570D01*
X0179712Y0412602D01*
X0179598Y0412631D01*
X0179484Y0412657D01*
X0179369Y0412678D01*
X0179254Y0412697D01*
X0179137Y0412711D01*
X0179021Y0412722D01*
X0178904Y0412729D01*
X0178787Y0412733D01*
X0175092Y0411094D02*
X0171159Y0411094D01*
X0168487Y0412733D02*
X0167176Y0408800D01*
X0165865Y0412733D01*
X0058283Y0411422D02*
X0058283Y0410766D01*
X0055661Y0410766D01*
X0055661Y0411422D02*
X0055661Y0409783D01*
X0055662Y0409783D02*
X0055664Y0409721D01*
X0055670Y0409660D01*
X0055679Y0409599D01*
X0055693Y0409539D01*
X0055710Y0409479D01*
X0055731Y0409421D01*
X0055756Y0409364D01*
X0055784Y0409309D01*
X0055815Y0409256D01*
X0055850Y0409205D01*
X0055888Y0409156D01*
X0055928Y0409110D01*
X0055972Y0409066D01*
X0056018Y0409026D01*
X0056067Y0408988D01*
X0056118Y0408953D01*
X0056171Y0408922D01*
X0056226Y0408894D01*
X0056283Y0408869D01*
X0056341Y0408848D01*
X0056401Y0408831D01*
X0056461Y0408817D01*
X0056522Y0408808D01*
X0056583Y0408802D01*
X0056645Y0408800D01*
X0058283Y0408800D01*
X0058283Y0411422D02*
X0058281Y0411493D01*
X0058275Y0411564D01*
X0058266Y0411634D01*
X0058252Y0411704D01*
X0058235Y0411773D01*
X0058214Y0411841D01*
X0058190Y0411907D01*
X0058162Y0411972D01*
X0058130Y0412036D01*
X0058095Y0412098D01*
X0058057Y0412158D01*
X0058016Y0412215D01*
X0057971Y0412271D01*
X0057924Y0412324D01*
X0057874Y0412374D01*
X0057821Y0412421D01*
X0057765Y0412466D01*
X0057708Y0412507D01*
X0057648Y0412545D01*
X0057586Y0412580D01*
X0057522Y0412612D01*
X0057457Y0412640D01*
X0057391Y0412664D01*
X0057323Y0412685D01*
X0057254Y0412702D01*
X0057184Y0412716D01*
X0057114Y0412725D01*
X0057043Y0412731D01*
X0056972Y0412733D01*
X0056901Y0412731D01*
X0056830Y0412725D01*
X0056760Y0412716D01*
X0056690Y0412702D01*
X0056621Y0412685D01*
X0056553Y0412664D01*
X0056487Y0412640D01*
X0056422Y0412612D01*
X0056358Y0412580D01*
X0056296Y0412545D01*
X0056236Y0412507D01*
X0056179Y0412466D01*
X0056123Y0412421D01*
X0056070Y0412374D01*
X0056020Y0412324D01*
X0055973Y0412271D01*
X0055928Y0412215D01*
X0055887Y0412158D01*
X0055849Y0412098D01*
X0055814Y0412036D01*
X0055782Y0411972D01*
X0055754Y0411907D01*
X0055730Y0411841D01*
X0055709Y0411773D01*
X0055692Y0411704D01*
X0055678Y0411634D01*
X0055669Y0411564D01*
X0055663Y0411493D01*
X0055661Y0411422D01*
X0053576Y0412077D02*
X0053576Y0412733D01*
X0051609Y0412733D01*
X0051609Y0408800D01*
X0048642Y0410111D02*
X0048642Y0411422D01*
X0048640Y0411493D01*
X0048634Y0411564D01*
X0048625Y0411634D01*
X0048611Y0411704D01*
X0048594Y0411773D01*
X0048573Y0411841D01*
X0048549Y0411907D01*
X0048521Y0411972D01*
X0048489Y0412036D01*
X0048454Y0412098D01*
X0048416Y0412158D01*
X0048375Y0412215D01*
X0048330Y0412271D01*
X0048283Y0412324D01*
X0048233Y0412374D01*
X0048180Y0412421D01*
X0048124Y0412466D01*
X0048067Y0412507D01*
X0048007Y0412545D01*
X0047945Y0412580D01*
X0047881Y0412612D01*
X0047816Y0412640D01*
X0047750Y0412664D01*
X0047682Y0412685D01*
X0047613Y0412702D01*
X0047543Y0412716D01*
X0047473Y0412725D01*
X0047402Y0412731D01*
X0047331Y0412733D01*
X0047260Y0412731D01*
X0047189Y0412725D01*
X0047119Y0412716D01*
X0047049Y0412702D01*
X0046980Y0412685D01*
X0046912Y0412664D01*
X0046846Y0412640D01*
X0046781Y0412612D01*
X0046717Y0412580D01*
X0046655Y0412545D01*
X0046595Y0412507D01*
X0046538Y0412466D01*
X0046482Y0412421D01*
X0046429Y0412374D01*
X0046379Y0412324D01*
X0046332Y0412271D01*
X0046287Y0412215D01*
X0046246Y0412158D01*
X0046208Y0412098D01*
X0046173Y0412036D01*
X0046141Y0411972D01*
X0046113Y0411907D01*
X0046089Y0411841D01*
X0046068Y0411773D01*
X0046051Y0411704D01*
X0046037Y0411634D01*
X0046028Y0411564D01*
X0046022Y0411493D01*
X0046020Y0411422D01*
X0046020Y0410111D01*
X0046022Y0410040D01*
X0046028Y0409969D01*
X0046037Y0409899D01*
X0046051Y0409829D01*
X0046068Y0409760D01*
X0046089Y0409692D01*
X0046113Y0409626D01*
X0046141Y0409561D01*
X0046173Y0409497D01*
X0046208Y0409435D01*
X0046246Y0409375D01*
X0046287Y0409318D01*
X0046332Y0409262D01*
X0046379Y0409209D01*
X0046429Y0409159D01*
X0046482Y0409112D01*
X0046538Y0409067D01*
X0046595Y0409026D01*
X0046655Y0408988D01*
X0046717Y0408953D01*
X0046781Y0408921D01*
X0046846Y0408893D01*
X0046912Y0408869D01*
X0046980Y0408848D01*
X0047049Y0408831D01*
X0047119Y0408817D01*
X0047189Y0408808D01*
X0047260Y0408802D01*
X0047331Y0408800D01*
X0047402Y0408802D01*
X0047473Y0408808D01*
X0047543Y0408817D01*
X0047613Y0408831D01*
X0047682Y0408848D01*
X0047750Y0408869D01*
X0047816Y0408893D01*
X0047881Y0408921D01*
X0047945Y0408953D01*
X0048007Y0408988D01*
X0048067Y0409026D01*
X0048124Y0409067D01*
X0048180Y0409112D01*
X0048233Y0409159D01*
X0048283Y0409209D01*
X0048330Y0409262D01*
X0048375Y0409318D01*
X0048416Y0409375D01*
X0048454Y0409435D01*
X0048489Y0409497D01*
X0048521Y0409561D01*
X0048549Y0409626D01*
X0048573Y0409692D01*
X0048594Y0409760D01*
X0048611Y0409829D01*
X0048625Y0409899D01*
X0048634Y0409969D01*
X0048640Y0410040D01*
X0048642Y0410111D01*
X0043607Y0408800D02*
X0042296Y0408800D01*
X0042234Y0408802D01*
X0042173Y0408808D01*
X0042112Y0408817D01*
X0042052Y0408831D01*
X0041992Y0408848D01*
X0041934Y0408869D01*
X0041877Y0408894D01*
X0041822Y0408922D01*
X0041769Y0408953D01*
X0041718Y0408988D01*
X0041669Y0409026D01*
X0041623Y0409066D01*
X0041579Y0409110D01*
X0041539Y0409156D01*
X0041501Y0409205D01*
X0041466Y0409256D01*
X0041435Y0409309D01*
X0041407Y0409364D01*
X0041382Y0409421D01*
X0041361Y0409479D01*
X0041344Y0409539D01*
X0041330Y0409599D01*
X0041321Y0409660D01*
X0041315Y0409721D01*
X0041313Y0409783D01*
X0041312Y0409783D02*
X0041312Y0411750D01*
X0041313Y0411750D02*
X0041315Y0411812D01*
X0041321Y0411873D01*
X0041330Y0411934D01*
X0041344Y0411994D01*
X0041361Y0412054D01*
X0041382Y0412112D01*
X0041407Y0412169D01*
X0041435Y0412224D01*
X0041466Y0412277D01*
X0041501Y0412328D01*
X0041539Y0412377D01*
X0041579Y0412423D01*
X0041623Y0412467D01*
X0041669Y0412507D01*
X0041718Y0412545D01*
X0041769Y0412580D01*
X0041822Y0412611D01*
X0041877Y0412639D01*
X0041934Y0412664D01*
X0041992Y0412685D01*
X0042052Y0412702D01*
X0042112Y0412716D01*
X0042173Y0412725D01*
X0042234Y0412731D01*
X0042296Y0412733D01*
X0043607Y0412733D01*
X0038099Y0410438D02*
X0036460Y0411094D01*
X0036408Y0411117D01*
X0036357Y0411144D01*
X0036308Y0411174D01*
X0036261Y0411207D01*
X0036216Y0411243D01*
X0036174Y0411283D01*
X0036135Y0411325D01*
X0036099Y0411369D01*
X0036066Y0411416D01*
X0036036Y0411466D01*
X0036009Y0411517D01*
X0035986Y0411569D01*
X0035967Y0411623D01*
X0035951Y0411679D01*
X0035939Y0411735D01*
X0035931Y0411792D01*
X0035927Y0411849D01*
X0035926Y0411907D01*
X0035930Y0411964D01*
X0035937Y0412021D01*
X0035949Y0412078D01*
X0035964Y0412133D01*
X0035982Y0412188D01*
X0036005Y0412241D01*
X0036031Y0412292D01*
X0036060Y0412341D01*
X0036093Y0412389D01*
X0036129Y0412434D01*
X0036167Y0412476D01*
X0036209Y0412516D01*
X0036253Y0412553D01*
X0036300Y0412587D01*
X0036348Y0412618D01*
X0036399Y0412645D01*
X0036451Y0412669D01*
X0036505Y0412689D01*
X0036560Y0412705D01*
X0036616Y0412718D01*
X0036673Y0412727D01*
X0036731Y0412732D01*
X0036788Y0412733D01*
X0035969Y0409127D02*
X0036103Y0409081D01*
X0036238Y0409038D01*
X0036374Y0408999D01*
X0036511Y0408963D01*
X0036648Y0408931D01*
X0036787Y0408902D01*
X0036926Y0408876D01*
X0037066Y0408855D01*
X0037207Y0408836D01*
X0037347Y0408822D01*
X0037489Y0408811D01*
X0037630Y0408803D01*
X0037772Y0408800D01*
X0037771Y0408799D02*
X0037828Y0408800D01*
X0037886Y0408805D01*
X0037943Y0408814D01*
X0037999Y0408827D01*
X0038054Y0408843D01*
X0038108Y0408863D01*
X0038160Y0408887D01*
X0038211Y0408914D01*
X0038259Y0408945D01*
X0038306Y0408979D01*
X0038350Y0409016D01*
X0038392Y0409056D01*
X0038430Y0409098D01*
X0038466Y0409143D01*
X0038499Y0409191D01*
X0038528Y0409240D01*
X0038554Y0409291D01*
X0038577Y0409344D01*
X0038595Y0409399D01*
X0038610Y0409454D01*
X0038622Y0409511D01*
X0038629Y0409568D01*
X0038633Y0409625D01*
X0038632Y0409683D01*
X0038628Y0409740D01*
X0038620Y0409797D01*
X0038608Y0409853D01*
X0038592Y0409909D01*
X0038573Y0409963D01*
X0038550Y0410015D01*
X0038523Y0410066D01*
X0038493Y0410116D01*
X0038460Y0410163D01*
X0038424Y0410207D01*
X0038385Y0410249D01*
X0038343Y0410289D01*
X0038298Y0410325D01*
X0038251Y0410358D01*
X0038202Y0410388D01*
X0038151Y0410415D01*
X0038099Y0410438D01*
X0038263Y0412405D02*
X0038156Y0412451D01*
X0038047Y0412494D01*
X0037937Y0412534D01*
X0037825Y0412570D01*
X0037713Y0412602D01*
X0037599Y0412631D01*
X0037485Y0412657D01*
X0037370Y0412678D01*
X0037255Y0412697D01*
X0037138Y0412711D01*
X0037022Y0412722D01*
X0036905Y0412729D01*
X0036788Y0412733D01*
X0033092Y0411094D02*
X0029159Y0411094D01*
X0026488Y0412733D02*
X0025177Y0408800D01*
X0023865Y0412733D01*
D13*
X0015074Y0026750D02*
X0015074Y0001750D01*
X0351074Y0001750D01*
X0351074Y0026750D01*
X0015074Y0026750D01*
X0015074Y0028750D02*
X0015074Y0350750D01*
X0040074Y0350750D01*
X0040074Y0028750D01*
X0015074Y0028750D01*
X0326074Y0028750D02*
X0326074Y0350750D01*
X0351074Y0350750D01*
X0351074Y0028750D01*
X0326074Y0028750D01*
X0351074Y0352750D02*
X0015074Y0352750D01*
X0015074Y0377750D01*
X0351074Y0377750D01*
X0351074Y0352750D01*
D14*
X0287574Y0340750D02*
X0287576Y0340911D01*
X0287582Y0341071D01*
X0287592Y0341232D01*
X0287606Y0341392D01*
X0287624Y0341552D01*
X0287645Y0341711D01*
X0287671Y0341870D01*
X0287701Y0342028D01*
X0287734Y0342185D01*
X0287772Y0342342D01*
X0287813Y0342497D01*
X0287858Y0342651D01*
X0287907Y0342804D01*
X0287960Y0342956D01*
X0288016Y0343107D01*
X0288077Y0343256D01*
X0288140Y0343404D01*
X0288208Y0343550D01*
X0288279Y0343694D01*
X0288353Y0343836D01*
X0288431Y0343977D01*
X0288513Y0344115D01*
X0288598Y0344252D01*
X0288686Y0344386D01*
X0288778Y0344518D01*
X0288873Y0344648D01*
X0288971Y0344776D01*
X0289072Y0344901D01*
X0289176Y0345023D01*
X0289283Y0345143D01*
X0289393Y0345260D01*
X0289506Y0345375D01*
X0289622Y0345486D01*
X0289741Y0345595D01*
X0289862Y0345700D01*
X0289986Y0345803D01*
X0290112Y0345903D01*
X0290240Y0345999D01*
X0290371Y0346092D01*
X0290505Y0346182D01*
X0290640Y0346269D01*
X0290778Y0346352D01*
X0290917Y0346432D01*
X0291059Y0346508D01*
X0291202Y0346581D01*
X0291347Y0346650D01*
X0291494Y0346716D01*
X0291642Y0346778D01*
X0291792Y0346836D01*
X0291943Y0346891D01*
X0292096Y0346942D01*
X0292250Y0346989D01*
X0292405Y0347032D01*
X0292561Y0347071D01*
X0292717Y0347107D01*
X0292875Y0347138D01*
X0293033Y0347166D01*
X0293192Y0347190D01*
X0293352Y0347210D01*
X0293512Y0347226D01*
X0293672Y0347238D01*
X0293833Y0347246D01*
X0293994Y0347250D01*
X0294154Y0347250D01*
X0294315Y0347246D01*
X0294476Y0347238D01*
X0294636Y0347226D01*
X0294796Y0347210D01*
X0294956Y0347190D01*
X0295115Y0347166D01*
X0295273Y0347138D01*
X0295431Y0347107D01*
X0295587Y0347071D01*
X0295743Y0347032D01*
X0295898Y0346989D01*
X0296052Y0346942D01*
X0296205Y0346891D01*
X0296356Y0346836D01*
X0296506Y0346778D01*
X0296654Y0346716D01*
X0296801Y0346650D01*
X0296946Y0346581D01*
X0297089Y0346508D01*
X0297231Y0346432D01*
X0297370Y0346352D01*
X0297508Y0346269D01*
X0297643Y0346182D01*
X0297777Y0346092D01*
X0297908Y0345999D01*
X0298036Y0345903D01*
X0298162Y0345803D01*
X0298286Y0345700D01*
X0298407Y0345595D01*
X0298526Y0345486D01*
X0298642Y0345375D01*
X0298755Y0345260D01*
X0298865Y0345143D01*
X0298972Y0345023D01*
X0299076Y0344901D01*
X0299177Y0344776D01*
X0299275Y0344648D01*
X0299370Y0344518D01*
X0299462Y0344386D01*
X0299550Y0344252D01*
X0299635Y0344115D01*
X0299717Y0343977D01*
X0299795Y0343836D01*
X0299869Y0343694D01*
X0299940Y0343550D01*
X0300008Y0343404D01*
X0300071Y0343256D01*
X0300132Y0343107D01*
X0300188Y0342956D01*
X0300241Y0342804D01*
X0300290Y0342651D01*
X0300335Y0342497D01*
X0300376Y0342342D01*
X0300414Y0342185D01*
X0300447Y0342028D01*
X0300477Y0341870D01*
X0300503Y0341711D01*
X0300524Y0341552D01*
X0300542Y0341392D01*
X0300556Y0341232D01*
X0300566Y0341071D01*
X0300572Y0340911D01*
X0300574Y0340750D01*
X0300572Y0340589D01*
X0300566Y0340429D01*
X0300556Y0340268D01*
X0300542Y0340108D01*
X0300524Y0339948D01*
X0300503Y0339789D01*
X0300477Y0339630D01*
X0300447Y0339472D01*
X0300414Y0339315D01*
X0300376Y0339158D01*
X0300335Y0339003D01*
X0300290Y0338849D01*
X0300241Y0338696D01*
X0300188Y0338544D01*
X0300132Y0338393D01*
X0300071Y0338244D01*
X0300008Y0338096D01*
X0299940Y0337950D01*
X0299869Y0337806D01*
X0299795Y0337664D01*
X0299717Y0337523D01*
X0299635Y0337385D01*
X0299550Y0337248D01*
X0299462Y0337114D01*
X0299370Y0336982D01*
X0299275Y0336852D01*
X0299177Y0336724D01*
X0299076Y0336599D01*
X0298972Y0336477D01*
X0298865Y0336357D01*
X0298755Y0336240D01*
X0298642Y0336125D01*
X0298526Y0336014D01*
X0298407Y0335905D01*
X0298286Y0335800D01*
X0298162Y0335697D01*
X0298036Y0335597D01*
X0297908Y0335501D01*
X0297777Y0335408D01*
X0297643Y0335318D01*
X0297508Y0335231D01*
X0297370Y0335148D01*
X0297231Y0335068D01*
X0297089Y0334992D01*
X0296946Y0334919D01*
X0296801Y0334850D01*
X0296654Y0334784D01*
X0296506Y0334722D01*
X0296356Y0334664D01*
X0296205Y0334609D01*
X0296052Y0334558D01*
X0295898Y0334511D01*
X0295743Y0334468D01*
X0295587Y0334429D01*
X0295431Y0334393D01*
X0295273Y0334362D01*
X0295115Y0334334D01*
X0294956Y0334310D01*
X0294796Y0334290D01*
X0294636Y0334274D01*
X0294476Y0334262D01*
X0294315Y0334254D01*
X0294154Y0334250D01*
X0293994Y0334250D01*
X0293833Y0334254D01*
X0293672Y0334262D01*
X0293512Y0334274D01*
X0293352Y0334290D01*
X0293192Y0334310D01*
X0293033Y0334334D01*
X0292875Y0334362D01*
X0292717Y0334393D01*
X0292561Y0334429D01*
X0292405Y0334468D01*
X0292250Y0334511D01*
X0292096Y0334558D01*
X0291943Y0334609D01*
X0291792Y0334664D01*
X0291642Y0334722D01*
X0291494Y0334784D01*
X0291347Y0334850D01*
X0291202Y0334919D01*
X0291059Y0334992D01*
X0290917Y0335068D01*
X0290778Y0335148D01*
X0290640Y0335231D01*
X0290505Y0335318D01*
X0290371Y0335408D01*
X0290240Y0335501D01*
X0290112Y0335597D01*
X0289986Y0335697D01*
X0289862Y0335800D01*
X0289741Y0335905D01*
X0289622Y0336014D01*
X0289506Y0336125D01*
X0289393Y0336240D01*
X0289283Y0336357D01*
X0289176Y0336477D01*
X0289072Y0336599D01*
X0288971Y0336724D01*
X0288873Y0336852D01*
X0288778Y0336982D01*
X0288686Y0337114D01*
X0288598Y0337248D01*
X0288513Y0337385D01*
X0288431Y0337523D01*
X0288353Y0337664D01*
X0288279Y0337806D01*
X0288208Y0337950D01*
X0288140Y0338096D01*
X0288077Y0338244D01*
X0288016Y0338393D01*
X0287960Y0338544D01*
X0287907Y0338696D01*
X0287858Y0338849D01*
X0287813Y0339003D01*
X0287772Y0339158D01*
X0287734Y0339315D01*
X0287701Y0339472D01*
X0287671Y0339630D01*
X0287645Y0339789D01*
X0287624Y0339948D01*
X0287606Y0340108D01*
X0287592Y0340268D01*
X0287582Y0340429D01*
X0287576Y0340589D01*
X0287574Y0340750D01*
X0207574Y0340750D02*
X0207576Y0340911D01*
X0207582Y0341071D01*
X0207592Y0341232D01*
X0207606Y0341392D01*
X0207624Y0341552D01*
X0207645Y0341711D01*
X0207671Y0341870D01*
X0207701Y0342028D01*
X0207734Y0342185D01*
X0207772Y0342342D01*
X0207813Y0342497D01*
X0207858Y0342651D01*
X0207907Y0342804D01*
X0207960Y0342956D01*
X0208016Y0343107D01*
X0208077Y0343256D01*
X0208140Y0343404D01*
X0208208Y0343550D01*
X0208279Y0343694D01*
X0208353Y0343836D01*
X0208431Y0343977D01*
X0208513Y0344115D01*
X0208598Y0344252D01*
X0208686Y0344386D01*
X0208778Y0344518D01*
X0208873Y0344648D01*
X0208971Y0344776D01*
X0209072Y0344901D01*
X0209176Y0345023D01*
X0209283Y0345143D01*
X0209393Y0345260D01*
X0209506Y0345375D01*
X0209622Y0345486D01*
X0209741Y0345595D01*
X0209862Y0345700D01*
X0209986Y0345803D01*
X0210112Y0345903D01*
X0210240Y0345999D01*
X0210371Y0346092D01*
X0210505Y0346182D01*
X0210640Y0346269D01*
X0210778Y0346352D01*
X0210917Y0346432D01*
X0211059Y0346508D01*
X0211202Y0346581D01*
X0211347Y0346650D01*
X0211494Y0346716D01*
X0211642Y0346778D01*
X0211792Y0346836D01*
X0211943Y0346891D01*
X0212096Y0346942D01*
X0212250Y0346989D01*
X0212405Y0347032D01*
X0212561Y0347071D01*
X0212717Y0347107D01*
X0212875Y0347138D01*
X0213033Y0347166D01*
X0213192Y0347190D01*
X0213352Y0347210D01*
X0213512Y0347226D01*
X0213672Y0347238D01*
X0213833Y0347246D01*
X0213994Y0347250D01*
X0214154Y0347250D01*
X0214315Y0347246D01*
X0214476Y0347238D01*
X0214636Y0347226D01*
X0214796Y0347210D01*
X0214956Y0347190D01*
X0215115Y0347166D01*
X0215273Y0347138D01*
X0215431Y0347107D01*
X0215587Y0347071D01*
X0215743Y0347032D01*
X0215898Y0346989D01*
X0216052Y0346942D01*
X0216205Y0346891D01*
X0216356Y0346836D01*
X0216506Y0346778D01*
X0216654Y0346716D01*
X0216801Y0346650D01*
X0216946Y0346581D01*
X0217089Y0346508D01*
X0217231Y0346432D01*
X0217370Y0346352D01*
X0217508Y0346269D01*
X0217643Y0346182D01*
X0217777Y0346092D01*
X0217908Y0345999D01*
X0218036Y0345903D01*
X0218162Y0345803D01*
X0218286Y0345700D01*
X0218407Y0345595D01*
X0218526Y0345486D01*
X0218642Y0345375D01*
X0218755Y0345260D01*
X0218865Y0345143D01*
X0218972Y0345023D01*
X0219076Y0344901D01*
X0219177Y0344776D01*
X0219275Y0344648D01*
X0219370Y0344518D01*
X0219462Y0344386D01*
X0219550Y0344252D01*
X0219635Y0344115D01*
X0219717Y0343977D01*
X0219795Y0343836D01*
X0219869Y0343694D01*
X0219940Y0343550D01*
X0220008Y0343404D01*
X0220071Y0343256D01*
X0220132Y0343107D01*
X0220188Y0342956D01*
X0220241Y0342804D01*
X0220290Y0342651D01*
X0220335Y0342497D01*
X0220376Y0342342D01*
X0220414Y0342185D01*
X0220447Y0342028D01*
X0220477Y0341870D01*
X0220503Y0341711D01*
X0220524Y0341552D01*
X0220542Y0341392D01*
X0220556Y0341232D01*
X0220566Y0341071D01*
X0220572Y0340911D01*
X0220574Y0340750D01*
X0220572Y0340589D01*
X0220566Y0340429D01*
X0220556Y0340268D01*
X0220542Y0340108D01*
X0220524Y0339948D01*
X0220503Y0339789D01*
X0220477Y0339630D01*
X0220447Y0339472D01*
X0220414Y0339315D01*
X0220376Y0339158D01*
X0220335Y0339003D01*
X0220290Y0338849D01*
X0220241Y0338696D01*
X0220188Y0338544D01*
X0220132Y0338393D01*
X0220071Y0338244D01*
X0220008Y0338096D01*
X0219940Y0337950D01*
X0219869Y0337806D01*
X0219795Y0337664D01*
X0219717Y0337523D01*
X0219635Y0337385D01*
X0219550Y0337248D01*
X0219462Y0337114D01*
X0219370Y0336982D01*
X0219275Y0336852D01*
X0219177Y0336724D01*
X0219076Y0336599D01*
X0218972Y0336477D01*
X0218865Y0336357D01*
X0218755Y0336240D01*
X0218642Y0336125D01*
X0218526Y0336014D01*
X0218407Y0335905D01*
X0218286Y0335800D01*
X0218162Y0335697D01*
X0218036Y0335597D01*
X0217908Y0335501D01*
X0217777Y0335408D01*
X0217643Y0335318D01*
X0217508Y0335231D01*
X0217370Y0335148D01*
X0217231Y0335068D01*
X0217089Y0334992D01*
X0216946Y0334919D01*
X0216801Y0334850D01*
X0216654Y0334784D01*
X0216506Y0334722D01*
X0216356Y0334664D01*
X0216205Y0334609D01*
X0216052Y0334558D01*
X0215898Y0334511D01*
X0215743Y0334468D01*
X0215587Y0334429D01*
X0215431Y0334393D01*
X0215273Y0334362D01*
X0215115Y0334334D01*
X0214956Y0334310D01*
X0214796Y0334290D01*
X0214636Y0334274D01*
X0214476Y0334262D01*
X0214315Y0334254D01*
X0214154Y0334250D01*
X0213994Y0334250D01*
X0213833Y0334254D01*
X0213672Y0334262D01*
X0213512Y0334274D01*
X0213352Y0334290D01*
X0213192Y0334310D01*
X0213033Y0334334D01*
X0212875Y0334362D01*
X0212717Y0334393D01*
X0212561Y0334429D01*
X0212405Y0334468D01*
X0212250Y0334511D01*
X0212096Y0334558D01*
X0211943Y0334609D01*
X0211792Y0334664D01*
X0211642Y0334722D01*
X0211494Y0334784D01*
X0211347Y0334850D01*
X0211202Y0334919D01*
X0211059Y0334992D01*
X0210917Y0335068D01*
X0210778Y0335148D01*
X0210640Y0335231D01*
X0210505Y0335318D01*
X0210371Y0335408D01*
X0210240Y0335501D01*
X0210112Y0335597D01*
X0209986Y0335697D01*
X0209862Y0335800D01*
X0209741Y0335905D01*
X0209622Y0336014D01*
X0209506Y0336125D01*
X0209393Y0336240D01*
X0209283Y0336357D01*
X0209176Y0336477D01*
X0209072Y0336599D01*
X0208971Y0336724D01*
X0208873Y0336852D01*
X0208778Y0336982D01*
X0208686Y0337114D01*
X0208598Y0337248D01*
X0208513Y0337385D01*
X0208431Y0337523D01*
X0208353Y0337664D01*
X0208279Y0337806D01*
X0208208Y0337950D01*
X0208140Y0338096D01*
X0208077Y0338244D01*
X0208016Y0338393D01*
X0207960Y0338544D01*
X0207907Y0338696D01*
X0207858Y0338849D01*
X0207813Y0339003D01*
X0207772Y0339158D01*
X0207734Y0339315D01*
X0207701Y0339472D01*
X0207671Y0339630D01*
X0207645Y0339789D01*
X0207624Y0339948D01*
X0207606Y0340108D01*
X0207592Y0340268D01*
X0207582Y0340429D01*
X0207576Y0340589D01*
X0207574Y0340750D01*
X0145574Y0340750D02*
X0145576Y0340911D01*
X0145582Y0341071D01*
X0145592Y0341232D01*
X0145606Y0341392D01*
X0145624Y0341552D01*
X0145645Y0341711D01*
X0145671Y0341870D01*
X0145701Y0342028D01*
X0145734Y0342185D01*
X0145772Y0342342D01*
X0145813Y0342497D01*
X0145858Y0342651D01*
X0145907Y0342804D01*
X0145960Y0342956D01*
X0146016Y0343107D01*
X0146077Y0343256D01*
X0146140Y0343404D01*
X0146208Y0343550D01*
X0146279Y0343694D01*
X0146353Y0343836D01*
X0146431Y0343977D01*
X0146513Y0344115D01*
X0146598Y0344252D01*
X0146686Y0344386D01*
X0146778Y0344518D01*
X0146873Y0344648D01*
X0146971Y0344776D01*
X0147072Y0344901D01*
X0147176Y0345023D01*
X0147283Y0345143D01*
X0147393Y0345260D01*
X0147506Y0345375D01*
X0147622Y0345486D01*
X0147741Y0345595D01*
X0147862Y0345700D01*
X0147986Y0345803D01*
X0148112Y0345903D01*
X0148240Y0345999D01*
X0148371Y0346092D01*
X0148505Y0346182D01*
X0148640Y0346269D01*
X0148778Y0346352D01*
X0148917Y0346432D01*
X0149059Y0346508D01*
X0149202Y0346581D01*
X0149347Y0346650D01*
X0149494Y0346716D01*
X0149642Y0346778D01*
X0149792Y0346836D01*
X0149943Y0346891D01*
X0150096Y0346942D01*
X0150250Y0346989D01*
X0150405Y0347032D01*
X0150561Y0347071D01*
X0150717Y0347107D01*
X0150875Y0347138D01*
X0151033Y0347166D01*
X0151192Y0347190D01*
X0151352Y0347210D01*
X0151512Y0347226D01*
X0151672Y0347238D01*
X0151833Y0347246D01*
X0151994Y0347250D01*
X0152154Y0347250D01*
X0152315Y0347246D01*
X0152476Y0347238D01*
X0152636Y0347226D01*
X0152796Y0347210D01*
X0152956Y0347190D01*
X0153115Y0347166D01*
X0153273Y0347138D01*
X0153431Y0347107D01*
X0153587Y0347071D01*
X0153743Y0347032D01*
X0153898Y0346989D01*
X0154052Y0346942D01*
X0154205Y0346891D01*
X0154356Y0346836D01*
X0154506Y0346778D01*
X0154654Y0346716D01*
X0154801Y0346650D01*
X0154946Y0346581D01*
X0155089Y0346508D01*
X0155231Y0346432D01*
X0155370Y0346352D01*
X0155508Y0346269D01*
X0155643Y0346182D01*
X0155777Y0346092D01*
X0155908Y0345999D01*
X0156036Y0345903D01*
X0156162Y0345803D01*
X0156286Y0345700D01*
X0156407Y0345595D01*
X0156526Y0345486D01*
X0156642Y0345375D01*
X0156755Y0345260D01*
X0156865Y0345143D01*
X0156972Y0345023D01*
X0157076Y0344901D01*
X0157177Y0344776D01*
X0157275Y0344648D01*
X0157370Y0344518D01*
X0157462Y0344386D01*
X0157550Y0344252D01*
X0157635Y0344115D01*
X0157717Y0343977D01*
X0157795Y0343836D01*
X0157869Y0343694D01*
X0157940Y0343550D01*
X0158008Y0343404D01*
X0158071Y0343256D01*
X0158132Y0343107D01*
X0158188Y0342956D01*
X0158241Y0342804D01*
X0158290Y0342651D01*
X0158335Y0342497D01*
X0158376Y0342342D01*
X0158414Y0342185D01*
X0158447Y0342028D01*
X0158477Y0341870D01*
X0158503Y0341711D01*
X0158524Y0341552D01*
X0158542Y0341392D01*
X0158556Y0341232D01*
X0158566Y0341071D01*
X0158572Y0340911D01*
X0158574Y0340750D01*
X0158572Y0340589D01*
X0158566Y0340429D01*
X0158556Y0340268D01*
X0158542Y0340108D01*
X0158524Y0339948D01*
X0158503Y0339789D01*
X0158477Y0339630D01*
X0158447Y0339472D01*
X0158414Y0339315D01*
X0158376Y0339158D01*
X0158335Y0339003D01*
X0158290Y0338849D01*
X0158241Y0338696D01*
X0158188Y0338544D01*
X0158132Y0338393D01*
X0158071Y0338244D01*
X0158008Y0338096D01*
X0157940Y0337950D01*
X0157869Y0337806D01*
X0157795Y0337664D01*
X0157717Y0337523D01*
X0157635Y0337385D01*
X0157550Y0337248D01*
X0157462Y0337114D01*
X0157370Y0336982D01*
X0157275Y0336852D01*
X0157177Y0336724D01*
X0157076Y0336599D01*
X0156972Y0336477D01*
X0156865Y0336357D01*
X0156755Y0336240D01*
X0156642Y0336125D01*
X0156526Y0336014D01*
X0156407Y0335905D01*
X0156286Y0335800D01*
X0156162Y0335697D01*
X0156036Y0335597D01*
X0155908Y0335501D01*
X0155777Y0335408D01*
X0155643Y0335318D01*
X0155508Y0335231D01*
X0155370Y0335148D01*
X0155231Y0335068D01*
X0155089Y0334992D01*
X0154946Y0334919D01*
X0154801Y0334850D01*
X0154654Y0334784D01*
X0154506Y0334722D01*
X0154356Y0334664D01*
X0154205Y0334609D01*
X0154052Y0334558D01*
X0153898Y0334511D01*
X0153743Y0334468D01*
X0153587Y0334429D01*
X0153431Y0334393D01*
X0153273Y0334362D01*
X0153115Y0334334D01*
X0152956Y0334310D01*
X0152796Y0334290D01*
X0152636Y0334274D01*
X0152476Y0334262D01*
X0152315Y0334254D01*
X0152154Y0334250D01*
X0151994Y0334250D01*
X0151833Y0334254D01*
X0151672Y0334262D01*
X0151512Y0334274D01*
X0151352Y0334290D01*
X0151192Y0334310D01*
X0151033Y0334334D01*
X0150875Y0334362D01*
X0150717Y0334393D01*
X0150561Y0334429D01*
X0150405Y0334468D01*
X0150250Y0334511D01*
X0150096Y0334558D01*
X0149943Y0334609D01*
X0149792Y0334664D01*
X0149642Y0334722D01*
X0149494Y0334784D01*
X0149347Y0334850D01*
X0149202Y0334919D01*
X0149059Y0334992D01*
X0148917Y0335068D01*
X0148778Y0335148D01*
X0148640Y0335231D01*
X0148505Y0335318D01*
X0148371Y0335408D01*
X0148240Y0335501D01*
X0148112Y0335597D01*
X0147986Y0335697D01*
X0147862Y0335800D01*
X0147741Y0335905D01*
X0147622Y0336014D01*
X0147506Y0336125D01*
X0147393Y0336240D01*
X0147283Y0336357D01*
X0147176Y0336477D01*
X0147072Y0336599D01*
X0146971Y0336724D01*
X0146873Y0336852D01*
X0146778Y0336982D01*
X0146686Y0337114D01*
X0146598Y0337248D01*
X0146513Y0337385D01*
X0146431Y0337523D01*
X0146353Y0337664D01*
X0146279Y0337806D01*
X0146208Y0337950D01*
X0146140Y0338096D01*
X0146077Y0338244D01*
X0146016Y0338393D01*
X0145960Y0338544D01*
X0145907Y0338696D01*
X0145858Y0338849D01*
X0145813Y0339003D01*
X0145772Y0339158D01*
X0145734Y0339315D01*
X0145701Y0339472D01*
X0145671Y0339630D01*
X0145645Y0339789D01*
X0145624Y0339948D01*
X0145606Y0340108D01*
X0145592Y0340268D01*
X0145582Y0340429D01*
X0145576Y0340589D01*
X0145574Y0340750D01*
X0065574Y0340750D02*
X0065576Y0340911D01*
X0065582Y0341071D01*
X0065592Y0341232D01*
X0065606Y0341392D01*
X0065624Y0341552D01*
X0065645Y0341711D01*
X0065671Y0341870D01*
X0065701Y0342028D01*
X0065734Y0342185D01*
X0065772Y0342342D01*
X0065813Y0342497D01*
X0065858Y0342651D01*
X0065907Y0342804D01*
X0065960Y0342956D01*
X0066016Y0343107D01*
X0066077Y0343256D01*
X0066140Y0343404D01*
X0066208Y0343550D01*
X0066279Y0343694D01*
X0066353Y0343836D01*
X0066431Y0343977D01*
X0066513Y0344115D01*
X0066598Y0344252D01*
X0066686Y0344386D01*
X0066778Y0344518D01*
X0066873Y0344648D01*
X0066971Y0344776D01*
X0067072Y0344901D01*
X0067176Y0345023D01*
X0067283Y0345143D01*
X0067393Y0345260D01*
X0067506Y0345375D01*
X0067622Y0345486D01*
X0067741Y0345595D01*
X0067862Y0345700D01*
X0067986Y0345803D01*
X0068112Y0345903D01*
X0068240Y0345999D01*
X0068371Y0346092D01*
X0068505Y0346182D01*
X0068640Y0346269D01*
X0068778Y0346352D01*
X0068917Y0346432D01*
X0069059Y0346508D01*
X0069202Y0346581D01*
X0069347Y0346650D01*
X0069494Y0346716D01*
X0069642Y0346778D01*
X0069792Y0346836D01*
X0069943Y0346891D01*
X0070096Y0346942D01*
X0070250Y0346989D01*
X0070405Y0347032D01*
X0070561Y0347071D01*
X0070717Y0347107D01*
X0070875Y0347138D01*
X0071033Y0347166D01*
X0071192Y0347190D01*
X0071352Y0347210D01*
X0071512Y0347226D01*
X0071672Y0347238D01*
X0071833Y0347246D01*
X0071994Y0347250D01*
X0072154Y0347250D01*
X0072315Y0347246D01*
X0072476Y0347238D01*
X0072636Y0347226D01*
X0072796Y0347210D01*
X0072956Y0347190D01*
X0073115Y0347166D01*
X0073273Y0347138D01*
X0073431Y0347107D01*
X0073587Y0347071D01*
X0073743Y0347032D01*
X0073898Y0346989D01*
X0074052Y0346942D01*
X0074205Y0346891D01*
X0074356Y0346836D01*
X0074506Y0346778D01*
X0074654Y0346716D01*
X0074801Y0346650D01*
X0074946Y0346581D01*
X0075089Y0346508D01*
X0075231Y0346432D01*
X0075370Y0346352D01*
X0075508Y0346269D01*
X0075643Y0346182D01*
X0075777Y0346092D01*
X0075908Y0345999D01*
X0076036Y0345903D01*
X0076162Y0345803D01*
X0076286Y0345700D01*
X0076407Y0345595D01*
X0076526Y0345486D01*
X0076642Y0345375D01*
X0076755Y0345260D01*
X0076865Y0345143D01*
X0076972Y0345023D01*
X0077076Y0344901D01*
X0077177Y0344776D01*
X0077275Y0344648D01*
X0077370Y0344518D01*
X0077462Y0344386D01*
X0077550Y0344252D01*
X0077635Y0344115D01*
X0077717Y0343977D01*
X0077795Y0343836D01*
X0077869Y0343694D01*
X0077940Y0343550D01*
X0078008Y0343404D01*
X0078071Y0343256D01*
X0078132Y0343107D01*
X0078188Y0342956D01*
X0078241Y0342804D01*
X0078290Y0342651D01*
X0078335Y0342497D01*
X0078376Y0342342D01*
X0078414Y0342185D01*
X0078447Y0342028D01*
X0078477Y0341870D01*
X0078503Y0341711D01*
X0078524Y0341552D01*
X0078542Y0341392D01*
X0078556Y0341232D01*
X0078566Y0341071D01*
X0078572Y0340911D01*
X0078574Y0340750D01*
X0078572Y0340589D01*
X0078566Y0340429D01*
X0078556Y0340268D01*
X0078542Y0340108D01*
X0078524Y0339948D01*
X0078503Y0339789D01*
X0078477Y0339630D01*
X0078447Y0339472D01*
X0078414Y0339315D01*
X0078376Y0339158D01*
X0078335Y0339003D01*
X0078290Y0338849D01*
X0078241Y0338696D01*
X0078188Y0338544D01*
X0078132Y0338393D01*
X0078071Y0338244D01*
X0078008Y0338096D01*
X0077940Y0337950D01*
X0077869Y0337806D01*
X0077795Y0337664D01*
X0077717Y0337523D01*
X0077635Y0337385D01*
X0077550Y0337248D01*
X0077462Y0337114D01*
X0077370Y0336982D01*
X0077275Y0336852D01*
X0077177Y0336724D01*
X0077076Y0336599D01*
X0076972Y0336477D01*
X0076865Y0336357D01*
X0076755Y0336240D01*
X0076642Y0336125D01*
X0076526Y0336014D01*
X0076407Y0335905D01*
X0076286Y0335800D01*
X0076162Y0335697D01*
X0076036Y0335597D01*
X0075908Y0335501D01*
X0075777Y0335408D01*
X0075643Y0335318D01*
X0075508Y0335231D01*
X0075370Y0335148D01*
X0075231Y0335068D01*
X0075089Y0334992D01*
X0074946Y0334919D01*
X0074801Y0334850D01*
X0074654Y0334784D01*
X0074506Y0334722D01*
X0074356Y0334664D01*
X0074205Y0334609D01*
X0074052Y0334558D01*
X0073898Y0334511D01*
X0073743Y0334468D01*
X0073587Y0334429D01*
X0073431Y0334393D01*
X0073273Y0334362D01*
X0073115Y0334334D01*
X0072956Y0334310D01*
X0072796Y0334290D01*
X0072636Y0334274D01*
X0072476Y0334262D01*
X0072315Y0334254D01*
X0072154Y0334250D01*
X0071994Y0334250D01*
X0071833Y0334254D01*
X0071672Y0334262D01*
X0071512Y0334274D01*
X0071352Y0334290D01*
X0071192Y0334310D01*
X0071033Y0334334D01*
X0070875Y0334362D01*
X0070717Y0334393D01*
X0070561Y0334429D01*
X0070405Y0334468D01*
X0070250Y0334511D01*
X0070096Y0334558D01*
X0069943Y0334609D01*
X0069792Y0334664D01*
X0069642Y0334722D01*
X0069494Y0334784D01*
X0069347Y0334850D01*
X0069202Y0334919D01*
X0069059Y0334992D01*
X0068917Y0335068D01*
X0068778Y0335148D01*
X0068640Y0335231D01*
X0068505Y0335318D01*
X0068371Y0335408D01*
X0068240Y0335501D01*
X0068112Y0335597D01*
X0067986Y0335697D01*
X0067862Y0335800D01*
X0067741Y0335905D01*
X0067622Y0336014D01*
X0067506Y0336125D01*
X0067393Y0336240D01*
X0067283Y0336357D01*
X0067176Y0336477D01*
X0067072Y0336599D01*
X0066971Y0336724D01*
X0066873Y0336852D01*
X0066778Y0336982D01*
X0066686Y0337114D01*
X0066598Y0337248D01*
X0066513Y0337385D01*
X0066431Y0337523D01*
X0066353Y0337664D01*
X0066279Y0337806D01*
X0066208Y0337950D01*
X0066140Y0338096D01*
X0066077Y0338244D01*
X0066016Y0338393D01*
X0065960Y0338544D01*
X0065907Y0338696D01*
X0065858Y0338849D01*
X0065813Y0339003D01*
X0065772Y0339158D01*
X0065734Y0339315D01*
X0065701Y0339472D01*
X0065671Y0339630D01*
X0065645Y0339789D01*
X0065624Y0339948D01*
X0065606Y0340108D01*
X0065592Y0340268D01*
X0065582Y0340429D01*
X0065576Y0340589D01*
X0065574Y0340750D01*
X0065574Y0200750D02*
X0065576Y0200911D01*
X0065582Y0201071D01*
X0065592Y0201232D01*
X0065606Y0201392D01*
X0065624Y0201552D01*
X0065645Y0201711D01*
X0065671Y0201870D01*
X0065701Y0202028D01*
X0065734Y0202185D01*
X0065772Y0202342D01*
X0065813Y0202497D01*
X0065858Y0202651D01*
X0065907Y0202804D01*
X0065960Y0202956D01*
X0066016Y0203107D01*
X0066077Y0203256D01*
X0066140Y0203404D01*
X0066208Y0203550D01*
X0066279Y0203694D01*
X0066353Y0203836D01*
X0066431Y0203977D01*
X0066513Y0204115D01*
X0066598Y0204252D01*
X0066686Y0204386D01*
X0066778Y0204518D01*
X0066873Y0204648D01*
X0066971Y0204776D01*
X0067072Y0204901D01*
X0067176Y0205023D01*
X0067283Y0205143D01*
X0067393Y0205260D01*
X0067506Y0205375D01*
X0067622Y0205486D01*
X0067741Y0205595D01*
X0067862Y0205700D01*
X0067986Y0205803D01*
X0068112Y0205903D01*
X0068240Y0205999D01*
X0068371Y0206092D01*
X0068505Y0206182D01*
X0068640Y0206269D01*
X0068778Y0206352D01*
X0068917Y0206432D01*
X0069059Y0206508D01*
X0069202Y0206581D01*
X0069347Y0206650D01*
X0069494Y0206716D01*
X0069642Y0206778D01*
X0069792Y0206836D01*
X0069943Y0206891D01*
X0070096Y0206942D01*
X0070250Y0206989D01*
X0070405Y0207032D01*
X0070561Y0207071D01*
X0070717Y0207107D01*
X0070875Y0207138D01*
X0071033Y0207166D01*
X0071192Y0207190D01*
X0071352Y0207210D01*
X0071512Y0207226D01*
X0071672Y0207238D01*
X0071833Y0207246D01*
X0071994Y0207250D01*
X0072154Y0207250D01*
X0072315Y0207246D01*
X0072476Y0207238D01*
X0072636Y0207226D01*
X0072796Y0207210D01*
X0072956Y0207190D01*
X0073115Y0207166D01*
X0073273Y0207138D01*
X0073431Y0207107D01*
X0073587Y0207071D01*
X0073743Y0207032D01*
X0073898Y0206989D01*
X0074052Y0206942D01*
X0074205Y0206891D01*
X0074356Y0206836D01*
X0074506Y0206778D01*
X0074654Y0206716D01*
X0074801Y0206650D01*
X0074946Y0206581D01*
X0075089Y0206508D01*
X0075231Y0206432D01*
X0075370Y0206352D01*
X0075508Y0206269D01*
X0075643Y0206182D01*
X0075777Y0206092D01*
X0075908Y0205999D01*
X0076036Y0205903D01*
X0076162Y0205803D01*
X0076286Y0205700D01*
X0076407Y0205595D01*
X0076526Y0205486D01*
X0076642Y0205375D01*
X0076755Y0205260D01*
X0076865Y0205143D01*
X0076972Y0205023D01*
X0077076Y0204901D01*
X0077177Y0204776D01*
X0077275Y0204648D01*
X0077370Y0204518D01*
X0077462Y0204386D01*
X0077550Y0204252D01*
X0077635Y0204115D01*
X0077717Y0203977D01*
X0077795Y0203836D01*
X0077869Y0203694D01*
X0077940Y0203550D01*
X0078008Y0203404D01*
X0078071Y0203256D01*
X0078132Y0203107D01*
X0078188Y0202956D01*
X0078241Y0202804D01*
X0078290Y0202651D01*
X0078335Y0202497D01*
X0078376Y0202342D01*
X0078414Y0202185D01*
X0078447Y0202028D01*
X0078477Y0201870D01*
X0078503Y0201711D01*
X0078524Y0201552D01*
X0078542Y0201392D01*
X0078556Y0201232D01*
X0078566Y0201071D01*
X0078572Y0200911D01*
X0078574Y0200750D01*
X0078572Y0200589D01*
X0078566Y0200429D01*
X0078556Y0200268D01*
X0078542Y0200108D01*
X0078524Y0199948D01*
X0078503Y0199789D01*
X0078477Y0199630D01*
X0078447Y0199472D01*
X0078414Y0199315D01*
X0078376Y0199158D01*
X0078335Y0199003D01*
X0078290Y0198849D01*
X0078241Y0198696D01*
X0078188Y0198544D01*
X0078132Y0198393D01*
X0078071Y0198244D01*
X0078008Y0198096D01*
X0077940Y0197950D01*
X0077869Y0197806D01*
X0077795Y0197664D01*
X0077717Y0197523D01*
X0077635Y0197385D01*
X0077550Y0197248D01*
X0077462Y0197114D01*
X0077370Y0196982D01*
X0077275Y0196852D01*
X0077177Y0196724D01*
X0077076Y0196599D01*
X0076972Y0196477D01*
X0076865Y0196357D01*
X0076755Y0196240D01*
X0076642Y0196125D01*
X0076526Y0196014D01*
X0076407Y0195905D01*
X0076286Y0195800D01*
X0076162Y0195697D01*
X0076036Y0195597D01*
X0075908Y0195501D01*
X0075777Y0195408D01*
X0075643Y0195318D01*
X0075508Y0195231D01*
X0075370Y0195148D01*
X0075231Y0195068D01*
X0075089Y0194992D01*
X0074946Y0194919D01*
X0074801Y0194850D01*
X0074654Y0194784D01*
X0074506Y0194722D01*
X0074356Y0194664D01*
X0074205Y0194609D01*
X0074052Y0194558D01*
X0073898Y0194511D01*
X0073743Y0194468D01*
X0073587Y0194429D01*
X0073431Y0194393D01*
X0073273Y0194362D01*
X0073115Y0194334D01*
X0072956Y0194310D01*
X0072796Y0194290D01*
X0072636Y0194274D01*
X0072476Y0194262D01*
X0072315Y0194254D01*
X0072154Y0194250D01*
X0071994Y0194250D01*
X0071833Y0194254D01*
X0071672Y0194262D01*
X0071512Y0194274D01*
X0071352Y0194290D01*
X0071192Y0194310D01*
X0071033Y0194334D01*
X0070875Y0194362D01*
X0070717Y0194393D01*
X0070561Y0194429D01*
X0070405Y0194468D01*
X0070250Y0194511D01*
X0070096Y0194558D01*
X0069943Y0194609D01*
X0069792Y0194664D01*
X0069642Y0194722D01*
X0069494Y0194784D01*
X0069347Y0194850D01*
X0069202Y0194919D01*
X0069059Y0194992D01*
X0068917Y0195068D01*
X0068778Y0195148D01*
X0068640Y0195231D01*
X0068505Y0195318D01*
X0068371Y0195408D01*
X0068240Y0195501D01*
X0068112Y0195597D01*
X0067986Y0195697D01*
X0067862Y0195800D01*
X0067741Y0195905D01*
X0067622Y0196014D01*
X0067506Y0196125D01*
X0067393Y0196240D01*
X0067283Y0196357D01*
X0067176Y0196477D01*
X0067072Y0196599D01*
X0066971Y0196724D01*
X0066873Y0196852D01*
X0066778Y0196982D01*
X0066686Y0197114D01*
X0066598Y0197248D01*
X0066513Y0197385D01*
X0066431Y0197523D01*
X0066353Y0197664D01*
X0066279Y0197806D01*
X0066208Y0197950D01*
X0066140Y0198096D01*
X0066077Y0198244D01*
X0066016Y0198393D01*
X0065960Y0198544D01*
X0065907Y0198696D01*
X0065858Y0198849D01*
X0065813Y0199003D01*
X0065772Y0199158D01*
X0065734Y0199315D01*
X0065701Y0199472D01*
X0065671Y0199630D01*
X0065645Y0199789D01*
X0065624Y0199948D01*
X0065606Y0200108D01*
X0065592Y0200268D01*
X0065582Y0200429D01*
X0065576Y0200589D01*
X0065574Y0200750D01*
X0065574Y0178750D02*
X0065576Y0178911D01*
X0065582Y0179071D01*
X0065592Y0179232D01*
X0065606Y0179392D01*
X0065624Y0179552D01*
X0065645Y0179711D01*
X0065671Y0179870D01*
X0065701Y0180028D01*
X0065734Y0180185D01*
X0065772Y0180342D01*
X0065813Y0180497D01*
X0065858Y0180651D01*
X0065907Y0180804D01*
X0065960Y0180956D01*
X0066016Y0181107D01*
X0066077Y0181256D01*
X0066140Y0181404D01*
X0066208Y0181550D01*
X0066279Y0181694D01*
X0066353Y0181836D01*
X0066431Y0181977D01*
X0066513Y0182115D01*
X0066598Y0182252D01*
X0066686Y0182386D01*
X0066778Y0182518D01*
X0066873Y0182648D01*
X0066971Y0182776D01*
X0067072Y0182901D01*
X0067176Y0183023D01*
X0067283Y0183143D01*
X0067393Y0183260D01*
X0067506Y0183375D01*
X0067622Y0183486D01*
X0067741Y0183595D01*
X0067862Y0183700D01*
X0067986Y0183803D01*
X0068112Y0183903D01*
X0068240Y0183999D01*
X0068371Y0184092D01*
X0068505Y0184182D01*
X0068640Y0184269D01*
X0068778Y0184352D01*
X0068917Y0184432D01*
X0069059Y0184508D01*
X0069202Y0184581D01*
X0069347Y0184650D01*
X0069494Y0184716D01*
X0069642Y0184778D01*
X0069792Y0184836D01*
X0069943Y0184891D01*
X0070096Y0184942D01*
X0070250Y0184989D01*
X0070405Y0185032D01*
X0070561Y0185071D01*
X0070717Y0185107D01*
X0070875Y0185138D01*
X0071033Y0185166D01*
X0071192Y0185190D01*
X0071352Y0185210D01*
X0071512Y0185226D01*
X0071672Y0185238D01*
X0071833Y0185246D01*
X0071994Y0185250D01*
X0072154Y0185250D01*
X0072315Y0185246D01*
X0072476Y0185238D01*
X0072636Y0185226D01*
X0072796Y0185210D01*
X0072956Y0185190D01*
X0073115Y0185166D01*
X0073273Y0185138D01*
X0073431Y0185107D01*
X0073587Y0185071D01*
X0073743Y0185032D01*
X0073898Y0184989D01*
X0074052Y0184942D01*
X0074205Y0184891D01*
X0074356Y0184836D01*
X0074506Y0184778D01*
X0074654Y0184716D01*
X0074801Y0184650D01*
X0074946Y0184581D01*
X0075089Y0184508D01*
X0075231Y0184432D01*
X0075370Y0184352D01*
X0075508Y0184269D01*
X0075643Y0184182D01*
X0075777Y0184092D01*
X0075908Y0183999D01*
X0076036Y0183903D01*
X0076162Y0183803D01*
X0076286Y0183700D01*
X0076407Y0183595D01*
X0076526Y0183486D01*
X0076642Y0183375D01*
X0076755Y0183260D01*
X0076865Y0183143D01*
X0076972Y0183023D01*
X0077076Y0182901D01*
X0077177Y0182776D01*
X0077275Y0182648D01*
X0077370Y0182518D01*
X0077462Y0182386D01*
X0077550Y0182252D01*
X0077635Y0182115D01*
X0077717Y0181977D01*
X0077795Y0181836D01*
X0077869Y0181694D01*
X0077940Y0181550D01*
X0078008Y0181404D01*
X0078071Y0181256D01*
X0078132Y0181107D01*
X0078188Y0180956D01*
X0078241Y0180804D01*
X0078290Y0180651D01*
X0078335Y0180497D01*
X0078376Y0180342D01*
X0078414Y0180185D01*
X0078447Y0180028D01*
X0078477Y0179870D01*
X0078503Y0179711D01*
X0078524Y0179552D01*
X0078542Y0179392D01*
X0078556Y0179232D01*
X0078566Y0179071D01*
X0078572Y0178911D01*
X0078574Y0178750D01*
X0078572Y0178589D01*
X0078566Y0178429D01*
X0078556Y0178268D01*
X0078542Y0178108D01*
X0078524Y0177948D01*
X0078503Y0177789D01*
X0078477Y0177630D01*
X0078447Y0177472D01*
X0078414Y0177315D01*
X0078376Y0177158D01*
X0078335Y0177003D01*
X0078290Y0176849D01*
X0078241Y0176696D01*
X0078188Y0176544D01*
X0078132Y0176393D01*
X0078071Y0176244D01*
X0078008Y0176096D01*
X0077940Y0175950D01*
X0077869Y0175806D01*
X0077795Y0175664D01*
X0077717Y0175523D01*
X0077635Y0175385D01*
X0077550Y0175248D01*
X0077462Y0175114D01*
X0077370Y0174982D01*
X0077275Y0174852D01*
X0077177Y0174724D01*
X0077076Y0174599D01*
X0076972Y0174477D01*
X0076865Y0174357D01*
X0076755Y0174240D01*
X0076642Y0174125D01*
X0076526Y0174014D01*
X0076407Y0173905D01*
X0076286Y0173800D01*
X0076162Y0173697D01*
X0076036Y0173597D01*
X0075908Y0173501D01*
X0075777Y0173408D01*
X0075643Y0173318D01*
X0075508Y0173231D01*
X0075370Y0173148D01*
X0075231Y0173068D01*
X0075089Y0172992D01*
X0074946Y0172919D01*
X0074801Y0172850D01*
X0074654Y0172784D01*
X0074506Y0172722D01*
X0074356Y0172664D01*
X0074205Y0172609D01*
X0074052Y0172558D01*
X0073898Y0172511D01*
X0073743Y0172468D01*
X0073587Y0172429D01*
X0073431Y0172393D01*
X0073273Y0172362D01*
X0073115Y0172334D01*
X0072956Y0172310D01*
X0072796Y0172290D01*
X0072636Y0172274D01*
X0072476Y0172262D01*
X0072315Y0172254D01*
X0072154Y0172250D01*
X0071994Y0172250D01*
X0071833Y0172254D01*
X0071672Y0172262D01*
X0071512Y0172274D01*
X0071352Y0172290D01*
X0071192Y0172310D01*
X0071033Y0172334D01*
X0070875Y0172362D01*
X0070717Y0172393D01*
X0070561Y0172429D01*
X0070405Y0172468D01*
X0070250Y0172511D01*
X0070096Y0172558D01*
X0069943Y0172609D01*
X0069792Y0172664D01*
X0069642Y0172722D01*
X0069494Y0172784D01*
X0069347Y0172850D01*
X0069202Y0172919D01*
X0069059Y0172992D01*
X0068917Y0173068D01*
X0068778Y0173148D01*
X0068640Y0173231D01*
X0068505Y0173318D01*
X0068371Y0173408D01*
X0068240Y0173501D01*
X0068112Y0173597D01*
X0067986Y0173697D01*
X0067862Y0173800D01*
X0067741Y0173905D01*
X0067622Y0174014D01*
X0067506Y0174125D01*
X0067393Y0174240D01*
X0067283Y0174357D01*
X0067176Y0174477D01*
X0067072Y0174599D01*
X0066971Y0174724D01*
X0066873Y0174852D01*
X0066778Y0174982D01*
X0066686Y0175114D01*
X0066598Y0175248D01*
X0066513Y0175385D01*
X0066431Y0175523D01*
X0066353Y0175664D01*
X0066279Y0175806D01*
X0066208Y0175950D01*
X0066140Y0176096D01*
X0066077Y0176244D01*
X0066016Y0176393D01*
X0065960Y0176544D01*
X0065907Y0176696D01*
X0065858Y0176849D01*
X0065813Y0177003D01*
X0065772Y0177158D01*
X0065734Y0177315D01*
X0065701Y0177472D01*
X0065671Y0177630D01*
X0065645Y0177789D01*
X0065624Y0177948D01*
X0065606Y0178108D01*
X0065592Y0178268D01*
X0065582Y0178429D01*
X0065576Y0178589D01*
X0065574Y0178750D01*
X0145574Y0178750D02*
X0145576Y0178911D01*
X0145582Y0179071D01*
X0145592Y0179232D01*
X0145606Y0179392D01*
X0145624Y0179552D01*
X0145645Y0179711D01*
X0145671Y0179870D01*
X0145701Y0180028D01*
X0145734Y0180185D01*
X0145772Y0180342D01*
X0145813Y0180497D01*
X0145858Y0180651D01*
X0145907Y0180804D01*
X0145960Y0180956D01*
X0146016Y0181107D01*
X0146077Y0181256D01*
X0146140Y0181404D01*
X0146208Y0181550D01*
X0146279Y0181694D01*
X0146353Y0181836D01*
X0146431Y0181977D01*
X0146513Y0182115D01*
X0146598Y0182252D01*
X0146686Y0182386D01*
X0146778Y0182518D01*
X0146873Y0182648D01*
X0146971Y0182776D01*
X0147072Y0182901D01*
X0147176Y0183023D01*
X0147283Y0183143D01*
X0147393Y0183260D01*
X0147506Y0183375D01*
X0147622Y0183486D01*
X0147741Y0183595D01*
X0147862Y0183700D01*
X0147986Y0183803D01*
X0148112Y0183903D01*
X0148240Y0183999D01*
X0148371Y0184092D01*
X0148505Y0184182D01*
X0148640Y0184269D01*
X0148778Y0184352D01*
X0148917Y0184432D01*
X0149059Y0184508D01*
X0149202Y0184581D01*
X0149347Y0184650D01*
X0149494Y0184716D01*
X0149642Y0184778D01*
X0149792Y0184836D01*
X0149943Y0184891D01*
X0150096Y0184942D01*
X0150250Y0184989D01*
X0150405Y0185032D01*
X0150561Y0185071D01*
X0150717Y0185107D01*
X0150875Y0185138D01*
X0151033Y0185166D01*
X0151192Y0185190D01*
X0151352Y0185210D01*
X0151512Y0185226D01*
X0151672Y0185238D01*
X0151833Y0185246D01*
X0151994Y0185250D01*
X0152154Y0185250D01*
X0152315Y0185246D01*
X0152476Y0185238D01*
X0152636Y0185226D01*
X0152796Y0185210D01*
X0152956Y0185190D01*
X0153115Y0185166D01*
X0153273Y0185138D01*
X0153431Y0185107D01*
X0153587Y0185071D01*
X0153743Y0185032D01*
X0153898Y0184989D01*
X0154052Y0184942D01*
X0154205Y0184891D01*
X0154356Y0184836D01*
X0154506Y0184778D01*
X0154654Y0184716D01*
X0154801Y0184650D01*
X0154946Y0184581D01*
X0155089Y0184508D01*
X0155231Y0184432D01*
X0155370Y0184352D01*
X0155508Y0184269D01*
X0155643Y0184182D01*
X0155777Y0184092D01*
X0155908Y0183999D01*
X0156036Y0183903D01*
X0156162Y0183803D01*
X0156286Y0183700D01*
X0156407Y0183595D01*
X0156526Y0183486D01*
X0156642Y0183375D01*
X0156755Y0183260D01*
X0156865Y0183143D01*
X0156972Y0183023D01*
X0157076Y0182901D01*
X0157177Y0182776D01*
X0157275Y0182648D01*
X0157370Y0182518D01*
X0157462Y0182386D01*
X0157550Y0182252D01*
X0157635Y0182115D01*
X0157717Y0181977D01*
X0157795Y0181836D01*
X0157869Y0181694D01*
X0157940Y0181550D01*
X0158008Y0181404D01*
X0158071Y0181256D01*
X0158132Y0181107D01*
X0158188Y0180956D01*
X0158241Y0180804D01*
X0158290Y0180651D01*
X0158335Y0180497D01*
X0158376Y0180342D01*
X0158414Y0180185D01*
X0158447Y0180028D01*
X0158477Y0179870D01*
X0158503Y0179711D01*
X0158524Y0179552D01*
X0158542Y0179392D01*
X0158556Y0179232D01*
X0158566Y0179071D01*
X0158572Y0178911D01*
X0158574Y0178750D01*
X0158572Y0178589D01*
X0158566Y0178429D01*
X0158556Y0178268D01*
X0158542Y0178108D01*
X0158524Y0177948D01*
X0158503Y0177789D01*
X0158477Y0177630D01*
X0158447Y0177472D01*
X0158414Y0177315D01*
X0158376Y0177158D01*
X0158335Y0177003D01*
X0158290Y0176849D01*
X0158241Y0176696D01*
X0158188Y0176544D01*
X0158132Y0176393D01*
X0158071Y0176244D01*
X0158008Y0176096D01*
X0157940Y0175950D01*
X0157869Y0175806D01*
X0157795Y0175664D01*
X0157717Y0175523D01*
X0157635Y0175385D01*
X0157550Y0175248D01*
X0157462Y0175114D01*
X0157370Y0174982D01*
X0157275Y0174852D01*
X0157177Y0174724D01*
X0157076Y0174599D01*
X0156972Y0174477D01*
X0156865Y0174357D01*
X0156755Y0174240D01*
X0156642Y0174125D01*
X0156526Y0174014D01*
X0156407Y0173905D01*
X0156286Y0173800D01*
X0156162Y0173697D01*
X0156036Y0173597D01*
X0155908Y0173501D01*
X0155777Y0173408D01*
X0155643Y0173318D01*
X0155508Y0173231D01*
X0155370Y0173148D01*
X0155231Y0173068D01*
X0155089Y0172992D01*
X0154946Y0172919D01*
X0154801Y0172850D01*
X0154654Y0172784D01*
X0154506Y0172722D01*
X0154356Y0172664D01*
X0154205Y0172609D01*
X0154052Y0172558D01*
X0153898Y0172511D01*
X0153743Y0172468D01*
X0153587Y0172429D01*
X0153431Y0172393D01*
X0153273Y0172362D01*
X0153115Y0172334D01*
X0152956Y0172310D01*
X0152796Y0172290D01*
X0152636Y0172274D01*
X0152476Y0172262D01*
X0152315Y0172254D01*
X0152154Y0172250D01*
X0151994Y0172250D01*
X0151833Y0172254D01*
X0151672Y0172262D01*
X0151512Y0172274D01*
X0151352Y0172290D01*
X0151192Y0172310D01*
X0151033Y0172334D01*
X0150875Y0172362D01*
X0150717Y0172393D01*
X0150561Y0172429D01*
X0150405Y0172468D01*
X0150250Y0172511D01*
X0150096Y0172558D01*
X0149943Y0172609D01*
X0149792Y0172664D01*
X0149642Y0172722D01*
X0149494Y0172784D01*
X0149347Y0172850D01*
X0149202Y0172919D01*
X0149059Y0172992D01*
X0148917Y0173068D01*
X0148778Y0173148D01*
X0148640Y0173231D01*
X0148505Y0173318D01*
X0148371Y0173408D01*
X0148240Y0173501D01*
X0148112Y0173597D01*
X0147986Y0173697D01*
X0147862Y0173800D01*
X0147741Y0173905D01*
X0147622Y0174014D01*
X0147506Y0174125D01*
X0147393Y0174240D01*
X0147283Y0174357D01*
X0147176Y0174477D01*
X0147072Y0174599D01*
X0146971Y0174724D01*
X0146873Y0174852D01*
X0146778Y0174982D01*
X0146686Y0175114D01*
X0146598Y0175248D01*
X0146513Y0175385D01*
X0146431Y0175523D01*
X0146353Y0175664D01*
X0146279Y0175806D01*
X0146208Y0175950D01*
X0146140Y0176096D01*
X0146077Y0176244D01*
X0146016Y0176393D01*
X0145960Y0176544D01*
X0145907Y0176696D01*
X0145858Y0176849D01*
X0145813Y0177003D01*
X0145772Y0177158D01*
X0145734Y0177315D01*
X0145701Y0177472D01*
X0145671Y0177630D01*
X0145645Y0177789D01*
X0145624Y0177948D01*
X0145606Y0178108D01*
X0145592Y0178268D01*
X0145582Y0178429D01*
X0145576Y0178589D01*
X0145574Y0178750D01*
X0145574Y0200750D02*
X0145576Y0200911D01*
X0145582Y0201071D01*
X0145592Y0201232D01*
X0145606Y0201392D01*
X0145624Y0201552D01*
X0145645Y0201711D01*
X0145671Y0201870D01*
X0145701Y0202028D01*
X0145734Y0202185D01*
X0145772Y0202342D01*
X0145813Y0202497D01*
X0145858Y0202651D01*
X0145907Y0202804D01*
X0145960Y0202956D01*
X0146016Y0203107D01*
X0146077Y0203256D01*
X0146140Y0203404D01*
X0146208Y0203550D01*
X0146279Y0203694D01*
X0146353Y0203836D01*
X0146431Y0203977D01*
X0146513Y0204115D01*
X0146598Y0204252D01*
X0146686Y0204386D01*
X0146778Y0204518D01*
X0146873Y0204648D01*
X0146971Y0204776D01*
X0147072Y0204901D01*
X0147176Y0205023D01*
X0147283Y0205143D01*
X0147393Y0205260D01*
X0147506Y0205375D01*
X0147622Y0205486D01*
X0147741Y0205595D01*
X0147862Y0205700D01*
X0147986Y0205803D01*
X0148112Y0205903D01*
X0148240Y0205999D01*
X0148371Y0206092D01*
X0148505Y0206182D01*
X0148640Y0206269D01*
X0148778Y0206352D01*
X0148917Y0206432D01*
X0149059Y0206508D01*
X0149202Y0206581D01*
X0149347Y0206650D01*
X0149494Y0206716D01*
X0149642Y0206778D01*
X0149792Y0206836D01*
X0149943Y0206891D01*
X0150096Y0206942D01*
X0150250Y0206989D01*
X0150405Y0207032D01*
X0150561Y0207071D01*
X0150717Y0207107D01*
X0150875Y0207138D01*
X0151033Y0207166D01*
X0151192Y0207190D01*
X0151352Y0207210D01*
X0151512Y0207226D01*
X0151672Y0207238D01*
X0151833Y0207246D01*
X0151994Y0207250D01*
X0152154Y0207250D01*
X0152315Y0207246D01*
X0152476Y0207238D01*
X0152636Y0207226D01*
X0152796Y0207210D01*
X0152956Y0207190D01*
X0153115Y0207166D01*
X0153273Y0207138D01*
X0153431Y0207107D01*
X0153587Y0207071D01*
X0153743Y0207032D01*
X0153898Y0206989D01*
X0154052Y0206942D01*
X0154205Y0206891D01*
X0154356Y0206836D01*
X0154506Y0206778D01*
X0154654Y0206716D01*
X0154801Y0206650D01*
X0154946Y0206581D01*
X0155089Y0206508D01*
X0155231Y0206432D01*
X0155370Y0206352D01*
X0155508Y0206269D01*
X0155643Y0206182D01*
X0155777Y0206092D01*
X0155908Y0205999D01*
X0156036Y0205903D01*
X0156162Y0205803D01*
X0156286Y0205700D01*
X0156407Y0205595D01*
X0156526Y0205486D01*
X0156642Y0205375D01*
X0156755Y0205260D01*
X0156865Y0205143D01*
X0156972Y0205023D01*
X0157076Y0204901D01*
X0157177Y0204776D01*
X0157275Y0204648D01*
X0157370Y0204518D01*
X0157462Y0204386D01*
X0157550Y0204252D01*
X0157635Y0204115D01*
X0157717Y0203977D01*
X0157795Y0203836D01*
X0157869Y0203694D01*
X0157940Y0203550D01*
X0158008Y0203404D01*
X0158071Y0203256D01*
X0158132Y0203107D01*
X0158188Y0202956D01*
X0158241Y0202804D01*
X0158290Y0202651D01*
X0158335Y0202497D01*
X0158376Y0202342D01*
X0158414Y0202185D01*
X0158447Y0202028D01*
X0158477Y0201870D01*
X0158503Y0201711D01*
X0158524Y0201552D01*
X0158542Y0201392D01*
X0158556Y0201232D01*
X0158566Y0201071D01*
X0158572Y0200911D01*
X0158574Y0200750D01*
X0158572Y0200589D01*
X0158566Y0200429D01*
X0158556Y0200268D01*
X0158542Y0200108D01*
X0158524Y0199948D01*
X0158503Y0199789D01*
X0158477Y0199630D01*
X0158447Y0199472D01*
X0158414Y0199315D01*
X0158376Y0199158D01*
X0158335Y0199003D01*
X0158290Y0198849D01*
X0158241Y0198696D01*
X0158188Y0198544D01*
X0158132Y0198393D01*
X0158071Y0198244D01*
X0158008Y0198096D01*
X0157940Y0197950D01*
X0157869Y0197806D01*
X0157795Y0197664D01*
X0157717Y0197523D01*
X0157635Y0197385D01*
X0157550Y0197248D01*
X0157462Y0197114D01*
X0157370Y0196982D01*
X0157275Y0196852D01*
X0157177Y0196724D01*
X0157076Y0196599D01*
X0156972Y0196477D01*
X0156865Y0196357D01*
X0156755Y0196240D01*
X0156642Y0196125D01*
X0156526Y0196014D01*
X0156407Y0195905D01*
X0156286Y0195800D01*
X0156162Y0195697D01*
X0156036Y0195597D01*
X0155908Y0195501D01*
X0155777Y0195408D01*
X0155643Y0195318D01*
X0155508Y0195231D01*
X0155370Y0195148D01*
X0155231Y0195068D01*
X0155089Y0194992D01*
X0154946Y0194919D01*
X0154801Y0194850D01*
X0154654Y0194784D01*
X0154506Y0194722D01*
X0154356Y0194664D01*
X0154205Y0194609D01*
X0154052Y0194558D01*
X0153898Y0194511D01*
X0153743Y0194468D01*
X0153587Y0194429D01*
X0153431Y0194393D01*
X0153273Y0194362D01*
X0153115Y0194334D01*
X0152956Y0194310D01*
X0152796Y0194290D01*
X0152636Y0194274D01*
X0152476Y0194262D01*
X0152315Y0194254D01*
X0152154Y0194250D01*
X0151994Y0194250D01*
X0151833Y0194254D01*
X0151672Y0194262D01*
X0151512Y0194274D01*
X0151352Y0194290D01*
X0151192Y0194310D01*
X0151033Y0194334D01*
X0150875Y0194362D01*
X0150717Y0194393D01*
X0150561Y0194429D01*
X0150405Y0194468D01*
X0150250Y0194511D01*
X0150096Y0194558D01*
X0149943Y0194609D01*
X0149792Y0194664D01*
X0149642Y0194722D01*
X0149494Y0194784D01*
X0149347Y0194850D01*
X0149202Y0194919D01*
X0149059Y0194992D01*
X0148917Y0195068D01*
X0148778Y0195148D01*
X0148640Y0195231D01*
X0148505Y0195318D01*
X0148371Y0195408D01*
X0148240Y0195501D01*
X0148112Y0195597D01*
X0147986Y0195697D01*
X0147862Y0195800D01*
X0147741Y0195905D01*
X0147622Y0196014D01*
X0147506Y0196125D01*
X0147393Y0196240D01*
X0147283Y0196357D01*
X0147176Y0196477D01*
X0147072Y0196599D01*
X0146971Y0196724D01*
X0146873Y0196852D01*
X0146778Y0196982D01*
X0146686Y0197114D01*
X0146598Y0197248D01*
X0146513Y0197385D01*
X0146431Y0197523D01*
X0146353Y0197664D01*
X0146279Y0197806D01*
X0146208Y0197950D01*
X0146140Y0198096D01*
X0146077Y0198244D01*
X0146016Y0198393D01*
X0145960Y0198544D01*
X0145907Y0198696D01*
X0145858Y0198849D01*
X0145813Y0199003D01*
X0145772Y0199158D01*
X0145734Y0199315D01*
X0145701Y0199472D01*
X0145671Y0199630D01*
X0145645Y0199789D01*
X0145624Y0199948D01*
X0145606Y0200108D01*
X0145592Y0200268D01*
X0145582Y0200429D01*
X0145576Y0200589D01*
X0145574Y0200750D01*
X0207574Y0200750D02*
X0207576Y0200911D01*
X0207582Y0201071D01*
X0207592Y0201232D01*
X0207606Y0201392D01*
X0207624Y0201552D01*
X0207645Y0201711D01*
X0207671Y0201870D01*
X0207701Y0202028D01*
X0207734Y0202185D01*
X0207772Y0202342D01*
X0207813Y0202497D01*
X0207858Y0202651D01*
X0207907Y0202804D01*
X0207960Y0202956D01*
X0208016Y0203107D01*
X0208077Y0203256D01*
X0208140Y0203404D01*
X0208208Y0203550D01*
X0208279Y0203694D01*
X0208353Y0203836D01*
X0208431Y0203977D01*
X0208513Y0204115D01*
X0208598Y0204252D01*
X0208686Y0204386D01*
X0208778Y0204518D01*
X0208873Y0204648D01*
X0208971Y0204776D01*
X0209072Y0204901D01*
X0209176Y0205023D01*
X0209283Y0205143D01*
X0209393Y0205260D01*
X0209506Y0205375D01*
X0209622Y0205486D01*
X0209741Y0205595D01*
X0209862Y0205700D01*
X0209986Y0205803D01*
X0210112Y0205903D01*
X0210240Y0205999D01*
X0210371Y0206092D01*
X0210505Y0206182D01*
X0210640Y0206269D01*
X0210778Y0206352D01*
X0210917Y0206432D01*
X0211059Y0206508D01*
X0211202Y0206581D01*
X0211347Y0206650D01*
X0211494Y0206716D01*
X0211642Y0206778D01*
X0211792Y0206836D01*
X0211943Y0206891D01*
X0212096Y0206942D01*
X0212250Y0206989D01*
X0212405Y0207032D01*
X0212561Y0207071D01*
X0212717Y0207107D01*
X0212875Y0207138D01*
X0213033Y0207166D01*
X0213192Y0207190D01*
X0213352Y0207210D01*
X0213512Y0207226D01*
X0213672Y0207238D01*
X0213833Y0207246D01*
X0213994Y0207250D01*
X0214154Y0207250D01*
X0214315Y0207246D01*
X0214476Y0207238D01*
X0214636Y0207226D01*
X0214796Y0207210D01*
X0214956Y0207190D01*
X0215115Y0207166D01*
X0215273Y0207138D01*
X0215431Y0207107D01*
X0215587Y0207071D01*
X0215743Y0207032D01*
X0215898Y0206989D01*
X0216052Y0206942D01*
X0216205Y0206891D01*
X0216356Y0206836D01*
X0216506Y0206778D01*
X0216654Y0206716D01*
X0216801Y0206650D01*
X0216946Y0206581D01*
X0217089Y0206508D01*
X0217231Y0206432D01*
X0217370Y0206352D01*
X0217508Y0206269D01*
X0217643Y0206182D01*
X0217777Y0206092D01*
X0217908Y0205999D01*
X0218036Y0205903D01*
X0218162Y0205803D01*
X0218286Y0205700D01*
X0218407Y0205595D01*
X0218526Y0205486D01*
X0218642Y0205375D01*
X0218755Y0205260D01*
X0218865Y0205143D01*
X0218972Y0205023D01*
X0219076Y0204901D01*
X0219177Y0204776D01*
X0219275Y0204648D01*
X0219370Y0204518D01*
X0219462Y0204386D01*
X0219550Y0204252D01*
X0219635Y0204115D01*
X0219717Y0203977D01*
X0219795Y0203836D01*
X0219869Y0203694D01*
X0219940Y0203550D01*
X0220008Y0203404D01*
X0220071Y0203256D01*
X0220132Y0203107D01*
X0220188Y0202956D01*
X0220241Y0202804D01*
X0220290Y0202651D01*
X0220335Y0202497D01*
X0220376Y0202342D01*
X0220414Y0202185D01*
X0220447Y0202028D01*
X0220477Y0201870D01*
X0220503Y0201711D01*
X0220524Y0201552D01*
X0220542Y0201392D01*
X0220556Y0201232D01*
X0220566Y0201071D01*
X0220572Y0200911D01*
X0220574Y0200750D01*
X0220572Y0200589D01*
X0220566Y0200429D01*
X0220556Y0200268D01*
X0220542Y0200108D01*
X0220524Y0199948D01*
X0220503Y0199789D01*
X0220477Y0199630D01*
X0220447Y0199472D01*
X0220414Y0199315D01*
X0220376Y0199158D01*
X0220335Y0199003D01*
X0220290Y0198849D01*
X0220241Y0198696D01*
X0220188Y0198544D01*
X0220132Y0198393D01*
X0220071Y0198244D01*
X0220008Y0198096D01*
X0219940Y0197950D01*
X0219869Y0197806D01*
X0219795Y0197664D01*
X0219717Y0197523D01*
X0219635Y0197385D01*
X0219550Y0197248D01*
X0219462Y0197114D01*
X0219370Y0196982D01*
X0219275Y0196852D01*
X0219177Y0196724D01*
X0219076Y0196599D01*
X0218972Y0196477D01*
X0218865Y0196357D01*
X0218755Y0196240D01*
X0218642Y0196125D01*
X0218526Y0196014D01*
X0218407Y0195905D01*
X0218286Y0195800D01*
X0218162Y0195697D01*
X0218036Y0195597D01*
X0217908Y0195501D01*
X0217777Y0195408D01*
X0217643Y0195318D01*
X0217508Y0195231D01*
X0217370Y0195148D01*
X0217231Y0195068D01*
X0217089Y0194992D01*
X0216946Y0194919D01*
X0216801Y0194850D01*
X0216654Y0194784D01*
X0216506Y0194722D01*
X0216356Y0194664D01*
X0216205Y0194609D01*
X0216052Y0194558D01*
X0215898Y0194511D01*
X0215743Y0194468D01*
X0215587Y0194429D01*
X0215431Y0194393D01*
X0215273Y0194362D01*
X0215115Y0194334D01*
X0214956Y0194310D01*
X0214796Y0194290D01*
X0214636Y0194274D01*
X0214476Y0194262D01*
X0214315Y0194254D01*
X0214154Y0194250D01*
X0213994Y0194250D01*
X0213833Y0194254D01*
X0213672Y0194262D01*
X0213512Y0194274D01*
X0213352Y0194290D01*
X0213192Y0194310D01*
X0213033Y0194334D01*
X0212875Y0194362D01*
X0212717Y0194393D01*
X0212561Y0194429D01*
X0212405Y0194468D01*
X0212250Y0194511D01*
X0212096Y0194558D01*
X0211943Y0194609D01*
X0211792Y0194664D01*
X0211642Y0194722D01*
X0211494Y0194784D01*
X0211347Y0194850D01*
X0211202Y0194919D01*
X0211059Y0194992D01*
X0210917Y0195068D01*
X0210778Y0195148D01*
X0210640Y0195231D01*
X0210505Y0195318D01*
X0210371Y0195408D01*
X0210240Y0195501D01*
X0210112Y0195597D01*
X0209986Y0195697D01*
X0209862Y0195800D01*
X0209741Y0195905D01*
X0209622Y0196014D01*
X0209506Y0196125D01*
X0209393Y0196240D01*
X0209283Y0196357D01*
X0209176Y0196477D01*
X0209072Y0196599D01*
X0208971Y0196724D01*
X0208873Y0196852D01*
X0208778Y0196982D01*
X0208686Y0197114D01*
X0208598Y0197248D01*
X0208513Y0197385D01*
X0208431Y0197523D01*
X0208353Y0197664D01*
X0208279Y0197806D01*
X0208208Y0197950D01*
X0208140Y0198096D01*
X0208077Y0198244D01*
X0208016Y0198393D01*
X0207960Y0198544D01*
X0207907Y0198696D01*
X0207858Y0198849D01*
X0207813Y0199003D01*
X0207772Y0199158D01*
X0207734Y0199315D01*
X0207701Y0199472D01*
X0207671Y0199630D01*
X0207645Y0199789D01*
X0207624Y0199948D01*
X0207606Y0200108D01*
X0207592Y0200268D01*
X0207582Y0200429D01*
X0207576Y0200589D01*
X0207574Y0200750D01*
X0207574Y0178750D02*
X0207576Y0178911D01*
X0207582Y0179071D01*
X0207592Y0179232D01*
X0207606Y0179392D01*
X0207624Y0179552D01*
X0207645Y0179711D01*
X0207671Y0179870D01*
X0207701Y0180028D01*
X0207734Y0180185D01*
X0207772Y0180342D01*
X0207813Y0180497D01*
X0207858Y0180651D01*
X0207907Y0180804D01*
X0207960Y0180956D01*
X0208016Y0181107D01*
X0208077Y0181256D01*
X0208140Y0181404D01*
X0208208Y0181550D01*
X0208279Y0181694D01*
X0208353Y0181836D01*
X0208431Y0181977D01*
X0208513Y0182115D01*
X0208598Y0182252D01*
X0208686Y0182386D01*
X0208778Y0182518D01*
X0208873Y0182648D01*
X0208971Y0182776D01*
X0209072Y0182901D01*
X0209176Y0183023D01*
X0209283Y0183143D01*
X0209393Y0183260D01*
X0209506Y0183375D01*
X0209622Y0183486D01*
X0209741Y0183595D01*
X0209862Y0183700D01*
X0209986Y0183803D01*
X0210112Y0183903D01*
X0210240Y0183999D01*
X0210371Y0184092D01*
X0210505Y0184182D01*
X0210640Y0184269D01*
X0210778Y0184352D01*
X0210917Y0184432D01*
X0211059Y0184508D01*
X0211202Y0184581D01*
X0211347Y0184650D01*
X0211494Y0184716D01*
X0211642Y0184778D01*
X0211792Y0184836D01*
X0211943Y0184891D01*
X0212096Y0184942D01*
X0212250Y0184989D01*
X0212405Y0185032D01*
X0212561Y0185071D01*
X0212717Y0185107D01*
X0212875Y0185138D01*
X0213033Y0185166D01*
X0213192Y0185190D01*
X0213352Y0185210D01*
X0213512Y0185226D01*
X0213672Y0185238D01*
X0213833Y0185246D01*
X0213994Y0185250D01*
X0214154Y0185250D01*
X0214315Y0185246D01*
X0214476Y0185238D01*
X0214636Y0185226D01*
X0214796Y0185210D01*
X0214956Y0185190D01*
X0215115Y0185166D01*
X0215273Y0185138D01*
X0215431Y0185107D01*
X0215587Y0185071D01*
X0215743Y0185032D01*
X0215898Y0184989D01*
X0216052Y0184942D01*
X0216205Y0184891D01*
X0216356Y0184836D01*
X0216506Y0184778D01*
X0216654Y0184716D01*
X0216801Y0184650D01*
X0216946Y0184581D01*
X0217089Y0184508D01*
X0217231Y0184432D01*
X0217370Y0184352D01*
X0217508Y0184269D01*
X0217643Y0184182D01*
X0217777Y0184092D01*
X0217908Y0183999D01*
X0218036Y0183903D01*
X0218162Y0183803D01*
X0218286Y0183700D01*
X0218407Y0183595D01*
X0218526Y0183486D01*
X0218642Y0183375D01*
X0218755Y0183260D01*
X0218865Y0183143D01*
X0218972Y0183023D01*
X0219076Y0182901D01*
X0219177Y0182776D01*
X0219275Y0182648D01*
X0219370Y0182518D01*
X0219462Y0182386D01*
X0219550Y0182252D01*
X0219635Y0182115D01*
X0219717Y0181977D01*
X0219795Y0181836D01*
X0219869Y0181694D01*
X0219940Y0181550D01*
X0220008Y0181404D01*
X0220071Y0181256D01*
X0220132Y0181107D01*
X0220188Y0180956D01*
X0220241Y0180804D01*
X0220290Y0180651D01*
X0220335Y0180497D01*
X0220376Y0180342D01*
X0220414Y0180185D01*
X0220447Y0180028D01*
X0220477Y0179870D01*
X0220503Y0179711D01*
X0220524Y0179552D01*
X0220542Y0179392D01*
X0220556Y0179232D01*
X0220566Y0179071D01*
X0220572Y0178911D01*
X0220574Y0178750D01*
X0220572Y0178589D01*
X0220566Y0178429D01*
X0220556Y0178268D01*
X0220542Y0178108D01*
X0220524Y0177948D01*
X0220503Y0177789D01*
X0220477Y0177630D01*
X0220447Y0177472D01*
X0220414Y0177315D01*
X0220376Y0177158D01*
X0220335Y0177003D01*
X0220290Y0176849D01*
X0220241Y0176696D01*
X0220188Y0176544D01*
X0220132Y0176393D01*
X0220071Y0176244D01*
X0220008Y0176096D01*
X0219940Y0175950D01*
X0219869Y0175806D01*
X0219795Y0175664D01*
X0219717Y0175523D01*
X0219635Y0175385D01*
X0219550Y0175248D01*
X0219462Y0175114D01*
X0219370Y0174982D01*
X0219275Y0174852D01*
X0219177Y0174724D01*
X0219076Y0174599D01*
X0218972Y0174477D01*
X0218865Y0174357D01*
X0218755Y0174240D01*
X0218642Y0174125D01*
X0218526Y0174014D01*
X0218407Y0173905D01*
X0218286Y0173800D01*
X0218162Y0173697D01*
X0218036Y0173597D01*
X0217908Y0173501D01*
X0217777Y0173408D01*
X0217643Y0173318D01*
X0217508Y0173231D01*
X0217370Y0173148D01*
X0217231Y0173068D01*
X0217089Y0172992D01*
X0216946Y0172919D01*
X0216801Y0172850D01*
X0216654Y0172784D01*
X0216506Y0172722D01*
X0216356Y0172664D01*
X0216205Y0172609D01*
X0216052Y0172558D01*
X0215898Y0172511D01*
X0215743Y0172468D01*
X0215587Y0172429D01*
X0215431Y0172393D01*
X0215273Y0172362D01*
X0215115Y0172334D01*
X0214956Y0172310D01*
X0214796Y0172290D01*
X0214636Y0172274D01*
X0214476Y0172262D01*
X0214315Y0172254D01*
X0214154Y0172250D01*
X0213994Y0172250D01*
X0213833Y0172254D01*
X0213672Y0172262D01*
X0213512Y0172274D01*
X0213352Y0172290D01*
X0213192Y0172310D01*
X0213033Y0172334D01*
X0212875Y0172362D01*
X0212717Y0172393D01*
X0212561Y0172429D01*
X0212405Y0172468D01*
X0212250Y0172511D01*
X0212096Y0172558D01*
X0211943Y0172609D01*
X0211792Y0172664D01*
X0211642Y0172722D01*
X0211494Y0172784D01*
X0211347Y0172850D01*
X0211202Y0172919D01*
X0211059Y0172992D01*
X0210917Y0173068D01*
X0210778Y0173148D01*
X0210640Y0173231D01*
X0210505Y0173318D01*
X0210371Y0173408D01*
X0210240Y0173501D01*
X0210112Y0173597D01*
X0209986Y0173697D01*
X0209862Y0173800D01*
X0209741Y0173905D01*
X0209622Y0174014D01*
X0209506Y0174125D01*
X0209393Y0174240D01*
X0209283Y0174357D01*
X0209176Y0174477D01*
X0209072Y0174599D01*
X0208971Y0174724D01*
X0208873Y0174852D01*
X0208778Y0174982D01*
X0208686Y0175114D01*
X0208598Y0175248D01*
X0208513Y0175385D01*
X0208431Y0175523D01*
X0208353Y0175664D01*
X0208279Y0175806D01*
X0208208Y0175950D01*
X0208140Y0176096D01*
X0208077Y0176244D01*
X0208016Y0176393D01*
X0207960Y0176544D01*
X0207907Y0176696D01*
X0207858Y0176849D01*
X0207813Y0177003D01*
X0207772Y0177158D01*
X0207734Y0177315D01*
X0207701Y0177472D01*
X0207671Y0177630D01*
X0207645Y0177789D01*
X0207624Y0177948D01*
X0207606Y0178108D01*
X0207592Y0178268D01*
X0207582Y0178429D01*
X0207576Y0178589D01*
X0207574Y0178750D01*
X0287574Y0178750D02*
X0287576Y0178911D01*
X0287582Y0179071D01*
X0287592Y0179232D01*
X0287606Y0179392D01*
X0287624Y0179552D01*
X0287645Y0179711D01*
X0287671Y0179870D01*
X0287701Y0180028D01*
X0287734Y0180185D01*
X0287772Y0180342D01*
X0287813Y0180497D01*
X0287858Y0180651D01*
X0287907Y0180804D01*
X0287960Y0180956D01*
X0288016Y0181107D01*
X0288077Y0181256D01*
X0288140Y0181404D01*
X0288208Y0181550D01*
X0288279Y0181694D01*
X0288353Y0181836D01*
X0288431Y0181977D01*
X0288513Y0182115D01*
X0288598Y0182252D01*
X0288686Y0182386D01*
X0288778Y0182518D01*
X0288873Y0182648D01*
X0288971Y0182776D01*
X0289072Y0182901D01*
X0289176Y0183023D01*
X0289283Y0183143D01*
X0289393Y0183260D01*
X0289506Y0183375D01*
X0289622Y0183486D01*
X0289741Y0183595D01*
X0289862Y0183700D01*
X0289986Y0183803D01*
X0290112Y0183903D01*
X0290240Y0183999D01*
X0290371Y0184092D01*
X0290505Y0184182D01*
X0290640Y0184269D01*
X0290778Y0184352D01*
X0290917Y0184432D01*
X0291059Y0184508D01*
X0291202Y0184581D01*
X0291347Y0184650D01*
X0291494Y0184716D01*
X0291642Y0184778D01*
X0291792Y0184836D01*
X0291943Y0184891D01*
X0292096Y0184942D01*
X0292250Y0184989D01*
X0292405Y0185032D01*
X0292561Y0185071D01*
X0292717Y0185107D01*
X0292875Y0185138D01*
X0293033Y0185166D01*
X0293192Y0185190D01*
X0293352Y0185210D01*
X0293512Y0185226D01*
X0293672Y0185238D01*
X0293833Y0185246D01*
X0293994Y0185250D01*
X0294154Y0185250D01*
X0294315Y0185246D01*
X0294476Y0185238D01*
X0294636Y0185226D01*
X0294796Y0185210D01*
X0294956Y0185190D01*
X0295115Y0185166D01*
X0295273Y0185138D01*
X0295431Y0185107D01*
X0295587Y0185071D01*
X0295743Y0185032D01*
X0295898Y0184989D01*
X0296052Y0184942D01*
X0296205Y0184891D01*
X0296356Y0184836D01*
X0296506Y0184778D01*
X0296654Y0184716D01*
X0296801Y0184650D01*
X0296946Y0184581D01*
X0297089Y0184508D01*
X0297231Y0184432D01*
X0297370Y0184352D01*
X0297508Y0184269D01*
X0297643Y0184182D01*
X0297777Y0184092D01*
X0297908Y0183999D01*
X0298036Y0183903D01*
X0298162Y0183803D01*
X0298286Y0183700D01*
X0298407Y0183595D01*
X0298526Y0183486D01*
X0298642Y0183375D01*
X0298755Y0183260D01*
X0298865Y0183143D01*
X0298972Y0183023D01*
X0299076Y0182901D01*
X0299177Y0182776D01*
X0299275Y0182648D01*
X0299370Y0182518D01*
X0299462Y0182386D01*
X0299550Y0182252D01*
X0299635Y0182115D01*
X0299717Y0181977D01*
X0299795Y0181836D01*
X0299869Y0181694D01*
X0299940Y0181550D01*
X0300008Y0181404D01*
X0300071Y0181256D01*
X0300132Y0181107D01*
X0300188Y0180956D01*
X0300241Y0180804D01*
X0300290Y0180651D01*
X0300335Y0180497D01*
X0300376Y0180342D01*
X0300414Y0180185D01*
X0300447Y0180028D01*
X0300477Y0179870D01*
X0300503Y0179711D01*
X0300524Y0179552D01*
X0300542Y0179392D01*
X0300556Y0179232D01*
X0300566Y0179071D01*
X0300572Y0178911D01*
X0300574Y0178750D01*
X0300572Y0178589D01*
X0300566Y0178429D01*
X0300556Y0178268D01*
X0300542Y0178108D01*
X0300524Y0177948D01*
X0300503Y0177789D01*
X0300477Y0177630D01*
X0300447Y0177472D01*
X0300414Y0177315D01*
X0300376Y0177158D01*
X0300335Y0177003D01*
X0300290Y0176849D01*
X0300241Y0176696D01*
X0300188Y0176544D01*
X0300132Y0176393D01*
X0300071Y0176244D01*
X0300008Y0176096D01*
X0299940Y0175950D01*
X0299869Y0175806D01*
X0299795Y0175664D01*
X0299717Y0175523D01*
X0299635Y0175385D01*
X0299550Y0175248D01*
X0299462Y0175114D01*
X0299370Y0174982D01*
X0299275Y0174852D01*
X0299177Y0174724D01*
X0299076Y0174599D01*
X0298972Y0174477D01*
X0298865Y0174357D01*
X0298755Y0174240D01*
X0298642Y0174125D01*
X0298526Y0174014D01*
X0298407Y0173905D01*
X0298286Y0173800D01*
X0298162Y0173697D01*
X0298036Y0173597D01*
X0297908Y0173501D01*
X0297777Y0173408D01*
X0297643Y0173318D01*
X0297508Y0173231D01*
X0297370Y0173148D01*
X0297231Y0173068D01*
X0297089Y0172992D01*
X0296946Y0172919D01*
X0296801Y0172850D01*
X0296654Y0172784D01*
X0296506Y0172722D01*
X0296356Y0172664D01*
X0296205Y0172609D01*
X0296052Y0172558D01*
X0295898Y0172511D01*
X0295743Y0172468D01*
X0295587Y0172429D01*
X0295431Y0172393D01*
X0295273Y0172362D01*
X0295115Y0172334D01*
X0294956Y0172310D01*
X0294796Y0172290D01*
X0294636Y0172274D01*
X0294476Y0172262D01*
X0294315Y0172254D01*
X0294154Y0172250D01*
X0293994Y0172250D01*
X0293833Y0172254D01*
X0293672Y0172262D01*
X0293512Y0172274D01*
X0293352Y0172290D01*
X0293192Y0172310D01*
X0293033Y0172334D01*
X0292875Y0172362D01*
X0292717Y0172393D01*
X0292561Y0172429D01*
X0292405Y0172468D01*
X0292250Y0172511D01*
X0292096Y0172558D01*
X0291943Y0172609D01*
X0291792Y0172664D01*
X0291642Y0172722D01*
X0291494Y0172784D01*
X0291347Y0172850D01*
X0291202Y0172919D01*
X0291059Y0172992D01*
X0290917Y0173068D01*
X0290778Y0173148D01*
X0290640Y0173231D01*
X0290505Y0173318D01*
X0290371Y0173408D01*
X0290240Y0173501D01*
X0290112Y0173597D01*
X0289986Y0173697D01*
X0289862Y0173800D01*
X0289741Y0173905D01*
X0289622Y0174014D01*
X0289506Y0174125D01*
X0289393Y0174240D01*
X0289283Y0174357D01*
X0289176Y0174477D01*
X0289072Y0174599D01*
X0288971Y0174724D01*
X0288873Y0174852D01*
X0288778Y0174982D01*
X0288686Y0175114D01*
X0288598Y0175248D01*
X0288513Y0175385D01*
X0288431Y0175523D01*
X0288353Y0175664D01*
X0288279Y0175806D01*
X0288208Y0175950D01*
X0288140Y0176096D01*
X0288077Y0176244D01*
X0288016Y0176393D01*
X0287960Y0176544D01*
X0287907Y0176696D01*
X0287858Y0176849D01*
X0287813Y0177003D01*
X0287772Y0177158D01*
X0287734Y0177315D01*
X0287701Y0177472D01*
X0287671Y0177630D01*
X0287645Y0177789D01*
X0287624Y0177948D01*
X0287606Y0178108D01*
X0287592Y0178268D01*
X0287582Y0178429D01*
X0287576Y0178589D01*
X0287574Y0178750D01*
X0287574Y0200750D02*
X0287576Y0200911D01*
X0287582Y0201071D01*
X0287592Y0201232D01*
X0287606Y0201392D01*
X0287624Y0201552D01*
X0287645Y0201711D01*
X0287671Y0201870D01*
X0287701Y0202028D01*
X0287734Y0202185D01*
X0287772Y0202342D01*
X0287813Y0202497D01*
X0287858Y0202651D01*
X0287907Y0202804D01*
X0287960Y0202956D01*
X0288016Y0203107D01*
X0288077Y0203256D01*
X0288140Y0203404D01*
X0288208Y0203550D01*
X0288279Y0203694D01*
X0288353Y0203836D01*
X0288431Y0203977D01*
X0288513Y0204115D01*
X0288598Y0204252D01*
X0288686Y0204386D01*
X0288778Y0204518D01*
X0288873Y0204648D01*
X0288971Y0204776D01*
X0289072Y0204901D01*
X0289176Y0205023D01*
X0289283Y0205143D01*
X0289393Y0205260D01*
X0289506Y0205375D01*
X0289622Y0205486D01*
X0289741Y0205595D01*
X0289862Y0205700D01*
X0289986Y0205803D01*
X0290112Y0205903D01*
X0290240Y0205999D01*
X0290371Y0206092D01*
X0290505Y0206182D01*
X0290640Y0206269D01*
X0290778Y0206352D01*
X0290917Y0206432D01*
X0291059Y0206508D01*
X0291202Y0206581D01*
X0291347Y0206650D01*
X0291494Y0206716D01*
X0291642Y0206778D01*
X0291792Y0206836D01*
X0291943Y0206891D01*
X0292096Y0206942D01*
X0292250Y0206989D01*
X0292405Y0207032D01*
X0292561Y0207071D01*
X0292717Y0207107D01*
X0292875Y0207138D01*
X0293033Y0207166D01*
X0293192Y0207190D01*
X0293352Y0207210D01*
X0293512Y0207226D01*
X0293672Y0207238D01*
X0293833Y0207246D01*
X0293994Y0207250D01*
X0294154Y0207250D01*
X0294315Y0207246D01*
X0294476Y0207238D01*
X0294636Y0207226D01*
X0294796Y0207210D01*
X0294956Y0207190D01*
X0295115Y0207166D01*
X0295273Y0207138D01*
X0295431Y0207107D01*
X0295587Y0207071D01*
X0295743Y0207032D01*
X0295898Y0206989D01*
X0296052Y0206942D01*
X0296205Y0206891D01*
X0296356Y0206836D01*
X0296506Y0206778D01*
X0296654Y0206716D01*
X0296801Y0206650D01*
X0296946Y0206581D01*
X0297089Y0206508D01*
X0297231Y0206432D01*
X0297370Y0206352D01*
X0297508Y0206269D01*
X0297643Y0206182D01*
X0297777Y0206092D01*
X0297908Y0205999D01*
X0298036Y0205903D01*
X0298162Y0205803D01*
X0298286Y0205700D01*
X0298407Y0205595D01*
X0298526Y0205486D01*
X0298642Y0205375D01*
X0298755Y0205260D01*
X0298865Y0205143D01*
X0298972Y0205023D01*
X0299076Y0204901D01*
X0299177Y0204776D01*
X0299275Y0204648D01*
X0299370Y0204518D01*
X0299462Y0204386D01*
X0299550Y0204252D01*
X0299635Y0204115D01*
X0299717Y0203977D01*
X0299795Y0203836D01*
X0299869Y0203694D01*
X0299940Y0203550D01*
X0300008Y0203404D01*
X0300071Y0203256D01*
X0300132Y0203107D01*
X0300188Y0202956D01*
X0300241Y0202804D01*
X0300290Y0202651D01*
X0300335Y0202497D01*
X0300376Y0202342D01*
X0300414Y0202185D01*
X0300447Y0202028D01*
X0300477Y0201870D01*
X0300503Y0201711D01*
X0300524Y0201552D01*
X0300542Y0201392D01*
X0300556Y0201232D01*
X0300566Y0201071D01*
X0300572Y0200911D01*
X0300574Y0200750D01*
X0300572Y0200589D01*
X0300566Y0200429D01*
X0300556Y0200268D01*
X0300542Y0200108D01*
X0300524Y0199948D01*
X0300503Y0199789D01*
X0300477Y0199630D01*
X0300447Y0199472D01*
X0300414Y0199315D01*
X0300376Y0199158D01*
X0300335Y0199003D01*
X0300290Y0198849D01*
X0300241Y0198696D01*
X0300188Y0198544D01*
X0300132Y0198393D01*
X0300071Y0198244D01*
X0300008Y0198096D01*
X0299940Y0197950D01*
X0299869Y0197806D01*
X0299795Y0197664D01*
X0299717Y0197523D01*
X0299635Y0197385D01*
X0299550Y0197248D01*
X0299462Y0197114D01*
X0299370Y0196982D01*
X0299275Y0196852D01*
X0299177Y0196724D01*
X0299076Y0196599D01*
X0298972Y0196477D01*
X0298865Y0196357D01*
X0298755Y0196240D01*
X0298642Y0196125D01*
X0298526Y0196014D01*
X0298407Y0195905D01*
X0298286Y0195800D01*
X0298162Y0195697D01*
X0298036Y0195597D01*
X0297908Y0195501D01*
X0297777Y0195408D01*
X0297643Y0195318D01*
X0297508Y0195231D01*
X0297370Y0195148D01*
X0297231Y0195068D01*
X0297089Y0194992D01*
X0296946Y0194919D01*
X0296801Y0194850D01*
X0296654Y0194784D01*
X0296506Y0194722D01*
X0296356Y0194664D01*
X0296205Y0194609D01*
X0296052Y0194558D01*
X0295898Y0194511D01*
X0295743Y0194468D01*
X0295587Y0194429D01*
X0295431Y0194393D01*
X0295273Y0194362D01*
X0295115Y0194334D01*
X0294956Y0194310D01*
X0294796Y0194290D01*
X0294636Y0194274D01*
X0294476Y0194262D01*
X0294315Y0194254D01*
X0294154Y0194250D01*
X0293994Y0194250D01*
X0293833Y0194254D01*
X0293672Y0194262D01*
X0293512Y0194274D01*
X0293352Y0194290D01*
X0293192Y0194310D01*
X0293033Y0194334D01*
X0292875Y0194362D01*
X0292717Y0194393D01*
X0292561Y0194429D01*
X0292405Y0194468D01*
X0292250Y0194511D01*
X0292096Y0194558D01*
X0291943Y0194609D01*
X0291792Y0194664D01*
X0291642Y0194722D01*
X0291494Y0194784D01*
X0291347Y0194850D01*
X0291202Y0194919D01*
X0291059Y0194992D01*
X0290917Y0195068D01*
X0290778Y0195148D01*
X0290640Y0195231D01*
X0290505Y0195318D01*
X0290371Y0195408D01*
X0290240Y0195501D01*
X0290112Y0195597D01*
X0289986Y0195697D01*
X0289862Y0195800D01*
X0289741Y0195905D01*
X0289622Y0196014D01*
X0289506Y0196125D01*
X0289393Y0196240D01*
X0289283Y0196357D01*
X0289176Y0196477D01*
X0289072Y0196599D01*
X0288971Y0196724D01*
X0288873Y0196852D01*
X0288778Y0196982D01*
X0288686Y0197114D01*
X0288598Y0197248D01*
X0288513Y0197385D01*
X0288431Y0197523D01*
X0288353Y0197664D01*
X0288279Y0197806D01*
X0288208Y0197950D01*
X0288140Y0198096D01*
X0288077Y0198244D01*
X0288016Y0198393D01*
X0287960Y0198544D01*
X0287907Y0198696D01*
X0287858Y0198849D01*
X0287813Y0199003D01*
X0287772Y0199158D01*
X0287734Y0199315D01*
X0287701Y0199472D01*
X0287671Y0199630D01*
X0287645Y0199789D01*
X0287624Y0199948D01*
X0287606Y0200108D01*
X0287592Y0200268D01*
X0287582Y0200429D01*
X0287576Y0200589D01*
X0287574Y0200750D01*
X0287574Y0038750D02*
X0287576Y0038911D01*
X0287582Y0039071D01*
X0287592Y0039232D01*
X0287606Y0039392D01*
X0287624Y0039552D01*
X0287645Y0039711D01*
X0287671Y0039870D01*
X0287701Y0040028D01*
X0287734Y0040185D01*
X0287772Y0040342D01*
X0287813Y0040497D01*
X0287858Y0040651D01*
X0287907Y0040804D01*
X0287960Y0040956D01*
X0288016Y0041107D01*
X0288077Y0041256D01*
X0288140Y0041404D01*
X0288208Y0041550D01*
X0288279Y0041694D01*
X0288353Y0041836D01*
X0288431Y0041977D01*
X0288513Y0042115D01*
X0288598Y0042252D01*
X0288686Y0042386D01*
X0288778Y0042518D01*
X0288873Y0042648D01*
X0288971Y0042776D01*
X0289072Y0042901D01*
X0289176Y0043023D01*
X0289283Y0043143D01*
X0289393Y0043260D01*
X0289506Y0043375D01*
X0289622Y0043486D01*
X0289741Y0043595D01*
X0289862Y0043700D01*
X0289986Y0043803D01*
X0290112Y0043903D01*
X0290240Y0043999D01*
X0290371Y0044092D01*
X0290505Y0044182D01*
X0290640Y0044269D01*
X0290778Y0044352D01*
X0290917Y0044432D01*
X0291059Y0044508D01*
X0291202Y0044581D01*
X0291347Y0044650D01*
X0291494Y0044716D01*
X0291642Y0044778D01*
X0291792Y0044836D01*
X0291943Y0044891D01*
X0292096Y0044942D01*
X0292250Y0044989D01*
X0292405Y0045032D01*
X0292561Y0045071D01*
X0292717Y0045107D01*
X0292875Y0045138D01*
X0293033Y0045166D01*
X0293192Y0045190D01*
X0293352Y0045210D01*
X0293512Y0045226D01*
X0293672Y0045238D01*
X0293833Y0045246D01*
X0293994Y0045250D01*
X0294154Y0045250D01*
X0294315Y0045246D01*
X0294476Y0045238D01*
X0294636Y0045226D01*
X0294796Y0045210D01*
X0294956Y0045190D01*
X0295115Y0045166D01*
X0295273Y0045138D01*
X0295431Y0045107D01*
X0295587Y0045071D01*
X0295743Y0045032D01*
X0295898Y0044989D01*
X0296052Y0044942D01*
X0296205Y0044891D01*
X0296356Y0044836D01*
X0296506Y0044778D01*
X0296654Y0044716D01*
X0296801Y0044650D01*
X0296946Y0044581D01*
X0297089Y0044508D01*
X0297231Y0044432D01*
X0297370Y0044352D01*
X0297508Y0044269D01*
X0297643Y0044182D01*
X0297777Y0044092D01*
X0297908Y0043999D01*
X0298036Y0043903D01*
X0298162Y0043803D01*
X0298286Y0043700D01*
X0298407Y0043595D01*
X0298526Y0043486D01*
X0298642Y0043375D01*
X0298755Y0043260D01*
X0298865Y0043143D01*
X0298972Y0043023D01*
X0299076Y0042901D01*
X0299177Y0042776D01*
X0299275Y0042648D01*
X0299370Y0042518D01*
X0299462Y0042386D01*
X0299550Y0042252D01*
X0299635Y0042115D01*
X0299717Y0041977D01*
X0299795Y0041836D01*
X0299869Y0041694D01*
X0299940Y0041550D01*
X0300008Y0041404D01*
X0300071Y0041256D01*
X0300132Y0041107D01*
X0300188Y0040956D01*
X0300241Y0040804D01*
X0300290Y0040651D01*
X0300335Y0040497D01*
X0300376Y0040342D01*
X0300414Y0040185D01*
X0300447Y0040028D01*
X0300477Y0039870D01*
X0300503Y0039711D01*
X0300524Y0039552D01*
X0300542Y0039392D01*
X0300556Y0039232D01*
X0300566Y0039071D01*
X0300572Y0038911D01*
X0300574Y0038750D01*
X0300572Y0038589D01*
X0300566Y0038429D01*
X0300556Y0038268D01*
X0300542Y0038108D01*
X0300524Y0037948D01*
X0300503Y0037789D01*
X0300477Y0037630D01*
X0300447Y0037472D01*
X0300414Y0037315D01*
X0300376Y0037158D01*
X0300335Y0037003D01*
X0300290Y0036849D01*
X0300241Y0036696D01*
X0300188Y0036544D01*
X0300132Y0036393D01*
X0300071Y0036244D01*
X0300008Y0036096D01*
X0299940Y0035950D01*
X0299869Y0035806D01*
X0299795Y0035664D01*
X0299717Y0035523D01*
X0299635Y0035385D01*
X0299550Y0035248D01*
X0299462Y0035114D01*
X0299370Y0034982D01*
X0299275Y0034852D01*
X0299177Y0034724D01*
X0299076Y0034599D01*
X0298972Y0034477D01*
X0298865Y0034357D01*
X0298755Y0034240D01*
X0298642Y0034125D01*
X0298526Y0034014D01*
X0298407Y0033905D01*
X0298286Y0033800D01*
X0298162Y0033697D01*
X0298036Y0033597D01*
X0297908Y0033501D01*
X0297777Y0033408D01*
X0297643Y0033318D01*
X0297508Y0033231D01*
X0297370Y0033148D01*
X0297231Y0033068D01*
X0297089Y0032992D01*
X0296946Y0032919D01*
X0296801Y0032850D01*
X0296654Y0032784D01*
X0296506Y0032722D01*
X0296356Y0032664D01*
X0296205Y0032609D01*
X0296052Y0032558D01*
X0295898Y0032511D01*
X0295743Y0032468D01*
X0295587Y0032429D01*
X0295431Y0032393D01*
X0295273Y0032362D01*
X0295115Y0032334D01*
X0294956Y0032310D01*
X0294796Y0032290D01*
X0294636Y0032274D01*
X0294476Y0032262D01*
X0294315Y0032254D01*
X0294154Y0032250D01*
X0293994Y0032250D01*
X0293833Y0032254D01*
X0293672Y0032262D01*
X0293512Y0032274D01*
X0293352Y0032290D01*
X0293192Y0032310D01*
X0293033Y0032334D01*
X0292875Y0032362D01*
X0292717Y0032393D01*
X0292561Y0032429D01*
X0292405Y0032468D01*
X0292250Y0032511D01*
X0292096Y0032558D01*
X0291943Y0032609D01*
X0291792Y0032664D01*
X0291642Y0032722D01*
X0291494Y0032784D01*
X0291347Y0032850D01*
X0291202Y0032919D01*
X0291059Y0032992D01*
X0290917Y0033068D01*
X0290778Y0033148D01*
X0290640Y0033231D01*
X0290505Y0033318D01*
X0290371Y0033408D01*
X0290240Y0033501D01*
X0290112Y0033597D01*
X0289986Y0033697D01*
X0289862Y0033800D01*
X0289741Y0033905D01*
X0289622Y0034014D01*
X0289506Y0034125D01*
X0289393Y0034240D01*
X0289283Y0034357D01*
X0289176Y0034477D01*
X0289072Y0034599D01*
X0288971Y0034724D01*
X0288873Y0034852D01*
X0288778Y0034982D01*
X0288686Y0035114D01*
X0288598Y0035248D01*
X0288513Y0035385D01*
X0288431Y0035523D01*
X0288353Y0035664D01*
X0288279Y0035806D01*
X0288208Y0035950D01*
X0288140Y0036096D01*
X0288077Y0036244D01*
X0288016Y0036393D01*
X0287960Y0036544D01*
X0287907Y0036696D01*
X0287858Y0036849D01*
X0287813Y0037003D01*
X0287772Y0037158D01*
X0287734Y0037315D01*
X0287701Y0037472D01*
X0287671Y0037630D01*
X0287645Y0037789D01*
X0287624Y0037948D01*
X0287606Y0038108D01*
X0287592Y0038268D01*
X0287582Y0038429D01*
X0287576Y0038589D01*
X0287574Y0038750D01*
X0207574Y0038750D02*
X0207576Y0038911D01*
X0207582Y0039071D01*
X0207592Y0039232D01*
X0207606Y0039392D01*
X0207624Y0039552D01*
X0207645Y0039711D01*
X0207671Y0039870D01*
X0207701Y0040028D01*
X0207734Y0040185D01*
X0207772Y0040342D01*
X0207813Y0040497D01*
X0207858Y0040651D01*
X0207907Y0040804D01*
X0207960Y0040956D01*
X0208016Y0041107D01*
X0208077Y0041256D01*
X0208140Y0041404D01*
X0208208Y0041550D01*
X0208279Y0041694D01*
X0208353Y0041836D01*
X0208431Y0041977D01*
X0208513Y0042115D01*
X0208598Y0042252D01*
X0208686Y0042386D01*
X0208778Y0042518D01*
X0208873Y0042648D01*
X0208971Y0042776D01*
X0209072Y0042901D01*
X0209176Y0043023D01*
X0209283Y0043143D01*
X0209393Y0043260D01*
X0209506Y0043375D01*
X0209622Y0043486D01*
X0209741Y0043595D01*
X0209862Y0043700D01*
X0209986Y0043803D01*
X0210112Y0043903D01*
X0210240Y0043999D01*
X0210371Y0044092D01*
X0210505Y0044182D01*
X0210640Y0044269D01*
X0210778Y0044352D01*
X0210917Y0044432D01*
X0211059Y0044508D01*
X0211202Y0044581D01*
X0211347Y0044650D01*
X0211494Y0044716D01*
X0211642Y0044778D01*
X0211792Y0044836D01*
X0211943Y0044891D01*
X0212096Y0044942D01*
X0212250Y0044989D01*
X0212405Y0045032D01*
X0212561Y0045071D01*
X0212717Y0045107D01*
X0212875Y0045138D01*
X0213033Y0045166D01*
X0213192Y0045190D01*
X0213352Y0045210D01*
X0213512Y0045226D01*
X0213672Y0045238D01*
X0213833Y0045246D01*
X0213994Y0045250D01*
X0214154Y0045250D01*
X0214315Y0045246D01*
X0214476Y0045238D01*
X0214636Y0045226D01*
X0214796Y0045210D01*
X0214956Y0045190D01*
X0215115Y0045166D01*
X0215273Y0045138D01*
X0215431Y0045107D01*
X0215587Y0045071D01*
X0215743Y0045032D01*
X0215898Y0044989D01*
X0216052Y0044942D01*
X0216205Y0044891D01*
X0216356Y0044836D01*
X0216506Y0044778D01*
X0216654Y0044716D01*
X0216801Y0044650D01*
X0216946Y0044581D01*
X0217089Y0044508D01*
X0217231Y0044432D01*
X0217370Y0044352D01*
X0217508Y0044269D01*
X0217643Y0044182D01*
X0217777Y0044092D01*
X0217908Y0043999D01*
X0218036Y0043903D01*
X0218162Y0043803D01*
X0218286Y0043700D01*
X0218407Y0043595D01*
X0218526Y0043486D01*
X0218642Y0043375D01*
X0218755Y0043260D01*
X0218865Y0043143D01*
X0218972Y0043023D01*
X0219076Y0042901D01*
X0219177Y0042776D01*
X0219275Y0042648D01*
X0219370Y0042518D01*
X0219462Y0042386D01*
X0219550Y0042252D01*
X0219635Y0042115D01*
X0219717Y0041977D01*
X0219795Y0041836D01*
X0219869Y0041694D01*
X0219940Y0041550D01*
X0220008Y0041404D01*
X0220071Y0041256D01*
X0220132Y0041107D01*
X0220188Y0040956D01*
X0220241Y0040804D01*
X0220290Y0040651D01*
X0220335Y0040497D01*
X0220376Y0040342D01*
X0220414Y0040185D01*
X0220447Y0040028D01*
X0220477Y0039870D01*
X0220503Y0039711D01*
X0220524Y0039552D01*
X0220542Y0039392D01*
X0220556Y0039232D01*
X0220566Y0039071D01*
X0220572Y0038911D01*
X0220574Y0038750D01*
X0220572Y0038589D01*
X0220566Y0038429D01*
X0220556Y0038268D01*
X0220542Y0038108D01*
X0220524Y0037948D01*
X0220503Y0037789D01*
X0220477Y0037630D01*
X0220447Y0037472D01*
X0220414Y0037315D01*
X0220376Y0037158D01*
X0220335Y0037003D01*
X0220290Y0036849D01*
X0220241Y0036696D01*
X0220188Y0036544D01*
X0220132Y0036393D01*
X0220071Y0036244D01*
X0220008Y0036096D01*
X0219940Y0035950D01*
X0219869Y0035806D01*
X0219795Y0035664D01*
X0219717Y0035523D01*
X0219635Y0035385D01*
X0219550Y0035248D01*
X0219462Y0035114D01*
X0219370Y0034982D01*
X0219275Y0034852D01*
X0219177Y0034724D01*
X0219076Y0034599D01*
X0218972Y0034477D01*
X0218865Y0034357D01*
X0218755Y0034240D01*
X0218642Y0034125D01*
X0218526Y0034014D01*
X0218407Y0033905D01*
X0218286Y0033800D01*
X0218162Y0033697D01*
X0218036Y0033597D01*
X0217908Y0033501D01*
X0217777Y0033408D01*
X0217643Y0033318D01*
X0217508Y0033231D01*
X0217370Y0033148D01*
X0217231Y0033068D01*
X0217089Y0032992D01*
X0216946Y0032919D01*
X0216801Y0032850D01*
X0216654Y0032784D01*
X0216506Y0032722D01*
X0216356Y0032664D01*
X0216205Y0032609D01*
X0216052Y0032558D01*
X0215898Y0032511D01*
X0215743Y0032468D01*
X0215587Y0032429D01*
X0215431Y0032393D01*
X0215273Y0032362D01*
X0215115Y0032334D01*
X0214956Y0032310D01*
X0214796Y0032290D01*
X0214636Y0032274D01*
X0214476Y0032262D01*
X0214315Y0032254D01*
X0214154Y0032250D01*
X0213994Y0032250D01*
X0213833Y0032254D01*
X0213672Y0032262D01*
X0213512Y0032274D01*
X0213352Y0032290D01*
X0213192Y0032310D01*
X0213033Y0032334D01*
X0212875Y0032362D01*
X0212717Y0032393D01*
X0212561Y0032429D01*
X0212405Y0032468D01*
X0212250Y0032511D01*
X0212096Y0032558D01*
X0211943Y0032609D01*
X0211792Y0032664D01*
X0211642Y0032722D01*
X0211494Y0032784D01*
X0211347Y0032850D01*
X0211202Y0032919D01*
X0211059Y0032992D01*
X0210917Y0033068D01*
X0210778Y0033148D01*
X0210640Y0033231D01*
X0210505Y0033318D01*
X0210371Y0033408D01*
X0210240Y0033501D01*
X0210112Y0033597D01*
X0209986Y0033697D01*
X0209862Y0033800D01*
X0209741Y0033905D01*
X0209622Y0034014D01*
X0209506Y0034125D01*
X0209393Y0034240D01*
X0209283Y0034357D01*
X0209176Y0034477D01*
X0209072Y0034599D01*
X0208971Y0034724D01*
X0208873Y0034852D01*
X0208778Y0034982D01*
X0208686Y0035114D01*
X0208598Y0035248D01*
X0208513Y0035385D01*
X0208431Y0035523D01*
X0208353Y0035664D01*
X0208279Y0035806D01*
X0208208Y0035950D01*
X0208140Y0036096D01*
X0208077Y0036244D01*
X0208016Y0036393D01*
X0207960Y0036544D01*
X0207907Y0036696D01*
X0207858Y0036849D01*
X0207813Y0037003D01*
X0207772Y0037158D01*
X0207734Y0037315D01*
X0207701Y0037472D01*
X0207671Y0037630D01*
X0207645Y0037789D01*
X0207624Y0037948D01*
X0207606Y0038108D01*
X0207592Y0038268D01*
X0207582Y0038429D01*
X0207576Y0038589D01*
X0207574Y0038750D01*
X0145574Y0038750D02*
X0145576Y0038911D01*
X0145582Y0039071D01*
X0145592Y0039232D01*
X0145606Y0039392D01*
X0145624Y0039552D01*
X0145645Y0039711D01*
X0145671Y0039870D01*
X0145701Y0040028D01*
X0145734Y0040185D01*
X0145772Y0040342D01*
X0145813Y0040497D01*
X0145858Y0040651D01*
X0145907Y0040804D01*
X0145960Y0040956D01*
X0146016Y0041107D01*
X0146077Y0041256D01*
X0146140Y0041404D01*
X0146208Y0041550D01*
X0146279Y0041694D01*
X0146353Y0041836D01*
X0146431Y0041977D01*
X0146513Y0042115D01*
X0146598Y0042252D01*
X0146686Y0042386D01*
X0146778Y0042518D01*
X0146873Y0042648D01*
X0146971Y0042776D01*
X0147072Y0042901D01*
X0147176Y0043023D01*
X0147283Y0043143D01*
X0147393Y0043260D01*
X0147506Y0043375D01*
X0147622Y0043486D01*
X0147741Y0043595D01*
X0147862Y0043700D01*
X0147986Y0043803D01*
X0148112Y0043903D01*
X0148240Y0043999D01*
X0148371Y0044092D01*
X0148505Y0044182D01*
X0148640Y0044269D01*
X0148778Y0044352D01*
X0148917Y0044432D01*
X0149059Y0044508D01*
X0149202Y0044581D01*
X0149347Y0044650D01*
X0149494Y0044716D01*
X0149642Y0044778D01*
X0149792Y0044836D01*
X0149943Y0044891D01*
X0150096Y0044942D01*
X0150250Y0044989D01*
X0150405Y0045032D01*
X0150561Y0045071D01*
X0150717Y0045107D01*
X0150875Y0045138D01*
X0151033Y0045166D01*
X0151192Y0045190D01*
X0151352Y0045210D01*
X0151512Y0045226D01*
X0151672Y0045238D01*
X0151833Y0045246D01*
X0151994Y0045250D01*
X0152154Y0045250D01*
X0152315Y0045246D01*
X0152476Y0045238D01*
X0152636Y0045226D01*
X0152796Y0045210D01*
X0152956Y0045190D01*
X0153115Y0045166D01*
X0153273Y0045138D01*
X0153431Y0045107D01*
X0153587Y0045071D01*
X0153743Y0045032D01*
X0153898Y0044989D01*
X0154052Y0044942D01*
X0154205Y0044891D01*
X0154356Y0044836D01*
X0154506Y0044778D01*
X0154654Y0044716D01*
X0154801Y0044650D01*
X0154946Y0044581D01*
X0155089Y0044508D01*
X0155231Y0044432D01*
X0155370Y0044352D01*
X0155508Y0044269D01*
X0155643Y0044182D01*
X0155777Y0044092D01*
X0155908Y0043999D01*
X0156036Y0043903D01*
X0156162Y0043803D01*
X0156286Y0043700D01*
X0156407Y0043595D01*
X0156526Y0043486D01*
X0156642Y0043375D01*
X0156755Y0043260D01*
X0156865Y0043143D01*
X0156972Y0043023D01*
X0157076Y0042901D01*
X0157177Y0042776D01*
X0157275Y0042648D01*
X0157370Y0042518D01*
X0157462Y0042386D01*
X0157550Y0042252D01*
X0157635Y0042115D01*
X0157717Y0041977D01*
X0157795Y0041836D01*
X0157869Y0041694D01*
X0157940Y0041550D01*
X0158008Y0041404D01*
X0158071Y0041256D01*
X0158132Y0041107D01*
X0158188Y0040956D01*
X0158241Y0040804D01*
X0158290Y0040651D01*
X0158335Y0040497D01*
X0158376Y0040342D01*
X0158414Y0040185D01*
X0158447Y0040028D01*
X0158477Y0039870D01*
X0158503Y0039711D01*
X0158524Y0039552D01*
X0158542Y0039392D01*
X0158556Y0039232D01*
X0158566Y0039071D01*
X0158572Y0038911D01*
X0158574Y0038750D01*
X0158572Y0038589D01*
X0158566Y0038429D01*
X0158556Y0038268D01*
X0158542Y0038108D01*
X0158524Y0037948D01*
X0158503Y0037789D01*
X0158477Y0037630D01*
X0158447Y0037472D01*
X0158414Y0037315D01*
X0158376Y0037158D01*
X0158335Y0037003D01*
X0158290Y0036849D01*
X0158241Y0036696D01*
X0158188Y0036544D01*
X0158132Y0036393D01*
X0158071Y0036244D01*
X0158008Y0036096D01*
X0157940Y0035950D01*
X0157869Y0035806D01*
X0157795Y0035664D01*
X0157717Y0035523D01*
X0157635Y0035385D01*
X0157550Y0035248D01*
X0157462Y0035114D01*
X0157370Y0034982D01*
X0157275Y0034852D01*
X0157177Y0034724D01*
X0157076Y0034599D01*
X0156972Y0034477D01*
X0156865Y0034357D01*
X0156755Y0034240D01*
X0156642Y0034125D01*
X0156526Y0034014D01*
X0156407Y0033905D01*
X0156286Y0033800D01*
X0156162Y0033697D01*
X0156036Y0033597D01*
X0155908Y0033501D01*
X0155777Y0033408D01*
X0155643Y0033318D01*
X0155508Y0033231D01*
X0155370Y0033148D01*
X0155231Y0033068D01*
X0155089Y0032992D01*
X0154946Y0032919D01*
X0154801Y0032850D01*
X0154654Y0032784D01*
X0154506Y0032722D01*
X0154356Y0032664D01*
X0154205Y0032609D01*
X0154052Y0032558D01*
X0153898Y0032511D01*
X0153743Y0032468D01*
X0153587Y0032429D01*
X0153431Y0032393D01*
X0153273Y0032362D01*
X0153115Y0032334D01*
X0152956Y0032310D01*
X0152796Y0032290D01*
X0152636Y0032274D01*
X0152476Y0032262D01*
X0152315Y0032254D01*
X0152154Y0032250D01*
X0151994Y0032250D01*
X0151833Y0032254D01*
X0151672Y0032262D01*
X0151512Y0032274D01*
X0151352Y0032290D01*
X0151192Y0032310D01*
X0151033Y0032334D01*
X0150875Y0032362D01*
X0150717Y0032393D01*
X0150561Y0032429D01*
X0150405Y0032468D01*
X0150250Y0032511D01*
X0150096Y0032558D01*
X0149943Y0032609D01*
X0149792Y0032664D01*
X0149642Y0032722D01*
X0149494Y0032784D01*
X0149347Y0032850D01*
X0149202Y0032919D01*
X0149059Y0032992D01*
X0148917Y0033068D01*
X0148778Y0033148D01*
X0148640Y0033231D01*
X0148505Y0033318D01*
X0148371Y0033408D01*
X0148240Y0033501D01*
X0148112Y0033597D01*
X0147986Y0033697D01*
X0147862Y0033800D01*
X0147741Y0033905D01*
X0147622Y0034014D01*
X0147506Y0034125D01*
X0147393Y0034240D01*
X0147283Y0034357D01*
X0147176Y0034477D01*
X0147072Y0034599D01*
X0146971Y0034724D01*
X0146873Y0034852D01*
X0146778Y0034982D01*
X0146686Y0035114D01*
X0146598Y0035248D01*
X0146513Y0035385D01*
X0146431Y0035523D01*
X0146353Y0035664D01*
X0146279Y0035806D01*
X0146208Y0035950D01*
X0146140Y0036096D01*
X0146077Y0036244D01*
X0146016Y0036393D01*
X0145960Y0036544D01*
X0145907Y0036696D01*
X0145858Y0036849D01*
X0145813Y0037003D01*
X0145772Y0037158D01*
X0145734Y0037315D01*
X0145701Y0037472D01*
X0145671Y0037630D01*
X0145645Y0037789D01*
X0145624Y0037948D01*
X0145606Y0038108D01*
X0145592Y0038268D01*
X0145582Y0038429D01*
X0145576Y0038589D01*
X0145574Y0038750D01*
X0065574Y0038750D02*
X0065576Y0038911D01*
X0065582Y0039071D01*
X0065592Y0039232D01*
X0065606Y0039392D01*
X0065624Y0039552D01*
X0065645Y0039711D01*
X0065671Y0039870D01*
X0065701Y0040028D01*
X0065734Y0040185D01*
X0065772Y0040342D01*
X0065813Y0040497D01*
X0065858Y0040651D01*
X0065907Y0040804D01*
X0065960Y0040956D01*
X0066016Y0041107D01*
X0066077Y0041256D01*
X0066140Y0041404D01*
X0066208Y0041550D01*
X0066279Y0041694D01*
X0066353Y0041836D01*
X0066431Y0041977D01*
X0066513Y0042115D01*
X0066598Y0042252D01*
X0066686Y0042386D01*
X0066778Y0042518D01*
X0066873Y0042648D01*
X0066971Y0042776D01*
X0067072Y0042901D01*
X0067176Y0043023D01*
X0067283Y0043143D01*
X0067393Y0043260D01*
X0067506Y0043375D01*
X0067622Y0043486D01*
X0067741Y0043595D01*
X0067862Y0043700D01*
X0067986Y0043803D01*
X0068112Y0043903D01*
X0068240Y0043999D01*
X0068371Y0044092D01*
X0068505Y0044182D01*
X0068640Y0044269D01*
X0068778Y0044352D01*
X0068917Y0044432D01*
X0069059Y0044508D01*
X0069202Y0044581D01*
X0069347Y0044650D01*
X0069494Y0044716D01*
X0069642Y0044778D01*
X0069792Y0044836D01*
X0069943Y0044891D01*
X0070096Y0044942D01*
X0070250Y0044989D01*
X0070405Y0045032D01*
X0070561Y0045071D01*
X0070717Y0045107D01*
X0070875Y0045138D01*
X0071033Y0045166D01*
X0071192Y0045190D01*
X0071352Y0045210D01*
X0071512Y0045226D01*
X0071672Y0045238D01*
X0071833Y0045246D01*
X0071994Y0045250D01*
X0072154Y0045250D01*
X0072315Y0045246D01*
X0072476Y0045238D01*
X0072636Y0045226D01*
X0072796Y0045210D01*
X0072956Y0045190D01*
X0073115Y0045166D01*
X0073273Y0045138D01*
X0073431Y0045107D01*
X0073587Y0045071D01*
X0073743Y0045032D01*
X0073898Y0044989D01*
X0074052Y0044942D01*
X0074205Y0044891D01*
X0074356Y0044836D01*
X0074506Y0044778D01*
X0074654Y0044716D01*
X0074801Y0044650D01*
X0074946Y0044581D01*
X0075089Y0044508D01*
X0075231Y0044432D01*
X0075370Y0044352D01*
X0075508Y0044269D01*
X0075643Y0044182D01*
X0075777Y0044092D01*
X0075908Y0043999D01*
X0076036Y0043903D01*
X0076162Y0043803D01*
X0076286Y0043700D01*
X0076407Y0043595D01*
X0076526Y0043486D01*
X0076642Y0043375D01*
X0076755Y0043260D01*
X0076865Y0043143D01*
X0076972Y0043023D01*
X0077076Y0042901D01*
X0077177Y0042776D01*
X0077275Y0042648D01*
X0077370Y0042518D01*
X0077462Y0042386D01*
X0077550Y0042252D01*
X0077635Y0042115D01*
X0077717Y0041977D01*
X0077795Y0041836D01*
X0077869Y0041694D01*
X0077940Y0041550D01*
X0078008Y0041404D01*
X0078071Y0041256D01*
X0078132Y0041107D01*
X0078188Y0040956D01*
X0078241Y0040804D01*
X0078290Y0040651D01*
X0078335Y0040497D01*
X0078376Y0040342D01*
X0078414Y0040185D01*
X0078447Y0040028D01*
X0078477Y0039870D01*
X0078503Y0039711D01*
X0078524Y0039552D01*
X0078542Y0039392D01*
X0078556Y0039232D01*
X0078566Y0039071D01*
X0078572Y0038911D01*
X0078574Y0038750D01*
X0078572Y0038589D01*
X0078566Y0038429D01*
X0078556Y0038268D01*
X0078542Y0038108D01*
X0078524Y0037948D01*
X0078503Y0037789D01*
X0078477Y0037630D01*
X0078447Y0037472D01*
X0078414Y0037315D01*
X0078376Y0037158D01*
X0078335Y0037003D01*
X0078290Y0036849D01*
X0078241Y0036696D01*
X0078188Y0036544D01*
X0078132Y0036393D01*
X0078071Y0036244D01*
X0078008Y0036096D01*
X0077940Y0035950D01*
X0077869Y0035806D01*
X0077795Y0035664D01*
X0077717Y0035523D01*
X0077635Y0035385D01*
X0077550Y0035248D01*
X0077462Y0035114D01*
X0077370Y0034982D01*
X0077275Y0034852D01*
X0077177Y0034724D01*
X0077076Y0034599D01*
X0076972Y0034477D01*
X0076865Y0034357D01*
X0076755Y0034240D01*
X0076642Y0034125D01*
X0076526Y0034014D01*
X0076407Y0033905D01*
X0076286Y0033800D01*
X0076162Y0033697D01*
X0076036Y0033597D01*
X0075908Y0033501D01*
X0075777Y0033408D01*
X0075643Y0033318D01*
X0075508Y0033231D01*
X0075370Y0033148D01*
X0075231Y0033068D01*
X0075089Y0032992D01*
X0074946Y0032919D01*
X0074801Y0032850D01*
X0074654Y0032784D01*
X0074506Y0032722D01*
X0074356Y0032664D01*
X0074205Y0032609D01*
X0074052Y0032558D01*
X0073898Y0032511D01*
X0073743Y0032468D01*
X0073587Y0032429D01*
X0073431Y0032393D01*
X0073273Y0032362D01*
X0073115Y0032334D01*
X0072956Y0032310D01*
X0072796Y0032290D01*
X0072636Y0032274D01*
X0072476Y0032262D01*
X0072315Y0032254D01*
X0072154Y0032250D01*
X0071994Y0032250D01*
X0071833Y0032254D01*
X0071672Y0032262D01*
X0071512Y0032274D01*
X0071352Y0032290D01*
X0071192Y0032310D01*
X0071033Y0032334D01*
X0070875Y0032362D01*
X0070717Y0032393D01*
X0070561Y0032429D01*
X0070405Y0032468D01*
X0070250Y0032511D01*
X0070096Y0032558D01*
X0069943Y0032609D01*
X0069792Y0032664D01*
X0069642Y0032722D01*
X0069494Y0032784D01*
X0069347Y0032850D01*
X0069202Y0032919D01*
X0069059Y0032992D01*
X0068917Y0033068D01*
X0068778Y0033148D01*
X0068640Y0033231D01*
X0068505Y0033318D01*
X0068371Y0033408D01*
X0068240Y0033501D01*
X0068112Y0033597D01*
X0067986Y0033697D01*
X0067862Y0033800D01*
X0067741Y0033905D01*
X0067622Y0034014D01*
X0067506Y0034125D01*
X0067393Y0034240D01*
X0067283Y0034357D01*
X0067176Y0034477D01*
X0067072Y0034599D01*
X0066971Y0034724D01*
X0066873Y0034852D01*
X0066778Y0034982D01*
X0066686Y0035114D01*
X0066598Y0035248D01*
X0066513Y0035385D01*
X0066431Y0035523D01*
X0066353Y0035664D01*
X0066279Y0035806D01*
X0066208Y0035950D01*
X0066140Y0036096D01*
X0066077Y0036244D01*
X0066016Y0036393D01*
X0065960Y0036544D01*
X0065907Y0036696D01*
X0065858Y0036849D01*
X0065813Y0037003D01*
X0065772Y0037158D01*
X0065734Y0037315D01*
X0065701Y0037472D01*
X0065671Y0037630D01*
X0065645Y0037789D01*
X0065624Y0037948D01*
X0065606Y0038108D01*
X0065592Y0038268D01*
X0065582Y0038429D01*
X0065576Y0038589D01*
X0065574Y0038750D01*
M02*
