%
M48
M72
T01C0.0150
T02C0.0200
T03C0.0320
T04C0.0400
T05C0.1300
%
T01
X6207Y7875
X5707Y9875
X5207Y10375
X6707Y10175
X7707Y10875
X7207Y11375
X8725Y10875
X9207Y10875
X10207Y11525
X10507Y11075
X10707Y10375
X11207Y10875
X12207Y11875
X12707Y12375
X12557Y13425
X13007Y14225
X13207Y15375
X13957Y15375
X14857Y15375
X15957Y14825
X16707Y15375
X16707Y13710
X14707Y14125
X15207Y11525
X14707Y11175
X15457Y9875
X15707Y9375
X16207Y8875
X15655Y8718
X15707Y7375
X16707Y7875
X17207Y8375
X17457Y10375
X19407Y10375
X19907Y9875
X20907Y10175
X21907Y10875
X21407Y11375
X22925Y10875
X23407Y10875
X24407Y11525
X24707Y11075
X24907Y10375
X25407Y10875
X26407Y11875
X26907Y12375
X26757Y13425
X27207Y14225
X27407Y15375
X28157Y15375
X29057Y15375
X30157Y14825
X30907Y15375
X30907Y13710
X28907Y14125
X29407Y11525
X28907Y11175
X29657Y9875
X29907Y9375
X30407Y8875
X29855Y8718
X29907Y7375
X30907Y7875
X31407Y8375
X31657Y10375
X27407Y10375
X26373Y8316
X24907Y8375
X23407Y6375
X22907Y6875
X22407Y7375
X20407Y7875
X22407Y13375
X23157Y13375
X23657Y14275
X24207Y14425
X24207Y14875
X24457Y15175
X23757Y15525
X23307Y14925
X22907Y15875
X22157Y15575
X21907Y16025
X21407Y15375
X21407Y13875
X19907Y15375
X23407Y17225
X25257Y17025
X25607Y15775
X25663Y14675
X26907Y22575
X26373Y24516
X24907Y24575
X24907Y26575
X25407Y27075
X24707Y27275
X24407Y27725
X23407Y27075
X22925Y27075
X21907Y27075
X21407Y27575
X20907Y26375
X19907Y26075
X19407Y26575
X17457Y26575
X16207Y25075
X15655Y24918
X15707Y25575
X15457Y26075
X14707Y27375
X15207Y27725
X13207Y26575
X12207Y28075
X12707Y28575
X12557Y29625
X13007Y30425
X13207Y31575
X13957Y31575
X14857Y31575
X15957Y31025
X16707Y31575
X16707Y29910
X14707Y30325
X11463Y30875
X10257Y31375
X10007Y31075
X10007Y30625
X9457Y30475
X9107Y31125
X9557Y31725
X8707Y32075
X7957Y31775
X7707Y32225
X7207Y31575
X5707Y31575
X7207Y30075
X8207Y29575
X8957Y29575
X10207Y27725
X10507Y27275
X10707Y26575
X11207Y27075
X9207Y27075
X8725Y27075
X7707Y27075
X7207Y27575
X6707Y26375
X5707Y26075
X5207Y26575
X6207Y24075
X8207Y23575
X8707Y23075
X9207Y22575
X10707Y24575
X12173Y24516
X12707Y22575
X15707Y23575
X16707Y24075
X17207Y24575
X20407Y24075
X22407Y23575
X22907Y23075
X23407Y22575
X27407Y26575
X28907Y27375
X29407Y27725
X29657Y26075
X29907Y25575
X29855Y24918
X30407Y25075
X30907Y24075
X31407Y24575
X29907Y23575
X31657Y26575
X30907Y29910
X30157Y31025
X30907Y31575
X29057Y31575
X28157Y31575
X27407Y31575
X27207Y30425
X26757Y29625
X26907Y28575
X26407Y28075
X28907Y30325
X25663Y30875
X25607Y31975
X24457Y31375
X24207Y31075
X24207Y30625
X23657Y30475
X23307Y31125
X23757Y31725
X22907Y32075
X22157Y31775
X21907Y32225
X21407Y31575
X19907Y31575
X21407Y30075
X22407Y29575
X23157Y29575
X23407Y33425
X25257Y33225
X11407Y31975
X11057Y33225
X9207Y33425
X9207Y17225
X7707Y16025
X7957Y15575
X7207Y15375
X5707Y15375
X7207Y13875
X8207Y13375
X8957Y13375
X9457Y14275
X10007Y14425
X10007Y14875
X10257Y15175
X9557Y15525
X9107Y14925
X8707Y15875
X11057Y17025
X11407Y15775
X11463Y14675
X13207Y10375
X12173Y8316
X10707Y8375
X9207Y6375
X8707Y6875
X8207Y7375
X12707Y6375
X26907Y6375
T02
X25907Y15375
X24907Y15375
X24907Y16375
X24907Y17375
X25907Y17375
X25907Y16375
X11707Y16375
X10707Y16375
X10707Y17375
X11707Y17375
X11707Y15375
X10707Y15375
X10707Y31575
X10707Y32575
X11707Y32575
X11707Y31575
X11707Y33575
X10707Y33575
X24907Y33575
X25907Y33575
X25907Y32575
X24907Y32575
X24907Y31575
X25907Y31575
T03
X29257Y29358
X29757Y28492
X25907Y21825
X24907Y21825
X21057Y28542
X21557Y29408
X15557Y28492
X15057Y29358
X7357Y29408
X6857Y28542
X10707Y21825
X11707Y21825
X15057Y13158
X15557Y12292
X21057Y12342
X21557Y13208
X29257Y13158
X29757Y12292
X25907Y5625
X24907Y5625
X11707Y5625
X10707Y5625
X6857Y12342
X7357Y13208
T04
X8707Y18375
X9707Y18375
X10707Y18375
X11707Y18375
X12707Y18375
X13707Y18375
X13707Y19575
X12707Y19575
X11707Y19575
X10707Y19575
X9707Y19575
X8707Y19575
X22907Y19575
X23907Y19575
X24907Y19575
X25907Y19575
X26907Y19575
X27907Y19575
X27907Y18375
X26907Y18375
X25907Y18375
X24907Y18375
X23907Y18375
X22907Y18375
X22907Y3375
X23907Y3375
X24907Y3375
X25907Y3375
X26907Y3375
X27907Y3375
X13707Y3375
X12707Y3375
X11707Y3375
X10707Y3375
X9707Y3375
X8707Y3375
X8707Y34575
X9707Y34575
X10707Y34575
X11707Y34575
X12707Y34575
X13707Y34575
X22907Y34575
X23907Y34575
X24907Y34575
X25907Y34575
X26907Y34575
X27907Y34575
T05
X7207Y3875
X15207Y3875
X21407Y3875
X29407Y3875
X29407Y17875
X29407Y20075
X21407Y20075
X21407Y17875
X15207Y17875
X15207Y20075
X7207Y20075
X7207Y17875
X7207Y34075
X15207Y34075
X21407Y34075
X29407Y34075
M30
