G75*
%MOIN*%
%OFA0B0*%
%FSLAX25Y25*%
%IPPOS*%
%LPD*%
%AMOC8*
5,1,8,0,0,1.08239X$1,22.5*
%
%ADD10C,0.00900*%
D10*
X0280154Y0174278D02*
X0284616Y0174278D01*
X0285508Y0175170D01*
X0285508Y0176955D01*
X0284616Y0177847D01*
X0280154Y0177847D01*
X0281939Y0180033D02*
X0281939Y0182710D01*
X0282831Y0183602D01*
X0284616Y0183602D01*
X0285508Y0182710D01*
X0285508Y0180033D01*
X0287293Y0180033D02*
X0281939Y0180033D01*
X0282831Y0185787D02*
X0282831Y0189357D01*
X0280154Y0191542D02*
X0280154Y0195112D01*
X0280154Y0193327D02*
X0285508Y0193327D01*
X0284616Y0197297D02*
X0282831Y0197297D01*
X0281939Y0198190D01*
X0281939Y0199975D01*
X0282831Y0200867D01*
X0284616Y0200867D01*
X0285508Y0199975D01*
X0285508Y0198190D01*
X0284616Y0197297D01*
X0285508Y0203052D02*
X0285508Y0205729D01*
X0284616Y0206622D01*
X0282831Y0206622D01*
X0281939Y0205729D01*
X0281939Y0203052D01*
X0287293Y0203052D01*
X0285508Y0208807D02*
X0280154Y0208807D01*
X0285508Y0208807D02*
X0285508Y0212377D01*
X0284616Y0214562D02*
X0283723Y0215454D01*
X0283723Y0218132D01*
X0282831Y0218132D02*
X0285508Y0218132D01*
X0285508Y0215454D01*
X0284616Y0214562D01*
X0281939Y0215454D02*
X0281939Y0217239D01*
X0282831Y0218132D01*
X0281939Y0220317D02*
X0284616Y0220317D01*
X0285508Y0221209D01*
X0285508Y0223887D01*
X0286401Y0223887D02*
X0287293Y0222994D01*
X0287293Y0222102D01*
X0286401Y0223887D02*
X0281939Y0223887D01*
X0282831Y0226072D02*
X0281939Y0226964D01*
X0281939Y0228749D01*
X0282831Y0229642D01*
X0283723Y0229642D01*
X0283723Y0226072D01*
X0282831Y0226072D02*
X0284616Y0226072D01*
X0285508Y0226964D01*
X0285508Y0228749D01*
X0285508Y0231827D02*
X0281939Y0231827D01*
X0283723Y0231827D02*
X0281939Y0233612D01*
X0281939Y0234504D01*
M02*
