G75*
%MOIN*%
%OFA0B0*%
%FSLAX25Y25*%
%IPPOS*%
%LPD*%
%AMOC8*
5,1,8,0,0,1.08239X$1,22.5*
%
%ADD10C,0.00800*%
%ADD11C,0.00000*%
D10*
X0113333Y0100000D02*
X0283333Y0100000D01*
X0283601Y0100027D01*
X0283868Y0100060D01*
X0284135Y0100100D01*
X0284400Y0100146D01*
X0284665Y0100199D01*
X0284927Y0100258D01*
X0285189Y0100324D01*
X0285448Y0100396D01*
X0285706Y0100475D01*
X0285962Y0100560D01*
X0286216Y0100651D01*
X0286467Y0100748D01*
X0286716Y0100851D01*
X0286962Y0100960D01*
X0287206Y0101076D01*
X0287446Y0101197D01*
X0287684Y0101324D01*
X0287918Y0101457D01*
X0288149Y0101596D01*
X0288377Y0101740D01*
X0288601Y0101890D01*
X0288821Y0102045D01*
X0289038Y0102206D01*
X0289250Y0102372D01*
X0289458Y0102543D01*
X0289662Y0102719D01*
X0289862Y0102900D01*
X0290057Y0103085D01*
X0290248Y0103276D01*
X0290433Y0103471D01*
X0290614Y0103671D01*
X0290790Y0103875D01*
X0290961Y0104083D01*
X0291127Y0104295D01*
X0291288Y0104512D01*
X0291443Y0104732D01*
X0291593Y0104956D01*
X0291737Y0105184D01*
X0291876Y0105415D01*
X0292009Y0105649D01*
X0292136Y0105887D01*
X0292257Y0106127D01*
X0292373Y0106371D01*
X0292482Y0106617D01*
X0292585Y0106866D01*
X0292682Y0107117D01*
X0292773Y0107371D01*
X0292858Y0107627D01*
X0292937Y0107885D01*
X0293009Y0108144D01*
X0293075Y0108406D01*
X0293134Y0108668D01*
X0293187Y0108933D01*
X0293233Y0109198D01*
X0293273Y0109465D01*
X0293306Y0109732D01*
X0293333Y0110000D01*
X0293333Y0300000D01*
X0293306Y0300268D01*
X0293273Y0300535D01*
X0293233Y0300802D01*
X0293187Y0301067D01*
X0293134Y0301332D01*
X0293075Y0301594D01*
X0293009Y0301856D01*
X0292937Y0302115D01*
X0292858Y0302373D01*
X0292773Y0302629D01*
X0292682Y0302883D01*
X0292585Y0303134D01*
X0292482Y0303383D01*
X0292373Y0303629D01*
X0292257Y0303873D01*
X0292136Y0304113D01*
X0292009Y0304351D01*
X0291876Y0304585D01*
X0291737Y0304816D01*
X0291593Y0305044D01*
X0291443Y0305268D01*
X0291288Y0305488D01*
X0291127Y0305705D01*
X0290961Y0305917D01*
X0290790Y0306125D01*
X0290614Y0306329D01*
X0290433Y0306529D01*
X0290248Y0306724D01*
X0290057Y0306915D01*
X0289862Y0307100D01*
X0289662Y0307281D01*
X0289458Y0307457D01*
X0289250Y0307628D01*
X0289038Y0307794D01*
X0288821Y0307955D01*
X0288601Y0308110D01*
X0288377Y0308260D01*
X0288149Y0308404D01*
X0287918Y0308543D01*
X0287684Y0308676D01*
X0287446Y0308803D01*
X0287206Y0308924D01*
X0286962Y0309040D01*
X0286716Y0309149D01*
X0286467Y0309252D01*
X0286216Y0309349D01*
X0285962Y0309440D01*
X0285706Y0309525D01*
X0285448Y0309604D01*
X0285189Y0309676D01*
X0284927Y0309742D01*
X0284665Y0309801D01*
X0284400Y0309854D01*
X0284135Y0309900D01*
X0283868Y0309940D01*
X0283601Y0309973D01*
X0283333Y0310000D01*
X0113333Y0310000D01*
X0103333Y0300000D02*
X0103333Y0270000D01*
X0103360Y0269732D01*
X0103393Y0269465D01*
X0103433Y0269198D01*
X0103479Y0268933D01*
X0103532Y0268668D01*
X0103591Y0268406D01*
X0103657Y0268144D01*
X0103729Y0267885D01*
X0103808Y0267627D01*
X0103893Y0267371D01*
X0103984Y0267117D01*
X0104081Y0266866D01*
X0104184Y0266617D01*
X0104293Y0266371D01*
X0104409Y0266127D01*
X0104530Y0265887D01*
X0104657Y0265649D01*
X0104790Y0265415D01*
X0104929Y0265184D01*
X0105073Y0264956D01*
X0105223Y0264732D01*
X0105378Y0264512D01*
X0105539Y0264295D01*
X0105705Y0264083D01*
X0105876Y0263875D01*
X0106052Y0263671D01*
X0106233Y0263471D01*
X0106418Y0263276D01*
X0106609Y0263085D01*
X0106804Y0262900D01*
X0107004Y0262719D01*
X0107208Y0262543D01*
X0107416Y0262372D01*
X0107628Y0262206D01*
X0107845Y0262045D01*
X0108065Y0261890D01*
X0108289Y0261740D01*
X0108517Y0261596D01*
X0108748Y0261457D01*
X0108982Y0261324D01*
X0109220Y0261197D01*
X0109460Y0261076D01*
X0109704Y0260960D01*
X0109950Y0260851D01*
X0110199Y0260748D01*
X0110450Y0260651D01*
X0110704Y0260560D01*
X0110960Y0260475D01*
X0111218Y0260396D01*
X0111477Y0260324D01*
X0111739Y0260258D01*
X0112001Y0260199D01*
X0112266Y0260146D01*
X0112531Y0260100D01*
X0112798Y0260060D01*
X0113065Y0260027D01*
X0113333Y0260000D01*
X0116333Y0260000D01*
X0116333Y0259999D02*
X0116557Y0259982D01*
X0116780Y0259971D01*
X0117004Y0259965D01*
X0117228Y0259964D01*
X0117451Y0259969D01*
X0117675Y0259980D01*
X0117898Y0259995D01*
X0118121Y0260016D01*
X0118343Y0260043D01*
X0118564Y0260075D01*
X0118785Y0260112D01*
X0119005Y0260155D01*
X0119223Y0260203D01*
X0119441Y0260256D01*
X0119657Y0260314D01*
X0119871Y0260378D01*
X0120084Y0260447D01*
X0120295Y0260521D01*
X0120505Y0260600D01*
X0120712Y0260684D01*
X0120917Y0260773D01*
X0121120Y0260867D01*
X0121321Y0260966D01*
X0121519Y0261070D01*
X0121715Y0261178D01*
X0121908Y0261292D01*
X0122098Y0261410D01*
X0122285Y0261532D01*
X0122469Y0261659D01*
X0122650Y0261791D01*
X0122828Y0261926D01*
X0123003Y0262066D01*
X0123174Y0262211D01*
X0123341Y0262359D01*
X0123505Y0262511D01*
X0123665Y0262668D01*
X0123822Y0262828D01*
X0123974Y0262992D01*
X0124122Y0263159D01*
X0124267Y0263330D01*
X0124407Y0263505D01*
X0124542Y0263683D01*
X0124674Y0263864D01*
X0124801Y0264048D01*
X0124923Y0264235D01*
X0125041Y0264425D01*
X0125155Y0264618D01*
X0125263Y0264814D01*
X0125367Y0265012D01*
X0125466Y0265213D01*
X0125560Y0265416D01*
X0125649Y0265621D01*
X0125733Y0265828D01*
X0125812Y0266038D01*
X0125886Y0266249D01*
X0125955Y0266462D01*
X0126019Y0266676D01*
X0126077Y0266892D01*
X0126130Y0267110D01*
X0126178Y0267328D01*
X0126221Y0267548D01*
X0126258Y0267769D01*
X0126290Y0267990D01*
X0126317Y0268212D01*
X0126338Y0268435D01*
X0126353Y0268658D01*
X0126364Y0268882D01*
X0126369Y0269105D01*
X0126368Y0269329D01*
X0126362Y0269553D01*
X0126351Y0269776D01*
X0126334Y0270000D01*
X0126333Y0270000D02*
X0126333Y0280000D01*
X0126236Y0280099D01*
X0126142Y0280202D01*
X0126051Y0280306D01*
X0125963Y0280414D01*
X0125878Y0280523D01*
X0125796Y0280636D01*
X0125717Y0280750D01*
X0125642Y0280866D01*
X0125570Y0280985D01*
X0125501Y0281106D01*
X0125435Y0281228D01*
X0125373Y0281352D01*
X0125315Y0281478D01*
X0125260Y0281606D01*
X0125208Y0281735D01*
X0125161Y0281865D01*
X0125117Y0281997D01*
X0125076Y0282130D01*
X0125040Y0282264D01*
X0125007Y0282399D01*
X0124978Y0282534D01*
X0124953Y0282671D01*
X0124932Y0282808D01*
X0124914Y0282946D01*
X0124901Y0283084D01*
X0124891Y0283222D01*
X0124885Y0283361D01*
X0124883Y0283500D01*
X0124885Y0283639D01*
X0124891Y0283778D01*
X0124901Y0283916D01*
X0124914Y0284054D01*
X0124932Y0284192D01*
X0124953Y0284329D01*
X0124978Y0284466D01*
X0125007Y0284601D01*
X0125040Y0284736D01*
X0125076Y0284870D01*
X0125117Y0285003D01*
X0125161Y0285135D01*
X0125208Y0285265D01*
X0125260Y0285394D01*
X0125315Y0285522D01*
X0125373Y0285648D01*
X0125435Y0285772D01*
X0125501Y0285894D01*
X0125570Y0286015D01*
X0125642Y0286134D01*
X0125717Y0286250D01*
X0125796Y0286364D01*
X0125878Y0286477D01*
X0125963Y0286586D01*
X0126051Y0286694D01*
X0126142Y0286798D01*
X0126236Y0286901D01*
X0126333Y0287000D01*
X0126432Y0287097D01*
X0126535Y0287191D01*
X0126639Y0287282D01*
X0126747Y0287370D01*
X0126856Y0287455D01*
X0126969Y0287537D01*
X0127083Y0287616D01*
X0127199Y0287691D01*
X0127318Y0287763D01*
X0127439Y0287832D01*
X0127561Y0287898D01*
X0127685Y0287960D01*
X0127811Y0288018D01*
X0127939Y0288073D01*
X0128068Y0288125D01*
X0128198Y0288172D01*
X0128330Y0288216D01*
X0128463Y0288257D01*
X0128597Y0288293D01*
X0128732Y0288326D01*
X0128867Y0288355D01*
X0129004Y0288380D01*
X0129141Y0288401D01*
X0129279Y0288419D01*
X0129417Y0288432D01*
X0129555Y0288442D01*
X0129694Y0288448D01*
X0129833Y0288450D01*
X0129972Y0288448D01*
X0130111Y0288442D01*
X0130249Y0288432D01*
X0130387Y0288419D01*
X0130525Y0288401D01*
X0130662Y0288380D01*
X0130799Y0288355D01*
X0130934Y0288326D01*
X0131069Y0288293D01*
X0131203Y0288257D01*
X0131336Y0288216D01*
X0131468Y0288172D01*
X0131598Y0288125D01*
X0131727Y0288073D01*
X0131855Y0288018D01*
X0131981Y0287960D01*
X0132105Y0287898D01*
X0132227Y0287832D01*
X0132348Y0287763D01*
X0132467Y0287691D01*
X0132583Y0287616D01*
X0132697Y0287537D01*
X0132810Y0287455D01*
X0132919Y0287370D01*
X0133027Y0287282D01*
X0133131Y0287191D01*
X0133234Y0287097D01*
X0133333Y0287000D01*
X0263333Y0287000D01*
X0263433Y0287098D01*
X0263536Y0287193D01*
X0263642Y0287284D01*
X0263751Y0287373D01*
X0263861Y0287459D01*
X0263975Y0287541D01*
X0264090Y0287621D01*
X0264208Y0287697D01*
X0264328Y0287769D01*
X0264450Y0287838D01*
X0264573Y0287904D01*
X0264699Y0287966D01*
X0264826Y0288025D01*
X0264955Y0288080D01*
X0265085Y0288131D01*
X0265217Y0288179D01*
X0265350Y0288223D01*
X0265484Y0288263D01*
X0265620Y0288299D01*
X0265756Y0288331D01*
X0265893Y0288360D01*
X0266031Y0288385D01*
X0266170Y0288405D01*
X0266309Y0288422D01*
X0266448Y0288435D01*
X0266588Y0288444D01*
X0266728Y0288449D01*
X0266868Y0288450D01*
X0267008Y0288447D01*
X0267148Y0288440D01*
X0267288Y0288429D01*
X0267427Y0288414D01*
X0267566Y0288395D01*
X0267704Y0288373D01*
X0267842Y0288346D01*
X0267978Y0288316D01*
X0268114Y0288281D01*
X0268249Y0288243D01*
X0268383Y0288201D01*
X0268515Y0288155D01*
X0268646Y0288106D01*
X0268776Y0288053D01*
X0268904Y0287996D01*
X0269030Y0287936D01*
X0269155Y0287872D01*
X0269278Y0287804D01*
X0269398Y0287733D01*
X0269517Y0287659D01*
X0269634Y0287581D01*
X0269748Y0287501D01*
X0269860Y0287416D01*
X0269970Y0287329D01*
X0270077Y0287239D01*
X0270181Y0287146D01*
X0270283Y0287049D01*
X0270382Y0286950D01*
X0270479Y0286848D01*
X0270572Y0286744D01*
X0270662Y0286637D01*
X0270749Y0286527D01*
X0270834Y0286415D01*
X0270914Y0286301D01*
X0270992Y0286184D01*
X0271066Y0286065D01*
X0271137Y0285945D01*
X0271205Y0285822D01*
X0271269Y0285697D01*
X0271329Y0285571D01*
X0271386Y0285443D01*
X0271439Y0285313D01*
X0271488Y0285182D01*
X0271534Y0285050D01*
X0271576Y0284916D01*
X0271614Y0284781D01*
X0271649Y0284645D01*
X0271679Y0284509D01*
X0271706Y0284371D01*
X0271728Y0284233D01*
X0271747Y0284094D01*
X0271762Y0283955D01*
X0271773Y0283815D01*
X0271780Y0283675D01*
X0271783Y0283535D01*
X0271782Y0283395D01*
X0271777Y0283255D01*
X0271768Y0283115D01*
X0271755Y0282976D01*
X0271738Y0282837D01*
X0271718Y0282698D01*
X0271693Y0282560D01*
X0271664Y0282423D01*
X0271632Y0282287D01*
X0271596Y0282151D01*
X0271556Y0282017D01*
X0271512Y0281884D01*
X0271464Y0281752D01*
X0271413Y0281622D01*
X0271358Y0281493D01*
X0271299Y0281366D01*
X0271237Y0281240D01*
X0271171Y0281117D01*
X0271102Y0280995D01*
X0271030Y0280875D01*
X0270954Y0280757D01*
X0270874Y0280642D01*
X0270792Y0280528D01*
X0270706Y0280418D01*
X0270617Y0280309D01*
X0270526Y0280203D01*
X0270431Y0280100D01*
X0270333Y0280000D01*
X0270333Y0130000D01*
X0270430Y0129901D01*
X0270524Y0129798D01*
X0270615Y0129694D01*
X0270703Y0129586D01*
X0270788Y0129477D01*
X0270870Y0129364D01*
X0270949Y0129250D01*
X0271024Y0129134D01*
X0271096Y0129015D01*
X0271165Y0128894D01*
X0271231Y0128772D01*
X0271293Y0128648D01*
X0271351Y0128522D01*
X0271406Y0128394D01*
X0271458Y0128265D01*
X0271505Y0128135D01*
X0271549Y0128003D01*
X0271590Y0127870D01*
X0271626Y0127736D01*
X0271659Y0127601D01*
X0271688Y0127466D01*
X0271713Y0127329D01*
X0271734Y0127192D01*
X0271752Y0127054D01*
X0271765Y0126916D01*
X0271775Y0126778D01*
X0271781Y0126639D01*
X0271783Y0126500D01*
X0271781Y0126361D01*
X0271775Y0126222D01*
X0271765Y0126084D01*
X0271752Y0125946D01*
X0271734Y0125808D01*
X0271713Y0125671D01*
X0271688Y0125534D01*
X0271659Y0125399D01*
X0271626Y0125264D01*
X0271590Y0125130D01*
X0271549Y0124997D01*
X0271505Y0124865D01*
X0271458Y0124735D01*
X0271406Y0124606D01*
X0271351Y0124478D01*
X0271293Y0124352D01*
X0271231Y0124228D01*
X0271165Y0124106D01*
X0271096Y0123985D01*
X0271024Y0123866D01*
X0270949Y0123750D01*
X0270870Y0123636D01*
X0270788Y0123523D01*
X0270703Y0123414D01*
X0270615Y0123306D01*
X0270524Y0123202D01*
X0270430Y0123099D01*
X0270333Y0123000D01*
X0270234Y0122903D01*
X0270131Y0122809D01*
X0270027Y0122718D01*
X0269919Y0122630D01*
X0269810Y0122545D01*
X0269697Y0122463D01*
X0269583Y0122384D01*
X0269467Y0122309D01*
X0269348Y0122237D01*
X0269227Y0122168D01*
X0269105Y0122102D01*
X0268981Y0122040D01*
X0268855Y0121982D01*
X0268727Y0121927D01*
X0268598Y0121875D01*
X0268468Y0121828D01*
X0268336Y0121784D01*
X0268203Y0121743D01*
X0268069Y0121707D01*
X0267934Y0121674D01*
X0267799Y0121645D01*
X0267662Y0121620D01*
X0267525Y0121599D01*
X0267387Y0121581D01*
X0267249Y0121568D01*
X0267111Y0121558D01*
X0266972Y0121552D01*
X0266833Y0121550D01*
X0266694Y0121552D01*
X0266555Y0121558D01*
X0266417Y0121568D01*
X0266279Y0121581D01*
X0266141Y0121599D01*
X0266004Y0121620D01*
X0265867Y0121645D01*
X0265732Y0121674D01*
X0265597Y0121707D01*
X0265463Y0121743D01*
X0265330Y0121784D01*
X0265198Y0121828D01*
X0265068Y0121875D01*
X0264939Y0121927D01*
X0264811Y0121982D01*
X0264685Y0122040D01*
X0264561Y0122102D01*
X0264439Y0122168D01*
X0264318Y0122237D01*
X0264199Y0122309D01*
X0264083Y0122384D01*
X0263969Y0122463D01*
X0263856Y0122545D01*
X0263747Y0122630D01*
X0263639Y0122718D01*
X0263535Y0122809D01*
X0263432Y0122903D01*
X0263333Y0123000D01*
X0133333Y0123000D01*
X0133234Y0122903D01*
X0133131Y0122809D01*
X0133027Y0122718D01*
X0132919Y0122630D01*
X0132810Y0122545D01*
X0132697Y0122463D01*
X0132583Y0122384D01*
X0132467Y0122309D01*
X0132348Y0122237D01*
X0132227Y0122168D01*
X0132105Y0122102D01*
X0131981Y0122040D01*
X0131855Y0121982D01*
X0131727Y0121927D01*
X0131598Y0121875D01*
X0131468Y0121828D01*
X0131336Y0121784D01*
X0131203Y0121743D01*
X0131069Y0121707D01*
X0130934Y0121674D01*
X0130799Y0121645D01*
X0130662Y0121620D01*
X0130525Y0121599D01*
X0130387Y0121581D01*
X0130249Y0121568D01*
X0130111Y0121558D01*
X0129972Y0121552D01*
X0129833Y0121550D01*
X0129694Y0121552D01*
X0129555Y0121558D01*
X0129417Y0121568D01*
X0129279Y0121581D01*
X0129141Y0121599D01*
X0129004Y0121620D01*
X0128867Y0121645D01*
X0128732Y0121674D01*
X0128597Y0121707D01*
X0128463Y0121743D01*
X0128330Y0121784D01*
X0128198Y0121828D01*
X0128068Y0121875D01*
X0127939Y0121927D01*
X0127811Y0121982D01*
X0127685Y0122040D01*
X0127561Y0122102D01*
X0127439Y0122168D01*
X0127318Y0122237D01*
X0127199Y0122309D01*
X0127083Y0122384D01*
X0126969Y0122463D01*
X0126856Y0122545D01*
X0126747Y0122630D01*
X0126639Y0122718D01*
X0126535Y0122809D01*
X0126432Y0122903D01*
X0126333Y0123000D01*
X0126236Y0123099D01*
X0126142Y0123202D01*
X0126051Y0123306D01*
X0125963Y0123414D01*
X0125878Y0123523D01*
X0125796Y0123636D01*
X0125717Y0123750D01*
X0125642Y0123866D01*
X0125570Y0123985D01*
X0125501Y0124106D01*
X0125435Y0124228D01*
X0125373Y0124352D01*
X0125315Y0124478D01*
X0125260Y0124606D01*
X0125208Y0124735D01*
X0125161Y0124865D01*
X0125117Y0124997D01*
X0125076Y0125130D01*
X0125040Y0125264D01*
X0125007Y0125399D01*
X0124978Y0125534D01*
X0124953Y0125671D01*
X0124932Y0125808D01*
X0124914Y0125946D01*
X0124901Y0126084D01*
X0124891Y0126222D01*
X0124885Y0126361D01*
X0124883Y0126500D01*
X0124885Y0126639D01*
X0124891Y0126778D01*
X0124901Y0126916D01*
X0124914Y0127054D01*
X0124932Y0127192D01*
X0124953Y0127329D01*
X0124978Y0127466D01*
X0125007Y0127601D01*
X0125040Y0127736D01*
X0125076Y0127870D01*
X0125117Y0128003D01*
X0125161Y0128135D01*
X0125208Y0128265D01*
X0125260Y0128394D01*
X0125315Y0128522D01*
X0125373Y0128648D01*
X0125435Y0128772D01*
X0125501Y0128894D01*
X0125570Y0129015D01*
X0125642Y0129134D01*
X0125717Y0129250D01*
X0125796Y0129364D01*
X0125878Y0129477D01*
X0125963Y0129586D01*
X0126051Y0129694D01*
X0126142Y0129798D01*
X0126236Y0129901D01*
X0126333Y0130000D01*
X0126333Y0140000D01*
X0126334Y0140000D02*
X0126351Y0140224D01*
X0126362Y0140447D01*
X0126368Y0140671D01*
X0126369Y0140895D01*
X0126364Y0141118D01*
X0126353Y0141342D01*
X0126338Y0141565D01*
X0126317Y0141788D01*
X0126290Y0142010D01*
X0126258Y0142231D01*
X0126221Y0142452D01*
X0126178Y0142672D01*
X0126130Y0142890D01*
X0126077Y0143108D01*
X0126019Y0143324D01*
X0125955Y0143538D01*
X0125886Y0143751D01*
X0125812Y0143962D01*
X0125733Y0144172D01*
X0125649Y0144379D01*
X0125560Y0144584D01*
X0125466Y0144787D01*
X0125367Y0144988D01*
X0125263Y0145186D01*
X0125155Y0145382D01*
X0125041Y0145575D01*
X0124923Y0145765D01*
X0124801Y0145952D01*
X0124674Y0146136D01*
X0124542Y0146317D01*
X0124407Y0146495D01*
X0124267Y0146670D01*
X0124122Y0146841D01*
X0123974Y0147008D01*
X0123822Y0147172D01*
X0123665Y0147332D01*
X0123505Y0147489D01*
X0123341Y0147641D01*
X0123174Y0147789D01*
X0123003Y0147934D01*
X0122828Y0148074D01*
X0122650Y0148209D01*
X0122469Y0148341D01*
X0122285Y0148468D01*
X0122098Y0148590D01*
X0121908Y0148708D01*
X0121715Y0148822D01*
X0121519Y0148930D01*
X0121321Y0149034D01*
X0121120Y0149133D01*
X0120917Y0149227D01*
X0120712Y0149316D01*
X0120505Y0149400D01*
X0120295Y0149479D01*
X0120084Y0149553D01*
X0119871Y0149622D01*
X0119657Y0149686D01*
X0119441Y0149744D01*
X0119223Y0149797D01*
X0119005Y0149845D01*
X0118785Y0149888D01*
X0118564Y0149925D01*
X0118343Y0149957D01*
X0118121Y0149984D01*
X0117898Y0150005D01*
X0117675Y0150020D01*
X0117451Y0150031D01*
X0117228Y0150036D01*
X0117004Y0150035D01*
X0116780Y0150029D01*
X0116557Y0150018D01*
X0116333Y0150001D01*
X0116333Y0150000D02*
X0113333Y0150000D01*
X0113334Y0150000D02*
X0113005Y0149899D01*
X0112680Y0149791D01*
X0112356Y0149674D01*
X0112036Y0149550D01*
X0111719Y0149418D01*
X0111405Y0149278D01*
X0111095Y0149130D01*
X0110789Y0148975D01*
X0110486Y0148813D01*
X0110187Y0148643D01*
X0109893Y0148466D01*
X0109603Y0148281D01*
X0109318Y0148090D01*
X0109038Y0147892D01*
X0108762Y0147687D01*
X0108492Y0147475D01*
X0108226Y0147257D01*
X0107967Y0147032D01*
X0107713Y0146801D01*
X0107464Y0146563D01*
X0107222Y0146320D01*
X0106985Y0146071D01*
X0106755Y0145816D01*
X0106531Y0145556D01*
X0106313Y0145290D01*
X0106102Y0145019D01*
X0105898Y0144743D01*
X0105700Y0144462D01*
X0105510Y0144176D01*
X0105326Y0143886D01*
X0105150Y0143591D01*
X0104981Y0143292D01*
X0104819Y0142989D01*
X0104665Y0142682D01*
X0104518Y0142371D01*
X0104379Y0142057D01*
X0104248Y0141740D01*
X0104125Y0141419D01*
X0104009Y0141096D01*
X0103902Y0140769D01*
X0103802Y0140441D01*
X0103711Y0140110D01*
X0103627Y0139776D01*
X0103552Y0139441D01*
X0103485Y0139104D01*
X0103427Y0138766D01*
X0103376Y0138426D01*
X0103334Y0138085D01*
X0103301Y0137743D01*
X0103275Y0137401D01*
X0103259Y0137058D01*
X0103250Y0136714D01*
X0103250Y0136371D01*
X0103258Y0136027D01*
X0103275Y0135684D01*
X0103300Y0135342D01*
X0103334Y0135000D01*
X0103333Y0135000D02*
X0103333Y0110000D01*
X0103360Y0109732D01*
X0103393Y0109465D01*
X0103433Y0109198D01*
X0103479Y0108933D01*
X0103532Y0108668D01*
X0103591Y0108406D01*
X0103657Y0108144D01*
X0103729Y0107885D01*
X0103808Y0107627D01*
X0103893Y0107371D01*
X0103984Y0107117D01*
X0104081Y0106866D01*
X0104184Y0106617D01*
X0104293Y0106371D01*
X0104409Y0106127D01*
X0104530Y0105887D01*
X0104657Y0105649D01*
X0104790Y0105415D01*
X0104929Y0105184D01*
X0105073Y0104956D01*
X0105223Y0104732D01*
X0105378Y0104512D01*
X0105539Y0104295D01*
X0105705Y0104083D01*
X0105876Y0103875D01*
X0106052Y0103671D01*
X0106233Y0103471D01*
X0106418Y0103276D01*
X0106609Y0103085D01*
X0106804Y0102900D01*
X0107004Y0102719D01*
X0107208Y0102543D01*
X0107416Y0102372D01*
X0107628Y0102206D01*
X0107845Y0102045D01*
X0108065Y0101890D01*
X0108289Y0101740D01*
X0108517Y0101596D01*
X0108748Y0101457D01*
X0108982Y0101324D01*
X0109220Y0101197D01*
X0109460Y0101076D01*
X0109704Y0100960D01*
X0109950Y0100851D01*
X0110199Y0100748D01*
X0110450Y0100651D01*
X0110704Y0100560D01*
X0110960Y0100475D01*
X0111218Y0100396D01*
X0111477Y0100324D01*
X0111739Y0100258D01*
X0112001Y0100199D01*
X0112266Y0100146D01*
X0112531Y0100100D01*
X0112798Y0100060D01*
X0113065Y0100027D01*
X0113333Y0100000D01*
X0103333Y0300000D02*
X0103360Y0300268D01*
X0103393Y0300535D01*
X0103433Y0300802D01*
X0103479Y0301067D01*
X0103532Y0301332D01*
X0103591Y0301594D01*
X0103657Y0301856D01*
X0103729Y0302115D01*
X0103808Y0302373D01*
X0103893Y0302629D01*
X0103984Y0302883D01*
X0104081Y0303134D01*
X0104184Y0303383D01*
X0104293Y0303629D01*
X0104409Y0303873D01*
X0104530Y0304113D01*
X0104657Y0304351D01*
X0104790Y0304585D01*
X0104929Y0304816D01*
X0105073Y0305044D01*
X0105223Y0305268D01*
X0105378Y0305488D01*
X0105539Y0305705D01*
X0105705Y0305917D01*
X0105876Y0306125D01*
X0106052Y0306329D01*
X0106233Y0306529D01*
X0106418Y0306724D01*
X0106609Y0306915D01*
X0106804Y0307100D01*
X0107004Y0307281D01*
X0107208Y0307457D01*
X0107416Y0307628D01*
X0107628Y0307794D01*
X0107845Y0307955D01*
X0108065Y0308110D01*
X0108289Y0308260D01*
X0108517Y0308404D01*
X0108748Y0308543D01*
X0108982Y0308676D01*
X0109220Y0308803D01*
X0109460Y0308924D01*
X0109704Y0309040D01*
X0109950Y0309149D01*
X0110199Y0309252D01*
X0110450Y0309349D01*
X0110704Y0309440D01*
X0110960Y0309525D01*
X0111218Y0309604D01*
X0111477Y0309676D01*
X0111739Y0309742D01*
X0112001Y0309801D01*
X0112266Y0309854D01*
X0112531Y0309900D01*
X0112798Y0309940D01*
X0113065Y0309973D01*
X0113333Y0310000D01*
D11*
X0109833Y0285000D02*
X0109835Y0285154D01*
X0109841Y0285309D01*
X0109851Y0285463D01*
X0109865Y0285617D01*
X0109883Y0285770D01*
X0109904Y0285923D01*
X0109930Y0286076D01*
X0109960Y0286227D01*
X0109993Y0286378D01*
X0110031Y0286528D01*
X0110072Y0286677D01*
X0110117Y0286825D01*
X0110166Y0286971D01*
X0110219Y0287117D01*
X0110275Y0287260D01*
X0110335Y0287403D01*
X0110399Y0287543D01*
X0110466Y0287683D01*
X0110537Y0287820D01*
X0110611Y0287955D01*
X0110689Y0288089D01*
X0110770Y0288220D01*
X0110855Y0288349D01*
X0110943Y0288477D01*
X0111034Y0288601D01*
X0111128Y0288724D01*
X0111226Y0288844D01*
X0111326Y0288961D01*
X0111430Y0289076D01*
X0111536Y0289188D01*
X0111645Y0289297D01*
X0111757Y0289403D01*
X0111872Y0289507D01*
X0111989Y0289607D01*
X0112109Y0289705D01*
X0112232Y0289799D01*
X0112356Y0289890D01*
X0112484Y0289978D01*
X0112613Y0290063D01*
X0112744Y0290144D01*
X0112878Y0290222D01*
X0113013Y0290296D01*
X0113150Y0290367D01*
X0113290Y0290434D01*
X0113430Y0290498D01*
X0113573Y0290558D01*
X0113716Y0290614D01*
X0113862Y0290667D01*
X0114008Y0290716D01*
X0114156Y0290761D01*
X0114305Y0290802D01*
X0114455Y0290840D01*
X0114606Y0290873D01*
X0114757Y0290903D01*
X0114910Y0290929D01*
X0115063Y0290950D01*
X0115216Y0290968D01*
X0115370Y0290982D01*
X0115524Y0290992D01*
X0115679Y0290998D01*
X0115833Y0291000D01*
X0115987Y0290998D01*
X0116142Y0290992D01*
X0116296Y0290982D01*
X0116450Y0290968D01*
X0116603Y0290950D01*
X0116756Y0290929D01*
X0116909Y0290903D01*
X0117060Y0290873D01*
X0117211Y0290840D01*
X0117361Y0290802D01*
X0117510Y0290761D01*
X0117658Y0290716D01*
X0117804Y0290667D01*
X0117950Y0290614D01*
X0118093Y0290558D01*
X0118236Y0290498D01*
X0118376Y0290434D01*
X0118516Y0290367D01*
X0118653Y0290296D01*
X0118788Y0290222D01*
X0118922Y0290144D01*
X0119053Y0290063D01*
X0119182Y0289978D01*
X0119310Y0289890D01*
X0119434Y0289799D01*
X0119557Y0289705D01*
X0119677Y0289607D01*
X0119794Y0289507D01*
X0119909Y0289403D01*
X0120021Y0289297D01*
X0120130Y0289188D01*
X0120236Y0289076D01*
X0120340Y0288961D01*
X0120440Y0288844D01*
X0120538Y0288724D01*
X0120632Y0288601D01*
X0120723Y0288477D01*
X0120811Y0288349D01*
X0120896Y0288220D01*
X0120977Y0288089D01*
X0121055Y0287955D01*
X0121129Y0287820D01*
X0121200Y0287683D01*
X0121267Y0287543D01*
X0121331Y0287403D01*
X0121391Y0287260D01*
X0121447Y0287117D01*
X0121500Y0286971D01*
X0121549Y0286825D01*
X0121594Y0286677D01*
X0121635Y0286528D01*
X0121673Y0286378D01*
X0121706Y0286227D01*
X0121736Y0286076D01*
X0121762Y0285923D01*
X0121783Y0285770D01*
X0121801Y0285617D01*
X0121815Y0285463D01*
X0121825Y0285309D01*
X0121831Y0285154D01*
X0121833Y0285000D01*
X0121831Y0284846D01*
X0121825Y0284691D01*
X0121815Y0284537D01*
X0121801Y0284383D01*
X0121783Y0284230D01*
X0121762Y0284077D01*
X0121736Y0283924D01*
X0121706Y0283773D01*
X0121673Y0283622D01*
X0121635Y0283472D01*
X0121594Y0283323D01*
X0121549Y0283175D01*
X0121500Y0283029D01*
X0121447Y0282883D01*
X0121391Y0282740D01*
X0121331Y0282597D01*
X0121267Y0282457D01*
X0121200Y0282317D01*
X0121129Y0282180D01*
X0121055Y0282045D01*
X0120977Y0281911D01*
X0120896Y0281780D01*
X0120811Y0281651D01*
X0120723Y0281523D01*
X0120632Y0281399D01*
X0120538Y0281276D01*
X0120440Y0281156D01*
X0120340Y0281039D01*
X0120236Y0280924D01*
X0120130Y0280812D01*
X0120021Y0280703D01*
X0119909Y0280597D01*
X0119794Y0280493D01*
X0119677Y0280393D01*
X0119557Y0280295D01*
X0119434Y0280201D01*
X0119310Y0280110D01*
X0119182Y0280022D01*
X0119053Y0279937D01*
X0118922Y0279856D01*
X0118788Y0279778D01*
X0118653Y0279704D01*
X0118516Y0279633D01*
X0118376Y0279566D01*
X0118236Y0279502D01*
X0118093Y0279442D01*
X0117950Y0279386D01*
X0117804Y0279333D01*
X0117658Y0279284D01*
X0117510Y0279239D01*
X0117361Y0279198D01*
X0117211Y0279160D01*
X0117060Y0279127D01*
X0116909Y0279097D01*
X0116756Y0279071D01*
X0116603Y0279050D01*
X0116450Y0279032D01*
X0116296Y0279018D01*
X0116142Y0279008D01*
X0115987Y0279002D01*
X0115833Y0279000D01*
X0115679Y0279002D01*
X0115524Y0279008D01*
X0115370Y0279018D01*
X0115216Y0279032D01*
X0115063Y0279050D01*
X0114910Y0279071D01*
X0114757Y0279097D01*
X0114606Y0279127D01*
X0114455Y0279160D01*
X0114305Y0279198D01*
X0114156Y0279239D01*
X0114008Y0279284D01*
X0113862Y0279333D01*
X0113716Y0279386D01*
X0113573Y0279442D01*
X0113430Y0279502D01*
X0113290Y0279566D01*
X0113150Y0279633D01*
X0113013Y0279704D01*
X0112878Y0279778D01*
X0112744Y0279856D01*
X0112613Y0279937D01*
X0112484Y0280022D01*
X0112356Y0280110D01*
X0112232Y0280201D01*
X0112109Y0280295D01*
X0111989Y0280393D01*
X0111872Y0280493D01*
X0111757Y0280597D01*
X0111645Y0280703D01*
X0111536Y0280812D01*
X0111430Y0280924D01*
X0111326Y0281039D01*
X0111226Y0281156D01*
X0111128Y0281276D01*
X0111034Y0281399D01*
X0110943Y0281523D01*
X0110855Y0281651D01*
X0110770Y0281780D01*
X0110689Y0281911D01*
X0110611Y0282045D01*
X0110537Y0282180D01*
X0110466Y0282317D01*
X0110399Y0282457D01*
X0110335Y0282597D01*
X0110275Y0282740D01*
X0110219Y0282883D01*
X0110166Y0283029D01*
X0110117Y0283175D01*
X0110072Y0283323D01*
X0110031Y0283472D01*
X0109993Y0283622D01*
X0109960Y0283773D01*
X0109930Y0283924D01*
X0109904Y0284077D01*
X0109883Y0284230D01*
X0109865Y0284383D01*
X0109851Y0284537D01*
X0109841Y0284691D01*
X0109835Y0284846D01*
X0109833Y0285000D01*
X0192833Y0302000D02*
X0192835Y0302148D01*
X0192841Y0302296D01*
X0192851Y0302444D01*
X0192865Y0302592D01*
X0192883Y0302739D01*
X0192905Y0302886D01*
X0192931Y0303032D01*
X0192960Y0303177D01*
X0192994Y0303322D01*
X0193032Y0303465D01*
X0193073Y0303608D01*
X0193118Y0303749D01*
X0193168Y0303889D01*
X0193220Y0304027D01*
X0193277Y0304165D01*
X0193337Y0304300D01*
X0193401Y0304434D01*
X0193468Y0304566D01*
X0193539Y0304696D01*
X0193614Y0304825D01*
X0193692Y0304951D01*
X0193773Y0305075D01*
X0193857Y0305197D01*
X0193945Y0305316D01*
X0194036Y0305433D01*
X0194130Y0305548D01*
X0194228Y0305660D01*
X0194328Y0305769D01*
X0194431Y0305876D01*
X0194537Y0305980D01*
X0194645Y0306081D01*
X0194757Y0306179D01*
X0194871Y0306274D01*
X0194987Y0306365D01*
X0195106Y0306454D01*
X0195227Y0306539D01*
X0195351Y0306621D01*
X0195477Y0306700D01*
X0195604Y0306775D01*
X0195734Y0306847D01*
X0195866Y0306916D01*
X0195999Y0306980D01*
X0196134Y0307041D01*
X0196271Y0307099D01*
X0196409Y0307153D01*
X0196549Y0307203D01*
X0196690Y0307249D01*
X0196832Y0307291D01*
X0196975Y0307330D01*
X0197119Y0307364D01*
X0197265Y0307395D01*
X0197410Y0307422D01*
X0197557Y0307445D01*
X0197704Y0307464D01*
X0197852Y0307479D01*
X0197999Y0307490D01*
X0198148Y0307497D01*
X0198296Y0307500D01*
X0198444Y0307499D01*
X0198592Y0307494D01*
X0198740Y0307485D01*
X0198888Y0307472D01*
X0199036Y0307455D01*
X0199182Y0307434D01*
X0199329Y0307409D01*
X0199474Y0307380D01*
X0199619Y0307348D01*
X0199762Y0307311D01*
X0199905Y0307271D01*
X0200047Y0307226D01*
X0200187Y0307178D01*
X0200326Y0307126D01*
X0200463Y0307071D01*
X0200599Y0307011D01*
X0200734Y0306948D01*
X0200866Y0306882D01*
X0200997Y0306812D01*
X0201126Y0306738D01*
X0201252Y0306661D01*
X0201377Y0306581D01*
X0201499Y0306497D01*
X0201620Y0306410D01*
X0201737Y0306320D01*
X0201853Y0306226D01*
X0201965Y0306130D01*
X0202075Y0306031D01*
X0202183Y0305928D01*
X0202287Y0305823D01*
X0202389Y0305715D01*
X0202487Y0305604D01*
X0202583Y0305491D01*
X0202676Y0305375D01*
X0202765Y0305257D01*
X0202851Y0305136D01*
X0202934Y0305013D01*
X0203014Y0304888D01*
X0203090Y0304761D01*
X0203163Y0304631D01*
X0203232Y0304500D01*
X0203297Y0304367D01*
X0203360Y0304233D01*
X0203418Y0304096D01*
X0203473Y0303958D01*
X0203523Y0303819D01*
X0203571Y0303678D01*
X0203614Y0303537D01*
X0203654Y0303394D01*
X0203689Y0303250D01*
X0203721Y0303105D01*
X0203749Y0302959D01*
X0203773Y0302813D01*
X0203793Y0302666D01*
X0203809Y0302518D01*
X0203821Y0302371D01*
X0203829Y0302222D01*
X0203833Y0302074D01*
X0203833Y0301926D01*
X0203829Y0301778D01*
X0203821Y0301629D01*
X0203809Y0301482D01*
X0203793Y0301334D01*
X0203773Y0301187D01*
X0203749Y0301041D01*
X0203721Y0300895D01*
X0203689Y0300750D01*
X0203654Y0300606D01*
X0203614Y0300463D01*
X0203571Y0300322D01*
X0203523Y0300181D01*
X0203473Y0300042D01*
X0203418Y0299904D01*
X0203360Y0299767D01*
X0203297Y0299633D01*
X0203232Y0299500D01*
X0203163Y0299369D01*
X0203090Y0299239D01*
X0203014Y0299112D01*
X0202934Y0298987D01*
X0202851Y0298864D01*
X0202765Y0298743D01*
X0202676Y0298625D01*
X0202583Y0298509D01*
X0202487Y0298396D01*
X0202389Y0298285D01*
X0202287Y0298177D01*
X0202183Y0298072D01*
X0202075Y0297969D01*
X0201965Y0297870D01*
X0201853Y0297774D01*
X0201737Y0297680D01*
X0201620Y0297590D01*
X0201499Y0297503D01*
X0201377Y0297419D01*
X0201252Y0297339D01*
X0201126Y0297262D01*
X0200997Y0297188D01*
X0200866Y0297118D01*
X0200734Y0297052D01*
X0200599Y0296989D01*
X0200463Y0296929D01*
X0200326Y0296874D01*
X0200187Y0296822D01*
X0200047Y0296774D01*
X0199905Y0296729D01*
X0199762Y0296689D01*
X0199619Y0296652D01*
X0199474Y0296620D01*
X0199329Y0296591D01*
X0199182Y0296566D01*
X0199036Y0296545D01*
X0198888Y0296528D01*
X0198740Y0296515D01*
X0198592Y0296506D01*
X0198444Y0296501D01*
X0198296Y0296500D01*
X0198148Y0296503D01*
X0197999Y0296510D01*
X0197852Y0296521D01*
X0197704Y0296536D01*
X0197557Y0296555D01*
X0197410Y0296578D01*
X0197265Y0296605D01*
X0197119Y0296636D01*
X0196975Y0296670D01*
X0196832Y0296709D01*
X0196690Y0296751D01*
X0196549Y0296797D01*
X0196409Y0296847D01*
X0196271Y0296901D01*
X0196134Y0296959D01*
X0195999Y0297020D01*
X0195866Y0297084D01*
X0195734Y0297153D01*
X0195604Y0297225D01*
X0195477Y0297300D01*
X0195351Y0297379D01*
X0195227Y0297461D01*
X0195106Y0297546D01*
X0194987Y0297635D01*
X0194871Y0297726D01*
X0194757Y0297821D01*
X0194645Y0297919D01*
X0194537Y0298020D01*
X0194431Y0298124D01*
X0194328Y0298231D01*
X0194228Y0298340D01*
X0194130Y0298452D01*
X0194036Y0298567D01*
X0193945Y0298684D01*
X0193857Y0298803D01*
X0193773Y0298925D01*
X0193692Y0299049D01*
X0193614Y0299175D01*
X0193539Y0299304D01*
X0193468Y0299434D01*
X0193401Y0299566D01*
X0193337Y0299700D01*
X0193277Y0299835D01*
X0193220Y0299973D01*
X0193168Y0300111D01*
X0193118Y0300251D01*
X0193073Y0300392D01*
X0193032Y0300535D01*
X0192994Y0300678D01*
X0192960Y0300823D01*
X0192931Y0300968D01*
X0192905Y0301114D01*
X0192883Y0301261D01*
X0192865Y0301408D01*
X0192851Y0301556D01*
X0192841Y0301704D01*
X0192835Y0301852D01*
X0192833Y0302000D01*
X0274833Y0285000D02*
X0274835Y0285154D01*
X0274841Y0285309D01*
X0274851Y0285463D01*
X0274865Y0285617D01*
X0274883Y0285770D01*
X0274904Y0285923D01*
X0274930Y0286076D01*
X0274960Y0286227D01*
X0274993Y0286378D01*
X0275031Y0286528D01*
X0275072Y0286677D01*
X0275117Y0286825D01*
X0275166Y0286971D01*
X0275219Y0287117D01*
X0275275Y0287260D01*
X0275335Y0287403D01*
X0275399Y0287543D01*
X0275466Y0287683D01*
X0275537Y0287820D01*
X0275611Y0287955D01*
X0275689Y0288089D01*
X0275770Y0288220D01*
X0275855Y0288349D01*
X0275943Y0288477D01*
X0276034Y0288601D01*
X0276128Y0288724D01*
X0276226Y0288844D01*
X0276326Y0288961D01*
X0276430Y0289076D01*
X0276536Y0289188D01*
X0276645Y0289297D01*
X0276757Y0289403D01*
X0276872Y0289507D01*
X0276989Y0289607D01*
X0277109Y0289705D01*
X0277232Y0289799D01*
X0277356Y0289890D01*
X0277484Y0289978D01*
X0277613Y0290063D01*
X0277744Y0290144D01*
X0277878Y0290222D01*
X0278013Y0290296D01*
X0278150Y0290367D01*
X0278290Y0290434D01*
X0278430Y0290498D01*
X0278573Y0290558D01*
X0278716Y0290614D01*
X0278862Y0290667D01*
X0279008Y0290716D01*
X0279156Y0290761D01*
X0279305Y0290802D01*
X0279455Y0290840D01*
X0279606Y0290873D01*
X0279757Y0290903D01*
X0279910Y0290929D01*
X0280063Y0290950D01*
X0280216Y0290968D01*
X0280370Y0290982D01*
X0280524Y0290992D01*
X0280679Y0290998D01*
X0280833Y0291000D01*
X0280987Y0290998D01*
X0281142Y0290992D01*
X0281296Y0290982D01*
X0281450Y0290968D01*
X0281603Y0290950D01*
X0281756Y0290929D01*
X0281909Y0290903D01*
X0282060Y0290873D01*
X0282211Y0290840D01*
X0282361Y0290802D01*
X0282510Y0290761D01*
X0282658Y0290716D01*
X0282804Y0290667D01*
X0282950Y0290614D01*
X0283093Y0290558D01*
X0283236Y0290498D01*
X0283376Y0290434D01*
X0283516Y0290367D01*
X0283653Y0290296D01*
X0283788Y0290222D01*
X0283922Y0290144D01*
X0284053Y0290063D01*
X0284182Y0289978D01*
X0284310Y0289890D01*
X0284434Y0289799D01*
X0284557Y0289705D01*
X0284677Y0289607D01*
X0284794Y0289507D01*
X0284909Y0289403D01*
X0285021Y0289297D01*
X0285130Y0289188D01*
X0285236Y0289076D01*
X0285340Y0288961D01*
X0285440Y0288844D01*
X0285538Y0288724D01*
X0285632Y0288601D01*
X0285723Y0288477D01*
X0285811Y0288349D01*
X0285896Y0288220D01*
X0285977Y0288089D01*
X0286055Y0287955D01*
X0286129Y0287820D01*
X0286200Y0287683D01*
X0286267Y0287543D01*
X0286331Y0287403D01*
X0286391Y0287260D01*
X0286447Y0287117D01*
X0286500Y0286971D01*
X0286549Y0286825D01*
X0286594Y0286677D01*
X0286635Y0286528D01*
X0286673Y0286378D01*
X0286706Y0286227D01*
X0286736Y0286076D01*
X0286762Y0285923D01*
X0286783Y0285770D01*
X0286801Y0285617D01*
X0286815Y0285463D01*
X0286825Y0285309D01*
X0286831Y0285154D01*
X0286833Y0285000D01*
X0286831Y0284846D01*
X0286825Y0284691D01*
X0286815Y0284537D01*
X0286801Y0284383D01*
X0286783Y0284230D01*
X0286762Y0284077D01*
X0286736Y0283924D01*
X0286706Y0283773D01*
X0286673Y0283622D01*
X0286635Y0283472D01*
X0286594Y0283323D01*
X0286549Y0283175D01*
X0286500Y0283029D01*
X0286447Y0282883D01*
X0286391Y0282740D01*
X0286331Y0282597D01*
X0286267Y0282457D01*
X0286200Y0282317D01*
X0286129Y0282180D01*
X0286055Y0282045D01*
X0285977Y0281911D01*
X0285896Y0281780D01*
X0285811Y0281651D01*
X0285723Y0281523D01*
X0285632Y0281399D01*
X0285538Y0281276D01*
X0285440Y0281156D01*
X0285340Y0281039D01*
X0285236Y0280924D01*
X0285130Y0280812D01*
X0285021Y0280703D01*
X0284909Y0280597D01*
X0284794Y0280493D01*
X0284677Y0280393D01*
X0284557Y0280295D01*
X0284434Y0280201D01*
X0284310Y0280110D01*
X0284182Y0280022D01*
X0284053Y0279937D01*
X0283922Y0279856D01*
X0283788Y0279778D01*
X0283653Y0279704D01*
X0283516Y0279633D01*
X0283376Y0279566D01*
X0283236Y0279502D01*
X0283093Y0279442D01*
X0282950Y0279386D01*
X0282804Y0279333D01*
X0282658Y0279284D01*
X0282510Y0279239D01*
X0282361Y0279198D01*
X0282211Y0279160D01*
X0282060Y0279127D01*
X0281909Y0279097D01*
X0281756Y0279071D01*
X0281603Y0279050D01*
X0281450Y0279032D01*
X0281296Y0279018D01*
X0281142Y0279008D01*
X0280987Y0279002D01*
X0280833Y0279000D01*
X0280679Y0279002D01*
X0280524Y0279008D01*
X0280370Y0279018D01*
X0280216Y0279032D01*
X0280063Y0279050D01*
X0279910Y0279071D01*
X0279757Y0279097D01*
X0279606Y0279127D01*
X0279455Y0279160D01*
X0279305Y0279198D01*
X0279156Y0279239D01*
X0279008Y0279284D01*
X0278862Y0279333D01*
X0278716Y0279386D01*
X0278573Y0279442D01*
X0278430Y0279502D01*
X0278290Y0279566D01*
X0278150Y0279633D01*
X0278013Y0279704D01*
X0277878Y0279778D01*
X0277744Y0279856D01*
X0277613Y0279937D01*
X0277484Y0280022D01*
X0277356Y0280110D01*
X0277232Y0280201D01*
X0277109Y0280295D01*
X0276989Y0280393D01*
X0276872Y0280493D01*
X0276757Y0280597D01*
X0276645Y0280703D01*
X0276536Y0280812D01*
X0276430Y0280924D01*
X0276326Y0281039D01*
X0276226Y0281156D01*
X0276128Y0281276D01*
X0276034Y0281399D01*
X0275943Y0281523D01*
X0275855Y0281651D01*
X0275770Y0281780D01*
X0275689Y0281911D01*
X0275611Y0282045D01*
X0275537Y0282180D01*
X0275466Y0282317D01*
X0275399Y0282457D01*
X0275335Y0282597D01*
X0275275Y0282740D01*
X0275219Y0282883D01*
X0275166Y0283029D01*
X0275117Y0283175D01*
X0275072Y0283323D01*
X0275031Y0283472D01*
X0274993Y0283622D01*
X0274960Y0283773D01*
X0274930Y0283924D01*
X0274904Y0284077D01*
X0274883Y0284230D01*
X0274865Y0284383D01*
X0274851Y0284537D01*
X0274841Y0284691D01*
X0274835Y0284846D01*
X0274833Y0285000D01*
X0274833Y0125000D02*
X0274835Y0125154D01*
X0274841Y0125309D01*
X0274851Y0125463D01*
X0274865Y0125617D01*
X0274883Y0125770D01*
X0274904Y0125923D01*
X0274930Y0126076D01*
X0274960Y0126227D01*
X0274993Y0126378D01*
X0275031Y0126528D01*
X0275072Y0126677D01*
X0275117Y0126825D01*
X0275166Y0126971D01*
X0275219Y0127117D01*
X0275275Y0127260D01*
X0275335Y0127403D01*
X0275399Y0127543D01*
X0275466Y0127683D01*
X0275537Y0127820D01*
X0275611Y0127955D01*
X0275689Y0128089D01*
X0275770Y0128220D01*
X0275855Y0128349D01*
X0275943Y0128477D01*
X0276034Y0128601D01*
X0276128Y0128724D01*
X0276226Y0128844D01*
X0276326Y0128961D01*
X0276430Y0129076D01*
X0276536Y0129188D01*
X0276645Y0129297D01*
X0276757Y0129403D01*
X0276872Y0129507D01*
X0276989Y0129607D01*
X0277109Y0129705D01*
X0277232Y0129799D01*
X0277356Y0129890D01*
X0277484Y0129978D01*
X0277613Y0130063D01*
X0277744Y0130144D01*
X0277878Y0130222D01*
X0278013Y0130296D01*
X0278150Y0130367D01*
X0278290Y0130434D01*
X0278430Y0130498D01*
X0278573Y0130558D01*
X0278716Y0130614D01*
X0278862Y0130667D01*
X0279008Y0130716D01*
X0279156Y0130761D01*
X0279305Y0130802D01*
X0279455Y0130840D01*
X0279606Y0130873D01*
X0279757Y0130903D01*
X0279910Y0130929D01*
X0280063Y0130950D01*
X0280216Y0130968D01*
X0280370Y0130982D01*
X0280524Y0130992D01*
X0280679Y0130998D01*
X0280833Y0131000D01*
X0280987Y0130998D01*
X0281142Y0130992D01*
X0281296Y0130982D01*
X0281450Y0130968D01*
X0281603Y0130950D01*
X0281756Y0130929D01*
X0281909Y0130903D01*
X0282060Y0130873D01*
X0282211Y0130840D01*
X0282361Y0130802D01*
X0282510Y0130761D01*
X0282658Y0130716D01*
X0282804Y0130667D01*
X0282950Y0130614D01*
X0283093Y0130558D01*
X0283236Y0130498D01*
X0283376Y0130434D01*
X0283516Y0130367D01*
X0283653Y0130296D01*
X0283788Y0130222D01*
X0283922Y0130144D01*
X0284053Y0130063D01*
X0284182Y0129978D01*
X0284310Y0129890D01*
X0284434Y0129799D01*
X0284557Y0129705D01*
X0284677Y0129607D01*
X0284794Y0129507D01*
X0284909Y0129403D01*
X0285021Y0129297D01*
X0285130Y0129188D01*
X0285236Y0129076D01*
X0285340Y0128961D01*
X0285440Y0128844D01*
X0285538Y0128724D01*
X0285632Y0128601D01*
X0285723Y0128477D01*
X0285811Y0128349D01*
X0285896Y0128220D01*
X0285977Y0128089D01*
X0286055Y0127955D01*
X0286129Y0127820D01*
X0286200Y0127683D01*
X0286267Y0127543D01*
X0286331Y0127403D01*
X0286391Y0127260D01*
X0286447Y0127117D01*
X0286500Y0126971D01*
X0286549Y0126825D01*
X0286594Y0126677D01*
X0286635Y0126528D01*
X0286673Y0126378D01*
X0286706Y0126227D01*
X0286736Y0126076D01*
X0286762Y0125923D01*
X0286783Y0125770D01*
X0286801Y0125617D01*
X0286815Y0125463D01*
X0286825Y0125309D01*
X0286831Y0125154D01*
X0286833Y0125000D01*
X0286831Y0124846D01*
X0286825Y0124691D01*
X0286815Y0124537D01*
X0286801Y0124383D01*
X0286783Y0124230D01*
X0286762Y0124077D01*
X0286736Y0123924D01*
X0286706Y0123773D01*
X0286673Y0123622D01*
X0286635Y0123472D01*
X0286594Y0123323D01*
X0286549Y0123175D01*
X0286500Y0123029D01*
X0286447Y0122883D01*
X0286391Y0122740D01*
X0286331Y0122597D01*
X0286267Y0122457D01*
X0286200Y0122317D01*
X0286129Y0122180D01*
X0286055Y0122045D01*
X0285977Y0121911D01*
X0285896Y0121780D01*
X0285811Y0121651D01*
X0285723Y0121523D01*
X0285632Y0121399D01*
X0285538Y0121276D01*
X0285440Y0121156D01*
X0285340Y0121039D01*
X0285236Y0120924D01*
X0285130Y0120812D01*
X0285021Y0120703D01*
X0284909Y0120597D01*
X0284794Y0120493D01*
X0284677Y0120393D01*
X0284557Y0120295D01*
X0284434Y0120201D01*
X0284310Y0120110D01*
X0284182Y0120022D01*
X0284053Y0119937D01*
X0283922Y0119856D01*
X0283788Y0119778D01*
X0283653Y0119704D01*
X0283516Y0119633D01*
X0283376Y0119566D01*
X0283236Y0119502D01*
X0283093Y0119442D01*
X0282950Y0119386D01*
X0282804Y0119333D01*
X0282658Y0119284D01*
X0282510Y0119239D01*
X0282361Y0119198D01*
X0282211Y0119160D01*
X0282060Y0119127D01*
X0281909Y0119097D01*
X0281756Y0119071D01*
X0281603Y0119050D01*
X0281450Y0119032D01*
X0281296Y0119018D01*
X0281142Y0119008D01*
X0280987Y0119002D01*
X0280833Y0119000D01*
X0280679Y0119002D01*
X0280524Y0119008D01*
X0280370Y0119018D01*
X0280216Y0119032D01*
X0280063Y0119050D01*
X0279910Y0119071D01*
X0279757Y0119097D01*
X0279606Y0119127D01*
X0279455Y0119160D01*
X0279305Y0119198D01*
X0279156Y0119239D01*
X0279008Y0119284D01*
X0278862Y0119333D01*
X0278716Y0119386D01*
X0278573Y0119442D01*
X0278430Y0119502D01*
X0278290Y0119566D01*
X0278150Y0119633D01*
X0278013Y0119704D01*
X0277878Y0119778D01*
X0277744Y0119856D01*
X0277613Y0119937D01*
X0277484Y0120022D01*
X0277356Y0120110D01*
X0277232Y0120201D01*
X0277109Y0120295D01*
X0276989Y0120393D01*
X0276872Y0120493D01*
X0276757Y0120597D01*
X0276645Y0120703D01*
X0276536Y0120812D01*
X0276430Y0120924D01*
X0276326Y0121039D01*
X0276226Y0121156D01*
X0276128Y0121276D01*
X0276034Y0121399D01*
X0275943Y0121523D01*
X0275855Y0121651D01*
X0275770Y0121780D01*
X0275689Y0121911D01*
X0275611Y0122045D01*
X0275537Y0122180D01*
X0275466Y0122317D01*
X0275399Y0122457D01*
X0275335Y0122597D01*
X0275275Y0122740D01*
X0275219Y0122883D01*
X0275166Y0123029D01*
X0275117Y0123175D01*
X0275072Y0123323D01*
X0275031Y0123472D01*
X0274993Y0123622D01*
X0274960Y0123773D01*
X0274930Y0123924D01*
X0274904Y0124077D01*
X0274883Y0124230D01*
X0274865Y0124383D01*
X0274851Y0124537D01*
X0274841Y0124691D01*
X0274835Y0124846D01*
X0274833Y0125000D01*
X0192833Y0108000D02*
X0192835Y0108148D01*
X0192841Y0108296D01*
X0192851Y0108444D01*
X0192865Y0108592D01*
X0192883Y0108739D01*
X0192905Y0108886D01*
X0192931Y0109032D01*
X0192960Y0109177D01*
X0192994Y0109322D01*
X0193032Y0109465D01*
X0193073Y0109608D01*
X0193118Y0109749D01*
X0193168Y0109889D01*
X0193220Y0110027D01*
X0193277Y0110165D01*
X0193337Y0110300D01*
X0193401Y0110434D01*
X0193468Y0110566D01*
X0193539Y0110696D01*
X0193614Y0110825D01*
X0193692Y0110951D01*
X0193773Y0111075D01*
X0193857Y0111197D01*
X0193945Y0111316D01*
X0194036Y0111433D01*
X0194130Y0111548D01*
X0194228Y0111660D01*
X0194328Y0111769D01*
X0194431Y0111876D01*
X0194537Y0111980D01*
X0194645Y0112081D01*
X0194757Y0112179D01*
X0194871Y0112274D01*
X0194987Y0112365D01*
X0195106Y0112454D01*
X0195227Y0112539D01*
X0195351Y0112621D01*
X0195477Y0112700D01*
X0195604Y0112775D01*
X0195734Y0112847D01*
X0195866Y0112916D01*
X0195999Y0112980D01*
X0196134Y0113041D01*
X0196271Y0113099D01*
X0196409Y0113153D01*
X0196549Y0113203D01*
X0196690Y0113249D01*
X0196832Y0113291D01*
X0196975Y0113330D01*
X0197119Y0113364D01*
X0197265Y0113395D01*
X0197410Y0113422D01*
X0197557Y0113445D01*
X0197704Y0113464D01*
X0197852Y0113479D01*
X0197999Y0113490D01*
X0198148Y0113497D01*
X0198296Y0113500D01*
X0198444Y0113499D01*
X0198592Y0113494D01*
X0198740Y0113485D01*
X0198888Y0113472D01*
X0199036Y0113455D01*
X0199182Y0113434D01*
X0199329Y0113409D01*
X0199474Y0113380D01*
X0199619Y0113348D01*
X0199762Y0113311D01*
X0199905Y0113271D01*
X0200047Y0113226D01*
X0200187Y0113178D01*
X0200326Y0113126D01*
X0200463Y0113071D01*
X0200599Y0113011D01*
X0200734Y0112948D01*
X0200866Y0112882D01*
X0200997Y0112812D01*
X0201126Y0112738D01*
X0201252Y0112661D01*
X0201377Y0112581D01*
X0201499Y0112497D01*
X0201620Y0112410D01*
X0201737Y0112320D01*
X0201853Y0112226D01*
X0201965Y0112130D01*
X0202075Y0112031D01*
X0202183Y0111928D01*
X0202287Y0111823D01*
X0202389Y0111715D01*
X0202487Y0111604D01*
X0202583Y0111491D01*
X0202676Y0111375D01*
X0202765Y0111257D01*
X0202851Y0111136D01*
X0202934Y0111013D01*
X0203014Y0110888D01*
X0203090Y0110761D01*
X0203163Y0110631D01*
X0203232Y0110500D01*
X0203297Y0110367D01*
X0203360Y0110233D01*
X0203418Y0110096D01*
X0203473Y0109958D01*
X0203523Y0109819D01*
X0203571Y0109678D01*
X0203614Y0109537D01*
X0203654Y0109394D01*
X0203689Y0109250D01*
X0203721Y0109105D01*
X0203749Y0108959D01*
X0203773Y0108813D01*
X0203793Y0108666D01*
X0203809Y0108518D01*
X0203821Y0108371D01*
X0203829Y0108222D01*
X0203833Y0108074D01*
X0203833Y0107926D01*
X0203829Y0107778D01*
X0203821Y0107629D01*
X0203809Y0107482D01*
X0203793Y0107334D01*
X0203773Y0107187D01*
X0203749Y0107041D01*
X0203721Y0106895D01*
X0203689Y0106750D01*
X0203654Y0106606D01*
X0203614Y0106463D01*
X0203571Y0106322D01*
X0203523Y0106181D01*
X0203473Y0106042D01*
X0203418Y0105904D01*
X0203360Y0105767D01*
X0203297Y0105633D01*
X0203232Y0105500D01*
X0203163Y0105369D01*
X0203090Y0105239D01*
X0203014Y0105112D01*
X0202934Y0104987D01*
X0202851Y0104864D01*
X0202765Y0104743D01*
X0202676Y0104625D01*
X0202583Y0104509D01*
X0202487Y0104396D01*
X0202389Y0104285D01*
X0202287Y0104177D01*
X0202183Y0104072D01*
X0202075Y0103969D01*
X0201965Y0103870D01*
X0201853Y0103774D01*
X0201737Y0103680D01*
X0201620Y0103590D01*
X0201499Y0103503D01*
X0201377Y0103419D01*
X0201252Y0103339D01*
X0201126Y0103262D01*
X0200997Y0103188D01*
X0200866Y0103118D01*
X0200734Y0103052D01*
X0200599Y0102989D01*
X0200463Y0102929D01*
X0200326Y0102874D01*
X0200187Y0102822D01*
X0200047Y0102774D01*
X0199905Y0102729D01*
X0199762Y0102689D01*
X0199619Y0102652D01*
X0199474Y0102620D01*
X0199329Y0102591D01*
X0199182Y0102566D01*
X0199036Y0102545D01*
X0198888Y0102528D01*
X0198740Y0102515D01*
X0198592Y0102506D01*
X0198444Y0102501D01*
X0198296Y0102500D01*
X0198148Y0102503D01*
X0197999Y0102510D01*
X0197852Y0102521D01*
X0197704Y0102536D01*
X0197557Y0102555D01*
X0197410Y0102578D01*
X0197265Y0102605D01*
X0197119Y0102636D01*
X0196975Y0102670D01*
X0196832Y0102709D01*
X0196690Y0102751D01*
X0196549Y0102797D01*
X0196409Y0102847D01*
X0196271Y0102901D01*
X0196134Y0102959D01*
X0195999Y0103020D01*
X0195866Y0103084D01*
X0195734Y0103153D01*
X0195604Y0103225D01*
X0195477Y0103300D01*
X0195351Y0103379D01*
X0195227Y0103461D01*
X0195106Y0103546D01*
X0194987Y0103635D01*
X0194871Y0103726D01*
X0194757Y0103821D01*
X0194645Y0103919D01*
X0194537Y0104020D01*
X0194431Y0104124D01*
X0194328Y0104231D01*
X0194228Y0104340D01*
X0194130Y0104452D01*
X0194036Y0104567D01*
X0193945Y0104684D01*
X0193857Y0104803D01*
X0193773Y0104925D01*
X0193692Y0105049D01*
X0193614Y0105175D01*
X0193539Y0105304D01*
X0193468Y0105434D01*
X0193401Y0105566D01*
X0193337Y0105700D01*
X0193277Y0105835D01*
X0193220Y0105973D01*
X0193168Y0106111D01*
X0193118Y0106251D01*
X0193073Y0106392D01*
X0193032Y0106535D01*
X0192994Y0106678D01*
X0192960Y0106823D01*
X0192931Y0106968D01*
X0192905Y0107114D01*
X0192883Y0107261D01*
X0192865Y0107408D01*
X0192851Y0107556D01*
X0192841Y0107704D01*
X0192835Y0107852D01*
X0192833Y0108000D01*
X0109833Y0125000D02*
X0109835Y0125154D01*
X0109841Y0125309D01*
X0109851Y0125463D01*
X0109865Y0125617D01*
X0109883Y0125770D01*
X0109904Y0125923D01*
X0109930Y0126076D01*
X0109960Y0126227D01*
X0109993Y0126378D01*
X0110031Y0126528D01*
X0110072Y0126677D01*
X0110117Y0126825D01*
X0110166Y0126971D01*
X0110219Y0127117D01*
X0110275Y0127260D01*
X0110335Y0127403D01*
X0110399Y0127543D01*
X0110466Y0127683D01*
X0110537Y0127820D01*
X0110611Y0127955D01*
X0110689Y0128089D01*
X0110770Y0128220D01*
X0110855Y0128349D01*
X0110943Y0128477D01*
X0111034Y0128601D01*
X0111128Y0128724D01*
X0111226Y0128844D01*
X0111326Y0128961D01*
X0111430Y0129076D01*
X0111536Y0129188D01*
X0111645Y0129297D01*
X0111757Y0129403D01*
X0111872Y0129507D01*
X0111989Y0129607D01*
X0112109Y0129705D01*
X0112232Y0129799D01*
X0112356Y0129890D01*
X0112484Y0129978D01*
X0112613Y0130063D01*
X0112744Y0130144D01*
X0112878Y0130222D01*
X0113013Y0130296D01*
X0113150Y0130367D01*
X0113290Y0130434D01*
X0113430Y0130498D01*
X0113573Y0130558D01*
X0113716Y0130614D01*
X0113862Y0130667D01*
X0114008Y0130716D01*
X0114156Y0130761D01*
X0114305Y0130802D01*
X0114455Y0130840D01*
X0114606Y0130873D01*
X0114757Y0130903D01*
X0114910Y0130929D01*
X0115063Y0130950D01*
X0115216Y0130968D01*
X0115370Y0130982D01*
X0115524Y0130992D01*
X0115679Y0130998D01*
X0115833Y0131000D01*
X0115987Y0130998D01*
X0116142Y0130992D01*
X0116296Y0130982D01*
X0116450Y0130968D01*
X0116603Y0130950D01*
X0116756Y0130929D01*
X0116909Y0130903D01*
X0117060Y0130873D01*
X0117211Y0130840D01*
X0117361Y0130802D01*
X0117510Y0130761D01*
X0117658Y0130716D01*
X0117804Y0130667D01*
X0117950Y0130614D01*
X0118093Y0130558D01*
X0118236Y0130498D01*
X0118376Y0130434D01*
X0118516Y0130367D01*
X0118653Y0130296D01*
X0118788Y0130222D01*
X0118922Y0130144D01*
X0119053Y0130063D01*
X0119182Y0129978D01*
X0119310Y0129890D01*
X0119434Y0129799D01*
X0119557Y0129705D01*
X0119677Y0129607D01*
X0119794Y0129507D01*
X0119909Y0129403D01*
X0120021Y0129297D01*
X0120130Y0129188D01*
X0120236Y0129076D01*
X0120340Y0128961D01*
X0120440Y0128844D01*
X0120538Y0128724D01*
X0120632Y0128601D01*
X0120723Y0128477D01*
X0120811Y0128349D01*
X0120896Y0128220D01*
X0120977Y0128089D01*
X0121055Y0127955D01*
X0121129Y0127820D01*
X0121200Y0127683D01*
X0121267Y0127543D01*
X0121331Y0127403D01*
X0121391Y0127260D01*
X0121447Y0127117D01*
X0121500Y0126971D01*
X0121549Y0126825D01*
X0121594Y0126677D01*
X0121635Y0126528D01*
X0121673Y0126378D01*
X0121706Y0126227D01*
X0121736Y0126076D01*
X0121762Y0125923D01*
X0121783Y0125770D01*
X0121801Y0125617D01*
X0121815Y0125463D01*
X0121825Y0125309D01*
X0121831Y0125154D01*
X0121833Y0125000D01*
X0121831Y0124846D01*
X0121825Y0124691D01*
X0121815Y0124537D01*
X0121801Y0124383D01*
X0121783Y0124230D01*
X0121762Y0124077D01*
X0121736Y0123924D01*
X0121706Y0123773D01*
X0121673Y0123622D01*
X0121635Y0123472D01*
X0121594Y0123323D01*
X0121549Y0123175D01*
X0121500Y0123029D01*
X0121447Y0122883D01*
X0121391Y0122740D01*
X0121331Y0122597D01*
X0121267Y0122457D01*
X0121200Y0122317D01*
X0121129Y0122180D01*
X0121055Y0122045D01*
X0120977Y0121911D01*
X0120896Y0121780D01*
X0120811Y0121651D01*
X0120723Y0121523D01*
X0120632Y0121399D01*
X0120538Y0121276D01*
X0120440Y0121156D01*
X0120340Y0121039D01*
X0120236Y0120924D01*
X0120130Y0120812D01*
X0120021Y0120703D01*
X0119909Y0120597D01*
X0119794Y0120493D01*
X0119677Y0120393D01*
X0119557Y0120295D01*
X0119434Y0120201D01*
X0119310Y0120110D01*
X0119182Y0120022D01*
X0119053Y0119937D01*
X0118922Y0119856D01*
X0118788Y0119778D01*
X0118653Y0119704D01*
X0118516Y0119633D01*
X0118376Y0119566D01*
X0118236Y0119502D01*
X0118093Y0119442D01*
X0117950Y0119386D01*
X0117804Y0119333D01*
X0117658Y0119284D01*
X0117510Y0119239D01*
X0117361Y0119198D01*
X0117211Y0119160D01*
X0117060Y0119127D01*
X0116909Y0119097D01*
X0116756Y0119071D01*
X0116603Y0119050D01*
X0116450Y0119032D01*
X0116296Y0119018D01*
X0116142Y0119008D01*
X0115987Y0119002D01*
X0115833Y0119000D01*
X0115679Y0119002D01*
X0115524Y0119008D01*
X0115370Y0119018D01*
X0115216Y0119032D01*
X0115063Y0119050D01*
X0114910Y0119071D01*
X0114757Y0119097D01*
X0114606Y0119127D01*
X0114455Y0119160D01*
X0114305Y0119198D01*
X0114156Y0119239D01*
X0114008Y0119284D01*
X0113862Y0119333D01*
X0113716Y0119386D01*
X0113573Y0119442D01*
X0113430Y0119502D01*
X0113290Y0119566D01*
X0113150Y0119633D01*
X0113013Y0119704D01*
X0112878Y0119778D01*
X0112744Y0119856D01*
X0112613Y0119937D01*
X0112484Y0120022D01*
X0112356Y0120110D01*
X0112232Y0120201D01*
X0112109Y0120295D01*
X0111989Y0120393D01*
X0111872Y0120493D01*
X0111757Y0120597D01*
X0111645Y0120703D01*
X0111536Y0120812D01*
X0111430Y0120924D01*
X0111326Y0121039D01*
X0111226Y0121156D01*
X0111128Y0121276D01*
X0111034Y0121399D01*
X0110943Y0121523D01*
X0110855Y0121651D01*
X0110770Y0121780D01*
X0110689Y0121911D01*
X0110611Y0122045D01*
X0110537Y0122180D01*
X0110466Y0122317D01*
X0110399Y0122457D01*
X0110335Y0122597D01*
X0110275Y0122740D01*
X0110219Y0122883D01*
X0110166Y0123029D01*
X0110117Y0123175D01*
X0110072Y0123323D01*
X0110031Y0123472D01*
X0109993Y0123622D01*
X0109960Y0123773D01*
X0109930Y0123924D01*
X0109904Y0124077D01*
X0109883Y0124230D01*
X0109865Y0124383D01*
X0109851Y0124537D01*
X0109841Y0124691D01*
X0109835Y0124846D01*
X0109833Y0125000D01*
M02*
