G75*
%MOIN*%
%OFA0B0*%
%FSLAX25Y25*%
%IPPOS*%
%LPD*%
%AMOC8*
5,1,8,0,0,1.08239X$1,22.5*
%
%ADD10C,0.00800*%
%ADD11C,0.00000*%
D10*
X0026408Y0100000D02*
X0196408Y0100000D01*
X0196676Y0100027D01*
X0196943Y0100060D01*
X0197210Y0100100D01*
X0197475Y0100146D01*
X0197740Y0100199D01*
X0198002Y0100258D01*
X0198264Y0100324D01*
X0198523Y0100396D01*
X0198781Y0100475D01*
X0199037Y0100560D01*
X0199291Y0100651D01*
X0199542Y0100748D01*
X0199791Y0100851D01*
X0200037Y0100960D01*
X0200281Y0101076D01*
X0200521Y0101197D01*
X0200759Y0101324D01*
X0200993Y0101457D01*
X0201224Y0101596D01*
X0201452Y0101740D01*
X0201676Y0101890D01*
X0201896Y0102045D01*
X0202113Y0102206D01*
X0202325Y0102372D01*
X0202533Y0102543D01*
X0202737Y0102719D01*
X0202937Y0102900D01*
X0203132Y0103085D01*
X0203323Y0103276D01*
X0203508Y0103471D01*
X0203689Y0103671D01*
X0203865Y0103875D01*
X0204036Y0104083D01*
X0204202Y0104295D01*
X0204363Y0104512D01*
X0204518Y0104732D01*
X0204668Y0104956D01*
X0204812Y0105184D01*
X0204951Y0105415D01*
X0205084Y0105649D01*
X0205211Y0105887D01*
X0205332Y0106127D01*
X0205448Y0106371D01*
X0205557Y0106617D01*
X0205660Y0106866D01*
X0205757Y0107117D01*
X0205848Y0107371D01*
X0205933Y0107627D01*
X0206012Y0107885D01*
X0206084Y0108144D01*
X0206150Y0108406D01*
X0206209Y0108668D01*
X0206262Y0108933D01*
X0206308Y0109198D01*
X0206348Y0109465D01*
X0206381Y0109732D01*
X0206408Y0110000D01*
X0206408Y0300000D01*
X0206381Y0300268D01*
X0206348Y0300535D01*
X0206308Y0300802D01*
X0206262Y0301067D01*
X0206209Y0301332D01*
X0206150Y0301594D01*
X0206084Y0301856D01*
X0206012Y0302115D01*
X0205933Y0302373D01*
X0205848Y0302629D01*
X0205757Y0302883D01*
X0205660Y0303134D01*
X0205557Y0303383D01*
X0205448Y0303629D01*
X0205332Y0303873D01*
X0205211Y0304113D01*
X0205084Y0304351D01*
X0204951Y0304585D01*
X0204812Y0304816D01*
X0204668Y0305044D01*
X0204518Y0305268D01*
X0204363Y0305488D01*
X0204202Y0305705D01*
X0204036Y0305917D01*
X0203865Y0306125D01*
X0203689Y0306329D01*
X0203508Y0306529D01*
X0203323Y0306724D01*
X0203132Y0306915D01*
X0202937Y0307100D01*
X0202737Y0307281D01*
X0202533Y0307457D01*
X0202325Y0307628D01*
X0202113Y0307794D01*
X0201896Y0307955D01*
X0201676Y0308110D01*
X0201452Y0308260D01*
X0201224Y0308404D01*
X0200993Y0308543D01*
X0200759Y0308676D01*
X0200521Y0308803D01*
X0200281Y0308924D01*
X0200037Y0309040D01*
X0199791Y0309149D01*
X0199542Y0309252D01*
X0199291Y0309349D01*
X0199037Y0309440D01*
X0198781Y0309525D01*
X0198523Y0309604D01*
X0198264Y0309676D01*
X0198002Y0309742D01*
X0197740Y0309801D01*
X0197475Y0309854D01*
X0197210Y0309900D01*
X0196943Y0309940D01*
X0196676Y0309973D01*
X0196408Y0310000D01*
X0026408Y0310000D01*
X0016408Y0300000D02*
X0016408Y0110000D01*
X0016407Y0110000D02*
X0016434Y0109732D01*
X0016467Y0109465D01*
X0016507Y0109198D01*
X0016553Y0108933D01*
X0016606Y0108668D01*
X0016665Y0108406D01*
X0016731Y0108144D01*
X0016803Y0107885D01*
X0016882Y0107627D01*
X0016967Y0107371D01*
X0017058Y0107117D01*
X0017155Y0106866D01*
X0017258Y0106617D01*
X0017367Y0106371D01*
X0017483Y0106127D01*
X0017604Y0105887D01*
X0017731Y0105649D01*
X0017864Y0105415D01*
X0018003Y0105184D01*
X0018147Y0104956D01*
X0018297Y0104732D01*
X0018452Y0104512D01*
X0018613Y0104295D01*
X0018779Y0104083D01*
X0018950Y0103875D01*
X0019126Y0103671D01*
X0019307Y0103471D01*
X0019492Y0103276D01*
X0019683Y0103085D01*
X0019878Y0102900D01*
X0020078Y0102719D01*
X0020282Y0102543D01*
X0020490Y0102372D01*
X0020702Y0102206D01*
X0020919Y0102045D01*
X0021139Y0101890D01*
X0021363Y0101740D01*
X0021591Y0101596D01*
X0021822Y0101457D01*
X0022056Y0101324D01*
X0022294Y0101197D01*
X0022534Y0101076D01*
X0022778Y0100960D01*
X0023024Y0100851D01*
X0023273Y0100748D01*
X0023524Y0100651D01*
X0023778Y0100560D01*
X0024034Y0100475D01*
X0024292Y0100396D01*
X0024551Y0100324D01*
X0024813Y0100258D01*
X0025075Y0100199D01*
X0025340Y0100146D01*
X0025605Y0100100D01*
X0025872Y0100060D01*
X0026139Y0100027D01*
X0026407Y0100000D01*
X0016407Y0300000D02*
X0016434Y0300268D01*
X0016467Y0300535D01*
X0016507Y0300802D01*
X0016553Y0301067D01*
X0016606Y0301332D01*
X0016665Y0301594D01*
X0016731Y0301856D01*
X0016803Y0302115D01*
X0016882Y0302373D01*
X0016967Y0302629D01*
X0017058Y0302883D01*
X0017155Y0303134D01*
X0017258Y0303383D01*
X0017367Y0303629D01*
X0017483Y0303873D01*
X0017604Y0304113D01*
X0017731Y0304351D01*
X0017864Y0304585D01*
X0018003Y0304816D01*
X0018147Y0305044D01*
X0018297Y0305268D01*
X0018452Y0305488D01*
X0018613Y0305705D01*
X0018779Y0305917D01*
X0018950Y0306125D01*
X0019126Y0306329D01*
X0019307Y0306529D01*
X0019492Y0306724D01*
X0019683Y0306915D01*
X0019878Y0307100D01*
X0020078Y0307281D01*
X0020282Y0307457D01*
X0020490Y0307628D01*
X0020702Y0307794D01*
X0020919Y0307955D01*
X0021139Y0308110D01*
X0021363Y0308260D01*
X0021591Y0308404D01*
X0021822Y0308543D01*
X0022056Y0308676D01*
X0022294Y0308803D01*
X0022534Y0308924D01*
X0022778Y0309040D01*
X0023024Y0309149D01*
X0023273Y0309252D01*
X0023524Y0309349D01*
X0023778Y0309440D01*
X0024034Y0309525D01*
X0024292Y0309604D01*
X0024551Y0309676D01*
X0024813Y0309742D01*
X0025075Y0309801D01*
X0025340Y0309854D01*
X0025605Y0309900D01*
X0025872Y0309940D01*
X0026139Y0309973D01*
X0026407Y0310000D01*
D11*
X0022908Y0285000D02*
X0022910Y0285154D01*
X0022916Y0285309D01*
X0022926Y0285463D01*
X0022940Y0285617D01*
X0022958Y0285770D01*
X0022979Y0285923D01*
X0023005Y0286076D01*
X0023035Y0286227D01*
X0023068Y0286378D01*
X0023106Y0286528D01*
X0023147Y0286677D01*
X0023192Y0286825D01*
X0023241Y0286971D01*
X0023294Y0287117D01*
X0023350Y0287260D01*
X0023410Y0287403D01*
X0023474Y0287543D01*
X0023541Y0287683D01*
X0023612Y0287820D01*
X0023686Y0287955D01*
X0023764Y0288089D01*
X0023845Y0288220D01*
X0023930Y0288349D01*
X0024018Y0288477D01*
X0024109Y0288601D01*
X0024203Y0288724D01*
X0024301Y0288844D01*
X0024401Y0288961D01*
X0024505Y0289076D01*
X0024611Y0289188D01*
X0024720Y0289297D01*
X0024832Y0289403D01*
X0024947Y0289507D01*
X0025064Y0289607D01*
X0025184Y0289705D01*
X0025307Y0289799D01*
X0025431Y0289890D01*
X0025559Y0289978D01*
X0025688Y0290063D01*
X0025819Y0290144D01*
X0025953Y0290222D01*
X0026088Y0290296D01*
X0026225Y0290367D01*
X0026365Y0290434D01*
X0026505Y0290498D01*
X0026648Y0290558D01*
X0026791Y0290614D01*
X0026937Y0290667D01*
X0027083Y0290716D01*
X0027231Y0290761D01*
X0027380Y0290802D01*
X0027530Y0290840D01*
X0027681Y0290873D01*
X0027832Y0290903D01*
X0027985Y0290929D01*
X0028138Y0290950D01*
X0028291Y0290968D01*
X0028445Y0290982D01*
X0028599Y0290992D01*
X0028754Y0290998D01*
X0028908Y0291000D01*
X0029062Y0290998D01*
X0029217Y0290992D01*
X0029371Y0290982D01*
X0029525Y0290968D01*
X0029678Y0290950D01*
X0029831Y0290929D01*
X0029984Y0290903D01*
X0030135Y0290873D01*
X0030286Y0290840D01*
X0030436Y0290802D01*
X0030585Y0290761D01*
X0030733Y0290716D01*
X0030879Y0290667D01*
X0031025Y0290614D01*
X0031168Y0290558D01*
X0031311Y0290498D01*
X0031451Y0290434D01*
X0031591Y0290367D01*
X0031728Y0290296D01*
X0031863Y0290222D01*
X0031997Y0290144D01*
X0032128Y0290063D01*
X0032257Y0289978D01*
X0032385Y0289890D01*
X0032509Y0289799D01*
X0032632Y0289705D01*
X0032752Y0289607D01*
X0032869Y0289507D01*
X0032984Y0289403D01*
X0033096Y0289297D01*
X0033205Y0289188D01*
X0033311Y0289076D01*
X0033415Y0288961D01*
X0033515Y0288844D01*
X0033613Y0288724D01*
X0033707Y0288601D01*
X0033798Y0288477D01*
X0033886Y0288349D01*
X0033971Y0288220D01*
X0034052Y0288089D01*
X0034130Y0287955D01*
X0034204Y0287820D01*
X0034275Y0287683D01*
X0034342Y0287543D01*
X0034406Y0287403D01*
X0034466Y0287260D01*
X0034522Y0287117D01*
X0034575Y0286971D01*
X0034624Y0286825D01*
X0034669Y0286677D01*
X0034710Y0286528D01*
X0034748Y0286378D01*
X0034781Y0286227D01*
X0034811Y0286076D01*
X0034837Y0285923D01*
X0034858Y0285770D01*
X0034876Y0285617D01*
X0034890Y0285463D01*
X0034900Y0285309D01*
X0034906Y0285154D01*
X0034908Y0285000D01*
X0034906Y0284846D01*
X0034900Y0284691D01*
X0034890Y0284537D01*
X0034876Y0284383D01*
X0034858Y0284230D01*
X0034837Y0284077D01*
X0034811Y0283924D01*
X0034781Y0283773D01*
X0034748Y0283622D01*
X0034710Y0283472D01*
X0034669Y0283323D01*
X0034624Y0283175D01*
X0034575Y0283029D01*
X0034522Y0282883D01*
X0034466Y0282740D01*
X0034406Y0282597D01*
X0034342Y0282457D01*
X0034275Y0282317D01*
X0034204Y0282180D01*
X0034130Y0282045D01*
X0034052Y0281911D01*
X0033971Y0281780D01*
X0033886Y0281651D01*
X0033798Y0281523D01*
X0033707Y0281399D01*
X0033613Y0281276D01*
X0033515Y0281156D01*
X0033415Y0281039D01*
X0033311Y0280924D01*
X0033205Y0280812D01*
X0033096Y0280703D01*
X0032984Y0280597D01*
X0032869Y0280493D01*
X0032752Y0280393D01*
X0032632Y0280295D01*
X0032509Y0280201D01*
X0032385Y0280110D01*
X0032257Y0280022D01*
X0032128Y0279937D01*
X0031997Y0279856D01*
X0031863Y0279778D01*
X0031728Y0279704D01*
X0031591Y0279633D01*
X0031451Y0279566D01*
X0031311Y0279502D01*
X0031168Y0279442D01*
X0031025Y0279386D01*
X0030879Y0279333D01*
X0030733Y0279284D01*
X0030585Y0279239D01*
X0030436Y0279198D01*
X0030286Y0279160D01*
X0030135Y0279127D01*
X0029984Y0279097D01*
X0029831Y0279071D01*
X0029678Y0279050D01*
X0029525Y0279032D01*
X0029371Y0279018D01*
X0029217Y0279008D01*
X0029062Y0279002D01*
X0028908Y0279000D01*
X0028754Y0279002D01*
X0028599Y0279008D01*
X0028445Y0279018D01*
X0028291Y0279032D01*
X0028138Y0279050D01*
X0027985Y0279071D01*
X0027832Y0279097D01*
X0027681Y0279127D01*
X0027530Y0279160D01*
X0027380Y0279198D01*
X0027231Y0279239D01*
X0027083Y0279284D01*
X0026937Y0279333D01*
X0026791Y0279386D01*
X0026648Y0279442D01*
X0026505Y0279502D01*
X0026365Y0279566D01*
X0026225Y0279633D01*
X0026088Y0279704D01*
X0025953Y0279778D01*
X0025819Y0279856D01*
X0025688Y0279937D01*
X0025559Y0280022D01*
X0025431Y0280110D01*
X0025307Y0280201D01*
X0025184Y0280295D01*
X0025064Y0280393D01*
X0024947Y0280493D01*
X0024832Y0280597D01*
X0024720Y0280703D01*
X0024611Y0280812D01*
X0024505Y0280924D01*
X0024401Y0281039D01*
X0024301Y0281156D01*
X0024203Y0281276D01*
X0024109Y0281399D01*
X0024018Y0281523D01*
X0023930Y0281651D01*
X0023845Y0281780D01*
X0023764Y0281911D01*
X0023686Y0282045D01*
X0023612Y0282180D01*
X0023541Y0282317D01*
X0023474Y0282457D01*
X0023410Y0282597D01*
X0023350Y0282740D01*
X0023294Y0282883D01*
X0023241Y0283029D01*
X0023192Y0283175D01*
X0023147Y0283323D01*
X0023106Y0283472D01*
X0023068Y0283622D01*
X0023035Y0283773D01*
X0023005Y0283924D01*
X0022979Y0284077D01*
X0022958Y0284230D01*
X0022940Y0284383D01*
X0022926Y0284537D01*
X0022916Y0284691D01*
X0022910Y0284846D01*
X0022908Y0285000D01*
X0083062Y0280000D02*
X0083064Y0280115D01*
X0083070Y0280231D01*
X0083080Y0280346D01*
X0083094Y0280461D01*
X0083112Y0280575D01*
X0083134Y0280688D01*
X0083159Y0280801D01*
X0083189Y0280912D01*
X0083222Y0281023D01*
X0083259Y0281132D01*
X0083300Y0281240D01*
X0083345Y0281347D01*
X0083393Y0281452D01*
X0083445Y0281555D01*
X0083501Y0281656D01*
X0083560Y0281756D01*
X0083622Y0281853D01*
X0083688Y0281948D01*
X0083756Y0282041D01*
X0083828Y0282131D01*
X0083903Y0282219D01*
X0083982Y0282304D01*
X0084063Y0282386D01*
X0084146Y0282466D01*
X0084233Y0282542D01*
X0084322Y0282616D01*
X0084413Y0282686D01*
X0084507Y0282754D01*
X0084603Y0282818D01*
X0084702Y0282878D01*
X0084802Y0282935D01*
X0084904Y0282989D01*
X0085008Y0283039D01*
X0085114Y0283086D01*
X0085221Y0283129D01*
X0085330Y0283168D01*
X0085440Y0283203D01*
X0085551Y0283234D01*
X0085663Y0283262D01*
X0085776Y0283286D01*
X0085890Y0283306D01*
X0086005Y0283322D01*
X0086120Y0283334D01*
X0086235Y0283342D01*
X0086350Y0283346D01*
X0086466Y0283346D01*
X0086581Y0283342D01*
X0086696Y0283334D01*
X0086811Y0283322D01*
X0086926Y0283306D01*
X0087040Y0283286D01*
X0087153Y0283262D01*
X0087265Y0283234D01*
X0087376Y0283203D01*
X0087486Y0283168D01*
X0087595Y0283129D01*
X0087702Y0283086D01*
X0087808Y0283039D01*
X0087912Y0282989D01*
X0088014Y0282935D01*
X0088114Y0282878D01*
X0088213Y0282818D01*
X0088309Y0282754D01*
X0088403Y0282686D01*
X0088494Y0282616D01*
X0088583Y0282542D01*
X0088670Y0282466D01*
X0088753Y0282386D01*
X0088834Y0282304D01*
X0088913Y0282219D01*
X0088988Y0282131D01*
X0089060Y0282041D01*
X0089128Y0281948D01*
X0089194Y0281853D01*
X0089256Y0281756D01*
X0089315Y0281656D01*
X0089371Y0281555D01*
X0089423Y0281452D01*
X0089471Y0281347D01*
X0089516Y0281240D01*
X0089557Y0281132D01*
X0089594Y0281023D01*
X0089627Y0280912D01*
X0089657Y0280801D01*
X0089682Y0280688D01*
X0089704Y0280575D01*
X0089722Y0280461D01*
X0089736Y0280346D01*
X0089746Y0280231D01*
X0089752Y0280115D01*
X0089754Y0280000D01*
X0089752Y0279885D01*
X0089746Y0279769D01*
X0089736Y0279654D01*
X0089722Y0279539D01*
X0089704Y0279425D01*
X0089682Y0279312D01*
X0089657Y0279199D01*
X0089627Y0279088D01*
X0089594Y0278977D01*
X0089557Y0278868D01*
X0089516Y0278760D01*
X0089471Y0278653D01*
X0089423Y0278548D01*
X0089371Y0278445D01*
X0089315Y0278344D01*
X0089256Y0278244D01*
X0089194Y0278147D01*
X0089128Y0278052D01*
X0089060Y0277959D01*
X0088988Y0277869D01*
X0088913Y0277781D01*
X0088834Y0277696D01*
X0088753Y0277614D01*
X0088670Y0277534D01*
X0088583Y0277458D01*
X0088494Y0277384D01*
X0088403Y0277314D01*
X0088309Y0277246D01*
X0088213Y0277182D01*
X0088114Y0277122D01*
X0088014Y0277065D01*
X0087912Y0277011D01*
X0087808Y0276961D01*
X0087702Y0276914D01*
X0087595Y0276871D01*
X0087486Y0276832D01*
X0087376Y0276797D01*
X0087265Y0276766D01*
X0087153Y0276738D01*
X0087040Y0276714D01*
X0086926Y0276694D01*
X0086811Y0276678D01*
X0086696Y0276666D01*
X0086581Y0276658D01*
X0086466Y0276654D01*
X0086350Y0276654D01*
X0086235Y0276658D01*
X0086120Y0276666D01*
X0086005Y0276678D01*
X0085890Y0276694D01*
X0085776Y0276714D01*
X0085663Y0276738D01*
X0085551Y0276766D01*
X0085440Y0276797D01*
X0085330Y0276832D01*
X0085221Y0276871D01*
X0085114Y0276914D01*
X0085008Y0276961D01*
X0084904Y0277011D01*
X0084802Y0277065D01*
X0084702Y0277122D01*
X0084603Y0277182D01*
X0084507Y0277246D01*
X0084413Y0277314D01*
X0084322Y0277384D01*
X0084233Y0277458D01*
X0084146Y0277534D01*
X0084063Y0277614D01*
X0083982Y0277696D01*
X0083903Y0277781D01*
X0083828Y0277869D01*
X0083756Y0277959D01*
X0083688Y0278052D01*
X0083622Y0278147D01*
X0083560Y0278244D01*
X0083501Y0278344D01*
X0083445Y0278445D01*
X0083393Y0278548D01*
X0083345Y0278653D01*
X0083300Y0278760D01*
X0083259Y0278868D01*
X0083222Y0278977D01*
X0083189Y0279088D01*
X0083159Y0279199D01*
X0083134Y0279312D01*
X0083112Y0279425D01*
X0083094Y0279539D01*
X0083080Y0279654D01*
X0083070Y0279769D01*
X0083064Y0279885D01*
X0083062Y0280000D01*
X0103062Y0280000D02*
X0103064Y0280115D01*
X0103070Y0280231D01*
X0103080Y0280346D01*
X0103094Y0280461D01*
X0103112Y0280575D01*
X0103134Y0280688D01*
X0103159Y0280801D01*
X0103189Y0280912D01*
X0103222Y0281023D01*
X0103259Y0281132D01*
X0103300Y0281240D01*
X0103345Y0281347D01*
X0103393Y0281452D01*
X0103445Y0281555D01*
X0103501Y0281656D01*
X0103560Y0281756D01*
X0103622Y0281853D01*
X0103688Y0281948D01*
X0103756Y0282041D01*
X0103828Y0282131D01*
X0103903Y0282219D01*
X0103982Y0282304D01*
X0104063Y0282386D01*
X0104146Y0282466D01*
X0104233Y0282542D01*
X0104322Y0282616D01*
X0104413Y0282686D01*
X0104507Y0282754D01*
X0104603Y0282818D01*
X0104702Y0282878D01*
X0104802Y0282935D01*
X0104904Y0282989D01*
X0105008Y0283039D01*
X0105114Y0283086D01*
X0105221Y0283129D01*
X0105330Y0283168D01*
X0105440Y0283203D01*
X0105551Y0283234D01*
X0105663Y0283262D01*
X0105776Y0283286D01*
X0105890Y0283306D01*
X0106005Y0283322D01*
X0106120Y0283334D01*
X0106235Y0283342D01*
X0106350Y0283346D01*
X0106466Y0283346D01*
X0106581Y0283342D01*
X0106696Y0283334D01*
X0106811Y0283322D01*
X0106926Y0283306D01*
X0107040Y0283286D01*
X0107153Y0283262D01*
X0107265Y0283234D01*
X0107376Y0283203D01*
X0107486Y0283168D01*
X0107595Y0283129D01*
X0107702Y0283086D01*
X0107808Y0283039D01*
X0107912Y0282989D01*
X0108014Y0282935D01*
X0108114Y0282878D01*
X0108213Y0282818D01*
X0108309Y0282754D01*
X0108403Y0282686D01*
X0108494Y0282616D01*
X0108583Y0282542D01*
X0108670Y0282466D01*
X0108753Y0282386D01*
X0108834Y0282304D01*
X0108913Y0282219D01*
X0108988Y0282131D01*
X0109060Y0282041D01*
X0109128Y0281948D01*
X0109194Y0281853D01*
X0109256Y0281756D01*
X0109315Y0281656D01*
X0109371Y0281555D01*
X0109423Y0281452D01*
X0109471Y0281347D01*
X0109516Y0281240D01*
X0109557Y0281132D01*
X0109594Y0281023D01*
X0109627Y0280912D01*
X0109657Y0280801D01*
X0109682Y0280688D01*
X0109704Y0280575D01*
X0109722Y0280461D01*
X0109736Y0280346D01*
X0109746Y0280231D01*
X0109752Y0280115D01*
X0109754Y0280000D01*
X0109752Y0279885D01*
X0109746Y0279769D01*
X0109736Y0279654D01*
X0109722Y0279539D01*
X0109704Y0279425D01*
X0109682Y0279312D01*
X0109657Y0279199D01*
X0109627Y0279088D01*
X0109594Y0278977D01*
X0109557Y0278868D01*
X0109516Y0278760D01*
X0109471Y0278653D01*
X0109423Y0278548D01*
X0109371Y0278445D01*
X0109315Y0278344D01*
X0109256Y0278244D01*
X0109194Y0278147D01*
X0109128Y0278052D01*
X0109060Y0277959D01*
X0108988Y0277869D01*
X0108913Y0277781D01*
X0108834Y0277696D01*
X0108753Y0277614D01*
X0108670Y0277534D01*
X0108583Y0277458D01*
X0108494Y0277384D01*
X0108403Y0277314D01*
X0108309Y0277246D01*
X0108213Y0277182D01*
X0108114Y0277122D01*
X0108014Y0277065D01*
X0107912Y0277011D01*
X0107808Y0276961D01*
X0107702Y0276914D01*
X0107595Y0276871D01*
X0107486Y0276832D01*
X0107376Y0276797D01*
X0107265Y0276766D01*
X0107153Y0276738D01*
X0107040Y0276714D01*
X0106926Y0276694D01*
X0106811Y0276678D01*
X0106696Y0276666D01*
X0106581Y0276658D01*
X0106466Y0276654D01*
X0106350Y0276654D01*
X0106235Y0276658D01*
X0106120Y0276666D01*
X0106005Y0276678D01*
X0105890Y0276694D01*
X0105776Y0276714D01*
X0105663Y0276738D01*
X0105551Y0276766D01*
X0105440Y0276797D01*
X0105330Y0276832D01*
X0105221Y0276871D01*
X0105114Y0276914D01*
X0105008Y0276961D01*
X0104904Y0277011D01*
X0104802Y0277065D01*
X0104702Y0277122D01*
X0104603Y0277182D01*
X0104507Y0277246D01*
X0104413Y0277314D01*
X0104322Y0277384D01*
X0104233Y0277458D01*
X0104146Y0277534D01*
X0104063Y0277614D01*
X0103982Y0277696D01*
X0103903Y0277781D01*
X0103828Y0277869D01*
X0103756Y0277959D01*
X0103688Y0278052D01*
X0103622Y0278147D01*
X0103560Y0278244D01*
X0103501Y0278344D01*
X0103445Y0278445D01*
X0103393Y0278548D01*
X0103345Y0278653D01*
X0103300Y0278760D01*
X0103259Y0278868D01*
X0103222Y0278977D01*
X0103189Y0279088D01*
X0103159Y0279199D01*
X0103134Y0279312D01*
X0103112Y0279425D01*
X0103094Y0279539D01*
X0103080Y0279654D01*
X0103070Y0279769D01*
X0103064Y0279885D01*
X0103062Y0280000D01*
X0103062Y0270000D02*
X0103064Y0270115D01*
X0103070Y0270231D01*
X0103080Y0270346D01*
X0103094Y0270461D01*
X0103112Y0270575D01*
X0103134Y0270688D01*
X0103159Y0270801D01*
X0103189Y0270912D01*
X0103222Y0271023D01*
X0103259Y0271132D01*
X0103300Y0271240D01*
X0103345Y0271347D01*
X0103393Y0271452D01*
X0103445Y0271555D01*
X0103501Y0271656D01*
X0103560Y0271756D01*
X0103622Y0271853D01*
X0103688Y0271948D01*
X0103756Y0272041D01*
X0103828Y0272131D01*
X0103903Y0272219D01*
X0103982Y0272304D01*
X0104063Y0272386D01*
X0104146Y0272466D01*
X0104233Y0272542D01*
X0104322Y0272616D01*
X0104413Y0272686D01*
X0104507Y0272754D01*
X0104603Y0272818D01*
X0104702Y0272878D01*
X0104802Y0272935D01*
X0104904Y0272989D01*
X0105008Y0273039D01*
X0105114Y0273086D01*
X0105221Y0273129D01*
X0105330Y0273168D01*
X0105440Y0273203D01*
X0105551Y0273234D01*
X0105663Y0273262D01*
X0105776Y0273286D01*
X0105890Y0273306D01*
X0106005Y0273322D01*
X0106120Y0273334D01*
X0106235Y0273342D01*
X0106350Y0273346D01*
X0106466Y0273346D01*
X0106581Y0273342D01*
X0106696Y0273334D01*
X0106811Y0273322D01*
X0106926Y0273306D01*
X0107040Y0273286D01*
X0107153Y0273262D01*
X0107265Y0273234D01*
X0107376Y0273203D01*
X0107486Y0273168D01*
X0107595Y0273129D01*
X0107702Y0273086D01*
X0107808Y0273039D01*
X0107912Y0272989D01*
X0108014Y0272935D01*
X0108114Y0272878D01*
X0108213Y0272818D01*
X0108309Y0272754D01*
X0108403Y0272686D01*
X0108494Y0272616D01*
X0108583Y0272542D01*
X0108670Y0272466D01*
X0108753Y0272386D01*
X0108834Y0272304D01*
X0108913Y0272219D01*
X0108988Y0272131D01*
X0109060Y0272041D01*
X0109128Y0271948D01*
X0109194Y0271853D01*
X0109256Y0271756D01*
X0109315Y0271656D01*
X0109371Y0271555D01*
X0109423Y0271452D01*
X0109471Y0271347D01*
X0109516Y0271240D01*
X0109557Y0271132D01*
X0109594Y0271023D01*
X0109627Y0270912D01*
X0109657Y0270801D01*
X0109682Y0270688D01*
X0109704Y0270575D01*
X0109722Y0270461D01*
X0109736Y0270346D01*
X0109746Y0270231D01*
X0109752Y0270115D01*
X0109754Y0270000D01*
X0109752Y0269885D01*
X0109746Y0269769D01*
X0109736Y0269654D01*
X0109722Y0269539D01*
X0109704Y0269425D01*
X0109682Y0269312D01*
X0109657Y0269199D01*
X0109627Y0269088D01*
X0109594Y0268977D01*
X0109557Y0268868D01*
X0109516Y0268760D01*
X0109471Y0268653D01*
X0109423Y0268548D01*
X0109371Y0268445D01*
X0109315Y0268344D01*
X0109256Y0268244D01*
X0109194Y0268147D01*
X0109128Y0268052D01*
X0109060Y0267959D01*
X0108988Y0267869D01*
X0108913Y0267781D01*
X0108834Y0267696D01*
X0108753Y0267614D01*
X0108670Y0267534D01*
X0108583Y0267458D01*
X0108494Y0267384D01*
X0108403Y0267314D01*
X0108309Y0267246D01*
X0108213Y0267182D01*
X0108114Y0267122D01*
X0108014Y0267065D01*
X0107912Y0267011D01*
X0107808Y0266961D01*
X0107702Y0266914D01*
X0107595Y0266871D01*
X0107486Y0266832D01*
X0107376Y0266797D01*
X0107265Y0266766D01*
X0107153Y0266738D01*
X0107040Y0266714D01*
X0106926Y0266694D01*
X0106811Y0266678D01*
X0106696Y0266666D01*
X0106581Y0266658D01*
X0106466Y0266654D01*
X0106350Y0266654D01*
X0106235Y0266658D01*
X0106120Y0266666D01*
X0106005Y0266678D01*
X0105890Y0266694D01*
X0105776Y0266714D01*
X0105663Y0266738D01*
X0105551Y0266766D01*
X0105440Y0266797D01*
X0105330Y0266832D01*
X0105221Y0266871D01*
X0105114Y0266914D01*
X0105008Y0266961D01*
X0104904Y0267011D01*
X0104802Y0267065D01*
X0104702Y0267122D01*
X0104603Y0267182D01*
X0104507Y0267246D01*
X0104413Y0267314D01*
X0104322Y0267384D01*
X0104233Y0267458D01*
X0104146Y0267534D01*
X0104063Y0267614D01*
X0103982Y0267696D01*
X0103903Y0267781D01*
X0103828Y0267869D01*
X0103756Y0267959D01*
X0103688Y0268052D01*
X0103622Y0268147D01*
X0103560Y0268244D01*
X0103501Y0268344D01*
X0103445Y0268445D01*
X0103393Y0268548D01*
X0103345Y0268653D01*
X0103300Y0268760D01*
X0103259Y0268868D01*
X0103222Y0268977D01*
X0103189Y0269088D01*
X0103159Y0269199D01*
X0103134Y0269312D01*
X0103112Y0269425D01*
X0103094Y0269539D01*
X0103080Y0269654D01*
X0103070Y0269769D01*
X0103064Y0269885D01*
X0103062Y0270000D01*
X0103062Y0260000D02*
X0103064Y0260115D01*
X0103070Y0260231D01*
X0103080Y0260346D01*
X0103094Y0260461D01*
X0103112Y0260575D01*
X0103134Y0260688D01*
X0103159Y0260801D01*
X0103189Y0260912D01*
X0103222Y0261023D01*
X0103259Y0261132D01*
X0103300Y0261240D01*
X0103345Y0261347D01*
X0103393Y0261452D01*
X0103445Y0261555D01*
X0103501Y0261656D01*
X0103560Y0261756D01*
X0103622Y0261853D01*
X0103688Y0261948D01*
X0103756Y0262041D01*
X0103828Y0262131D01*
X0103903Y0262219D01*
X0103982Y0262304D01*
X0104063Y0262386D01*
X0104146Y0262466D01*
X0104233Y0262542D01*
X0104322Y0262616D01*
X0104413Y0262686D01*
X0104507Y0262754D01*
X0104603Y0262818D01*
X0104702Y0262878D01*
X0104802Y0262935D01*
X0104904Y0262989D01*
X0105008Y0263039D01*
X0105114Y0263086D01*
X0105221Y0263129D01*
X0105330Y0263168D01*
X0105440Y0263203D01*
X0105551Y0263234D01*
X0105663Y0263262D01*
X0105776Y0263286D01*
X0105890Y0263306D01*
X0106005Y0263322D01*
X0106120Y0263334D01*
X0106235Y0263342D01*
X0106350Y0263346D01*
X0106466Y0263346D01*
X0106581Y0263342D01*
X0106696Y0263334D01*
X0106811Y0263322D01*
X0106926Y0263306D01*
X0107040Y0263286D01*
X0107153Y0263262D01*
X0107265Y0263234D01*
X0107376Y0263203D01*
X0107486Y0263168D01*
X0107595Y0263129D01*
X0107702Y0263086D01*
X0107808Y0263039D01*
X0107912Y0262989D01*
X0108014Y0262935D01*
X0108114Y0262878D01*
X0108213Y0262818D01*
X0108309Y0262754D01*
X0108403Y0262686D01*
X0108494Y0262616D01*
X0108583Y0262542D01*
X0108670Y0262466D01*
X0108753Y0262386D01*
X0108834Y0262304D01*
X0108913Y0262219D01*
X0108988Y0262131D01*
X0109060Y0262041D01*
X0109128Y0261948D01*
X0109194Y0261853D01*
X0109256Y0261756D01*
X0109315Y0261656D01*
X0109371Y0261555D01*
X0109423Y0261452D01*
X0109471Y0261347D01*
X0109516Y0261240D01*
X0109557Y0261132D01*
X0109594Y0261023D01*
X0109627Y0260912D01*
X0109657Y0260801D01*
X0109682Y0260688D01*
X0109704Y0260575D01*
X0109722Y0260461D01*
X0109736Y0260346D01*
X0109746Y0260231D01*
X0109752Y0260115D01*
X0109754Y0260000D01*
X0109752Y0259885D01*
X0109746Y0259769D01*
X0109736Y0259654D01*
X0109722Y0259539D01*
X0109704Y0259425D01*
X0109682Y0259312D01*
X0109657Y0259199D01*
X0109627Y0259088D01*
X0109594Y0258977D01*
X0109557Y0258868D01*
X0109516Y0258760D01*
X0109471Y0258653D01*
X0109423Y0258548D01*
X0109371Y0258445D01*
X0109315Y0258344D01*
X0109256Y0258244D01*
X0109194Y0258147D01*
X0109128Y0258052D01*
X0109060Y0257959D01*
X0108988Y0257869D01*
X0108913Y0257781D01*
X0108834Y0257696D01*
X0108753Y0257614D01*
X0108670Y0257534D01*
X0108583Y0257458D01*
X0108494Y0257384D01*
X0108403Y0257314D01*
X0108309Y0257246D01*
X0108213Y0257182D01*
X0108114Y0257122D01*
X0108014Y0257065D01*
X0107912Y0257011D01*
X0107808Y0256961D01*
X0107702Y0256914D01*
X0107595Y0256871D01*
X0107486Y0256832D01*
X0107376Y0256797D01*
X0107265Y0256766D01*
X0107153Y0256738D01*
X0107040Y0256714D01*
X0106926Y0256694D01*
X0106811Y0256678D01*
X0106696Y0256666D01*
X0106581Y0256658D01*
X0106466Y0256654D01*
X0106350Y0256654D01*
X0106235Y0256658D01*
X0106120Y0256666D01*
X0106005Y0256678D01*
X0105890Y0256694D01*
X0105776Y0256714D01*
X0105663Y0256738D01*
X0105551Y0256766D01*
X0105440Y0256797D01*
X0105330Y0256832D01*
X0105221Y0256871D01*
X0105114Y0256914D01*
X0105008Y0256961D01*
X0104904Y0257011D01*
X0104802Y0257065D01*
X0104702Y0257122D01*
X0104603Y0257182D01*
X0104507Y0257246D01*
X0104413Y0257314D01*
X0104322Y0257384D01*
X0104233Y0257458D01*
X0104146Y0257534D01*
X0104063Y0257614D01*
X0103982Y0257696D01*
X0103903Y0257781D01*
X0103828Y0257869D01*
X0103756Y0257959D01*
X0103688Y0258052D01*
X0103622Y0258147D01*
X0103560Y0258244D01*
X0103501Y0258344D01*
X0103445Y0258445D01*
X0103393Y0258548D01*
X0103345Y0258653D01*
X0103300Y0258760D01*
X0103259Y0258868D01*
X0103222Y0258977D01*
X0103189Y0259088D01*
X0103159Y0259199D01*
X0103134Y0259312D01*
X0103112Y0259425D01*
X0103094Y0259539D01*
X0103080Y0259654D01*
X0103070Y0259769D01*
X0103064Y0259885D01*
X0103062Y0260000D01*
X0103062Y0250000D02*
X0103064Y0250115D01*
X0103070Y0250231D01*
X0103080Y0250346D01*
X0103094Y0250461D01*
X0103112Y0250575D01*
X0103134Y0250688D01*
X0103159Y0250801D01*
X0103189Y0250912D01*
X0103222Y0251023D01*
X0103259Y0251132D01*
X0103300Y0251240D01*
X0103345Y0251347D01*
X0103393Y0251452D01*
X0103445Y0251555D01*
X0103501Y0251656D01*
X0103560Y0251756D01*
X0103622Y0251853D01*
X0103688Y0251948D01*
X0103756Y0252041D01*
X0103828Y0252131D01*
X0103903Y0252219D01*
X0103982Y0252304D01*
X0104063Y0252386D01*
X0104146Y0252466D01*
X0104233Y0252542D01*
X0104322Y0252616D01*
X0104413Y0252686D01*
X0104507Y0252754D01*
X0104603Y0252818D01*
X0104702Y0252878D01*
X0104802Y0252935D01*
X0104904Y0252989D01*
X0105008Y0253039D01*
X0105114Y0253086D01*
X0105221Y0253129D01*
X0105330Y0253168D01*
X0105440Y0253203D01*
X0105551Y0253234D01*
X0105663Y0253262D01*
X0105776Y0253286D01*
X0105890Y0253306D01*
X0106005Y0253322D01*
X0106120Y0253334D01*
X0106235Y0253342D01*
X0106350Y0253346D01*
X0106466Y0253346D01*
X0106581Y0253342D01*
X0106696Y0253334D01*
X0106811Y0253322D01*
X0106926Y0253306D01*
X0107040Y0253286D01*
X0107153Y0253262D01*
X0107265Y0253234D01*
X0107376Y0253203D01*
X0107486Y0253168D01*
X0107595Y0253129D01*
X0107702Y0253086D01*
X0107808Y0253039D01*
X0107912Y0252989D01*
X0108014Y0252935D01*
X0108114Y0252878D01*
X0108213Y0252818D01*
X0108309Y0252754D01*
X0108403Y0252686D01*
X0108494Y0252616D01*
X0108583Y0252542D01*
X0108670Y0252466D01*
X0108753Y0252386D01*
X0108834Y0252304D01*
X0108913Y0252219D01*
X0108988Y0252131D01*
X0109060Y0252041D01*
X0109128Y0251948D01*
X0109194Y0251853D01*
X0109256Y0251756D01*
X0109315Y0251656D01*
X0109371Y0251555D01*
X0109423Y0251452D01*
X0109471Y0251347D01*
X0109516Y0251240D01*
X0109557Y0251132D01*
X0109594Y0251023D01*
X0109627Y0250912D01*
X0109657Y0250801D01*
X0109682Y0250688D01*
X0109704Y0250575D01*
X0109722Y0250461D01*
X0109736Y0250346D01*
X0109746Y0250231D01*
X0109752Y0250115D01*
X0109754Y0250000D01*
X0109752Y0249885D01*
X0109746Y0249769D01*
X0109736Y0249654D01*
X0109722Y0249539D01*
X0109704Y0249425D01*
X0109682Y0249312D01*
X0109657Y0249199D01*
X0109627Y0249088D01*
X0109594Y0248977D01*
X0109557Y0248868D01*
X0109516Y0248760D01*
X0109471Y0248653D01*
X0109423Y0248548D01*
X0109371Y0248445D01*
X0109315Y0248344D01*
X0109256Y0248244D01*
X0109194Y0248147D01*
X0109128Y0248052D01*
X0109060Y0247959D01*
X0108988Y0247869D01*
X0108913Y0247781D01*
X0108834Y0247696D01*
X0108753Y0247614D01*
X0108670Y0247534D01*
X0108583Y0247458D01*
X0108494Y0247384D01*
X0108403Y0247314D01*
X0108309Y0247246D01*
X0108213Y0247182D01*
X0108114Y0247122D01*
X0108014Y0247065D01*
X0107912Y0247011D01*
X0107808Y0246961D01*
X0107702Y0246914D01*
X0107595Y0246871D01*
X0107486Y0246832D01*
X0107376Y0246797D01*
X0107265Y0246766D01*
X0107153Y0246738D01*
X0107040Y0246714D01*
X0106926Y0246694D01*
X0106811Y0246678D01*
X0106696Y0246666D01*
X0106581Y0246658D01*
X0106466Y0246654D01*
X0106350Y0246654D01*
X0106235Y0246658D01*
X0106120Y0246666D01*
X0106005Y0246678D01*
X0105890Y0246694D01*
X0105776Y0246714D01*
X0105663Y0246738D01*
X0105551Y0246766D01*
X0105440Y0246797D01*
X0105330Y0246832D01*
X0105221Y0246871D01*
X0105114Y0246914D01*
X0105008Y0246961D01*
X0104904Y0247011D01*
X0104802Y0247065D01*
X0104702Y0247122D01*
X0104603Y0247182D01*
X0104507Y0247246D01*
X0104413Y0247314D01*
X0104322Y0247384D01*
X0104233Y0247458D01*
X0104146Y0247534D01*
X0104063Y0247614D01*
X0103982Y0247696D01*
X0103903Y0247781D01*
X0103828Y0247869D01*
X0103756Y0247959D01*
X0103688Y0248052D01*
X0103622Y0248147D01*
X0103560Y0248244D01*
X0103501Y0248344D01*
X0103445Y0248445D01*
X0103393Y0248548D01*
X0103345Y0248653D01*
X0103300Y0248760D01*
X0103259Y0248868D01*
X0103222Y0248977D01*
X0103189Y0249088D01*
X0103159Y0249199D01*
X0103134Y0249312D01*
X0103112Y0249425D01*
X0103094Y0249539D01*
X0103080Y0249654D01*
X0103070Y0249769D01*
X0103064Y0249885D01*
X0103062Y0250000D01*
X0113062Y0250000D02*
X0113064Y0250115D01*
X0113070Y0250231D01*
X0113080Y0250346D01*
X0113094Y0250461D01*
X0113112Y0250575D01*
X0113134Y0250688D01*
X0113159Y0250801D01*
X0113189Y0250912D01*
X0113222Y0251023D01*
X0113259Y0251132D01*
X0113300Y0251240D01*
X0113345Y0251347D01*
X0113393Y0251452D01*
X0113445Y0251555D01*
X0113501Y0251656D01*
X0113560Y0251756D01*
X0113622Y0251853D01*
X0113688Y0251948D01*
X0113756Y0252041D01*
X0113828Y0252131D01*
X0113903Y0252219D01*
X0113982Y0252304D01*
X0114063Y0252386D01*
X0114146Y0252466D01*
X0114233Y0252542D01*
X0114322Y0252616D01*
X0114413Y0252686D01*
X0114507Y0252754D01*
X0114603Y0252818D01*
X0114702Y0252878D01*
X0114802Y0252935D01*
X0114904Y0252989D01*
X0115008Y0253039D01*
X0115114Y0253086D01*
X0115221Y0253129D01*
X0115330Y0253168D01*
X0115440Y0253203D01*
X0115551Y0253234D01*
X0115663Y0253262D01*
X0115776Y0253286D01*
X0115890Y0253306D01*
X0116005Y0253322D01*
X0116120Y0253334D01*
X0116235Y0253342D01*
X0116350Y0253346D01*
X0116466Y0253346D01*
X0116581Y0253342D01*
X0116696Y0253334D01*
X0116811Y0253322D01*
X0116926Y0253306D01*
X0117040Y0253286D01*
X0117153Y0253262D01*
X0117265Y0253234D01*
X0117376Y0253203D01*
X0117486Y0253168D01*
X0117595Y0253129D01*
X0117702Y0253086D01*
X0117808Y0253039D01*
X0117912Y0252989D01*
X0118014Y0252935D01*
X0118114Y0252878D01*
X0118213Y0252818D01*
X0118309Y0252754D01*
X0118403Y0252686D01*
X0118494Y0252616D01*
X0118583Y0252542D01*
X0118670Y0252466D01*
X0118753Y0252386D01*
X0118834Y0252304D01*
X0118913Y0252219D01*
X0118988Y0252131D01*
X0119060Y0252041D01*
X0119128Y0251948D01*
X0119194Y0251853D01*
X0119256Y0251756D01*
X0119315Y0251656D01*
X0119371Y0251555D01*
X0119423Y0251452D01*
X0119471Y0251347D01*
X0119516Y0251240D01*
X0119557Y0251132D01*
X0119594Y0251023D01*
X0119627Y0250912D01*
X0119657Y0250801D01*
X0119682Y0250688D01*
X0119704Y0250575D01*
X0119722Y0250461D01*
X0119736Y0250346D01*
X0119746Y0250231D01*
X0119752Y0250115D01*
X0119754Y0250000D01*
X0119752Y0249885D01*
X0119746Y0249769D01*
X0119736Y0249654D01*
X0119722Y0249539D01*
X0119704Y0249425D01*
X0119682Y0249312D01*
X0119657Y0249199D01*
X0119627Y0249088D01*
X0119594Y0248977D01*
X0119557Y0248868D01*
X0119516Y0248760D01*
X0119471Y0248653D01*
X0119423Y0248548D01*
X0119371Y0248445D01*
X0119315Y0248344D01*
X0119256Y0248244D01*
X0119194Y0248147D01*
X0119128Y0248052D01*
X0119060Y0247959D01*
X0118988Y0247869D01*
X0118913Y0247781D01*
X0118834Y0247696D01*
X0118753Y0247614D01*
X0118670Y0247534D01*
X0118583Y0247458D01*
X0118494Y0247384D01*
X0118403Y0247314D01*
X0118309Y0247246D01*
X0118213Y0247182D01*
X0118114Y0247122D01*
X0118014Y0247065D01*
X0117912Y0247011D01*
X0117808Y0246961D01*
X0117702Y0246914D01*
X0117595Y0246871D01*
X0117486Y0246832D01*
X0117376Y0246797D01*
X0117265Y0246766D01*
X0117153Y0246738D01*
X0117040Y0246714D01*
X0116926Y0246694D01*
X0116811Y0246678D01*
X0116696Y0246666D01*
X0116581Y0246658D01*
X0116466Y0246654D01*
X0116350Y0246654D01*
X0116235Y0246658D01*
X0116120Y0246666D01*
X0116005Y0246678D01*
X0115890Y0246694D01*
X0115776Y0246714D01*
X0115663Y0246738D01*
X0115551Y0246766D01*
X0115440Y0246797D01*
X0115330Y0246832D01*
X0115221Y0246871D01*
X0115114Y0246914D01*
X0115008Y0246961D01*
X0114904Y0247011D01*
X0114802Y0247065D01*
X0114702Y0247122D01*
X0114603Y0247182D01*
X0114507Y0247246D01*
X0114413Y0247314D01*
X0114322Y0247384D01*
X0114233Y0247458D01*
X0114146Y0247534D01*
X0114063Y0247614D01*
X0113982Y0247696D01*
X0113903Y0247781D01*
X0113828Y0247869D01*
X0113756Y0247959D01*
X0113688Y0248052D01*
X0113622Y0248147D01*
X0113560Y0248244D01*
X0113501Y0248344D01*
X0113445Y0248445D01*
X0113393Y0248548D01*
X0113345Y0248653D01*
X0113300Y0248760D01*
X0113259Y0248868D01*
X0113222Y0248977D01*
X0113189Y0249088D01*
X0113159Y0249199D01*
X0113134Y0249312D01*
X0113112Y0249425D01*
X0113094Y0249539D01*
X0113080Y0249654D01*
X0113070Y0249769D01*
X0113064Y0249885D01*
X0113062Y0250000D01*
X0113062Y0260000D02*
X0113064Y0260115D01*
X0113070Y0260231D01*
X0113080Y0260346D01*
X0113094Y0260461D01*
X0113112Y0260575D01*
X0113134Y0260688D01*
X0113159Y0260801D01*
X0113189Y0260912D01*
X0113222Y0261023D01*
X0113259Y0261132D01*
X0113300Y0261240D01*
X0113345Y0261347D01*
X0113393Y0261452D01*
X0113445Y0261555D01*
X0113501Y0261656D01*
X0113560Y0261756D01*
X0113622Y0261853D01*
X0113688Y0261948D01*
X0113756Y0262041D01*
X0113828Y0262131D01*
X0113903Y0262219D01*
X0113982Y0262304D01*
X0114063Y0262386D01*
X0114146Y0262466D01*
X0114233Y0262542D01*
X0114322Y0262616D01*
X0114413Y0262686D01*
X0114507Y0262754D01*
X0114603Y0262818D01*
X0114702Y0262878D01*
X0114802Y0262935D01*
X0114904Y0262989D01*
X0115008Y0263039D01*
X0115114Y0263086D01*
X0115221Y0263129D01*
X0115330Y0263168D01*
X0115440Y0263203D01*
X0115551Y0263234D01*
X0115663Y0263262D01*
X0115776Y0263286D01*
X0115890Y0263306D01*
X0116005Y0263322D01*
X0116120Y0263334D01*
X0116235Y0263342D01*
X0116350Y0263346D01*
X0116466Y0263346D01*
X0116581Y0263342D01*
X0116696Y0263334D01*
X0116811Y0263322D01*
X0116926Y0263306D01*
X0117040Y0263286D01*
X0117153Y0263262D01*
X0117265Y0263234D01*
X0117376Y0263203D01*
X0117486Y0263168D01*
X0117595Y0263129D01*
X0117702Y0263086D01*
X0117808Y0263039D01*
X0117912Y0262989D01*
X0118014Y0262935D01*
X0118114Y0262878D01*
X0118213Y0262818D01*
X0118309Y0262754D01*
X0118403Y0262686D01*
X0118494Y0262616D01*
X0118583Y0262542D01*
X0118670Y0262466D01*
X0118753Y0262386D01*
X0118834Y0262304D01*
X0118913Y0262219D01*
X0118988Y0262131D01*
X0119060Y0262041D01*
X0119128Y0261948D01*
X0119194Y0261853D01*
X0119256Y0261756D01*
X0119315Y0261656D01*
X0119371Y0261555D01*
X0119423Y0261452D01*
X0119471Y0261347D01*
X0119516Y0261240D01*
X0119557Y0261132D01*
X0119594Y0261023D01*
X0119627Y0260912D01*
X0119657Y0260801D01*
X0119682Y0260688D01*
X0119704Y0260575D01*
X0119722Y0260461D01*
X0119736Y0260346D01*
X0119746Y0260231D01*
X0119752Y0260115D01*
X0119754Y0260000D01*
X0119752Y0259885D01*
X0119746Y0259769D01*
X0119736Y0259654D01*
X0119722Y0259539D01*
X0119704Y0259425D01*
X0119682Y0259312D01*
X0119657Y0259199D01*
X0119627Y0259088D01*
X0119594Y0258977D01*
X0119557Y0258868D01*
X0119516Y0258760D01*
X0119471Y0258653D01*
X0119423Y0258548D01*
X0119371Y0258445D01*
X0119315Y0258344D01*
X0119256Y0258244D01*
X0119194Y0258147D01*
X0119128Y0258052D01*
X0119060Y0257959D01*
X0118988Y0257869D01*
X0118913Y0257781D01*
X0118834Y0257696D01*
X0118753Y0257614D01*
X0118670Y0257534D01*
X0118583Y0257458D01*
X0118494Y0257384D01*
X0118403Y0257314D01*
X0118309Y0257246D01*
X0118213Y0257182D01*
X0118114Y0257122D01*
X0118014Y0257065D01*
X0117912Y0257011D01*
X0117808Y0256961D01*
X0117702Y0256914D01*
X0117595Y0256871D01*
X0117486Y0256832D01*
X0117376Y0256797D01*
X0117265Y0256766D01*
X0117153Y0256738D01*
X0117040Y0256714D01*
X0116926Y0256694D01*
X0116811Y0256678D01*
X0116696Y0256666D01*
X0116581Y0256658D01*
X0116466Y0256654D01*
X0116350Y0256654D01*
X0116235Y0256658D01*
X0116120Y0256666D01*
X0116005Y0256678D01*
X0115890Y0256694D01*
X0115776Y0256714D01*
X0115663Y0256738D01*
X0115551Y0256766D01*
X0115440Y0256797D01*
X0115330Y0256832D01*
X0115221Y0256871D01*
X0115114Y0256914D01*
X0115008Y0256961D01*
X0114904Y0257011D01*
X0114802Y0257065D01*
X0114702Y0257122D01*
X0114603Y0257182D01*
X0114507Y0257246D01*
X0114413Y0257314D01*
X0114322Y0257384D01*
X0114233Y0257458D01*
X0114146Y0257534D01*
X0114063Y0257614D01*
X0113982Y0257696D01*
X0113903Y0257781D01*
X0113828Y0257869D01*
X0113756Y0257959D01*
X0113688Y0258052D01*
X0113622Y0258147D01*
X0113560Y0258244D01*
X0113501Y0258344D01*
X0113445Y0258445D01*
X0113393Y0258548D01*
X0113345Y0258653D01*
X0113300Y0258760D01*
X0113259Y0258868D01*
X0113222Y0258977D01*
X0113189Y0259088D01*
X0113159Y0259199D01*
X0113134Y0259312D01*
X0113112Y0259425D01*
X0113094Y0259539D01*
X0113080Y0259654D01*
X0113070Y0259769D01*
X0113064Y0259885D01*
X0113062Y0260000D01*
X0113062Y0270000D02*
X0113064Y0270115D01*
X0113070Y0270231D01*
X0113080Y0270346D01*
X0113094Y0270461D01*
X0113112Y0270575D01*
X0113134Y0270688D01*
X0113159Y0270801D01*
X0113189Y0270912D01*
X0113222Y0271023D01*
X0113259Y0271132D01*
X0113300Y0271240D01*
X0113345Y0271347D01*
X0113393Y0271452D01*
X0113445Y0271555D01*
X0113501Y0271656D01*
X0113560Y0271756D01*
X0113622Y0271853D01*
X0113688Y0271948D01*
X0113756Y0272041D01*
X0113828Y0272131D01*
X0113903Y0272219D01*
X0113982Y0272304D01*
X0114063Y0272386D01*
X0114146Y0272466D01*
X0114233Y0272542D01*
X0114322Y0272616D01*
X0114413Y0272686D01*
X0114507Y0272754D01*
X0114603Y0272818D01*
X0114702Y0272878D01*
X0114802Y0272935D01*
X0114904Y0272989D01*
X0115008Y0273039D01*
X0115114Y0273086D01*
X0115221Y0273129D01*
X0115330Y0273168D01*
X0115440Y0273203D01*
X0115551Y0273234D01*
X0115663Y0273262D01*
X0115776Y0273286D01*
X0115890Y0273306D01*
X0116005Y0273322D01*
X0116120Y0273334D01*
X0116235Y0273342D01*
X0116350Y0273346D01*
X0116466Y0273346D01*
X0116581Y0273342D01*
X0116696Y0273334D01*
X0116811Y0273322D01*
X0116926Y0273306D01*
X0117040Y0273286D01*
X0117153Y0273262D01*
X0117265Y0273234D01*
X0117376Y0273203D01*
X0117486Y0273168D01*
X0117595Y0273129D01*
X0117702Y0273086D01*
X0117808Y0273039D01*
X0117912Y0272989D01*
X0118014Y0272935D01*
X0118114Y0272878D01*
X0118213Y0272818D01*
X0118309Y0272754D01*
X0118403Y0272686D01*
X0118494Y0272616D01*
X0118583Y0272542D01*
X0118670Y0272466D01*
X0118753Y0272386D01*
X0118834Y0272304D01*
X0118913Y0272219D01*
X0118988Y0272131D01*
X0119060Y0272041D01*
X0119128Y0271948D01*
X0119194Y0271853D01*
X0119256Y0271756D01*
X0119315Y0271656D01*
X0119371Y0271555D01*
X0119423Y0271452D01*
X0119471Y0271347D01*
X0119516Y0271240D01*
X0119557Y0271132D01*
X0119594Y0271023D01*
X0119627Y0270912D01*
X0119657Y0270801D01*
X0119682Y0270688D01*
X0119704Y0270575D01*
X0119722Y0270461D01*
X0119736Y0270346D01*
X0119746Y0270231D01*
X0119752Y0270115D01*
X0119754Y0270000D01*
X0119752Y0269885D01*
X0119746Y0269769D01*
X0119736Y0269654D01*
X0119722Y0269539D01*
X0119704Y0269425D01*
X0119682Y0269312D01*
X0119657Y0269199D01*
X0119627Y0269088D01*
X0119594Y0268977D01*
X0119557Y0268868D01*
X0119516Y0268760D01*
X0119471Y0268653D01*
X0119423Y0268548D01*
X0119371Y0268445D01*
X0119315Y0268344D01*
X0119256Y0268244D01*
X0119194Y0268147D01*
X0119128Y0268052D01*
X0119060Y0267959D01*
X0118988Y0267869D01*
X0118913Y0267781D01*
X0118834Y0267696D01*
X0118753Y0267614D01*
X0118670Y0267534D01*
X0118583Y0267458D01*
X0118494Y0267384D01*
X0118403Y0267314D01*
X0118309Y0267246D01*
X0118213Y0267182D01*
X0118114Y0267122D01*
X0118014Y0267065D01*
X0117912Y0267011D01*
X0117808Y0266961D01*
X0117702Y0266914D01*
X0117595Y0266871D01*
X0117486Y0266832D01*
X0117376Y0266797D01*
X0117265Y0266766D01*
X0117153Y0266738D01*
X0117040Y0266714D01*
X0116926Y0266694D01*
X0116811Y0266678D01*
X0116696Y0266666D01*
X0116581Y0266658D01*
X0116466Y0266654D01*
X0116350Y0266654D01*
X0116235Y0266658D01*
X0116120Y0266666D01*
X0116005Y0266678D01*
X0115890Y0266694D01*
X0115776Y0266714D01*
X0115663Y0266738D01*
X0115551Y0266766D01*
X0115440Y0266797D01*
X0115330Y0266832D01*
X0115221Y0266871D01*
X0115114Y0266914D01*
X0115008Y0266961D01*
X0114904Y0267011D01*
X0114802Y0267065D01*
X0114702Y0267122D01*
X0114603Y0267182D01*
X0114507Y0267246D01*
X0114413Y0267314D01*
X0114322Y0267384D01*
X0114233Y0267458D01*
X0114146Y0267534D01*
X0114063Y0267614D01*
X0113982Y0267696D01*
X0113903Y0267781D01*
X0113828Y0267869D01*
X0113756Y0267959D01*
X0113688Y0268052D01*
X0113622Y0268147D01*
X0113560Y0268244D01*
X0113501Y0268344D01*
X0113445Y0268445D01*
X0113393Y0268548D01*
X0113345Y0268653D01*
X0113300Y0268760D01*
X0113259Y0268868D01*
X0113222Y0268977D01*
X0113189Y0269088D01*
X0113159Y0269199D01*
X0113134Y0269312D01*
X0113112Y0269425D01*
X0113094Y0269539D01*
X0113080Y0269654D01*
X0113070Y0269769D01*
X0113064Y0269885D01*
X0113062Y0270000D01*
X0113062Y0280000D02*
X0113064Y0280115D01*
X0113070Y0280231D01*
X0113080Y0280346D01*
X0113094Y0280461D01*
X0113112Y0280575D01*
X0113134Y0280688D01*
X0113159Y0280801D01*
X0113189Y0280912D01*
X0113222Y0281023D01*
X0113259Y0281132D01*
X0113300Y0281240D01*
X0113345Y0281347D01*
X0113393Y0281452D01*
X0113445Y0281555D01*
X0113501Y0281656D01*
X0113560Y0281756D01*
X0113622Y0281853D01*
X0113688Y0281948D01*
X0113756Y0282041D01*
X0113828Y0282131D01*
X0113903Y0282219D01*
X0113982Y0282304D01*
X0114063Y0282386D01*
X0114146Y0282466D01*
X0114233Y0282542D01*
X0114322Y0282616D01*
X0114413Y0282686D01*
X0114507Y0282754D01*
X0114603Y0282818D01*
X0114702Y0282878D01*
X0114802Y0282935D01*
X0114904Y0282989D01*
X0115008Y0283039D01*
X0115114Y0283086D01*
X0115221Y0283129D01*
X0115330Y0283168D01*
X0115440Y0283203D01*
X0115551Y0283234D01*
X0115663Y0283262D01*
X0115776Y0283286D01*
X0115890Y0283306D01*
X0116005Y0283322D01*
X0116120Y0283334D01*
X0116235Y0283342D01*
X0116350Y0283346D01*
X0116466Y0283346D01*
X0116581Y0283342D01*
X0116696Y0283334D01*
X0116811Y0283322D01*
X0116926Y0283306D01*
X0117040Y0283286D01*
X0117153Y0283262D01*
X0117265Y0283234D01*
X0117376Y0283203D01*
X0117486Y0283168D01*
X0117595Y0283129D01*
X0117702Y0283086D01*
X0117808Y0283039D01*
X0117912Y0282989D01*
X0118014Y0282935D01*
X0118114Y0282878D01*
X0118213Y0282818D01*
X0118309Y0282754D01*
X0118403Y0282686D01*
X0118494Y0282616D01*
X0118583Y0282542D01*
X0118670Y0282466D01*
X0118753Y0282386D01*
X0118834Y0282304D01*
X0118913Y0282219D01*
X0118988Y0282131D01*
X0119060Y0282041D01*
X0119128Y0281948D01*
X0119194Y0281853D01*
X0119256Y0281756D01*
X0119315Y0281656D01*
X0119371Y0281555D01*
X0119423Y0281452D01*
X0119471Y0281347D01*
X0119516Y0281240D01*
X0119557Y0281132D01*
X0119594Y0281023D01*
X0119627Y0280912D01*
X0119657Y0280801D01*
X0119682Y0280688D01*
X0119704Y0280575D01*
X0119722Y0280461D01*
X0119736Y0280346D01*
X0119746Y0280231D01*
X0119752Y0280115D01*
X0119754Y0280000D01*
X0119752Y0279885D01*
X0119746Y0279769D01*
X0119736Y0279654D01*
X0119722Y0279539D01*
X0119704Y0279425D01*
X0119682Y0279312D01*
X0119657Y0279199D01*
X0119627Y0279088D01*
X0119594Y0278977D01*
X0119557Y0278868D01*
X0119516Y0278760D01*
X0119471Y0278653D01*
X0119423Y0278548D01*
X0119371Y0278445D01*
X0119315Y0278344D01*
X0119256Y0278244D01*
X0119194Y0278147D01*
X0119128Y0278052D01*
X0119060Y0277959D01*
X0118988Y0277869D01*
X0118913Y0277781D01*
X0118834Y0277696D01*
X0118753Y0277614D01*
X0118670Y0277534D01*
X0118583Y0277458D01*
X0118494Y0277384D01*
X0118403Y0277314D01*
X0118309Y0277246D01*
X0118213Y0277182D01*
X0118114Y0277122D01*
X0118014Y0277065D01*
X0117912Y0277011D01*
X0117808Y0276961D01*
X0117702Y0276914D01*
X0117595Y0276871D01*
X0117486Y0276832D01*
X0117376Y0276797D01*
X0117265Y0276766D01*
X0117153Y0276738D01*
X0117040Y0276714D01*
X0116926Y0276694D01*
X0116811Y0276678D01*
X0116696Y0276666D01*
X0116581Y0276658D01*
X0116466Y0276654D01*
X0116350Y0276654D01*
X0116235Y0276658D01*
X0116120Y0276666D01*
X0116005Y0276678D01*
X0115890Y0276694D01*
X0115776Y0276714D01*
X0115663Y0276738D01*
X0115551Y0276766D01*
X0115440Y0276797D01*
X0115330Y0276832D01*
X0115221Y0276871D01*
X0115114Y0276914D01*
X0115008Y0276961D01*
X0114904Y0277011D01*
X0114802Y0277065D01*
X0114702Y0277122D01*
X0114603Y0277182D01*
X0114507Y0277246D01*
X0114413Y0277314D01*
X0114322Y0277384D01*
X0114233Y0277458D01*
X0114146Y0277534D01*
X0114063Y0277614D01*
X0113982Y0277696D01*
X0113903Y0277781D01*
X0113828Y0277869D01*
X0113756Y0277959D01*
X0113688Y0278052D01*
X0113622Y0278147D01*
X0113560Y0278244D01*
X0113501Y0278344D01*
X0113445Y0278445D01*
X0113393Y0278548D01*
X0113345Y0278653D01*
X0113300Y0278760D01*
X0113259Y0278868D01*
X0113222Y0278977D01*
X0113189Y0279088D01*
X0113159Y0279199D01*
X0113134Y0279312D01*
X0113112Y0279425D01*
X0113094Y0279539D01*
X0113080Y0279654D01*
X0113070Y0279769D01*
X0113064Y0279885D01*
X0113062Y0280000D01*
X0123062Y0280000D02*
X0123064Y0280115D01*
X0123070Y0280231D01*
X0123080Y0280346D01*
X0123094Y0280461D01*
X0123112Y0280575D01*
X0123134Y0280688D01*
X0123159Y0280801D01*
X0123189Y0280912D01*
X0123222Y0281023D01*
X0123259Y0281132D01*
X0123300Y0281240D01*
X0123345Y0281347D01*
X0123393Y0281452D01*
X0123445Y0281555D01*
X0123501Y0281656D01*
X0123560Y0281756D01*
X0123622Y0281853D01*
X0123688Y0281948D01*
X0123756Y0282041D01*
X0123828Y0282131D01*
X0123903Y0282219D01*
X0123982Y0282304D01*
X0124063Y0282386D01*
X0124146Y0282466D01*
X0124233Y0282542D01*
X0124322Y0282616D01*
X0124413Y0282686D01*
X0124507Y0282754D01*
X0124603Y0282818D01*
X0124702Y0282878D01*
X0124802Y0282935D01*
X0124904Y0282989D01*
X0125008Y0283039D01*
X0125114Y0283086D01*
X0125221Y0283129D01*
X0125330Y0283168D01*
X0125440Y0283203D01*
X0125551Y0283234D01*
X0125663Y0283262D01*
X0125776Y0283286D01*
X0125890Y0283306D01*
X0126005Y0283322D01*
X0126120Y0283334D01*
X0126235Y0283342D01*
X0126350Y0283346D01*
X0126466Y0283346D01*
X0126581Y0283342D01*
X0126696Y0283334D01*
X0126811Y0283322D01*
X0126926Y0283306D01*
X0127040Y0283286D01*
X0127153Y0283262D01*
X0127265Y0283234D01*
X0127376Y0283203D01*
X0127486Y0283168D01*
X0127595Y0283129D01*
X0127702Y0283086D01*
X0127808Y0283039D01*
X0127912Y0282989D01*
X0128014Y0282935D01*
X0128114Y0282878D01*
X0128213Y0282818D01*
X0128309Y0282754D01*
X0128403Y0282686D01*
X0128494Y0282616D01*
X0128583Y0282542D01*
X0128670Y0282466D01*
X0128753Y0282386D01*
X0128834Y0282304D01*
X0128913Y0282219D01*
X0128988Y0282131D01*
X0129060Y0282041D01*
X0129128Y0281948D01*
X0129194Y0281853D01*
X0129256Y0281756D01*
X0129315Y0281656D01*
X0129371Y0281555D01*
X0129423Y0281452D01*
X0129471Y0281347D01*
X0129516Y0281240D01*
X0129557Y0281132D01*
X0129594Y0281023D01*
X0129627Y0280912D01*
X0129657Y0280801D01*
X0129682Y0280688D01*
X0129704Y0280575D01*
X0129722Y0280461D01*
X0129736Y0280346D01*
X0129746Y0280231D01*
X0129752Y0280115D01*
X0129754Y0280000D01*
X0129752Y0279885D01*
X0129746Y0279769D01*
X0129736Y0279654D01*
X0129722Y0279539D01*
X0129704Y0279425D01*
X0129682Y0279312D01*
X0129657Y0279199D01*
X0129627Y0279088D01*
X0129594Y0278977D01*
X0129557Y0278868D01*
X0129516Y0278760D01*
X0129471Y0278653D01*
X0129423Y0278548D01*
X0129371Y0278445D01*
X0129315Y0278344D01*
X0129256Y0278244D01*
X0129194Y0278147D01*
X0129128Y0278052D01*
X0129060Y0277959D01*
X0128988Y0277869D01*
X0128913Y0277781D01*
X0128834Y0277696D01*
X0128753Y0277614D01*
X0128670Y0277534D01*
X0128583Y0277458D01*
X0128494Y0277384D01*
X0128403Y0277314D01*
X0128309Y0277246D01*
X0128213Y0277182D01*
X0128114Y0277122D01*
X0128014Y0277065D01*
X0127912Y0277011D01*
X0127808Y0276961D01*
X0127702Y0276914D01*
X0127595Y0276871D01*
X0127486Y0276832D01*
X0127376Y0276797D01*
X0127265Y0276766D01*
X0127153Y0276738D01*
X0127040Y0276714D01*
X0126926Y0276694D01*
X0126811Y0276678D01*
X0126696Y0276666D01*
X0126581Y0276658D01*
X0126466Y0276654D01*
X0126350Y0276654D01*
X0126235Y0276658D01*
X0126120Y0276666D01*
X0126005Y0276678D01*
X0125890Y0276694D01*
X0125776Y0276714D01*
X0125663Y0276738D01*
X0125551Y0276766D01*
X0125440Y0276797D01*
X0125330Y0276832D01*
X0125221Y0276871D01*
X0125114Y0276914D01*
X0125008Y0276961D01*
X0124904Y0277011D01*
X0124802Y0277065D01*
X0124702Y0277122D01*
X0124603Y0277182D01*
X0124507Y0277246D01*
X0124413Y0277314D01*
X0124322Y0277384D01*
X0124233Y0277458D01*
X0124146Y0277534D01*
X0124063Y0277614D01*
X0123982Y0277696D01*
X0123903Y0277781D01*
X0123828Y0277869D01*
X0123756Y0277959D01*
X0123688Y0278052D01*
X0123622Y0278147D01*
X0123560Y0278244D01*
X0123501Y0278344D01*
X0123445Y0278445D01*
X0123393Y0278548D01*
X0123345Y0278653D01*
X0123300Y0278760D01*
X0123259Y0278868D01*
X0123222Y0278977D01*
X0123189Y0279088D01*
X0123159Y0279199D01*
X0123134Y0279312D01*
X0123112Y0279425D01*
X0123094Y0279539D01*
X0123080Y0279654D01*
X0123070Y0279769D01*
X0123064Y0279885D01*
X0123062Y0280000D01*
X0105908Y0302000D02*
X0105910Y0302148D01*
X0105916Y0302296D01*
X0105926Y0302444D01*
X0105940Y0302592D01*
X0105958Y0302739D01*
X0105980Y0302886D01*
X0106006Y0303032D01*
X0106035Y0303177D01*
X0106069Y0303322D01*
X0106107Y0303465D01*
X0106148Y0303608D01*
X0106193Y0303749D01*
X0106243Y0303889D01*
X0106295Y0304027D01*
X0106352Y0304165D01*
X0106412Y0304300D01*
X0106476Y0304434D01*
X0106543Y0304566D01*
X0106614Y0304696D01*
X0106689Y0304825D01*
X0106767Y0304951D01*
X0106848Y0305075D01*
X0106932Y0305197D01*
X0107020Y0305316D01*
X0107111Y0305433D01*
X0107205Y0305548D01*
X0107303Y0305660D01*
X0107403Y0305769D01*
X0107506Y0305876D01*
X0107612Y0305980D01*
X0107720Y0306081D01*
X0107832Y0306179D01*
X0107946Y0306274D01*
X0108062Y0306365D01*
X0108181Y0306454D01*
X0108302Y0306539D01*
X0108426Y0306621D01*
X0108552Y0306700D01*
X0108679Y0306775D01*
X0108809Y0306847D01*
X0108941Y0306916D01*
X0109074Y0306980D01*
X0109209Y0307041D01*
X0109346Y0307099D01*
X0109484Y0307153D01*
X0109624Y0307203D01*
X0109765Y0307249D01*
X0109907Y0307291D01*
X0110050Y0307330D01*
X0110194Y0307364D01*
X0110340Y0307395D01*
X0110485Y0307422D01*
X0110632Y0307445D01*
X0110779Y0307464D01*
X0110927Y0307479D01*
X0111074Y0307490D01*
X0111223Y0307497D01*
X0111371Y0307500D01*
X0111519Y0307499D01*
X0111667Y0307494D01*
X0111815Y0307485D01*
X0111963Y0307472D01*
X0112111Y0307455D01*
X0112257Y0307434D01*
X0112404Y0307409D01*
X0112549Y0307380D01*
X0112694Y0307348D01*
X0112837Y0307311D01*
X0112980Y0307271D01*
X0113122Y0307226D01*
X0113262Y0307178D01*
X0113401Y0307126D01*
X0113538Y0307071D01*
X0113674Y0307011D01*
X0113809Y0306948D01*
X0113941Y0306882D01*
X0114072Y0306812D01*
X0114201Y0306738D01*
X0114327Y0306661D01*
X0114452Y0306581D01*
X0114574Y0306497D01*
X0114695Y0306410D01*
X0114812Y0306320D01*
X0114928Y0306226D01*
X0115040Y0306130D01*
X0115150Y0306031D01*
X0115258Y0305928D01*
X0115362Y0305823D01*
X0115464Y0305715D01*
X0115562Y0305604D01*
X0115658Y0305491D01*
X0115751Y0305375D01*
X0115840Y0305257D01*
X0115926Y0305136D01*
X0116009Y0305013D01*
X0116089Y0304888D01*
X0116165Y0304761D01*
X0116238Y0304631D01*
X0116307Y0304500D01*
X0116372Y0304367D01*
X0116435Y0304233D01*
X0116493Y0304096D01*
X0116548Y0303958D01*
X0116598Y0303819D01*
X0116646Y0303678D01*
X0116689Y0303537D01*
X0116729Y0303394D01*
X0116764Y0303250D01*
X0116796Y0303105D01*
X0116824Y0302959D01*
X0116848Y0302813D01*
X0116868Y0302666D01*
X0116884Y0302518D01*
X0116896Y0302371D01*
X0116904Y0302222D01*
X0116908Y0302074D01*
X0116908Y0301926D01*
X0116904Y0301778D01*
X0116896Y0301629D01*
X0116884Y0301482D01*
X0116868Y0301334D01*
X0116848Y0301187D01*
X0116824Y0301041D01*
X0116796Y0300895D01*
X0116764Y0300750D01*
X0116729Y0300606D01*
X0116689Y0300463D01*
X0116646Y0300322D01*
X0116598Y0300181D01*
X0116548Y0300042D01*
X0116493Y0299904D01*
X0116435Y0299767D01*
X0116372Y0299633D01*
X0116307Y0299500D01*
X0116238Y0299369D01*
X0116165Y0299239D01*
X0116089Y0299112D01*
X0116009Y0298987D01*
X0115926Y0298864D01*
X0115840Y0298743D01*
X0115751Y0298625D01*
X0115658Y0298509D01*
X0115562Y0298396D01*
X0115464Y0298285D01*
X0115362Y0298177D01*
X0115258Y0298072D01*
X0115150Y0297969D01*
X0115040Y0297870D01*
X0114928Y0297774D01*
X0114812Y0297680D01*
X0114695Y0297590D01*
X0114574Y0297503D01*
X0114452Y0297419D01*
X0114327Y0297339D01*
X0114201Y0297262D01*
X0114072Y0297188D01*
X0113941Y0297118D01*
X0113809Y0297052D01*
X0113674Y0296989D01*
X0113538Y0296929D01*
X0113401Y0296874D01*
X0113262Y0296822D01*
X0113122Y0296774D01*
X0112980Y0296729D01*
X0112837Y0296689D01*
X0112694Y0296652D01*
X0112549Y0296620D01*
X0112404Y0296591D01*
X0112257Y0296566D01*
X0112111Y0296545D01*
X0111963Y0296528D01*
X0111815Y0296515D01*
X0111667Y0296506D01*
X0111519Y0296501D01*
X0111371Y0296500D01*
X0111223Y0296503D01*
X0111074Y0296510D01*
X0110927Y0296521D01*
X0110779Y0296536D01*
X0110632Y0296555D01*
X0110485Y0296578D01*
X0110340Y0296605D01*
X0110194Y0296636D01*
X0110050Y0296670D01*
X0109907Y0296709D01*
X0109765Y0296751D01*
X0109624Y0296797D01*
X0109484Y0296847D01*
X0109346Y0296901D01*
X0109209Y0296959D01*
X0109074Y0297020D01*
X0108941Y0297084D01*
X0108809Y0297153D01*
X0108679Y0297225D01*
X0108552Y0297300D01*
X0108426Y0297379D01*
X0108302Y0297461D01*
X0108181Y0297546D01*
X0108062Y0297635D01*
X0107946Y0297726D01*
X0107832Y0297821D01*
X0107720Y0297919D01*
X0107612Y0298020D01*
X0107506Y0298124D01*
X0107403Y0298231D01*
X0107303Y0298340D01*
X0107205Y0298452D01*
X0107111Y0298567D01*
X0107020Y0298684D01*
X0106932Y0298803D01*
X0106848Y0298925D01*
X0106767Y0299049D01*
X0106689Y0299175D01*
X0106614Y0299304D01*
X0106543Y0299434D01*
X0106476Y0299566D01*
X0106412Y0299700D01*
X0106352Y0299835D01*
X0106295Y0299973D01*
X0106243Y0300111D01*
X0106193Y0300251D01*
X0106148Y0300392D01*
X0106107Y0300535D01*
X0106069Y0300678D01*
X0106035Y0300823D01*
X0106006Y0300968D01*
X0105980Y0301114D01*
X0105958Y0301261D01*
X0105940Y0301408D01*
X0105926Y0301556D01*
X0105916Y0301704D01*
X0105910Y0301852D01*
X0105908Y0302000D01*
X0187908Y0285000D02*
X0187910Y0285154D01*
X0187916Y0285309D01*
X0187926Y0285463D01*
X0187940Y0285617D01*
X0187958Y0285770D01*
X0187979Y0285923D01*
X0188005Y0286076D01*
X0188035Y0286227D01*
X0188068Y0286378D01*
X0188106Y0286528D01*
X0188147Y0286677D01*
X0188192Y0286825D01*
X0188241Y0286971D01*
X0188294Y0287117D01*
X0188350Y0287260D01*
X0188410Y0287403D01*
X0188474Y0287543D01*
X0188541Y0287683D01*
X0188612Y0287820D01*
X0188686Y0287955D01*
X0188764Y0288089D01*
X0188845Y0288220D01*
X0188930Y0288349D01*
X0189018Y0288477D01*
X0189109Y0288601D01*
X0189203Y0288724D01*
X0189301Y0288844D01*
X0189401Y0288961D01*
X0189505Y0289076D01*
X0189611Y0289188D01*
X0189720Y0289297D01*
X0189832Y0289403D01*
X0189947Y0289507D01*
X0190064Y0289607D01*
X0190184Y0289705D01*
X0190307Y0289799D01*
X0190431Y0289890D01*
X0190559Y0289978D01*
X0190688Y0290063D01*
X0190819Y0290144D01*
X0190953Y0290222D01*
X0191088Y0290296D01*
X0191225Y0290367D01*
X0191365Y0290434D01*
X0191505Y0290498D01*
X0191648Y0290558D01*
X0191791Y0290614D01*
X0191937Y0290667D01*
X0192083Y0290716D01*
X0192231Y0290761D01*
X0192380Y0290802D01*
X0192530Y0290840D01*
X0192681Y0290873D01*
X0192832Y0290903D01*
X0192985Y0290929D01*
X0193138Y0290950D01*
X0193291Y0290968D01*
X0193445Y0290982D01*
X0193599Y0290992D01*
X0193754Y0290998D01*
X0193908Y0291000D01*
X0194062Y0290998D01*
X0194217Y0290992D01*
X0194371Y0290982D01*
X0194525Y0290968D01*
X0194678Y0290950D01*
X0194831Y0290929D01*
X0194984Y0290903D01*
X0195135Y0290873D01*
X0195286Y0290840D01*
X0195436Y0290802D01*
X0195585Y0290761D01*
X0195733Y0290716D01*
X0195879Y0290667D01*
X0196025Y0290614D01*
X0196168Y0290558D01*
X0196311Y0290498D01*
X0196451Y0290434D01*
X0196591Y0290367D01*
X0196728Y0290296D01*
X0196863Y0290222D01*
X0196997Y0290144D01*
X0197128Y0290063D01*
X0197257Y0289978D01*
X0197385Y0289890D01*
X0197509Y0289799D01*
X0197632Y0289705D01*
X0197752Y0289607D01*
X0197869Y0289507D01*
X0197984Y0289403D01*
X0198096Y0289297D01*
X0198205Y0289188D01*
X0198311Y0289076D01*
X0198415Y0288961D01*
X0198515Y0288844D01*
X0198613Y0288724D01*
X0198707Y0288601D01*
X0198798Y0288477D01*
X0198886Y0288349D01*
X0198971Y0288220D01*
X0199052Y0288089D01*
X0199130Y0287955D01*
X0199204Y0287820D01*
X0199275Y0287683D01*
X0199342Y0287543D01*
X0199406Y0287403D01*
X0199466Y0287260D01*
X0199522Y0287117D01*
X0199575Y0286971D01*
X0199624Y0286825D01*
X0199669Y0286677D01*
X0199710Y0286528D01*
X0199748Y0286378D01*
X0199781Y0286227D01*
X0199811Y0286076D01*
X0199837Y0285923D01*
X0199858Y0285770D01*
X0199876Y0285617D01*
X0199890Y0285463D01*
X0199900Y0285309D01*
X0199906Y0285154D01*
X0199908Y0285000D01*
X0199906Y0284846D01*
X0199900Y0284691D01*
X0199890Y0284537D01*
X0199876Y0284383D01*
X0199858Y0284230D01*
X0199837Y0284077D01*
X0199811Y0283924D01*
X0199781Y0283773D01*
X0199748Y0283622D01*
X0199710Y0283472D01*
X0199669Y0283323D01*
X0199624Y0283175D01*
X0199575Y0283029D01*
X0199522Y0282883D01*
X0199466Y0282740D01*
X0199406Y0282597D01*
X0199342Y0282457D01*
X0199275Y0282317D01*
X0199204Y0282180D01*
X0199130Y0282045D01*
X0199052Y0281911D01*
X0198971Y0281780D01*
X0198886Y0281651D01*
X0198798Y0281523D01*
X0198707Y0281399D01*
X0198613Y0281276D01*
X0198515Y0281156D01*
X0198415Y0281039D01*
X0198311Y0280924D01*
X0198205Y0280812D01*
X0198096Y0280703D01*
X0197984Y0280597D01*
X0197869Y0280493D01*
X0197752Y0280393D01*
X0197632Y0280295D01*
X0197509Y0280201D01*
X0197385Y0280110D01*
X0197257Y0280022D01*
X0197128Y0279937D01*
X0196997Y0279856D01*
X0196863Y0279778D01*
X0196728Y0279704D01*
X0196591Y0279633D01*
X0196451Y0279566D01*
X0196311Y0279502D01*
X0196168Y0279442D01*
X0196025Y0279386D01*
X0195879Y0279333D01*
X0195733Y0279284D01*
X0195585Y0279239D01*
X0195436Y0279198D01*
X0195286Y0279160D01*
X0195135Y0279127D01*
X0194984Y0279097D01*
X0194831Y0279071D01*
X0194678Y0279050D01*
X0194525Y0279032D01*
X0194371Y0279018D01*
X0194217Y0279008D01*
X0194062Y0279002D01*
X0193908Y0279000D01*
X0193754Y0279002D01*
X0193599Y0279008D01*
X0193445Y0279018D01*
X0193291Y0279032D01*
X0193138Y0279050D01*
X0192985Y0279071D01*
X0192832Y0279097D01*
X0192681Y0279127D01*
X0192530Y0279160D01*
X0192380Y0279198D01*
X0192231Y0279239D01*
X0192083Y0279284D01*
X0191937Y0279333D01*
X0191791Y0279386D01*
X0191648Y0279442D01*
X0191505Y0279502D01*
X0191365Y0279566D01*
X0191225Y0279633D01*
X0191088Y0279704D01*
X0190953Y0279778D01*
X0190819Y0279856D01*
X0190688Y0279937D01*
X0190559Y0280022D01*
X0190431Y0280110D01*
X0190307Y0280201D01*
X0190184Y0280295D01*
X0190064Y0280393D01*
X0189947Y0280493D01*
X0189832Y0280597D01*
X0189720Y0280703D01*
X0189611Y0280812D01*
X0189505Y0280924D01*
X0189401Y0281039D01*
X0189301Y0281156D01*
X0189203Y0281276D01*
X0189109Y0281399D01*
X0189018Y0281523D01*
X0188930Y0281651D01*
X0188845Y0281780D01*
X0188764Y0281911D01*
X0188686Y0282045D01*
X0188612Y0282180D01*
X0188541Y0282317D01*
X0188474Y0282457D01*
X0188410Y0282597D01*
X0188350Y0282740D01*
X0188294Y0282883D01*
X0188241Y0283029D01*
X0188192Y0283175D01*
X0188147Y0283323D01*
X0188106Y0283472D01*
X0188068Y0283622D01*
X0188035Y0283773D01*
X0188005Y0283924D01*
X0187979Y0284077D01*
X0187958Y0284230D01*
X0187940Y0284383D01*
X0187926Y0284537D01*
X0187916Y0284691D01*
X0187910Y0284846D01*
X0187908Y0285000D01*
X0093062Y0230000D02*
X0093064Y0230115D01*
X0093070Y0230231D01*
X0093080Y0230346D01*
X0093094Y0230461D01*
X0093112Y0230575D01*
X0093134Y0230688D01*
X0093159Y0230801D01*
X0093189Y0230912D01*
X0093222Y0231023D01*
X0093259Y0231132D01*
X0093300Y0231240D01*
X0093345Y0231347D01*
X0093393Y0231452D01*
X0093445Y0231555D01*
X0093501Y0231656D01*
X0093560Y0231756D01*
X0093622Y0231853D01*
X0093688Y0231948D01*
X0093756Y0232041D01*
X0093828Y0232131D01*
X0093903Y0232219D01*
X0093982Y0232304D01*
X0094063Y0232386D01*
X0094146Y0232466D01*
X0094233Y0232542D01*
X0094322Y0232616D01*
X0094413Y0232686D01*
X0094507Y0232754D01*
X0094603Y0232818D01*
X0094702Y0232878D01*
X0094802Y0232935D01*
X0094904Y0232989D01*
X0095008Y0233039D01*
X0095114Y0233086D01*
X0095221Y0233129D01*
X0095330Y0233168D01*
X0095440Y0233203D01*
X0095551Y0233234D01*
X0095663Y0233262D01*
X0095776Y0233286D01*
X0095890Y0233306D01*
X0096005Y0233322D01*
X0096120Y0233334D01*
X0096235Y0233342D01*
X0096350Y0233346D01*
X0096466Y0233346D01*
X0096581Y0233342D01*
X0096696Y0233334D01*
X0096811Y0233322D01*
X0096926Y0233306D01*
X0097040Y0233286D01*
X0097153Y0233262D01*
X0097265Y0233234D01*
X0097376Y0233203D01*
X0097486Y0233168D01*
X0097595Y0233129D01*
X0097702Y0233086D01*
X0097808Y0233039D01*
X0097912Y0232989D01*
X0098014Y0232935D01*
X0098114Y0232878D01*
X0098213Y0232818D01*
X0098309Y0232754D01*
X0098403Y0232686D01*
X0098494Y0232616D01*
X0098583Y0232542D01*
X0098670Y0232466D01*
X0098753Y0232386D01*
X0098834Y0232304D01*
X0098913Y0232219D01*
X0098988Y0232131D01*
X0099060Y0232041D01*
X0099128Y0231948D01*
X0099194Y0231853D01*
X0099256Y0231756D01*
X0099315Y0231656D01*
X0099371Y0231555D01*
X0099423Y0231452D01*
X0099471Y0231347D01*
X0099516Y0231240D01*
X0099557Y0231132D01*
X0099594Y0231023D01*
X0099627Y0230912D01*
X0099657Y0230801D01*
X0099682Y0230688D01*
X0099704Y0230575D01*
X0099722Y0230461D01*
X0099736Y0230346D01*
X0099746Y0230231D01*
X0099752Y0230115D01*
X0099754Y0230000D01*
X0099752Y0229885D01*
X0099746Y0229769D01*
X0099736Y0229654D01*
X0099722Y0229539D01*
X0099704Y0229425D01*
X0099682Y0229312D01*
X0099657Y0229199D01*
X0099627Y0229088D01*
X0099594Y0228977D01*
X0099557Y0228868D01*
X0099516Y0228760D01*
X0099471Y0228653D01*
X0099423Y0228548D01*
X0099371Y0228445D01*
X0099315Y0228344D01*
X0099256Y0228244D01*
X0099194Y0228147D01*
X0099128Y0228052D01*
X0099060Y0227959D01*
X0098988Y0227869D01*
X0098913Y0227781D01*
X0098834Y0227696D01*
X0098753Y0227614D01*
X0098670Y0227534D01*
X0098583Y0227458D01*
X0098494Y0227384D01*
X0098403Y0227314D01*
X0098309Y0227246D01*
X0098213Y0227182D01*
X0098114Y0227122D01*
X0098014Y0227065D01*
X0097912Y0227011D01*
X0097808Y0226961D01*
X0097702Y0226914D01*
X0097595Y0226871D01*
X0097486Y0226832D01*
X0097376Y0226797D01*
X0097265Y0226766D01*
X0097153Y0226738D01*
X0097040Y0226714D01*
X0096926Y0226694D01*
X0096811Y0226678D01*
X0096696Y0226666D01*
X0096581Y0226658D01*
X0096466Y0226654D01*
X0096350Y0226654D01*
X0096235Y0226658D01*
X0096120Y0226666D01*
X0096005Y0226678D01*
X0095890Y0226694D01*
X0095776Y0226714D01*
X0095663Y0226738D01*
X0095551Y0226766D01*
X0095440Y0226797D01*
X0095330Y0226832D01*
X0095221Y0226871D01*
X0095114Y0226914D01*
X0095008Y0226961D01*
X0094904Y0227011D01*
X0094802Y0227065D01*
X0094702Y0227122D01*
X0094603Y0227182D01*
X0094507Y0227246D01*
X0094413Y0227314D01*
X0094322Y0227384D01*
X0094233Y0227458D01*
X0094146Y0227534D01*
X0094063Y0227614D01*
X0093982Y0227696D01*
X0093903Y0227781D01*
X0093828Y0227869D01*
X0093756Y0227959D01*
X0093688Y0228052D01*
X0093622Y0228147D01*
X0093560Y0228244D01*
X0093501Y0228344D01*
X0093445Y0228445D01*
X0093393Y0228548D01*
X0093345Y0228653D01*
X0093300Y0228760D01*
X0093259Y0228868D01*
X0093222Y0228977D01*
X0093189Y0229088D01*
X0093159Y0229199D01*
X0093134Y0229312D01*
X0093112Y0229425D01*
X0093094Y0229539D01*
X0093080Y0229654D01*
X0093070Y0229769D01*
X0093064Y0229885D01*
X0093062Y0230000D01*
X0093062Y0130000D02*
X0093064Y0130115D01*
X0093070Y0130231D01*
X0093080Y0130346D01*
X0093094Y0130461D01*
X0093112Y0130575D01*
X0093134Y0130688D01*
X0093159Y0130801D01*
X0093189Y0130912D01*
X0093222Y0131023D01*
X0093259Y0131132D01*
X0093300Y0131240D01*
X0093345Y0131347D01*
X0093393Y0131452D01*
X0093445Y0131555D01*
X0093501Y0131656D01*
X0093560Y0131756D01*
X0093622Y0131853D01*
X0093688Y0131948D01*
X0093756Y0132041D01*
X0093828Y0132131D01*
X0093903Y0132219D01*
X0093982Y0132304D01*
X0094063Y0132386D01*
X0094146Y0132466D01*
X0094233Y0132542D01*
X0094322Y0132616D01*
X0094413Y0132686D01*
X0094507Y0132754D01*
X0094603Y0132818D01*
X0094702Y0132878D01*
X0094802Y0132935D01*
X0094904Y0132989D01*
X0095008Y0133039D01*
X0095114Y0133086D01*
X0095221Y0133129D01*
X0095330Y0133168D01*
X0095440Y0133203D01*
X0095551Y0133234D01*
X0095663Y0133262D01*
X0095776Y0133286D01*
X0095890Y0133306D01*
X0096005Y0133322D01*
X0096120Y0133334D01*
X0096235Y0133342D01*
X0096350Y0133346D01*
X0096466Y0133346D01*
X0096581Y0133342D01*
X0096696Y0133334D01*
X0096811Y0133322D01*
X0096926Y0133306D01*
X0097040Y0133286D01*
X0097153Y0133262D01*
X0097265Y0133234D01*
X0097376Y0133203D01*
X0097486Y0133168D01*
X0097595Y0133129D01*
X0097702Y0133086D01*
X0097808Y0133039D01*
X0097912Y0132989D01*
X0098014Y0132935D01*
X0098114Y0132878D01*
X0098213Y0132818D01*
X0098309Y0132754D01*
X0098403Y0132686D01*
X0098494Y0132616D01*
X0098583Y0132542D01*
X0098670Y0132466D01*
X0098753Y0132386D01*
X0098834Y0132304D01*
X0098913Y0132219D01*
X0098988Y0132131D01*
X0099060Y0132041D01*
X0099128Y0131948D01*
X0099194Y0131853D01*
X0099256Y0131756D01*
X0099315Y0131656D01*
X0099371Y0131555D01*
X0099423Y0131452D01*
X0099471Y0131347D01*
X0099516Y0131240D01*
X0099557Y0131132D01*
X0099594Y0131023D01*
X0099627Y0130912D01*
X0099657Y0130801D01*
X0099682Y0130688D01*
X0099704Y0130575D01*
X0099722Y0130461D01*
X0099736Y0130346D01*
X0099746Y0130231D01*
X0099752Y0130115D01*
X0099754Y0130000D01*
X0099752Y0129885D01*
X0099746Y0129769D01*
X0099736Y0129654D01*
X0099722Y0129539D01*
X0099704Y0129425D01*
X0099682Y0129312D01*
X0099657Y0129199D01*
X0099627Y0129088D01*
X0099594Y0128977D01*
X0099557Y0128868D01*
X0099516Y0128760D01*
X0099471Y0128653D01*
X0099423Y0128548D01*
X0099371Y0128445D01*
X0099315Y0128344D01*
X0099256Y0128244D01*
X0099194Y0128147D01*
X0099128Y0128052D01*
X0099060Y0127959D01*
X0098988Y0127869D01*
X0098913Y0127781D01*
X0098834Y0127696D01*
X0098753Y0127614D01*
X0098670Y0127534D01*
X0098583Y0127458D01*
X0098494Y0127384D01*
X0098403Y0127314D01*
X0098309Y0127246D01*
X0098213Y0127182D01*
X0098114Y0127122D01*
X0098014Y0127065D01*
X0097912Y0127011D01*
X0097808Y0126961D01*
X0097702Y0126914D01*
X0097595Y0126871D01*
X0097486Y0126832D01*
X0097376Y0126797D01*
X0097265Y0126766D01*
X0097153Y0126738D01*
X0097040Y0126714D01*
X0096926Y0126694D01*
X0096811Y0126678D01*
X0096696Y0126666D01*
X0096581Y0126658D01*
X0096466Y0126654D01*
X0096350Y0126654D01*
X0096235Y0126658D01*
X0096120Y0126666D01*
X0096005Y0126678D01*
X0095890Y0126694D01*
X0095776Y0126714D01*
X0095663Y0126738D01*
X0095551Y0126766D01*
X0095440Y0126797D01*
X0095330Y0126832D01*
X0095221Y0126871D01*
X0095114Y0126914D01*
X0095008Y0126961D01*
X0094904Y0127011D01*
X0094802Y0127065D01*
X0094702Y0127122D01*
X0094603Y0127182D01*
X0094507Y0127246D01*
X0094413Y0127314D01*
X0094322Y0127384D01*
X0094233Y0127458D01*
X0094146Y0127534D01*
X0094063Y0127614D01*
X0093982Y0127696D01*
X0093903Y0127781D01*
X0093828Y0127869D01*
X0093756Y0127959D01*
X0093688Y0128052D01*
X0093622Y0128147D01*
X0093560Y0128244D01*
X0093501Y0128344D01*
X0093445Y0128445D01*
X0093393Y0128548D01*
X0093345Y0128653D01*
X0093300Y0128760D01*
X0093259Y0128868D01*
X0093222Y0128977D01*
X0093189Y0129088D01*
X0093159Y0129199D01*
X0093134Y0129312D01*
X0093112Y0129425D01*
X0093094Y0129539D01*
X0093080Y0129654D01*
X0093070Y0129769D01*
X0093064Y0129885D01*
X0093062Y0130000D01*
X0083062Y0130000D02*
X0083064Y0130115D01*
X0083070Y0130231D01*
X0083080Y0130346D01*
X0083094Y0130461D01*
X0083112Y0130575D01*
X0083134Y0130688D01*
X0083159Y0130801D01*
X0083189Y0130912D01*
X0083222Y0131023D01*
X0083259Y0131132D01*
X0083300Y0131240D01*
X0083345Y0131347D01*
X0083393Y0131452D01*
X0083445Y0131555D01*
X0083501Y0131656D01*
X0083560Y0131756D01*
X0083622Y0131853D01*
X0083688Y0131948D01*
X0083756Y0132041D01*
X0083828Y0132131D01*
X0083903Y0132219D01*
X0083982Y0132304D01*
X0084063Y0132386D01*
X0084146Y0132466D01*
X0084233Y0132542D01*
X0084322Y0132616D01*
X0084413Y0132686D01*
X0084507Y0132754D01*
X0084603Y0132818D01*
X0084702Y0132878D01*
X0084802Y0132935D01*
X0084904Y0132989D01*
X0085008Y0133039D01*
X0085114Y0133086D01*
X0085221Y0133129D01*
X0085330Y0133168D01*
X0085440Y0133203D01*
X0085551Y0133234D01*
X0085663Y0133262D01*
X0085776Y0133286D01*
X0085890Y0133306D01*
X0086005Y0133322D01*
X0086120Y0133334D01*
X0086235Y0133342D01*
X0086350Y0133346D01*
X0086466Y0133346D01*
X0086581Y0133342D01*
X0086696Y0133334D01*
X0086811Y0133322D01*
X0086926Y0133306D01*
X0087040Y0133286D01*
X0087153Y0133262D01*
X0087265Y0133234D01*
X0087376Y0133203D01*
X0087486Y0133168D01*
X0087595Y0133129D01*
X0087702Y0133086D01*
X0087808Y0133039D01*
X0087912Y0132989D01*
X0088014Y0132935D01*
X0088114Y0132878D01*
X0088213Y0132818D01*
X0088309Y0132754D01*
X0088403Y0132686D01*
X0088494Y0132616D01*
X0088583Y0132542D01*
X0088670Y0132466D01*
X0088753Y0132386D01*
X0088834Y0132304D01*
X0088913Y0132219D01*
X0088988Y0132131D01*
X0089060Y0132041D01*
X0089128Y0131948D01*
X0089194Y0131853D01*
X0089256Y0131756D01*
X0089315Y0131656D01*
X0089371Y0131555D01*
X0089423Y0131452D01*
X0089471Y0131347D01*
X0089516Y0131240D01*
X0089557Y0131132D01*
X0089594Y0131023D01*
X0089627Y0130912D01*
X0089657Y0130801D01*
X0089682Y0130688D01*
X0089704Y0130575D01*
X0089722Y0130461D01*
X0089736Y0130346D01*
X0089746Y0130231D01*
X0089752Y0130115D01*
X0089754Y0130000D01*
X0089752Y0129885D01*
X0089746Y0129769D01*
X0089736Y0129654D01*
X0089722Y0129539D01*
X0089704Y0129425D01*
X0089682Y0129312D01*
X0089657Y0129199D01*
X0089627Y0129088D01*
X0089594Y0128977D01*
X0089557Y0128868D01*
X0089516Y0128760D01*
X0089471Y0128653D01*
X0089423Y0128548D01*
X0089371Y0128445D01*
X0089315Y0128344D01*
X0089256Y0128244D01*
X0089194Y0128147D01*
X0089128Y0128052D01*
X0089060Y0127959D01*
X0088988Y0127869D01*
X0088913Y0127781D01*
X0088834Y0127696D01*
X0088753Y0127614D01*
X0088670Y0127534D01*
X0088583Y0127458D01*
X0088494Y0127384D01*
X0088403Y0127314D01*
X0088309Y0127246D01*
X0088213Y0127182D01*
X0088114Y0127122D01*
X0088014Y0127065D01*
X0087912Y0127011D01*
X0087808Y0126961D01*
X0087702Y0126914D01*
X0087595Y0126871D01*
X0087486Y0126832D01*
X0087376Y0126797D01*
X0087265Y0126766D01*
X0087153Y0126738D01*
X0087040Y0126714D01*
X0086926Y0126694D01*
X0086811Y0126678D01*
X0086696Y0126666D01*
X0086581Y0126658D01*
X0086466Y0126654D01*
X0086350Y0126654D01*
X0086235Y0126658D01*
X0086120Y0126666D01*
X0086005Y0126678D01*
X0085890Y0126694D01*
X0085776Y0126714D01*
X0085663Y0126738D01*
X0085551Y0126766D01*
X0085440Y0126797D01*
X0085330Y0126832D01*
X0085221Y0126871D01*
X0085114Y0126914D01*
X0085008Y0126961D01*
X0084904Y0127011D01*
X0084802Y0127065D01*
X0084702Y0127122D01*
X0084603Y0127182D01*
X0084507Y0127246D01*
X0084413Y0127314D01*
X0084322Y0127384D01*
X0084233Y0127458D01*
X0084146Y0127534D01*
X0084063Y0127614D01*
X0083982Y0127696D01*
X0083903Y0127781D01*
X0083828Y0127869D01*
X0083756Y0127959D01*
X0083688Y0128052D01*
X0083622Y0128147D01*
X0083560Y0128244D01*
X0083501Y0128344D01*
X0083445Y0128445D01*
X0083393Y0128548D01*
X0083345Y0128653D01*
X0083300Y0128760D01*
X0083259Y0128868D01*
X0083222Y0128977D01*
X0083189Y0129088D01*
X0083159Y0129199D01*
X0083134Y0129312D01*
X0083112Y0129425D01*
X0083094Y0129539D01*
X0083080Y0129654D01*
X0083070Y0129769D01*
X0083064Y0129885D01*
X0083062Y0130000D01*
X0103062Y0130000D02*
X0103064Y0130115D01*
X0103070Y0130231D01*
X0103080Y0130346D01*
X0103094Y0130461D01*
X0103112Y0130575D01*
X0103134Y0130688D01*
X0103159Y0130801D01*
X0103189Y0130912D01*
X0103222Y0131023D01*
X0103259Y0131132D01*
X0103300Y0131240D01*
X0103345Y0131347D01*
X0103393Y0131452D01*
X0103445Y0131555D01*
X0103501Y0131656D01*
X0103560Y0131756D01*
X0103622Y0131853D01*
X0103688Y0131948D01*
X0103756Y0132041D01*
X0103828Y0132131D01*
X0103903Y0132219D01*
X0103982Y0132304D01*
X0104063Y0132386D01*
X0104146Y0132466D01*
X0104233Y0132542D01*
X0104322Y0132616D01*
X0104413Y0132686D01*
X0104507Y0132754D01*
X0104603Y0132818D01*
X0104702Y0132878D01*
X0104802Y0132935D01*
X0104904Y0132989D01*
X0105008Y0133039D01*
X0105114Y0133086D01*
X0105221Y0133129D01*
X0105330Y0133168D01*
X0105440Y0133203D01*
X0105551Y0133234D01*
X0105663Y0133262D01*
X0105776Y0133286D01*
X0105890Y0133306D01*
X0106005Y0133322D01*
X0106120Y0133334D01*
X0106235Y0133342D01*
X0106350Y0133346D01*
X0106466Y0133346D01*
X0106581Y0133342D01*
X0106696Y0133334D01*
X0106811Y0133322D01*
X0106926Y0133306D01*
X0107040Y0133286D01*
X0107153Y0133262D01*
X0107265Y0133234D01*
X0107376Y0133203D01*
X0107486Y0133168D01*
X0107595Y0133129D01*
X0107702Y0133086D01*
X0107808Y0133039D01*
X0107912Y0132989D01*
X0108014Y0132935D01*
X0108114Y0132878D01*
X0108213Y0132818D01*
X0108309Y0132754D01*
X0108403Y0132686D01*
X0108494Y0132616D01*
X0108583Y0132542D01*
X0108670Y0132466D01*
X0108753Y0132386D01*
X0108834Y0132304D01*
X0108913Y0132219D01*
X0108988Y0132131D01*
X0109060Y0132041D01*
X0109128Y0131948D01*
X0109194Y0131853D01*
X0109256Y0131756D01*
X0109315Y0131656D01*
X0109371Y0131555D01*
X0109423Y0131452D01*
X0109471Y0131347D01*
X0109516Y0131240D01*
X0109557Y0131132D01*
X0109594Y0131023D01*
X0109627Y0130912D01*
X0109657Y0130801D01*
X0109682Y0130688D01*
X0109704Y0130575D01*
X0109722Y0130461D01*
X0109736Y0130346D01*
X0109746Y0130231D01*
X0109752Y0130115D01*
X0109754Y0130000D01*
X0109752Y0129885D01*
X0109746Y0129769D01*
X0109736Y0129654D01*
X0109722Y0129539D01*
X0109704Y0129425D01*
X0109682Y0129312D01*
X0109657Y0129199D01*
X0109627Y0129088D01*
X0109594Y0128977D01*
X0109557Y0128868D01*
X0109516Y0128760D01*
X0109471Y0128653D01*
X0109423Y0128548D01*
X0109371Y0128445D01*
X0109315Y0128344D01*
X0109256Y0128244D01*
X0109194Y0128147D01*
X0109128Y0128052D01*
X0109060Y0127959D01*
X0108988Y0127869D01*
X0108913Y0127781D01*
X0108834Y0127696D01*
X0108753Y0127614D01*
X0108670Y0127534D01*
X0108583Y0127458D01*
X0108494Y0127384D01*
X0108403Y0127314D01*
X0108309Y0127246D01*
X0108213Y0127182D01*
X0108114Y0127122D01*
X0108014Y0127065D01*
X0107912Y0127011D01*
X0107808Y0126961D01*
X0107702Y0126914D01*
X0107595Y0126871D01*
X0107486Y0126832D01*
X0107376Y0126797D01*
X0107265Y0126766D01*
X0107153Y0126738D01*
X0107040Y0126714D01*
X0106926Y0126694D01*
X0106811Y0126678D01*
X0106696Y0126666D01*
X0106581Y0126658D01*
X0106466Y0126654D01*
X0106350Y0126654D01*
X0106235Y0126658D01*
X0106120Y0126666D01*
X0106005Y0126678D01*
X0105890Y0126694D01*
X0105776Y0126714D01*
X0105663Y0126738D01*
X0105551Y0126766D01*
X0105440Y0126797D01*
X0105330Y0126832D01*
X0105221Y0126871D01*
X0105114Y0126914D01*
X0105008Y0126961D01*
X0104904Y0127011D01*
X0104802Y0127065D01*
X0104702Y0127122D01*
X0104603Y0127182D01*
X0104507Y0127246D01*
X0104413Y0127314D01*
X0104322Y0127384D01*
X0104233Y0127458D01*
X0104146Y0127534D01*
X0104063Y0127614D01*
X0103982Y0127696D01*
X0103903Y0127781D01*
X0103828Y0127869D01*
X0103756Y0127959D01*
X0103688Y0128052D01*
X0103622Y0128147D01*
X0103560Y0128244D01*
X0103501Y0128344D01*
X0103445Y0128445D01*
X0103393Y0128548D01*
X0103345Y0128653D01*
X0103300Y0128760D01*
X0103259Y0128868D01*
X0103222Y0128977D01*
X0103189Y0129088D01*
X0103159Y0129199D01*
X0103134Y0129312D01*
X0103112Y0129425D01*
X0103094Y0129539D01*
X0103080Y0129654D01*
X0103070Y0129769D01*
X0103064Y0129885D01*
X0103062Y0130000D01*
X0113062Y0130000D02*
X0113064Y0130115D01*
X0113070Y0130231D01*
X0113080Y0130346D01*
X0113094Y0130461D01*
X0113112Y0130575D01*
X0113134Y0130688D01*
X0113159Y0130801D01*
X0113189Y0130912D01*
X0113222Y0131023D01*
X0113259Y0131132D01*
X0113300Y0131240D01*
X0113345Y0131347D01*
X0113393Y0131452D01*
X0113445Y0131555D01*
X0113501Y0131656D01*
X0113560Y0131756D01*
X0113622Y0131853D01*
X0113688Y0131948D01*
X0113756Y0132041D01*
X0113828Y0132131D01*
X0113903Y0132219D01*
X0113982Y0132304D01*
X0114063Y0132386D01*
X0114146Y0132466D01*
X0114233Y0132542D01*
X0114322Y0132616D01*
X0114413Y0132686D01*
X0114507Y0132754D01*
X0114603Y0132818D01*
X0114702Y0132878D01*
X0114802Y0132935D01*
X0114904Y0132989D01*
X0115008Y0133039D01*
X0115114Y0133086D01*
X0115221Y0133129D01*
X0115330Y0133168D01*
X0115440Y0133203D01*
X0115551Y0133234D01*
X0115663Y0133262D01*
X0115776Y0133286D01*
X0115890Y0133306D01*
X0116005Y0133322D01*
X0116120Y0133334D01*
X0116235Y0133342D01*
X0116350Y0133346D01*
X0116466Y0133346D01*
X0116581Y0133342D01*
X0116696Y0133334D01*
X0116811Y0133322D01*
X0116926Y0133306D01*
X0117040Y0133286D01*
X0117153Y0133262D01*
X0117265Y0133234D01*
X0117376Y0133203D01*
X0117486Y0133168D01*
X0117595Y0133129D01*
X0117702Y0133086D01*
X0117808Y0133039D01*
X0117912Y0132989D01*
X0118014Y0132935D01*
X0118114Y0132878D01*
X0118213Y0132818D01*
X0118309Y0132754D01*
X0118403Y0132686D01*
X0118494Y0132616D01*
X0118583Y0132542D01*
X0118670Y0132466D01*
X0118753Y0132386D01*
X0118834Y0132304D01*
X0118913Y0132219D01*
X0118988Y0132131D01*
X0119060Y0132041D01*
X0119128Y0131948D01*
X0119194Y0131853D01*
X0119256Y0131756D01*
X0119315Y0131656D01*
X0119371Y0131555D01*
X0119423Y0131452D01*
X0119471Y0131347D01*
X0119516Y0131240D01*
X0119557Y0131132D01*
X0119594Y0131023D01*
X0119627Y0130912D01*
X0119657Y0130801D01*
X0119682Y0130688D01*
X0119704Y0130575D01*
X0119722Y0130461D01*
X0119736Y0130346D01*
X0119746Y0130231D01*
X0119752Y0130115D01*
X0119754Y0130000D01*
X0119752Y0129885D01*
X0119746Y0129769D01*
X0119736Y0129654D01*
X0119722Y0129539D01*
X0119704Y0129425D01*
X0119682Y0129312D01*
X0119657Y0129199D01*
X0119627Y0129088D01*
X0119594Y0128977D01*
X0119557Y0128868D01*
X0119516Y0128760D01*
X0119471Y0128653D01*
X0119423Y0128548D01*
X0119371Y0128445D01*
X0119315Y0128344D01*
X0119256Y0128244D01*
X0119194Y0128147D01*
X0119128Y0128052D01*
X0119060Y0127959D01*
X0118988Y0127869D01*
X0118913Y0127781D01*
X0118834Y0127696D01*
X0118753Y0127614D01*
X0118670Y0127534D01*
X0118583Y0127458D01*
X0118494Y0127384D01*
X0118403Y0127314D01*
X0118309Y0127246D01*
X0118213Y0127182D01*
X0118114Y0127122D01*
X0118014Y0127065D01*
X0117912Y0127011D01*
X0117808Y0126961D01*
X0117702Y0126914D01*
X0117595Y0126871D01*
X0117486Y0126832D01*
X0117376Y0126797D01*
X0117265Y0126766D01*
X0117153Y0126738D01*
X0117040Y0126714D01*
X0116926Y0126694D01*
X0116811Y0126678D01*
X0116696Y0126666D01*
X0116581Y0126658D01*
X0116466Y0126654D01*
X0116350Y0126654D01*
X0116235Y0126658D01*
X0116120Y0126666D01*
X0116005Y0126678D01*
X0115890Y0126694D01*
X0115776Y0126714D01*
X0115663Y0126738D01*
X0115551Y0126766D01*
X0115440Y0126797D01*
X0115330Y0126832D01*
X0115221Y0126871D01*
X0115114Y0126914D01*
X0115008Y0126961D01*
X0114904Y0127011D01*
X0114802Y0127065D01*
X0114702Y0127122D01*
X0114603Y0127182D01*
X0114507Y0127246D01*
X0114413Y0127314D01*
X0114322Y0127384D01*
X0114233Y0127458D01*
X0114146Y0127534D01*
X0114063Y0127614D01*
X0113982Y0127696D01*
X0113903Y0127781D01*
X0113828Y0127869D01*
X0113756Y0127959D01*
X0113688Y0128052D01*
X0113622Y0128147D01*
X0113560Y0128244D01*
X0113501Y0128344D01*
X0113445Y0128445D01*
X0113393Y0128548D01*
X0113345Y0128653D01*
X0113300Y0128760D01*
X0113259Y0128868D01*
X0113222Y0128977D01*
X0113189Y0129088D01*
X0113159Y0129199D01*
X0113134Y0129312D01*
X0113112Y0129425D01*
X0113094Y0129539D01*
X0113080Y0129654D01*
X0113070Y0129769D01*
X0113064Y0129885D01*
X0113062Y0130000D01*
X0123062Y0130000D02*
X0123064Y0130115D01*
X0123070Y0130231D01*
X0123080Y0130346D01*
X0123094Y0130461D01*
X0123112Y0130575D01*
X0123134Y0130688D01*
X0123159Y0130801D01*
X0123189Y0130912D01*
X0123222Y0131023D01*
X0123259Y0131132D01*
X0123300Y0131240D01*
X0123345Y0131347D01*
X0123393Y0131452D01*
X0123445Y0131555D01*
X0123501Y0131656D01*
X0123560Y0131756D01*
X0123622Y0131853D01*
X0123688Y0131948D01*
X0123756Y0132041D01*
X0123828Y0132131D01*
X0123903Y0132219D01*
X0123982Y0132304D01*
X0124063Y0132386D01*
X0124146Y0132466D01*
X0124233Y0132542D01*
X0124322Y0132616D01*
X0124413Y0132686D01*
X0124507Y0132754D01*
X0124603Y0132818D01*
X0124702Y0132878D01*
X0124802Y0132935D01*
X0124904Y0132989D01*
X0125008Y0133039D01*
X0125114Y0133086D01*
X0125221Y0133129D01*
X0125330Y0133168D01*
X0125440Y0133203D01*
X0125551Y0133234D01*
X0125663Y0133262D01*
X0125776Y0133286D01*
X0125890Y0133306D01*
X0126005Y0133322D01*
X0126120Y0133334D01*
X0126235Y0133342D01*
X0126350Y0133346D01*
X0126466Y0133346D01*
X0126581Y0133342D01*
X0126696Y0133334D01*
X0126811Y0133322D01*
X0126926Y0133306D01*
X0127040Y0133286D01*
X0127153Y0133262D01*
X0127265Y0133234D01*
X0127376Y0133203D01*
X0127486Y0133168D01*
X0127595Y0133129D01*
X0127702Y0133086D01*
X0127808Y0133039D01*
X0127912Y0132989D01*
X0128014Y0132935D01*
X0128114Y0132878D01*
X0128213Y0132818D01*
X0128309Y0132754D01*
X0128403Y0132686D01*
X0128494Y0132616D01*
X0128583Y0132542D01*
X0128670Y0132466D01*
X0128753Y0132386D01*
X0128834Y0132304D01*
X0128913Y0132219D01*
X0128988Y0132131D01*
X0129060Y0132041D01*
X0129128Y0131948D01*
X0129194Y0131853D01*
X0129256Y0131756D01*
X0129315Y0131656D01*
X0129371Y0131555D01*
X0129423Y0131452D01*
X0129471Y0131347D01*
X0129516Y0131240D01*
X0129557Y0131132D01*
X0129594Y0131023D01*
X0129627Y0130912D01*
X0129657Y0130801D01*
X0129682Y0130688D01*
X0129704Y0130575D01*
X0129722Y0130461D01*
X0129736Y0130346D01*
X0129746Y0130231D01*
X0129752Y0130115D01*
X0129754Y0130000D01*
X0129752Y0129885D01*
X0129746Y0129769D01*
X0129736Y0129654D01*
X0129722Y0129539D01*
X0129704Y0129425D01*
X0129682Y0129312D01*
X0129657Y0129199D01*
X0129627Y0129088D01*
X0129594Y0128977D01*
X0129557Y0128868D01*
X0129516Y0128760D01*
X0129471Y0128653D01*
X0129423Y0128548D01*
X0129371Y0128445D01*
X0129315Y0128344D01*
X0129256Y0128244D01*
X0129194Y0128147D01*
X0129128Y0128052D01*
X0129060Y0127959D01*
X0128988Y0127869D01*
X0128913Y0127781D01*
X0128834Y0127696D01*
X0128753Y0127614D01*
X0128670Y0127534D01*
X0128583Y0127458D01*
X0128494Y0127384D01*
X0128403Y0127314D01*
X0128309Y0127246D01*
X0128213Y0127182D01*
X0128114Y0127122D01*
X0128014Y0127065D01*
X0127912Y0127011D01*
X0127808Y0126961D01*
X0127702Y0126914D01*
X0127595Y0126871D01*
X0127486Y0126832D01*
X0127376Y0126797D01*
X0127265Y0126766D01*
X0127153Y0126738D01*
X0127040Y0126714D01*
X0126926Y0126694D01*
X0126811Y0126678D01*
X0126696Y0126666D01*
X0126581Y0126658D01*
X0126466Y0126654D01*
X0126350Y0126654D01*
X0126235Y0126658D01*
X0126120Y0126666D01*
X0126005Y0126678D01*
X0125890Y0126694D01*
X0125776Y0126714D01*
X0125663Y0126738D01*
X0125551Y0126766D01*
X0125440Y0126797D01*
X0125330Y0126832D01*
X0125221Y0126871D01*
X0125114Y0126914D01*
X0125008Y0126961D01*
X0124904Y0127011D01*
X0124802Y0127065D01*
X0124702Y0127122D01*
X0124603Y0127182D01*
X0124507Y0127246D01*
X0124413Y0127314D01*
X0124322Y0127384D01*
X0124233Y0127458D01*
X0124146Y0127534D01*
X0124063Y0127614D01*
X0123982Y0127696D01*
X0123903Y0127781D01*
X0123828Y0127869D01*
X0123756Y0127959D01*
X0123688Y0128052D01*
X0123622Y0128147D01*
X0123560Y0128244D01*
X0123501Y0128344D01*
X0123445Y0128445D01*
X0123393Y0128548D01*
X0123345Y0128653D01*
X0123300Y0128760D01*
X0123259Y0128868D01*
X0123222Y0128977D01*
X0123189Y0129088D01*
X0123159Y0129199D01*
X0123134Y0129312D01*
X0123112Y0129425D01*
X0123094Y0129539D01*
X0123080Y0129654D01*
X0123070Y0129769D01*
X0123064Y0129885D01*
X0123062Y0130000D01*
X0133062Y0130000D02*
X0133064Y0130115D01*
X0133070Y0130231D01*
X0133080Y0130346D01*
X0133094Y0130461D01*
X0133112Y0130575D01*
X0133134Y0130688D01*
X0133159Y0130801D01*
X0133189Y0130912D01*
X0133222Y0131023D01*
X0133259Y0131132D01*
X0133300Y0131240D01*
X0133345Y0131347D01*
X0133393Y0131452D01*
X0133445Y0131555D01*
X0133501Y0131656D01*
X0133560Y0131756D01*
X0133622Y0131853D01*
X0133688Y0131948D01*
X0133756Y0132041D01*
X0133828Y0132131D01*
X0133903Y0132219D01*
X0133982Y0132304D01*
X0134063Y0132386D01*
X0134146Y0132466D01*
X0134233Y0132542D01*
X0134322Y0132616D01*
X0134413Y0132686D01*
X0134507Y0132754D01*
X0134603Y0132818D01*
X0134702Y0132878D01*
X0134802Y0132935D01*
X0134904Y0132989D01*
X0135008Y0133039D01*
X0135114Y0133086D01*
X0135221Y0133129D01*
X0135330Y0133168D01*
X0135440Y0133203D01*
X0135551Y0133234D01*
X0135663Y0133262D01*
X0135776Y0133286D01*
X0135890Y0133306D01*
X0136005Y0133322D01*
X0136120Y0133334D01*
X0136235Y0133342D01*
X0136350Y0133346D01*
X0136466Y0133346D01*
X0136581Y0133342D01*
X0136696Y0133334D01*
X0136811Y0133322D01*
X0136926Y0133306D01*
X0137040Y0133286D01*
X0137153Y0133262D01*
X0137265Y0133234D01*
X0137376Y0133203D01*
X0137486Y0133168D01*
X0137595Y0133129D01*
X0137702Y0133086D01*
X0137808Y0133039D01*
X0137912Y0132989D01*
X0138014Y0132935D01*
X0138114Y0132878D01*
X0138213Y0132818D01*
X0138309Y0132754D01*
X0138403Y0132686D01*
X0138494Y0132616D01*
X0138583Y0132542D01*
X0138670Y0132466D01*
X0138753Y0132386D01*
X0138834Y0132304D01*
X0138913Y0132219D01*
X0138988Y0132131D01*
X0139060Y0132041D01*
X0139128Y0131948D01*
X0139194Y0131853D01*
X0139256Y0131756D01*
X0139315Y0131656D01*
X0139371Y0131555D01*
X0139423Y0131452D01*
X0139471Y0131347D01*
X0139516Y0131240D01*
X0139557Y0131132D01*
X0139594Y0131023D01*
X0139627Y0130912D01*
X0139657Y0130801D01*
X0139682Y0130688D01*
X0139704Y0130575D01*
X0139722Y0130461D01*
X0139736Y0130346D01*
X0139746Y0130231D01*
X0139752Y0130115D01*
X0139754Y0130000D01*
X0139752Y0129885D01*
X0139746Y0129769D01*
X0139736Y0129654D01*
X0139722Y0129539D01*
X0139704Y0129425D01*
X0139682Y0129312D01*
X0139657Y0129199D01*
X0139627Y0129088D01*
X0139594Y0128977D01*
X0139557Y0128868D01*
X0139516Y0128760D01*
X0139471Y0128653D01*
X0139423Y0128548D01*
X0139371Y0128445D01*
X0139315Y0128344D01*
X0139256Y0128244D01*
X0139194Y0128147D01*
X0139128Y0128052D01*
X0139060Y0127959D01*
X0138988Y0127869D01*
X0138913Y0127781D01*
X0138834Y0127696D01*
X0138753Y0127614D01*
X0138670Y0127534D01*
X0138583Y0127458D01*
X0138494Y0127384D01*
X0138403Y0127314D01*
X0138309Y0127246D01*
X0138213Y0127182D01*
X0138114Y0127122D01*
X0138014Y0127065D01*
X0137912Y0127011D01*
X0137808Y0126961D01*
X0137702Y0126914D01*
X0137595Y0126871D01*
X0137486Y0126832D01*
X0137376Y0126797D01*
X0137265Y0126766D01*
X0137153Y0126738D01*
X0137040Y0126714D01*
X0136926Y0126694D01*
X0136811Y0126678D01*
X0136696Y0126666D01*
X0136581Y0126658D01*
X0136466Y0126654D01*
X0136350Y0126654D01*
X0136235Y0126658D01*
X0136120Y0126666D01*
X0136005Y0126678D01*
X0135890Y0126694D01*
X0135776Y0126714D01*
X0135663Y0126738D01*
X0135551Y0126766D01*
X0135440Y0126797D01*
X0135330Y0126832D01*
X0135221Y0126871D01*
X0135114Y0126914D01*
X0135008Y0126961D01*
X0134904Y0127011D01*
X0134802Y0127065D01*
X0134702Y0127122D01*
X0134603Y0127182D01*
X0134507Y0127246D01*
X0134413Y0127314D01*
X0134322Y0127384D01*
X0134233Y0127458D01*
X0134146Y0127534D01*
X0134063Y0127614D01*
X0133982Y0127696D01*
X0133903Y0127781D01*
X0133828Y0127869D01*
X0133756Y0127959D01*
X0133688Y0128052D01*
X0133622Y0128147D01*
X0133560Y0128244D01*
X0133501Y0128344D01*
X0133445Y0128445D01*
X0133393Y0128548D01*
X0133345Y0128653D01*
X0133300Y0128760D01*
X0133259Y0128868D01*
X0133222Y0128977D01*
X0133189Y0129088D01*
X0133159Y0129199D01*
X0133134Y0129312D01*
X0133112Y0129425D01*
X0133094Y0129539D01*
X0133080Y0129654D01*
X0133070Y0129769D01*
X0133064Y0129885D01*
X0133062Y0130000D01*
X0105908Y0108000D02*
X0105910Y0108148D01*
X0105916Y0108296D01*
X0105926Y0108444D01*
X0105940Y0108592D01*
X0105958Y0108739D01*
X0105980Y0108886D01*
X0106006Y0109032D01*
X0106035Y0109177D01*
X0106069Y0109322D01*
X0106107Y0109465D01*
X0106148Y0109608D01*
X0106193Y0109749D01*
X0106243Y0109889D01*
X0106295Y0110027D01*
X0106352Y0110165D01*
X0106412Y0110300D01*
X0106476Y0110434D01*
X0106543Y0110566D01*
X0106614Y0110696D01*
X0106689Y0110825D01*
X0106767Y0110951D01*
X0106848Y0111075D01*
X0106932Y0111197D01*
X0107020Y0111316D01*
X0107111Y0111433D01*
X0107205Y0111548D01*
X0107303Y0111660D01*
X0107403Y0111769D01*
X0107506Y0111876D01*
X0107612Y0111980D01*
X0107720Y0112081D01*
X0107832Y0112179D01*
X0107946Y0112274D01*
X0108062Y0112365D01*
X0108181Y0112454D01*
X0108302Y0112539D01*
X0108426Y0112621D01*
X0108552Y0112700D01*
X0108679Y0112775D01*
X0108809Y0112847D01*
X0108941Y0112916D01*
X0109074Y0112980D01*
X0109209Y0113041D01*
X0109346Y0113099D01*
X0109484Y0113153D01*
X0109624Y0113203D01*
X0109765Y0113249D01*
X0109907Y0113291D01*
X0110050Y0113330D01*
X0110194Y0113364D01*
X0110340Y0113395D01*
X0110485Y0113422D01*
X0110632Y0113445D01*
X0110779Y0113464D01*
X0110927Y0113479D01*
X0111074Y0113490D01*
X0111223Y0113497D01*
X0111371Y0113500D01*
X0111519Y0113499D01*
X0111667Y0113494D01*
X0111815Y0113485D01*
X0111963Y0113472D01*
X0112111Y0113455D01*
X0112257Y0113434D01*
X0112404Y0113409D01*
X0112549Y0113380D01*
X0112694Y0113348D01*
X0112837Y0113311D01*
X0112980Y0113271D01*
X0113122Y0113226D01*
X0113262Y0113178D01*
X0113401Y0113126D01*
X0113538Y0113071D01*
X0113674Y0113011D01*
X0113809Y0112948D01*
X0113941Y0112882D01*
X0114072Y0112812D01*
X0114201Y0112738D01*
X0114327Y0112661D01*
X0114452Y0112581D01*
X0114574Y0112497D01*
X0114695Y0112410D01*
X0114812Y0112320D01*
X0114928Y0112226D01*
X0115040Y0112130D01*
X0115150Y0112031D01*
X0115258Y0111928D01*
X0115362Y0111823D01*
X0115464Y0111715D01*
X0115562Y0111604D01*
X0115658Y0111491D01*
X0115751Y0111375D01*
X0115840Y0111257D01*
X0115926Y0111136D01*
X0116009Y0111013D01*
X0116089Y0110888D01*
X0116165Y0110761D01*
X0116238Y0110631D01*
X0116307Y0110500D01*
X0116372Y0110367D01*
X0116435Y0110233D01*
X0116493Y0110096D01*
X0116548Y0109958D01*
X0116598Y0109819D01*
X0116646Y0109678D01*
X0116689Y0109537D01*
X0116729Y0109394D01*
X0116764Y0109250D01*
X0116796Y0109105D01*
X0116824Y0108959D01*
X0116848Y0108813D01*
X0116868Y0108666D01*
X0116884Y0108518D01*
X0116896Y0108371D01*
X0116904Y0108222D01*
X0116908Y0108074D01*
X0116908Y0107926D01*
X0116904Y0107778D01*
X0116896Y0107629D01*
X0116884Y0107482D01*
X0116868Y0107334D01*
X0116848Y0107187D01*
X0116824Y0107041D01*
X0116796Y0106895D01*
X0116764Y0106750D01*
X0116729Y0106606D01*
X0116689Y0106463D01*
X0116646Y0106322D01*
X0116598Y0106181D01*
X0116548Y0106042D01*
X0116493Y0105904D01*
X0116435Y0105767D01*
X0116372Y0105633D01*
X0116307Y0105500D01*
X0116238Y0105369D01*
X0116165Y0105239D01*
X0116089Y0105112D01*
X0116009Y0104987D01*
X0115926Y0104864D01*
X0115840Y0104743D01*
X0115751Y0104625D01*
X0115658Y0104509D01*
X0115562Y0104396D01*
X0115464Y0104285D01*
X0115362Y0104177D01*
X0115258Y0104072D01*
X0115150Y0103969D01*
X0115040Y0103870D01*
X0114928Y0103774D01*
X0114812Y0103680D01*
X0114695Y0103590D01*
X0114574Y0103503D01*
X0114452Y0103419D01*
X0114327Y0103339D01*
X0114201Y0103262D01*
X0114072Y0103188D01*
X0113941Y0103118D01*
X0113809Y0103052D01*
X0113674Y0102989D01*
X0113538Y0102929D01*
X0113401Y0102874D01*
X0113262Y0102822D01*
X0113122Y0102774D01*
X0112980Y0102729D01*
X0112837Y0102689D01*
X0112694Y0102652D01*
X0112549Y0102620D01*
X0112404Y0102591D01*
X0112257Y0102566D01*
X0112111Y0102545D01*
X0111963Y0102528D01*
X0111815Y0102515D01*
X0111667Y0102506D01*
X0111519Y0102501D01*
X0111371Y0102500D01*
X0111223Y0102503D01*
X0111074Y0102510D01*
X0110927Y0102521D01*
X0110779Y0102536D01*
X0110632Y0102555D01*
X0110485Y0102578D01*
X0110340Y0102605D01*
X0110194Y0102636D01*
X0110050Y0102670D01*
X0109907Y0102709D01*
X0109765Y0102751D01*
X0109624Y0102797D01*
X0109484Y0102847D01*
X0109346Y0102901D01*
X0109209Y0102959D01*
X0109074Y0103020D01*
X0108941Y0103084D01*
X0108809Y0103153D01*
X0108679Y0103225D01*
X0108552Y0103300D01*
X0108426Y0103379D01*
X0108302Y0103461D01*
X0108181Y0103546D01*
X0108062Y0103635D01*
X0107946Y0103726D01*
X0107832Y0103821D01*
X0107720Y0103919D01*
X0107612Y0104020D01*
X0107506Y0104124D01*
X0107403Y0104231D01*
X0107303Y0104340D01*
X0107205Y0104452D01*
X0107111Y0104567D01*
X0107020Y0104684D01*
X0106932Y0104803D01*
X0106848Y0104925D01*
X0106767Y0105049D01*
X0106689Y0105175D01*
X0106614Y0105304D01*
X0106543Y0105434D01*
X0106476Y0105566D01*
X0106412Y0105700D01*
X0106352Y0105835D01*
X0106295Y0105973D01*
X0106243Y0106111D01*
X0106193Y0106251D01*
X0106148Y0106392D01*
X0106107Y0106535D01*
X0106069Y0106678D01*
X0106035Y0106823D01*
X0106006Y0106968D01*
X0105980Y0107114D01*
X0105958Y0107261D01*
X0105940Y0107408D01*
X0105926Y0107556D01*
X0105916Y0107704D01*
X0105910Y0107852D01*
X0105908Y0108000D01*
X0022908Y0125000D02*
X0022910Y0125154D01*
X0022916Y0125309D01*
X0022926Y0125463D01*
X0022940Y0125617D01*
X0022958Y0125770D01*
X0022979Y0125923D01*
X0023005Y0126076D01*
X0023035Y0126227D01*
X0023068Y0126378D01*
X0023106Y0126528D01*
X0023147Y0126677D01*
X0023192Y0126825D01*
X0023241Y0126971D01*
X0023294Y0127117D01*
X0023350Y0127260D01*
X0023410Y0127403D01*
X0023474Y0127543D01*
X0023541Y0127683D01*
X0023612Y0127820D01*
X0023686Y0127955D01*
X0023764Y0128089D01*
X0023845Y0128220D01*
X0023930Y0128349D01*
X0024018Y0128477D01*
X0024109Y0128601D01*
X0024203Y0128724D01*
X0024301Y0128844D01*
X0024401Y0128961D01*
X0024505Y0129076D01*
X0024611Y0129188D01*
X0024720Y0129297D01*
X0024832Y0129403D01*
X0024947Y0129507D01*
X0025064Y0129607D01*
X0025184Y0129705D01*
X0025307Y0129799D01*
X0025431Y0129890D01*
X0025559Y0129978D01*
X0025688Y0130063D01*
X0025819Y0130144D01*
X0025953Y0130222D01*
X0026088Y0130296D01*
X0026225Y0130367D01*
X0026365Y0130434D01*
X0026505Y0130498D01*
X0026648Y0130558D01*
X0026791Y0130614D01*
X0026937Y0130667D01*
X0027083Y0130716D01*
X0027231Y0130761D01*
X0027380Y0130802D01*
X0027530Y0130840D01*
X0027681Y0130873D01*
X0027832Y0130903D01*
X0027985Y0130929D01*
X0028138Y0130950D01*
X0028291Y0130968D01*
X0028445Y0130982D01*
X0028599Y0130992D01*
X0028754Y0130998D01*
X0028908Y0131000D01*
X0029062Y0130998D01*
X0029217Y0130992D01*
X0029371Y0130982D01*
X0029525Y0130968D01*
X0029678Y0130950D01*
X0029831Y0130929D01*
X0029984Y0130903D01*
X0030135Y0130873D01*
X0030286Y0130840D01*
X0030436Y0130802D01*
X0030585Y0130761D01*
X0030733Y0130716D01*
X0030879Y0130667D01*
X0031025Y0130614D01*
X0031168Y0130558D01*
X0031311Y0130498D01*
X0031451Y0130434D01*
X0031591Y0130367D01*
X0031728Y0130296D01*
X0031863Y0130222D01*
X0031997Y0130144D01*
X0032128Y0130063D01*
X0032257Y0129978D01*
X0032385Y0129890D01*
X0032509Y0129799D01*
X0032632Y0129705D01*
X0032752Y0129607D01*
X0032869Y0129507D01*
X0032984Y0129403D01*
X0033096Y0129297D01*
X0033205Y0129188D01*
X0033311Y0129076D01*
X0033415Y0128961D01*
X0033515Y0128844D01*
X0033613Y0128724D01*
X0033707Y0128601D01*
X0033798Y0128477D01*
X0033886Y0128349D01*
X0033971Y0128220D01*
X0034052Y0128089D01*
X0034130Y0127955D01*
X0034204Y0127820D01*
X0034275Y0127683D01*
X0034342Y0127543D01*
X0034406Y0127403D01*
X0034466Y0127260D01*
X0034522Y0127117D01*
X0034575Y0126971D01*
X0034624Y0126825D01*
X0034669Y0126677D01*
X0034710Y0126528D01*
X0034748Y0126378D01*
X0034781Y0126227D01*
X0034811Y0126076D01*
X0034837Y0125923D01*
X0034858Y0125770D01*
X0034876Y0125617D01*
X0034890Y0125463D01*
X0034900Y0125309D01*
X0034906Y0125154D01*
X0034908Y0125000D01*
X0034906Y0124846D01*
X0034900Y0124691D01*
X0034890Y0124537D01*
X0034876Y0124383D01*
X0034858Y0124230D01*
X0034837Y0124077D01*
X0034811Y0123924D01*
X0034781Y0123773D01*
X0034748Y0123622D01*
X0034710Y0123472D01*
X0034669Y0123323D01*
X0034624Y0123175D01*
X0034575Y0123029D01*
X0034522Y0122883D01*
X0034466Y0122740D01*
X0034406Y0122597D01*
X0034342Y0122457D01*
X0034275Y0122317D01*
X0034204Y0122180D01*
X0034130Y0122045D01*
X0034052Y0121911D01*
X0033971Y0121780D01*
X0033886Y0121651D01*
X0033798Y0121523D01*
X0033707Y0121399D01*
X0033613Y0121276D01*
X0033515Y0121156D01*
X0033415Y0121039D01*
X0033311Y0120924D01*
X0033205Y0120812D01*
X0033096Y0120703D01*
X0032984Y0120597D01*
X0032869Y0120493D01*
X0032752Y0120393D01*
X0032632Y0120295D01*
X0032509Y0120201D01*
X0032385Y0120110D01*
X0032257Y0120022D01*
X0032128Y0119937D01*
X0031997Y0119856D01*
X0031863Y0119778D01*
X0031728Y0119704D01*
X0031591Y0119633D01*
X0031451Y0119566D01*
X0031311Y0119502D01*
X0031168Y0119442D01*
X0031025Y0119386D01*
X0030879Y0119333D01*
X0030733Y0119284D01*
X0030585Y0119239D01*
X0030436Y0119198D01*
X0030286Y0119160D01*
X0030135Y0119127D01*
X0029984Y0119097D01*
X0029831Y0119071D01*
X0029678Y0119050D01*
X0029525Y0119032D01*
X0029371Y0119018D01*
X0029217Y0119008D01*
X0029062Y0119002D01*
X0028908Y0119000D01*
X0028754Y0119002D01*
X0028599Y0119008D01*
X0028445Y0119018D01*
X0028291Y0119032D01*
X0028138Y0119050D01*
X0027985Y0119071D01*
X0027832Y0119097D01*
X0027681Y0119127D01*
X0027530Y0119160D01*
X0027380Y0119198D01*
X0027231Y0119239D01*
X0027083Y0119284D01*
X0026937Y0119333D01*
X0026791Y0119386D01*
X0026648Y0119442D01*
X0026505Y0119502D01*
X0026365Y0119566D01*
X0026225Y0119633D01*
X0026088Y0119704D01*
X0025953Y0119778D01*
X0025819Y0119856D01*
X0025688Y0119937D01*
X0025559Y0120022D01*
X0025431Y0120110D01*
X0025307Y0120201D01*
X0025184Y0120295D01*
X0025064Y0120393D01*
X0024947Y0120493D01*
X0024832Y0120597D01*
X0024720Y0120703D01*
X0024611Y0120812D01*
X0024505Y0120924D01*
X0024401Y0121039D01*
X0024301Y0121156D01*
X0024203Y0121276D01*
X0024109Y0121399D01*
X0024018Y0121523D01*
X0023930Y0121651D01*
X0023845Y0121780D01*
X0023764Y0121911D01*
X0023686Y0122045D01*
X0023612Y0122180D01*
X0023541Y0122317D01*
X0023474Y0122457D01*
X0023410Y0122597D01*
X0023350Y0122740D01*
X0023294Y0122883D01*
X0023241Y0123029D01*
X0023192Y0123175D01*
X0023147Y0123323D01*
X0023106Y0123472D01*
X0023068Y0123622D01*
X0023035Y0123773D01*
X0023005Y0123924D01*
X0022979Y0124077D01*
X0022958Y0124230D01*
X0022940Y0124383D01*
X0022926Y0124537D01*
X0022916Y0124691D01*
X0022910Y0124846D01*
X0022908Y0125000D01*
X0187908Y0125000D02*
X0187910Y0125154D01*
X0187916Y0125309D01*
X0187926Y0125463D01*
X0187940Y0125617D01*
X0187958Y0125770D01*
X0187979Y0125923D01*
X0188005Y0126076D01*
X0188035Y0126227D01*
X0188068Y0126378D01*
X0188106Y0126528D01*
X0188147Y0126677D01*
X0188192Y0126825D01*
X0188241Y0126971D01*
X0188294Y0127117D01*
X0188350Y0127260D01*
X0188410Y0127403D01*
X0188474Y0127543D01*
X0188541Y0127683D01*
X0188612Y0127820D01*
X0188686Y0127955D01*
X0188764Y0128089D01*
X0188845Y0128220D01*
X0188930Y0128349D01*
X0189018Y0128477D01*
X0189109Y0128601D01*
X0189203Y0128724D01*
X0189301Y0128844D01*
X0189401Y0128961D01*
X0189505Y0129076D01*
X0189611Y0129188D01*
X0189720Y0129297D01*
X0189832Y0129403D01*
X0189947Y0129507D01*
X0190064Y0129607D01*
X0190184Y0129705D01*
X0190307Y0129799D01*
X0190431Y0129890D01*
X0190559Y0129978D01*
X0190688Y0130063D01*
X0190819Y0130144D01*
X0190953Y0130222D01*
X0191088Y0130296D01*
X0191225Y0130367D01*
X0191365Y0130434D01*
X0191505Y0130498D01*
X0191648Y0130558D01*
X0191791Y0130614D01*
X0191937Y0130667D01*
X0192083Y0130716D01*
X0192231Y0130761D01*
X0192380Y0130802D01*
X0192530Y0130840D01*
X0192681Y0130873D01*
X0192832Y0130903D01*
X0192985Y0130929D01*
X0193138Y0130950D01*
X0193291Y0130968D01*
X0193445Y0130982D01*
X0193599Y0130992D01*
X0193754Y0130998D01*
X0193908Y0131000D01*
X0194062Y0130998D01*
X0194217Y0130992D01*
X0194371Y0130982D01*
X0194525Y0130968D01*
X0194678Y0130950D01*
X0194831Y0130929D01*
X0194984Y0130903D01*
X0195135Y0130873D01*
X0195286Y0130840D01*
X0195436Y0130802D01*
X0195585Y0130761D01*
X0195733Y0130716D01*
X0195879Y0130667D01*
X0196025Y0130614D01*
X0196168Y0130558D01*
X0196311Y0130498D01*
X0196451Y0130434D01*
X0196591Y0130367D01*
X0196728Y0130296D01*
X0196863Y0130222D01*
X0196997Y0130144D01*
X0197128Y0130063D01*
X0197257Y0129978D01*
X0197385Y0129890D01*
X0197509Y0129799D01*
X0197632Y0129705D01*
X0197752Y0129607D01*
X0197869Y0129507D01*
X0197984Y0129403D01*
X0198096Y0129297D01*
X0198205Y0129188D01*
X0198311Y0129076D01*
X0198415Y0128961D01*
X0198515Y0128844D01*
X0198613Y0128724D01*
X0198707Y0128601D01*
X0198798Y0128477D01*
X0198886Y0128349D01*
X0198971Y0128220D01*
X0199052Y0128089D01*
X0199130Y0127955D01*
X0199204Y0127820D01*
X0199275Y0127683D01*
X0199342Y0127543D01*
X0199406Y0127403D01*
X0199466Y0127260D01*
X0199522Y0127117D01*
X0199575Y0126971D01*
X0199624Y0126825D01*
X0199669Y0126677D01*
X0199710Y0126528D01*
X0199748Y0126378D01*
X0199781Y0126227D01*
X0199811Y0126076D01*
X0199837Y0125923D01*
X0199858Y0125770D01*
X0199876Y0125617D01*
X0199890Y0125463D01*
X0199900Y0125309D01*
X0199906Y0125154D01*
X0199908Y0125000D01*
X0199906Y0124846D01*
X0199900Y0124691D01*
X0199890Y0124537D01*
X0199876Y0124383D01*
X0199858Y0124230D01*
X0199837Y0124077D01*
X0199811Y0123924D01*
X0199781Y0123773D01*
X0199748Y0123622D01*
X0199710Y0123472D01*
X0199669Y0123323D01*
X0199624Y0123175D01*
X0199575Y0123029D01*
X0199522Y0122883D01*
X0199466Y0122740D01*
X0199406Y0122597D01*
X0199342Y0122457D01*
X0199275Y0122317D01*
X0199204Y0122180D01*
X0199130Y0122045D01*
X0199052Y0121911D01*
X0198971Y0121780D01*
X0198886Y0121651D01*
X0198798Y0121523D01*
X0198707Y0121399D01*
X0198613Y0121276D01*
X0198515Y0121156D01*
X0198415Y0121039D01*
X0198311Y0120924D01*
X0198205Y0120812D01*
X0198096Y0120703D01*
X0197984Y0120597D01*
X0197869Y0120493D01*
X0197752Y0120393D01*
X0197632Y0120295D01*
X0197509Y0120201D01*
X0197385Y0120110D01*
X0197257Y0120022D01*
X0197128Y0119937D01*
X0196997Y0119856D01*
X0196863Y0119778D01*
X0196728Y0119704D01*
X0196591Y0119633D01*
X0196451Y0119566D01*
X0196311Y0119502D01*
X0196168Y0119442D01*
X0196025Y0119386D01*
X0195879Y0119333D01*
X0195733Y0119284D01*
X0195585Y0119239D01*
X0195436Y0119198D01*
X0195286Y0119160D01*
X0195135Y0119127D01*
X0194984Y0119097D01*
X0194831Y0119071D01*
X0194678Y0119050D01*
X0194525Y0119032D01*
X0194371Y0119018D01*
X0194217Y0119008D01*
X0194062Y0119002D01*
X0193908Y0119000D01*
X0193754Y0119002D01*
X0193599Y0119008D01*
X0193445Y0119018D01*
X0193291Y0119032D01*
X0193138Y0119050D01*
X0192985Y0119071D01*
X0192832Y0119097D01*
X0192681Y0119127D01*
X0192530Y0119160D01*
X0192380Y0119198D01*
X0192231Y0119239D01*
X0192083Y0119284D01*
X0191937Y0119333D01*
X0191791Y0119386D01*
X0191648Y0119442D01*
X0191505Y0119502D01*
X0191365Y0119566D01*
X0191225Y0119633D01*
X0191088Y0119704D01*
X0190953Y0119778D01*
X0190819Y0119856D01*
X0190688Y0119937D01*
X0190559Y0120022D01*
X0190431Y0120110D01*
X0190307Y0120201D01*
X0190184Y0120295D01*
X0190064Y0120393D01*
X0189947Y0120493D01*
X0189832Y0120597D01*
X0189720Y0120703D01*
X0189611Y0120812D01*
X0189505Y0120924D01*
X0189401Y0121039D01*
X0189301Y0121156D01*
X0189203Y0121276D01*
X0189109Y0121399D01*
X0189018Y0121523D01*
X0188930Y0121651D01*
X0188845Y0121780D01*
X0188764Y0121911D01*
X0188686Y0122045D01*
X0188612Y0122180D01*
X0188541Y0122317D01*
X0188474Y0122457D01*
X0188410Y0122597D01*
X0188350Y0122740D01*
X0188294Y0122883D01*
X0188241Y0123029D01*
X0188192Y0123175D01*
X0188147Y0123323D01*
X0188106Y0123472D01*
X0188068Y0123622D01*
X0188035Y0123773D01*
X0188005Y0123924D01*
X0187979Y0124077D01*
X0187958Y0124230D01*
X0187940Y0124383D01*
X0187926Y0124537D01*
X0187916Y0124691D01*
X0187910Y0124846D01*
X0187908Y0125000D01*
M02*
