G75*
%MOIN*%
%OFA0B0*%
%FSLAX25Y25*%
%IPPOS*%
%LPD*%
%AMOC8*
5,1,8,0,0,1.08239X$1,22.5*
%
%ADD10C,0.00900*%
D10*
X0278373Y0208807D02*
X0283728Y0208807D01*
X0283728Y0211484D01*
X0282836Y0212377D01*
X0281051Y0212377D01*
X0280158Y0211484D01*
X0280158Y0208807D01*
X0281051Y0206622D02*
X0282836Y0206622D01*
X0283728Y0205729D01*
X0283728Y0203945D01*
X0282836Y0203052D01*
X0281051Y0203052D01*
X0280158Y0203945D01*
X0280158Y0205729D01*
X0281051Y0206622D01*
X0285513Y0200867D02*
X0285513Y0197297D01*
X0285513Y0199082D02*
X0280158Y0199082D01*
X0282836Y0195112D02*
X0282836Y0191542D01*
X0282836Y0189357D02*
X0280158Y0189357D01*
X0282836Y0189357D02*
X0283728Y0188465D01*
X0283728Y0185787D01*
X0280158Y0185787D01*
X0281051Y0183602D02*
X0283728Y0183602D01*
X0281051Y0183602D02*
X0280158Y0182710D01*
X0281051Y0181817D01*
X0280158Y0180925D01*
X0281051Y0180033D01*
X0283728Y0180033D01*
X0282836Y0177847D02*
X0283728Y0176955D01*
X0283728Y0175170D01*
X0282836Y0174278D01*
X0281051Y0174278D01*
X0280158Y0175170D01*
X0280158Y0176955D01*
X0281051Y0177847D01*
X0282836Y0177847D01*
X0281051Y0172092D02*
X0284620Y0172092D01*
X0285513Y0171200D01*
X0285513Y0168523D01*
X0280158Y0168523D01*
X0280158Y0171200D01*
X0281051Y0172092D01*
X0280158Y0214562D02*
X0280158Y0218132D01*
X0281051Y0220317D02*
X0281943Y0221209D01*
X0281943Y0223887D01*
X0282836Y0223887D02*
X0280158Y0223887D01*
X0280158Y0221209D01*
X0281051Y0220317D01*
X0283728Y0221209D02*
X0283728Y0222994D01*
X0282836Y0223887D01*
X0283728Y0226072D02*
X0281051Y0226072D01*
X0280158Y0226964D01*
X0280158Y0229642D01*
X0279266Y0229642D02*
X0283728Y0229642D01*
X0282836Y0231827D02*
X0283728Y0232719D01*
X0283728Y0234504D01*
X0282836Y0235396D01*
X0281943Y0235396D01*
X0281943Y0231827D01*
X0281051Y0231827D02*
X0282836Y0231827D01*
X0281051Y0231827D02*
X0280158Y0232719D01*
X0280158Y0234504D01*
X0280158Y0237582D02*
X0283728Y0237582D01*
X0283728Y0239366D02*
X0281943Y0237582D01*
X0283728Y0239366D02*
X0283728Y0240259D01*
X0279266Y0229642D02*
X0278373Y0228749D01*
X0278373Y0227857D01*
X0280158Y0214562D02*
X0285513Y0214562D01*
M02*
