G75*
%MOIN*%
%OFA0B0*%
%FSLAX25Y25*%
%IPPOS*%
%LPD*%
%AMOC8*
5,1,8,0,0,1.08239X$1,22.5*
%
%ADD10C,0.00900*%
D10*
X0116978Y0109825D02*
X0116086Y0110718D01*
X0116978Y0109825D02*
X0118763Y0109825D01*
X0119655Y0110718D01*
X0119655Y0111610D01*
X0118763Y0112502D01*
X0116978Y0112502D01*
X0116086Y0113395D01*
X0116086Y0114287D01*
X0116978Y0115180D01*
X0118763Y0115180D01*
X0119655Y0114287D01*
X0121841Y0113395D02*
X0121841Y0108040D01*
X0121841Y0109825D02*
X0124518Y0109825D01*
X0125410Y0110718D01*
X0125410Y0112502D01*
X0124518Y0113395D01*
X0121841Y0113395D01*
X0127595Y0112502D02*
X0127595Y0110718D01*
X0128488Y0109825D01*
X0130273Y0109825D01*
X0131165Y0111610D02*
X0127595Y0111610D01*
X0127595Y0112502D02*
X0128488Y0113395D01*
X0130273Y0113395D01*
X0131165Y0112502D01*
X0131165Y0111610D01*
X0133350Y0112502D02*
X0133350Y0110718D01*
X0134243Y0109825D01*
X0136920Y0109825D01*
X0139998Y0110718D02*
X0139998Y0114287D01*
X0140890Y0113395D02*
X0139105Y0113395D01*
X0136920Y0113395D02*
X0134243Y0113395D01*
X0133350Y0112502D01*
X0139998Y0110718D02*
X0140890Y0109825D01*
X0142942Y0109825D02*
X0142942Y0113395D01*
X0144727Y0113395D02*
X0145619Y0113395D01*
X0144727Y0113395D02*
X0142942Y0111610D01*
X0147738Y0110718D02*
X0148630Y0111610D01*
X0151307Y0111610D01*
X0151307Y0112502D02*
X0151307Y0109825D01*
X0148630Y0109825D01*
X0147738Y0110718D01*
X0148630Y0113395D02*
X0150415Y0113395D01*
X0151307Y0112502D01*
X0153493Y0109825D02*
X0155277Y0109825D01*
X0154385Y0109825D02*
X0154385Y0115180D01*
X0153493Y0115180D01*
X0163084Y0115180D02*
X0166654Y0115180D01*
X0164869Y0115180D02*
X0164869Y0109825D01*
X0168839Y0109825D02*
X0168839Y0113395D01*
X0170624Y0113395D02*
X0171516Y0113395D01*
X0170624Y0113395D02*
X0168839Y0111610D01*
X0173635Y0113395D02*
X0174527Y0113395D01*
X0174527Y0109825D01*
X0173635Y0109825D02*
X0175420Y0109825D01*
X0177471Y0110718D02*
X0178364Y0111610D01*
X0181041Y0111610D01*
X0181041Y0112502D02*
X0181041Y0109825D01*
X0178364Y0109825D01*
X0177471Y0110718D01*
X0178364Y0113395D02*
X0180149Y0113395D01*
X0181041Y0112502D01*
X0183226Y0112502D02*
X0184119Y0113395D01*
X0186796Y0113395D01*
X0186796Y0115180D02*
X0186796Y0109825D01*
X0184119Y0109825D01*
X0183226Y0110718D01*
X0183226Y0112502D01*
X0174527Y0115180D02*
X0174527Y0116072D01*
X0224136Y0114287D02*
X0224136Y0113395D01*
X0225029Y0112502D01*
X0226813Y0112502D01*
X0227706Y0111610D01*
X0227706Y0110718D01*
X0226813Y0109825D01*
X0225029Y0109825D01*
X0224136Y0110718D01*
X0224136Y0114287D02*
X0225029Y0115180D01*
X0226813Y0115180D01*
X0227706Y0114287D01*
X0229891Y0115180D02*
X0229891Y0109825D01*
X0233461Y0109825D01*
X0235646Y0109825D02*
X0235646Y0115180D01*
X0239216Y0109825D01*
X0239216Y0115180D01*
X0241401Y0112502D02*
X0244971Y0112502D01*
X0247156Y0113395D02*
X0248941Y0115180D01*
X0248941Y0109825D01*
X0250725Y0109825D02*
X0247156Y0109825D01*
X0252911Y0110718D02*
X0253803Y0109825D01*
X0255588Y0109825D01*
X0256480Y0110718D01*
X0256480Y0112502D01*
X0255588Y0113395D01*
X0254695Y0113395D01*
X0252911Y0112502D01*
X0252911Y0115180D01*
X0256480Y0115180D01*
X0258666Y0114287D02*
X0259558Y0115180D01*
X0261343Y0115180D01*
X0262235Y0114287D01*
X0258666Y0110718D01*
X0259558Y0109825D01*
X0261343Y0109825D01*
X0262235Y0110718D01*
X0262235Y0114287D01*
X0264420Y0115180D02*
X0264420Y0112502D01*
X0266205Y0113395D01*
X0267098Y0113395D01*
X0267990Y0112502D01*
X0267990Y0110718D01*
X0267098Y0109825D01*
X0265313Y0109825D01*
X0264420Y0110718D01*
X0258666Y0110718D02*
X0258666Y0114287D01*
X0264420Y0115180D02*
X0267990Y0115180D01*
X0270175Y0114287D02*
X0271068Y0115180D01*
X0272853Y0115180D01*
X0273745Y0114287D01*
X0270175Y0110718D01*
X0271068Y0109825D01*
X0272853Y0109825D01*
X0273745Y0110718D01*
X0273745Y0114287D01*
X0270175Y0114287D02*
X0270175Y0110718D01*
X0233461Y0115180D02*
X0229891Y0115180D01*
X0229891Y0112502D02*
X0231676Y0112502D01*
X0180966Y0294825D02*
X0180966Y0300179D01*
X0178288Y0297502D01*
X0181858Y0297502D01*
X0176103Y0299287D02*
X0172533Y0295717D01*
X0172533Y0294825D01*
X0170348Y0295717D02*
X0170348Y0296610D01*
X0169456Y0297502D01*
X0166779Y0297502D01*
X0166779Y0295717D01*
X0167671Y0294825D01*
X0169456Y0294825D01*
X0170348Y0295717D01*
X0166779Y0297502D02*
X0168563Y0299287D01*
X0170348Y0300179D01*
X0172533Y0300179D02*
X0176103Y0300179D01*
X0176103Y0299287D01*
X0164593Y0298395D02*
X0163701Y0298395D01*
X0161024Y0298395D01*
X0161024Y0296610D02*
X0164593Y0296610D01*
X0163701Y0294825D02*
X0163701Y0300179D01*
X0161916Y0300179D02*
X0161916Y0294825D01*
M02*
