G75*
%MOIN*%
%OFA0B0*%
%FSLAX25Y25*%
%IPPOS*%
%LPD*%
%AMOC8*
5,1,8,0,0,1.08239X$1,22.5*
%
%ADD10C,0.07400*%
%ADD11R,0.05346X0.05346*%
%ADD12C,0.05346*%
%ADD13C,0.04000*%
%ADD14C,0.00800*%
%ADD15C,0.01000*%
%ADD16C,0.01500*%
%ADD17C,0.02000*%
D10*
X0104060Y0305000D03*
X0104060Y0315000D03*
X0114060Y0315000D03*
X0114060Y0305000D03*
X0124060Y0305000D03*
X0124060Y0315000D03*
X0247060Y0365000D03*
X0257060Y0365000D03*
X0264060Y0355000D03*
X0267060Y0365000D03*
X0274060Y0355000D03*
X0277060Y0365000D03*
X0287060Y0365000D03*
X0297060Y0365000D03*
X0274060Y0345000D03*
X0274060Y0335000D03*
X0264060Y0335000D03*
X0264060Y0345000D03*
X0254060Y0315000D03*
X0257060Y0215000D03*
X0267060Y0215000D03*
X0277060Y0215000D03*
X0287060Y0215000D03*
X0297060Y0215000D03*
X0247060Y0215000D03*
D11*
X0124887Y0419921D03*
D12*
X0124887Y0428583D03*
X0132761Y0428189D03*
X0132761Y0420315D03*
X0140635Y0420315D03*
X0148509Y0420315D03*
X0148509Y0428189D03*
X0140635Y0428189D03*
X0156383Y0428189D03*
X0156383Y0420315D03*
X0164257Y0420315D03*
X0172131Y0420315D03*
X0172131Y0428189D03*
X0164257Y0428189D03*
X0180005Y0428189D03*
X0180005Y0420315D03*
X0187879Y0420315D03*
X0187879Y0428189D03*
X0195753Y0428189D03*
X0203627Y0428189D03*
X0203627Y0420315D03*
X0195753Y0420315D03*
X0211501Y0420315D03*
X0211501Y0428189D03*
X0219375Y0428189D03*
X0227249Y0428189D03*
X0227249Y0420315D03*
X0219375Y0420315D03*
X0235123Y0420315D03*
X0235123Y0428189D03*
X0242997Y0428189D03*
X0250871Y0428189D03*
X0250871Y0420315D03*
X0242997Y0420315D03*
X0258745Y0420315D03*
X0258745Y0428189D03*
X0266619Y0428189D03*
X0266619Y0420315D03*
X0274493Y0420315D03*
X0274493Y0428189D03*
X0282367Y0428189D03*
X0282367Y0420315D03*
X0290241Y0420315D03*
X0290241Y0428189D03*
X0298115Y0428189D03*
X0298115Y0420315D03*
X0305989Y0420315D03*
X0305989Y0428189D03*
X0313863Y0428189D03*
X0313863Y0420315D03*
X0321737Y0420315D03*
X0321737Y0428189D03*
X0329611Y0428189D03*
X0329611Y0420315D03*
X0337485Y0420315D03*
X0337485Y0428189D03*
X0345359Y0428189D03*
X0345359Y0420315D03*
X0353233Y0419921D03*
X0353233Y0428583D03*
D13*
X0359060Y0396250D03*
X0340310Y0372500D03*
X0312810Y0360000D03*
X0309060Y0336250D03*
X0305310Y0327500D03*
X0291560Y0333750D03*
X0291560Y0353750D03*
X0287810Y0393750D03*
X0279060Y0397500D03*
X0277810Y0403750D03*
X0249060Y0335000D03*
X0269060Y0316250D03*
X0224060Y0380000D03*
X0219060Y0340000D03*
X0205310Y0305000D03*
X0195310Y0350000D03*
X0167810Y0390000D03*
X0180310Y0397500D03*
X0154060Y0380000D03*
X0149060Y0361250D03*
X0159060Y0335000D03*
X0160310Y0305000D03*
X0167810Y0273750D03*
X0144060Y0265000D03*
X0140310Y0277500D03*
X0131060Y0277500D03*
X0124060Y0262500D03*
X0114060Y0262500D03*
X0114060Y0257500D03*
X0114060Y0252500D03*
X0127810Y0235000D03*
X0129060Y0225000D03*
X0137810Y0238750D03*
X0159060Y0220000D03*
X0137810Y0182500D03*
X0124060Y0197500D03*
X0124060Y0202500D03*
X0119060Y0202500D03*
X0101560Y0207500D03*
X0101560Y0192500D03*
X0101560Y0187500D03*
X0094060Y0248750D03*
X0095310Y0253750D03*
X0087810Y0262500D03*
X0087810Y0277500D03*
X0095310Y0276250D03*
X0105310Y0277500D03*
X0101560Y0296250D03*
X0119060Y0310000D03*
X0115310Y0328750D03*
X0106560Y0345000D03*
X0121560Y0368750D03*
X0104060Y0395000D03*
X0084060Y0325000D03*
X0149060Y0405000D03*
X0219060Y0256250D03*
X0211560Y0243750D03*
X0205310Y0247500D03*
X0204060Y0200000D03*
X0244060Y0191250D03*
X0244060Y0181250D03*
X0236360Y0122700D03*
X0295310Y0235000D03*
X0287810Y0237500D03*
X0321560Y0291250D03*
X0364060Y0250000D03*
X0329060Y0190000D03*
D14*
X0076160Y0064917D02*
X0076160Y0425083D01*
X0076826Y0423930D01*
X0076826Y0423930D01*
X0079338Y0421822D01*
X0079338Y0421822D01*
X0082420Y0420700D01*
X0085700Y0420700D01*
X0088782Y0421822D01*
X0091294Y0423930D01*
X0092934Y0426770D01*
X0092934Y0426770D01*
X0093503Y0430000D01*
X0092934Y0433230D01*
X0091294Y0436070D01*
X0091294Y0436070D01*
X0089113Y0437900D01*
X0121490Y0437900D01*
X0116940Y0433350D01*
X0115710Y0432120D01*
X0115710Y0429620D01*
X0115507Y0429417D01*
X0115434Y0429830D01*
X0113794Y0432670D01*
X0113794Y0432670D01*
X0111282Y0434778D01*
X0111282Y0434778D01*
X0108200Y0435900D01*
X0104920Y0435900D01*
X0101838Y0434778D01*
X0099326Y0432670D01*
X0097686Y0429830D01*
X0097686Y0429830D01*
X0097117Y0426600D01*
X0097686Y0423370D01*
X0099326Y0420530D01*
X0099326Y0420530D01*
X0101838Y0418422D01*
X0101838Y0418422D01*
X0104920Y0417300D01*
X0108200Y0417300D01*
X0111282Y0418422D01*
X0113210Y0420040D01*
X0113210Y0367120D01*
X0080690Y0334600D01*
X0079460Y0333370D01*
X0079460Y0328370D01*
X0079440Y0328350D01*
X0078210Y0327120D01*
X0078210Y0212880D01*
X0097960Y0193130D01*
X0097960Y0191784D01*
X0098508Y0190461D01*
X0098969Y0190000D01*
X0098508Y0189539D01*
X0097960Y0188216D01*
X0097960Y0186784D01*
X0098508Y0185461D01*
X0099521Y0184448D01*
X0100844Y0183900D01*
X0102276Y0183900D01*
X0103599Y0184448D01*
X0104551Y0185400D01*
X0114930Y0185400D01*
X0123430Y0193900D01*
X0124776Y0193900D01*
X0126099Y0194448D01*
X0127112Y0195461D01*
X0127660Y0196784D01*
X0127660Y0198130D01*
X0167430Y0237900D01*
X0212740Y0237900D01*
X0198190Y0223350D01*
X0179440Y0223350D01*
X0178210Y0222120D01*
X0140746Y0184655D01*
X0139849Y0185552D01*
X0138526Y0186100D01*
X0137094Y0186100D01*
X0135771Y0185552D01*
X0134758Y0184539D01*
X0134210Y0183216D01*
X0134210Y0181784D01*
X0134758Y0180461D01*
X0135771Y0179448D01*
X0137094Y0178900D01*
X0138526Y0178900D01*
X0139849Y0179448D01*
X0140801Y0180400D01*
X0142430Y0180400D01*
X0181180Y0219150D01*
X0184508Y0219150D01*
X0181838Y0218178D01*
X0179326Y0216070D01*
X0177686Y0213230D01*
X0177686Y0213230D01*
X0177117Y0210000D01*
X0177686Y0206770D01*
X0179326Y0203930D01*
X0179326Y0203930D01*
X0181838Y0201822D01*
X0181838Y0201822D01*
X0184920Y0200700D01*
X0188200Y0200700D01*
X0191282Y0201822D01*
X0193794Y0203930D01*
X0193794Y0203930D01*
X0195434Y0206770D01*
X0195434Y0206770D01*
X0196004Y0210000D01*
X0196004Y0210000D01*
X0195434Y0213230D01*
X0193794Y0216070D01*
X0191282Y0218178D01*
X0191282Y0218178D01*
X0188612Y0219150D01*
X0199930Y0219150D01*
X0304680Y0323900D01*
X0306026Y0323900D01*
X0307349Y0324448D01*
X0308362Y0325461D01*
X0308910Y0326784D01*
X0308910Y0328216D01*
X0308362Y0329539D01*
X0307349Y0330552D01*
X0306630Y0330850D01*
X0308430Y0332650D01*
X0309776Y0332650D01*
X0311099Y0333198D01*
X0312112Y0334211D01*
X0312660Y0335534D01*
X0312660Y0336966D01*
X0312112Y0338289D01*
X0311099Y0339302D01*
X0310380Y0339600D01*
X0339680Y0368900D01*
X0341026Y0368900D01*
X0342223Y0369396D01*
X0342686Y0366770D01*
X0344326Y0363930D01*
X0346838Y0361822D01*
X0349920Y0360700D01*
X0350731Y0360700D01*
X0353200Y0360700D01*
X0356282Y0361822D01*
X0358794Y0363930D01*
X0360434Y0366770D01*
X0360710Y0368336D01*
X0360710Y0323370D01*
X0257640Y0220300D01*
X0256006Y0220300D01*
X0254058Y0219493D01*
X0252567Y0218002D01*
X0252060Y0216779D01*
X0251553Y0218002D01*
X0251418Y0218138D01*
X0320930Y0287650D01*
X0322276Y0287650D01*
X0323599Y0288198D01*
X0324612Y0289211D01*
X0325160Y0290534D01*
X0325160Y0291966D01*
X0324612Y0293289D01*
X0323599Y0294302D01*
X0322276Y0294850D01*
X0320844Y0294850D01*
X0319521Y0294302D01*
X0318508Y0293289D01*
X0317960Y0291966D01*
X0317960Y0290620D01*
X0247640Y0220300D01*
X0246006Y0220300D01*
X0244058Y0219493D01*
X0242567Y0218002D01*
X0241760Y0216054D01*
X0241760Y0213946D01*
X0242567Y0211998D01*
X0244058Y0210507D01*
X0246006Y0209700D01*
X0248114Y0209700D01*
X0250062Y0210507D01*
X0251553Y0211998D01*
X0252060Y0213222D01*
X0252567Y0211998D01*
X0254058Y0210507D01*
X0256006Y0209700D01*
X0258114Y0209700D01*
X0260062Y0210507D01*
X0261553Y0211998D01*
X0262060Y0213222D01*
X0262353Y0212513D01*
X0244690Y0194850D01*
X0243344Y0194850D01*
X0242021Y0194302D01*
X0241008Y0193289D01*
X0240460Y0191966D01*
X0240460Y0190534D01*
X0241008Y0189211D01*
X0242021Y0188198D01*
X0243344Y0187650D01*
X0244776Y0187650D01*
X0246099Y0188198D01*
X0247112Y0189211D01*
X0247660Y0190534D01*
X0247660Y0191880D01*
X0265634Y0209854D01*
X0266006Y0209700D01*
X0268114Y0209700D01*
X0270062Y0210507D01*
X0271553Y0211998D01*
X0272060Y0213222D01*
X0272353Y0212513D01*
X0244690Y0184850D01*
X0243344Y0184850D01*
X0242021Y0184302D01*
X0241008Y0183289D01*
X0240460Y0181966D01*
X0240460Y0180534D01*
X0241008Y0179211D01*
X0242021Y0178198D01*
X0243344Y0177650D01*
X0244776Y0177650D01*
X0246099Y0178198D01*
X0247112Y0179211D01*
X0247660Y0180534D01*
X0247660Y0181880D01*
X0275634Y0209854D01*
X0276006Y0209700D01*
X0278114Y0209700D01*
X0280062Y0210507D01*
X0281553Y0211998D01*
X0282060Y0213222D01*
X0282567Y0211998D01*
X0284058Y0210507D01*
X0286006Y0209700D01*
X0288114Y0209700D01*
X0290062Y0210507D01*
X0291553Y0211998D01*
X0292181Y0213513D01*
X0292334Y0213042D01*
X0292698Y0212327D01*
X0293170Y0211678D01*
X0293738Y0211110D01*
X0294387Y0210638D01*
X0295102Y0210274D01*
X0295866Y0210026D01*
X0296659Y0209900D01*
X0296660Y0209900D01*
X0296660Y0214600D01*
X0297460Y0214600D01*
X0297460Y0209900D01*
X0297461Y0209900D01*
X0298254Y0210026D01*
X0299018Y0210274D01*
X0299733Y0210638D01*
X0300382Y0211110D01*
X0300950Y0211678D01*
X0301422Y0212327D01*
X0301786Y0213042D01*
X0302034Y0213806D01*
X0302160Y0214599D01*
X0302160Y0214600D01*
X0297460Y0214600D01*
X0297460Y0215400D01*
X0302160Y0215400D01*
X0302160Y0215402D01*
X0302034Y0216194D01*
X0301786Y0216958D01*
X0301422Y0217673D01*
X0300950Y0218323D01*
X0300382Y0218890D01*
X0299733Y0219362D01*
X0299018Y0219727D01*
X0298254Y0219975D01*
X0297461Y0220100D01*
X0297460Y0220100D01*
X0297460Y0215400D01*
X0296660Y0215400D01*
X0296660Y0220100D01*
X0296659Y0220100D01*
X0295866Y0219975D01*
X0295102Y0219727D01*
X0294387Y0219362D01*
X0293738Y0218890D01*
X0293170Y0218323D01*
X0292698Y0217673D01*
X0292334Y0216958D01*
X0292181Y0216487D01*
X0291553Y0218002D01*
X0290062Y0219493D01*
X0288114Y0220300D01*
X0286006Y0220300D01*
X0284058Y0219493D01*
X0282567Y0218002D01*
X0282060Y0216779D01*
X0281553Y0218002D01*
X0281418Y0218138D01*
X0294680Y0231400D01*
X0296026Y0231400D01*
X0297349Y0231948D01*
X0298362Y0232961D01*
X0298910Y0234284D01*
X0298910Y0235716D01*
X0298362Y0237039D01*
X0297349Y0238052D01*
X0296026Y0238600D01*
X0294594Y0238600D01*
X0293271Y0238052D01*
X0292258Y0237039D01*
X0291710Y0235716D01*
X0291710Y0234370D01*
X0277640Y0220300D01*
X0276006Y0220300D01*
X0274058Y0219493D01*
X0272567Y0218002D01*
X0272060Y0216779D01*
X0271553Y0218002D01*
X0271418Y0218138D01*
X0287180Y0233900D01*
X0288526Y0233900D01*
X0289849Y0234448D01*
X0290862Y0235461D01*
X0291410Y0236784D01*
X0291410Y0238216D01*
X0290862Y0239539D01*
X0289849Y0240552D01*
X0288526Y0241100D01*
X0287094Y0241100D01*
X0285771Y0240552D01*
X0284758Y0239539D01*
X0284210Y0238216D01*
X0284210Y0236870D01*
X0267640Y0220300D01*
X0266006Y0220300D01*
X0264058Y0219493D01*
X0262567Y0218002D01*
X0262060Y0216779D01*
X0261553Y0218002D01*
X0261418Y0218138D01*
X0363680Y0320400D01*
X0364910Y0321630D01*
X0364910Y0420040D01*
X0366838Y0418422D01*
X0366838Y0418422D01*
X0369920Y0417300D01*
X0373200Y0417300D01*
X0376282Y0418422D01*
X0378794Y0420530D01*
X0380434Y0423370D01*
X0380434Y0423370D01*
X0381003Y0426600D01*
X0380434Y0429830D01*
X0378794Y0432670D01*
X0378794Y0432670D01*
X0376282Y0434778D01*
X0376282Y0434778D01*
X0373200Y0435900D01*
X0369920Y0435900D01*
X0366838Y0434778D01*
X0365024Y0433256D01*
X0364930Y0433350D01*
X0360380Y0437900D01*
X0374060Y0437900D01*
X0375296Y0437803D01*
X0377647Y0437039D01*
X0379646Y0435586D01*
X0381099Y0433587D01*
X0381863Y0431236D01*
X0381960Y0430000D01*
X0381960Y0064917D01*
X0381294Y0066070D01*
X0381294Y0066070D01*
X0378782Y0068178D01*
X0378782Y0068178D01*
X0375700Y0069300D01*
X0372420Y0069300D01*
X0369338Y0068178D01*
X0366826Y0066070D01*
X0365186Y0063230D01*
X0365186Y0063230D01*
X0364617Y0060000D01*
X0365186Y0056770D01*
X0366826Y0053930D01*
X0366826Y0053930D01*
X0369007Y0052100D01*
X0089113Y0052100D01*
X0091294Y0053930D01*
X0092934Y0056770D01*
X0092934Y0056770D01*
X0093503Y0060000D01*
X0092934Y0063230D01*
X0091294Y0066070D01*
X0091294Y0066070D01*
X0088782Y0068178D01*
X0088782Y0068178D01*
X0085700Y0069300D01*
X0082420Y0069300D01*
X0079338Y0068178D01*
X0076826Y0066070D01*
X0076160Y0064917D01*
X0076160Y0065172D02*
X0076307Y0065172D01*
X0076160Y0065970D02*
X0076768Y0065970D01*
X0076826Y0066070D02*
X0076826Y0066070D01*
X0076826Y0066070D01*
X0076160Y0066769D02*
X0077658Y0066769D01*
X0078610Y0067567D02*
X0076160Y0067567D01*
X0076160Y0068366D02*
X0079853Y0068366D01*
X0079338Y0068178D02*
X0079338Y0068178D01*
X0082047Y0069164D02*
X0076160Y0069164D01*
X0076160Y0069963D02*
X0381960Y0069963D01*
X0381960Y0070761D02*
X0076160Y0070761D01*
X0076160Y0071560D02*
X0381960Y0071560D01*
X0381960Y0072358D02*
X0076160Y0072358D01*
X0076160Y0073157D02*
X0381960Y0073157D01*
X0381960Y0073955D02*
X0076160Y0073955D01*
X0076160Y0074754D02*
X0381960Y0074754D01*
X0381960Y0075552D02*
X0076160Y0075552D01*
X0076160Y0076351D02*
X0381960Y0076351D01*
X0381960Y0077149D02*
X0076160Y0077149D01*
X0076160Y0077948D02*
X0381960Y0077948D01*
X0381960Y0078746D02*
X0076160Y0078746D01*
X0076160Y0079545D02*
X0381960Y0079545D01*
X0381960Y0080343D02*
X0076160Y0080343D01*
X0076160Y0081142D02*
X0381960Y0081142D01*
X0381960Y0081940D02*
X0076160Y0081940D01*
X0076160Y0082739D02*
X0381960Y0082739D01*
X0381960Y0083537D02*
X0076160Y0083537D01*
X0076160Y0084336D02*
X0381960Y0084336D01*
X0381960Y0085134D02*
X0076160Y0085134D01*
X0076160Y0085933D02*
X0381960Y0085933D01*
X0381960Y0086732D02*
X0076160Y0086732D01*
X0076160Y0087530D02*
X0381960Y0087530D01*
X0381960Y0088329D02*
X0076160Y0088329D01*
X0076160Y0089127D02*
X0381960Y0089127D01*
X0381960Y0089926D02*
X0076160Y0089926D01*
X0076160Y0090724D02*
X0381960Y0090724D01*
X0381960Y0091523D02*
X0076160Y0091523D01*
X0076160Y0092321D02*
X0381960Y0092321D01*
X0381960Y0093120D02*
X0076160Y0093120D01*
X0076160Y0093918D02*
X0381960Y0093918D01*
X0381960Y0094717D02*
X0076160Y0094717D01*
X0076160Y0095515D02*
X0381960Y0095515D01*
X0381960Y0096314D02*
X0076160Y0096314D01*
X0076160Y0097112D02*
X0381960Y0097112D01*
X0381960Y0097911D02*
X0076160Y0097911D01*
X0076160Y0098709D02*
X0381960Y0098709D01*
X0381960Y0099508D02*
X0076160Y0099508D01*
X0076160Y0100306D02*
X0381960Y0100306D01*
X0381960Y0101105D02*
X0076160Y0101105D01*
X0076160Y0101903D02*
X0381960Y0101903D01*
X0381960Y0102702D02*
X0076160Y0102702D01*
X0076160Y0103500D02*
X0381960Y0103500D01*
X0381960Y0104299D02*
X0076160Y0104299D01*
X0076160Y0105097D02*
X0381960Y0105097D01*
X0381960Y0105896D02*
X0076160Y0105896D01*
X0076160Y0106694D02*
X0381960Y0106694D01*
X0381960Y0107493D02*
X0076160Y0107493D01*
X0076160Y0108291D02*
X0381960Y0108291D01*
X0381960Y0109090D02*
X0076160Y0109090D01*
X0076160Y0109888D02*
X0381960Y0109888D01*
X0381960Y0110687D02*
X0076160Y0110687D01*
X0076160Y0111485D02*
X0381960Y0111485D01*
X0381960Y0112284D02*
X0076160Y0112284D01*
X0076160Y0113082D02*
X0381960Y0113082D01*
X0381960Y0113881D02*
X0076160Y0113881D01*
X0076160Y0114679D02*
X0381960Y0114679D01*
X0381960Y0115478D02*
X0076160Y0115478D01*
X0076160Y0116276D02*
X0381960Y0116276D01*
X0381960Y0117075D02*
X0076160Y0117075D01*
X0076160Y0117873D02*
X0381960Y0117873D01*
X0381960Y0118672D02*
X0076160Y0118672D01*
X0076160Y0119470D02*
X0234749Y0119470D01*
X0234321Y0119648D02*
X0235644Y0119100D01*
X0237076Y0119100D01*
X0238399Y0119648D01*
X0239412Y0120661D01*
X0239960Y0121984D01*
X0239960Y0122223D01*
X0364137Y0246400D01*
X0364776Y0246400D01*
X0366099Y0246948D01*
X0367112Y0247961D01*
X0367660Y0249284D01*
X0367660Y0250716D01*
X0367112Y0252039D01*
X0366099Y0253052D01*
X0364776Y0253600D01*
X0363344Y0253600D01*
X0362021Y0253052D01*
X0361008Y0252039D01*
X0360460Y0250716D01*
X0360460Y0250077D01*
X0236683Y0126300D01*
X0235644Y0126300D01*
X0234321Y0125752D01*
X0233308Y0124739D01*
X0232760Y0123416D01*
X0232760Y0121984D01*
X0233308Y0120661D01*
X0234321Y0119648D01*
X0233700Y0120269D02*
X0076160Y0120269D01*
X0076160Y0121068D02*
X0233140Y0121068D01*
X0232809Y0121866D02*
X0076160Y0121866D01*
X0076160Y0122665D02*
X0232760Y0122665D01*
X0232779Y0123463D02*
X0076160Y0123463D01*
X0076160Y0124262D02*
X0233110Y0124262D01*
X0233629Y0125060D02*
X0076160Y0125060D01*
X0076160Y0125859D02*
X0234578Y0125859D01*
X0237040Y0126657D02*
X0076160Y0126657D01*
X0076160Y0127456D02*
X0237839Y0127456D01*
X0238637Y0128254D02*
X0076160Y0128254D01*
X0076160Y0129053D02*
X0239436Y0129053D01*
X0240234Y0129851D02*
X0076160Y0129851D01*
X0076160Y0130650D02*
X0241033Y0130650D01*
X0241831Y0131448D02*
X0076160Y0131448D01*
X0076160Y0132247D02*
X0242630Y0132247D01*
X0243428Y0133045D02*
X0076160Y0133045D01*
X0076160Y0133844D02*
X0244227Y0133844D01*
X0245025Y0134642D02*
X0076160Y0134642D01*
X0076160Y0135441D02*
X0245824Y0135441D01*
X0246622Y0136239D02*
X0076160Y0136239D01*
X0076160Y0137038D02*
X0247421Y0137038D01*
X0248219Y0137836D02*
X0076160Y0137836D01*
X0076160Y0138635D02*
X0249018Y0138635D01*
X0249816Y0139433D02*
X0076160Y0139433D01*
X0076160Y0140232D02*
X0250615Y0140232D01*
X0251413Y0141030D02*
X0076160Y0141030D01*
X0076160Y0141829D02*
X0252212Y0141829D01*
X0253010Y0142627D02*
X0076160Y0142627D01*
X0076160Y0143426D02*
X0253809Y0143426D01*
X0254607Y0144224D02*
X0076160Y0144224D01*
X0076160Y0145023D02*
X0255406Y0145023D01*
X0256204Y0145821D02*
X0076160Y0145821D01*
X0076160Y0146620D02*
X0257003Y0146620D01*
X0257801Y0147418D02*
X0076160Y0147418D01*
X0076160Y0148217D02*
X0258600Y0148217D01*
X0259398Y0149015D02*
X0076160Y0149015D01*
X0076160Y0149814D02*
X0260197Y0149814D01*
X0260995Y0150612D02*
X0076160Y0150612D01*
X0076160Y0151411D02*
X0261794Y0151411D01*
X0262592Y0152209D02*
X0076160Y0152209D01*
X0076160Y0153008D02*
X0263391Y0153008D01*
X0264190Y0153806D02*
X0076160Y0153806D01*
X0076160Y0154605D02*
X0264988Y0154605D01*
X0265787Y0155403D02*
X0076160Y0155403D01*
X0076160Y0156202D02*
X0266585Y0156202D01*
X0267384Y0157001D02*
X0076160Y0157001D01*
X0076160Y0157799D02*
X0268182Y0157799D01*
X0268981Y0158598D02*
X0076160Y0158598D01*
X0076160Y0159396D02*
X0269779Y0159396D01*
X0270578Y0160195D02*
X0076160Y0160195D01*
X0076160Y0160993D02*
X0271376Y0160993D01*
X0272175Y0161792D02*
X0076160Y0161792D01*
X0076160Y0162590D02*
X0272973Y0162590D01*
X0273772Y0163389D02*
X0076160Y0163389D01*
X0076160Y0164187D02*
X0274570Y0164187D01*
X0275369Y0164986D02*
X0076160Y0164986D01*
X0076160Y0165784D02*
X0276167Y0165784D01*
X0276966Y0166583D02*
X0076160Y0166583D01*
X0076160Y0167381D02*
X0277764Y0167381D01*
X0278563Y0168180D02*
X0076160Y0168180D01*
X0076160Y0168978D02*
X0279361Y0168978D01*
X0280160Y0169777D02*
X0076160Y0169777D01*
X0076160Y0170575D02*
X0280958Y0170575D01*
X0281757Y0171374D02*
X0076160Y0171374D01*
X0076160Y0172172D02*
X0282555Y0172172D01*
X0283354Y0172971D02*
X0076160Y0172971D01*
X0076160Y0173769D02*
X0284152Y0173769D01*
X0284951Y0174568D02*
X0076160Y0174568D01*
X0076160Y0175366D02*
X0285749Y0175366D01*
X0286548Y0176165D02*
X0076160Y0176165D01*
X0076160Y0176963D02*
X0287346Y0176963D01*
X0288145Y0177762D02*
X0245046Y0177762D01*
X0246461Y0178560D02*
X0288943Y0178560D01*
X0289742Y0179359D02*
X0247173Y0179359D01*
X0247504Y0180157D02*
X0290540Y0180157D01*
X0291339Y0180956D02*
X0247660Y0180956D01*
X0247660Y0181754D02*
X0292137Y0181754D01*
X0292936Y0182553D02*
X0248333Y0182553D01*
X0249131Y0183351D02*
X0293734Y0183351D01*
X0294533Y0184150D02*
X0249930Y0184150D01*
X0250728Y0184948D02*
X0295331Y0184948D01*
X0296130Y0185747D02*
X0251527Y0185747D01*
X0252325Y0186545D02*
X0266090Y0186545D01*
X0265038Y0186981D02*
X0267648Y0185900D01*
X0270472Y0185900D01*
X0273082Y0186981D01*
X0275079Y0188978D01*
X0276160Y0191588D01*
X0276160Y0194412D01*
X0275079Y0197022D01*
X0273082Y0199019D01*
X0270472Y0200100D01*
X0267648Y0200100D01*
X0265038Y0199019D01*
X0263041Y0197022D01*
X0261960Y0194412D01*
X0261960Y0191588D01*
X0263041Y0188978D01*
X0265038Y0186981D01*
X0264675Y0187344D02*
X0253124Y0187344D01*
X0253922Y0188142D02*
X0263877Y0188142D01*
X0263078Y0188941D02*
X0254721Y0188941D01*
X0255519Y0189739D02*
X0262726Y0189739D01*
X0262395Y0190538D02*
X0256318Y0190538D01*
X0257116Y0191337D02*
X0262064Y0191337D01*
X0261960Y0192135D02*
X0257915Y0192135D01*
X0258713Y0192934D02*
X0261960Y0192934D01*
X0261960Y0193732D02*
X0259512Y0193732D01*
X0260310Y0194531D02*
X0262009Y0194531D01*
X0262340Y0195329D02*
X0261109Y0195329D01*
X0261907Y0196128D02*
X0262670Y0196128D01*
X0262706Y0196926D02*
X0263001Y0196926D01*
X0263504Y0197725D02*
X0263744Y0197725D01*
X0264303Y0198523D02*
X0264542Y0198523D01*
X0265101Y0199322D02*
X0265768Y0199322D01*
X0265900Y0200120D02*
X0310503Y0200120D01*
X0309705Y0199322D02*
X0272352Y0199322D01*
X0273578Y0198523D02*
X0308906Y0198523D01*
X0308108Y0197725D02*
X0274376Y0197725D01*
X0275119Y0196926D02*
X0307309Y0196926D01*
X0306511Y0196128D02*
X0275450Y0196128D01*
X0275780Y0195329D02*
X0305712Y0195329D01*
X0304914Y0194531D02*
X0276111Y0194531D01*
X0276160Y0193732D02*
X0304115Y0193732D01*
X0303317Y0192934D02*
X0276160Y0192934D01*
X0276160Y0192135D02*
X0302518Y0192135D01*
X0301720Y0191337D02*
X0276056Y0191337D01*
X0275725Y0190538D02*
X0300921Y0190538D01*
X0300123Y0189739D02*
X0275394Y0189739D01*
X0275042Y0188941D02*
X0299324Y0188941D01*
X0298526Y0188142D02*
X0274243Y0188142D01*
X0273445Y0187344D02*
X0297727Y0187344D01*
X0296928Y0186545D02*
X0272030Y0186545D01*
X0266698Y0200919D02*
X0311302Y0200919D01*
X0312100Y0201717D02*
X0267497Y0201717D01*
X0268295Y0202516D02*
X0312899Y0202516D01*
X0313697Y0203314D02*
X0269094Y0203314D01*
X0269893Y0204113D02*
X0314496Y0204113D01*
X0315294Y0204911D02*
X0270691Y0204911D01*
X0271490Y0205710D02*
X0316093Y0205710D01*
X0316891Y0206508D02*
X0272288Y0206508D01*
X0273087Y0207307D02*
X0317690Y0207307D01*
X0318488Y0208105D02*
X0273885Y0208105D01*
X0274684Y0208904D02*
X0319287Y0208904D01*
X0320085Y0209702D02*
X0288119Y0209702D01*
X0290047Y0210501D02*
X0294657Y0210501D01*
X0293548Y0211299D02*
X0290854Y0211299D01*
X0291594Y0212098D02*
X0292865Y0212098D01*
X0292408Y0212896D02*
X0291925Y0212896D01*
X0292014Y0216889D02*
X0292311Y0216889D01*
X0292708Y0217687D02*
X0291684Y0217687D01*
X0291070Y0218486D02*
X0293333Y0218486D01*
X0294280Y0219284D02*
X0290271Y0219284D01*
X0288639Y0220083D02*
X0296550Y0220083D01*
X0296660Y0220083D02*
X0297460Y0220083D01*
X0297570Y0220083D02*
X0330466Y0220083D01*
X0331264Y0220881D02*
X0284161Y0220881D01*
X0283363Y0220083D02*
X0285481Y0220083D01*
X0284960Y0221680D02*
X0332063Y0221680D01*
X0332861Y0222478D02*
X0285758Y0222478D01*
X0286557Y0223277D02*
X0333660Y0223277D01*
X0334459Y0224075D02*
X0287355Y0224075D01*
X0288154Y0224874D02*
X0335257Y0224874D01*
X0336056Y0225672D02*
X0288952Y0225672D01*
X0289751Y0226471D02*
X0336854Y0226471D01*
X0337653Y0227270D02*
X0290549Y0227270D01*
X0291348Y0228068D02*
X0338451Y0228068D01*
X0339250Y0228867D02*
X0292146Y0228867D01*
X0292945Y0229665D02*
X0340048Y0229665D01*
X0340847Y0230464D02*
X0293743Y0230464D01*
X0294542Y0231262D02*
X0341645Y0231262D01*
X0342444Y0232061D02*
X0297462Y0232061D01*
X0298260Y0232859D02*
X0343242Y0232859D01*
X0344041Y0233658D02*
X0298651Y0233658D01*
X0298910Y0234456D02*
X0344839Y0234456D01*
X0345638Y0235255D02*
X0298910Y0235255D01*
X0298770Y0236053D02*
X0346436Y0236053D01*
X0347235Y0236852D02*
X0298440Y0236852D01*
X0297751Y0237650D02*
X0348033Y0237650D01*
X0348832Y0238449D02*
X0296391Y0238449D01*
X0294229Y0238449D02*
X0291314Y0238449D01*
X0291410Y0237650D02*
X0292869Y0237650D01*
X0292180Y0236852D02*
X0291410Y0236852D01*
X0291107Y0236053D02*
X0291850Y0236053D01*
X0291710Y0235255D02*
X0290656Y0235255D01*
X0289857Y0234456D02*
X0291710Y0234456D01*
X0290998Y0233658D02*
X0286937Y0233658D01*
X0286139Y0232859D02*
X0290199Y0232859D01*
X0289401Y0232061D02*
X0285340Y0232061D01*
X0284542Y0231262D02*
X0288602Y0231262D01*
X0287804Y0230464D02*
X0283743Y0230464D01*
X0282945Y0229665D02*
X0287005Y0229665D01*
X0286207Y0228867D02*
X0282146Y0228867D01*
X0281348Y0228068D02*
X0285408Y0228068D01*
X0284610Y0227270D02*
X0280549Y0227270D01*
X0279751Y0226471D02*
X0283811Y0226471D01*
X0283013Y0225672D02*
X0278952Y0225672D01*
X0278154Y0224874D02*
X0282214Y0224874D01*
X0281416Y0224075D02*
X0277355Y0224075D01*
X0276557Y0223277D02*
X0280617Y0223277D01*
X0279819Y0222478D02*
X0275758Y0222478D01*
X0274960Y0221680D02*
X0279020Y0221680D01*
X0278222Y0220881D02*
X0274161Y0220881D01*
X0273363Y0220083D02*
X0275481Y0220083D01*
X0273849Y0219284D02*
X0272564Y0219284D01*
X0273050Y0218486D02*
X0271766Y0218486D01*
X0271684Y0217687D02*
X0272436Y0217687D01*
X0272106Y0216889D02*
X0272014Y0216889D01*
X0271925Y0212896D02*
X0272195Y0212896D01*
X0271938Y0212098D02*
X0271594Y0212098D01*
X0271139Y0211299D02*
X0270854Y0211299D01*
X0270341Y0210501D02*
X0270047Y0210501D01*
X0269542Y0209702D02*
X0268119Y0209702D01*
X0268744Y0208904D02*
X0264684Y0208904D01*
X0265482Y0209702D02*
X0266001Y0209702D01*
X0267945Y0208105D02*
X0263885Y0208105D01*
X0263087Y0207307D02*
X0267147Y0207307D01*
X0266348Y0206508D02*
X0262288Y0206508D01*
X0261490Y0205710D02*
X0265550Y0205710D01*
X0264751Y0204911D02*
X0260691Y0204911D01*
X0259893Y0204113D02*
X0263953Y0204113D01*
X0263154Y0203314D02*
X0259094Y0203314D01*
X0258295Y0202516D02*
X0262356Y0202516D01*
X0261557Y0201717D02*
X0257497Y0201717D01*
X0256698Y0200919D02*
X0260759Y0200919D01*
X0259960Y0200120D02*
X0255900Y0200120D01*
X0255101Y0199322D02*
X0259162Y0199322D01*
X0258363Y0198523D02*
X0254303Y0198523D01*
X0253504Y0197725D02*
X0257565Y0197725D01*
X0256766Y0196926D02*
X0252706Y0196926D01*
X0251907Y0196128D02*
X0255968Y0196128D01*
X0255169Y0195329D02*
X0251109Y0195329D01*
X0250310Y0194531D02*
X0254371Y0194531D01*
X0253572Y0193732D02*
X0249512Y0193732D01*
X0248713Y0192934D02*
X0252774Y0192934D01*
X0251975Y0192135D02*
X0247915Y0192135D01*
X0247660Y0191337D02*
X0251177Y0191337D01*
X0250378Y0190538D02*
X0247660Y0190538D01*
X0247331Y0189739D02*
X0249580Y0189739D01*
X0248781Y0188941D02*
X0246842Y0188941D01*
X0245965Y0188142D02*
X0247983Y0188142D01*
X0247184Y0187344D02*
X0149374Y0187344D01*
X0150172Y0188142D02*
X0242155Y0188142D01*
X0241278Y0188941D02*
X0150971Y0188941D01*
X0151769Y0189739D02*
X0240789Y0189739D01*
X0240460Y0190538D02*
X0152568Y0190538D01*
X0153366Y0191337D02*
X0240460Y0191337D01*
X0240530Y0192135D02*
X0154165Y0192135D01*
X0154963Y0192934D02*
X0240861Y0192934D01*
X0241451Y0193732D02*
X0155762Y0193732D01*
X0156560Y0194531D02*
X0242573Y0194531D01*
X0245169Y0195329D02*
X0157359Y0195329D01*
X0158157Y0196128D02*
X0245968Y0196128D01*
X0246766Y0196926D02*
X0158956Y0196926D01*
X0159754Y0197725D02*
X0247565Y0197725D01*
X0248363Y0198523D02*
X0160553Y0198523D01*
X0161351Y0199322D02*
X0249162Y0199322D01*
X0249960Y0200120D02*
X0162150Y0200120D01*
X0162948Y0200919D02*
X0184320Y0200919D01*
X0182126Y0201717D02*
X0163747Y0201717D01*
X0164545Y0202516D02*
X0181011Y0202516D01*
X0180060Y0203314D02*
X0165344Y0203314D01*
X0166143Y0204113D02*
X0179220Y0204113D01*
X0178759Y0204911D02*
X0166941Y0204911D01*
X0167740Y0205710D02*
X0178298Y0205710D01*
X0177837Y0206508D02*
X0168538Y0206508D01*
X0169337Y0207307D02*
X0177592Y0207307D01*
X0177686Y0206770D02*
X0177686Y0206770D01*
X0177451Y0208105D02*
X0170135Y0208105D01*
X0170934Y0208904D02*
X0177310Y0208904D01*
X0177169Y0209702D02*
X0171732Y0209702D01*
X0172531Y0210501D02*
X0177205Y0210501D01*
X0177117Y0210000D02*
X0177117Y0210000D01*
X0177346Y0211299D02*
X0173329Y0211299D01*
X0174128Y0212098D02*
X0177487Y0212098D01*
X0177627Y0212896D02*
X0174926Y0212896D01*
X0175725Y0213695D02*
X0177955Y0213695D01*
X0178416Y0214493D02*
X0176523Y0214493D01*
X0177322Y0215292D02*
X0178877Y0215292D01*
X0179326Y0216070D02*
X0179326Y0216070D01*
X0179326Y0216070D01*
X0179350Y0216090D02*
X0178120Y0216090D01*
X0178919Y0216889D02*
X0180302Y0216889D01*
X0179717Y0217687D02*
X0181253Y0217687D01*
X0181838Y0218178D02*
X0181838Y0218178D01*
X0182683Y0218486D02*
X0180516Y0218486D01*
X0177770Y0221680D02*
X0151210Y0221680D01*
X0152008Y0222478D02*
X0178569Y0222478D01*
X0179367Y0223277D02*
X0152807Y0223277D01*
X0153605Y0224075D02*
X0198916Y0224075D01*
X0199714Y0224874D02*
X0154404Y0224874D01*
X0155202Y0225672D02*
X0200513Y0225672D01*
X0201311Y0226471D02*
X0156001Y0226471D01*
X0156799Y0227270D02*
X0202110Y0227270D01*
X0202908Y0228068D02*
X0157598Y0228068D01*
X0158396Y0228867D02*
X0203707Y0228867D01*
X0204505Y0229665D02*
X0159195Y0229665D01*
X0159993Y0230464D02*
X0205304Y0230464D01*
X0206102Y0231262D02*
X0160792Y0231262D01*
X0161590Y0232061D02*
X0206901Y0232061D01*
X0207699Y0232859D02*
X0162389Y0232859D01*
X0163187Y0233658D02*
X0208498Y0233658D01*
X0209296Y0234456D02*
X0163986Y0234456D01*
X0164784Y0235255D02*
X0210095Y0235255D01*
X0210893Y0236053D02*
X0165583Y0236053D01*
X0166381Y0236852D02*
X0211692Y0236852D01*
X0212490Y0237650D02*
X0167180Y0237650D01*
X0164434Y0240844D02*
X0149124Y0240844D01*
X0148326Y0240046D02*
X0163636Y0240046D01*
X0162837Y0239247D02*
X0147527Y0239247D01*
X0146729Y0238449D02*
X0162039Y0238449D01*
X0161240Y0237650D02*
X0145930Y0237650D01*
X0145131Y0236852D02*
X0160442Y0236852D01*
X0159643Y0236053D02*
X0144333Y0236053D01*
X0143534Y0235255D02*
X0158845Y0235255D01*
X0158046Y0234456D02*
X0142736Y0234456D01*
X0142410Y0234130D02*
X0208680Y0300400D01*
X0222430Y0300400D01*
X0223660Y0301630D01*
X0227430Y0305400D01*
X0260240Y0305400D01*
X0205940Y0251100D01*
X0204594Y0251100D01*
X0203271Y0250552D01*
X0202258Y0249539D01*
X0201710Y0248216D01*
X0201710Y0246784D01*
X0202258Y0245461D01*
X0203271Y0244448D01*
X0204594Y0243900D01*
X0206026Y0243900D01*
X0207349Y0244448D01*
X0208362Y0245461D01*
X0208910Y0246784D01*
X0208910Y0248130D01*
X0215710Y0254930D01*
X0216008Y0254211D01*
X0217021Y0253198D01*
X0217740Y0252900D01*
X0212190Y0247350D01*
X0210844Y0247350D01*
X0209521Y0246802D01*
X0208508Y0245789D01*
X0207960Y0244466D01*
X0207960Y0243034D01*
X0208347Y0242100D01*
X0165690Y0242100D01*
X0127410Y0203820D01*
X0127112Y0204539D01*
X0126099Y0205552D01*
X0124776Y0206100D01*
X0123344Y0206100D01*
X0122021Y0205552D01*
X0121560Y0205091D01*
X0121099Y0205552D01*
X0119776Y0206100D01*
X0118344Y0206100D01*
X0117021Y0205552D01*
X0116008Y0204539D01*
X0115460Y0203216D01*
X0115460Y0201870D01*
X0112810Y0199220D01*
X0105160Y0206870D01*
X0105160Y0208216D01*
X0104612Y0209539D01*
X0103599Y0210552D01*
X0102276Y0211100D01*
X0100844Y0211100D01*
X0099521Y0210552D01*
X0098508Y0209539D01*
X0097960Y0208216D01*
X0097960Y0206784D01*
X0098508Y0205461D01*
X0099521Y0204448D01*
X0100844Y0203900D01*
X0102190Y0203900D01*
X0110710Y0195380D01*
X0111490Y0194600D01*
X0104551Y0194600D01*
X0103599Y0195552D01*
X0102276Y0196100D01*
X0100930Y0196100D01*
X0082410Y0214620D01*
X0082410Y0257430D01*
X0090460Y0249380D01*
X0090460Y0248034D01*
X0091008Y0246711D01*
X0092021Y0245698D01*
X0093344Y0245150D01*
X0094776Y0245150D01*
X0096099Y0245698D01*
X0097112Y0246711D01*
X0097660Y0248034D01*
X0097660Y0249466D01*
X0097179Y0250628D01*
X0097349Y0250698D01*
X0098362Y0251711D01*
X0098910Y0253034D01*
X0098910Y0254380D01*
X0099930Y0255400D01*
X0111069Y0255400D01*
X0111469Y0255000D01*
X0111008Y0254539D01*
X0110460Y0253216D01*
X0110460Y0251784D01*
X0111008Y0250461D01*
X0112021Y0249448D01*
X0113344Y0248900D01*
X0114776Y0248900D01*
X0116099Y0249448D01*
X0117112Y0250461D01*
X0117660Y0251784D01*
X0117660Y0253130D01*
X0123430Y0258900D01*
X0124776Y0258900D01*
X0126099Y0259448D01*
X0127112Y0260461D01*
X0127660Y0261784D01*
X0127660Y0263216D01*
X0127112Y0264539D01*
X0126099Y0265552D01*
X0124776Y0266100D01*
X0123344Y0266100D01*
X0122021Y0265552D01*
X0121160Y0264691D01*
X0121160Y0279130D01*
X0121180Y0279150D01*
X0137097Y0279150D01*
X0136710Y0278216D01*
X0136710Y0276870D01*
X0135710Y0275870D01*
X0135710Y0241741D01*
X0134758Y0240789D01*
X0134210Y0239466D01*
X0134210Y0238034D01*
X0134597Y0237100D01*
X0130801Y0237100D01*
X0129849Y0238052D01*
X0128526Y0238600D01*
X0127094Y0238600D01*
X0125771Y0238052D01*
X0124758Y0237039D01*
X0124210Y0235716D01*
X0124210Y0234284D01*
X0124758Y0232961D01*
X0125771Y0231948D01*
X0127094Y0231400D01*
X0128526Y0231400D01*
X0129849Y0231948D01*
X0130801Y0232900D01*
X0141180Y0232900D01*
X0142410Y0234130D01*
X0141937Y0233658D02*
X0157248Y0233658D01*
X0156449Y0232859D02*
X0130760Y0232859D01*
X0129962Y0232061D02*
X0155651Y0232061D01*
X0154852Y0231262D02*
X0082410Y0231262D01*
X0082410Y0230464D02*
X0154054Y0230464D01*
X0153255Y0229665D02*
X0082410Y0229665D01*
X0082410Y0228867D02*
X0152457Y0228867D01*
X0151658Y0228068D02*
X0082410Y0228068D01*
X0082410Y0227270D02*
X0150860Y0227270D01*
X0150061Y0226471D02*
X0082410Y0226471D01*
X0082410Y0225672D02*
X0149263Y0225672D01*
X0148464Y0224874D02*
X0082410Y0224874D01*
X0082410Y0224075D02*
X0147666Y0224075D01*
X0146867Y0223277D02*
X0082410Y0223277D01*
X0082410Y0222478D02*
X0146069Y0222478D01*
X0145270Y0221680D02*
X0082410Y0221680D01*
X0082410Y0220881D02*
X0144472Y0220881D01*
X0143673Y0220083D02*
X0082410Y0220083D01*
X0082410Y0219284D02*
X0142875Y0219284D01*
X0142076Y0218486D02*
X0082410Y0218486D01*
X0082410Y0217687D02*
X0141278Y0217687D01*
X0140479Y0216889D02*
X0082410Y0216889D01*
X0082410Y0216090D02*
X0139681Y0216090D01*
X0138882Y0215292D02*
X0082410Y0215292D01*
X0082536Y0214493D02*
X0138083Y0214493D01*
X0137285Y0213695D02*
X0083335Y0213695D01*
X0084134Y0212896D02*
X0136486Y0212896D01*
X0135688Y0212098D02*
X0084932Y0212098D01*
X0085731Y0211299D02*
X0134889Y0211299D01*
X0134091Y0210501D02*
X0103650Y0210501D01*
X0104449Y0209702D02*
X0133292Y0209702D01*
X0132494Y0208904D02*
X0104875Y0208904D01*
X0105160Y0208105D02*
X0131695Y0208105D01*
X0130897Y0207307D02*
X0105160Y0207307D01*
X0105522Y0206508D02*
X0130098Y0206508D01*
X0129300Y0205710D02*
X0125718Y0205710D01*
X0126740Y0204911D02*
X0128501Y0204911D01*
X0127703Y0204113D02*
X0127289Y0204113D01*
X0130448Y0200919D02*
X0157009Y0200919D01*
X0157807Y0201717D02*
X0131247Y0201717D01*
X0132045Y0202516D02*
X0158606Y0202516D01*
X0159404Y0203314D02*
X0132844Y0203314D01*
X0133643Y0204113D02*
X0160203Y0204113D01*
X0161001Y0204911D02*
X0134441Y0204911D01*
X0135240Y0205710D02*
X0161800Y0205710D01*
X0162598Y0206508D02*
X0136038Y0206508D01*
X0136837Y0207307D02*
X0163397Y0207307D01*
X0164195Y0208105D02*
X0137635Y0208105D01*
X0138434Y0208904D02*
X0164994Y0208904D01*
X0165792Y0209702D02*
X0139232Y0209702D01*
X0140031Y0210501D02*
X0166591Y0210501D01*
X0167389Y0211299D02*
X0140829Y0211299D01*
X0141628Y0212098D02*
X0168188Y0212098D01*
X0168986Y0212896D02*
X0142426Y0212896D01*
X0143225Y0213695D02*
X0169785Y0213695D01*
X0170583Y0214493D02*
X0144023Y0214493D01*
X0144822Y0215292D02*
X0171382Y0215292D01*
X0172181Y0216090D02*
X0145620Y0216090D01*
X0146419Y0216889D02*
X0172979Y0216889D01*
X0173778Y0217687D02*
X0147217Y0217687D01*
X0148016Y0218486D02*
X0174576Y0218486D01*
X0175375Y0219284D02*
X0148814Y0219284D01*
X0149613Y0220083D02*
X0176173Y0220083D01*
X0176972Y0220881D02*
X0150411Y0220881D01*
X0141410Y0239070D02*
X0141410Y0239466D01*
X0140862Y0240789D01*
X0139910Y0241741D01*
X0139910Y0273900D01*
X0141026Y0273900D01*
X0142349Y0274448D01*
X0143362Y0275461D01*
X0143910Y0276784D01*
X0143910Y0278216D01*
X0143523Y0279150D01*
X0149930Y0279150D01*
X0151160Y0280380D01*
X0269060Y0398280D01*
X0279440Y0387900D01*
X0317430Y0387900D01*
X0318660Y0389130D01*
X0338680Y0409150D01*
X0348940Y0409150D01*
X0294895Y0355105D01*
X0294612Y0355789D01*
X0293599Y0356802D01*
X0292276Y0357350D01*
X0290844Y0357350D01*
X0289521Y0356802D01*
X0288819Y0356100D01*
X0279341Y0356100D01*
X0278553Y0358002D01*
X0277062Y0359493D01*
X0276563Y0359700D01*
X0278114Y0359700D01*
X0280062Y0360507D01*
X0281553Y0361998D01*
X0282060Y0363221D01*
X0282567Y0361998D01*
X0284058Y0360507D01*
X0286006Y0359700D01*
X0288114Y0359700D01*
X0290062Y0360507D01*
X0291553Y0361998D01*
X0292060Y0363221D01*
X0292567Y0361998D01*
X0294058Y0360507D01*
X0296006Y0359700D01*
X0298114Y0359700D01*
X0300062Y0360507D01*
X0301553Y0361998D01*
X0302360Y0363946D01*
X0302360Y0366054D01*
X0301553Y0368002D01*
X0300062Y0369493D01*
X0298114Y0370300D01*
X0296006Y0370300D01*
X0294058Y0369493D01*
X0292567Y0368002D01*
X0292060Y0366778D01*
X0291553Y0368002D01*
X0290062Y0369493D01*
X0288114Y0370300D01*
X0286006Y0370300D01*
X0284058Y0369493D01*
X0282567Y0368002D01*
X0282060Y0366778D01*
X0281553Y0368002D01*
X0280062Y0369493D01*
X0278114Y0370300D01*
X0276006Y0370300D01*
X0274058Y0369493D01*
X0272567Y0368002D01*
X0272060Y0366778D01*
X0271553Y0368002D01*
X0270062Y0369493D01*
X0268114Y0370300D01*
X0266006Y0370300D01*
X0264058Y0369493D01*
X0262567Y0368002D01*
X0262060Y0366778D01*
X0261553Y0368002D01*
X0260062Y0369493D01*
X0258114Y0370300D01*
X0256006Y0370300D01*
X0254058Y0369493D01*
X0252567Y0368002D01*
X0251939Y0366487D01*
X0251786Y0366958D01*
X0251422Y0367673D01*
X0250950Y0368322D01*
X0250382Y0368890D01*
X0249733Y0369362D01*
X0249018Y0369726D01*
X0248254Y0369974D01*
X0247461Y0370100D01*
X0247460Y0370100D01*
X0247460Y0365400D01*
X0246660Y0365400D01*
X0246660Y0370100D01*
X0246659Y0370100D01*
X0245866Y0369974D01*
X0245102Y0369726D01*
X0244387Y0369362D01*
X0243738Y0368890D01*
X0243170Y0368322D01*
X0242698Y0367673D01*
X0242334Y0366958D01*
X0242086Y0366194D01*
X0241960Y0365401D01*
X0241960Y0365400D01*
X0246660Y0365400D01*
X0246660Y0364600D01*
X0241960Y0364600D01*
X0241960Y0364598D01*
X0242086Y0363806D01*
X0242334Y0363042D01*
X0242698Y0362327D01*
X0243170Y0361677D01*
X0243738Y0361110D01*
X0244387Y0360638D01*
X0245102Y0360273D01*
X0245866Y0360025D01*
X0246659Y0359900D01*
X0246660Y0359900D01*
X0246660Y0364600D01*
X0247460Y0364600D01*
X0247460Y0359900D01*
X0247461Y0359900D01*
X0248254Y0360025D01*
X0249018Y0360273D01*
X0249733Y0360638D01*
X0250382Y0361110D01*
X0250950Y0361677D01*
X0251422Y0362327D01*
X0251786Y0363042D01*
X0251939Y0363513D01*
X0252567Y0361998D01*
X0254058Y0360507D01*
X0256006Y0359700D01*
X0258114Y0359700D01*
X0260062Y0360507D01*
X0261553Y0361998D01*
X0262060Y0363221D01*
X0262567Y0361998D01*
X0264058Y0360507D01*
X0264557Y0360300D01*
X0263006Y0360300D01*
X0261058Y0359493D01*
X0259567Y0358002D01*
X0258760Y0356054D01*
X0258760Y0355770D01*
X0254910Y0359620D01*
X0253680Y0360850D01*
X0251940Y0360850D01*
X0168440Y0277350D01*
X0167094Y0277350D01*
X0165771Y0276802D01*
X0164758Y0275789D01*
X0164210Y0274466D01*
X0164210Y0273034D01*
X0164758Y0271711D01*
X0165771Y0270698D01*
X0167094Y0270150D01*
X0168526Y0270150D01*
X0169849Y0270698D01*
X0170862Y0271711D01*
X0171410Y0273034D01*
X0171410Y0274380D01*
X0201710Y0304680D01*
X0201710Y0304284D01*
X0202258Y0302961D01*
X0203271Y0301948D01*
X0203990Y0301650D01*
X0141410Y0239070D01*
X0141410Y0239247D02*
X0141587Y0239247D01*
X0141170Y0240046D02*
X0142386Y0240046D01*
X0143184Y0240844D02*
X0140807Y0240844D01*
X0140008Y0241643D02*
X0143983Y0241643D01*
X0144781Y0242441D02*
X0139910Y0242441D01*
X0139910Y0243240D02*
X0145580Y0243240D01*
X0146378Y0244038D02*
X0139910Y0244038D01*
X0139910Y0244837D02*
X0147177Y0244837D01*
X0147975Y0245635D02*
X0139910Y0245635D01*
X0139910Y0246434D02*
X0148774Y0246434D01*
X0149572Y0247232D02*
X0139910Y0247232D01*
X0139910Y0248031D02*
X0150371Y0248031D01*
X0151169Y0248829D02*
X0139910Y0248829D01*
X0139910Y0249628D02*
X0151968Y0249628D01*
X0152766Y0250426D02*
X0139910Y0250426D01*
X0139910Y0251225D02*
X0153565Y0251225D01*
X0154364Y0252023D02*
X0139910Y0252023D01*
X0139910Y0252822D02*
X0155162Y0252822D01*
X0155961Y0253620D02*
X0139910Y0253620D01*
X0139910Y0254419D02*
X0156759Y0254419D01*
X0157558Y0255217D02*
X0139910Y0255217D01*
X0139910Y0256016D02*
X0158356Y0256016D01*
X0159155Y0256814D02*
X0139910Y0256814D01*
X0139910Y0257613D02*
X0159953Y0257613D01*
X0160752Y0258411D02*
X0139910Y0258411D01*
X0139910Y0259210D02*
X0161550Y0259210D01*
X0162349Y0260008D02*
X0139910Y0260008D01*
X0139910Y0260807D02*
X0163147Y0260807D01*
X0163946Y0261605D02*
X0139910Y0261605D01*
X0139910Y0262404D02*
X0164744Y0262404D01*
X0165543Y0263203D02*
X0139910Y0263203D01*
X0139910Y0264001D02*
X0166341Y0264001D01*
X0167140Y0264800D02*
X0139910Y0264800D01*
X0139910Y0265598D02*
X0167938Y0265598D01*
X0168737Y0266397D02*
X0139910Y0266397D01*
X0139910Y0267195D02*
X0169535Y0267195D01*
X0170334Y0267994D02*
X0139910Y0267994D01*
X0139910Y0268792D02*
X0171132Y0268792D01*
X0171931Y0269591D02*
X0139910Y0269591D01*
X0139910Y0270389D02*
X0166517Y0270389D01*
X0165281Y0271188D02*
X0139910Y0271188D01*
X0139910Y0271986D02*
X0164644Y0271986D01*
X0164313Y0272785D02*
X0139910Y0272785D01*
X0139910Y0273583D02*
X0164210Y0273583D01*
X0164210Y0274382D02*
X0142189Y0274382D01*
X0143081Y0275180D02*
X0164506Y0275180D01*
X0164948Y0275979D02*
X0143576Y0275979D01*
X0143907Y0276777D02*
X0165746Y0276777D01*
X0168666Y0277576D02*
X0143910Y0277576D01*
X0143844Y0278374D02*
X0169464Y0278374D01*
X0170263Y0279173D02*
X0149953Y0279173D01*
X0150751Y0279971D02*
X0171061Y0279971D01*
X0171860Y0280770D02*
X0151550Y0280770D01*
X0152348Y0281568D02*
X0172658Y0281568D01*
X0173457Y0282367D02*
X0153147Y0282367D01*
X0153945Y0283165D02*
X0174255Y0283165D01*
X0175054Y0283964D02*
X0154744Y0283964D01*
X0155542Y0284762D02*
X0175852Y0284762D01*
X0176651Y0285561D02*
X0156341Y0285561D01*
X0157139Y0286359D02*
X0177449Y0286359D01*
X0178248Y0287158D02*
X0157938Y0287158D01*
X0158736Y0287956D02*
X0179047Y0287956D01*
X0179845Y0288755D02*
X0159535Y0288755D01*
X0160333Y0289553D02*
X0180644Y0289553D01*
X0181442Y0290352D02*
X0161132Y0290352D01*
X0161930Y0291150D02*
X0182241Y0291150D01*
X0183039Y0291949D02*
X0162729Y0291949D01*
X0163527Y0292747D02*
X0183838Y0292747D01*
X0184636Y0293546D02*
X0164326Y0293546D01*
X0165124Y0294344D02*
X0185435Y0294344D01*
X0186233Y0295143D02*
X0165923Y0295143D01*
X0166721Y0295941D02*
X0187032Y0295941D01*
X0187830Y0296740D02*
X0167520Y0296740D01*
X0168318Y0297539D02*
X0188629Y0297539D01*
X0189427Y0298337D02*
X0169117Y0298337D01*
X0169915Y0299136D02*
X0190226Y0299136D01*
X0191024Y0299934D02*
X0170714Y0299934D01*
X0171512Y0300733D02*
X0191823Y0300733D01*
X0192621Y0301531D02*
X0172311Y0301531D01*
X0173109Y0302330D02*
X0193420Y0302330D01*
X0194218Y0303128D02*
X0173908Y0303128D01*
X0174706Y0303927D02*
X0195017Y0303927D01*
X0195815Y0304725D02*
X0175505Y0304725D01*
X0176303Y0305524D02*
X0196614Y0305524D01*
X0197412Y0306322D02*
X0177102Y0306322D01*
X0177900Y0307121D02*
X0198211Y0307121D01*
X0199009Y0307919D02*
X0178699Y0307919D01*
X0179498Y0308718D02*
X0199808Y0308718D01*
X0200606Y0309516D02*
X0180296Y0309516D01*
X0181095Y0310315D02*
X0201405Y0310315D01*
X0202203Y0311113D02*
X0181893Y0311113D01*
X0182692Y0311912D02*
X0203002Y0311912D01*
X0203800Y0312710D02*
X0183490Y0312710D01*
X0184289Y0313509D02*
X0204599Y0313509D01*
X0205397Y0314307D02*
X0185087Y0314307D01*
X0185886Y0315106D02*
X0206196Y0315106D01*
X0206994Y0315904D02*
X0186684Y0315904D01*
X0187483Y0316703D02*
X0207793Y0316703D01*
X0208591Y0317501D02*
X0188281Y0317501D01*
X0189080Y0318300D02*
X0209390Y0318300D01*
X0210188Y0319098D02*
X0189878Y0319098D01*
X0190677Y0319897D02*
X0210987Y0319897D01*
X0211785Y0320695D02*
X0191475Y0320695D01*
X0192274Y0321494D02*
X0212584Y0321494D01*
X0213383Y0322292D02*
X0193072Y0322292D01*
X0193871Y0323091D02*
X0214181Y0323091D01*
X0214980Y0323889D02*
X0194669Y0323889D01*
X0195468Y0324688D02*
X0215778Y0324688D01*
X0216577Y0325486D02*
X0196266Y0325486D01*
X0197065Y0326285D02*
X0217375Y0326285D01*
X0218174Y0327083D02*
X0197863Y0327083D01*
X0198662Y0327882D02*
X0218972Y0327882D01*
X0219771Y0328680D02*
X0199460Y0328680D01*
X0200259Y0329479D02*
X0220569Y0329479D01*
X0221368Y0330277D02*
X0201057Y0330277D01*
X0201856Y0331076D02*
X0222166Y0331076D01*
X0222965Y0331874D02*
X0202654Y0331874D01*
X0203453Y0332673D02*
X0223763Y0332673D01*
X0224562Y0333472D02*
X0204251Y0333472D01*
X0205050Y0334270D02*
X0225360Y0334270D01*
X0226159Y0335069D02*
X0205848Y0335069D01*
X0206647Y0335867D02*
X0226957Y0335867D01*
X0227756Y0336666D02*
X0207445Y0336666D01*
X0208244Y0337464D02*
X0228554Y0337464D01*
X0229353Y0338263D02*
X0209042Y0338263D01*
X0209841Y0339061D02*
X0230151Y0339061D01*
X0230950Y0339860D02*
X0210639Y0339860D01*
X0211438Y0340658D02*
X0231748Y0340658D01*
X0232547Y0341457D02*
X0212236Y0341457D01*
X0213035Y0342255D02*
X0233345Y0342255D01*
X0234144Y0343054D02*
X0213833Y0343054D01*
X0214632Y0343852D02*
X0234942Y0343852D01*
X0235741Y0344651D02*
X0215431Y0344651D01*
X0216229Y0345449D02*
X0236539Y0345449D01*
X0237338Y0346248D02*
X0217028Y0346248D01*
X0217826Y0347046D02*
X0238136Y0347046D01*
X0238935Y0347845D02*
X0218625Y0347845D01*
X0219423Y0348643D02*
X0239733Y0348643D01*
X0240532Y0349442D02*
X0220222Y0349442D01*
X0221020Y0350240D02*
X0241330Y0350240D01*
X0242129Y0351039D02*
X0221819Y0351039D01*
X0222617Y0351837D02*
X0242927Y0351837D01*
X0243726Y0352636D02*
X0223416Y0352636D01*
X0224214Y0353434D02*
X0244524Y0353434D01*
X0245323Y0354233D02*
X0225013Y0354233D01*
X0225811Y0355031D02*
X0246121Y0355031D01*
X0246920Y0355830D02*
X0226610Y0355830D01*
X0227408Y0356628D02*
X0247718Y0356628D01*
X0248517Y0357427D02*
X0228207Y0357427D01*
X0229005Y0358225D02*
X0249316Y0358225D01*
X0250114Y0359024D02*
X0229804Y0359024D01*
X0230602Y0359822D02*
X0250913Y0359822D01*
X0251711Y0360621D02*
X0249700Y0360621D01*
X0250692Y0361419D02*
X0253145Y0361419D01*
X0252476Y0362218D02*
X0251343Y0362218D01*
X0251773Y0363016D02*
X0252145Y0363016D01*
X0253909Y0360621D02*
X0253944Y0360621D01*
X0254707Y0359822D02*
X0255710Y0359822D01*
X0255506Y0359024D02*
X0260589Y0359024D01*
X0259790Y0358225D02*
X0256304Y0358225D01*
X0257103Y0357427D02*
X0259329Y0357427D01*
X0258998Y0356628D02*
X0257901Y0356628D01*
X0258700Y0355830D02*
X0258760Y0355830D01*
X0258410Y0359822D02*
X0261853Y0359822D01*
X0260975Y0361419D02*
X0263145Y0361419D01*
X0262476Y0362218D02*
X0261644Y0362218D01*
X0261975Y0363016D02*
X0262145Y0363016D01*
X0263944Y0360621D02*
X0260176Y0360621D01*
X0261964Y0367009D02*
X0262156Y0367009D01*
X0262486Y0367808D02*
X0261634Y0367808D01*
X0260949Y0368606D02*
X0263171Y0368606D01*
X0263969Y0369405D02*
X0260151Y0369405D01*
X0258348Y0370203D02*
X0265772Y0370203D01*
X0268348Y0370203D02*
X0275772Y0370203D01*
X0273969Y0369405D02*
X0270151Y0369405D01*
X0270949Y0368606D02*
X0273171Y0368606D01*
X0272486Y0367808D02*
X0271634Y0367808D01*
X0271964Y0367009D02*
X0272156Y0367009D01*
X0278348Y0370203D02*
X0285772Y0370203D01*
X0283969Y0369405D02*
X0280151Y0369405D01*
X0280949Y0368606D02*
X0283171Y0368606D01*
X0282486Y0367808D02*
X0281634Y0367808D01*
X0281964Y0367009D02*
X0282156Y0367009D01*
X0282145Y0363016D02*
X0281975Y0363016D01*
X0281644Y0362218D02*
X0282476Y0362218D01*
X0283145Y0361419D02*
X0280975Y0361419D01*
X0280176Y0360621D02*
X0283944Y0360621D01*
X0285710Y0359822D02*
X0278410Y0359822D01*
X0277531Y0359024D02*
X0298814Y0359024D01*
X0298410Y0359822D02*
X0299612Y0359822D01*
X0300176Y0360621D02*
X0300411Y0360621D01*
X0300975Y0361419D02*
X0301209Y0361419D01*
X0301644Y0362218D02*
X0302008Y0362218D01*
X0301975Y0363016D02*
X0302806Y0363016D01*
X0302306Y0363815D02*
X0303605Y0363815D01*
X0304403Y0364613D02*
X0302360Y0364613D01*
X0302360Y0365412D02*
X0305202Y0365412D01*
X0306000Y0366210D02*
X0302295Y0366210D01*
X0301964Y0367009D02*
X0306799Y0367009D01*
X0307597Y0367808D02*
X0301634Y0367808D01*
X0300949Y0368606D02*
X0308396Y0368606D01*
X0309194Y0369405D02*
X0300151Y0369405D01*
X0298348Y0370203D02*
X0309993Y0370203D01*
X0310791Y0371002D02*
X0241781Y0371002D01*
X0242580Y0371800D02*
X0311590Y0371800D01*
X0312388Y0372599D02*
X0243378Y0372599D01*
X0244177Y0373397D02*
X0313187Y0373397D01*
X0313986Y0374196D02*
X0244975Y0374196D01*
X0245774Y0374994D02*
X0314784Y0374994D01*
X0315583Y0375793D02*
X0246572Y0375793D01*
X0247371Y0376591D02*
X0316381Y0376591D01*
X0317180Y0377390D02*
X0248169Y0377390D01*
X0248968Y0378188D02*
X0317978Y0378188D01*
X0318777Y0378987D02*
X0249766Y0378987D01*
X0250565Y0379785D02*
X0319575Y0379785D01*
X0320374Y0380584D02*
X0272123Y0380584D01*
X0273082Y0380981D02*
X0275079Y0382978D01*
X0276160Y0385588D01*
X0276160Y0388412D01*
X0275079Y0391022D01*
X0273082Y0393019D01*
X0270472Y0394100D01*
X0267648Y0394100D01*
X0265038Y0393019D01*
X0263041Y0391022D01*
X0261960Y0388412D01*
X0261960Y0385588D01*
X0263041Y0382978D01*
X0265038Y0380981D01*
X0267648Y0379900D01*
X0270472Y0379900D01*
X0273082Y0380981D01*
X0273483Y0381382D02*
X0321172Y0381382D01*
X0321971Y0382181D02*
X0274282Y0382181D01*
X0275080Y0382979D02*
X0322769Y0382979D01*
X0323568Y0383778D02*
X0275410Y0383778D01*
X0275741Y0384576D02*
X0324366Y0384576D01*
X0325165Y0385375D02*
X0276072Y0385375D01*
X0276160Y0386173D02*
X0325963Y0386173D01*
X0326762Y0386972D02*
X0276160Y0386972D01*
X0276160Y0387770D02*
X0327560Y0387770D01*
X0328359Y0388569D02*
X0318099Y0388569D01*
X0318897Y0389367D02*
X0329157Y0389367D01*
X0329956Y0390166D02*
X0319696Y0390166D01*
X0320494Y0390964D02*
X0330754Y0390964D01*
X0331553Y0391763D02*
X0321293Y0391763D01*
X0322091Y0392561D02*
X0332351Y0392561D01*
X0333150Y0393360D02*
X0322890Y0393360D01*
X0323688Y0394158D02*
X0333948Y0394158D01*
X0334747Y0394957D02*
X0324487Y0394957D01*
X0325285Y0395755D02*
X0335545Y0395755D01*
X0336344Y0396554D02*
X0326084Y0396554D01*
X0326882Y0397352D02*
X0337142Y0397352D01*
X0337941Y0398151D02*
X0327681Y0398151D01*
X0328479Y0398949D02*
X0338739Y0398949D01*
X0339538Y0399748D02*
X0329278Y0399748D01*
X0330076Y0400546D02*
X0340336Y0400546D01*
X0341135Y0401345D02*
X0330875Y0401345D01*
X0331673Y0402143D02*
X0341933Y0402143D01*
X0342732Y0402942D02*
X0332472Y0402942D01*
X0333270Y0403741D02*
X0343530Y0403741D01*
X0344329Y0404539D02*
X0334069Y0404539D01*
X0334867Y0405338D02*
X0345127Y0405338D01*
X0345926Y0406136D02*
X0335666Y0406136D01*
X0336464Y0406935D02*
X0346724Y0406935D01*
X0347523Y0407733D02*
X0337263Y0407733D01*
X0338061Y0408532D02*
X0348322Y0408532D01*
X0364910Y0408532D02*
X0381960Y0408532D01*
X0381960Y0409330D02*
X0364910Y0409330D01*
X0364910Y0410129D02*
X0381960Y0410129D01*
X0381960Y0410927D02*
X0364910Y0410927D01*
X0364910Y0411726D02*
X0381960Y0411726D01*
X0381960Y0412524D02*
X0364910Y0412524D01*
X0364910Y0413323D02*
X0381960Y0413323D01*
X0381960Y0414121D02*
X0364910Y0414121D01*
X0364910Y0414920D02*
X0381960Y0414920D01*
X0381960Y0415718D02*
X0364910Y0415718D01*
X0364910Y0416517D02*
X0381960Y0416517D01*
X0381960Y0417315D02*
X0373242Y0417315D01*
X0375435Y0418114D02*
X0381960Y0418114D01*
X0381960Y0418912D02*
X0376866Y0418912D01*
X0376282Y0418422D02*
X0376282Y0418422D01*
X0377818Y0419711D02*
X0381960Y0419711D01*
X0381960Y0420509D02*
X0378770Y0420509D01*
X0378794Y0420530D02*
X0378794Y0420530D01*
X0378794Y0420530D01*
X0379243Y0421308D02*
X0381960Y0421308D01*
X0381960Y0422106D02*
X0379704Y0422106D01*
X0380165Y0422905D02*
X0381960Y0422905D01*
X0381960Y0423703D02*
X0380493Y0423703D01*
X0380633Y0424502D02*
X0381960Y0424502D01*
X0381960Y0425300D02*
X0380774Y0425300D01*
X0380915Y0426099D02*
X0381960Y0426099D01*
X0381960Y0426897D02*
X0380951Y0426897D01*
X0381003Y0426600D02*
X0381003Y0426600D01*
X0380810Y0427696D02*
X0381960Y0427696D01*
X0381960Y0428494D02*
X0380669Y0428494D01*
X0380529Y0429293D02*
X0381960Y0429293D01*
X0381953Y0430091D02*
X0380283Y0430091D01*
X0380434Y0429830D02*
X0380434Y0429830D01*
X0379822Y0430890D02*
X0381890Y0430890D01*
X0381716Y0431688D02*
X0379361Y0431688D01*
X0378900Y0432487D02*
X0381456Y0432487D01*
X0381197Y0433285D02*
X0378061Y0433285D01*
X0377109Y0434084D02*
X0380738Y0434084D01*
X0380157Y0434882D02*
X0375995Y0434882D01*
X0373802Y0435681D02*
X0379516Y0435681D01*
X0378417Y0436479D02*
X0361800Y0436479D01*
X0362599Y0435681D02*
X0369318Y0435681D01*
X0367125Y0434882D02*
X0363397Y0434882D01*
X0364196Y0434084D02*
X0366011Y0434084D01*
X0366838Y0434778D02*
X0366838Y0434778D01*
X0365059Y0433285D02*
X0364994Y0433285D01*
X0361002Y0437278D02*
X0376911Y0437278D01*
X0365302Y0419711D02*
X0364910Y0419711D01*
X0364910Y0418912D02*
X0366254Y0418912D01*
X0364910Y0418114D02*
X0367684Y0418114D01*
X0369878Y0417315D02*
X0364910Y0417315D01*
X0364910Y0407733D02*
X0381960Y0407733D01*
X0381960Y0406935D02*
X0364910Y0406935D01*
X0364910Y0406136D02*
X0381960Y0406136D01*
X0381960Y0405338D02*
X0364910Y0405338D01*
X0364910Y0404539D02*
X0381960Y0404539D01*
X0381960Y0403741D02*
X0364910Y0403741D01*
X0364910Y0402942D02*
X0381960Y0402942D01*
X0381960Y0402143D02*
X0364910Y0402143D01*
X0364910Y0401345D02*
X0381960Y0401345D01*
X0381960Y0400546D02*
X0364910Y0400546D01*
X0364910Y0399748D02*
X0381960Y0399748D01*
X0381960Y0398949D02*
X0364910Y0398949D01*
X0364910Y0398151D02*
X0381960Y0398151D01*
X0381960Y0397352D02*
X0364910Y0397352D01*
X0364910Y0396554D02*
X0381960Y0396554D01*
X0381960Y0395755D02*
X0364910Y0395755D01*
X0364910Y0394957D02*
X0381960Y0394957D01*
X0381960Y0394158D02*
X0364910Y0394158D01*
X0364910Y0393360D02*
X0381960Y0393360D01*
X0381960Y0392561D02*
X0364910Y0392561D01*
X0364910Y0391763D02*
X0381960Y0391763D01*
X0381960Y0390964D02*
X0364910Y0390964D01*
X0364910Y0390166D02*
X0381960Y0390166D01*
X0381960Y0389367D02*
X0364910Y0389367D01*
X0364910Y0388569D02*
X0381960Y0388569D01*
X0381960Y0387770D02*
X0364910Y0387770D01*
X0364910Y0386972D02*
X0381960Y0386972D01*
X0381960Y0386173D02*
X0364910Y0386173D01*
X0364910Y0385375D02*
X0381960Y0385375D01*
X0381960Y0384576D02*
X0364910Y0384576D01*
X0364910Y0383778D02*
X0381960Y0383778D01*
X0381960Y0382979D02*
X0364910Y0382979D01*
X0364910Y0382181D02*
X0381960Y0382181D01*
X0381960Y0381382D02*
X0364910Y0381382D01*
X0364910Y0380584D02*
X0381960Y0380584D01*
X0381960Y0379785D02*
X0364910Y0379785D01*
X0364910Y0378987D02*
X0381960Y0378987D01*
X0381960Y0378188D02*
X0364910Y0378188D01*
X0364910Y0377390D02*
X0381960Y0377390D01*
X0381960Y0376591D02*
X0364910Y0376591D01*
X0364910Y0375793D02*
X0381960Y0375793D01*
X0381960Y0374994D02*
X0364910Y0374994D01*
X0364910Y0374196D02*
X0381960Y0374196D01*
X0381960Y0373397D02*
X0364910Y0373397D01*
X0364910Y0372599D02*
X0381960Y0372599D01*
X0381960Y0371800D02*
X0364910Y0371800D01*
X0364910Y0371002D02*
X0381960Y0371002D01*
X0381960Y0370203D02*
X0364910Y0370203D01*
X0364910Y0369405D02*
X0381960Y0369405D01*
X0381960Y0368606D02*
X0364910Y0368606D01*
X0364910Y0367808D02*
X0381960Y0367808D01*
X0381960Y0367009D02*
X0364910Y0367009D01*
X0364910Y0366210D02*
X0381960Y0366210D01*
X0381960Y0365412D02*
X0364910Y0365412D01*
X0364910Y0364613D02*
X0381960Y0364613D01*
X0381960Y0363815D02*
X0364910Y0363815D01*
X0364910Y0363016D02*
X0381960Y0363016D01*
X0381960Y0362218D02*
X0364910Y0362218D01*
X0364910Y0361419D02*
X0381960Y0361419D01*
X0381960Y0360621D02*
X0364910Y0360621D01*
X0364910Y0359822D02*
X0381960Y0359822D01*
X0381960Y0359024D02*
X0364910Y0359024D01*
X0364910Y0358225D02*
X0381960Y0358225D01*
X0381960Y0357427D02*
X0364910Y0357427D01*
X0364910Y0356628D02*
X0381960Y0356628D01*
X0381960Y0355830D02*
X0364910Y0355830D01*
X0364910Y0355031D02*
X0381960Y0355031D01*
X0381960Y0354233D02*
X0364910Y0354233D01*
X0364910Y0353434D02*
X0381960Y0353434D01*
X0381960Y0352636D02*
X0364910Y0352636D01*
X0364910Y0351837D02*
X0381960Y0351837D01*
X0381960Y0351039D02*
X0364910Y0351039D01*
X0364910Y0350240D02*
X0381960Y0350240D01*
X0381960Y0349442D02*
X0364910Y0349442D01*
X0364910Y0348643D02*
X0381960Y0348643D01*
X0381960Y0347845D02*
X0364910Y0347845D01*
X0364910Y0347046D02*
X0381960Y0347046D01*
X0381960Y0346248D02*
X0364910Y0346248D01*
X0364910Y0345449D02*
X0381960Y0345449D01*
X0381960Y0344651D02*
X0364910Y0344651D01*
X0364910Y0343852D02*
X0381960Y0343852D01*
X0381960Y0343054D02*
X0364910Y0343054D01*
X0364910Y0342255D02*
X0381960Y0342255D01*
X0381960Y0341457D02*
X0364910Y0341457D01*
X0364910Y0340658D02*
X0381960Y0340658D01*
X0381960Y0339860D02*
X0364910Y0339860D01*
X0364910Y0339061D02*
X0381960Y0339061D01*
X0381960Y0338263D02*
X0364910Y0338263D01*
X0364910Y0337464D02*
X0381960Y0337464D01*
X0381960Y0336666D02*
X0364910Y0336666D01*
X0364910Y0335867D02*
X0381960Y0335867D01*
X0381960Y0335069D02*
X0364910Y0335069D01*
X0364910Y0334270D02*
X0381960Y0334270D01*
X0381960Y0333472D02*
X0364910Y0333472D01*
X0364910Y0332673D02*
X0381960Y0332673D01*
X0381960Y0331874D02*
X0364910Y0331874D01*
X0364910Y0331076D02*
X0381960Y0331076D01*
X0381960Y0330277D02*
X0364910Y0330277D01*
X0364910Y0329479D02*
X0381960Y0329479D01*
X0381960Y0328680D02*
X0364910Y0328680D01*
X0364910Y0327882D02*
X0381960Y0327882D01*
X0381960Y0327083D02*
X0364910Y0327083D01*
X0364910Y0326285D02*
X0381960Y0326285D01*
X0381960Y0325486D02*
X0364910Y0325486D01*
X0364910Y0324688D02*
X0381960Y0324688D01*
X0381960Y0323889D02*
X0364910Y0323889D01*
X0364910Y0323091D02*
X0381960Y0323091D01*
X0381960Y0322292D02*
X0364910Y0322292D01*
X0364774Y0321494D02*
X0381960Y0321494D01*
X0381960Y0320695D02*
X0363975Y0320695D01*
X0363680Y0320400D02*
X0363680Y0320400D01*
X0363177Y0319897D02*
X0381960Y0319897D01*
X0381960Y0319098D02*
X0362378Y0319098D01*
X0361580Y0318300D02*
X0381960Y0318300D01*
X0381960Y0317501D02*
X0360781Y0317501D01*
X0359983Y0316703D02*
X0381960Y0316703D01*
X0381960Y0315904D02*
X0359184Y0315904D01*
X0358386Y0315106D02*
X0381960Y0315106D01*
X0381960Y0314307D02*
X0357587Y0314307D01*
X0356789Y0313509D02*
X0381960Y0313509D01*
X0381960Y0312710D02*
X0355990Y0312710D01*
X0355192Y0311912D02*
X0381960Y0311912D01*
X0381960Y0311113D02*
X0354393Y0311113D01*
X0353595Y0310315D02*
X0381960Y0310315D01*
X0381960Y0309516D02*
X0352796Y0309516D01*
X0351997Y0308718D02*
X0381960Y0308718D01*
X0381960Y0307919D02*
X0351199Y0307919D01*
X0350400Y0307121D02*
X0381960Y0307121D01*
X0381960Y0306322D02*
X0349602Y0306322D01*
X0348803Y0305524D02*
X0381960Y0305524D01*
X0381960Y0304725D02*
X0348005Y0304725D01*
X0347206Y0303927D02*
X0381960Y0303927D01*
X0381960Y0303128D02*
X0346408Y0303128D01*
X0345609Y0302330D02*
X0381960Y0302330D01*
X0381960Y0301531D02*
X0344811Y0301531D01*
X0344012Y0300733D02*
X0381960Y0300733D01*
X0381960Y0299934D02*
X0343214Y0299934D01*
X0342415Y0299136D02*
X0381960Y0299136D01*
X0381960Y0298337D02*
X0341617Y0298337D01*
X0340818Y0297539D02*
X0381960Y0297539D01*
X0381960Y0296740D02*
X0340020Y0296740D01*
X0339221Y0295941D02*
X0381960Y0295941D01*
X0381960Y0295143D02*
X0338423Y0295143D01*
X0337624Y0294344D02*
X0381960Y0294344D01*
X0381960Y0293546D02*
X0336826Y0293546D01*
X0336027Y0292747D02*
X0381960Y0292747D01*
X0381960Y0291949D02*
X0335229Y0291949D01*
X0334430Y0291150D02*
X0381960Y0291150D01*
X0381960Y0290352D02*
X0333632Y0290352D01*
X0332833Y0289553D02*
X0381960Y0289553D01*
X0381960Y0288755D02*
X0332035Y0288755D01*
X0331236Y0287956D02*
X0381960Y0287956D01*
X0381960Y0287158D02*
X0330438Y0287158D01*
X0329639Y0286359D02*
X0381960Y0286359D01*
X0381960Y0285561D02*
X0328841Y0285561D01*
X0328042Y0284762D02*
X0381960Y0284762D01*
X0381960Y0283964D02*
X0327244Y0283964D01*
X0326445Y0283165D02*
X0381960Y0283165D01*
X0381960Y0282367D02*
X0325647Y0282367D01*
X0324848Y0281568D02*
X0381960Y0281568D01*
X0381960Y0280770D02*
X0324050Y0280770D01*
X0323251Y0279971D02*
X0381960Y0279971D01*
X0381960Y0279173D02*
X0322453Y0279173D01*
X0321654Y0278374D02*
X0381960Y0278374D01*
X0381960Y0277576D02*
X0320856Y0277576D01*
X0320057Y0276777D02*
X0381960Y0276777D01*
X0381960Y0275979D02*
X0319259Y0275979D01*
X0318460Y0275180D02*
X0381960Y0275180D01*
X0381960Y0274382D02*
X0317662Y0274382D01*
X0316863Y0273583D02*
X0381960Y0273583D01*
X0381960Y0272785D02*
X0316064Y0272785D01*
X0315266Y0271986D02*
X0381960Y0271986D01*
X0381960Y0271188D02*
X0314467Y0271188D01*
X0313669Y0270389D02*
X0381960Y0270389D01*
X0381960Y0269591D02*
X0312870Y0269591D01*
X0312072Y0268792D02*
X0381960Y0268792D01*
X0381960Y0267994D02*
X0311273Y0267994D01*
X0310475Y0267195D02*
X0381960Y0267195D01*
X0381960Y0266397D02*
X0309676Y0266397D01*
X0308878Y0265598D02*
X0381960Y0265598D01*
X0381960Y0264800D02*
X0308079Y0264800D01*
X0307281Y0264001D02*
X0381960Y0264001D01*
X0381960Y0263203D02*
X0306482Y0263203D01*
X0305684Y0262404D02*
X0381960Y0262404D01*
X0381960Y0261605D02*
X0304885Y0261605D01*
X0304087Y0260807D02*
X0381960Y0260807D01*
X0381960Y0260008D02*
X0303288Y0260008D01*
X0302490Y0259210D02*
X0381960Y0259210D01*
X0381960Y0258411D02*
X0301691Y0258411D01*
X0300893Y0257613D02*
X0381960Y0257613D01*
X0381960Y0256814D02*
X0300094Y0256814D01*
X0299296Y0256016D02*
X0381960Y0256016D01*
X0381960Y0255217D02*
X0298497Y0255217D01*
X0297699Y0254419D02*
X0381960Y0254419D01*
X0381960Y0253620D02*
X0296900Y0253620D01*
X0296102Y0252822D02*
X0361791Y0252822D01*
X0361001Y0252023D02*
X0295303Y0252023D01*
X0294505Y0251225D02*
X0360671Y0251225D01*
X0360460Y0250426D02*
X0293706Y0250426D01*
X0292908Y0249628D02*
X0360011Y0249628D01*
X0359212Y0248829D02*
X0292109Y0248829D01*
X0291311Y0248031D02*
X0358414Y0248031D01*
X0357615Y0247232D02*
X0290512Y0247232D01*
X0289714Y0246434D02*
X0356817Y0246434D01*
X0356018Y0245635D02*
X0288915Y0245635D01*
X0288117Y0244837D02*
X0355220Y0244837D01*
X0354421Y0244038D02*
X0287318Y0244038D01*
X0286520Y0243240D02*
X0353623Y0243240D01*
X0352824Y0242441D02*
X0285721Y0242441D01*
X0284923Y0241643D02*
X0352026Y0241643D01*
X0351227Y0240844D02*
X0289144Y0240844D01*
X0290355Y0240046D02*
X0350429Y0240046D01*
X0349630Y0239247D02*
X0290983Y0239247D01*
X0286476Y0240844D02*
X0284124Y0240844D01*
X0283326Y0240046D02*
X0285265Y0240046D01*
X0284637Y0239247D02*
X0282527Y0239247D01*
X0281728Y0238449D02*
X0284306Y0238449D01*
X0284210Y0237650D02*
X0280930Y0237650D01*
X0280131Y0236852D02*
X0284192Y0236852D01*
X0283393Y0236053D02*
X0279333Y0236053D01*
X0278534Y0235255D02*
X0282595Y0235255D01*
X0281796Y0234456D02*
X0277736Y0234456D01*
X0276937Y0233658D02*
X0280998Y0233658D01*
X0280199Y0232859D02*
X0276139Y0232859D01*
X0275340Y0232061D02*
X0279401Y0232061D01*
X0278602Y0231262D02*
X0274542Y0231262D01*
X0273743Y0230464D02*
X0277804Y0230464D01*
X0277005Y0229665D02*
X0272945Y0229665D01*
X0272146Y0228867D02*
X0276207Y0228867D01*
X0275408Y0228068D02*
X0271348Y0228068D01*
X0270549Y0227270D02*
X0274610Y0227270D01*
X0273811Y0226471D02*
X0269751Y0226471D01*
X0268952Y0225672D02*
X0273013Y0225672D01*
X0272214Y0224874D02*
X0268154Y0224874D01*
X0267355Y0224075D02*
X0271416Y0224075D01*
X0270617Y0223277D02*
X0266557Y0223277D01*
X0265758Y0222478D02*
X0269819Y0222478D01*
X0269020Y0221680D02*
X0264960Y0221680D01*
X0264161Y0220881D02*
X0268222Y0220881D01*
X0265481Y0220083D02*
X0263363Y0220083D01*
X0263849Y0219284D02*
X0262564Y0219284D01*
X0263050Y0218486D02*
X0261766Y0218486D01*
X0261684Y0217687D02*
X0262436Y0217687D01*
X0262106Y0216889D02*
X0262014Y0216889D01*
X0261925Y0212896D02*
X0262195Y0212896D01*
X0261938Y0212098D02*
X0261594Y0212098D01*
X0261139Y0211299D02*
X0260854Y0211299D01*
X0260341Y0210501D02*
X0260047Y0210501D01*
X0259542Y0209702D02*
X0258119Y0209702D01*
X0258744Y0208904D02*
X0195810Y0208904D01*
X0195951Y0209702D02*
X0246001Y0209702D01*
X0244073Y0210501D02*
X0195915Y0210501D01*
X0195774Y0211299D02*
X0243266Y0211299D01*
X0242526Y0212098D02*
X0195634Y0212098D01*
X0195493Y0212896D02*
X0242195Y0212896D01*
X0241864Y0213695D02*
X0195166Y0213695D01*
X0194705Y0214493D02*
X0241760Y0214493D01*
X0241760Y0215292D02*
X0194244Y0215292D01*
X0193794Y0216070D02*
X0193794Y0216070D01*
X0193770Y0216090D02*
X0241775Y0216090D01*
X0242106Y0216889D02*
X0192819Y0216889D01*
X0191867Y0217687D02*
X0242436Y0217687D01*
X0243050Y0218486D02*
X0190437Y0218486D01*
X0195529Y0207307D02*
X0257147Y0207307D01*
X0257945Y0208105D02*
X0195669Y0208105D01*
X0195283Y0206508D02*
X0256348Y0206508D01*
X0255550Y0205710D02*
X0194822Y0205710D01*
X0194361Y0204911D02*
X0254751Y0204911D01*
X0253953Y0204113D02*
X0193900Y0204113D01*
X0193794Y0203930D02*
X0193794Y0203930D01*
X0193060Y0203314D02*
X0253154Y0203314D01*
X0252356Y0202516D02*
X0192109Y0202516D01*
X0191282Y0201822D02*
X0191282Y0201822D01*
X0190994Y0201717D02*
X0251557Y0201717D01*
X0250759Y0200919D02*
X0188800Y0200919D01*
X0200064Y0219284D02*
X0243849Y0219284D01*
X0245481Y0220083D02*
X0200863Y0220083D01*
X0201661Y0220881D02*
X0248222Y0220881D01*
X0249020Y0221680D02*
X0202460Y0221680D01*
X0203258Y0222478D02*
X0249819Y0222478D01*
X0250617Y0223277D02*
X0204057Y0223277D01*
X0204855Y0224075D02*
X0251416Y0224075D01*
X0252214Y0224874D02*
X0205654Y0224874D01*
X0206452Y0225672D02*
X0253013Y0225672D01*
X0253811Y0226471D02*
X0207251Y0226471D01*
X0208049Y0227270D02*
X0254610Y0227270D01*
X0255408Y0228068D02*
X0208848Y0228068D01*
X0209646Y0228867D02*
X0256207Y0228867D01*
X0257005Y0229665D02*
X0210445Y0229665D01*
X0211243Y0230464D02*
X0257804Y0230464D01*
X0258602Y0231262D02*
X0212042Y0231262D01*
X0212840Y0232061D02*
X0259401Y0232061D01*
X0260199Y0232859D02*
X0213639Y0232859D01*
X0214437Y0233658D02*
X0260998Y0233658D01*
X0261796Y0234456D02*
X0215236Y0234456D01*
X0216034Y0235255D02*
X0262595Y0235255D01*
X0263393Y0236053D02*
X0216833Y0236053D01*
X0217631Y0236852D02*
X0264192Y0236852D01*
X0264990Y0237650D02*
X0218430Y0237650D01*
X0219229Y0238449D02*
X0265789Y0238449D01*
X0266587Y0239247D02*
X0220027Y0239247D01*
X0220826Y0240046D02*
X0267386Y0240046D01*
X0268184Y0240844D02*
X0221624Y0240844D01*
X0222423Y0241643D02*
X0268983Y0241643D01*
X0269781Y0242441D02*
X0223221Y0242441D01*
X0224020Y0243240D02*
X0270580Y0243240D01*
X0271378Y0244038D02*
X0224818Y0244038D01*
X0225617Y0244837D02*
X0272177Y0244837D01*
X0272975Y0245635D02*
X0226415Y0245635D01*
X0227214Y0246434D02*
X0273774Y0246434D01*
X0274572Y0247232D02*
X0228012Y0247232D01*
X0228811Y0248031D02*
X0275371Y0248031D01*
X0276169Y0248829D02*
X0229609Y0248829D01*
X0230408Y0249628D02*
X0276968Y0249628D01*
X0277766Y0250426D02*
X0231206Y0250426D01*
X0232005Y0251225D02*
X0278565Y0251225D01*
X0279364Y0252023D02*
X0232803Y0252023D01*
X0233602Y0252822D02*
X0280162Y0252822D01*
X0280961Y0253620D02*
X0234400Y0253620D01*
X0235199Y0254419D02*
X0281759Y0254419D01*
X0282558Y0255217D02*
X0235997Y0255217D01*
X0236796Y0256016D02*
X0283356Y0256016D01*
X0284155Y0256814D02*
X0237594Y0256814D01*
X0238393Y0257613D02*
X0284953Y0257613D01*
X0285752Y0258411D02*
X0239191Y0258411D01*
X0239990Y0259210D02*
X0286550Y0259210D01*
X0287349Y0260008D02*
X0240788Y0260008D01*
X0241587Y0260807D02*
X0288147Y0260807D01*
X0288946Y0261605D02*
X0242385Y0261605D01*
X0243184Y0262404D02*
X0289744Y0262404D01*
X0290543Y0263203D02*
X0243982Y0263203D01*
X0244781Y0264001D02*
X0291341Y0264001D01*
X0292140Y0264800D02*
X0245579Y0264800D01*
X0246378Y0265598D02*
X0292938Y0265598D01*
X0293737Y0266397D02*
X0247176Y0266397D01*
X0247975Y0267195D02*
X0294535Y0267195D01*
X0295334Y0267994D02*
X0248773Y0267994D01*
X0249572Y0268792D02*
X0296132Y0268792D01*
X0296931Y0269591D02*
X0250370Y0269591D01*
X0251169Y0270389D02*
X0297729Y0270389D01*
X0298528Y0271188D02*
X0251967Y0271188D01*
X0252766Y0271986D02*
X0299326Y0271986D01*
X0300125Y0272785D02*
X0253564Y0272785D01*
X0254363Y0273583D02*
X0300923Y0273583D01*
X0301722Y0274382D02*
X0255162Y0274382D01*
X0255960Y0275180D02*
X0302520Y0275180D01*
X0303319Y0275979D02*
X0256759Y0275979D01*
X0257557Y0276777D02*
X0304117Y0276777D01*
X0304916Y0277576D02*
X0258356Y0277576D01*
X0259154Y0278374D02*
X0305714Y0278374D01*
X0306513Y0279173D02*
X0259953Y0279173D01*
X0260751Y0279971D02*
X0307311Y0279971D01*
X0308110Y0280770D02*
X0261550Y0280770D01*
X0262348Y0281568D02*
X0308908Y0281568D01*
X0309707Y0282367D02*
X0263147Y0282367D01*
X0263945Y0283165D02*
X0310505Y0283165D01*
X0311304Y0283964D02*
X0264744Y0283964D01*
X0265542Y0284762D02*
X0312102Y0284762D01*
X0312901Y0285561D02*
X0266341Y0285561D01*
X0267139Y0286359D02*
X0313700Y0286359D01*
X0314498Y0287158D02*
X0267938Y0287158D01*
X0268736Y0287956D02*
X0315297Y0287956D01*
X0316095Y0288755D02*
X0269535Y0288755D01*
X0270333Y0289553D02*
X0316894Y0289553D01*
X0317692Y0290352D02*
X0271132Y0290352D01*
X0271930Y0291150D02*
X0317960Y0291150D01*
X0317960Y0291949D02*
X0272729Y0291949D01*
X0273527Y0292747D02*
X0318284Y0292747D01*
X0318765Y0293546D02*
X0274326Y0293546D01*
X0275124Y0294344D02*
X0319623Y0294344D01*
X0323497Y0294344D02*
X0331685Y0294344D01*
X0330886Y0293546D02*
X0324355Y0293546D01*
X0324836Y0292747D02*
X0330088Y0292747D01*
X0329289Y0291949D02*
X0325160Y0291949D01*
X0325160Y0291150D02*
X0328491Y0291150D01*
X0327692Y0290352D02*
X0325085Y0290352D01*
X0324754Y0289553D02*
X0326894Y0289553D01*
X0326095Y0288755D02*
X0324156Y0288755D01*
X0323016Y0287956D02*
X0325297Y0287956D01*
X0324498Y0287158D02*
X0320438Y0287158D01*
X0319639Y0286359D02*
X0323700Y0286359D01*
X0322901Y0285561D02*
X0318841Y0285561D01*
X0318042Y0284762D02*
X0322102Y0284762D01*
X0321304Y0283964D02*
X0317244Y0283964D01*
X0316445Y0283165D02*
X0320505Y0283165D01*
X0319707Y0282367D02*
X0315647Y0282367D01*
X0314848Y0281568D02*
X0318908Y0281568D01*
X0318110Y0280770D02*
X0314050Y0280770D01*
X0313251Y0279971D02*
X0317311Y0279971D01*
X0316513Y0279173D02*
X0312453Y0279173D01*
X0311654Y0278374D02*
X0315714Y0278374D01*
X0314916Y0277576D02*
X0310856Y0277576D01*
X0310057Y0276777D02*
X0314117Y0276777D01*
X0313319Y0275979D02*
X0309259Y0275979D01*
X0308460Y0275180D02*
X0312520Y0275180D01*
X0311722Y0274382D02*
X0307662Y0274382D01*
X0306863Y0273583D02*
X0310923Y0273583D01*
X0310125Y0272785D02*
X0306064Y0272785D01*
X0305266Y0271986D02*
X0309326Y0271986D01*
X0308528Y0271188D02*
X0304467Y0271188D01*
X0303669Y0270389D02*
X0307729Y0270389D01*
X0306931Y0269591D02*
X0302870Y0269591D01*
X0302072Y0268792D02*
X0306132Y0268792D01*
X0305334Y0267994D02*
X0301273Y0267994D01*
X0300475Y0267195D02*
X0304535Y0267195D01*
X0303737Y0266397D02*
X0299676Y0266397D01*
X0298878Y0265598D02*
X0302938Y0265598D01*
X0302140Y0264800D02*
X0298079Y0264800D01*
X0297281Y0264001D02*
X0301341Y0264001D01*
X0300543Y0263203D02*
X0296482Y0263203D01*
X0295684Y0262404D02*
X0299744Y0262404D01*
X0298946Y0261605D02*
X0294885Y0261605D01*
X0294087Y0260807D02*
X0298147Y0260807D01*
X0297349Y0260008D02*
X0293288Y0260008D01*
X0292490Y0259210D02*
X0296550Y0259210D01*
X0295752Y0258411D02*
X0291691Y0258411D01*
X0290893Y0257613D02*
X0294953Y0257613D01*
X0294155Y0256814D02*
X0290094Y0256814D01*
X0289296Y0256016D02*
X0293356Y0256016D01*
X0292558Y0255217D02*
X0288497Y0255217D01*
X0287699Y0254419D02*
X0291759Y0254419D01*
X0290961Y0253620D02*
X0286900Y0253620D01*
X0286102Y0252822D02*
X0290162Y0252822D01*
X0289364Y0252023D02*
X0285303Y0252023D01*
X0284505Y0251225D02*
X0288565Y0251225D01*
X0287766Y0250426D02*
X0283706Y0250426D01*
X0282908Y0249628D02*
X0286968Y0249628D01*
X0286169Y0248829D02*
X0282109Y0248829D01*
X0281311Y0248031D02*
X0285371Y0248031D01*
X0284572Y0247232D02*
X0280512Y0247232D01*
X0279714Y0246434D02*
X0283774Y0246434D01*
X0282975Y0245635D02*
X0278915Y0245635D01*
X0278117Y0244837D02*
X0282177Y0244837D01*
X0281378Y0244038D02*
X0277318Y0244038D01*
X0276520Y0243240D02*
X0280580Y0243240D01*
X0279781Y0242441D02*
X0275721Y0242441D01*
X0274923Y0241643D02*
X0278983Y0241643D01*
X0278184Y0240844D02*
X0274124Y0240844D01*
X0273326Y0240046D02*
X0277386Y0240046D01*
X0276587Y0239247D02*
X0272527Y0239247D01*
X0271728Y0238449D02*
X0275789Y0238449D01*
X0274990Y0237650D02*
X0270930Y0237650D01*
X0270131Y0236852D02*
X0274192Y0236852D01*
X0273393Y0236053D02*
X0269333Y0236053D01*
X0268534Y0235255D02*
X0272595Y0235255D01*
X0271796Y0234456D02*
X0267736Y0234456D01*
X0266937Y0233658D02*
X0270998Y0233658D01*
X0270199Y0232859D02*
X0266139Y0232859D01*
X0265340Y0232061D02*
X0269401Y0232061D01*
X0268602Y0231262D02*
X0264542Y0231262D01*
X0263743Y0230464D02*
X0267804Y0230464D01*
X0267005Y0229665D02*
X0262945Y0229665D01*
X0262146Y0228867D02*
X0266207Y0228867D01*
X0265408Y0228068D02*
X0261348Y0228068D01*
X0260549Y0227270D02*
X0264610Y0227270D01*
X0263811Y0226471D02*
X0259751Y0226471D01*
X0258952Y0225672D02*
X0263013Y0225672D01*
X0262214Y0224874D02*
X0258154Y0224874D01*
X0257355Y0224075D02*
X0261416Y0224075D01*
X0260617Y0223277D02*
X0256557Y0223277D01*
X0255758Y0222478D02*
X0259819Y0222478D01*
X0259020Y0221680D02*
X0254960Y0221680D01*
X0254161Y0220881D02*
X0258222Y0220881D01*
X0255481Y0220083D02*
X0253363Y0220083D01*
X0253849Y0219284D02*
X0252564Y0219284D01*
X0253050Y0218486D02*
X0251766Y0218486D01*
X0251684Y0217687D02*
X0252436Y0217687D01*
X0252106Y0216889D02*
X0252014Y0216889D01*
X0251925Y0212896D02*
X0252195Y0212896D01*
X0252526Y0212098D02*
X0251594Y0212098D01*
X0250854Y0211299D02*
X0253266Y0211299D01*
X0254073Y0210501D02*
X0250047Y0210501D01*
X0248119Y0209702D02*
X0256001Y0209702D01*
X0246386Y0186545D02*
X0148575Y0186545D01*
X0147777Y0185747D02*
X0245587Y0185747D01*
X0244789Y0184948D02*
X0146978Y0184948D01*
X0146180Y0184150D02*
X0241869Y0184150D01*
X0241070Y0183351D02*
X0145381Y0183351D01*
X0144583Y0182553D02*
X0240703Y0182553D01*
X0240460Y0181754D02*
X0143784Y0181754D01*
X0142986Y0180956D02*
X0240460Y0180956D01*
X0240616Y0180157D02*
X0140559Y0180157D01*
X0139634Y0179359D02*
X0240947Y0179359D01*
X0241658Y0178560D02*
X0076160Y0178560D01*
X0076160Y0177762D02*
X0243074Y0177762D01*
X0265155Y0147418D02*
X0381960Y0147418D01*
X0381960Y0146620D02*
X0264357Y0146620D01*
X0263558Y0145821D02*
X0381960Y0145821D01*
X0381960Y0145023D02*
X0262760Y0145023D01*
X0261961Y0144224D02*
X0381960Y0144224D01*
X0381960Y0143426D02*
X0261163Y0143426D01*
X0260364Y0142627D02*
X0381960Y0142627D01*
X0381960Y0141829D02*
X0259566Y0141829D01*
X0258767Y0141030D02*
X0381960Y0141030D01*
X0381960Y0140232D02*
X0257969Y0140232D01*
X0257170Y0139433D02*
X0381960Y0139433D01*
X0381960Y0138635D02*
X0256372Y0138635D01*
X0255573Y0137836D02*
X0381960Y0137836D01*
X0381960Y0137038D02*
X0254775Y0137038D01*
X0253976Y0136239D02*
X0381960Y0136239D01*
X0381960Y0135441D02*
X0253178Y0135441D01*
X0252379Y0134642D02*
X0381960Y0134642D01*
X0381960Y0133844D02*
X0251581Y0133844D01*
X0250782Y0133045D02*
X0381960Y0133045D01*
X0381960Y0132247D02*
X0249984Y0132247D01*
X0249185Y0131448D02*
X0381960Y0131448D01*
X0381960Y0130650D02*
X0248387Y0130650D01*
X0247588Y0129851D02*
X0381960Y0129851D01*
X0381960Y0129053D02*
X0246790Y0129053D01*
X0245991Y0128254D02*
X0381960Y0128254D01*
X0381960Y0127456D02*
X0245193Y0127456D01*
X0244394Y0126657D02*
X0381960Y0126657D01*
X0381960Y0125859D02*
X0243596Y0125859D01*
X0242797Y0125060D02*
X0381960Y0125060D01*
X0381960Y0124262D02*
X0241998Y0124262D01*
X0241200Y0123463D02*
X0381960Y0123463D01*
X0381960Y0122665D02*
X0240401Y0122665D01*
X0239911Y0121866D02*
X0381960Y0121866D01*
X0381960Y0121068D02*
X0239580Y0121068D01*
X0239020Y0120269D02*
X0381960Y0120269D01*
X0381960Y0119470D02*
X0237970Y0119470D01*
X0265954Y0148217D02*
X0381960Y0148217D01*
X0381960Y0149015D02*
X0266752Y0149015D01*
X0267551Y0149814D02*
X0381960Y0149814D01*
X0381960Y0150612D02*
X0268349Y0150612D01*
X0269148Y0151411D02*
X0381960Y0151411D01*
X0381960Y0152209D02*
X0269946Y0152209D01*
X0270745Y0153008D02*
X0381960Y0153008D01*
X0381960Y0153806D02*
X0271543Y0153806D01*
X0272342Y0154605D02*
X0381960Y0154605D01*
X0381960Y0155403D02*
X0273140Y0155403D01*
X0273939Y0156202D02*
X0381960Y0156202D01*
X0381960Y0157001D02*
X0274737Y0157001D01*
X0275536Y0157799D02*
X0381960Y0157799D01*
X0381960Y0158598D02*
X0276334Y0158598D01*
X0277133Y0159396D02*
X0381960Y0159396D01*
X0381960Y0160195D02*
X0277931Y0160195D01*
X0278730Y0160993D02*
X0381960Y0160993D01*
X0381960Y0161792D02*
X0279529Y0161792D01*
X0280327Y0162590D02*
X0381960Y0162590D01*
X0381960Y0163389D02*
X0281126Y0163389D01*
X0281924Y0164187D02*
X0381960Y0164187D01*
X0381960Y0164986D02*
X0282723Y0164986D01*
X0283521Y0165784D02*
X0381960Y0165784D01*
X0381960Y0166583D02*
X0284320Y0166583D01*
X0285118Y0167381D02*
X0381960Y0167381D01*
X0381960Y0168180D02*
X0285917Y0168180D01*
X0286715Y0168978D02*
X0381960Y0168978D01*
X0381960Y0169777D02*
X0287514Y0169777D01*
X0288312Y0170575D02*
X0381960Y0170575D01*
X0381960Y0171374D02*
X0289111Y0171374D01*
X0289909Y0172172D02*
X0381960Y0172172D01*
X0381960Y0172971D02*
X0290708Y0172971D01*
X0291506Y0173769D02*
X0381960Y0173769D01*
X0381960Y0174568D02*
X0292305Y0174568D01*
X0293103Y0175366D02*
X0381960Y0175366D01*
X0381960Y0176165D02*
X0293902Y0176165D01*
X0294700Y0176963D02*
X0381960Y0176963D01*
X0381960Y0177762D02*
X0295499Y0177762D01*
X0296297Y0178560D02*
X0381960Y0178560D01*
X0381960Y0179359D02*
X0297096Y0179359D01*
X0297894Y0180157D02*
X0381960Y0180157D01*
X0381960Y0180956D02*
X0298693Y0180956D01*
X0299491Y0181754D02*
X0381960Y0181754D01*
X0381960Y0182553D02*
X0300290Y0182553D01*
X0301088Y0183351D02*
X0381960Y0183351D01*
X0381960Y0184150D02*
X0301887Y0184150D01*
X0302685Y0184948D02*
X0381960Y0184948D01*
X0381960Y0185747D02*
X0303484Y0185747D01*
X0304282Y0186545D02*
X0381960Y0186545D01*
X0381960Y0187344D02*
X0305081Y0187344D01*
X0305879Y0188142D02*
X0381960Y0188142D01*
X0381960Y0188941D02*
X0306678Y0188941D01*
X0307476Y0189739D02*
X0381960Y0189739D01*
X0381960Y0190538D02*
X0308275Y0190538D01*
X0309073Y0191337D02*
X0381960Y0191337D01*
X0381960Y0192135D02*
X0309872Y0192135D01*
X0310670Y0192934D02*
X0381960Y0192934D01*
X0381960Y0193732D02*
X0311469Y0193732D01*
X0312267Y0194531D02*
X0381960Y0194531D01*
X0381960Y0195329D02*
X0313066Y0195329D01*
X0313865Y0196128D02*
X0381960Y0196128D01*
X0381960Y0196926D02*
X0314663Y0196926D01*
X0315462Y0197725D02*
X0381960Y0197725D01*
X0381960Y0198523D02*
X0316260Y0198523D01*
X0317059Y0199322D02*
X0381960Y0199322D01*
X0381960Y0200120D02*
X0317857Y0200120D01*
X0318656Y0200919D02*
X0349320Y0200919D01*
X0349920Y0200700D02*
X0352388Y0200700D01*
X0353200Y0200700D01*
X0356282Y0201822D01*
X0358794Y0203930D01*
X0360434Y0206770D01*
X0360434Y0206770D01*
X0361003Y0210000D01*
X0361003Y0210000D01*
X0360434Y0213230D01*
X0358794Y0216070D01*
X0358794Y0216070D01*
X0356282Y0218178D01*
X0353200Y0219300D01*
X0349920Y0219300D01*
X0346838Y0218178D01*
X0344326Y0216070D01*
X0342686Y0213230D01*
X0342686Y0213230D01*
X0342116Y0210000D01*
X0342686Y0206770D01*
X0344326Y0203930D01*
X0346838Y0201822D01*
X0349920Y0200700D01*
X0347126Y0201717D02*
X0319454Y0201717D01*
X0320253Y0202516D02*
X0346011Y0202516D01*
X0346838Y0201822D02*
X0346838Y0201822D01*
X0345060Y0203314D02*
X0321051Y0203314D01*
X0321850Y0204113D02*
X0344220Y0204113D01*
X0344326Y0203930D02*
X0344326Y0203930D01*
X0343759Y0204911D02*
X0322648Y0204911D01*
X0323447Y0205710D02*
X0343298Y0205710D01*
X0342837Y0206508D02*
X0324245Y0206508D01*
X0325044Y0207307D02*
X0342591Y0207307D01*
X0342686Y0206770D02*
X0342686Y0206770D01*
X0342451Y0208105D02*
X0325842Y0208105D01*
X0326641Y0208904D02*
X0342310Y0208904D01*
X0342169Y0209702D02*
X0327439Y0209702D01*
X0328238Y0210501D02*
X0342205Y0210501D01*
X0342116Y0210000D02*
X0342116Y0210000D01*
X0342346Y0211299D02*
X0329036Y0211299D01*
X0329835Y0212098D02*
X0342486Y0212098D01*
X0342627Y0212896D02*
X0330633Y0212896D01*
X0331432Y0213695D02*
X0342954Y0213695D01*
X0343415Y0214493D02*
X0332230Y0214493D01*
X0333029Y0215292D02*
X0343876Y0215292D01*
X0344326Y0216070D02*
X0344326Y0216070D01*
X0344326Y0216070D01*
X0344350Y0216090D02*
X0333827Y0216090D01*
X0334626Y0216889D02*
X0345301Y0216889D01*
X0346253Y0217687D02*
X0335424Y0217687D01*
X0336223Y0218486D02*
X0347683Y0218486D01*
X0346838Y0218178D02*
X0346838Y0218178D01*
X0349877Y0219284D02*
X0337021Y0219284D01*
X0337820Y0220083D02*
X0381960Y0220083D01*
X0381960Y0220881D02*
X0338618Y0220881D01*
X0339417Y0221680D02*
X0381960Y0221680D01*
X0381960Y0222478D02*
X0340215Y0222478D01*
X0341014Y0223277D02*
X0381960Y0223277D01*
X0381960Y0224075D02*
X0341812Y0224075D01*
X0342611Y0224874D02*
X0381960Y0224874D01*
X0381960Y0225672D02*
X0343409Y0225672D01*
X0344208Y0226471D02*
X0381960Y0226471D01*
X0381960Y0227270D02*
X0345006Y0227270D01*
X0345805Y0228068D02*
X0381960Y0228068D01*
X0381960Y0228867D02*
X0346603Y0228867D01*
X0347402Y0229665D02*
X0381960Y0229665D01*
X0381960Y0230464D02*
X0348200Y0230464D01*
X0348999Y0231262D02*
X0381960Y0231262D01*
X0381960Y0232061D02*
X0349798Y0232061D01*
X0350596Y0232859D02*
X0381960Y0232859D01*
X0381960Y0233658D02*
X0351395Y0233658D01*
X0352193Y0234456D02*
X0381960Y0234456D01*
X0381960Y0235255D02*
X0352992Y0235255D01*
X0353790Y0236053D02*
X0381960Y0236053D01*
X0381960Y0236852D02*
X0354589Y0236852D01*
X0355387Y0237650D02*
X0381960Y0237650D01*
X0381960Y0238449D02*
X0356186Y0238449D01*
X0356984Y0239247D02*
X0381960Y0239247D01*
X0381960Y0240046D02*
X0357783Y0240046D01*
X0358581Y0240844D02*
X0381960Y0240844D01*
X0381960Y0241643D02*
X0359380Y0241643D01*
X0360178Y0242441D02*
X0381960Y0242441D01*
X0381960Y0243240D02*
X0360977Y0243240D01*
X0361775Y0244038D02*
X0381960Y0244038D01*
X0381960Y0244837D02*
X0362574Y0244837D01*
X0363372Y0245635D02*
X0381960Y0245635D01*
X0381960Y0246434D02*
X0364858Y0246434D01*
X0366383Y0247232D02*
X0381960Y0247232D01*
X0381960Y0248031D02*
X0367141Y0248031D01*
X0367472Y0248829D02*
X0381960Y0248829D01*
X0381960Y0249628D02*
X0367660Y0249628D01*
X0367660Y0250426D02*
X0381960Y0250426D01*
X0381960Y0251225D02*
X0367449Y0251225D01*
X0367118Y0252023D02*
X0381960Y0252023D01*
X0381960Y0252822D02*
X0366329Y0252822D01*
X0353243Y0219284D02*
X0381960Y0219284D01*
X0381960Y0218486D02*
X0355437Y0218486D01*
X0356282Y0218178D02*
X0356282Y0218178D01*
X0356867Y0217687D02*
X0381960Y0217687D01*
X0381960Y0216889D02*
X0357818Y0216889D01*
X0358770Y0216090D02*
X0381960Y0216090D01*
X0381960Y0215292D02*
X0359243Y0215292D01*
X0359704Y0214493D02*
X0381960Y0214493D01*
X0381960Y0213695D02*
X0360165Y0213695D01*
X0360434Y0213230D02*
X0360434Y0213230D01*
X0360493Y0212896D02*
X0381960Y0212896D01*
X0381960Y0212098D02*
X0360633Y0212098D01*
X0360774Y0211299D02*
X0381960Y0211299D01*
X0381960Y0210501D02*
X0360915Y0210501D01*
X0360951Y0209702D02*
X0381960Y0209702D01*
X0381960Y0208904D02*
X0360810Y0208904D01*
X0360669Y0208105D02*
X0381960Y0208105D01*
X0381960Y0207307D02*
X0360528Y0207307D01*
X0360283Y0206508D02*
X0381960Y0206508D01*
X0381960Y0205710D02*
X0359822Y0205710D01*
X0359361Y0204911D02*
X0381960Y0204911D01*
X0381960Y0204113D02*
X0358899Y0204113D01*
X0358794Y0203930D02*
X0358794Y0203930D01*
X0358794Y0203930D01*
X0358060Y0203314D02*
X0381960Y0203314D01*
X0381960Y0202516D02*
X0357109Y0202516D01*
X0356282Y0201822D02*
X0356282Y0201822D01*
X0355994Y0201717D02*
X0381960Y0201717D01*
X0381960Y0200919D02*
X0353800Y0200919D01*
X0353200Y0200700D02*
X0353200Y0200700D01*
X0329667Y0219284D02*
X0299840Y0219284D01*
X0300787Y0218486D02*
X0328869Y0218486D01*
X0328070Y0217687D02*
X0301412Y0217687D01*
X0301809Y0216889D02*
X0327272Y0216889D01*
X0326473Y0216090D02*
X0302051Y0216090D01*
X0302143Y0214493D02*
X0324876Y0214493D01*
X0324078Y0213695D02*
X0301998Y0213695D01*
X0301712Y0212896D02*
X0323279Y0212896D01*
X0322481Y0212098D02*
X0301255Y0212098D01*
X0300572Y0211299D02*
X0321682Y0211299D01*
X0320884Y0210501D02*
X0299463Y0210501D01*
X0297460Y0210501D02*
X0296660Y0210501D01*
X0296660Y0211299D02*
X0297460Y0211299D01*
X0297460Y0212098D02*
X0296660Y0212098D01*
X0296660Y0212896D02*
X0297460Y0212896D01*
X0297460Y0213695D02*
X0296660Y0213695D01*
X0296660Y0214493D02*
X0297460Y0214493D01*
X0297460Y0215292D02*
X0325675Y0215292D01*
X0297460Y0216090D02*
X0296660Y0216090D01*
X0296660Y0216889D02*
X0297460Y0216889D01*
X0297460Y0217687D02*
X0296660Y0217687D01*
X0296660Y0218486D02*
X0297460Y0218486D01*
X0297460Y0219284D02*
X0296660Y0219284D01*
X0286001Y0209702D02*
X0278119Y0209702D01*
X0280047Y0210501D02*
X0284073Y0210501D01*
X0283266Y0211299D02*
X0280854Y0211299D01*
X0281594Y0212098D02*
X0282526Y0212098D01*
X0282195Y0212896D02*
X0281925Y0212896D01*
X0282014Y0216889D02*
X0282106Y0216889D01*
X0282436Y0217687D02*
X0281684Y0217687D01*
X0281766Y0218486D02*
X0283050Y0218486D01*
X0282564Y0219284D02*
X0283849Y0219284D01*
X0276001Y0209702D02*
X0275482Y0209702D01*
X0233214Y0278374D02*
X0186654Y0278374D01*
X0185856Y0277576D02*
X0232416Y0277576D01*
X0231617Y0276777D02*
X0185057Y0276777D01*
X0184259Y0275979D02*
X0230819Y0275979D01*
X0230020Y0275180D02*
X0183460Y0275180D01*
X0182662Y0274382D02*
X0229222Y0274382D01*
X0228423Y0273583D02*
X0181863Y0273583D01*
X0181064Y0272785D02*
X0227625Y0272785D01*
X0226826Y0271986D02*
X0180266Y0271986D01*
X0179467Y0271188D02*
X0226028Y0271188D01*
X0225229Y0270389D02*
X0178669Y0270389D01*
X0177870Y0269591D02*
X0224431Y0269591D01*
X0223632Y0268792D02*
X0177072Y0268792D01*
X0176273Y0267994D02*
X0222834Y0267994D01*
X0222035Y0267195D02*
X0175475Y0267195D01*
X0174676Y0266397D02*
X0221237Y0266397D01*
X0220438Y0265598D02*
X0173878Y0265598D01*
X0173079Y0264800D02*
X0219640Y0264800D01*
X0218841Y0264001D02*
X0172281Y0264001D01*
X0171482Y0263203D02*
X0218043Y0263203D01*
X0217244Y0262404D02*
X0170684Y0262404D01*
X0169885Y0261605D02*
X0216446Y0261605D01*
X0215647Y0260807D02*
X0169087Y0260807D01*
X0168288Y0260008D02*
X0214849Y0260008D01*
X0214050Y0259210D02*
X0167490Y0259210D01*
X0166691Y0258411D02*
X0213252Y0258411D01*
X0212453Y0257613D02*
X0165893Y0257613D01*
X0165094Y0256814D02*
X0211655Y0256814D01*
X0210856Y0256016D02*
X0164296Y0256016D01*
X0163497Y0255217D02*
X0210058Y0255217D01*
X0209259Y0254419D02*
X0162699Y0254419D01*
X0161900Y0253620D02*
X0208461Y0253620D01*
X0207662Y0252822D02*
X0161102Y0252822D01*
X0160303Y0252023D02*
X0206864Y0252023D01*
X0206065Y0251225D02*
X0159505Y0251225D01*
X0158706Y0250426D02*
X0203145Y0250426D01*
X0202347Y0249628D02*
X0157908Y0249628D01*
X0157109Y0248829D02*
X0201964Y0248829D01*
X0201710Y0248031D02*
X0156311Y0248031D01*
X0155512Y0247232D02*
X0201710Y0247232D01*
X0201855Y0246434D02*
X0154714Y0246434D01*
X0153915Y0245635D02*
X0202186Y0245635D01*
X0202882Y0244837D02*
X0153117Y0244837D01*
X0152318Y0244038D02*
X0204260Y0244038D01*
X0206360Y0244038D02*
X0207960Y0244038D01*
X0207960Y0243240D02*
X0151520Y0243240D01*
X0150721Y0242441D02*
X0208205Y0242441D01*
X0208114Y0244837D02*
X0207738Y0244837D01*
X0208434Y0245635D02*
X0208444Y0245635D01*
X0208765Y0246434D02*
X0209153Y0246434D01*
X0208910Y0247232D02*
X0210560Y0247232D01*
X0208910Y0248031D02*
X0212871Y0248031D01*
X0213669Y0248829D02*
X0209609Y0248829D01*
X0210408Y0249628D02*
X0214468Y0249628D01*
X0215266Y0250426D02*
X0211206Y0250426D01*
X0212005Y0251225D02*
X0216065Y0251225D01*
X0216864Y0252023D02*
X0212803Y0252023D01*
X0213602Y0252822D02*
X0217662Y0252822D01*
X0216598Y0253620D02*
X0214400Y0253620D01*
X0215199Y0254419D02*
X0215922Y0254419D01*
X0234013Y0279173D02*
X0187453Y0279173D01*
X0188251Y0279971D02*
X0234811Y0279971D01*
X0235610Y0280770D02*
X0189050Y0280770D01*
X0189848Y0281568D02*
X0236408Y0281568D01*
X0237207Y0282367D02*
X0190647Y0282367D01*
X0191445Y0283165D02*
X0238005Y0283165D01*
X0238804Y0283964D02*
X0192244Y0283964D01*
X0193042Y0284762D02*
X0239602Y0284762D01*
X0240401Y0285561D02*
X0193841Y0285561D01*
X0194639Y0286359D02*
X0241200Y0286359D01*
X0241998Y0287158D02*
X0195438Y0287158D01*
X0196236Y0287956D02*
X0242797Y0287956D01*
X0243595Y0288755D02*
X0197035Y0288755D01*
X0197833Y0289553D02*
X0244394Y0289553D01*
X0245192Y0290352D02*
X0198632Y0290352D01*
X0199430Y0291150D02*
X0245991Y0291150D01*
X0246789Y0291949D02*
X0200229Y0291949D01*
X0201027Y0292747D02*
X0247588Y0292747D01*
X0248386Y0293546D02*
X0201826Y0293546D01*
X0202624Y0294344D02*
X0249185Y0294344D01*
X0249983Y0295143D02*
X0203423Y0295143D01*
X0204221Y0295941D02*
X0250782Y0295941D01*
X0251580Y0296740D02*
X0205020Y0296740D01*
X0205818Y0297539D02*
X0252379Y0297539D01*
X0253177Y0298337D02*
X0206617Y0298337D01*
X0207415Y0299136D02*
X0253976Y0299136D01*
X0254774Y0299934D02*
X0208214Y0299934D01*
X0203871Y0301531D02*
X0198561Y0301531D01*
X0199359Y0302330D02*
X0202889Y0302330D01*
X0202189Y0303128D02*
X0200158Y0303128D01*
X0200956Y0303927D02*
X0201858Y0303927D01*
X0203073Y0300733D02*
X0197762Y0300733D01*
X0196964Y0299934D02*
X0202274Y0299934D01*
X0201476Y0299136D02*
X0196165Y0299136D01*
X0195367Y0298337D02*
X0200677Y0298337D01*
X0199879Y0297539D02*
X0194568Y0297539D01*
X0193770Y0296740D02*
X0199080Y0296740D01*
X0198282Y0295941D02*
X0192971Y0295941D01*
X0192173Y0295143D02*
X0197483Y0295143D01*
X0196685Y0294344D02*
X0191374Y0294344D01*
X0190576Y0293546D02*
X0195886Y0293546D01*
X0195088Y0292747D02*
X0189777Y0292747D01*
X0188979Y0291949D02*
X0194289Y0291949D01*
X0193491Y0291150D02*
X0188180Y0291150D01*
X0187382Y0290352D02*
X0192692Y0290352D01*
X0191894Y0289553D02*
X0186583Y0289553D01*
X0185785Y0288755D02*
X0191095Y0288755D01*
X0190297Y0287956D02*
X0184986Y0287956D01*
X0184188Y0287158D02*
X0189498Y0287158D01*
X0188700Y0286359D02*
X0183389Y0286359D01*
X0182591Y0285561D02*
X0187901Y0285561D01*
X0187102Y0284762D02*
X0181792Y0284762D01*
X0180994Y0283964D02*
X0186304Y0283964D01*
X0185505Y0283165D02*
X0180195Y0283165D01*
X0179397Y0282367D02*
X0184707Y0282367D01*
X0183908Y0281568D02*
X0178598Y0281568D01*
X0177800Y0280770D02*
X0183110Y0280770D01*
X0182311Y0279971D02*
X0177001Y0279971D01*
X0176203Y0279173D02*
X0181513Y0279173D01*
X0180714Y0278374D02*
X0175404Y0278374D01*
X0174606Y0277576D02*
X0179916Y0277576D01*
X0179117Y0276777D02*
X0173807Y0276777D01*
X0173009Y0275979D02*
X0178319Y0275979D01*
X0177520Y0275180D02*
X0172210Y0275180D01*
X0171412Y0274382D02*
X0176722Y0274382D01*
X0175923Y0273583D02*
X0171410Y0273583D01*
X0171307Y0272785D02*
X0175125Y0272785D01*
X0174326Y0271986D02*
X0170976Y0271986D01*
X0170339Y0271188D02*
X0173528Y0271188D01*
X0172729Y0270389D02*
X0169103Y0270389D01*
X0165233Y0241643D02*
X0149923Y0241643D01*
X0135710Y0242441D02*
X0082410Y0242441D01*
X0082410Y0241643D02*
X0135612Y0241643D01*
X0134813Y0240844D02*
X0082410Y0240844D01*
X0082410Y0240046D02*
X0134450Y0240046D01*
X0134210Y0239247D02*
X0082410Y0239247D01*
X0082410Y0238449D02*
X0126729Y0238449D01*
X0125369Y0237650D02*
X0082410Y0237650D01*
X0082410Y0236852D02*
X0124680Y0236852D01*
X0124350Y0236053D02*
X0082410Y0236053D01*
X0082410Y0235255D02*
X0124210Y0235255D01*
X0124210Y0234456D02*
X0082410Y0234456D01*
X0082410Y0233658D02*
X0124469Y0233658D01*
X0124860Y0232859D02*
X0082410Y0232859D01*
X0082410Y0232061D02*
X0125658Y0232061D01*
X0128891Y0238449D02*
X0134210Y0238449D01*
X0134369Y0237650D02*
X0130251Y0237650D01*
X0135710Y0243240D02*
X0082410Y0243240D01*
X0082410Y0244038D02*
X0135710Y0244038D01*
X0135710Y0244837D02*
X0082410Y0244837D01*
X0082410Y0245635D02*
X0092172Y0245635D01*
X0091285Y0246434D02*
X0082410Y0246434D01*
X0082410Y0247232D02*
X0090792Y0247232D01*
X0090461Y0248031D02*
X0082410Y0248031D01*
X0082410Y0248829D02*
X0090460Y0248829D01*
X0090212Y0249628D02*
X0082410Y0249628D01*
X0082410Y0250426D02*
X0089414Y0250426D01*
X0088615Y0251225D02*
X0082410Y0251225D01*
X0082410Y0252023D02*
X0087817Y0252023D01*
X0087018Y0252822D02*
X0082410Y0252822D01*
X0082410Y0253620D02*
X0086220Y0253620D01*
X0085421Y0254419D02*
X0082410Y0254419D01*
X0082410Y0255217D02*
X0084623Y0255217D01*
X0083824Y0256016D02*
X0082410Y0256016D01*
X0082410Y0256814D02*
X0083026Y0256814D01*
X0078210Y0256814D02*
X0076160Y0256814D01*
X0076160Y0256016D02*
X0078210Y0256016D01*
X0078210Y0255217D02*
X0076160Y0255217D01*
X0076160Y0254419D02*
X0078210Y0254419D01*
X0078210Y0253620D02*
X0076160Y0253620D01*
X0076160Y0252822D02*
X0078210Y0252822D01*
X0078210Y0252023D02*
X0076160Y0252023D01*
X0076160Y0251225D02*
X0078210Y0251225D01*
X0078210Y0250426D02*
X0076160Y0250426D01*
X0076160Y0249628D02*
X0078210Y0249628D01*
X0078210Y0248829D02*
X0076160Y0248829D01*
X0076160Y0248031D02*
X0078210Y0248031D01*
X0078210Y0247232D02*
X0076160Y0247232D01*
X0076160Y0246434D02*
X0078210Y0246434D01*
X0078210Y0245635D02*
X0076160Y0245635D01*
X0076160Y0244837D02*
X0078210Y0244837D01*
X0078210Y0244038D02*
X0076160Y0244038D01*
X0076160Y0243240D02*
X0078210Y0243240D01*
X0078210Y0242441D02*
X0076160Y0242441D01*
X0076160Y0241643D02*
X0078210Y0241643D01*
X0078210Y0240844D02*
X0076160Y0240844D01*
X0076160Y0240046D02*
X0078210Y0240046D01*
X0078210Y0239247D02*
X0076160Y0239247D01*
X0076160Y0238449D02*
X0078210Y0238449D01*
X0078210Y0237650D02*
X0076160Y0237650D01*
X0076160Y0236852D02*
X0078210Y0236852D01*
X0078210Y0236053D02*
X0076160Y0236053D01*
X0076160Y0235255D02*
X0078210Y0235255D01*
X0078210Y0234456D02*
X0076160Y0234456D01*
X0076160Y0233658D02*
X0078210Y0233658D01*
X0078210Y0232859D02*
X0076160Y0232859D01*
X0076160Y0232061D02*
X0078210Y0232061D01*
X0078210Y0231262D02*
X0076160Y0231262D01*
X0076160Y0230464D02*
X0078210Y0230464D01*
X0078210Y0229665D02*
X0076160Y0229665D01*
X0076160Y0228867D02*
X0078210Y0228867D01*
X0078210Y0228068D02*
X0076160Y0228068D01*
X0076160Y0227270D02*
X0078210Y0227270D01*
X0078210Y0226471D02*
X0076160Y0226471D01*
X0076160Y0225672D02*
X0078210Y0225672D01*
X0078210Y0224874D02*
X0076160Y0224874D01*
X0076160Y0224075D02*
X0078210Y0224075D01*
X0078210Y0223277D02*
X0076160Y0223277D01*
X0076160Y0222478D02*
X0078210Y0222478D01*
X0078210Y0221680D02*
X0076160Y0221680D01*
X0076160Y0220881D02*
X0078210Y0220881D01*
X0078210Y0220083D02*
X0076160Y0220083D01*
X0076160Y0219284D02*
X0078210Y0219284D01*
X0078210Y0218486D02*
X0076160Y0218486D01*
X0076160Y0217687D02*
X0078210Y0217687D01*
X0078210Y0216889D02*
X0076160Y0216889D01*
X0076160Y0216090D02*
X0078210Y0216090D01*
X0078210Y0215292D02*
X0076160Y0215292D01*
X0076160Y0214493D02*
X0078210Y0214493D01*
X0078210Y0213695D02*
X0076160Y0213695D01*
X0076160Y0212896D02*
X0078210Y0212896D01*
X0078992Y0212098D02*
X0076160Y0212098D01*
X0076160Y0211299D02*
X0079791Y0211299D01*
X0080589Y0210501D02*
X0076160Y0210501D01*
X0076160Y0209702D02*
X0081388Y0209702D01*
X0082186Y0208904D02*
X0076160Y0208904D01*
X0076160Y0208105D02*
X0082985Y0208105D01*
X0083783Y0207307D02*
X0076160Y0207307D01*
X0076160Y0206508D02*
X0084582Y0206508D01*
X0085380Y0205710D02*
X0076160Y0205710D01*
X0076160Y0204911D02*
X0086179Y0204911D01*
X0086977Y0204113D02*
X0076160Y0204113D01*
X0076160Y0203314D02*
X0087776Y0203314D01*
X0088574Y0202516D02*
X0076160Y0202516D01*
X0076160Y0201717D02*
X0089373Y0201717D01*
X0090171Y0200919D02*
X0076160Y0200919D01*
X0076160Y0200120D02*
X0090970Y0200120D01*
X0091769Y0199322D02*
X0076160Y0199322D01*
X0076160Y0198523D02*
X0092567Y0198523D01*
X0093366Y0197725D02*
X0076160Y0197725D01*
X0076160Y0196926D02*
X0094164Y0196926D01*
X0094963Y0196128D02*
X0076160Y0196128D01*
X0076160Y0195329D02*
X0095761Y0195329D01*
X0096560Y0194531D02*
X0076160Y0194531D01*
X0076160Y0193732D02*
X0097358Y0193732D01*
X0097960Y0192934D02*
X0076160Y0192934D01*
X0076160Y0192135D02*
X0097960Y0192135D01*
X0098145Y0191337D02*
X0076160Y0191337D01*
X0076160Y0190538D02*
X0098476Y0190538D01*
X0098708Y0189739D02*
X0076160Y0189739D01*
X0076160Y0188941D02*
X0098260Y0188941D01*
X0097960Y0188142D02*
X0076160Y0188142D01*
X0076160Y0187344D02*
X0097960Y0187344D01*
X0098059Y0186545D02*
X0076160Y0186545D01*
X0076160Y0185747D02*
X0098390Y0185747D01*
X0099020Y0184948D02*
X0076160Y0184948D01*
X0076160Y0184150D02*
X0100241Y0184150D01*
X0102879Y0184150D02*
X0134597Y0184150D01*
X0134266Y0183351D02*
X0076160Y0183351D01*
X0076160Y0182553D02*
X0134210Y0182553D01*
X0134222Y0181754D02*
X0076160Y0181754D01*
X0076160Y0180956D02*
X0134553Y0180956D01*
X0135061Y0180157D02*
X0076160Y0180157D01*
X0076160Y0179359D02*
X0135986Y0179359D01*
X0135167Y0184948D02*
X0104100Y0184948D01*
X0103822Y0195329D02*
X0110761Y0195329D01*
X0109963Y0196128D02*
X0100902Y0196128D01*
X0100104Y0196926D02*
X0109164Y0196926D01*
X0108366Y0197725D02*
X0099305Y0197725D01*
X0098507Y0198523D02*
X0107567Y0198523D01*
X0106769Y0199322D02*
X0097708Y0199322D01*
X0096910Y0200120D02*
X0105970Y0200120D01*
X0105171Y0200919D02*
X0096111Y0200919D01*
X0095313Y0201717D02*
X0104373Y0201717D01*
X0103574Y0202516D02*
X0094514Y0202516D01*
X0093716Y0203314D02*
X0102776Y0203314D01*
X0100330Y0204113D02*
X0092917Y0204113D01*
X0092119Y0204911D02*
X0099058Y0204911D01*
X0098405Y0205710D02*
X0091320Y0205710D01*
X0090522Y0206508D02*
X0098074Y0206508D01*
X0097960Y0207307D02*
X0089723Y0207307D01*
X0088925Y0208105D02*
X0097960Y0208105D01*
X0098245Y0208904D02*
X0088126Y0208904D01*
X0087328Y0209702D02*
X0098671Y0209702D01*
X0099470Y0210501D02*
X0086529Y0210501D01*
X0106320Y0205710D02*
X0117402Y0205710D01*
X0116380Y0204911D02*
X0107119Y0204911D01*
X0107917Y0204113D02*
X0115831Y0204113D01*
X0115501Y0203314D02*
X0108716Y0203314D01*
X0109514Y0202516D02*
X0115460Y0202516D01*
X0115307Y0201717D02*
X0110313Y0201717D01*
X0111111Y0200919D02*
X0114509Y0200919D01*
X0113710Y0200120D02*
X0111910Y0200120D01*
X0112708Y0199322D02*
X0112912Y0199322D01*
X0120718Y0205710D02*
X0122402Y0205710D01*
X0128851Y0199322D02*
X0155412Y0199322D01*
X0156210Y0200120D02*
X0129650Y0200120D01*
X0128053Y0198523D02*
X0154613Y0198523D01*
X0153815Y0197725D02*
X0127660Y0197725D01*
X0127660Y0196926D02*
X0153016Y0196926D01*
X0152218Y0196128D02*
X0127388Y0196128D01*
X0126980Y0195329D02*
X0151419Y0195329D01*
X0150621Y0194531D02*
X0126182Y0194531D01*
X0123262Y0193732D02*
X0149822Y0193732D01*
X0149024Y0192934D02*
X0122463Y0192934D01*
X0121665Y0192135D02*
X0148225Y0192135D01*
X0147427Y0191337D02*
X0120866Y0191337D01*
X0120068Y0190538D02*
X0146628Y0190538D01*
X0145830Y0189739D02*
X0119269Y0189739D01*
X0118471Y0188941D02*
X0145031Y0188941D01*
X0144233Y0188142D02*
X0117672Y0188142D01*
X0116874Y0187344D02*
X0143434Y0187344D01*
X0142636Y0186545D02*
X0116075Y0186545D01*
X0115277Y0185747D02*
X0136242Y0185747D01*
X0139378Y0185747D02*
X0141837Y0185747D01*
X0141039Y0184948D02*
X0140453Y0184948D01*
X0135710Y0245635D02*
X0095948Y0245635D01*
X0096835Y0246434D02*
X0135710Y0246434D01*
X0135710Y0247232D02*
X0097328Y0247232D01*
X0097659Y0248031D02*
X0135710Y0248031D01*
X0135710Y0248829D02*
X0097660Y0248829D01*
X0097593Y0249628D02*
X0111841Y0249628D01*
X0111042Y0250426D02*
X0097262Y0250426D01*
X0097876Y0251225D02*
X0110692Y0251225D01*
X0110460Y0252023D02*
X0098491Y0252023D01*
X0098822Y0252822D02*
X0110460Y0252822D01*
X0110627Y0253620D02*
X0098910Y0253620D01*
X0098949Y0254419D02*
X0110958Y0254419D01*
X0111251Y0255217D02*
X0099747Y0255217D01*
X0116279Y0249628D02*
X0135710Y0249628D01*
X0135710Y0250426D02*
X0117077Y0250426D01*
X0117428Y0251225D02*
X0135710Y0251225D01*
X0135710Y0252023D02*
X0117660Y0252023D01*
X0117660Y0252822D02*
X0135710Y0252822D01*
X0135710Y0253620D02*
X0118150Y0253620D01*
X0118949Y0254419D02*
X0135710Y0254419D01*
X0135710Y0255217D02*
X0119747Y0255217D01*
X0120546Y0256016D02*
X0135710Y0256016D01*
X0135710Y0256814D02*
X0121344Y0256814D01*
X0122143Y0257613D02*
X0135710Y0257613D01*
X0135710Y0258411D02*
X0122941Y0258411D01*
X0125524Y0259210D02*
X0135710Y0259210D01*
X0135710Y0260008D02*
X0126660Y0260008D01*
X0127255Y0260807D02*
X0135710Y0260807D01*
X0135710Y0261605D02*
X0127586Y0261605D01*
X0127660Y0262404D02*
X0135710Y0262404D01*
X0135710Y0263203D02*
X0127660Y0263203D01*
X0127335Y0264001D02*
X0135710Y0264001D01*
X0135710Y0264800D02*
X0126852Y0264800D01*
X0125988Y0265598D02*
X0135710Y0265598D01*
X0135710Y0266397D02*
X0121160Y0266397D01*
X0121160Y0267195D02*
X0135710Y0267195D01*
X0135710Y0267994D02*
X0121160Y0267994D01*
X0121160Y0268792D02*
X0135710Y0268792D01*
X0135710Y0269591D02*
X0121160Y0269591D01*
X0121160Y0270389D02*
X0135710Y0270389D01*
X0135710Y0271188D02*
X0121160Y0271188D01*
X0121160Y0271986D02*
X0135710Y0271986D01*
X0135710Y0272785D02*
X0121160Y0272785D01*
X0121160Y0273583D02*
X0135710Y0273583D01*
X0135710Y0274382D02*
X0121160Y0274382D01*
X0121160Y0275180D02*
X0135710Y0275180D01*
X0135819Y0275979D02*
X0121160Y0275979D01*
X0121160Y0276777D02*
X0136617Y0276777D01*
X0136710Y0277576D02*
X0121160Y0277576D01*
X0121160Y0278374D02*
X0136776Y0278374D01*
X0122132Y0265598D02*
X0121160Y0265598D01*
X0121160Y0264800D02*
X0121268Y0264800D01*
X0098491Y0291150D02*
X0082410Y0291150D01*
X0082410Y0290352D02*
X0097692Y0290352D01*
X0096894Y0289553D02*
X0082410Y0289553D01*
X0082410Y0288755D02*
X0096095Y0288755D01*
X0095297Y0287956D02*
X0082410Y0287956D01*
X0082410Y0287158D02*
X0094498Y0287158D01*
X0093700Y0286359D02*
X0082410Y0286359D01*
X0082410Y0285561D02*
X0092901Y0285561D01*
X0092102Y0284762D02*
X0082410Y0284762D01*
X0082410Y0283964D02*
X0091304Y0283964D01*
X0090505Y0283165D02*
X0082410Y0283165D01*
X0082410Y0282367D02*
X0089707Y0282367D01*
X0088908Y0281568D02*
X0082410Y0281568D01*
X0082410Y0280770D02*
X0086297Y0280770D01*
X0085771Y0280552D02*
X0084758Y0279539D01*
X0084210Y0278216D01*
X0084210Y0276784D01*
X0084758Y0275461D01*
X0085771Y0274448D01*
X0086490Y0274150D01*
X0082410Y0270070D01*
X0082410Y0321787D01*
X0083344Y0321400D01*
X0084776Y0321400D01*
X0086099Y0321948D01*
X0087112Y0322961D01*
X0087660Y0324284D01*
X0087660Y0325716D01*
X0087112Y0327039D01*
X0086160Y0327991D01*
X0086160Y0330380D01*
X0120930Y0365150D01*
X0122276Y0365150D01*
X0123599Y0365698D01*
X0124612Y0366711D01*
X0125160Y0368034D01*
X0125160Y0369466D01*
X0124612Y0370789D01*
X0123599Y0371802D01*
X0122276Y0372350D01*
X0120844Y0372350D01*
X0119521Y0371802D01*
X0118508Y0370789D01*
X0117960Y0369466D01*
X0117960Y0368120D01*
X0117410Y0367570D01*
X0117410Y0413680D01*
X0143190Y0387900D01*
X0164819Y0387900D01*
X0165771Y0386948D01*
X0166490Y0386650D01*
X0128190Y0348350D01*
X0125690Y0348350D01*
X0124460Y0347120D01*
X0124440Y0347100D01*
X0109551Y0347100D01*
X0108599Y0348052D01*
X0107276Y0348600D01*
X0105844Y0348600D01*
X0104521Y0348052D01*
X0103508Y0347039D01*
X0102960Y0345716D01*
X0102960Y0344284D01*
X0103508Y0342961D01*
X0104521Y0341948D01*
X0105844Y0341400D01*
X0107276Y0341400D01*
X0108599Y0341948D01*
X0109551Y0342900D01*
X0126137Y0342900D01*
X0115587Y0332350D01*
X0114594Y0332350D01*
X0113271Y0331802D01*
X0112258Y0330789D01*
X0111710Y0329466D01*
X0111710Y0328473D01*
X0104337Y0321100D01*
X0103537Y0320300D01*
X0103006Y0320300D01*
X0101058Y0319493D01*
X0099567Y0318002D01*
X0098760Y0316054D01*
X0098760Y0314273D01*
X0090460Y0305973D01*
X0090460Y0304027D01*
X0091837Y0302650D01*
X0097960Y0296527D01*
X0097960Y0295534D01*
X0098508Y0294211D01*
X0099521Y0293198D01*
X0100240Y0292900D01*
X0088440Y0281100D01*
X0087094Y0281100D01*
X0085771Y0280552D01*
X0085190Y0279971D02*
X0082410Y0279971D01*
X0082410Y0279173D02*
X0084606Y0279173D01*
X0084276Y0278374D02*
X0082410Y0278374D01*
X0082410Y0277576D02*
X0084210Y0277576D01*
X0084213Y0276777D02*
X0082410Y0276777D01*
X0082410Y0275979D02*
X0084544Y0275979D01*
X0085039Y0275180D02*
X0082410Y0275180D01*
X0082410Y0274382D02*
X0085931Y0274382D01*
X0085923Y0273583D02*
X0082410Y0273583D01*
X0082410Y0272785D02*
X0085125Y0272785D01*
X0084326Y0271986D02*
X0082410Y0271986D01*
X0082410Y0271188D02*
X0083528Y0271188D01*
X0082729Y0270389D02*
X0082410Y0270389D01*
X0078210Y0270389D02*
X0076160Y0270389D01*
X0076160Y0269591D02*
X0078210Y0269591D01*
X0078210Y0268792D02*
X0076160Y0268792D01*
X0076160Y0267994D02*
X0078210Y0267994D01*
X0078210Y0267195D02*
X0076160Y0267195D01*
X0076160Y0266397D02*
X0078210Y0266397D01*
X0078210Y0265598D02*
X0076160Y0265598D01*
X0076160Y0264800D02*
X0078210Y0264800D01*
X0078210Y0264001D02*
X0076160Y0264001D01*
X0076160Y0263203D02*
X0078210Y0263203D01*
X0078210Y0262404D02*
X0076160Y0262404D01*
X0076160Y0261605D02*
X0078210Y0261605D01*
X0078210Y0260807D02*
X0076160Y0260807D01*
X0076160Y0260008D02*
X0078210Y0260008D01*
X0078210Y0259210D02*
X0076160Y0259210D01*
X0076160Y0258411D02*
X0078210Y0258411D01*
X0078210Y0257613D02*
X0076160Y0257613D01*
X0076160Y0271188D02*
X0078210Y0271188D01*
X0078210Y0271986D02*
X0076160Y0271986D01*
X0076160Y0272785D02*
X0078210Y0272785D01*
X0078210Y0273583D02*
X0076160Y0273583D01*
X0076160Y0274382D02*
X0078210Y0274382D01*
X0078210Y0275180D02*
X0076160Y0275180D01*
X0076160Y0275979D02*
X0078210Y0275979D01*
X0078210Y0276777D02*
X0076160Y0276777D01*
X0076160Y0277576D02*
X0078210Y0277576D01*
X0078210Y0278374D02*
X0076160Y0278374D01*
X0076160Y0279173D02*
X0078210Y0279173D01*
X0078210Y0279971D02*
X0076160Y0279971D01*
X0076160Y0280770D02*
X0078210Y0280770D01*
X0078210Y0281568D02*
X0076160Y0281568D01*
X0076160Y0282367D02*
X0078210Y0282367D01*
X0078210Y0283165D02*
X0076160Y0283165D01*
X0076160Y0283964D02*
X0078210Y0283964D01*
X0078210Y0284762D02*
X0076160Y0284762D01*
X0076160Y0285561D02*
X0078210Y0285561D01*
X0078210Y0286359D02*
X0076160Y0286359D01*
X0076160Y0287158D02*
X0078210Y0287158D01*
X0078210Y0287956D02*
X0076160Y0287956D01*
X0076160Y0288755D02*
X0078210Y0288755D01*
X0078210Y0289553D02*
X0076160Y0289553D01*
X0076160Y0290352D02*
X0078210Y0290352D01*
X0078210Y0291150D02*
X0076160Y0291150D01*
X0076160Y0291949D02*
X0078210Y0291949D01*
X0078210Y0292747D02*
X0076160Y0292747D01*
X0076160Y0293546D02*
X0078210Y0293546D01*
X0078210Y0294344D02*
X0076160Y0294344D01*
X0076160Y0295143D02*
X0078210Y0295143D01*
X0078210Y0295941D02*
X0076160Y0295941D01*
X0076160Y0296740D02*
X0078210Y0296740D01*
X0078210Y0297539D02*
X0076160Y0297539D01*
X0076160Y0298337D02*
X0078210Y0298337D01*
X0078210Y0299136D02*
X0076160Y0299136D01*
X0076160Y0299934D02*
X0078210Y0299934D01*
X0078210Y0300733D02*
X0076160Y0300733D01*
X0076160Y0301531D02*
X0078210Y0301531D01*
X0078210Y0302330D02*
X0076160Y0302330D01*
X0076160Y0303128D02*
X0078210Y0303128D01*
X0078210Y0303927D02*
X0076160Y0303927D01*
X0076160Y0304725D02*
X0078210Y0304725D01*
X0078210Y0305524D02*
X0076160Y0305524D01*
X0076160Y0306322D02*
X0078210Y0306322D01*
X0078210Y0307121D02*
X0076160Y0307121D01*
X0076160Y0307919D02*
X0078210Y0307919D01*
X0078210Y0308718D02*
X0076160Y0308718D01*
X0076160Y0309516D02*
X0078210Y0309516D01*
X0078210Y0310315D02*
X0076160Y0310315D01*
X0076160Y0311113D02*
X0078210Y0311113D01*
X0078210Y0311912D02*
X0076160Y0311912D01*
X0076160Y0312710D02*
X0078210Y0312710D01*
X0078210Y0313509D02*
X0076160Y0313509D01*
X0076160Y0314307D02*
X0078210Y0314307D01*
X0078210Y0315106D02*
X0076160Y0315106D01*
X0076160Y0315904D02*
X0078210Y0315904D01*
X0078210Y0316703D02*
X0076160Y0316703D01*
X0076160Y0317501D02*
X0078210Y0317501D01*
X0078210Y0318300D02*
X0076160Y0318300D01*
X0076160Y0319098D02*
X0078210Y0319098D01*
X0078210Y0319897D02*
X0076160Y0319897D01*
X0076160Y0320695D02*
X0078210Y0320695D01*
X0078210Y0321494D02*
X0076160Y0321494D01*
X0076160Y0322292D02*
X0078210Y0322292D01*
X0078210Y0323091D02*
X0076160Y0323091D01*
X0076160Y0323889D02*
X0078210Y0323889D01*
X0078210Y0324688D02*
X0076160Y0324688D01*
X0076160Y0325486D02*
X0078210Y0325486D01*
X0078210Y0326285D02*
X0076160Y0326285D01*
X0076160Y0327083D02*
X0078210Y0327083D01*
X0078972Y0327882D02*
X0076160Y0327882D01*
X0076160Y0328680D02*
X0079460Y0328680D01*
X0079460Y0329479D02*
X0076160Y0329479D01*
X0076160Y0330277D02*
X0079460Y0330277D01*
X0079460Y0331076D02*
X0076160Y0331076D01*
X0076160Y0331874D02*
X0079460Y0331874D01*
X0079460Y0332673D02*
X0076160Y0332673D01*
X0076160Y0333472D02*
X0079562Y0333472D01*
X0080360Y0334270D02*
X0076160Y0334270D01*
X0076160Y0335069D02*
X0081159Y0335069D01*
X0081957Y0335867D02*
X0076160Y0335867D01*
X0076160Y0336666D02*
X0082756Y0336666D01*
X0083554Y0337464D02*
X0076160Y0337464D01*
X0076160Y0338263D02*
X0084353Y0338263D01*
X0085151Y0339061D02*
X0076160Y0339061D01*
X0076160Y0339860D02*
X0085950Y0339860D01*
X0086748Y0340658D02*
X0076160Y0340658D01*
X0076160Y0341457D02*
X0087547Y0341457D01*
X0088345Y0342255D02*
X0076160Y0342255D01*
X0076160Y0343054D02*
X0089144Y0343054D01*
X0089942Y0343852D02*
X0076160Y0343852D01*
X0076160Y0344651D02*
X0090741Y0344651D01*
X0091539Y0345449D02*
X0076160Y0345449D01*
X0076160Y0346248D02*
X0092338Y0346248D01*
X0093136Y0347046D02*
X0076160Y0347046D01*
X0076160Y0347845D02*
X0093935Y0347845D01*
X0094733Y0348643D02*
X0076160Y0348643D01*
X0076160Y0349442D02*
X0095532Y0349442D01*
X0096330Y0350240D02*
X0076160Y0350240D01*
X0076160Y0351039D02*
X0097129Y0351039D01*
X0097927Y0351837D02*
X0076160Y0351837D01*
X0076160Y0352636D02*
X0098726Y0352636D01*
X0099524Y0353434D02*
X0076160Y0353434D01*
X0076160Y0354233D02*
X0100323Y0354233D01*
X0101121Y0355031D02*
X0076160Y0355031D01*
X0076160Y0355830D02*
X0101920Y0355830D01*
X0102718Y0356628D02*
X0076160Y0356628D01*
X0076160Y0357427D02*
X0103517Y0357427D01*
X0104316Y0358225D02*
X0076160Y0358225D01*
X0076160Y0359024D02*
X0105114Y0359024D01*
X0105913Y0359822D02*
X0076160Y0359822D01*
X0076160Y0360621D02*
X0106711Y0360621D01*
X0107510Y0361419D02*
X0076160Y0361419D01*
X0076160Y0362218D02*
X0108308Y0362218D01*
X0109107Y0363016D02*
X0076160Y0363016D01*
X0076160Y0363815D02*
X0109905Y0363815D01*
X0110704Y0364613D02*
X0076160Y0364613D01*
X0076160Y0365412D02*
X0111502Y0365412D01*
X0112301Y0366210D02*
X0076160Y0366210D01*
X0076160Y0367009D02*
X0113099Y0367009D01*
X0113210Y0367808D02*
X0076160Y0367808D01*
X0076160Y0368606D02*
X0113210Y0368606D01*
X0113210Y0369405D02*
X0076160Y0369405D01*
X0076160Y0370203D02*
X0113210Y0370203D01*
X0113210Y0371002D02*
X0076160Y0371002D01*
X0076160Y0371800D02*
X0113210Y0371800D01*
X0113210Y0372599D02*
X0076160Y0372599D01*
X0076160Y0373397D02*
X0113210Y0373397D01*
X0113210Y0374196D02*
X0076160Y0374196D01*
X0076160Y0374994D02*
X0113210Y0374994D01*
X0113210Y0375793D02*
X0076160Y0375793D01*
X0076160Y0376591D02*
X0113210Y0376591D01*
X0113210Y0377390D02*
X0076160Y0377390D01*
X0076160Y0378188D02*
X0113210Y0378188D01*
X0113210Y0378987D02*
X0076160Y0378987D01*
X0076160Y0379785D02*
X0113210Y0379785D01*
X0113210Y0380584D02*
X0076160Y0380584D01*
X0076160Y0381382D02*
X0113210Y0381382D01*
X0113210Y0382181D02*
X0076160Y0382181D01*
X0076160Y0382979D02*
X0113210Y0382979D01*
X0113210Y0383778D02*
X0076160Y0383778D01*
X0076160Y0384576D02*
X0113210Y0384576D01*
X0113210Y0385375D02*
X0076160Y0385375D01*
X0076160Y0386173D02*
X0113210Y0386173D01*
X0113210Y0386972D02*
X0076160Y0386972D01*
X0076160Y0387770D02*
X0113210Y0387770D01*
X0113210Y0388569D02*
X0076160Y0388569D01*
X0076160Y0389367D02*
X0113210Y0389367D01*
X0113210Y0390166D02*
X0076160Y0390166D01*
X0076160Y0390964D02*
X0113210Y0390964D01*
X0113210Y0391763D02*
X0076160Y0391763D01*
X0076160Y0392561D02*
X0113210Y0392561D01*
X0113210Y0393360D02*
X0076160Y0393360D01*
X0076160Y0394158D02*
X0113210Y0394158D01*
X0113210Y0394957D02*
X0076160Y0394957D01*
X0076160Y0395755D02*
X0113210Y0395755D01*
X0113210Y0396554D02*
X0076160Y0396554D01*
X0076160Y0397352D02*
X0113210Y0397352D01*
X0113210Y0398151D02*
X0076160Y0398151D01*
X0076160Y0398949D02*
X0113210Y0398949D01*
X0113210Y0399748D02*
X0076160Y0399748D01*
X0076160Y0400546D02*
X0113210Y0400546D01*
X0113210Y0401345D02*
X0076160Y0401345D01*
X0076160Y0402143D02*
X0113210Y0402143D01*
X0113210Y0402942D02*
X0076160Y0402942D01*
X0076160Y0403741D02*
X0113210Y0403741D01*
X0113210Y0404539D02*
X0076160Y0404539D01*
X0076160Y0405338D02*
X0113210Y0405338D01*
X0113210Y0406136D02*
X0076160Y0406136D01*
X0076160Y0406935D02*
X0113210Y0406935D01*
X0113210Y0407733D02*
X0076160Y0407733D01*
X0076160Y0408532D02*
X0113210Y0408532D01*
X0113210Y0409330D02*
X0076160Y0409330D01*
X0076160Y0410129D02*
X0113210Y0410129D01*
X0113210Y0410927D02*
X0076160Y0410927D01*
X0076160Y0411726D02*
X0113210Y0411726D01*
X0113210Y0412524D02*
X0076160Y0412524D01*
X0076160Y0413323D02*
X0113210Y0413323D01*
X0113210Y0414121D02*
X0076160Y0414121D01*
X0076160Y0414920D02*
X0113210Y0414920D01*
X0113210Y0415718D02*
X0076160Y0415718D01*
X0076160Y0416517D02*
X0113210Y0416517D01*
X0113210Y0417315D02*
X0108242Y0417315D01*
X0110435Y0418114D02*
X0113210Y0418114D01*
X0113210Y0418912D02*
X0111866Y0418912D01*
X0111282Y0418422D02*
X0111282Y0418422D01*
X0112818Y0419711D02*
X0113210Y0419711D01*
X0119910Y0419711D02*
X0128488Y0419711D01*
X0128488Y0419465D02*
X0128488Y0421165D01*
X0129138Y0422736D01*
X0130340Y0423938D01*
X0131099Y0424252D01*
X0130340Y0424566D01*
X0129138Y0425768D01*
X0128488Y0427339D01*
X0128488Y0429039D01*
X0129138Y0430610D01*
X0130340Y0431812D01*
X0131911Y0432462D01*
X0133611Y0432462D01*
X0135181Y0431812D01*
X0136383Y0430610D01*
X0136698Y0429851D01*
X0137012Y0430610D01*
X0138214Y0431812D01*
X0139785Y0432462D01*
X0141485Y0432462D01*
X0143055Y0431812D01*
X0144257Y0430610D01*
X0144572Y0429851D01*
X0144886Y0430610D01*
X0146088Y0431812D01*
X0147659Y0432462D01*
X0149359Y0432462D01*
X0150929Y0431812D01*
X0152131Y0430610D01*
X0152446Y0429851D01*
X0152760Y0430610D01*
X0152870Y0430720D01*
X0150690Y0432900D01*
X0131180Y0432900D01*
X0129930Y0431650D01*
X0124930Y0431650D01*
X0122410Y0429130D01*
X0122410Y0426630D01*
X0121180Y0425400D01*
X0119910Y0424130D01*
X0119910Y0417120D01*
X0144930Y0392100D01*
X0164819Y0392100D01*
X0165771Y0393052D01*
X0167094Y0393600D01*
X0168526Y0393600D01*
X0169849Y0393052D01*
X0170862Y0392039D01*
X0171160Y0391320D01*
X0176710Y0396870D01*
X0176710Y0398216D01*
X0177258Y0399539D01*
X0178271Y0400552D01*
X0179594Y0401100D01*
X0181026Y0401100D01*
X0182349Y0400552D01*
X0183362Y0399539D01*
X0183910Y0398216D01*
X0183910Y0396784D01*
X0183362Y0395461D01*
X0182349Y0394448D01*
X0181026Y0393900D01*
X0179680Y0393900D01*
X0150380Y0364600D01*
X0151099Y0364302D01*
X0152112Y0363289D01*
X0152660Y0361966D01*
X0152660Y0360973D01*
X0161283Y0352350D01*
X0192569Y0352350D01*
X0193271Y0353052D01*
X0194594Y0353600D01*
X0196026Y0353600D01*
X0197349Y0353052D01*
X0198362Y0352039D01*
X0198910Y0350716D01*
X0198910Y0349284D01*
X0198362Y0347961D01*
X0197349Y0346948D01*
X0196026Y0346400D01*
X0194594Y0346400D01*
X0193271Y0346948D01*
X0192569Y0347650D01*
X0159337Y0347650D01*
X0149337Y0357650D01*
X0148344Y0357650D01*
X0147771Y0357887D01*
X0118910Y0329027D01*
X0118910Y0328034D01*
X0118362Y0326711D01*
X0117349Y0325698D01*
X0116026Y0325150D01*
X0115033Y0325150D01*
X0108219Y0318336D01*
X0108553Y0318002D01*
X0109060Y0316778D01*
X0109567Y0318002D01*
X0111058Y0319493D01*
X0113006Y0320300D01*
X0115114Y0320300D01*
X0117062Y0319493D01*
X0118553Y0318002D01*
X0119181Y0316487D01*
X0119334Y0316958D01*
X0119698Y0317673D01*
X0120170Y0318322D01*
X0120738Y0318890D01*
X0121387Y0319362D01*
X0122102Y0319726D01*
X0122866Y0319974D01*
X0123659Y0320100D01*
X0123660Y0320100D01*
X0123660Y0315400D01*
X0124460Y0315400D01*
X0129160Y0315400D01*
X0129160Y0315401D01*
X0129034Y0316194D01*
X0128786Y0316958D01*
X0128422Y0317673D01*
X0127950Y0318322D01*
X0127382Y0318890D01*
X0126733Y0319362D01*
X0126018Y0319726D01*
X0125254Y0319974D01*
X0124461Y0320100D01*
X0124460Y0320100D01*
X0124460Y0315400D01*
X0124460Y0314600D01*
X0129160Y0314600D01*
X0129160Y0314599D01*
X0129034Y0313806D01*
X0128786Y0313042D01*
X0128422Y0312327D01*
X0127950Y0311678D01*
X0127382Y0311110D01*
X0126733Y0310638D01*
X0126018Y0310274D01*
X0125547Y0310121D01*
X0127062Y0309493D01*
X0128553Y0308002D01*
X0128927Y0307100D01*
X0157319Y0307100D01*
X0158271Y0308052D01*
X0159594Y0308600D01*
X0161026Y0308600D01*
X0162349Y0308052D01*
X0163362Y0307039D01*
X0163660Y0306320D01*
X0264460Y0407120D01*
X0265690Y0408350D01*
X0273190Y0408350D01*
X0281068Y0416228D01*
X0279946Y0416692D01*
X0278744Y0417894D01*
X0278430Y0418653D01*
X0278116Y0417894D01*
X0276914Y0416692D01*
X0275343Y0416042D01*
X0273643Y0416042D01*
X0272072Y0416692D01*
X0270870Y0417894D01*
X0270556Y0418653D01*
X0270242Y0417894D01*
X0269040Y0416692D01*
X0267469Y0416042D01*
X0265769Y0416042D01*
X0264198Y0416692D01*
X0262996Y0417894D01*
X0262682Y0418653D01*
X0262368Y0417894D01*
X0261166Y0416692D01*
X0259595Y0416042D01*
X0257895Y0416042D01*
X0256324Y0416692D01*
X0255122Y0417894D01*
X0254808Y0418653D01*
X0254494Y0417894D01*
X0253292Y0416692D01*
X0251721Y0416042D01*
X0250021Y0416042D01*
X0248450Y0416692D01*
X0247248Y0417894D01*
X0246934Y0418653D01*
X0246620Y0417894D01*
X0245418Y0416692D01*
X0243847Y0416042D01*
X0242147Y0416042D01*
X0240576Y0416692D01*
X0239374Y0417894D01*
X0239060Y0418653D01*
X0238746Y0417894D01*
X0237544Y0416692D01*
X0235973Y0416042D01*
X0234273Y0416042D01*
X0232702Y0416692D01*
X0231500Y0417894D01*
X0231186Y0418653D01*
X0230872Y0417894D01*
X0229670Y0416692D01*
X0228099Y0416042D01*
X0226399Y0416042D01*
X0224828Y0416692D01*
X0223626Y0417894D01*
X0223312Y0418653D01*
X0222998Y0417894D01*
X0221796Y0416692D01*
X0220225Y0416042D01*
X0218525Y0416042D01*
X0216954Y0416692D01*
X0215752Y0417894D01*
X0215438Y0418653D01*
X0215124Y0417894D01*
X0213922Y0416692D01*
X0212351Y0416042D01*
X0210651Y0416042D01*
X0209080Y0416692D01*
X0207878Y0417894D01*
X0207564Y0418653D01*
X0207250Y0417894D01*
X0206048Y0416692D01*
X0204477Y0416042D01*
X0202777Y0416042D01*
X0201206Y0416692D01*
X0200004Y0417894D01*
X0199690Y0418653D01*
X0199376Y0417894D01*
X0198173Y0416692D01*
X0196603Y0416042D01*
X0194903Y0416042D01*
X0193332Y0416692D01*
X0192130Y0417894D01*
X0191816Y0418653D01*
X0191502Y0417894D01*
X0190299Y0416692D01*
X0188729Y0416042D01*
X0187029Y0416042D01*
X0185458Y0416692D01*
X0184256Y0417894D01*
X0183942Y0418653D01*
X0183628Y0417894D01*
X0182425Y0416692D01*
X0180855Y0416042D01*
X0179155Y0416042D01*
X0177584Y0416692D01*
X0176382Y0417894D01*
X0176068Y0418653D01*
X0175754Y0417894D01*
X0174551Y0416692D01*
X0172981Y0416042D01*
X0171281Y0416042D01*
X0169710Y0416692D01*
X0168508Y0417894D01*
X0168194Y0418653D01*
X0167880Y0417894D01*
X0166677Y0416692D01*
X0165107Y0416042D01*
X0163407Y0416042D01*
X0161836Y0416692D01*
X0160634Y0417894D01*
X0160320Y0418653D01*
X0160005Y0417894D01*
X0158803Y0416692D01*
X0157233Y0416042D01*
X0155533Y0416042D01*
X0153962Y0416692D01*
X0152760Y0417894D01*
X0152446Y0418653D01*
X0152131Y0417894D01*
X0150929Y0416692D01*
X0149359Y0416042D01*
X0147659Y0416042D01*
X0146088Y0416692D01*
X0144886Y0417894D01*
X0144572Y0418653D01*
X0144257Y0417894D01*
X0143055Y0416692D01*
X0141485Y0416042D01*
X0139785Y0416042D01*
X0138214Y0416692D01*
X0137012Y0417894D01*
X0136698Y0418653D01*
X0136383Y0417894D01*
X0135181Y0416692D01*
X0133611Y0416042D01*
X0131911Y0416042D01*
X0130340Y0416692D01*
X0129138Y0417894D01*
X0128488Y0419465D01*
X0128716Y0418912D02*
X0119910Y0418912D01*
X0119910Y0418114D02*
X0129047Y0418114D01*
X0129717Y0417315D02*
X0119910Y0417315D01*
X0120513Y0416517D02*
X0130764Y0416517D01*
X0134757Y0416517D02*
X0138638Y0416517D01*
X0137591Y0417315D02*
X0135804Y0417315D01*
X0136474Y0418114D02*
X0136921Y0418114D01*
X0142631Y0416517D02*
X0146512Y0416517D01*
X0145465Y0417315D02*
X0143678Y0417315D01*
X0144348Y0418114D02*
X0144795Y0418114D01*
X0150505Y0416517D02*
X0154386Y0416517D01*
X0153339Y0417315D02*
X0151552Y0417315D01*
X0152222Y0418114D02*
X0152669Y0418114D01*
X0158379Y0416517D02*
X0162260Y0416517D01*
X0161213Y0417315D02*
X0159426Y0417315D01*
X0160096Y0418114D02*
X0160543Y0418114D01*
X0166254Y0416517D02*
X0170134Y0416517D01*
X0169087Y0417315D02*
X0167300Y0417315D01*
X0167970Y0418114D02*
X0168417Y0418114D01*
X0174128Y0416517D02*
X0178008Y0416517D01*
X0176961Y0417315D02*
X0175174Y0417315D01*
X0175844Y0418114D02*
X0176291Y0418114D01*
X0182002Y0416517D02*
X0185882Y0416517D01*
X0184835Y0417315D02*
X0183048Y0417315D01*
X0183718Y0418114D02*
X0184165Y0418114D01*
X0189876Y0416517D02*
X0193756Y0416517D01*
X0192709Y0417315D02*
X0190922Y0417315D01*
X0191592Y0418114D02*
X0192039Y0418114D01*
X0197750Y0416517D02*
X0201630Y0416517D01*
X0200583Y0417315D02*
X0198796Y0417315D01*
X0199466Y0418114D02*
X0199913Y0418114D01*
X0205624Y0416517D02*
X0209504Y0416517D01*
X0208457Y0417315D02*
X0206670Y0417315D01*
X0207340Y0418114D02*
X0207787Y0418114D01*
X0213498Y0416517D02*
X0217378Y0416517D01*
X0216331Y0417315D02*
X0214544Y0417315D01*
X0215214Y0418114D02*
X0215661Y0418114D01*
X0221372Y0416517D02*
X0225252Y0416517D01*
X0224205Y0417315D02*
X0222418Y0417315D01*
X0223088Y0418114D02*
X0223535Y0418114D01*
X0229246Y0416517D02*
X0233126Y0416517D01*
X0232079Y0417315D02*
X0230292Y0417315D01*
X0230962Y0418114D02*
X0231409Y0418114D01*
X0237120Y0416517D02*
X0241000Y0416517D01*
X0239953Y0417315D02*
X0238166Y0417315D01*
X0238836Y0418114D02*
X0239283Y0418114D01*
X0244994Y0416517D02*
X0248874Y0416517D01*
X0247827Y0417315D02*
X0246041Y0417315D01*
X0246711Y0418114D02*
X0247157Y0418114D01*
X0252868Y0416517D02*
X0256748Y0416517D01*
X0255702Y0417315D02*
X0253915Y0417315D01*
X0254585Y0418114D02*
X0255031Y0418114D01*
X0260742Y0416517D02*
X0264622Y0416517D01*
X0263576Y0417315D02*
X0261789Y0417315D01*
X0262459Y0418114D02*
X0262905Y0418114D01*
X0268616Y0416517D02*
X0272496Y0416517D01*
X0271450Y0417315D02*
X0269663Y0417315D01*
X0270333Y0418114D02*
X0270780Y0418114D01*
X0276490Y0416517D02*
X0280370Y0416517D01*
X0280558Y0415718D02*
X0121312Y0415718D01*
X0122110Y0414920D02*
X0279760Y0414920D01*
X0278961Y0414121D02*
X0122909Y0414121D01*
X0123707Y0413323D02*
X0278163Y0413323D01*
X0277364Y0412524D02*
X0124506Y0412524D01*
X0125304Y0411726D02*
X0276566Y0411726D01*
X0275767Y0410927D02*
X0126103Y0410927D01*
X0126901Y0410129D02*
X0274969Y0410129D01*
X0274170Y0409330D02*
X0127700Y0409330D01*
X0128498Y0408532D02*
X0273372Y0408532D01*
X0277537Y0417315D02*
X0279324Y0417315D01*
X0278654Y0418114D02*
X0278207Y0418114D01*
X0269189Y0398151D02*
X0268931Y0398151D01*
X0268132Y0397352D02*
X0269988Y0397352D01*
X0270786Y0396554D02*
X0267334Y0396554D01*
X0266535Y0395755D02*
X0271585Y0395755D01*
X0272383Y0394957D02*
X0265737Y0394957D01*
X0264938Y0394158D02*
X0273182Y0394158D01*
X0273980Y0393360D02*
X0272259Y0393360D01*
X0273539Y0392561D02*
X0274779Y0392561D01*
X0274338Y0391763D02*
X0275577Y0391763D01*
X0275103Y0390964D02*
X0276376Y0390964D01*
X0277174Y0390166D02*
X0275434Y0390166D01*
X0275764Y0389367D02*
X0277973Y0389367D01*
X0278771Y0388569D02*
X0276095Y0388569D01*
X0265861Y0393360D02*
X0264140Y0393360D01*
X0264581Y0392561D02*
X0263341Y0392561D01*
X0263782Y0391763D02*
X0262543Y0391763D01*
X0263017Y0390964D02*
X0261744Y0390964D01*
X0260946Y0390166D02*
X0262686Y0390166D01*
X0262356Y0389367D02*
X0260147Y0389367D01*
X0259349Y0388569D02*
X0262025Y0388569D01*
X0261960Y0387770D02*
X0258550Y0387770D01*
X0257752Y0386972D02*
X0261960Y0386972D01*
X0261960Y0386173D02*
X0256953Y0386173D01*
X0256155Y0385375D02*
X0262048Y0385375D01*
X0262379Y0384576D02*
X0255356Y0384576D01*
X0254558Y0383778D02*
X0262710Y0383778D01*
X0263040Y0382979D02*
X0253759Y0382979D01*
X0252961Y0382181D02*
X0263838Y0382181D01*
X0264637Y0381382D02*
X0252162Y0381382D01*
X0251364Y0380584D02*
X0265997Y0380584D01*
X0255772Y0370203D02*
X0240983Y0370203D01*
X0240184Y0369405D02*
X0244471Y0369405D01*
X0243454Y0368606D02*
X0239386Y0368606D01*
X0238587Y0367808D02*
X0242796Y0367808D01*
X0242360Y0367009D02*
X0237789Y0367009D01*
X0236990Y0366210D02*
X0242091Y0366210D01*
X0241962Y0365412D02*
X0236192Y0365412D01*
X0235393Y0364613D02*
X0246660Y0364613D01*
X0246660Y0363815D02*
X0247460Y0363815D01*
X0247460Y0363016D02*
X0246660Y0363016D01*
X0246660Y0362218D02*
X0247460Y0362218D01*
X0247460Y0361419D02*
X0246660Y0361419D01*
X0246660Y0360621D02*
X0247460Y0360621D01*
X0244420Y0360621D02*
X0231401Y0360621D01*
X0232199Y0361419D02*
X0243428Y0361419D01*
X0242777Y0362218D02*
X0232998Y0362218D01*
X0233796Y0363016D02*
X0242347Y0363016D01*
X0242084Y0363815D02*
X0234595Y0363815D01*
X0228342Y0371002D02*
X0195827Y0371002D01*
X0195686Y0371800D02*
X0229140Y0371800D01*
X0229939Y0372599D02*
X0195545Y0372599D01*
X0195434Y0373230D02*
X0195434Y0373230D01*
X0193794Y0376070D01*
X0191282Y0378178D01*
X0191282Y0378178D01*
X0188200Y0379300D01*
X0184920Y0379300D01*
X0181838Y0378178D01*
X0179326Y0376070D01*
X0177686Y0373230D01*
X0177117Y0370000D01*
X0177686Y0366770D01*
X0179326Y0363930D01*
X0179326Y0363930D01*
X0181838Y0361822D01*
X0181838Y0361822D01*
X0184920Y0360700D01*
X0185732Y0360700D01*
X0188200Y0360700D01*
X0191282Y0361822D01*
X0193794Y0363930D01*
X0195434Y0366770D01*
X0195434Y0366770D01*
X0196004Y0370000D01*
X0195434Y0373230D01*
X0195337Y0373397D02*
X0230737Y0373397D01*
X0231536Y0374196D02*
X0194876Y0374196D01*
X0194415Y0374994D02*
X0232334Y0374994D01*
X0233133Y0375793D02*
X0193954Y0375793D01*
X0193794Y0376070D02*
X0193794Y0376070D01*
X0193173Y0376591D02*
X0233931Y0376591D01*
X0234730Y0377390D02*
X0192222Y0377390D01*
X0191254Y0378188D02*
X0235528Y0378188D01*
X0236327Y0378987D02*
X0189061Y0378987D01*
X0184060Y0378987D02*
X0164766Y0378987D01*
X0163968Y0378188D02*
X0181866Y0378188D01*
X0181838Y0378178D02*
X0181838Y0378178D01*
X0180899Y0377390D02*
X0163169Y0377390D01*
X0162371Y0376591D02*
X0179947Y0376591D01*
X0179326Y0376070D02*
X0179326Y0376070D01*
X0179326Y0376070D01*
X0179166Y0375793D02*
X0161572Y0375793D01*
X0160774Y0374994D02*
X0178705Y0374994D01*
X0178244Y0374196D02*
X0159975Y0374196D01*
X0159177Y0373397D02*
X0177783Y0373397D01*
X0177575Y0372599D02*
X0158378Y0372599D01*
X0157580Y0371800D02*
X0177434Y0371800D01*
X0177293Y0371002D02*
X0156781Y0371002D01*
X0155983Y0370203D02*
X0177152Y0370203D01*
X0177222Y0369405D02*
X0155184Y0369405D01*
X0154386Y0368606D02*
X0177362Y0368606D01*
X0177503Y0367808D02*
X0153587Y0367808D01*
X0152789Y0367009D02*
X0177644Y0367009D01*
X0178009Y0366210D02*
X0151990Y0366210D01*
X0151192Y0365412D02*
X0178470Y0365412D01*
X0178931Y0364613D02*
X0150393Y0364613D01*
X0151586Y0363815D02*
X0179463Y0363815D01*
X0180414Y0363016D02*
X0152225Y0363016D01*
X0152556Y0362218D02*
X0181366Y0362218D01*
X0182943Y0361419D02*
X0152660Y0361419D01*
X0153012Y0360621D02*
X0217961Y0360621D01*
X0218760Y0361419D02*
X0190177Y0361419D01*
X0191282Y0361822D02*
X0191282Y0361822D01*
X0191754Y0362218D02*
X0219558Y0362218D01*
X0220357Y0363016D02*
X0192706Y0363016D01*
X0193657Y0363815D02*
X0221155Y0363815D01*
X0221954Y0364613D02*
X0194189Y0364613D01*
X0193794Y0363930D02*
X0193794Y0363930D01*
X0193794Y0363930D01*
X0194650Y0365412D02*
X0222752Y0365412D01*
X0223551Y0366210D02*
X0195111Y0366210D01*
X0195476Y0367009D02*
X0224349Y0367009D01*
X0225148Y0367808D02*
X0195617Y0367808D01*
X0195758Y0368606D02*
X0225946Y0368606D01*
X0226745Y0369405D02*
X0195899Y0369405D01*
X0196004Y0370000D02*
X0196004Y0370000D01*
X0195968Y0370203D02*
X0227543Y0370203D01*
X0237125Y0379785D02*
X0165565Y0379785D01*
X0166364Y0380584D02*
X0237924Y0380584D01*
X0238722Y0381382D02*
X0167162Y0381382D01*
X0167961Y0382181D02*
X0239521Y0382181D01*
X0240319Y0382979D02*
X0168759Y0382979D01*
X0169558Y0383778D02*
X0241118Y0383778D01*
X0241916Y0384576D02*
X0170356Y0384576D01*
X0171155Y0385375D02*
X0242715Y0385375D01*
X0243513Y0386173D02*
X0171953Y0386173D01*
X0172752Y0386972D02*
X0244312Y0386972D01*
X0245110Y0387770D02*
X0173550Y0387770D01*
X0174349Y0388569D02*
X0245909Y0388569D01*
X0246707Y0389367D02*
X0175147Y0389367D01*
X0175946Y0390166D02*
X0247506Y0390166D01*
X0248304Y0390964D02*
X0176744Y0390964D01*
X0177543Y0391763D02*
X0249103Y0391763D01*
X0249902Y0392561D02*
X0178341Y0392561D01*
X0179140Y0393360D02*
X0250700Y0393360D01*
X0251499Y0394158D02*
X0181650Y0394158D01*
X0182858Y0394957D02*
X0252297Y0394957D01*
X0253096Y0395755D02*
X0183484Y0395755D01*
X0183815Y0396554D02*
X0253894Y0396554D01*
X0254693Y0397352D02*
X0183910Y0397352D01*
X0183910Y0398151D02*
X0255491Y0398151D01*
X0256290Y0398949D02*
X0183606Y0398949D01*
X0183153Y0399748D02*
X0257088Y0399748D01*
X0257887Y0400546D02*
X0182355Y0400546D01*
X0178265Y0400546D02*
X0136483Y0400546D01*
X0137282Y0399748D02*
X0177467Y0399748D01*
X0177014Y0398949D02*
X0138080Y0398949D01*
X0138879Y0398151D02*
X0176710Y0398151D01*
X0176710Y0397352D02*
X0139677Y0397352D01*
X0140476Y0396554D02*
X0176394Y0396554D01*
X0175596Y0395755D02*
X0141274Y0395755D01*
X0142073Y0394957D02*
X0174797Y0394957D01*
X0173999Y0394158D02*
X0142871Y0394158D01*
X0143670Y0393360D02*
X0166514Y0393360D01*
X0165280Y0392561D02*
X0144468Y0392561D01*
X0141723Y0389367D02*
X0117410Y0389367D01*
X0117410Y0388569D02*
X0142521Y0388569D01*
X0140924Y0390166D02*
X0117410Y0390166D01*
X0117410Y0390964D02*
X0140126Y0390964D01*
X0139327Y0391763D02*
X0117410Y0391763D01*
X0117410Y0392561D02*
X0138529Y0392561D01*
X0137730Y0393360D02*
X0117410Y0393360D01*
X0117410Y0394158D02*
X0136932Y0394158D01*
X0136133Y0394957D02*
X0117410Y0394957D01*
X0117410Y0395755D02*
X0135335Y0395755D01*
X0134536Y0396554D02*
X0117410Y0396554D01*
X0117410Y0397352D02*
X0133738Y0397352D01*
X0132939Y0398151D02*
X0117410Y0398151D01*
X0117410Y0398949D02*
X0132141Y0398949D01*
X0131342Y0399748D02*
X0117410Y0399748D01*
X0117410Y0400546D02*
X0130544Y0400546D01*
X0129745Y0401345D02*
X0117410Y0401345D01*
X0117410Y0402143D02*
X0128947Y0402143D01*
X0128148Y0402942D02*
X0117410Y0402942D01*
X0117410Y0403741D02*
X0127350Y0403741D01*
X0126551Y0404539D02*
X0117410Y0404539D01*
X0117410Y0405338D02*
X0125753Y0405338D01*
X0124954Y0406136D02*
X0117410Y0406136D01*
X0117410Y0406935D02*
X0124156Y0406935D01*
X0123357Y0407733D02*
X0117410Y0407733D01*
X0117410Y0408532D02*
X0122559Y0408532D01*
X0121760Y0409330D02*
X0117410Y0409330D01*
X0117410Y0410129D02*
X0120962Y0410129D01*
X0120163Y0410927D02*
X0117410Y0410927D01*
X0117410Y0411726D02*
X0119365Y0411726D01*
X0118566Y0412524D02*
X0117410Y0412524D01*
X0117410Y0413323D02*
X0117767Y0413323D01*
X0119910Y0420509D02*
X0128488Y0420509D01*
X0128547Y0421308D02*
X0119910Y0421308D01*
X0119910Y0422106D02*
X0128877Y0422106D01*
X0129307Y0422905D02*
X0119910Y0422905D01*
X0119910Y0423703D02*
X0130106Y0423703D01*
X0130496Y0424502D02*
X0120282Y0424502D01*
X0121080Y0425300D02*
X0129606Y0425300D01*
X0129001Y0426099D02*
X0121879Y0426099D01*
X0122410Y0426897D02*
X0128670Y0426897D01*
X0128488Y0427696D02*
X0122410Y0427696D01*
X0122410Y0428494D02*
X0128488Y0428494D01*
X0128593Y0429293D02*
X0122573Y0429293D01*
X0123371Y0430091D02*
X0128923Y0430091D01*
X0129418Y0430890D02*
X0124170Y0430890D01*
X0129968Y0431688D02*
X0130217Y0431688D01*
X0130767Y0432487D02*
X0151103Y0432487D01*
X0151053Y0431688D02*
X0151902Y0431688D01*
X0151851Y0430890D02*
X0152700Y0430890D01*
X0152546Y0430091D02*
X0152346Y0430091D01*
X0145965Y0431688D02*
X0143179Y0431688D01*
X0143977Y0430890D02*
X0145166Y0430890D01*
X0144672Y0430091D02*
X0144472Y0430091D01*
X0138091Y0431688D02*
X0135305Y0431688D01*
X0136103Y0430890D02*
X0137292Y0430890D01*
X0136797Y0430091D02*
X0136598Y0430091D01*
X0129297Y0407733D02*
X0265073Y0407733D01*
X0264275Y0406935D02*
X0130095Y0406935D01*
X0130894Y0406136D02*
X0263476Y0406136D01*
X0262678Y0405338D02*
X0131692Y0405338D01*
X0132491Y0404539D02*
X0261879Y0404539D01*
X0261081Y0403741D02*
X0133289Y0403741D01*
X0134088Y0402942D02*
X0260282Y0402942D01*
X0259484Y0402143D02*
X0134886Y0402143D01*
X0135685Y0401345D02*
X0258685Y0401345D01*
X0253969Y0369405D02*
X0249649Y0369405D01*
X0250666Y0368606D02*
X0253171Y0368606D01*
X0252486Y0367808D02*
X0251324Y0367808D01*
X0251760Y0367009D02*
X0252156Y0367009D01*
X0247460Y0367009D02*
X0246660Y0367009D01*
X0246660Y0367808D02*
X0247460Y0367808D01*
X0247460Y0368606D02*
X0246660Y0368606D01*
X0246660Y0369405D02*
X0247460Y0369405D01*
X0247460Y0366210D02*
X0246660Y0366210D01*
X0246660Y0365412D02*
X0247460Y0365412D01*
X0252810Y0355780D02*
X0260077Y0348513D01*
X0259567Y0348002D01*
X0258760Y0346054D01*
X0258760Y0343946D01*
X0259567Y0341998D01*
X0261058Y0340507D01*
X0262573Y0339879D01*
X0262102Y0339726D01*
X0261387Y0339362D01*
X0260738Y0338890D01*
X0260170Y0338322D01*
X0259698Y0337673D01*
X0259334Y0336958D01*
X0259086Y0336194D01*
X0258960Y0335401D01*
X0258960Y0335400D01*
X0263660Y0335400D01*
X0263660Y0334600D01*
X0264460Y0334600D01*
X0264460Y0329900D01*
X0264461Y0329900D01*
X0265254Y0330026D01*
X0266018Y0330274D01*
X0266733Y0330638D01*
X0267382Y0331110D01*
X0267950Y0331678D01*
X0268422Y0332327D01*
X0268786Y0333042D01*
X0268939Y0333513D01*
X0269567Y0331998D01*
X0270702Y0330862D01*
X0264440Y0324600D01*
X0253190Y0324600D01*
X0251960Y0323370D01*
X0240690Y0312100D01*
X0224440Y0312100D01*
X0223210Y0310870D01*
X0219440Y0307100D01*
X0208301Y0307100D01*
X0207349Y0308052D01*
X0206026Y0308600D01*
X0205630Y0308600D01*
X0252810Y0355780D01*
X0252061Y0355031D02*
X0253559Y0355031D01*
X0254357Y0354233D02*
X0251263Y0354233D01*
X0250464Y0353434D02*
X0255156Y0353434D01*
X0255954Y0352636D02*
X0249666Y0352636D01*
X0248867Y0351837D02*
X0256753Y0351837D01*
X0257551Y0351039D02*
X0248069Y0351039D01*
X0247270Y0350240D02*
X0258350Y0350240D01*
X0259148Y0349442D02*
X0246472Y0349442D01*
X0245673Y0348643D02*
X0259947Y0348643D01*
X0259502Y0347845D02*
X0244875Y0347845D01*
X0244076Y0347046D02*
X0259171Y0347046D01*
X0258840Y0346248D02*
X0243278Y0346248D01*
X0242479Y0345449D02*
X0258760Y0345449D01*
X0258760Y0344651D02*
X0241680Y0344651D01*
X0240882Y0343852D02*
X0258799Y0343852D01*
X0259130Y0343054D02*
X0240083Y0343054D01*
X0239285Y0342255D02*
X0259460Y0342255D01*
X0260108Y0341457D02*
X0238486Y0341457D01*
X0237688Y0340658D02*
X0260907Y0340658D01*
X0260973Y0339061D02*
X0236091Y0339061D01*
X0235292Y0338263D02*
X0260126Y0338263D01*
X0259592Y0337464D02*
X0234494Y0337464D01*
X0233695Y0336666D02*
X0259239Y0336666D01*
X0259034Y0335867D02*
X0232897Y0335867D01*
X0232098Y0335069D02*
X0263660Y0335069D01*
X0263660Y0334600D02*
X0258960Y0334600D01*
X0258960Y0334599D01*
X0259086Y0333806D01*
X0259334Y0333042D01*
X0259698Y0332327D01*
X0260170Y0331678D01*
X0260738Y0331110D01*
X0261387Y0330638D01*
X0262102Y0330274D01*
X0262866Y0330026D01*
X0263659Y0329900D01*
X0263660Y0329900D01*
X0263660Y0334600D01*
X0263660Y0334270D02*
X0264460Y0334270D01*
X0264460Y0333472D02*
X0263660Y0333472D01*
X0263660Y0332673D02*
X0264460Y0332673D01*
X0264460Y0331874D02*
X0263660Y0331874D01*
X0263660Y0331076D02*
X0264460Y0331076D01*
X0264460Y0330277D02*
X0263660Y0330277D01*
X0262095Y0330277D02*
X0227307Y0330277D01*
X0226509Y0329479D02*
X0269319Y0329479D01*
X0268521Y0328680D02*
X0225710Y0328680D01*
X0224912Y0327882D02*
X0267722Y0327882D01*
X0266924Y0327083D02*
X0224113Y0327083D01*
X0223315Y0326285D02*
X0266125Y0326285D01*
X0265327Y0325486D02*
X0222516Y0325486D01*
X0221718Y0324688D02*
X0264528Y0324688D01*
X0266025Y0330277D02*
X0270118Y0330277D01*
X0270489Y0331076D02*
X0267336Y0331076D01*
X0268093Y0331874D02*
X0269690Y0331874D01*
X0269287Y0332673D02*
X0268598Y0332673D01*
X0268926Y0333472D02*
X0268956Y0333472D01*
X0260784Y0331076D02*
X0228106Y0331076D01*
X0228904Y0331874D02*
X0260027Y0331874D01*
X0259522Y0332673D02*
X0229703Y0332673D01*
X0230501Y0333472D02*
X0259194Y0333472D01*
X0259012Y0334270D02*
X0231300Y0334270D01*
X0236889Y0339860D02*
X0262512Y0339860D01*
X0252480Y0323889D02*
X0220919Y0323889D01*
X0220121Y0323091D02*
X0251681Y0323091D01*
X0250883Y0322292D02*
X0219322Y0322292D01*
X0218524Y0321494D02*
X0250084Y0321494D01*
X0249285Y0320695D02*
X0217725Y0320695D01*
X0216927Y0319897D02*
X0248487Y0319897D01*
X0247688Y0319098D02*
X0216128Y0319098D01*
X0215330Y0318300D02*
X0246890Y0318300D01*
X0246091Y0317501D02*
X0214531Y0317501D01*
X0213733Y0316703D02*
X0245293Y0316703D01*
X0244494Y0315904D02*
X0212934Y0315904D01*
X0212136Y0315106D02*
X0243696Y0315106D01*
X0242897Y0314307D02*
X0211337Y0314307D01*
X0210539Y0313509D02*
X0242099Y0313509D01*
X0241300Y0312710D02*
X0209740Y0312710D01*
X0208942Y0311912D02*
X0224252Y0311912D01*
X0223453Y0311113D02*
X0208143Y0311113D01*
X0207345Y0310315D02*
X0222655Y0310315D01*
X0221856Y0309516D02*
X0206546Y0309516D01*
X0205747Y0308718D02*
X0221058Y0308718D01*
X0220259Y0307919D02*
X0207482Y0307919D01*
X0208280Y0307121D02*
X0219461Y0307121D01*
X0224359Y0302330D02*
X0257170Y0302330D01*
X0257968Y0303128D02*
X0225158Y0303128D01*
X0225956Y0303927D02*
X0258767Y0303927D01*
X0259565Y0304725D02*
X0226755Y0304725D01*
X0223561Y0301531D02*
X0256371Y0301531D01*
X0255573Y0300733D02*
X0222762Y0300733D01*
X0195603Y0338263D02*
X0128146Y0338263D01*
X0128944Y0339061D02*
X0196401Y0339061D01*
X0197200Y0339860D02*
X0129743Y0339860D01*
X0130541Y0340658D02*
X0197998Y0340658D01*
X0198797Y0341457D02*
X0131340Y0341457D01*
X0132139Y0342255D02*
X0199595Y0342255D01*
X0200394Y0343054D02*
X0132937Y0343054D01*
X0133736Y0343852D02*
X0201192Y0343852D01*
X0201991Y0344651D02*
X0134534Y0344651D01*
X0135333Y0345449D02*
X0202789Y0345449D01*
X0203588Y0346248D02*
X0136131Y0346248D01*
X0136930Y0347046D02*
X0193173Y0347046D01*
X0197447Y0347046D02*
X0204386Y0347046D01*
X0205185Y0347845D02*
X0198246Y0347845D01*
X0198645Y0348643D02*
X0205983Y0348643D01*
X0206782Y0349442D02*
X0198910Y0349442D01*
X0198910Y0350240D02*
X0207580Y0350240D01*
X0208379Y0351039D02*
X0198776Y0351039D01*
X0198446Y0351837D02*
X0209177Y0351837D01*
X0209976Y0352636D02*
X0197765Y0352636D01*
X0196426Y0353434D02*
X0210774Y0353434D01*
X0211573Y0354233D02*
X0159401Y0354233D01*
X0160199Y0353434D02*
X0194194Y0353434D01*
X0192855Y0352636D02*
X0160998Y0352636D01*
X0158602Y0355031D02*
X0212371Y0355031D01*
X0213170Y0355830D02*
X0157804Y0355830D01*
X0157005Y0356628D02*
X0213968Y0356628D01*
X0214767Y0357427D02*
X0156207Y0357427D01*
X0155408Y0358225D02*
X0215566Y0358225D01*
X0216364Y0359024D02*
X0154609Y0359024D01*
X0153811Y0359822D02*
X0217163Y0359822D01*
X0194804Y0337464D02*
X0127347Y0337464D01*
X0126549Y0336666D02*
X0194006Y0336666D01*
X0193207Y0335867D02*
X0125750Y0335867D01*
X0124952Y0335069D02*
X0192409Y0335069D01*
X0191610Y0334270D02*
X0124153Y0334270D01*
X0123355Y0333472D02*
X0190812Y0333472D01*
X0190013Y0332673D02*
X0122556Y0332673D01*
X0121758Y0331874D02*
X0189215Y0331874D01*
X0188416Y0331076D02*
X0120959Y0331076D01*
X0120161Y0330277D02*
X0187618Y0330277D01*
X0186819Y0329479D02*
X0119362Y0329479D01*
X0118910Y0328680D02*
X0186021Y0328680D01*
X0185222Y0327882D02*
X0118847Y0327882D01*
X0118516Y0327083D02*
X0184424Y0327083D01*
X0183625Y0326285D02*
X0117936Y0326285D01*
X0116838Y0325486D02*
X0182827Y0325486D01*
X0182028Y0324688D02*
X0114571Y0324688D01*
X0113773Y0323889D02*
X0181230Y0323889D01*
X0180431Y0323091D02*
X0112974Y0323091D01*
X0112176Y0322292D02*
X0179633Y0322292D01*
X0178834Y0321494D02*
X0111377Y0321494D01*
X0110579Y0320695D02*
X0178035Y0320695D01*
X0177237Y0319897D02*
X0125493Y0319897D01*
X0124460Y0319897D02*
X0123660Y0319897D01*
X0123660Y0319098D02*
X0124460Y0319098D01*
X0124460Y0318300D02*
X0123660Y0318300D01*
X0123660Y0317501D02*
X0124460Y0317501D01*
X0124460Y0316703D02*
X0123660Y0316703D01*
X0123660Y0315904D02*
X0124460Y0315904D01*
X0124460Y0315106D02*
X0172446Y0315106D01*
X0173244Y0315904D02*
X0129080Y0315904D01*
X0128869Y0316703D02*
X0174043Y0316703D01*
X0174841Y0317501D02*
X0128509Y0317501D01*
X0127966Y0318300D02*
X0175640Y0318300D01*
X0176438Y0319098D02*
X0127096Y0319098D01*
X0122627Y0319897D02*
X0116088Y0319897D01*
X0117457Y0319098D02*
X0121024Y0319098D01*
X0120154Y0318300D02*
X0118255Y0318300D01*
X0118761Y0317501D02*
X0119611Y0317501D01*
X0119251Y0316703D02*
X0119091Y0316703D01*
X0112032Y0319897D02*
X0109780Y0319897D01*
X0108982Y0319098D02*
X0110663Y0319098D01*
X0109864Y0318300D02*
X0108255Y0318300D01*
X0108761Y0317501D02*
X0109359Y0317501D01*
X0104730Y0321494D02*
X0085003Y0321494D01*
X0086444Y0322292D02*
X0105529Y0322292D01*
X0106327Y0323091D02*
X0087166Y0323091D01*
X0087497Y0323889D02*
X0107126Y0323889D01*
X0107924Y0324688D02*
X0087660Y0324688D01*
X0087660Y0325486D02*
X0108723Y0325486D01*
X0109522Y0326285D02*
X0087424Y0326285D01*
X0087068Y0327083D02*
X0110320Y0327083D01*
X0111119Y0327882D02*
X0086269Y0327882D01*
X0086160Y0328680D02*
X0111710Y0328680D01*
X0111715Y0329479D02*
X0086160Y0329479D01*
X0086160Y0330277D02*
X0112046Y0330277D01*
X0112545Y0331076D02*
X0086856Y0331076D01*
X0087654Y0331874D02*
X0113446Y0331874D01*
X0115910Y0332673D02*
X0088453Y0332673D01*
X0089251Y0333472D02*
X0116708Y0333472D01*
X0117507Y0334270D02*
X0090050Y0334270D01*
X0090848Y0335069D02*
X0118305Y0335069D01*
X0119104Y0335867D02*
X0091647Y0335867D01*
X0092445Y0336666D02*
X0119902Y0336666D01*
X0120701Y0337464D02*
X0093244Y0337464D01*
X0094042Y0338263D02*
X0121499Y0338263D01*
X0122298Y0339061D02*
X0094841Y0339061D01*
X0095639Y0339860D02*
X0123096Y0339860D01*
X0123895Y0340658D02*
X0096438Y0340658D01*
X0097236Y0341457D02*
X0105707Y0341457D01*
X0104214Y0342255D02*
X0098035Y0342255D01*
X0098833Y0343054D02*
X0103470Y0343054D01*
X0103139Y0343852D02*
X0099632Y0343852D01*
X0100431Y0344651D02*
X0102960Y0344651D01*
X0102960Y0345449D02*
X0101229Y0345449D01*
X0102028Y0346248D02*
X0103180Y0346248D01*
X0103515Y0347046D02*
X0102826Y0347046D01*
X0103625Y0347845D02*
X0104314Y0347845D01*
X0104423Y0348643D02*
X0128483Y0348643D01*
X0129282Y0349442D02*
X0105222Y0349442D01*
X0106020Y0350240D02*
X0130080Y0350240D01*
X0130879Y0351039D02*
X0106819Y0351039D01*
X0107617Y0351837D02*
X0131677Y0351837D01*
X0132476Y0352636D02*
X0108416Y0352636D01*
X0109214Y0353434D02*
X0133274Y0353434D01*
X0134073Y0354233D02*
X0110013Y0354233D01*
X0110811Y0355031D02*
X0134871Y0355031D01*
X0135670Y0355830D02*
X0111610Y0355830D01*
X0112408Y0356628D02*
X0136469Y0356628D01*
X0137267Y0357427D02*
X0113207Y0357427D01*
X0114005Y0358225D02*
X0138066Y0358225D01*
X0138864Y0359024D02*
X0114804Y0359024D01*
X0115602Y0359822D02*
X0139663Y0359822D01*
X0140461Y0360621D02*
X0116401Y0360621D01*
X0117199Y0361419D02*
X0141260Y0361419D01*
X0142058Y0362218D02*
X0117998Y0362218D01*
X0118796Y0363016D02*
X0142857Y0363016D01*
X0143655Y0363815D02*
X0119595Y0363815D01*
X0120393Y0364613D02*
X0144454Y0364613D01*
X0145252Y0365412D02*
X0122909Y0365412D01*
X0124112Y0366210D02*
X0146051Y0366210D01*
X0146849Y0367009D02*
X0124735Y0367009D01*
X0125066Y0367808D02*
X0147648Y0367808D01*
X0148446Y0368606D02*
X0125160Y0368606D01*
X0125160Y0369405D02*
X0149245Y0369405D01*
X0150043Y0370203D02*
X0124855Y0370203D01*
X0124400Y0371002D02*
X0150842Y0371002D01*
X0151640Y0371800D02*
X0123601Y0371800D01*
X0119519Y0371800D02*
X0117410Y0371800D01*
X0117410Y0371002D02*
X0118720Y0371002D01*
X0118265Y0370203D02*
X0117410Y0370203D01*
X0117410Y0369405D02*
X0117960Y0369405D01*
X0117960Y0368606D02*
X0117410Y0368606D01*
X0117410Y0367808D02*
X0117648Y0367808D01*
X0117410Y0372599D02*
X0152439Y0372599D01*
X0153237Y0373397D02*
X0117410Y0373397D01*
X0117410Y0374196D02*
X0154036Y0374196D01*
X0154834Y0374994D02*
X0117410Y0374994D01*
X0117410Y0375793D02*
X0155633Y0375793D01*
X0156431Y0376591D02*
X0117410Y0376591D01*
X0117410Y0377390D02*
X0157230Y0377390D01*
X0158028Y0378188D02*
X0117410Y0378188D01*
X0117410Y0378987D02*
X0158827Y0378987D01*
X0159625Y0379785D02*
X0117410Y0379785D01*
X0117410Y0380584D02*
X0160424Y0380584D01*
X0161222Y0381382D02*
X0117410Y0381382D01*
X0117410Y0382181D02*
X0162021Y0382181D01*
X0162819Y0382979D02*
X0117410Y0382979D01*
X0117410Y0383778D02*
X0163618Y0383778D01*
X0164416Y0384576D02*
X0117410Y0384576D01*
X0117410Y0385375D02*
X0165215Y0385375D01*
X0166013Y0386173D02*
X0117410Y0386173D01*
X0117410Y0386972D02*
X0165747Y0386972D01*
X0164949Y0387770D02*
X0117410Y0387770D01*
X0104878Y0417315D02*
X0076160Y0417315D01*
X0076160Y0418114D02*
X0102684Y0418114D01*
X0101254Y0418912D02*
X0076160Y0418912D01*
X0076160Y0419711D02*
X0100302Y0419711D01*
X0099350Y0420509D02*
X0076160Y0420509D01*
X0076160Y0421308D02*
X0080750Y0421308D01*
X0078999Y0422106D02*
X0076160Y0422106D01*
X0076160Y0422905D02*
X0078047Y0422905D01*
X0077096Y0423703D02*
X0076160Y0423703D01*
X0076160Y0424502D02*
X0076496Y0424502D01*
X0087370Y0421308D02*
X0098877Y0421308D01*
X0098416Y0422106D02*
X0089121Y0422106D01*
X0088782Y0421822D02*
X0088782Y0421822D01*
X0090072Y0422905D02*
X0097955Y0422905D01*
X0097686Y0423370D02*
X0097686Y0423370D01*
X0097627Y0423703D02*
X0091024Y0423703D01*
X0091294Y0423930D02*
X0091294Y0423930D01*
X0091294Y0423930D01*
X0091624Y0424502D02*
X0097486Y0424502D01*
X0097346Y0425300D02*
X0092085Y0425300D01*
X0092546Y0426099D02*
X0097205Y0426099D01*
X0097117Y0426600D02*
X0097117Y0426600D01*
X0097169Y0426897D02*
X0092956Y0426897D01*
X0093097Y0427696D02*
X0097310Y0427696D01*
X0097451Y0428494D02*
X0093238Y0428494D01*
X0093379Y0429293D02*
X0097591Y0429293D01*
X0097837Y0430091D02*
X0093487Y0430091D01*
X0093503Y0430000D02*
X0093503Y0430000D01*
X0093347Y0430890D02*
X0098298Y0430890D01*
X0098759Y0431688D02*
X0093206Y0431688D01*
X0093065Y0432487D02*
X0099220Y0432487D01*
X0099326Y0432670D02*
X0099326Y0432670D01*
X0099326Y0432670D01*
X0100059Y0433285D02*
X0092902Y0433285D01*
X0092934Y0433230D02*
X0092934Y0433230D01*
X0092441Y0434084D02*
X0101011Y0434084D01*
X0101838Y0434778D02*
X0101838Y0434778D01*
X0102125Y0434882D02*
X0091980Y0434882D01*
X0091519Y0435681D02*
X0104318Y0435681D01*
X0108802Y0435681D02*
X0119271Y0435681D01*
X0118473Y0434882D02*
X0110995Y0434882D01*
X0112109Y0434084D02*
X0117674Y0434084D01*
X0116876Y0433285D02*
X0113061Y0433285D01*
X0113900Y0432487D02*
X0116077Y0432487D01*
X0115710Y0431688D02*
X0114361Y0431688D01*
X0114822Y0430890D02*
X0115710Y0430890D01*
X0115710Y0430091D02*
X0115283Y0430091D01*
X0115434Y0429830D02*
X0115434Y0429830D01*
X0120070Y0436479D02*
X0090806Y0436479D01*
X0089855Y0437278D02*
X0120868Y0437278D01*
X0169106Y0393360D02*
X0173200Y0393360D01*
X0172402Y0392561D02*
X0170340Y0392561D01*
X0170976Y0391763D02*
X0171603Y0391763D01*
X0149560Y0357427D02*
X0147310Y0357427D01*
X0146512Y0356628D02*
X0150358Y0356628D01*
X0151157Y0355830D02*
X0145713Y0355830D01*
X0144915Y0355031D02*
X0151955Y0355031D01*
X0152754Y0354233D02*
X0144116Y0354233D01*
X0143318Y0353434D02*
X0153552Y0353434D01*
X0154351Y0352636D02*
X0142519Y0352636D01*
X0141721Y0351837D02*
X0155149Y0351837D01*
X0155948Y0351039D02*
X0140922Y0351039D01*
X0140124Y0350240D02*
X0156746Y0350240D01*
X0157545Y0349442D02*
X0139325Y0349442D01*
X0138527Y0348643D02*
X0158343Y0348643D01*
X0159142Y0347845D02*
X0137728Y0347845D01*
X0125185Y0347845D02*
X0108806Y0347845D01*
X0108906Y0342255D02*
X0125492Y0342255D01*
X0124693Y0341457D02*
X0107413Y0341457D01*
X0103932Y0320695D02*
X0082410Y0320695D01*
X0082410Y0319897D02*
X0102032Y0319897D01*
X0100663Y0319098D02*
X0082410Y0319098D01*
X0082410Y0318300D02*
X0099864Y0318300D01*
X0099359Y0317501D02*
X0082410Y0317501D01*
X0082410Y0316703D02*
X0099029Y0316703D01*
X0098760Y0315904D02*
X0082410Y0315904D01*
X0082410Y0315106D02*
X0098760Y0315106D01*
X0098760Y0314307D02*
X0082410Y0314307D01*
X0082410Y0313509D02*
X0097995Y0313509D01*
X0097197Y0312710D02*
X0082410Y0312710D01*
X0082410Y0311912D02*
X0096398Y0311912D01*
X0095600Y0311113D02*
X0082410Y0311113D01*
X0082410Y0310315D02*
X0094801Y0310315D01*
X0094003Y0309516D02*
X0082410Y0309516D01*
X0082410Y0308718D02*
X0093204Y0308718D01*
X0092406Y0307919D02*
X0082410Y0307919D01*
X0082410Y0307121D02*
X0091607Y0307121D01*
X0090809Y0306322D02*
X0082410Y0306322D01*
X0082410Y0305524D02*
X0090460Y0305524D01*
X0090460Y0304725D02*
X0082410Y0304725D01*
X0082410Y0303927D02*
X0090560Y0303927D01*
X0091358Y0303128D02*
X0082410Y0303128D01*
X0082410Y0302330D02*
X0092157Y0302330D01*
X0092956Y0301531D02*
X0082410Y0301531D01*
X0082410Y0300733D02*
X0093754Y0300733D01*
X0094553Y0299934D02*
X0082410Y0299934D01*
X0082410Y0299136D02*
X0095351Y0299136D01*
X0096150Y0298337D02*
X0082410Y0298337D01*
X0082410Y0297539D02*
X0096948Y0297539D01*
X0097747Y0296740D02*
X0082410Y0296740D01*
X0082410Y0295941D02*
X0097960Y0295941D01*
X0098122Y0295143D02*
X0082410Y0295143D01*
X0082410Y0294344D02*
X0098453Y0294344D01*
X0099173Y0293546D02*
X0082410Y0293546D01*
X0082410Y0292747D02*
X0100088Y0292747D01*
X0099289Y0291949D02*
X0082410Y0291949D01*
X0082410Y0321494D02*
X0083117Y0321494D01*
X0126098Y0310315D02*
X0167655Y0310315D01*
X0168453Y0311113D02*
X0127386Y0311113D01*
X0128120Y0311912D02*
X0169252Y0311912D01*
X0170050Y0312710D02*
X0128617Y0312710D01*
X0128938Y0313509D02*
X0170849Y0313509D01*
X0171647Y0314307D02*
X0129114Y0314307D01*
X0127007Y0309516D02*
X0166856Y0309516D01*
X0166058Y0308718D02*
X0127838Y0308718D01*
X0128587Y0307919D02*
X0158138Y0307919D01*
X0157339Y0307121D02*
X0128918Y0307121D01*
X0162482Y0307919D02*
X0165259Y0307919D01*
X0164461Y0307121D02*
X0163280Y0307121D01*
X0163659Y0306322D02*
X0163662Y0306322D01*
X0275923Y0295143D02*
X0332483Y0295143D01*
X0333282Y0295941D02*
X0276721Y0295941D01*
X0277520Y0296740D02*
X0334080Y0296740D01*
X0334879Y0297539D02*
X0278318Y0297539D01*
X0279117Y0298337D02*
X0335677Y0298337D01*
X0336476Y0299136D02*
X0279915Y0299136D01*
X0280714Y0299934D02*
X0337274Y0299934D01*
X0338073Y0300733D02*
X0281512Y0300733D01*
X0282311Y0301531D02*
X0338871Y0301531D01*
X0339670Y0302330D02*
X0283109Y0302330D01*
X0283908Y0303128D02*
X0340468Y0303128D01*
X0341267Y0303927D02*
X0284706Y0303927D01*
X0285505Y0304725D02*
X0342065Y0304725D01*
X0342864Y0305524D02*
X0286303Y0305524D01*
X0287102Y0306322D02*
X0343662Y0306322D01*
X0344461Y0307121D02*
X0287900Y0307121D01*
X0288699Y0307919D02*
X0345259Y0307919D01*
X0346058Y0308718D02*
X0289498Y0308718D01*
X0290296Y0309516D02*
X0346856Y0309516D01*
X0347655Y0310315D02*
X0291095Y0310315D01*
X0291893Y0311113D02*
X0348453Y0311113D01*
X0349252Y0311912D02*
X0292692Y0311912D01*
X0293490Y0312710D02*
X0350050Y0312710D01*
X0350849Y0313509D02*
X0294289Y0313509D01*
X0295087Y0314307D02*
X0351647Y0314307D01*
X0352446Y0315106D02*
X0295886Y0315106D01*
X0296684Y0315904D02*
X0353244Y0315904D01*
X0354043Y0316703D02*
X0297483Y0316703D01*
X0298281Y0317501D02*
X0354841Y0317501D01*
X0355640Y0318300D02*
X0299080Y0318300D01*
X0299878Y0319098D02*
X0356438Y0319098D01*
X0357237Y0319897D02*
X0300677Y0319897D01*
X0301475Y0320695D02*
X0358035Y0320695D01*
X0358834Y0321494D02*
X0302274Y0321494D01*
X0303072Y0322292D02*
X0359633Y0322292D01*
X0360431Y0323091D02*
X0303871Y0323091D01*
X0304669Y0323889D02*
X0360710Y0323889D01*
X0360710Y0324688D02*
X0307589Y0324688D01*
X0308373Y0325486D02*
X0360710Y0325486D01*
X0360710Y0326285D02*
X0308703Y0326285D01*
X0308910Y0327083D02*
X0360710Y0327083D01*
X0360710Y0327882D02*
X0308910Y0327882D01*
X0308718Y0328680D02*
X0360710Y0328680D01*
X0360710Y0329479D02*
X0308387Y0329479D01*
X0307624Y0330277D02*
X0360710Y0330277D01*
X0360710Y0331076D02*
X0306856Y0331076D01*
X0307654Y0331874D02*
X0360710Y0331874D01*
X0360710Y0332673D02*
X0309832Y0332673D01*
X0311373Y0333472D02*
X0360710Y0333472D01*
X0360710Y0334270D02*
X0312136Y0334270D01*
X0312467Y0335069D02*
X0360710Y0335069D01*
X0360710Y0335867D02*
X0312660Y0335867D01*
X0312660Y0336666D02*
X0360710Y0336666D01*
X0360710Y0337464D02*
X0312454Y0337464D01*
X0312123Y0338263D02*
X0360710Y0338263D01*
X0360710Y0339061D02*
X0311340Y0339061D01*
X0310639Y0339860D02*
X0360710Y0339860D01*
X0360710Y0340658D02*
X0311438Y0340658D01*
X0312236Y0341457D02*
X0360710Y0341457D01*
X0360710Y0342255D02*
X0313035Y0342255D01*
X0313833Y0343054D02*
X0360710Y0343054D01*
X0360710Y0343852D02*
X0314632Y0343852D01*
X0315430Y0344651D02*
X0360710Y0344651D01*
X0360710Y0345449D02*
X0316229Y0345449D01*
X0317028Y0346248D02*
X0360710Y0346248D01*
X0360710Y0347046D02*
X0317826Y0347046D01*
X0318625Y0347845D02*
X0360710Y0347845D01*
X0360710Y0348643D02*
X0319423Y0348643D01*
X0320222Y0349442D02*
X0360710Y0349442D01*
X0360710Y0350240D02*
X0321020Y0350240D01*
X0321819Y0351039D02*
X0360710Y0351039D01*
X0360710Y0351837D02*
X0322617Y0351837D01*
X0323416Y0352636D02*
X0360710Y0352636D01*
X0360710Y0353434D02*
X0324214Y0353434D01*
X0325013Y0354233D02*
X0360710Y0354233D01*
X0360710Y0355031D02*
X0325811Y0355031D01*
X0326610Y0355830D02*
X0360710Y0355830D01*
X0360710Y0356628D02*
X0327408Y0356628D01*
X0328207Y0357427D02*
X0360710Y0357427D01*
X0360710Y0358225D02*
X0329005Y0358225D01*
X0329804Y0359024D02*
X0360710Y0359024D01*
X0360710Y0359822D02*
X0330602Y0359822D01*
X0331401Y0360621D02*
X0360710Y0360621D01*
X0360710Y0361419D02*
X0355177Y0361419D01*
X0356282Y0361822D02*
X0356282Y0361822D01*
X0356754Y0362218D02*
X0360710Y0362218D01*
X0360710Y0363016D02*
X0357706Y0363016D01*
X0358657Y0363815D02*
X0360710Y0363815D01*
X0360710Y0364613D02*
X0359189Y0364613D01*
X0358794Y0363930D02*
X0358794Y0363930D01*
X0359650Y0365412D02*
X0360710Y0365412D01*
X0360710Y0366210D02*
X0360111Y0366210D01*
X0360476Y0367009D02*
X0360710Y0367009D01*
X0360710Y0367808D02*
X0360617Y0367808D01*
X0347943Y0361419D02*
X0332199Y0361419D01*
X0332998Y0362218D02*
X0346366Y0362218D01*
X0346838Y0361822D02*
X0346838Y0361822D01*
X0345414Y0363016D02*
X0333796Y0363016D01*
X0334595Y0363815D02*
X0344463Y0363815D01*
X0344326Y0363930D02*
X0344326Y0363930D01*
X0343931Y0364613D02*
X0335393Y0364613D01*
X0336192Y0365412D02*
X0343470Y0365412D01*
X0343009Y0366210D02*
X0336990Y0366210D01*
X0337789Y0367009D02*
X0342644Y0367009D01*
X0342686Y0366770D02*
X0342686Y0366770D01*
X0342503Y0367808D02*
X0338587Y0367808D01*
X0339386Y0368606D02*
X0342362Y0368606D01*
X0298015Y0358225D02*
X0278330Y0358225D01*
X0278791Y0357427D02*
X0297217Y0357427D01*
X0296418Y0356628D02*
X0293773Y0356628D01*
X0294571Y0355830D02*
X0295620Y0355830D01*
X0295710Y0359822D02*
X0288410Y0359822D01*
X0290176Y0360621D02*
X0293944Y0360621D01*
X0293145Y0361419D02*
X0290975Y0361419D01*
X0291644Y0362218D02*
X0292476Y0362218D01*
X0292145Y0363016D02*
X0291975Y0363016D01*
X0291964Y0367009D02*
X0292156Y0367009D01*
X0292486Y0367808D02*
X0291634Y0367808D01*
X0290949Y0368606D02*
X0293171Y0368606D01*
X0293969Y0369405D02*
X0290151Y0369405D01*
X0288348Y0370203D02*
X0295772Y0370203D01*
X0289347Y0356628D02*
X0279122Y0356628D01*
X0372047Y0069164D02*
X0086073Y0069164D01*
X0088267Y0068366D02*
X0369853Y0068366D01*
X0369338Y0068178D02*
X0369338Y0068178D01*
X0368610Y0067567D02*
X0089510Y0067567D01*
X0090462Y0066769D02*
X0367658Y0066769D01*
X0366826Y0066070D02*
X0366826Y0066070D01*
X0366826Y0066070D01*
X0366768Y0065970D02*
X0091352Y0065970D01*
X0091813Y0065172D02*
X0366307Y0065172D01*
X0365846Y0064373D02*
X0092274Y0064373D01*
X0092735Y0063575D02*
X0365385Y0063575D01*
X0365106Y0062776D02*
X0093014Y0062776D01*
X0092934Y0063230D02*
X0092934Y0063230D01*
X0093155Y0061978D02*
X0364965Y0061978D01*
X0364824Y0061179D02*
X0093296Y0061179D01*
X0093436Y0060381D02*
X0364684Y0060381D01*
X0364617Y0060000D02*
X0364617Y0060000D01*
X0364690Y0059582D02*
X0093430Y0059582D01*
X0093503Y0060000D02*
X0093503Y0060000D01*
X0093289Y0058784D02*
X0364831Y0058784D01*
X0364972Y0057985D02*
X0093148Y0057985D01*
X0093007Y0057187D02*
X0365113Y0057187D01*
X0365186Y0056770D02*
X0365186Y0056770D01*
X0365407Y0056388D02*
X0092713Y0056388D01*
X0092252Y0055590D02*
X0365868Y0055590D01*
X0366329Y0054791D02*
X0091791Y0054791D01*
X0091330Y0053993D02*
X0366790Y0053993D01*
X0367703Y0053194D02*
X0090417Y0053194D01*
X0091294Y0053930D02*
X0091294Y0053930D01*
X0091294Y0053930D01*
X0089466Y0052396D02*
X0368654Y0052396D01*
X0376073Y0069164D02*
X0381960Y0069164D01*
X0381960Y0068366D02*
X0378267Y0068366D01*
X0379510Y0067567D02*
X0381960Y0067567D01*
X0381960Y0066769D02*
X0380462Y0066769D01*
X0381352Y0065970D02*
X0381960Y0065970D01*
X0381960Y0065172D02*
X0381813Y0065172D01*
D15*
X0244060Y0181250D02*
X0276560Y0213750D01*
X0276560Y0215000D01*
X0277060Y0215000D01*
X0276560Y0216250D01*
X0295310Y0235000D01*
X0287810Y0237500D02*
X0266560Y0216250D01*
X0267060Y0215000D01*
X0266560Y0215000D01*
X0266560Y0213750D01*
X0244060Y0191250D01*
X0247060Y0215000D02*
X0246560Y0216250D01*
X0321560Y0291250D01*
X0305310Y0327500D02*
X0199060Y0221250D01*
X0180310Y0221250D01*
X0141560Y0182500D01*
X0137810Y0182500D01*
X0124060Y0197500D02*
X0166560Y0240000D01*
X0212810Y0240000D01*
X0309060Y0336250D01*
X0312810Y0360000D02*
X0280310Y0327500D01*
X0274060Y0327500D01*
X0261560Y0315000D01*
X0254060Y0315000D01*
X0254060Y0322500D02*
X0265310Y0322500D01*
X0273435Y0330625D01*
X0273810Y0331000D01*
X0269060Y0316250D02*
X0260310Y0307500D01*
X0226560Y0307500D01*
X0221560Y0302500D01*
X0207810Y0302500D01*
X0140310Y0235000D01*
X0127810Y0235000D01*
X0137810Y0238750D02*
X0137810Y0275000D01*
X0140310Y0277500D01*
X0147810Y0283750D02*
X0111560Y0283750D01*
X0105310Y0277500D01*
X0096560Y0277500D01*
X0095310Y0276250D01*
X0091560Y0276250D02*
X0091560Y0277500D01*
X0094060Y0280000D01*
X0102810Y0280000D01*
X0109060Y0286250D01*
X0146560Y0286250D01*
X0266560Y0406250D01*
X0274060Y0406250D01*
X0289060Y0421250D01*
X0290241Y0420315D01*
X0294060Y0435000D02*
X0155310Y0435000D01*
X0152810Y0437500D01*
X0124060Y0437500D01*
X0117810Y0431250D01*
X0117810Y0428750D01*
X0115310Y0426250D01*
X0115310Y0366250D01*
X0081560Y0332500D01*
X0081560Y0327500D01*
X0080310Y0326250D01*
X0080310Y0213750D01*
X0101560Y0192500D01*
X0114060Y0192500D01*
X0124060Y0202500D01*
X0124060Y0197500D02*
X0114060Y0187500D01*
X0101560Y0187500D01*
X0112810Y0196250D02*
X0101560Y0207500D01*
X0112810Y0196250D02*
X0119060Y0202500D01*
X0094060Y0248750D02*
X0082810Y0260000D01*
X0082810Y0267500D01*
X0091560Y0276250D01*
X0087810Y0277500D02*
X0114060Y0303750D01*
X0114060Y0305000D01*
X0109060Y0310000D02*
X0119060Y0310000D01*
X0124060Y0305000D02*
X0160310Y0305000D01*
X0147810Y0283750D02*
X0267810Y0403750D01*
X0277810Y0403750D01*
X0279060Y0397500D02*
X0316560Y0397500D01*
X0336560Y0417500D01*
X0336560Y0420000D01*
X0337485Y0420315D01*
X0336560Y0413750D02*
X0317810Y0395000D01*
X0289060Y0395000D01*
X0287810Y0393750D01*
X0280310Y0390000D02*
X0269060Y0401250D01*
X0149060Y0281250D01*
X0120310Y0281250D01*
X0119060Y0280000D01*
X0119060Y0262500D01*
X0114060Y0257500D01*
X0099060Y0257500D01*
X0095310Y0253750D01*
X0087810Y0262500D02*
X0114060Y0262500D01*
X0124060Y0262500D02*
X0114060Y0252500D01*
X0104060Y0305000D02*
X0109060Y0310000D01*
X0106560Y0345000D02*
X0125310Y0345000D01*
X0126560Y0346250D01*
X0129060Y0346250D01*
X0180310Y0397500D01*
X0167810Y0390000D02*
X0144060Y0390000D01*
X0117810Y0416250D01*
X0117810Y0425000D01*
X0120310Y0427500D01*
X0120310Y0430000D01*
X0124060Y0433750D01*
X0129060Y0433750D01*
X0130310Y0435000D01*
X0151560Y0435000D01*
X0156560Y0430000D01*
X0155310Y0428750D01*
X0156383Y0428189D01*
X0121560Y0368750D02*
X0084060Y0331250D01*
X0084060Y0325000D01*
X0167810Y0273750D02*
X0252810Y0358750D01*
X0264060Y0347500D01*
X0254060Y0322500D02*
X0241560Y0310000D01*
X0225310Y0310000D01*
X0220310Y0305000D01*
X0205310Y0305000D01*
X0219060Y0256250D02*
X0359060Y0396250D01*
X0350310Y0411250D02*
X0337810Y0411250D01*
X0316560Y0390000D01*
X0280310Y0390000D01*
X0305989Y0428189D02*
X0305310Y0428750D01*
X0296560Y0437500D01*
X0294060Y0435000D01*
X0314060Y0430000D02*
X0319060Y0435000D01*
X0330310Y0435000D01*
X0332810Y0437500D01*
X0357810Y0437500D01*
X0364060Y0431250D01*
X0362810Y0430000D01*
X0362810Y0322500D01*
X0256560Y0216250D01*
X0257060Y0215000D01*
X0211560Y0243750D02*
X0340310Y0372500D01*
X0350310Y0411250D02*
X0357810Y0418750D01*
X0357810Y0421250D01*
X0356560Y0422500D01*
X0356560Y0425000D01*
X0354060Y0427500D01*
X0353233Y0428583D01*
X0355310Y0435000D02*
X0360310Y0430000D01*
X0360310Y0416250D01*
X0352810Y0417500D02*
X0349060Y0413750D01*
X0336560Y0413750D01*
X0329611Y0428189D02*
X0330310Y0428750D01*
X0330310Y0430000D01*
X0335310Y0435000D01*
X0355310Y0435000D01*
X0353233Y0419921D02*
X0352810Y0418750D01*
X0352810Y0417500D01*
X0314060Y0428750D02*
X0313863Y0428189D01*
X0314060Y0428750D02*
X0314060Y0430000D01*
X0291560Y0333750D02*
X0205310Y0247500D01*
D16*
X0264060Y0345000D02*
X0264060Y0347500D01*
X0264060Y0347500D01*
X0274060Y0355000D02*
X0275310Y0353750D01*
X0291560Y0353750D01*
X0293113Y0350000D02*
X0360060Y0416947D01*
X0360060Y0427728D01*
X0354983Y0432806D01*
X0336130Y0432806D01*
X0331513Y0428189D01*
X0329611Y0428189D01*
X0293113Y0350000D02*
X0289060Y0350000D01*
X0274060Y0335000D01*
X0274060Y0331250D01*
X0273435Y0330625D01*
X0195310Y0350000D02*
X0160310Y0350000D01*
X0149060Y0361250D01*
X0147810Y0361250D01*
X0115310Y0328750D01*
X0105310Y0318750D01*
X0105310Y0317500D01*
X0104060Y0315000D01*
X0105310Y0316250D01*
X0105310Y0317500D01*
X0092810Y0305000D01*
X0101560Y0296250D01*
X0132810Y0420000D02*
X0132761Y0420315D01*
X0132810Y0420000D02*
X0136560Y0423750D01*
X0132810Y0427500D01*
X0132761Y0428189D01*
D17*
X0364060Y0250000D02*
X0236560Y0122500D01*
X0236360Y0122700D01*
M02*
