%
M48
M72
T01C0.0669
T02C0.1100
T03C0.1200
%
T01
X8941Y13000
X9941Y13000
X10941Y13000
X11941Y13000
X12941Y13000
X13941Y13000
X9641Y23000
X10641Y25000
X11641Y25000
X11641Y26000
X10641Y26000
X10641Y27000
X11641Y27000
X11941Y28000
X12941Y28000
X10941Y28000
X8941Y28000
T02
X11141Y10800
X11141Y30200
T03
X19391Y28500
X2891Y28500
X2891Y12500
X19391Y12500
M30
