G75*
%MOIN*%
%OFA0B0*%
%FSLAX25Y25*%
%IPPOS*%
%LPD*%
%AMOC8*
5,1,8,0,0,1.08239X$1,22.5*
%
%ADD10C,0.01000*%
%ADD11C,0.00000*%
D10*
X0074060Y0060000D02*
X0074060Y0430000D01*
X0074063Y0430242D01*
X0074072Y0430483D01*
X0074086Y0430724D01*
X0074107Y0430965D01*
X0074133Y0431205D01*
X0074165Y0431445D01*
X0074203Y0431684D01*
X0074246Y0431921D01*
X0074296Y0432158D01*
X0074351Y0432393D01*
X0074411Y0432627D01*
X0074478Y0432859D01*
X0074549Y0433090D01*
X0074627Y0433319D01*
X0074710Y0433546D01*
X0074798Y0433771D01*
X0074892Y0433994D01*
X0074991Y0434214D01*
X0075096Y0434432D01*
X0075205Y0434647D01*
X0075320Y0434860D01*
X0075440Y0435070D01*
X0075565Y0435276D01*
X0075695Y0435480D01*
X0075830Y0435681D01*
X0075970Y0435878D01*
X0076114Y0436072D01*
X0076263Y0436262D01*
X0076417Y0436448D01*
X0076575Y0436631D01*
X0076737Y0436810D01*
X0076904Y0436985D01*
X0077075Y0437156D01*
X0077250Y0437323D01*
X0077429Y0437485D01*
X0077612Y0437643D01*
X0077798Y0437797D01*
X0077988Y0437946D01*
X0078182Y0438090D01*
X0078379Y0438230D01*
X0078580Y0438365D01*
X0078784Y0438495D01*
X0078990Y0438620D01*
X0079200Y0438740D01*
X0079413Y0438855D01*
X0079628Y0438964D01*
X0079846Y0439069D01*
X0080066Y0439168D01*
X0080289Y0439262D01*
X0080514Y0439350D01*
X0080741Y0439433D01*
X0080970Y0439511D01*
X0081201Y0439582D01*
X0081433Y0439649D01*
X0081667Y0439709D01*
X0081902Y0439764D01*
X0082139Y0439814D01*
X0082376Y0439857D01*
X0082615Y0439895D01*
X0082855Y0439927D01*
X0083095Y0439953D01*
X0083336Y0439974D01*
X0083577Y0439988D01*
X0083818Y0439997D01*
X0084060Y0440000D01*
X0374060Y0440000D01*
X0374302Y0439997D01*
X0374543Y0439988D01*
X0374784Y0439974D01*
X0375025Y0439953D01*
X0375265Y0439927D01*
X0375505Y0439895D01*
X0375744Y0439857D01*
X0375981Y0439814D01*
X0376218Y0439764D01*
X0376453Y0439709D01*
X0376687Y0439649D01*
X0376919Y0439582D01*
X0377150Y0439511D01*
X0377379Y0439433D01*
X0377606Y0439350D01*
X0377831Y0439262D01*
X0378054Y0439168D01*
X0378274Y0439069D01*
X0378492Y0438964D01*
X0378707Y0438855D01*
X0378920Y0438740D01*
X0379130Y0438620D01*
X0379336Y0438495D01*
X0379540Y0438365D01*
X0379741Y0438230D01*
X0379938Y0438090D01*
X0380132Y0437946D01*
X0380322Y0437797D01*
X0380508Y0437643D01*
X0380691Y0437485D01*
X0380870Y0437323D01*
X0381045Y0437156D01*
X0381216Y0436985D01*
X0381383Y0436810D01*
X0381545Y0436631D01*
X0381703Y0436448D01*
X0381857Y0436262D01*
X0382006Y0436072D01*
X0382150Y0435878D01*
X0382290Y0435681D01*
X0382425Y0435480D01*
X0382555Y0435276D01*
X0382680Y0435070D01*
X0382800Y0434860D01*
X0382915Y0434647D01*
X0383024Y0434432D01*
X0383129Y0434214D01*
X0383228Y0433994D01*
X0383322Y0433771D01*
X0383410Y0433546D01*
X0383493Y0433319D01*
X0383571Y0433090D01*
X0383642Y0432859D01*
X0383709Y0432627D01*
X0383769Y0432393D01*
X0383824Y0432158D01*
X0383874Y0431921D01*
X0383917Y0431684D01*
X0383955Y0431445D01*
X0383987Y0431205D01*
X0384013Y0430965D01*
X0384034Y0430724D01*
X0384048Y0430483D01*
X0384057Y0430242D01*
X0384060Y0430000D01*
X0384060Y0060000D01*
X0384057Y0059758D01*
X0384048Y0059517D01*
X0384034Y0059276D01*
X0384013Y0059035D01*
X0383987Y0058795D01*
X0383955Y0058555D01*
X0383917Y0058316D01*
X0383874Y0058079D01*
X0383824Y0057842D01*
X0383769Y0057607D01*
X0383709Y0057373D01*
X0383642Y0057141D01*
X0383571Y0056910D01*
X0383493Y0056681D01*
X0383410Y0056454D01*
X0383322Y0056229D01*
X0383228Y0056006D01*
X0383129Y0055786D01*
X0383024Y0055568D01*
X0382915Y0055353D01*
X0382800Y0055140D01*
X0382680Y0054930D01*
X0382555Y0054724D01*
X0382425Y0054520D01*
X0382290Y0054319D01*
X0382150Y0054122D01*
X0382006Y0053928D01*
X0381857Y0053738D01*
X0381703Y0053552D01*
X0381545Y0053369D01*
X0381383Y0053190D01*
X0381216Y0053015D01*
X0381045Y0052844D01*
X0380870Y0052677D01*
X0380691Y0052515D01*
X0380508Y0052357D01*
X0380322Y0052203D01*
X0380132Y0052054D01*
X0379938Y0051910D01*
X0379741Y0051770D01*
X0379540Y0051635D01*
X0379336Y0051505D01*
X0379130Y0051380D01*
X0378920Y0051260D01*
X0378707Y0051145D01*
X0378492Y0051036D01*
X0378274Y0050931D01*
X0378054Y0050832D01*
X0377831Y0050738D01*
X0377606Y0050650D01*
X0377379Y0050567D01*
X0377150Y0050489D01*
X0376919Y0050418D01*
X0376687Y0050351D01*
X0376453Y0050291D01*
X0376218Y0050236D01*
X0375981Y0050186D01*
X0375744Y0050143D01*
X0375505Y0050105D01*
X0375265Y0050073D01*
X0375025Y0050047D01*
X0374784Y0050026D01*
X0374543Y0050012D01*
X0374302Y0050003D01*
X0374060Y0050000D01*
X0084060Y0050000D01*
X0083818Y0050003D01*
X0083577Y0050012D01*
X0083336Y0050026D01*
X0083095Y0050047D01*
X0082855Y0050073D01*
X0082615Y0050105D01*
X0082376Y0050143D01*
X0082139Y0050186D01*
X0081902Y0050236D01*
X0081667Y0050291D01*
X0081433Y0050351D01*
X0081201Y0050418D01*
X0080970Y0050489D01*
X0080741Y0050567D01*
X0080514Y0050650D01*
X0080289Y0050738D01*
X0080066Y0050832D01*
X0079846Y0050931D01*
X0079628Y0051036D01*
X0079413Y0051145D01*
X0079200Y0051260D01*
X0078990Y0051380D01*
X0078784Y0051505D01*
X0078580Y0051635D01*
X0078379Y0051770D01*
X0078182Y0051910D01*
X0077988Y0052054D01*
X0077798Y0052203D01*
X0077612Y0052357D01*
X0077429Y0052515D01*
X0077250Y0052677D01*
X0077075Y0052844D01*
X0076904Y0053015D01*
X0076737Y0053190D01*
X0076575Y0053369D01*
X0076417Y0053552D01*
X0076263Y0053738D01*
X0076114Y0053928D01*
X0075970Y0054122D01*
X0075830Y0054319D01*
X0075695Y0054520D01*
X0075565Y0054724D01*
X0075440Y0054930D01*
X0075320Y0055140D01*
X0075205Y0055353D01*
X0075096Y0055568D01*
X0074991Y0055786D01*
X0074892Y0056006D01*
X0074798Y0056229D01*
X0074710Y0056454D01*
X0074627Y0056681D01*
X0074549Y0056910D01*
X0074478Y0057141D01*
X0074411Y0057373D01*
X0074351Y0057607D01*
X0074296Y0057842D01*
X0074246Y0058079D01*
X0074203Y0058316D01*
X0074165Y0058555D01*
X0074133Y0058795D01*
X0074107Y0059035D01*
X0074086Y0059276D01*
X0074072Y0059517D01*
X0074063Y0059758D01*
X0074060Y0060000D01*
D11*
X0077560Y0060000D02*
X0077562Y0060161D01*
X0077568Y0060321D01*
X0077578Y0060482D01*
X0077592Y0060642D01*
X0077610Y0060802D01*
X0077631Y0060961D01*
X0077657Y0061120D01*
X0077687Y0061278D01*
X0077720Y0061435D01*
X0077758Y0061592D01*
X0077799Y0061747D01*
X0077844Y0061901D01*
X0077893Y0062054D01*
X0077946Y0062206D01*
X0078002Y0062357D01*
X0078063Y0062506D01*
X0078126Y0062654D01*
X0078194Y0062800D01*
X0078265Y0062944D01*
X0078339Y0063086D01*
X0078417Y0063227D01*
X0078499Y0063365D01*
X0078584Y0063502D01*
X0078672Y0063636D01*
X0078764Y0063768D01*
X0078859Y0063898D01*
X0078957Y0064026D01*
X0079058Y0064151D01*
X0079162Y0064273D01*
X0079269Y0064393D01*
X0079379Y0064510D01*
X0079492Y0064625D01*
X0079608Y0064736D01*
X0079727Y0064845D01*
X0079848Y0064950D01*
X0079972Y0065053D01*
X0080098Y0065153D01*
X0080226Y0065249D01*
X0080357Y0065342D01*
X0080491Y0065432D01*
X0080626Y0065519D01*
X0080764Y0065602D01*
X0080903Y0065682D01*
X0081045Y0065758D01*
X0081188Y0065831D01*
X0081333Y0065900D01*
X0081480Y0065966D01*
X0081628Y0066028D01*
X0081778Y0066086D01*
X0081929Y0066141D01*
X0082082Y0066192D01*
X0082236Y0066239D01*
X0082391Y0066282D01*
X0082547Y0066321D01*
X0082703Y0066357D01*
X0082861Y0066388D01*
X0083019Y0066416D01*
X0083178Y0066440D01*
X0083338Y0066460D01*
X0083498Y0066476D01*
X0083658Y0066488D01*
X0083819Y0066496D01*
X0083980Y0066500D01*
X0084140Y0066500D01*
X0084301Y0066496D01*
X0084462Y0066488D01*
X0084622Y0066476D01*
X0084782Y0066460D01*
X0084942Y0066440D01*
X0085101Y0066416D01*
X0085259Y0066388D01*
X0085417Y0066357D01*
X0085573Y0066321D01*
X0085729Y0066282D01*
X0085884Y0066239D01*
X0086038Y0066192D01*
X0086191Y0066141D01*
X0086342Y0066086D01*
X0086492Y0066028D01*
X0086640Y0065966D01*
X0086787Y0065900D01*
X0086932Y0065831D01*
X0087075Y0065758D01*
X0087217Y0065682D01*
X0087356Y0065602D01*
X0087494Y0065519D01*
X0087629Y0065432D01*
X0087763Y0065342D01*
X0087894Y0065249D01*
X0088022Y0065153D01*
X0088148Y0065053D01*
X0088272Y0064950D01*
X0088393Y0064845D01*
X0088512Y0064736D01*
X0088628Y0064625D01*
X0088741Y0064510D01*
X0088851Y0064393D01*
X0088958Y0064273D01*
X0089062Y0064151D01*
X0089163Y0064026D01*
X0089261Y0063898D01*
X0089356Y0063768D01*
X0089448Y0063636D01*
X0089536Y0063502D01*
X0089621Y0063365D01*
X0089703Y0063227D01*
X0089781Y0063086D01*
X0089855Y0062944D01*
X0089926Y0062800D01*
X0089994Y0062654D01*
X0090057Y0062506D01*
X0090118Y0062357D01*
X0090174Y0062206D01*
X0090227Y0062054D01*
X0090276Y0061901D01*
X0090321Y0061747D01*
X0090362Y0061592D01*
X0090400Y0061435D01*
X0090433Y0061278D01*
X0090463Y0061120D01*
X0090489Y0060961D01*
X0090510Y0060802D01*
X0090528Y0060642D01*
X0090542Y0060482D01*
X0090552Y0060321D01*
X0090558Y0060161D01*
X0090560Y0060000D01*
X0090558Y0059839D01*
X0090552Y0059679D01*
X0090542Y0059518D01*
X0090528Y0059358D01*
X0090510Y0059198D01*
X0090489Y0059039D01*
X0090463Y0058880D01*
X0090433Y0058722D01*
X0090400Y0058565D01*
X0090362Y0058408D01*
X0090321Y0058253D01*
X0090276Y0058099D01*
X0090227Y0057946D01*
X0090174Y0057794D01*
X0090118Y0057643D01*
X0090057Y0057494D01*
X0089994Y0057346D01*
X0089926Y0057200D01*
X0089855Y0057056D01*
X0089781Y0056914D01*
X0089703Y0056773D01*
X0089621Y0056635D01*
X0089536Y0056498D01*
X0089448Y0056364D01*
X0089356Y0056232D01*
X0089261Y0056102D01*
X0089163Y0055974D01*
X0089062Y0055849D01*
X0088958Y0055727D01*
X0088851Y0055607D01*
X0088741Y0055490D01*
X0088628Y0055375D01*
X0088512Y0055264D01*
X0088393Y0055155D01*
X0088272Y0055050D01*
X0088148Y0054947D01*
X0088022Y0054847D01*
X0087894Y0054751D01*
X0087763Y0054658D01*
X0087629Y0054568D01*
X0087494Y0054481D01*
X0087356Y0054398D01*
X0087217Y0054318D01*
X0087075Y0054242D01*
X0086932Y0054169D01*
X0086787Y0054100D01*
X0086640Y0054034D01*
X0086492Y0053972D01*
X0086342Y0053914D01*
X0086191Y0053859D01*
X0086038Y0053808D01*
X0085884Y0053761D01*
X0085729Y0053718D01*
X0085573Y0053679D01*
X0085417Y0053643D01*
X0085259Y0053612D01*
X0085101Y0053584D01*
X0084942Y0053560D01*
X0084782Y0053540D01*
X0084622Y0053524D01*
X0084462Y0053512D01*
X0084301Y0053504D01*
X0084140Y0053500D01*
X0083980Y0053500D01*
X0083819Y0053504D01*
X0083658Y0053512D01*
X0083498Y0053524D01*
X0083338Y0053540D01*
X0083178Y0053560D01*
X0083019Y0053584D01*
X0082861Y0053612D01*
X0082703Y0053643D01*
X0082547Y0053679D01*
X0082391Y0053718D01*
X0082236Y0053761D01*
X0082082Y0053808D01*
X0081929Y0053859D01*
X0081778Y0053914D01*
X0081628Y0053972D01*
X0081480Y0054034D01*
X0081333Y0054100D01*
X0081188Y0054169D01*
X0081045Y0054242D01*
X0080903Y0054318D01*
X0080764Y0054398D01*
X0080626Y0054481D01*
X0080491Y0054568D01*
X0080357Y0054658D01*
X0080226Y0054751D01*
X0080098Y0054847D01*
X0079972Y0054947D01*
X0079848Y0055050D01*
X0079727Y0055155D01*
X0079608Y0055264D01*
X0079492Y0055375D01*
X0079379Y0055490D01*
X0079269Y0055607D01*
X0079162Y0055727D01*
X0079058Y0055849D01*
X0078957Y0055974D01*
X0078859Y0056102D01*
X0078764Y0056232D01*
X0078672Y0056364D01*
X0078584Y0056498D01*
X0078499Y0056635D01*
X0078417Y0056773D01*
X0078339Y0056914D01*
X0078265Y0057056D01*
X0078194Y0057200D01*
X0078126Y0057346D01*
X0078063Y0057494D01*
X0078002Y0057643D01*
X0077946Y0057794D01*
X0077893Y0057946D01*
X0077844Y0058099D01*
X0077799Y0058253D01*
X0077758Y0058408D01*
X0077720Y0058565D01*
X0077687Y0058722D01*
X0077657Y0058880D01*
X0077631Y0059039D01*
X0077610Y0059198D01*
X0077592Y0059358D01*
X0077578Y0059518D01*
X0077568Y0059679D01*
X0077562Y0059839D01*
X0077560Y0060000D01*
X0180560Y0210000D02*
X0180562Y0210154D01*
X0180568Y0210309D01*
X0180578Y0210463D01*
X0180592Y0210617D01*
X0180610Y0210770D01*
X0180631Y0210923D01*
X0180657Y0211076D01*
X0180687Y0211227D01*
X0180720Y0211378D01*
X0180758Y0211528D01*
X0180799Y0211677D01*
X0180844Y0211825D01*
X0180893Y0211971D01*
X0180946Y0212117D01*
X0181002Y0212260D01*
X0181062Y0212403D01*
X0181126Y0212543D01*
X0181193Y0212683D01*
X0181264Y0212820D01*
X0181338Y0212955D01*
X0181416Y0213089D01*
X0181497Y0213220D01*
X0181582Y0213349D01*
X0181670Y0213477D01*
X0181761Y0213601D01*
X0181855Y0213724D01*
X0181953Y0213844D01*
X0182053Y0213961D01*
X0182157Y0214076D01*
X0182263Y0214188D01*
X0182372Y0214297D01*
X0182484Y0214403D01*
X0182599Y0214507D01*
X0182716Y0214607D01*
X0182836Y0214705D01*
X0182959Y0214799D01*
X0183083Y0214890D01*
X0183211Y0214978D01*
X0183340Y0215063D01*
X0183471Y0215144D01*
X0183605Y0215222D01*
X0183740Y0215296D01*
X0183877Y0215367D01*
X0184017Y0215434D01*
X0184157Y0215498D01*
X0184300Y0215558D01*
X0184443Y0215614D01*
X0184589Y0215667D01*
X0184735Y0215716D01*
X0184883Y0215761D01*
X0185032Y0215802D01*
X0185182Y0215840D01*
X0185333Y0215873D01*
X0185484Y0215903D01*
X0185637Y0215929D01*
X0185790Y0215950D01*
X0185943Y0215968D01*
X0186097Y0215982D01*
X0186251Y0215992D01*
X0186406Y0215998D01*
X0186560Y0216000D01*
X0186714Y0215998D01*
X0186869Y0215992D01*
X0187023Y0215982D01*
X0187177Y0215968D01*
X0187330Y0215950D01*
X0187483Y0215929D01*
X0187636Y0215903D01*
X0187787Y0215873D01*
X0187938Y0215840D01*
X0188088Y0215802D01*
X0188237Y0215761D01*
X0188385Y0215716D01*
X0188531Y0215667D01*
X0188677Y0215614D01*
X0188820Y0215558D01*
X0188963Y0215498D01*
X0189103Y0215434D01*
X0189243Y0215367D01*
X0189380Y0215296D01*
X0189515Y0215222D01*
X0189649Y0215144D01*
X0189780Y0215063D01*
X0189909Y0214978D01*
X0190037Y0214890D01*
X0190161Y0214799D01*
X0190284Y0214705D01*
X0190404Y0214607D01*
X0190521Y0214507D01*
X0190636Y0214403D01*
X0190748Y0214297D01*
X0190857Y0214188D01*
X0190963Y0214076D01*
X0191067Y0213961D01*
X0191167Y0213844D01*
X0191265Y0213724D01*
X0191359Y0213601D01*
X0191450Y0213477D01*
X0191538Y0213349D01*
X0191623Y0213220D01*
X0191704Y0213089D01*
X0191782Y0212955D01*
X0191856Y0212820D01*
X0191927Y0212683D01*
X0191994Y0212543D01*
X0192058Y0212403D01*
X0192118Y0212260D01*
X0192174Y0212117D01*
X0192227Y0211971D01*
X0192276Y0211825D01*
X0192321Y0211677D01*
X0192362Y0211528D01*
X0192400Y0211378D01*
X0192433Y0211227D01*
X0192463Y0211076D01*
X0192489Y0210923D01*
X0192510Y0210770D01*
X0192528Y0210617D01*
X0192542Y0210463D01*
X0192552Y0210309D01*
X0192558Y0210154D01*
X0192560Y0210000D01*
X0192558Y0209846D01*
X0192552Y0209691D01*
X0192542Y0209537D01*
X0192528Y0209383D01*
X0192510Y0209230D01*
X0192489Y0209077D01*
X0192463Y0208924D01*
X0192433Y0208773D01*
X0192400Y0208622D01*
X0192362Y0208472D01*
X0192321Y0208323D01*
X0192276Y0208175D01*
X0192227Y0208029D01*
X0192174Y0207883D01*
X0192118Y0207740D01*
X0192058Y0207597D01*
X0191994Y0207457D01*
X0191927Y0207317D01*
X0191856Y0207180D01*
X0191782Y0207045D01*
X0191704Y0206911D01*
X0191623Y0206780D01*
X0191538Y0206651D01*
X0191450Y0206523D01*
X0191359Y0206399D01*
X0191265Y0206276D01*
X0191167Y0206156D01*
X0191067Y0206039D01*
X0190963Y0205924D01*
X0190857Y0205812D01*
X0190748Y0205703D01*
X0190636Y0205597D01*
X0190521Y0205493D01*
X0190404Y0205393D01*
X0190284Y0205295D01*
X0190161Y0205201D01*
X0190037Y0205110D01*
X0189909Y0205022D01*
X0189780Y0204937D01*
X0189649Y0204856D01*
X0189515Y0204778D01*
X0189380Y0204704D01*
X0189243Y0204633D01*
X0189103Y0204566D01*
X0188963Y0204502D01*
X0188820Y0204442D01*
X0188677Y0204386D01*
X0188531Y0204333D01*
X0188385Y0204284D01*
X0188237Y0204239D01*
X0188088Y0204198D01*
X0187938Y0204160D01*
X0187787Y0204127D01*
X0187636Y0204097D01*
X0187483Y0204071D01*
X0187330Y0204050D01*
X0187177Y0204032D01*
X0187023Y0204018D01*
X0186869Y0204008D01*
X0186714Y0204002D01*
X0186560Y0204000D01*
X0186406Y0204002D01*
X0186251Y0204008D01*
X0186097Y0204018D01*
X0185943Y0204032D01*
X0185790Y0204050D01*
X0185637Y0204071D01*
X0185484Y0204097D01*
X0185333Y0204127D01*
X0185182Y0204160D01*
X0185032Y0204198D01*
X0184883Y0204239D01*
X0184735Y0204284D01*
X0184589Y0204333D01*
X0184443Y0204386D01*
X0184300Y0204442D01*
X0184157Y0204502D01*
X0184017Y0204566D01*
X0183877Y0204633D01*
X0183740Y0204704D01*
X0183605Y0204778D01*
X0183471Y0204856D01*
X0183340Y0204937D01*
X0183211Y0205022D01*
X0183083Y0205110D01*
X0182959Y0205201D01*
X0182836Y0205295D01*
X0182716Y0205393D01*
X0182599Y0205493D01*
X0182484Y0205597D01*
X0182372Y0205703D01*
X0182263Y0205812D01*
X0182157Y0205924D01*
X0182053Y0206039D01*
X0181953Y0206156D01*
X0181855Y0206276D01*
X0181761Y0206399D01*
X0181670Y0206523D01*
X0181582Y0206651D01*
X0181497Y0206780D01*
X0181416Y0206911D01*
X0181338Y0207045D01*
X0181264Y0207180D01*
X0181193Y0207317D01*
X0181126Y0207457D01*
X0181062Y0207597D01*
X0181002Y0207740D01*
X0180946Y0207883D01*
X0180893Y0208029D01*
X0180844Y0208175D01*
X0180799Y0208323D01*
X0180758Y0208472D01*
X0180720Y0208622D01*
X0180687Y0208773D01*
X0180657Y0208924D01*
X0180631Y0209077D01*
X0180610Y0209230D01*
X0180592Y0209383D01*
X0180578Y0209537D01*
X0180568Y0209691D01*
X0180562Y0209846D01*
X0180560Y0210000D01*
X0263560Y0193000D02*
X0263562Y0193148D01*
X0263568Y0193296D01*
X0263578Y0193444D01*
X0263592Y0193592D01*
X0263610Y0193739D01*
X0263632Y0193886D01*
X0263658Y0194032D01*
X0263687Y0194177D01*
X0263721Y0194322D01*
X0263759Y0194465D01*
X0263800Y0194608D01*
X0263845Y0194749D01*
X0263895Y0194889D01*
X0263947Y0195027D01*
X0264004Y0195165D01*
X0264064Y0195300D01*
X0264128Y0195434D01*
X0264195Y0195566D01*
X0264266Y0195696D01*
X0264341Y0195825D01*
X0264419Y0195951D01*
X0264500Y0196075D01*
X0264584Y0196197D01*
X0264672Y0196316D01*
X0264763Y0196433D01*
X0264857Y0196548D01*
X0264955Y0196660D01*
X0265055Y0196769D01*
X0265158Y0196876D01*
X0265264Y0196980D01*
X0265372Y0197081D01*
X0265484Y0197179D01*
X0265598Y0197274D01*
X0265714Y0197365D01*
X0265833Y0197454D01*
X0265954Y0197539D01*
X0266078Y0197621D01*
X0266204Y0197700D01*
X0266331Y0197775D01*
X0266461Y0197847D01*
X0266593Y0197916D01*
X0266726Y0197980D01*
X0266861Y0198041D01*
X0266998Y0198099D01*
X0267136Y0198153D01*
X0267276Y0198203D01*
X0267417Y0198249D01*
X0267559Y0198291D01*
X0267702Y0198330D01*
X0267846Y0198364D01*
X0267992Y0198395D01*
X0268137Y0198422D01*
X0268284Y0198445D01*
X0268431Y0198464D01*
X0268579Y0198479D01*
X0268726Y0198490D01*
X0268875Y0198497D01*
X0269023Y0198500D01*
X0269171Y0198499D01*
X0269319Y0198494D01*
X0269467Y0198485D01*
X0269615Y0198472D01*
X0269763Y0198455D01*
X0269909Y0198434D01*
X0270056Y0198409D01*
X0270201Y0198380D01*
X0270346Y0198348D01*
X0270489Y0198311D01*
X0270632Y0198271D01*
X0270774Y0198226D01*
X0270914Y0198178D01*
X0271053Y0198126D01*
X0271190Y0198071D01*
X0271326Y0198011D01*
X0271461Y0197948D01*
X0271593Y0197882D01*
X0271724Y0197812D01*
X0271853Y0197738D01*
X0271979Y0197661D01*
X0272104Y0197581D01*
X0272226Y0197497D01*
X0272347Y0197410D01*
X0272464Y0197320D01*
X0272580Y0197226D01*
X0272692Y0197130D01*
X0272802Y0197031D01*
X0272910Y0196928D01*
X0273014Y0196823D01*
X0273116Y0196715D01*
X0273214Y0196604D01*
X0273310Y0196491D01*
X0273403Y0196375D01*
X0273492Y0196257D01*
X0273578Y0196136D01*
X0273661Y0196013D01*
X0273741Y0195888D01*
X0273817Y0195761D01*
X0273890Y0195631D01*
X0273959Y0195500D01*
X0274024Y0195367D01*
X0274087Y0195233D01*
X0274145Y0195096D01*
X0274200Y0194958D01*
X0274250Y0194819D01*
X0274298Y0194678D01*
X0274341Y0194537D01*
X0274381Y0194394D01*
X0274416Y0194250D01*
X0274448Y0194105D01*
X0274476Y0193959D01*
X0274500Y0193813D01*
X0274520Y0193666D01*
X0274536Y0193518D01*
X0274548Y0193371D01*
X0274556Y0193222D01*
X0274560Y0193074D01*
X0274560Y0192926D01*
X0274556Y0192778D01*
X0274548Y0192629D01*
X0274536Y0192482D01*
X0274520Y0192334D01*
X0274500Y0192187D01*
X0274476Y0192041D01*
X0274448Y0191895D01*
X0274416Y0191750D01*
X0274381Y0191606D01*
X0274341Y0191463D01*
X0274298Y0191322D01*
X0274250Y0191181D01*
X0274200Y0191042D01*
X0274145Y0190904D01*
X0274087Y0190767D01*
X0274024Y0190633D01*
X0273959Y0190500D01*
X0273890Y0190369D01*
X0273817Y0190239D01*
X0273741Y0190112D01*
X0273661Y0189987D01*
X0273578Y0189864D01*
X0273492Y0189743D01*
X0273403Y0189625D01*
X0273310Y0189509D01*
X0273214Y0189396D01*
X0273116Y0189285D01*
X0273014Y0189177D01*
X0272910Y0189072D01*
X0272802Y0188969D01*
X0272692Y0188870D01*
X0272580Y0188774D01*
X0272464Y0188680D01*
X0272347Y0188590D01*
X0272226Y0188503D01*
X0272104Y0188419D01*
X0271979Y0188339D01*
X0271853Y0188262D01*
X0271724Y0188188D01*
X0271593Y0188118D01*
X0271461Y0188052D01*
X0271326Y0187989D01*
X0271190Y0187929D01*
X0271053Y0187874D01*
X0270914Y0187822D01*
X0270774Y0187774D01*
X0270632Y0187729D01*
X0270489Y0187689D01*
X0270346Y0187652D01*
X0270201Y0187620D01*
X0270056Y0187591D01*
X0269909Y0187566D01*
X0269763Y0187545D01*
X0269615Y0187528D01*
X0269467Y0187515D01*
X0269319Y0187506D01*
X0269171Y0187501D01*
X0269023Y0187500D01*
X0268875Y0187503D01*
X0268726Y0187510D01*
X0268579Y0187521D01*
X0268431Y0187536D01*
X0268284Y0187555D01*
X0268137Y0187578D01*
X0267992Y0187605D01*
X0267846Y0187636D01*
X0267702Y0187670D01*
X0267559Y0187709D01*
X0267417Y0187751D01*
X0267276Y0187797D01*
X0267136Y0187847D01*
X0266998Y0187901D01*
X0266861Y0187959D01*
X0266726Y0188020D01*
X0266593Y0188084D01*
X0266461Y0188153D01*
X0266331Y0188225D01*
X0266204Y0188300D01*
X0266078Y0188379D01*
X0265954Y0188461D01*
X0265833Y0188546D01*
X0265714Y0188635D01*
X0265598Y0188726D01*
X0265484Y0188821D01*
X0265372Y0188919D01*
X0265264Y0189020D01*
X0265158Y0189124D01*
X0265055Y0189231D01*
X0264955Y0189340D01*
X0264857Y0189452D01*
X0264763Y0189567D01*
X0264672Y0189684D01*
X0264584Y0189803D01*
X0264500Y0189925D01*
X0264419Y0190049D01*
X0264341Y0190175D01*
X0264266Y0190304D01*
X0264195Y0190434D01*
X0264128Y0190566D01*
X0264064Y0190700D01*
X0264004Y0190835D01*
X0263947Y0190973D01*
X0263895Y0191111D01*
X0263845Y0191251D01*
X0263800Y0191392D01*
X0263759Y0191535D01*
X0263721Y0191678D01*
X0263687Y0191823D01*
X0263658Y0191968D01*
X0263632Y0192114D01*
X0263610Y0192261D01*
X0263592Y0192408D01*
X0263578Y0192556D01*
X0263568Y0192704D01*
X0263562Y0192852D01*
X0263560Y0193000D01*
X0345560Y0210000D02*
X0345562Y0210154D01*
X0345568Y0210309D01*
X0345578Y0210463D01*
X0345592Y0210617D01*
X0345610Y0210770D01*
X0345631Y0210923D01*
X0345657Y0211076D01*
X0345687Y0211227D01*
X0345720Y0211378D01*
X0345758Y0211528D01*
X0345799Y0211677D01*
X0345844Y0211825D01*
X0345893Y0211971D01*
X0345946Y0212117D01*
X0346002Y0212260D01*
X0346062Y0212403D01*
X0346126Y0212543D01*
X0346193Y0212683D01*
X0346264Y0212820D01*
X0346338Y0212955D01*
X0346416Y0213089D01*
X0346497Y0213220D01*
X0346582Y0213349D01*
X0346670Y0213477D01*
X0346761Y0213601D01*
X0346855Y0213724D01*
X0346953Y0213844D01*
X0347053Y0213961D01*
X0347157Y0214076D01*
X0347263Y0214188D01*
X0347372Y0214297D01*
X0347484Y0214403D01*
X0347599Y0214507D01*
X0347716Y0214607D01*
X0347836Y0214705D01*
X0347959Y0214799D01*
X0348083Y0214890D01*
X0348211Y0214978D01*
X0348340Y0215063D01*
X0348471Y0215144D01*
X0348605Y0215222D01*
X0348740Y0215296D01*
X0348877Y0215367D01*
X0349017Y0215434D01*
X0349157Y0215498D01*
X0349300Y0215558D01*
X0349443Y0215614D01*
X0349589Y0215667D01*
X0349735Y0215716D01*
X0349883Y0215761D01*
X0350032Y0215802D01*
X0350182Y0215840D01*
X0350333Y0215873D01*
X0350484Y0215903D01*
X0350637Y0215929D01*
X0350790Y0215950D01*
X0350943Y0215968D01*
X0351097Y0215982D01*
X0351251Y0215992D01*
X0351406Y0215998D01*
X0351560Y0216000D01*
X0351714Y0215998D01*
X0351869Y0215992D01*
X0352023Y0215982D01*
X0352177Y0215968D01*
X0352330Y0215950D01*
X0352483Y0215929D01*
X0352636Y0215903D01*
X0352787Y0215873D01*
X0352938Y0215840D01*
X0353088Y0215802D01*
X0353237Y0215761D01*
X0353385Y0215716D01*
X0353531Y0215667D01*
X0353677Y0215614D01*
X0353820Y0215558D01*
X0353963Y0215498D01*
X0354103Y0215434D01*
X0354243Y0215367D01*
X0354380Y0215296D01*
X0354515Y0215222D01*
X0354649Y0215144D01*
X0354780Y0215063D01*
X0354909Y0214978D01*
X0355037Y0214890D01*
X0355161Y0214799D01*
X0355284Y0214705D01*
X0355404Y0214607D01*
X0355521Y0214507D01*
X0355636Y0214403D01*
X0355748Y0214297D01*
X0355857Y0214188D01*
X0355963Y0214076D01*
X0356067Y0213961D01*
X0356167Y0213844D01*
X0356265Y0213724D01*
X0356359Y0213601D01*
X0356450Y0213477D01*
X0356538Y0213349D01*
X0356623Y0213220D01*
X0356704Y0213089D01*
X0356782Y0212955D01*
X0356856Y0212820D01*
X0356927Y0212683D01*
X0356994Y0212543D01*
X0357058Y0212403D01*
X0357118Y0212260D01*
X0357174Y0212117D01*
X0357227Y0211971D01*
X0357276Y0211825D01*
X0357321Y0211677D01*
X0357362Y0211528D01*
X0357400Y0211378D01*
X0357433Y0211227D01*
X0357463Y0211076D01*
X0357489Y0210923D01*
X0357510Y0210770D01*
X0357528Y0210617D01*
X0357542Y0210463D01*
X0357552Y0210309D01*
X0357558Y0210154D01*
X0357560Y0210000D01*
X0357558Y0209846D01*
X0357552Y0209691D01*
X0357542Y0209537D01*
X0357528Y0209383D01*
X0357510Y0209230D01*
X0357489Y0209077D01*
X0357463Y0208924D01*
X0357433Y0208773D01*
X0357400Y0208622D01*
X0357362Y0208472D01*
X0357321Y0208323D01*
X0357276Y0208175D01*
X0357227Y0208029D01*
X0357174Y0207883D01*
X0357118Y0207740D01*
X0357058Y0207597D01*
X0356994Y0207457D01*
X0356927Y0207317D01*
X0356856Y0207180D01*
X0356782Y0207045D01*
X0356704Y0206911D01*
X0356623Y0206780D01*
X0356538Y0206651D01*
X0356450Y0206523D01*
X0356359Y0206399D01*
X0356265Y0206276D01*
X0356167Y0206156D01*
X0356067Y0206039D01*
X0355963Y0205924D01*
X0355857Y0205812D01*
X0355748Y0205703D01*
X0355636Y0205597D01*
X0355521Y0205493D01*
X0355404Y0205393D01*
X0355284Y0205295D01*
X0355161Y0205201D01*
X0355037Y0205110D01*
X0354909Y0205022D01*
X0354780Y0204937D01*
X0354649Y0204856D01*
X0354515Y0204778D01*
X0354380Y0204704D01*
X0354243Y0204633D01*
X0354103Y0204566D01*
X0353963Y0204502D01*
X0353820Y0204442D01*
X0353677Y0204386D01*
X0353531Y0204333D01*
X0353385Y0204284D01*
X0353237Y0204239D01*
X0353088Y0204198D01*
X0352938Y0204160D01*
X0352787Y0204127D01*
X0352636Y0204097D01*
X0352483Y0204071D01*
X0352330Y0204050D01*
X0352177Y0204032D01*
X0352023Y0204018D01*
X0351869Y0204008D01*
X0351714Y0204002D01*
X0351560Y0204000D01*
X0351406Y0204002D01*
X0351251Y0204008D01*
X0351097Y0204018D01*
X0350943Y0204032D01*
X0350790Y0204050D01*
X0350637Y0204071D01*
X0350484Y0204097D01*
X0350333Y0204127D01*
X0350182Y0204160D01*
X0350032Y0204198D01*
X0349883Y0204239D01*
X0349735Y0204284D01*
X0349589Y0204333D01*
X0349443Y0204386D01*
X0349300Y0204442D01*
X0349157Y0204502D01*
X0349017Y0204566D01*
X0348877Y0204633D01*
X0348740Y0204704D01*
X0348605Y0204778D01*
X0348471Y0204856D01*
X0348340Y0204937D01*
X0348211Y0205022D01*
X0348083Y0205110D01*
X0347959Y0205201D01*
X0347836Y0205295D01*
X0347716Y0205393D01*
X0347599Y0205493D01*
X0347484Y0205597D01*
X0347372Y0205703D01*
X0347263Y0205812D01*
X0347157Y0205924D01*
X0347053Y0206039D01*
X0346953Y0206156D01*
X0346855Y0206276D01*
X0346761Y0206399D01*
X0346670Y0206523D01*
X0346582Y0206651D01*
X0346497Y0206780D01*
X0346416Y0206911D01*
X0346338Y0207045D01*
X0346264Y0207180D01*
X0346193Y0207317D01*
X0346126Y0207457D01*
X0346062Y0207597D01*
X0346002Y0207740D01*
X0345946Y0207883D01*
X0345893Y0208029D01*
X0345844Y0208175D01*
X0345799Y0208323D01*
X0345758Y0208472D01*
X0345720Y0208622D01*
X0345687Y0208773D01*
X0345657Y0208924D01*
X0345631Y0209077D01*
X0345610Y0209230D01*
X0345592Y0209383D01*
X0345578Y0209537D01*
X0345568Y0209691D01*
X0345562Y0209846D01*
X0345560Y0210000D01*
X0367560Y0060000D02*
X0367562Y0060161D01*
X0367568Y0060321D01*
X0367578Y0060482D01*
X0367592Y0060642D01*
X0367610Y0060802D01*
X0367631Y0060961D01*
X0367657Y0061120D01*
X0367687Y0061278D01*
X0367720Y0061435D01*
X0367758Y0061592D01*
X0367799Y0061747D01*
X0367844Y0061901D01*
X0367893Y0062054D01*
X0367946Y0062206D01*
X0368002Y0062357D01*
X0368063Y0062506D01*
X0368126Y0062654D01*
X0368194Y0062800D01*
X0368265Y0062944D01*
X0368339Y0063086D01*
X0368417Y0063227D01*
X0368499Y0063365D01*
X0368584Y0063502D01*
X0368672Y0063636D01*
X0368764Y0063768D01*
X0368859Y0063898D01*
X0368957Y0064026D01*
X0369058Y0064151D01*
X0369162Y0064273D01*
X0369269Y0064393D01*
X0369379Y0064510D01*
X0369492Y0064625D01*
X0369608Y0064736D01*
X0369727Y0064845D01*
X0369848Y0064950D01*
X0369972Y0065053D01*
X0370098Y0065153D01*
X0370226Y0065249D01*
X0370357Y0065342D01*
X0370491Y0065432D01*
X0370626Y0065519D01*
X0370764Y0065602D01*
X0370903Y0065682D01*
X0371045Y0065758D01*
X0371188Y0065831D01*
X0371333Y0065900D01*
X0371480Y0065966D01*
X0371628Y0066028D01*
X0371778Y0066086D01*
X0371929Y0066141D01*
X0372082Y0066192D01*
X0372236Y0066239D01*
X0372391Y0066282D01*
X0372547Y0066321D01*
X0372703Y0066357D01*
X0372861Y0066388D01*
X0373019Y0066416D01*
X0373178Y0066440D01*
X0373338Y0066460D01*
X0373498Y0066476D01*
X0373658Y0066488D01*
X0373819Y0066496D01*
X0373980Y0066500D01*
X0374140Y0066500D01*
X0374301Y0066496D01*
X0374462Y0066488D01*
X0374622Y0066476D01*
X0374782Y0066460D01*
X0374942Y0066440D01*
X0375101Y0066416D01*
X0375259Y0066388D01*
X0375417Y0066357D01*
X0375573Y0066321D01*
X0375729Y0066282D01*
X0375884Y0066239D01*
X0376038Y0066192D01*
X0376191Y0066141D01*
X0376342Y0066086D01*
X0376492Y0066028D01*
X0376640Y0065966D01*
X0376787Y0065900D01*
X0376932Y0065831D01*
X0377075Y0065758D01*
X0377217Y0065682D01*
X0377356Y0065602D01*
X0377494Y0065519D01*
X0377629Y0065432D01*
X0377763Y0065342D01*
X0377894Y0065249D01*
X0378022Y0065153D01*
X0378148Y0065053D01*
X0378272Y0064950D01*
X0378393Y0064845D01*
X0378512Y0064736D01*
X0378628Y0064625D01*
X0378741Y0064510D01*
X0378851Y0064393D01*
X0378958Y0064273D01*
X0379062Y0064151D01*
X0379163Y0064026D01*
X0379261Y0063898D01*
X0379356Y0063768D01*
X0379448Y0063636D01*
X0379536Y0063502D01*
X0379621Y0063365D01*
X0379703Y0063227D01*
X0379781Y0063086D01*
X0379855Y0062944D01*
X0379926Y0062800D01*
X0379994Y0062654D01*
X0380057Y0062506D01*
X0380118Y0062357D01*
X0380174Y0062206D01*
X0380227Y0062054D01*
X0380276Y0061901D01*
X0380321Y0061747D01*
X0380362Y0061592D01*
X0380400Y0061435D01*
X0380433Y0061278D01*
X0380463Y0061120D01*
X0380489Y0060961D01*
X0380510Y0060802D01*
X0380528Y0060642D01*
X0380542Y0060482D01*
X0380552Y0060321D01*
X0380558Y0060161D01*
X0380560Y0060000D01*
X0380558Y0059839D01*
X0380552Y0059679D01*
X0380542Y0059518D01*
X0380528Y0059358D01*
X0380510Y0059198D01*
X0380489Y0059039D01*
X0380463Y0058880D01*
X0380433Y0058722D01*
X0380400Y0058565D01*
X0380362Y0058408D01*
X0380321Y0058253D01*
X0380276Y0058099D01*
X0380227Y0057946D01*
X0380174Y0057794D01*
X0380118Y0057643D01*
X0380057Y0057494D01*
X0379994Y0057346D01*
X0379926Y0057200D01*
X0379855Y0057056D01*
X0379781Y0056914D01*
X0379703Y0056773D01*
X0379621Y0056635D01*
X0379536Y0056498D01*
X0379448Y0056364D01*
X0379356Y0056232D01*
X0379261Y0056102D01*
X0379163Y0055974D01*
X0379062Y0055849D01*
X0378958Y0055727D01*
X0378851Y0055607D01*
X0378741Y0055490D01*
X0378628Y0055375D01*
X0378512Y0055264D01*
X0378393Y0055155D01*
X0378272Y0055050D01*
X0378148Y0054947D01*
X0378022Y0054847D01*
X0377894Y0054751D01*
X0377763Y0054658D01*
X0377629Y0054568D01*
X0377494Y0054481D01*
X0377356Y0054398D01*
X0377217Y0054318D01*
X0377075Y0054242D01*
X0376932Y0054169D01*
X0376787Y0054100D01*
X0376640Y0054034D01*
X0376492Y0053972D01*
X0376342Y0053914D01*
X0376191Y0053859D01*
X0376038Y0053808D01*
X0375884Y0053761D01*
X0375729Y0053718D01*
X0375573Y0053679D01*
X0375417Y0053643D01*
X0375259Y0053612D01*
X0375101Y0053584D01*
X0374942Y0053560D01*
X0374782Y0053540D01*
X0374622Y0053524D01*
X0374462Y0053512D01*
X0374301Y0053504D01*
X0374140Y0053500D01*
X0373980Y0053500D01*
X0373819Y0053504D01*
X0373658Y0053512D01*
X0373498Y0053524D01*
X0373338Y0053540D01*
X0373178Y0053560D01*
X0373019Y0053584D01*
X0372861Y0053612D01*
X0372703Y0053643D01*
X0372547Y0053679D01*
X0372391Y0053718D01*
X0372236Y0053761D01*
X0372082Y0053808D01*
X0371929Y0053859D01*
X0371778Y0053914D01*
X0371628Y0053972D01*
X0371480Y0054034D01*
X0371333Y0054100D01*
X0371188Y0054169D01*
X0371045Y0054242D01*
X0370903Y0054318D01*
X0370764Y0054398D01*
X0370626Y0054481D01*
X0370491Y0054568D01*
X0370357Y0054658D01*
X0370226Y0054751D01*
X0370098Y0054847D01*
X0369972Y0054947D01*
X0369848Y0055050D01*
X0369727Y0055155D01*
X0369608Y0055264D01*
X0369492Y0055375D01*
X0369379Y0055490D01*
X0369269Y0055607D01*
X0369162Y0055727D01*
X0369058Y0055849D01*
X0368957Y0055974D01*
X0368859Y0056102D01*
X0368764Y0056232D01*
X0368672Y0056364D01*
X0368584Y0056498D01*
X0368499Y0056635D01*
X0368417Y0056773D01*
X0368339Y0056914D01*
X0368265Y0057056D01*
X0368194Y0057200D01*
X0368126Y0057346D01*
X0368063Y0057494D01*
X0368002Y0057643D01*
X0367946Y0057794D01*
X0367893Y0057946D01*
X0367844Y0058099D01*
X0367799Y0058253D01*
X0367758Y0058408D01*
X0367720Y0058565D01*
X0367687Y0058722D01*
X0367657Y0058880D01*
X0367631Y0059039D01*
X0367610Y0059198D01*
X0367592Y0059358D01*
X0367578Y0059518D01*
X0367568Y0059679D01*
X0367562Y0059839D01*
X0367560Y0060000D01*
X0345560Y0370000D02*
X0345562Y0370154D01*
X0345568Y0370309D01*
X0345578Y0370463D01*
X0345592Y0370617D01*
X0345610Y0370770D01*
X0345631Y0370923D01*
X0345657Y0371076D01*
X0345687Y0371227D01*
X0345720Y0371378D01*
X0345758Y0371528D01*
X0345799Y0371677D01*
X0345844Y0371825D01*
X0345893Y0371971D01*
X0345946Y0372117D01*
X0346002Y0372260D01*
X0346062Y0372403D01*
X0346126Y0372543D01*
X0346193Y0372683D01*
X0346264Y0372820D01*
X0346338Y0372955D01*
X0346416Y0373089D01*
X0346497Y0373220D01*
X0346582Y0373349D01*
X0346670Y0373477D01*
X0346761Y0373601D01*
X0346855Y0373724D01*
X0346953Y0373844D01*
X0347053Y0373961D01*
X0347157Y0374076D01*
X0347263Y0374188D01*
X0347372Y0374297D01*
X0347484Y0374403D01*
X0347599Y0374507D01*
X0347716Y0374607D01*
X0347836Y0374705D01*
X0347959Y0374799D01*
X0348083Y0374890D01*
X0348211Y0374978D01*
X0348340Y0375063D01*
X0348471Y0375144D01*
X0348605Y0375222D01*
X0348740Y0375296D01*
X0348877Y0375367D01*
X0349017Y0375434D01*
X0349157Y0375498D01*
X0349300Y0375558D01*
X0349443Y0375614D01*
X0349589Y0375667D01*
X0349735Y0375716D01*
X0349883Y0375761D01*
X0350032Y0375802D01*
X0350182Y0375840D01*
X0350333Y0375873D01*
X0350484Y0375903D01*
X0350637Y0375929D01*
X0350790Y0375950D01*
X0350943Y0375968D01*
X0351097Y0375982D01*
X0351251Y0375992D01*
X0351406Y0375998D01*
X0351560Y0376000D01*
X0351714Y0375998D01*
X0351869Y0375992D01*
X0352023Y0375982D01*
X0352177Y0375968D01*
X0352330Y0375950D01*
X0352483Y0375929D01*
X0352636Y0375903D01*
X0352787Y0375873D01*
X0352938Y0375840D01*
X0353088Y0375802D01*
X0353237Y0375761D01*
X0353385Y0375716D01*
X0353531Y0375667D01*
X0353677Y0375614D01*
X0353820Y0375558D01*
X0353963Y0375498D01*
X0354103Y0375434D01*
X0354243Y0375367D01*
X0354380Y0375296D01*
X0354515Y0375222D01*
X0354649Y0375144D01*
X0354780Y0375063D01*
X0354909Y0374978D01*
X0355037Y0374890D01*
X0355161Y0374799D01*
X0355284Y0374705D01*
X0355404Y0374607D01*
X0355521Y0374507D01*
X0355636Y0374403D01*
X0355748Y0374297D01*
X0355857Y0374188D01*
X0355963Y0374076D01*
X0356067Y0373961D01*
X0356167Y0373844D01*
X0356265Y0373724D01*
X0356359Y0373601D01*
X0356450Y0373477D01*
X0356538Y0373349D01*
X0356623Y0373220D01*
X0356704Y0373089D01*
X0356782Y0372955D01*
X0356856Y0372820D01*
X0356927Y0372683D01*
X0356994Y0372543D01*
X0357058Y0372403D01*
X0357118Y0372260D01*
X0357174Y0372117D01*
X0357227Y0371971D01*
X0357276Y0371825D01*
X0357321Y0371677D01*
X0357362Y0371528D01*
X0357400Y0371378D01*
X0357433Y0371227D01*
X0357463Y0371076D01*
X0357489Y0370923D01*
X0357510Y0370770D01*
X0357528Y0370617D01*
X0357542Y0370463D01*
X0357552Y0370309D01*
X0357558Y0370154D01*
X0357560Y0370000D01*
X0357558Y0369846D01*
X0357552Y0369691D01*
X0357542Y0369537D01*
X0357528Y0369383D01*
X0357510Y0369230D01*
X0357489Y0369077D01*
X0357463Y0368924D01*
X0357433Y0368773D01*
X0357400Y0368622D01*
X0357362Y0368472D01*
X0357321Y0368323D01*
X0357276Y0368175D01*
X0357227Y0368029D01*
X0357174Y0367883D01*
X0357118Y0367740D01*
X0357058Y0367597D01*
X0356994Y0367457D01*
X0356927Y0367317D01*
X0356856Y0367180D01*
X0356782Y0367045D01*
X0356704Y0366911D01*
X0356623Y0366780D01*
X0356538Y0366651D01*
X0356450Y0366523D01*
X0356359Y0366399D01*
X0356265Y0366276D01*
X0356167Y0366156D01*
X0356067Y0366039D01*
X0355963Y0365924D01*
X0355857Y0365812D01*
X0355748Y0365703D01*
X0355636Y0365597D01*
X0355521Y0365493D01*
X0355404Y0365393D01*
X0355284Y0365295D01*
X0355161Y0365201D01*
X0355037Y0365110D01*
X0354909Y0365022D01*
X0354780Y0364937D01*
X0354649Y0364856D01*
X0354515Y0364778D01*
X0354380Y0364704D01*
X0354243Y0364633D01*
X0354103Y0364566D01*
X0353963Y0364502D01*
X0353820Y0364442D01*
X0353677Y0364386D01*
X0353531Y0364333D01*
X0353385Y0364284D01*
X0353237Y0364239D01*
X0353088Y0364198D01*
X0352938Y0364160D01*
X0352787Y0364127D01*
X0352636Y0364097D01*
X0352483Y0364071D01*
X0352330Y0364050D01*
X0352177Y0364032D01*
X0352023Y0364018D01*
X0351869Y0364008D01*
X0351714Y0364002D01*
X0351560Y0364000D01*
X0351406Y0364002D01*
X0351251Y0364008D01*
X0351097Y0364018D01*
X0350943Y0364032D01*
X0350790Y0364050D01*
X0350637Y0364071D01*
X0350484Y0364097D01*
X0350333Y0364127D01*
X0350182Y0364160D01*
X0350032Y0364198D01*
X0349883Y0364239D01*
X0349735Y0364284D01*
X0349589Y0364333D01*
X0349443Y0364386D01*
X0349300Y0364442D01*
X0349157Y0364502D01*
X0349017Y0364566D01*
X0348877Y0364633D01*
X0348740Y0364704D01*
X0348605Y0364778D01*
X0348471Y0364856D01*
X0348340Y0364937D01*
X0348211Y0365022D01*
X0348083Y0365110D01*
X0347959Y0365201D01*
X0347836Y0365295D01*
X0347716Y0365393D01*
X0347599Y0365493D01*
X0347484Y0365597D01*
X0347372Y0365703D01*
X0347263Y0365812D01*
X0347157Y0365924D01*
X0347053Y0366039D01*
X0346953Y0366156D01*
X0346855Y0366276D01*
X0346761Y0366399D01*
X0346670Y0366523D01*
X0346582Y0366651D01*
X0346497Y0366780D01*
X0346416Y0366911D01*
X0346338Y0367045D01*
X0346264Y0367180D01*
X0346193Y0367317D01*
X0346126Y0367457D01*
X0346062Y0367597D01*
X0346002Y0367740D01*
X0345946Y0367883D01*
X0345893Y0368029D01*
X0345844Y0368175D01*
X0345799Y0368323D01*
X0345758Y0368472D01*
X0345720Y0368622D01*
X0345687Y0368773D01*
X0345657Y0368924D01*
X0345631Y0369077D01*
X0345610Y0369230D01*
X0345592Y0369383D01*
X0345578Y0369537D01*
X0345568Y0369691D01*
X0345562Y0369846D01*
X0345560Y0370000D01*
X0366060Y0426600D02*
X0366062Y0426748D01*
X0366068Y0426896D01*
X0366078Y0427044D01*
X0366092Y0427192D01*
X0366110Y0427339D01*
X0366132Y0427486D01*
X0366158Y0427632D01*
X0366187Y0427777D01*
X0366221Y0427922D01*
X0366259Y0428065D01*
X0366300Y0428208D01*
X0366345Y0428349D01*
X0366395Y0428489D01*
X0366447Y0428627D01*
X0366504Y0428765D01*
X0366564Y0428900D01*
X0366628Y0429034D01*
X0366695Y0429166D01*
X0366766Y0429296D01*
X0366841Y0429425D01*
X0366919Y0429551D01*
X0367000Y0429675D01*
X0367084Y0429797D01*
X0367172Y0429916D01*
X0367263Y0430033D01*
X0367357Y0430148D01*
X0367455Y0430260D01*
X0367555Y0430369D01*
X0367658Y0430476D01*
X0367764Y0430580D01*
X0367872Y0430681D01*
X0367984Y0430779D01*
X0368098Y0430874D01*
X0368214Y0430965D01*
X0368333Y0431054D01*
X0368454Y0431139D01*
X0368578Y0431221D01*
X0368704Y0431300D01*
X0368831Y0431375D01*
X0368961Y0431447D01*
X0369093Y0431516D01*
X0369226Y0431580D01*
X0369361Y0431641D01*
X0369498Y0431699D01*
X0369636Y0431753D01*
X0369776Y0431803D01*
X0369917Y0431849D01*
X0370059Y0431891D01*
X0370202Y0431930D01*
X0370346Y0431964D01*
X0370492Y0431995D01*
X0370637Y0432022D01*
X0370784Y0432045D01*
X0370931Y0432064D01*
X0371079Y0432079D01*
X0371226Y0432090D01*
X0371375Y0432097D01*
X0371523Y0432100D01*
X0371671Y0432099D01*
X0371819Y0432094D01*
X0371967Y0432085D01*
X0372115Y0432072D01*
X0372263Y0432055D01*
X0372409Y0432034D01*
X0372556Y0432009D01*
X0372701Y0431980D01*
X0372846Y0431948D01*
X0372989Y0431911D01*
X0373132Y0431871D01*
X0373274Y0431826D01*
X0373414Y0431778D01*
X0373553Y0431726D01*
X0373690Y0431671D01*
X0373826Y0431611D01*
X0373961Y0431548D01*
X0374093Y0431482D01*
X0374224Y0431412D01*
X0374353Y0431338D01*
X0374479Y0431261D01*
X0374604Y0431181D01*
X0374726Y0431097D01*
X0374847Y0431010D01*
X0374964Y0430920D01*
X0375080Y0430826D01*
X0375192Y0430730D01*
X0375302Y0430631D01*
X0375410Y0430528D01*
X0375514Y0430423D01*
X0375616Y0430315D01*
X0375714Y0430204D01*
X0375810Y0430091D01*
X0375903Y0429975D01*
X0375992Y0429857D01*
X0376078Y0429736D01*
X0376161Y0429613D01*
X0376241Y0429488D01*
X0376317Y0429361D01*
X0376390Y0429231D01*
X0376459Y0429100D01*
X0376524Y0428967D01*
X0376587Y0428833D01*
X0376645Y0428696D01*
X0376700Y0428558D01*
X0376750Y0428419D01*
X0376798Y0428278D01*
X0376841Y0428137D01*
X0376881Y0427994D01*
X0376916Y0427850D01*
X0376948Y0427705D01*
X0376976Y0427559D01*
X0377000Y0427413D01*
X0377020Y0427266D01*
X0377036Y0427118D01*
X0377048Y0426971D01*
X0377056Y0426822D01*
X0377060Y0426674D01*
X0377060Y0426526D01*
X0377056Y0426378D01*
X0377048Y0426229D01*
X0377036Y0426082D01*
X0377020Y0425934D01*
X0377000Y0425787D01*
X0376976Y0425641D01*
X0376948Y0425495D01*
X0376916Y0425350D01*
X0376881Y0425206D01*
X0376841Y0425063D01*
X0376798Y0424922D01*
X0376750Y0424781D01*
X0376700Y0424642D01*
X0376645Y0424504D01*
X0376587Y0424367D01*
X0376524Y0424233D01*
X0376459Y0424100D01*
X0376390Y0423969D01*
X0376317Y0423839D01*
X0376241Y0423712D01*
X0376161Y0423587D01*
X0376078Y0423464D01*
X0375992Y0423343D01*
X0375903Y0423225D01*
X0375810Y0423109D01*
X0375714Y0422996D01*
X0375616Y0422885D01*
X0375514Y0422777D01*
X0375410Y0422672D01*
X0375302Y0422569D01*
X0375192Y0422470D01*
X0375080Y0422374D01*
X0374964Y0422280D01*
X0374847Y0422190D01*
X0374726Y0422103D01*
X0374604Y0422019D01*
X0374479Y0421939D01*
X0374353Y0421862D01*
X0374224Y0421788D01*
X0374093Y0421718D01*
X0373961Y0421652D01*
X0373826Y0421589D01*
X0373690Y0421529D01*
X0373553Y0421474D01*
X0373414Y0421422D01*
X0373274Y0421374D01*
X0373132Y0421329D01*
X0372989Y0421289D01*
X0372846Y0421252D01*
X0372701Y0421220D01*
X0372556Y0421191D01*
X0372409Y0421166D01*
X0372263Y0421145D01*
X0372115Y0421128D01*
X0371967Y0421115D01*
X0371819Y0421106D01*
X0371671Y0421101D01*
X0371523Y0421100D01*
X0371375Y0421103D01*
X0371226Y0421110D01*
X0371079Y0421121D01*
X0370931Y0421136D01*
X0370784Y0421155D01*
X0370637Y0421178D01*
X0370492Y0421205D01*
X0370346Y0421236D01*
X0370202Y0421270D01*
X0370059Y0421309D01*
X0369917Y0421351D01*
X0369776Y0421397D01*
X0369636Y0421447D01*
X0369498Y0421501D01*
X0369361Y0421559D01*
X0369226Y0421620D01*
X0369093Y0421684D01*
X0368961Y0421753D01*
X0368831Y0421825D01*
X0368704Y0421900D01*
X0368578Y0421979D01*
X0368454Y0422061D01*
X0368333Y0422146D01*
X0368214Y0422235D01*
X0368098Y0422326D01*
X0367984Y0422421D01*
X0367872Y0422519D01*
X0367764Y0422620D01*
X0367658Y0422724D01*
X0367555Y0422831D01*
X0367455Y0422940D01*
X0367357Y0423052D01*
X0367263Y0423167D01*
X0367172Y0423284D01*
X0367084Y0423403D01*
X0367000Y0423525D01*
X0366919Y0423649D01*
X0366841Y0423775D01*
X0366766Y0423904D01*
X0366695Y0424034D01*
X0366628Y0424166D01*
X0366564Y0424300D01*
X0366504Y0424435D01*
X0366447Y0424573D01*
X0366395Y0424711D01*
X0366345Y0424851D01*
X0366300Y0424992D01*
X0366259Y0425135D01*
X0366221Y0425278D01*
X0366187Y0425423D01*
X0366158Y0425568D01*
X0366132Y0425714D01*
X0366110Y0425861D01*
X0366092Y0426008D01*
X0366078Y0426156D01*
X0366068Y0426304D01*
X0366062Y0426452D01*
X0366060Y0426600D01*
X0263560Y0387000D02*
X0263562Y0387148D01*
X0263568Y0387296D01*
X0263578Y0387444D01*
X0263592Y0387592D01*
X0263610Y0387739D01*
X0263632Y0387886D01*
X0263658Y0388032D01*
X0263687Y0388177D01*
X0263721Y0388322D01*
X0263759Y0388465D01*
X0263800Y0388608D01*
X0263845Y0388749D01*
X0263895Y0388889D01*
X0263947Y0389027D01*
X0264004Y0389165D01*
X0264064Y0389300D01*
X0264128Y0389434D01*
X0264195Y0389566D01*
X0264266Y0389696D01*
X0264341Y0389825D01*
X0264419Y0389951D01*
X0264500Y0390075D01*
X0264584Y0390197D01*
X0264672Y0390316D01*
X0264763Y0390433D01*
X0264857Y0390548D01*
X0264955Y0390660D01*
X0265055Y0390769D01*
X0265158Y0390876D01*
X0265264Y0390980D01*
X0265372Y0391081D01*
X0265484Y0391179D01*
X0265598Y0391274D01*
X0265714Y0391365D01*
X0265833Y0391454D01*
X0265954Y0391539D01*
X0266078Y0391621D01*
X0266204Y0391700D01*
X0266331Y0391775D01*
X0266461Y0391847D01*
X0266593Y0391916D01*
X0266726Y0391980D01*
X0266861Y0392041D01*
X0266998Y0392099D01*
X0267136Y0392153D01*
X0267276Y0392203D01*
X0267417Y0392249D01*
X0267559Y0392291D01*
X0267702Y0392330D01*
X0267846Y0392364D01*
X0267992Y0392395D01*
X0268137Y0392422D01*
X0268284Y0392445D01*
X0268431Y0392464D01*
X0268579Y0392479D01*
X0268726Y0392490D01*
X0268875Y0392497D01*
X0269023Y0392500D01*
X0269171Y0392499D01*
X0269319Y0392494D01*
X0269467Y0392485D01*
X0269615Y0392472D01*
X0269763Y0392455D01*
X0269909Y0392434D01*
X0270056Y0392409D01*
X0270201Y0392380D01*
X0270346Y0392348D01*
X0270489Y0392311D01*
X0270632Y0392271D01*
X0270774Y0392226D01*
X0270914Y0392178D01*
X0271053Y0392126D01*
X0271190Y0392071D01*
X0271326Y0392011D01*
X0271461Y0391948D01*
X0271593Y0391882D01*
X0271724Y0391812D01*
X0271853Y0391738D01*
X0271979Y0391661D01*
X0272104Y0391581D01*
X0272226Y0391497D01*
X0272347Y0391410D01*
X0272464Y0391320D01*
X0272580Y0391226D01*
X0272692Y0391130D01*
X0272802Y0391031D01*
X0272910Y0390928D01*
X0273014Y0390823D01*
X0273116Y0390715D01*
X0273214Y0390604D01*
X0273310Y0390491D01*
X0273403Y0390375D01*
X0273492Y0390257D01*
X0273578Y0390136D01*
X0273661Y0390013D01*
X0273741Y0389888D01*
X0273817Y0389761D01*
X0273890Y0389631D01*
X0273959Y0389500D01*
X0274024Y0389367D01*
X0274087Y0389233D01*
X0274145Y0389096D01*
X0274200Y0388958D01*
X0274250Y0388819D01*
X0274298Y0388678D01*
X0274341Y0388537D01*
X0274381Y0388394D01*
X0274416Y0388250D01*
X0274448Y0388105D01*
X0274476Y0387959D01*
X0274500Y0387813D01*
X0274520Y0387666D01*
X0274536Y0387518D01*
X0274548Y0387371D01*
X0274556Y0387222D01*
X0274560Y0387074D01*
X0274560Y0386926D01*
X0274556Y0386778D01*
X0274548Y0386629D01*
X0274536Y0386482D01*
X0274520Y0386334D01*
X0274500Y0386187D01*
X0274476Y0386041D01*
X0274448Y0385895D01*
X0274416Y0385750D01*
X0274381Y0385606D01*
X0274341Y0385463D01*
X0274298Y0385322D01*
X0274250Y0385181D01*
X0274200Y0385042D01*
X0274145Y0384904D01*
X0274087Y0384767D01*
X0274024Y0384633D01*
X0273959Y0384500D01*
X0273890Y0384369D01*
X0273817Y0384239D01*
X0273741Y0384112D01*
X0273661Y0383987D01*
X0273578Y0383864D01*
X0273492Y0383743D01*
X0273403Y0383625D01*
X0273310Y0383509D01*
X0273214Y0383396D01*
X0273116Y0383285D01*
X0273014Y0383177D01*
X0272910Y0383072D01*
X0272802Y0382969D01*
X0272692Y0382870D01*
X0272580Y0382774D01*
X0272464Y0382680D01*
X0272347Y0382590D01*
X0272226Y0382503D01*
X0272104Y0382419D01*
X0271979Y0382339D01*
X0271853Y0382262D01*
X0271724Y0382188D01*
X0271593Y0382118D01*
X0271461Y0382052D01*
X0271326Y0381989D01*
X0271190Y0381929D01*
X0271053Y0381874D01*
X0270914Y0381822D01*
X0270774Y0381774D01*
X0270632Y0381729D01*
X0270489Y0381689D01*
X0270346Y0381652D01*
X0270201Y0381620D01*
X0270056Y0381591D01*
X0269909Y0381566D01*
X0269763Y0381545D01*
X0269615Y0381528D01*
X0269467Y0381515D01*
X0269319Y0381506D01*
X0269171Y0381501D01*
X0269023Y0381500D01*
X0268875Y0381503D01*
X0268726Y0381510D01*
X0268579Y0381521D01*
X0268431Y0381536D01*
X0268284Y0381555D01*
X0268137Y0381578D01*
X0267992Y0381605D01*
X0267846Y0381636D01*
X0267702Y0381670D01*
X0267559Y0381709D01*
X0267417Y0381751D01*
X0267276Y0381797D01*
X0267136Y0381847D01*
X0266998Y0381901D01*
X0266861Y0381959D01*
X0266726Y0382020D01*
X0266593Y0382084D01*
X0266461Y0382153D01*
X0266331Y0382225D01*
X0266204Y0382300D01*
X0266078Y0382379D01*
X0265954Y0382461D01*
X0265833Y0382546D01*
X0265714Y0382635D01*
X0265598Y0382726D01*
X0265484Y0382821D01*
X0265372Y0382919D01*
X0265264Y0383020D01*
X0265158Y0383124D01*
X0265055Y0383231D01*
X0264955Y0383340D01*
X0264857Y0383452D01*
X0264763Y0383567D01*
X0264672Y0383684D01*
X0264584Y0383803D01*
X0264500Y0383925D01*
X0264419Y0384049D01*
X0264341Y0384175D01*
X0264266Y0384304D01*
X0264195Y0384434D01*
X0264128Y0384566D01*
X0264064Y0384700D01*
X0264004Y0384835D01*
X0263947Y0384973D01*
X0263895Y0385111D01*
X0263845Y0385251D01*
X0263800Y0385392D01*
X0263759Y0385535D01*
X0263721Y0385678D01*
X0263687Y0385823D01*
X0263658Y0385968D01*
X0263632Y0386114D01*
X0263610Y0386261D01*
X0263592Y0386408D01*
X0263578Y0386556D01*
X0263568Y0386704D01*
X0263562Y0386852D01*
X0263560Y0387000D01*
X0180560Y0370000D02*
X0180562Y0370154D01*
X0180568Y0370309D01*
X0180578Y0370463D01*
X0180592Y0370617D01*
X0180610Y0370770D01*
X0180631Y0370923D01*
X0180657Y0371076D01*
X0180687Y0371227D01*
X0180720Y0371378D01*
X0180758Y0371528D01*
X0180799Y0371677D01*
X0180844Y0371825D01*
X0180893Y0371971D01*
X0180946Y0372117D01*
X0181002Y0372260D01*
X0181062Y0372403D01*
X0181126Y0372543D01*
X0181193Y0372683D01*
X0181264Y0372820D01*
X0181338Y0372955D01*
X0181416Y0373089D01*
X0181497Y0373220D01*
X0181582Y0373349D01*
X0181670Y0373477D01*
X0181761Y0373601D01*
X0181855Y0373724D01*
X0181953Y0373844D01*
X0182053Y0373961D01*
X0182157Y0374076D01*
X0182263Y0374188D01*
X0182372Y0374297D01*
X0182484Y0374403D01*
X0182599Y0374507D01*
X0182716Y0374607D01*
X0182836Y0374705D01*
X0182959Y0374799D01*
X0183083Y0374890D01*
X0183211Y0374978D01*
X0183340Y0375063D01*
X0183471Y0375144D01*
X0183605Y0375222D01*
X0183740Y0375296D01*
X0183877Y0375367D01*
X0184017Y0375434D01*
X0184157Y0375498D01*
X0184300Y0375558D01*
X0184443Y0375614D01*
X0184589Y0375667D01*
X0184735Y0375716D01*
X0184883Y0375761D01*
X0185032Y0375802D01*
X0185182Y0375840D01*
X0185333Y0375873D01*
X0185484Y0375903D01*
X0185637Y0375929D01*
X0185790Y0375950D01*
X0185943Y0375968D01*
X0186097Y0375982D01*
X0186251Y0375992D01*
X0186406Y0375998D01*
X0186560Y0376000D01*
X0186714Y0375998D01*
X0186869Y0375992D01*
X0187023Y0375982D01*
X0187177Y0375968D01*
X0187330Y0375950D01*
X0187483Y0375929D01*
X0187636Y0375903D01*
X0187787Y0375873D01*
X0187938Y0375840D01*
X0188088Y0375802D01*
X0188237Y0375761D01*
X0188385Y0375716D01*
X0188531Y0375667D01*
X0188677Y0375614D01*
X0188820Y0375558D01*
X0188963Y0375498D01*
X0189103Y0375434D01*
X0189243Y0375367D01*
X0189380Y0375296D01*
X0189515Y0375222D01*
X0189649Y0375144D01*
X0189780Y0375063D01*
X0189909Y0374978D01*
X0190037Y0374890D01*
X0190161Y0374799D01*
X0190284Y0374705D01*
X0190404Y0374607D01*
X0190521Y0374507D01*
X0190636Y0374403D01*
X0190748Y0374297D01*
X0190857Y0374188D01*
X0190963Y0374076D01*
X0191067Y0373961D01*
X0191167Y0373844D01*
X0191265Y0373724D01*
X0191359Y0373601D01*
X0191450Y0373477D01*
X0191538Y0373349D01*
X0191623Y0373220D01*
X0191704Y0373089D01*
X0191782Y0372955D01*
X0191856Y0372820D01*
X0191927Y0372683D01*
X0191994Y0372543D01*
X0192058Y0372403D01*
X0192118Y0372260D01*
X0192174Y0372117D01*
X0192227Y0371971D01*
X0192276Y0371825D01*
X0192321Y0371677D01*
X0192362Y0371528D01*
X0192400Y0371378D01*
X0192433Y0371227D01*
X0192463Y0371076D01*
X0192489Y0370923D01*
X0192510Y0370770D01*
X0192528Y0370617D01*
X0192542Y0370463D01*
X0192552Y0370309D01*
X0192558Y0370154D01*
X0192560Y0370000D01*
X0192558Y0369846D01*
X0192552Y0369691D01*
X0192542Y0369537D01*
X0192528Y0369383D01*
X0192510Y0369230D01*
X0192489Y0369077D01*
X0192463Y0368924D01*
X0192433Y0368773D01*
X0192400Y0368622D01*
X0192362Y0368472D01*
X0192321Y0368323D01*
X0192276Y0368175D01*
X0192227Y0368029D01*
X0192174Y0367883D01*
X0192118Y0367740D01*
X0192058Y0367597D01*
X0191994Y0367457D01*
X0191927Y0367317D01*
X0191856Y0367180D01*
X0191782Y0367045D01*
X0191704Y0366911D01*
X0191623Y0366780D01*
X0191538Y0366651D01*
X0191450Y0366523D01*
X0191359Y0366399D01*
X0191265Y0366276D01*
X0191167Y0366156D01*
X0191067Y0366039D01*
X0190963Y0365924D01*
X0190857Y0365812D01*
X0190748Y0365703D01*
X0190636Y0365597D01*
X0190521Y0365493D01*
X0190404Y0365393D01*
X0190284Y0365295D01*
X0190161Y0365201D01*
X0190037Y0365110D01*
X0189909Y0365022D01*
X0189780Y0364937D01*
X0189649Y0364856D01*
X0189515Y0364778D01*
X0189380Y0364704D01*
X0189243Y0364633D01*
X0189103Y0364566D01*
X0188963Y0364502D01*
X0188820Y0364442D01*
X0188677Y0364386D01*
X0188531Y0364333D01*
X0188385Y0364284D01*
X0188237Y0364239D01*
X0188088Y0364198D01*
X0187938Y0364160D01*
X0187787Y0364127D01*
X0187636Y0364097D01*
X0187483Y0364071D01*
X0187330Y0364050D01*
X0187177Y0364032D01*
X0187023Y0364018D01*
X0186869Y0364008D01*
X0186714Y0364002D01*
X0186560Y0364000D01*
X0186406Y0364002D01*
X0186251Y0364008D01*
X0186097Y0364018D01*
X0185943Y0364032D01*
X0185790Y0364050D01*
X0185637Y0364071D01*
X0185484Y0364097D01*
X0185333Y0364127D01*
X0185182Y0364160D01*
X0185032Y0364198D01*
X0184883Y0364239D01*
X0184735Y0364284D01*
X0184589Y0364333D01*
X0184443Y0364386D01*
X0184300Y0364442D01*
X0184157Y0364502D01*
X0184017Y0364566D01*
X0183877Y0364633D01*
X0183740Y0364704D01*
X0183605Y0364778D01*
X0183471Y0364856D01*
X0183340Y0364937D01*
X0183211Y0365022D01*
X0183083Y0365110D01*
X0182959Y0365201D01*
X0182836Y0365295D01*
X0182716Y0365393D01*
X0182599Y0365493D01*
X0182484Y0365597D01*
X0182372Y0365703D01*
X0182263Y0365812D01*
X0182157Y0365924D01*
X0182053Y0366039D01*
X0181953Y0366156D01*
X0181855Y0366276D01*
X0181761Y0366399D01*
X0181670Y0366523D01*
X0181582Y0366651D01*
X0181497Y0366780D01*
X0181416Y0366911D01*
X0181338Y0367045D01*
X0181264Y0367180D01*
X0181193Y0367317D01*
X0181126Y0367457D01*
X0181062Y0367597D01*
X0181002Y0367740D01*
X0180946Y0367883D01*
X0180893Y0368029D01*
X0180844Y0368175D01*
X0180799Y0368323D01*
X0180758Y0368472D01*
X0180720Y0368622D01*
X0180687Y0368773D01*
X0180657Y0368924D01*
X0180631Y0369077D01*
X0180610Y0369230D01*
X0180592Y0369383D01*
X0180578Y0369537D01*
X0180568Y0369691D01*
X0180562Y0369846D01*
X0180560Y0370000D01*
X0101060Y0426600D02*
X0101062Y0426748D01*
X0101068Y0426896D01*
X0101078Y0427044D01*
X0101092Y0427192D01*
X0101110Y0427339D01*
X0101132Y0427486D01*
X0101158Y0427632D01*
X0101187Y0427777D01*
X0101221Y0427922D01*
X0101259Y0428065D01*
X0101300Y0428208D01*
X0101345Y0428349D01*
X0101395Y0428489D01*
X0101447Y0428627D01*
X0101504Y0428765D01*
X0101564Y0428900D01*
X0101628Y0429034D01*
X0101695Y0429166D01*
X0101766Y0429296D01*
X0101841Y0429425D01*
X0101919Y0429551D01*
X0102000Y0429675D01*
X0102084Y0429797D01*
X0102172Y0429916D01*
X0102263Y0430033D01*
X0102357Y0430148D01*
X0102455Y0430260D01*
X0102555Y0430369D01*
X0102658Y0430476D01*
X0102764Y0430580D01*
X0102872Y0430681D01*
X0102984Y0430779D01*
X0103098Y0430874D01*
X0103214Y0430965D01*
X0103333Y0431054D01*
X0103454Y0431139D01*
X0103578Y0431221D01*
X0103704Y0431300D01*
X0103831Y0431375D01*
X0103961Y0431447D01*
X0104093Y0431516D01*
X0104226Y0431580D01*
X0104361Y0431641D01*
X0104498Y0431699D01*
X0104636Y0431753D01*
X0104776Y0431803D01*
X0104917Y0431849D01*
X0105059Y0431891D01*
X0105202Y0431930D01*
X0105346Y0431964D01*
X0105492Y0431995D01*
X0105637Y0432022D01*
X0105784Y0432045D01*
X0105931Y0432064D01*
X0106079Y0432079D01*
X0106226Y0432090D01*
X0106375Y0432097D01*
X0106523Y0432100D01*
X0106671Y0432099D01*
X0106819Y0432094D01*
X0106967Y0432085D01*
X0107115Y0432072D01*
X0107263Y0432055D01*
X0107409Y0432034D01*
X0107556Y0432009D01*
X0107701Y0431980D01*
X0107846Y0431948D01*
X0107989Y0431911D01*
X0108132Y0431871D01*
X0108274Y0431826D01*
X0108414Y0431778D01*
X0108553Y0431726D01*
X0108690Y0431671D01*
X0108826Y0431611D01*
X0108961Y0431548D01*
X0109093Y0431482D01*
X0109224Y0431412D01*
X0109353Y0431338D01*
X0109479Y0431261D01*
X0109604Y0431181D01*
X0109726Y0431097D01*
X0109847Y0431010D01*
X0109964Y0430920D01*
X0110080Y0430826D01*
X0110192Y0430730D01*
X0110302Y0430631D01*
X0110410Y0430528D01*
X0110514Y0430423D01*
X0110616Y0430315D01*
X0110714Y0430204D01*
X0110810Y0430091D01*
X0110903Y0429975D01*
X0110992Y0429857D01*
X0111078Y0429736D01*
X0111161Y0429613D01*
X0111241Y0429488D01*
X0111317Y0429361D01*
X0111390Y0429231D01*
X0111459Y0429100D01*
X0111524Y0428967D01*
X0111587Y0428833D01*
X0111645Y0428696D01*
X0111700Y0428558D01*
X0111750Y0428419D01*
X0111798Y0428278D01*
X0111841Y0428137D01*
X0111881Y0427994D01*
X0111916Y0427850D01*
X0111948Y0427705D01*
X0111976Y0427559D01*
X0112000Y0427413D01*
X0112020Y0427266D01*
X0112036Y0427118D01*
X0112048Y0426971D01*
X0112056Y0426822D01*
X0112060Y0426674D01*
X0112060Y0426526D01*
X0112056Y0426378D01*
X0112048Y0426229D01*
X0112036Y0426082D01*
X0112020Y0425934D01*
X0112000Y0425787D01*
X0111976Y0425641D01*
X0111948Y0425495D01*
X0111916Y0425350D01*
X0111881Y0425206D01*
X0111841Y0425063D01*
X0111798Y0424922D01*
X0111750Y0424781D01*
X0111700Y0424642D01*
X0111645Y0424504D01*
X0111587Y0424367D01*
X0111524Y0424233D01*
X0111459Y0424100D01*
X0111390Y0423969D01*
X0111317Y0423839D01*
X0111241Y0423712D01*
X0111161Y0423587D01*
X0111078Y0423464D01*
X0110992Y0423343D01*
X0110903Y0423225D01*
X0110810Y0423109D01*
X0110714Y0422996D01*
X0110616Y0422885D01*
X0110514Y0422777D01*
X0110410Y0422672D01*
X0110302Y0422569D01*
X0110192Y0422470D01*
X0110080Y0422374D01*
X0109964Y0422280D01*
X0109847Y0422190D01*
X0109726Y0422103D01*
X0109604Y0422019D01*
X0109479Y0421939D01*
X0109353Y0421862D01*
X0109224Y0421788D01*
X0109093Y0421718D01*
X0108961Y0421652D01*
X0108826Y0421589D01*
X0108690Y0421529D01*
X0108553Y0421474D01*
X0108414Y0421422D01*
X0108274Y0421374D01*
X0108132Y0421329D01*
X0107989Y0421289D01*
X0107846Y0421252D01*
X0107701Y0421220D01*
X0107556Y0421191D01*
X0107409Y0421166D01*
X0107263Y0421145D01*
X0107115Y0421128D01*
X0106967Y0421115D01*
X0106819Y0421106D01*
X0106671Y0421101D01*
X0106523Y0421100D01*
X0106375Y0421103D01*
X0106226Y0421110D01*
X0106079Y0421121D01*
X0105931Y0421136D01*
X0105784Y0421155D01*
X0105637Y0421178D01*
X0105492Y0421205D01*
X0105346Y0421236D01*
X0105202Y0421270D01*
X0105059Y0421309D01*
X0104917Y0421351D01*
X0104776Y0421397D01*
X0104636Y0421447D01*
X0104498Y0421501D01*
X0104361Y0421559D01*
X0104226Y0421620D01*
X0104093Y0421684D01*
X0103961Y0421753D01*
X0103831Y0421825D01*
X0103704Y0421900D01*
X0103578Y0421979D01*
X0103454Y0422061D01*
X0103333Y0422146D01*
X0103214Y0422235D01*
X0103098Y0422326D01*
X0102984Y0422421D01*
X0102872Y0422519D01*
X0102764Y0422620D01*
X0102658Y0422724D01*
X0102555Y0422831D01*
X0102455Y0422940D01*
X0102357Y0423052D01*
X0102263Y0423167D01*
X0102172Y0423284D01*
X0102084Y0423403D01*
X0102000Y0423525D01*
X0101919Y0423649D01*
X0101841Y0423775D01*
X0101766Y0423904D01*
X0101695Y0424034D01*
X0101628Y0424166D01*
X0101564Y0424300D01*
X0101504Y0424435D01*
X0101447Y0424573D01*
X0101395Y0424711D01*
X0101345Y0424851D01*
X0101300Y0424992D01*
X0101259Y0425135D01*
X0101221Y0425278D01*
X0101187Y0425423D01*
X0101158Y0425568D01*
X0101132Y0425714D01*
X0101110Y0425861D01*
X0101092Y0426008D01*
X0101078Y0426156D01*
X0101068Y0426304D01*
X0101062Y0426452D01*
X0101060Y0426600D01*
X0077560Y0430000D02*
X0077562Y0430161D01*
X0077568Y0430321D01*
X0077578Y0430482D01*
X0077592Y0430642D01*
X0077610Y0430802D01*
X0077631Y0430961D01*
X0077657Y0431120D01*
X0077687Y0431278D01*
X0077720Y0431435D01*
X0077758Y0431592D01*
X0077799Y0431747D01*
X0077844Y0431901D01*
X0077893Y0432054D01*
X0077946Y0432206D01*
X0078002Y0432357D01*
X0078063Y0432506D01*
X0078126Y0432654D01*
X0078194Y0432800D01*
X0078265Y0432944D01*
X0078339Y0433086D01*
X0078417Y0433227D01*
X0078499Y0433365D01*
X0078584Y0433502D01*
X0078672Y0433636D01*
X0078764Y0433768D01*
X0078859Y0433898D01*
X0078957Y0434026D01*
X0079058Y0434151D01*
X0079162Y0434273D01*
X0079269Y0434393D01*
X0079379Y0434510D01*
X0079492Y0434625D01*
X0079608Y0434736D01*
X0079727Y0434845D01*
X0079848Y0434950D01*
X0079972Y0435053D01*
X0080098Y0435153D01*
X0080226Y0435249D01*
X0080357Y0435342D01*
X0080491Y0435432D01*
X0080626Y0435519D01*
X0080764Y0435602D01*
X0080903Y0435682D01*
X0081045Y0435758D01*
X0081188Y0435831D01*
X0081333Y0435900D01*
X0081480Y0435966D01*
X0081628Y0436028D01*
X0081778Y0436086D01*
X0081929Y0436141D01*
X0082082Y0436192D01*
X0082236Y0436239D01*
X0082391Y0436282D01*
X0082547Y0436321D01*
X0082703Y0436357D01*
X0082861Y0436388D01*
X0083019Y0436416D01*
X0083178Y0436440D01*
X0083338Y0436460D01*
X0083498Y0436476D01*
X0083658Y0436488D01*
X0083819Y0436496D01*
X0083980Y0436500D01*
X0084140Y0436500D01*
X0084301Y0436496D01*
X0084462Y0436488D01*
X0084622Y0436476D01*
X0084782Y0436460D01*
X0084942Y0436440D01*
X0085101Y0436416D01*
X0085259Y0436388D01*
X0085417Y0436357D01*
X0085573Y0436321D01*
X0085729Y0436282D01*
X0085884Y0436239D01*
X0086038Y0436192D01*
X0086191Y0436141D01*
X0086342Y0436086D01*
X0086492Y0436028D01*
X0086640Y0435966D01*
X0086787Y0435900D01*
X0086932Y0435831D01*
X0087075Y0435758D01*
X0087217Y0435682D01*
X0087356Y0435602D01*
X0087494Y0435519D01*
X0087629Y0435432D01*
X0087763Y0435342D01*
X0087894Y0435249D01*
X0088022Y0435153D01*
X0088148Y0435053D01*
X0088272Y0434950D01*
X0088393Y0434845D01*
X0088512Y0434736D01*
X0088628Y0434625D01*
X0088741Y0434510D01*
X0088851Y0434393D01*
X0088958Y0434273D01*
X0089062Y0434151D01*
X0089163Y0434026D01*
X0089261Y0433898D01*
X0089356Y0433768D01*
X0089448Y0433636D01*
X0089536Y0433502D01*
X0089621Y0433365D01*
X0089703Y0433227D01*
X0089781Y0433086D01*
X0089855Y0432944D01*
X0089926Y0432800D01*
X0089994Y0432654D01*
X0090057Y0432506D01*
X0090118Y0432357D01*
X0090174Y0432206D01*
X0090227Y0432054D01*
X0090276Y0431901D01*
X0090321Y0431747D01*
X0090362Y0431592D01*
X0090400Y0431435D01*
X0090433Y0431278D01*
X0090463Y0431120D01*
X0090489Y0430961D01*
X0090510Y0430802D01*
X0090528Y0430642D01*
X0090542Y0430482D01*
X0090552Y0430321D01*
X0090558Y0430161D01*
X0090560Y0430000D01*
X0090558Y0429839D01*
X0090552Y0429679D01*
X0090542Y0429518D01*
X0090528Y0429358D01*
X0090510Y0429198D01*
X0090489Y0429039D01*
X0090463Y0428880D01*
X0090433Y0428722D01*
X0090400Y0428565D01*
X0090362Y0428408D01*
X0090321Y0428253D01*
X0090276Y0428099D01*
X0090227Y0427946D01*
X0090174Y0427794D01*
X0090118Y0427643D01*
X0090057Y0427494D01*
X0089994Y0427346D01*
X0089926Y0427200D01*
X0089855Y0427056D01*
X0089781Y0426914D01*
X0089703Y0426773D01*
X0089621Y0426635D01*
X0089536Y0426498D01*
X0089448Y0426364D01*
X0089356Y0426232D01*
X0089261Y0426102D01*
X0089163Y0425974D01*
X0089062Y0425849D01*
X0088958Y0425727D01*
X0088851Y0425607D01*
X0088741Y0425490D01*
X0088628Y0425375D01*
X0088512Y0425264D01*
X0088393Y0425155D01*
X0088272Y0425050D01*
X0088148Y0424947D01*
X0088022Y0424847D01*
X0087894Y0424751D01*
X0087763Y0424658D01*
X0087629Y0424568D01*
X0087494Y0424481D01*
X0087356Y0424398D01*
X0087217Y0424318D01*
X0087075Y0424242D01*
X0086932Y0424169D01*
X0086787Y0424100D01*
X0086640Y0424034D01*
X0086492Y0423972D01*
X0086342Y0423914D01*
X0086191Y0423859D01*
X0086038Y0423808D01*
X0085884Y0423761D01*
X0085729Y0423718D01*
X0085573Y0423679D01*
X0085417Y0423643D01*
X0085259Y0423612D01*
X0085101Y0423584D01*
X0084942Y0423560D01*
X0084782Y0423540D01*
X0084622Y0423524D01*
X0084462Y0423512D01*
X0084301Y0423504D01*
X0084140Y0423500D01*
X0083980Y0423500D01*
X0083819Y0423504D01*
X0083658Y0423512D01*
X0083498Y0423524D01*
X0083338Y0423540D01*
X0083178Y0423560D01*
X0083019Y0423584D01*
X0082861Y0423612D01*
X0082703Y0423643D01*
X0082547Y0423679D01*
X0082391Y0423718D01*
X0082236Y0423761D01*
X0082082Y0423808D01*
X0081929Y0423859D01*
X0081778Y0423914D01*
X0081628Y0423972D01*
X0081480Y0424034D01*
X0081333Y0424100D01*
X0081188Y0424169D01*
X0081045Y0424242D01*
X0080903Y0424318D01*
X0080764Y0424398D01*
X0080626Y0424481D01*
X0080491Y0424568D01*
X0080357Y0424658D01*
X0080226Y0424751D01*
X0080098Y0424847D01*
X0079972Y0424947D01*
X0079848Y0425050D01*
X0079727Y0425155D01*
X0079608Y0425264D01*
X0079492Y0425375D01*
X0079379Y0425490D01*
X0079269Y0425607D01*
X0079162Y0425727D01*
X0079058Y0425849D01*
X0078957Y0425974D01*
X0078859Y0426102D01*
X0078764Y0426232D01*
X0078672Y0426364D01*
X0078584Y0426498D01*
X0078499Y0426635D01*
X0078417Y0426773D01*
X0078339Y0426914D01*
X0078265Y0427056D01*
X0078194Y0427200D01*
X0078126Y0427346D01*
X0078063Y0427494D01*
X0078002Y0427643D01*
X0077946Y0427794D01*
X0077893Y0427946D01*
X0077844Y0428099D01*
X0077799Y0428253D01*
X0077758Y0428408D01*
X0077720Y0428565D01*
X0077687Y0428722D01*
X0077657Y0428880D01*
X0077631Y0429039D01*
X0077610Y0429198D01*
X0077592Y0429358D01*
X0077578Y0429518D01*
X0077568Y0429679D01*
X0077562Y0429839D01*
X0077560Y0430000D01*
M02*
