G75*
%MOIN*%
%OFA0B0*%
%FSLAX25Y25*%
%IPPOS*%
%LPD*%
%AMOC8*
5,1,8,0,0,1.08239X$1,22.5*
%
%ADD10C,0.00800*%
%ADD11C,0.00900*%
%ADD12R,0.07205X0.00118*%
%ADD13R,0.07913X0.00118*%
%ADD14R,0.08386X0.00079*%
%ADD15R,0.08858X0.00157*%
%ADD16R,0.09094X0.00118*%
%ADD17R,0.09331X0.00118*%
%ADD18R,0.09567X0.00079*%
%ADD19R,0.03661X0.00118*%
%ADD20R,0.02126X0.00118*%
%ADD21R,0.02953X0.00118*%
%ADD22R,0.02244X0.00157*%
%ADD23R,0.00591X0.00157*%
%ADD24R,0.01535X0.00157*%
%ADD25R,0.02598X0.00157*%
%ADD26R,0.02244X0.00118*%
%ADD27R,0.00472X0.00118*%
%ADD28R,0.01181X0.00118*%
%ADD29R,0.02362X0.00118*%
%ADD30R,0.00945X0.00118*%
%ADD31R,0.00354X0.00118*%
%ADD32R,0.00827X0.00118*%
%ADD33R,0.02480X0.00157*%
%ADD34R,0.00354X0.00157*%
%ADD35R,0.00236X0.00157*%
%ADD36R,0.02480X0.00118*%
%ADD37R,0.02598X0.00118*%
%ADD38R,0.01063X0.00118*%
%ADD39R,0.02835X0.00118*%
%ADD40R,0.00472X0.00157*%
%ADD41R,0.04252X0.00157*%
%ADD42R,0.04370X0.00118*%
%ADD43R,0.00591X0.00118*%
%ADD44R,0.04488X0.00118*%
%ADD45R,0.00709X0.00157*%
%ADD46R,0.04488X0.00157*%
%ADD47R,0.00236X0.00118*%
%ADD48R,0.00118X0.00118*%
%ADD49R,0.00118X0.00157*%
%ADD50R,0.04370X0.00157*%
%ADD51R,0.04252X0.00118*%
%ADD52R,0.02717X0.00118*%
%ADD53R,0.03071X0.00157*%
%ADD54R,0.03425X0.00118*%
%ADD55R,0.09567X0.00118*%
%ADD56R,0.08858X0.00118*%
%ADD57R,0.08386X0.00118*%
%ADD58R,0.10748X0.00118*%
%ADD59R,0.11457X0.00118*%
%ADD60R,0.11929X0.00079*%
%ADD61R,0.12402X0.00157*%
%ADD62R,0.12638X0.00118*%
%ADD63R,0.12874X0.00118*%
%ADD64R,0.13110X0.00079*%
%ADD65R,0.04961X0.00118*%
%ADD66R,0.03071X0.00118*%
%ADD67R,0.05079X0.00118*%
%ADD68R,0.00945X0.00157*%
%ADD69R,0.01181X0.00157*%
%ADD70R,0.02835X0.00157*%
%ADD71R,0.00709X0.00118*%
%ADD72R,0.00827X0.00157*%
%ADD73R,0.01299X0.00118*%
%ADD74R,0.01654X0.00118*%
%ADD75R,0.01063X0.00157*%
%ADD76R,0.02126X0.00157*%
%ADD77R,0.01417X0.00118*%
%ADD78R,0.13110X0.00118*%
%ADD79R,0.12402X0.00118*%
%ADD80R,0.11929X0.00118*%
%ADD81R,0.00197X0.00197*%
%ADD82R,0.01378X0.00197*%
%ADD83R,0.02756X0.00197*%
%ADD84R,0.01181X0.00197*%
%ADD85R,0.00394X0.00197*%
%ADD86R,0.02165X0.00197*%
%ADD87R,0.00984X0.00197*%
%ADD88R,0.02362X0.00197*%
%ADD89R,0.03740X0.00197*%
%ADD90R,0.01969X0.00197*%
%ADD91R,0.01772X0.00197*%
%ADD92R,0.02559X0.00197*%
%ADD93R,0.02953X0.00197*%
%ADD94R,0.03150X0.00197*%
%ADD95R,0.01575X0.00197*%
%ADD96R,0.03346X0.00197*%
%ADD97R,0.03543X0.00197*%
%ADD98R,0.00591X0.00197*%
%ADD99R,0.00787X0.00197*%
%ADD100R,0.01575X0.00236*%
%ADD101R,0.01378X0.00236*%
%ADD102R,0.02559X0.00236*%
%ADD103R,0.01969X0.00236*%
%ADD104R,0.03543X0.00236*%
%ADD105R,0.03150X0.00236*%
%ADD106R,0.02756X0.00236*%
%ADD107R,0.03937X0.00197*%
%ADD108R,0.04134X0.00197*%
%ADD109R,0.04331X0.00197*%
%ADD110R,0.04528X0.00197*%
%ADD111R,0.04724X0.00236*%
%ADD112R,0.03346X0.00236*%
%ADD113R,0.01181X0.00236*%
%ADD114R,0.00984X0.00236*%
%ADD115R,0.04921X0.00197*%
%ADD116R,0.05315X0.00197*%
%ADD117R,0.03937X0.00236*%
%ADD118R,0.02362X0.00236*%
%ADD119R,0.00945X0.00236*%
%ADD120R,0.01654X0.00236*%
%ADD121R,0.01417X0.00236*%
%ADD122R,0.02598X0.00236*%
%ADD123R,0.00709X0.00236*%
%ADD124R,0.03307X0.00236*%
%ADD125R,0.03780X0.00236*%
%ADD126R,0.04016X0.00236*%
%ADD127R,0.01890X0.00236*%
%ADD128R,0.00472X0.00236*%
%ADD129R,0.03071X0.00236*%
%ADD130R,0.02835X0.00236*%
%ADD131R,0.04252X0.00236*%
%ADD132R,0.04488X0.00236*%
%ADD133R,0.02126X0.00236*%
%ADD134R,0.00236X0.00236*%
%ADD135R,0.12165X0.00118*%
%ADD136R,0.12638X0.00079*%
%ADD137R,0.13110X0.00157*%
%ADD138R,0.13346X0.00118*%
%ADD139R,0.13583X0.00118*%
%ADD140R,0.13819X0.00079*%
%ADD141R,0.10630X0.00118*%
%ADD142R,0.02008X0.00118*%
%ADD143R,0.02362X0.00157*%
%ADD144R,0.01535X0.00118*%
%ADD145R,0.03543X0.00118*%
%ADD146R,0.01299X0.00157*%
%ADD147R,0.03543X0.00157*%
%ADD148R,0.01772X0.00118*%
%ADD149R,0.02717X0.00157*%
%ADD150R,0.03189X0.00118*%
%ADD151R,0.03898X0.00157*%
%ADD152R,0.03425X0.00157*%
%ADD153R,0.03307X0.00118*%
%ADD154R,0.01417X0.00157*%
%ADD155R,0.01654X0.00157*%
%ADD156R,0.03189X0.00157*%
%ADD157R,0.13819X0.00118*%
%ADD158R,0.04961X0.00236*%
%ADD159R,0.05906X0.00236*%
%ADD160R,0.05433X0.00236*%
%ADD161R,0.01732X0.00157*%
%ADD162R,0.00157X0.00157*%
%ADD163R,0.00315X0.00157*%
%ADD164R,0.02520X0.00157*%
%ADD165R,0.00787X0.00157*%
%ADD166R,0.01102X0.00157*%
%ADD167R,0.02992X0.00157*%
%ADD168R,0.01260X0.00157*%
%ADD169R,0.03150X0.00157*%
%ADD170R,0.01575X0.00157*%
%ADD171R,0.02205X0.00157*%
%ADD172R,0.02047X0.00157*%
%ADD173R,0.01890X0.00157*%
%ADD174R,0.03307X0.00157*%
%ADD175R,0.02677X0.00157*%
%ADD176R,0.00630X0.00157*%
%ADD177R,0.03465X0.00157*%
%ADD178R,0.00157X0.15276*%
%ADD179R,0.00157X0.03307*%
%ADD180R,0.00157X0.11024*%
%ADD181R,0.00157X0.02992*%
%ADD182R,0.00157X0.01260*%
%ADD183R,0.00157X0.01890*%
%ADD184R,0.00157X0.00630*%
%ADD185R,0.00157X0.02677*%
%ADD186R,0.00157X0.00787*%
%ADD187R,0.00157X0.01575*%
%ADD188R,0.00157X0.00472*%
%ADD189R,0.00157X0.02520*%
%ADD190R,0.00157X0.01417*%
%ADD191R,0.00157X0.02205*%
%ADD192R,0.00157X0.02362*%
%ADD193R,0.00157X0.02047*%
%ADD194R,0.00157X0.01102*%
%ADD195R,0.00157X0.00945*%
%ADD196R,0.00157X0.02835*%
%ADD197R,0.00157X0.01732*%
%ADD198R,0.00157X0.00315*%
%ADD199R,0.00157X0.03150*%
%ADD200R,0.00157X0.14331*%
%ADD201R,0.00157X0.07087*%
%ADD202R,0.00157X0.03465*%
%ADD203R,0.00157X0.13858*%
%ADD204R,0.00157X0.14646*%
%ADD205R,0.00157X0.14961*%
%ADD206R,0.00157X0.15118*%
%ADD207R,0.00157X0.15433*%
%ADD208R,0.00157X0.11969*%
%ADD209R,0.00157X0.04567*%
%ADD210R,0.00157X0.04409*%
%ADD211R,0.00157X0.04252*%
%ADD212R,0.00157X0.04094*%
%ADD213R,0.00157X0.03937*%
%ADD214R,0.00157X0.03780*%
%ADD215R,0.00157X0.12913*%
%ADD216R,0.00157X0.13386*%
%ADD217R,0.00157X0.13701*%
%ADD218R,0.00157X0.14016*%
%ADD219R,0.00157X0.14173*%
%ADD220R,0.00157X0.14488*%
%ADD221R,0.00157X0.04882*%
%ADD222R,0.00157X0.05039*%
%ADD223R,0.00157X0.05197*%
%ADD224R,0.00157X0.03622*%
%ADD225R,0.00157X0.12756*%
%ADD226R,0.00157X0.12598*%
%ADD227R,0.00157X0.12441*%
%ADD228R,0.00157X0.12283*%
%ADD229R,0.00157X0.11181*%
%ADD230R,0.00157X0.10866*%
%ADD231R,0.00157X0.10709*%
%ADD232R,0.00157X0.12126*%
%ADD233R,0.00157X0.11496*%
%ADD234R,0.00157X0.11654*%
%ADD235R,0.00157X0.13071*%
%ADD236R,0.00157X0.13228*%
%ADD237R,0.00157X0.11811*%
%ADD238C,0.00300*%
D10*
X0063905Y0200000D02*
X0063919Y0201166D01*
X0063962Y0202331D01*
X0064034Y0203495D01*
X0064134Y0204656D01*
X0064262Y0205815D01*
X0064419Y0206970D01*
X0064604Y0208121D01*
X0064818Y0209267D01*
X0065059Y0210408D01*
X0065329Y0211542D01*
X0065626Y0212670D01*
X0065950Y0213789D01*
X0066303Y0214901D01*
X0066682Y0216003D01*
X0067088Y0217096D01*
X0067521Y0218179D01*
X0067980Y0219250D01*
X0068466Y0220310D01*
X0068977Y0221358D01*
X0069514Y0222393D01*
X0070076Y0223414D01*
X0070663Y0224421D01*
X0071275Y0225414D01*
X0071911Y0226391D01*
X0072570Y0227353D01*
X0073253Y0228298D01*
X0073959Y0229225D01*
X0074688Y0230136D01*
X0075438Y0231028D01*
X0076211Y0231901D01*
X0077004Y0232755D01*
X0077818Y0233590D01*
X0078653Y0234404D01*
X0079507Y0235197D01*
X0080380Y0235970D01*
X0081272Y0236720D01*
X0082183Y0237449D01*
X0083110Y0238155D01*
X0084055Y0238838D01*
X0085017Y0239497D01*
X0085994Y0240133D01*
X0086987Y0240745D01*
X0087994Y0241332D01*
X0089015Y0241894D01*
X0090050Y0242431D01*
X0091098Y0242942D01*
X0092158Y0243428D01*
X0093229Y0243887D01*
X0094312Y0244320D01*
X0095405Y0244726D01*
X0096507Y0245105D01*
X0097619Y0245458D01*
X0098738Y0245782D01*
X0099866Y0246079D01*
X0101000Y0246349D01*
X0102141Y0246590D01*
X0103287Y0246804D01*
X0104438Y0246989D01*
X0105593Y0247146D01*
X0106752Y0247274D01*
X0107913Y0247374D01*
X0109077Y0247446D01*
X0110242Y0247489D01*
X0111408Y0247503D01*
X0112574Y0247489D01*
X0113739Y0247446D01*
X0114903Y0247374D01*
X0116064Y0247274D01*
X0117223Y0247146D01*
X0118378Y0246989D01*
X0119529Y0246804D01*
X0120675Y0246590D01*
X0121816Y0246349D01*
X0122950Y0246079D01*
X0124078Y0245782D01*
X0125197Y0245458D01*
X0126309Y0245105D01*
X0127411Y0244726D01*
X0128504Y0244320D01*
X0129587Y0243887D01*
X0130658Y0243428D01*
X0131718Y0242942D01*
X0132766Y0242431D01*
X0133801Y0241894D01*
X0134822Y0241332D01*
X0135829Y0240745D01*
X0136822Y0240133D01*
X0137799Y0239497D01*
X0138761Y0238838D01*
X0139706Y0238155D01*
X0140633Y0237449D01*
X0141544Y0236720D01*
X0142436Y0235970D01*
X0143309Y0235197D01*
X0144163Y0234404D01*
X0144998Y0233590D01*
X0145812Y0232755D01*
X0146605Y0231901D01*
X0147378Y0231028D01*
X0148128Y0230136D01*
X0148857Y0229225D01*
X0149563Y0228298D01*
X0150246Y0227353D01*
X0150905Y0226391D01*
X0151541Y0225414D01*
X0152153Y0224421D01*
X0152740Y0223414D01*
X0153302Y0222393D01*
X0153839Y0221358D01*
X0154350Y0220310D01*
X0154836Y0219250D01*
X0155295Y0218179D01*
X0155728Y0217096D01*
X0156134Y0216003D01*
X0156513Y0214901D01*
X0156866Y0213789D01*
X0157190Y0212670D01*
X0157487Y0211542D01*
X0157757Y0210408D01*
X0157998Y0209267D01*
X0158212Y0208121D01*
X0158397Y0206970D01*
X0158554Y0205815D01*
X0158682Y0204656D01*
X0158782Y0203495D01*
X0158854Y0202331D01*
X0158897Y0201166D01*
X0158911Y0200000D01*
X0158897Y0198834D01*
X0158854Y0197669D01*
X0158782Y0196505D01*
X0158682Y0195344D01*
X0158554Y0194185D01*
X0158397Y0193030D01*
X0158212Y0191879D01*
X0157998Y0190733D01*
X0157757Y0189592D01*
X0157487Y0188458D01*
X0157190Y0187330D01*
X0156866Y0186211D01*
X0156513Y0185099D01*
X0156134Y0183997D01*
X0155728Y0182904D01*
X0155295Y0181821D01*
X0154836Y0180750D01*
X0154350Y0179690D01*
X0153839Y0178642D01*
X0153302Y0177607D01*
X0152740Y0176586D01*
X0152153Y0175579D01*
X0151541Y0174586D01*
X0150905Y0173609D01*
X0150246Y0172647D01*
X0149563Y0171702D01*
X0148857Y0170775D01*
X0148128Y0169864D01*
X0147378Y0168972D01*
X0146605Y0168099D01*
X0145812Y0167245D01*
X0144998Y0166410D01*
X0144163Y0165596D01*
X0143309Y0164803D01*
X0142436Y0164030D01*
X0141544Y0163280D01*
X0140633Y0162551D01*
X0139706Y0161845D01*
X0138761Y0161162D01*
X0137799Y0160503D01*
X0136822Y0159867D01*
X0135829Y0159255D01*
X0134822Y0158668D01*
X0133801Y0158106D01*
X0132766Y0157569D01*
X0131718Y0157058D01*
X0130658Y0156572D01*
X0129587Y0156113D01*
X0128504Y0155680D01*
X0127411Y0155274D01*
X0126309Y0154895D01*
X0125197Y0154542D01*
X0124078Y0154218D01*
X0122950Y0153921D01*
X0121816Y0153651D01*
X0120675Y0153410D01*
X0119529Y0153196D01*
X0118378Y0153011D01*
X0117223Y0152854D01*
X0116064Y0152726D01*
X0114903Y0152626D01*
X0113739Y0152554D01*
X0112574Y0152511D01*
X0111408Y0152497D01*
X0110242Y0152511D01*
X0109077Y0152554D01*
X0107913Y0152626D01*
X0106752Y0152726D01*
X0105593Y0152854D01*
X0104438Y0153011D01*
X0103287Y0153196D01*
X0102141Y0153410D01*
X0101000Y0153651D01*
X0099866Y0153921D01*
X0098738Y0154218D01*
X0097619Y0154542D01*
X0096507Y0154895D01*
X0095405Y0155274D01*
X0094312Y0155680D01*
X0093229Y0156113D01*
X0092158Y0156572D01*
X0091098Y0157058D01*
X0090050Y0157569D01*
X0089015Y0158106D01*
X0087994Y0158668D01*
X0086987Y0159255D01*
X0085994Y0159867D01*
X0085017Y0160503D01*
X0084055Y0161162D01*
X0083110Y0161845D01*
X0082183Y0162551D01*
X0081272Y0163280D01*
X0080380Y0164030D01*
X0079507Y0164803D01*
X0078653Y0165596D01*
X0077818Y0166410D01*
X0077004Y0167245D01*
X0076211Y0168099D01*
X0075438Y0168972D01*
X0074688Y0169864D01*
X0073959Y0170775D01*
X0073253Y0171702D01*
X0072570Y0172647D01*
X0071911Y0173609D01*
X0071275Y0174586D01*
X0070663Y0175579D01*
X0070076Y0176586D01*
X0069514Y0177607D01*
X0068977Y0178642D01*
X0068466Y0179690D01*
X0067980Y0180750D01*
X0067521Y0181821D01*
X0067088Y0182904D01*
X0066682Y0183997D01*
X0066303Y0185099D01*
X0065950Y0186211D01*
X0065626Y0187330D01*
X0065329Y0188458D01*
X0065059Y0189592D01*
X0064818Y0190733D01*
X0064604Y0191879D01*
X0064419Y0193030D01*
X0064262Y0194185D01*
X0064134Y0195344D01*
X0064034Y0196505D01*
X0063962Y0197669D01*
X0063919Y0198834D01*
X0063905Y0200000D01*
X0099908Y0200000D02*
X0099911Y0200282D01*
X0099922Y0200564D01*
X0099939Y0200846D01*
X0099963Y0201127D01*
X0099994Y0201408D01*
X0100032Y0201687D01*
X0100077Y0201966D01*
X0100129Y0202244D01*
X0100187Y0202520D01*
X0100253Y0202794D01*
X0100325Y0203067D01*
X0100403Y0203338D01*
X0100488Y0203607D01*
X0100580Y0203874D01*
X0100679Y0204139D01*
X0100783Y0204401D01*
X0100895Y0204660D01*
X0101012Y0204917D01*
X0101136Y0205171D01*
X0101266Y0205421D01*
X0101402Y0205668D01*
X0101544Y0205912D01*
X0101692Y0206152D01*
X0101846Y0206389D01*
X0102006Y0206622D01*
X0102171Y0206851D01*
X0102342Y0207075D01*
X0102518Y0207296D01*
X0102700Y0207511D01*
X0102887Y0207723D01*
X0103079Y0207930D01*
X0103276Y0208132D01*
X0103478Y0208329D01*
X0103685Y0208521D01*
X0103897Y0208708D01*
X0104112Y0208890D01*
X0104333Y0209066D01*
X0104557Y0209237D01*
X0104786Y0209402D01*
X0105019Y0209562D01*
X0105256Y0209716D01*
X0105496Y0209864D01*
X0105740Y0210006D01*
X0105987Y0210142D01*
X0106237Y0210272D01*
X0106491Y0210396D01*
X0106748Y0210513D01*
X0107007Y0210625D01*
X0107269Y0210729D01*
X0107534Y0210828D01*
X0107801Y0210920D01*
X0108070Y0211005D01*
X0108341Y0211083D01*
X0108614Y0211155D01*
X0108888Y0211221D01*
X0109164Y0211279D01*
X0109442Y0211331D01*
X0109721Y0211376D01*
X0110000Y0211414D01*
X0110281Y0211445D01*
X0110562Y0211469D01*
X0110844Y0211486D01*
X0111126Y0211497D01*
X0111408Y0211500D01*
X0111690Y0211497D01*
X0111972Y0211486D01*
X0112254Y0211469D01*
X0112535Y0211445D01*
X0112816Y0211414D01*
X0113095Y0211376D01*
X0113374Y0211331D01*
X0113652Y0211279D01*
X0113928Y0211221D01*
X0114202Y0211155D01*
X0114475Y0211083D01*
X0114746Y0211005D01*
X0115015Y0210920D01*
X0115282Y0210828D01*
X0115547Y0210729D01*
X0115809Y0210625D01*
X0116068Y0210513D01*
X0116325Y0210396D01*
X0116579Y0210272D01*
X0116829Y0210142D01*
X0117076Y0210006D01*
X0117320Y0209864D01*
X0117560Y0209716D01*
X0117797Y0209562D01*
X0118030Y0209402D01*
X0118259Y0209237D01*
X0118483Y0209066D01*
X0118704Y0208890D01*
X0118919Y0208708D01*
X0119131Y0208521D01*
X0119338Y0208329D01*
X0119540Y0208132D01*
X0119737Y0207930D01*
X0119929Y0207723D01*
X0120116Y0207511D01*
X0120298Y0207296D01*
X0120474Y0207075D01*
X0120645Y0206851D01*
X0120810Y0206622D01*
X0120970Y0206389D01*
X0121124Y0206152D01*
X0121272Y0205912D01*
X0121414Y0205668D01*
X0121550Y0205421D01*
X0121680Y0205171D01*
X0121804Y0204917D01*
X0121921Y0204660D01*
X0122033Y0204401D01*
X0122137Y0204139D01*
X0122236Y0203874D01*
X0122328Y0203607D01*
X0122413Y0203338D01*
X0122491Y0203067D01*
X0122563Y0202794D01*
X0122629Y0202520D01*
X0122687Y0202244D01*
X0122739Y0201966D01*
X0122784Y0201687D01*
X0122822Y0201408D01*
X0122853Y0201127D01*
X0122877Y0200846D01*
X0122894Y0200564D01*
X0122905Y0200282D01*
X0122908Y0200000D01*
X0122905Y0199718D01*
X0122894Y0199436D01*
X0122877Y0199154D01*
X0122853Y0198873D01*
X0122822Y0198592D01*
X0122784Y0198313D01*
X0122739Y0198034D01*
X0122687Y0197756D01*
X0122629Y0197480D01*
X0122563Y0197206D01*
X0122491Y0196933D01*
X0122413Y0196662D01*
X0122328Y0196393D01*
X0122236Y0196126D01*
X0122137Y0195861D01*
X0122033Y0195599D01*
X0121921Y0195340D01*
X0121804Y0195083D01*
X0121680Y0194829D01*
X0121550Y0194579D01*
X0121414Y0194332D01*
X0121272Y0194088D01*
X0121124Y0193848D01*
X0120970Y0193611D01*
X0120810Y0193378D01*
X0120645Y0193149D01*
X0120474Y0192925D01*
X0120298Y0192704D01*
X0120116Y0192489D01*
X0119929Y0192277D01*
X0119737Y0192070D01*
X0119540Y0191868D01*
X0119338Y0191671D01*
X0119131Y0191479D01*
X0118919Y0191292D01*
X0118704Y0191110D01*
X0118483Y0190934D01*
X0118259Y0190763D01*
X0118030Y0190598D01*
X0117797Y0190438D01*
X0117560Y0190284D01*
X0117320Y0190136D01*
X0117076Y0189994D01*
X0116829Y0189858D01*
X0116579Y0189728D01*
X0116325Y0189604D01*
X0116068Y0189487D01*
X0115809Y0189375D01*
X0115547Y0189271D01*
X0115282Y0189172D01*
X0115015Y0189080D01*
X0114746Y0188995D01*
X0114475Y0188917D01*
X0114202Y0188845D01*
X0113928Y0188779D01*
X0113652Y0188721D01*
X0113374Y0188669D01*
X0113095Y0188624D01*
X0112816Y0188586D01*
X0112535Y0188555D01*
X0112254Y0188531D01*
X0111972Y0188514D01*
X0111690Y0188503D01*
X0111408Y0188500D01*
X0111126Y0188503D01*
X0110844Y0188514D01*
X0110562Y0188531D01*
X0110281Y0188555D01*
X0110000Y0188586D01*
X0109721Y0188624D01*
X0109442Y0188669D01*
X0109164Y0188721D01*
X0108888Y0188779D01*
X0108614Y0188845D01*
X0108341Y0188917D01*
X0108070Y0188995D01*
X0107801Y0189080D01*
X0107534Y0189172D01*
X0107269Y0189271D01*
X0107007Y0189375D01*
X0106748Y0189487D01*
X0106491Y0189604D01*
X0106237Y0189728D01*
X0105987Y0189858D01*
X0105740Y0189994D01*
X0105496Y0190136D01*
X0105256Y0190284D01*
X0105019Y0190438D01*
X0104786Y0190598D01*
X0104557Y0190763D01*
X0104333Y0190934D01*
X0104112Y0191110D01*
X0103897Y0191292D01*
X0103685Y0191479D01*
X0103478Y0191671D01*
X0103276Y0191868D01*
X0103079Y0192070D01*
X0102887Y0192277D01*
X0102700Y0192489D01*
X0102518Y0192704D01*
X0102342Y0192925D01*
X0102171Y0193149D01*
X0102006Y0193378D01*
X0101846Y0193611D01*
X0101692Y0193848D01*
X0101544Y0194088D01*
X0101402Y0194332D01*
X0101266Y0194579D01*
X0101136Y0194829D01*
X0101012Y0195083D01*
X0100895Y0195340D01*
X0100783Y0195599D01*
X0100679Y0195861D01*
X0100580Y0196126D01*
X0100488Y0196393D01*
X0100403Y0196662D01*
X0100325Y0196933D01*
X0100253Y0197206D01*
X0100187Y0197480D01*
X0100129Y0197756D01*
X0100077Y0198034D01*
X0100032Y0198313D01*
X0099994Y0198592D01*
X0099963Y0198873D01*
X0099939Y0199154D01*
X0099922Y0199436D01*
X0099911Y0199718D01*
X0099908Y0200000D01*
X0081408Y0200000D02*
X0081417Y0200736D01*
X0081444Y0201472D01*
X0081489Y0202207D01*
X0081552Y0202941D01*
X0081634Y0203672D01*
X0081733Y0204402D01*
X0081850Y0205129D01*
X0081984Y0205853D01*
X0082137Y0206573D01*
X0082307Y0207289D01*
X0082495Y0208001D01*
X0082700Y0208709D01*
X0082922Y0209410D01*
X0083162Y0210107D01*
X0083418Y0210797D01*
X0083692Y0211481D01*
X0083982Y0212157D01*
X0084288Y0212827D01*
X0084611Y0213488D01*
X0084950Y0214142D01*
X0085305Y0214787D01*
X0085676Y0215423D01*
X0086062Y0216050D01*
X0086464Y0216667D01*
X0086880Y0217274D01*
X0087312Y0217871D01*
X0087758Y0218457D01*
X0088218Y0219032D01*
X0088692Y0219595D01*
X0089179Y0220147D01*
X0089681Y0220686D01*
X0090195Y0221213D01*
X0090722Y0221727D01*
X0091261Y0222229D01*
X0091813Y0222716D01*
X0092376Y0223190D01*
X0092951Y0223650D01*
X0093537Y0224096D01*
X0094134Y0224528D01*
X0094741Y0224944D01*
X0095358Y0225346D01*
X0095985Y0225732D01*
X0096621Y0226103D01*
X0097266Y0226458D01*
X0097920Y0226797D01*
X0098581Y0227120D01*
X0099251Y0227426D01*
X0099927Y0227716D01*
X0100611Y0227990D01*
X0101301Y0228246D01*
X0101998Y0228486D01*
X0102699Y0228708D01*
X0103407Y0228913D01*
X0104119Y0229101D01*
X0104835Y0229271D01*
X0105555Y0229424D01*
X0106279Y0229558D01*
X0107006Y0229675D01*
X0107736Y0229774D01*
X0108467Y0229856D01*
X0109201Y0229919D01*
X0109936Y0229964D01*
X0110672Y0229991D01*
X0111408Y0230000D01*
X0112144Y0229991D01*
X0112880Y0229964D01*
X0113615Y0229919D01*
X0114349Y0229856D01*
X0115080Y0229774D01*
X0115810Y0229675D01*
X0116537Y0229558D01*
X0117261Y0229424D01*
X0117981Y0229271D01*
X0118697Y0229101D01*
X0119409Y0228913D01*
X0120117Y0228708D01*
X0120818Y0228486D01*
X0121515Y0228246D01*
X0122205Y0227990D01*
X0122889Y0227716D01*
X0123565Y0227426D01*
X0124235Y0227120D01*
X0124896Y0226797D01*
X0125550Y0226458D01*
X0126195Y0226103D01*
X0126831Y0225732D01*
X0127458Y0225346D01*
X0128075Y0224944D01*
X0128682Y0224528D01*
X0129279Y0224096D01*
X0129865Y0223650D01*
X0130440Y0223190D01*
X0131003Y0222716D01*
X0131555Y0222229D01*
X0132094Y0221727D01*
X0132621Y0221213D01*
X0133135Y0220686D01*
X0133637Y0220147D01*
X0134124Y0219595D01*
X0134598Y0219032D01*
X0135058Y0218457D01*
X0135504Y0217871D01*
X0135936Y0217274D01*
X0136352Y0216667D01*
X0136754Y0216050D01*
X0137140Y0215423D01*
X0137511Y0214787D01*
X0137866Y0214142D01*
X0138205Y0213488D01*
X0138528Y0212827D01*
X0138834Y0212157D01*
X0139124Y0211481D01*
X0139398Y0210797D01*
X0139654Y0210107D01*
X0139894Y0209410D01*
X0140116Y0208709D01*
X0140321Y0208001D01*
X0140509Y0207289D01*
X0140679Y0206573D01*
X0140832Y0205853D01*
X0140966Y0205129D01*
X0141083Y0204402D01*
X0141182Y0203672D01*
X0141264Y0202941D01*
X0141327Y0202207D01*
X0141372Y0201472D01*
X0141399Y0200736D01*
X0141408Y0200000D01*
X0141399Y0199264D01*
X0141372Y0198528D01*
X0141327Y0197793D01*
X0141264Y0197059D01*
X0141182Y0196328D01*
X0141083Y0195598D01*
X0140966Y0194871D01*
X0140832Y0194147D01*
X0140679Y0193427D01*
X0140509Y0192711D01*
X0140321Y0191999D01*
X0140116Y0191291D01*
X0139894Y0190590D01*
X0139654Y0189893D01*
X0139398Y0189203D01*
X0139124Y0188519D01*
X0138834Y0187843D01*
X0138528Y0187173D01*
X0138205Y0186512D01*
X0137866Y0185858D01*
X0137511Y0185213D01*
X0137140Y0184577D01*
X0136754Y0183950D01*
X0136352Y0183333D01*
X0135936Y0182726D01*
X0135504Y0182129D01*
X0135058Y0181543D01*
X0134598Y0180968D01*
X0134124Y0180405D01*
X0133637Y0179853D01*
X0133135Y0179314D01*
X0132621Y0178787D01*
X0132094Y0178273D01*
X0131555Y0177771D01*
X0131003Y0177284D01*
X0130440Y0176810D01*
X0129865Y0176350D01*
X0129279Y0175904D01*
X0128682Y0175472D01*
X0128075Y0175056D01*
X0127458Y0174654D01*
X0126831Y0174268D01*
X0126195Y0173897D01*
X0125550Y0173542D01*
X0124896Y0173203D01*
X0124235Y0172880D01*
X0123565Y0172574D01*
X0122889Y0172284D01*
X0122205Y0172010D01*
X0121515Y0171754D01*
X0120818Y0171514D01*
X0120117Y0171292D01*
X0119409Y0171087D01*
X0118697Y0170899D01*
X0117981Y0170729D01*
X0117261Y0170576D01*
X0116537Y0170442D01*
X0115810Y0170325D01*
X0115080Y0170226D01*
X0114349Y0170144D01*
X0113615Y0170081D01*
X0112880Y0170036D01*
X0112144Y0170009D01*
X0111408Y0170000D01*
X0110672Y0170009D01*
X0109936Y0170036D01*
X0109201Y0170081D01*
X0108467Y0170144D01*
X0107736Y0170226D01*
X0107006Y0170325D01*
X0106279Y0170442D01*
X0105555Y0170576D01*
X0104835Y0170729D01*
X0104119Y0170899D01*
X0103407Y0171087D01*
X0102699Y0171292D01*
X0101998Y0171514D01*
X0101301Y0171754D01*
X0100611Y0172010D01*
X0099927Y0172284D01*
X0099251Y0172574D01*
X0098581Y0172880D01*
X0097920Y0173203D01*
X0097266Y0173542D01*
X0096621Y0173897D01*
X0095985Y0174268D01*
X0095358Y0174654D01*
X0094741Y0175056D01*
X0094134Y0175472D01*
X0093537Y0175904D01*
X0092951Y0176350D01*
X0092376Y0176810D01*
X0091813Y0177284D01*
X0091261Y0177771D01*
X0090722Y0178273D01*
X0090195Y0178787D01*
X0089681Y0179314D01*
X0089179Y0179853D01*
X0088692Y0180405D01*
X0088218Y0180968D01*
X0087758Y0181543D01*
X0087312Y0182129D01*
X0086880Y0182726D01*
X0086464Y0183333D01*
X0086062Y0183950D01*
X0085676Y0184577D01*
X0085305Y0185213D01*
X0084950Y0185858D01*
X0084611Y0186512D01*
X0084288Y0187173D01*
X0083982Y0187843D01*
X0083692Y0188519D01*
X0083418Y0189203D01*
X0083162Y0189893D01*
X0082922Y0190590D01*
X0082700Y0191291D01*
X0082495Y0191999D01*
X0082307Y0192711D01*
X0082137Y0193427D01*
X0081984Y0194147D01*
X0081850Y0194871D01*
X0081733Y0195598D01*
X0081634Y0196328D01*
X0081552Y0197059D01*
X0081489Y0197793D01*
X0081444Y0198528D01*
X0081417Y0199264D01*
X0081408Y0200000D01*
X0110408Y0200000D02*
X0110410Y0200063D01*
X0110416Y0200125D01*
X0110426Y0200187D01*
X0110439Y0200249D01*
X0110457Y0200309D01*
X0110478Y0200368D01*
X0110503Y0200426D01*
X0110532Y0200482D01*
X0110564Y0200536D01*
X0110599Y0200588D01*
X0110637Y0200637D01*
X0110679Y0200685D01*
X0110723Y0200729D01*
X0110771Y0200771D01*
X0110820Y0200809D01*
X0110872Y0200844D01*
X0110926Y0200876D01*
X0110982Y0200905D01*
X0111040Y0200930D01*
X0111099Y0200951D01*
X0111159Y0200969D01*
X0111221Y0200982D01*
X0111283Y0200992D01*
X0111345Y0200998D01*
X0111408Y0201000D01*
X0111471Y0200998D01*
X0111533Y0200992D01*
X0111595Y0200982D01*
X0111657Y0200969D01*
X0111717Y0200951D01*
X0111776Y0200930D01*
X0111834Y0200905D01*
X0111890Y0200876D01*
X0111944Y0200844D01*
X0111996Y0200809D01*
X0112045Y0200771D01*
X0112093Y0200729D01*
X0112137Y0200685D01*
X0112179Y0200637D01*
X0112217Y0200588D01*
X0112252Y0200536D01*
X0112284Y0200482D01*
X0112313Y0200426D01*
X0112338Y0200368D01*
X0112359Y0200309D01*
X0112377Y0200249D01*
X0112390Y0200187D01*
X0112400Y0200125D01*
X0112406Y0200063D01*
X0112408Y0200000D01*
X0112406Y0199937D01*
X0112400Y0199875D01*
X0112390Y0199813D01*
X0112377Y0199751D01*
X0112359Y0199691D01*
X0112338Y0199632D01*
X0112313Y0199574D01*
X0112284Y0199518D01*
X0112252Y0199464D01*
X0112217Y0199412D01*
X0112179Y0199363D01*
X0112137Y0199315D01*
X0112093Y0199271D01*
X0112045Y0199229D01*
X0111996Y0199191D01*
X0111944Y0199156D01*
X0111890Y0199124D01*
X0111834Y0199095D01*
X0111776Y0199070D01*
X0111717Y0199049D01*
X0111657Y0199031D01*
X0111595Y0199018D01*
X0111533Y0199008D01*
X0111471Y0199002D01*
X0111408Y0199000D01*
X0111345Y0199002D01*
X0111283Y0199008D01*
X0111221Y0199018D01*
X0111159Y0199031D01*
X0111099Y0199049D01*
X0111040Y0199070D01*
X0110982Y0199095D01*
X0110926Y0199124D01*
X0110872Y0199156D01*
X0110820Y0199191D01*
X0110771Y0199229D01*
X0110723Y0199271D01*
X0110679Y0199315D01*
X0110637Y0199363D01*
X0110599Y0199412D01*
X0110564Y0199464D01*
X0110532Y0199518D01*
X0110503Y0199574D01*
X0110478Y0199632D01*
X0110457Y0199691D01*
X0110439Y0199751D01*
X0110426Y0199813D01*
X0110416Y0199875D01*
X0110410Y0199937D01*
X0110408Y0200000D01*
X0106408Y0200000D02*
X0106410Y0200141D01*
X0106416Y0200282D01*
X0106426Y0200422D01*
X0106440Y0200562D01*
X0106458Y0200702D01*
X0106479Y0200841D01*
X0106505Y0200980D01*
X0106534Y0201118D01*
X0106568Y0201254D01*
X0106605Y0201390D01*
X0106646Y0201525D01*
X0106691Y0201659D01*
X0106740Y0201791D01*
X0106792Y0201922D01*
X0106848Y0202051D01*
X0106908Y0202178D01*
X0106971Y0202304D01*
X0107037Y0202428D01*
X0107108Y0202551D01*
X0107181Y0202671D01*
X0107258Y0202789D01*
X0107338Y0202905D01*
X0107422Y0203018D01*
X0107508Y0203129D01*
X0107598Y0203238D01*
X0107691Y0203344D01*
X0107786Y0203447D01*
X0107885Y0203548D01*
X0107986Y0203646D01*
X0108090Y0203741D01*
X0108197Y0203833D01*
X0108306Y0203922D01*
X0108418Y0204007D01*
X0108532Y0204090D01*
X0108648Y0204170D01*
X0108767Y0204246D01*
X0108888Y0204318D01*
X0109010Y0204388D01*
X0109135Y0204453D01*
X0109261Y0204516D01*
X0109389Y0204574D01*
X0109519Y0204629D01*
X0109650Y0204681D01*
X0109783Y0204728D01*
X0109917Y0204772D01*
X0110052Y0204813D01*
X0110188Y0204849D01*
X0110325Y0204881D01*
X0110463Y0204910D01*
X0110601Y0204935D01*
X0110741Y0204955D01*
X0110881Y0204972D01*
X0111021Y0204985D01*
X0111162Y0204994D01*
X0111302Y0204999D01*
X0111443Y0205000D01*
X0111584Y0204997D01*
X0111725Y0204990D01*
X0111865Y0204979D01*
X0112005Y0204964D01*
X0112145Y0204945D01*
X0112284Y0204923D01*
X0112422Y0204896D01*
X0112560Y0204866D01*
X0112696Y0204831D01*
X0112832Y0204793D01*
X0112966Y0204751D01*
X0113100Y0204705D01*
X0113232Y0204656D01*
X0113362Y0204602D01*
X0113491Y0204545D01*
X0113618Y0204485D01*
X0113744Y0204421D01*
X0113867Y0204353D01*
X0113989Y0204282D01*
X0114109Y0204208D01*
X0114226Y0204130D01*
X0114341Y0204049D01*
X0114454Y0203965D01*
X0114565Y0203878D01*
X0114673Y0203787D01*
X0114778Y0203694D01*
X0114881Y0203597D01*
X0114981Y0203498D01*
X0115078Y0203396D01*
X0115172Y0203291D01*
X0115263Y0203184D01*
X0115351Y0203074D01*
X0115436Y0202962D01*
X0115518Y0202847D01*
X0115597Y0202730D01*
X0115672Y0202611D01*
X0115744Y0202490D01*
X0115812Y0202367D01*
X0115877Y0202242D01*
X0115939Y0202115D01*
X0115996Y0201986D01*
X0116051Y0201856D01*
X0116101Y0201725D01*
X0116148Y0201592D01*
X0116191Y0201458D01*
X0116230Y0201322D01*
X0116265Y0201186D01*
X0116297Y0201049D01*
X0116324Y0200911D01*
X0116348Y0200772D01*
X0116368Y0200632D01*
X0116384Y0200492D01*
X0116396Y0200352D01*
X0116404Y0200211D01*
X0116408Y0200070D01*
X0116408Y0199930D01*
X0116404Y0199789D01*
X0116396Y0199648D01*
X0116384Y0199508D01*
X0116368Y0199368D01*
X0116348Y0199228D01*
X0116324Y0199089D01*
X0116297Y0198951D01*
X0116265Y0198814D01*
X0116230Y0198678D01*
X0116191Y0198542D01*
X0116148Y0198408D01*
X0116101Y0198275D01*
X0116051Y0198144D01*
X0115996Y0198014D01*
X0115939Y0197885D01*
X0115877Y0197758D01*
X0115812Y0197633D01*
X0115744Y0197510D01*
X0115672Y0197389D01*
X0115597Y0197270D01*
X0115518Y0197153D01*
X0115436Y0197038D01*
X0115351Y0196926D01*
X0115263Y0196816D01*
X0115172Y0196709D01*
X0115078Y0196604D01*
X0114981Y0196502D01*
X0114881Y0196403D01*
X0114778Y0196306D01*
X0114673Y0196213D01*
X0114565Y0196122D01*
X0114454Y0196035D01*
X0114341Y0195951D01*
X0114226Y0195870D01*
X0114109Y0195792D01*
X0113989Y0195718D01*
X0113867Y0195647D01*
X0113744Y0195579D01*
X0113618Y0195515D01*
X0113491Y0195455D01*
X0113362Y0195398D01*
X0113232Y0195344D01*
X0113100Y0195295D01*
X0112966Y0195249D01*
X0112832Y0195207D01*
X0112696Y0195169D01*
X0112560Y0195134D01*
X0112422Y0195104D01*
X0112284Y0195077D01*
X0112145Y0195055D01*
X0112005Y0195036D01*
X0111865Y0195021D01*
X0111725Y0195010D01*
X0111584Y0195003D01*
X0111443Y0195000D01*
X0111302Y0195001D01*
X0111162Y0195006D01*
X0111021Y0195015D01*
X0110881Y0195028D01*
X0110741Y0195045D01*
X0110601Y0195065D01*
X0110463Y0195090D01*
X0110325Y0195119D01*
X0110188Y0195151D01*
X0110052Y0195187D01*
X0109917Y0195228D01*
X0109783Y0195272D01*
X0109650Y0195319D01*
X0109519Y0195371D01*
X0109389Y0195426D01*
X0109261Y0195484D01*
X0109135Y0195547D01*
X0109010Y0195612D01*
X0108888Y0195682D01*
X0108767Y0195754D01*
X0108648Y0195830D01*
X0108532Y0195910D01*
X0108418Y0195993D01*
X0108306Y0196078D01*
X0108197Y0196167D01*
X0108090Y0196259D01*
X0107986Y0196354D01*
X0107885Y0196452D01*
X0107786Y0196553D01*
X0107691Y0196656D01*
X0107598Y0196762D01*
X0107508Y0196871D01*
X0107422Y0196982D01*
X0107338Y0197095D01*
X0107258Y0197211D01*
X0107181Y0197329D01*
X0107108Y0197449D01*
X0107037Y0197572D01*
X0106971Y0197696D01*
X0106908Y0197822D01*
X0106848Y0197949D01*
X0106792Y0198078D01*
X0106740Y0198209D01*
X0106691Y0198341D01*
X0106646Y0198475D01*
X0106605Y0198610D01*
X0106568Y0198746D01*
X0106534Y0198882D01*
X0106505Y0199020D01*
X0106479Y0199159D01*
X0106458Y0199298D01*
X0106440Y0199438D01*
X0106426Y0199578D01*
X0106416Y0199718D01*
X0106410Y0199859D01*
X0106408Y0200000D01*
D11*
X0034915Y0113395D02*
X0034915Y0108040D01*
X0034915Y0109825D02*
X0037592Y0109825D01*
X0038485Y0110718D01*
X0038485Y0112502D01*
X0037592Y0113395D01*
X0034915Y0113395D01*
X0032730Y0114287D02*
X0031837Y0115180D01*
X0030052Y0115180D01*
X0029160Y0114287D01*
X0029160Y0113395D01*
X0030052Y0112502D01*
X0031837Y0112502D01*
X0032730Y0111610D01*
X0032730Y0110718D01*
X0031837Y0109825D01*
X0030052Y0109825D01*
X0029160Y0110718D01*
X0040670Y0110718D02*
X0040670Y0112502D01*
X0041562Y0113395D01*
X0043347Y0113395D01*
X0044239Y0112502D01*
X0044239Y0111610D01*
X0040670Y0111610D01*
X0040670Y0110718D02*
X0041562Y0109825D01*
X0043347Y0109825D01*
X0046425Y0110718D02*
X0047317Y0109825D01*
X0049994Y0109825D01*
X0053072Y0110718D02*
X0053964Y0109825D01*
X0053072Y0110718D02*
X0053072Y0114287D01*
X0052180Y0113395D02*
X0053964Y0113395D01*
X0056016Y0113395D02*
X0056016Y0109825D01*
X0056016Y0111610D02*
X0057801Y0113395D01*
X0058693Y0113395D01*
X0061704Y0113395D02*
X0063489Y0113395D01*
X0064382Y0112502D01*
X0064382Y0109825D01*
X0061704Y0109825D01*
X0060812Y0110718D01*
X0061704Y0111610D01*
X0064382Y0111610D01*
X0066567Y0109825D02*
X0068352Y0109825D01*
X0067459Y0109825D02*
X0067459Y0115180D01*
X0066567Y0115180D01*
X0076158Y0115180D02*
X0079728Y0115180D01*
X0077943Y0115180D02*
X0077943Y0109825D01*
X0081913Y0109825D02*
X0081913Y0113395D01*
X0081913Y0111610D02*
X0083698Y0113395D01*
X0084591Y0113395D01*
X0086709Y0113395D02*
X0087601Y0113395D01*
X0087601Y0109825D01*
X0086709Y0109825D02*
X0088494Y0109825D01*
X0090546Y0110718D02*
X0091438Y0111610D01*
X0094115Y0111610D01*
X0094115Y0112502D02*
X0094115Y0109825D01*
X0091438Y0109825D01*
X0090546Y0110718D01*
X0091438Y0113395D02*
X0093223Y0113395D01*
X0094115Y0112502D01*
X0096301Y0112502D02*
X0097193Y0113395D01*
X0099870Y0113395D01*
X0099870Y0115180D02*
X0099870Y0109825D01*
X0097193Y0109825D01*
X0096301Y0110718D01*
X0096301Y0112502D01*
X0087601Y0115180D02*
X0087601Y0116072D01*
X0049994Y0113395D02*
X0047317Y0113395D01*
X0046425Y0112502D01*
X0046425Y0110718D01*
X0142210Y0110718D02*
X0143103Y0109825D01*
X0144888Y0109825D01*
X0145780Y0110718D01*
X0145780Y0111610D01*
X0144888Y0112502D01*
X0143103Y0112502D01*
X0142210Y0113395D01*
X0142210Y0114287D01*
X0143103Y0115180D01*
X0144888Y0115180D01*
X0145780Y0114287D01*
X0147965Y0115180D02*
X0147965Y0109825D01*
X0151535Y0109825D01*
X0153720Y0109825D02*
X0153720Y0115180D01*
X0157290Y0109825D01*
X0157290Y0115180D01*
X0159475Y0112502D02*
X0163045Y0112502D01*
X0165230Y0113395D02*
X0167015Y0115180D01*
X0167015Y0109825D01*
X0165230Y0109825D02*
X0168800Y0109825D01*
X0170985Y0110718D02*
X0171877Y0109825D01*
X0173662Y0109825D01*
X0174555Y0110718D01*
X0174555Y0112502D01*
X0173662Y0113395D01*
X0172770Y0113395D01*
X0170985Y0112502D01*
X0170985Y0115180D01*
X0174555Y0115180D01*
X0176740Y0114287D02*
X0177632Y0115180D01*
X0179417Y0115180D01*
X0180310Y0114287D01*
X0176740Y0110718D01*
X0177632Y0109825D01*
X0179417Y0109825D01*
X0180310Y0110718D01*
X0180310Y0114287D01*
X0182495Y0115180D02*
X0182495Y0112502D01*
X0184280Y0113395D01*
X0185172Y0113395D01*
X0186064Y0112502D01*
X0186064Y0110718D01*
X0185172Y0109825D01*
X0183387Y0109825D01*
X0182495Y0110718D01*
X0188250Y0110718D02*
X0191819Y0114287D01*
X0191819Y0110718D01*
X0190927Y0109825D01*
X0189142Y0109825D01*
X0188250Y0110718D01*
X0188250Y0114287D01*
X0189142Y0115180D01*
X0190927Y0115180D01*
X0191819Y0114287D01*
X0186064Y0115180D02*
X0182495Y0115180D01*
X0176740Y0114287D02*
X0176740Y0110718D01*
X0151535Y0115180D02*
X0147965Y0115180D01*
X0147965Y0112502D02*
X0149750Y0112502D01*
X0094040Y0294825D02*
X0094040Y0300179D01*
X0091363Y0297502D01*
X0094932Y0297502D01*
X0089177Y0299287D02*
X0085608Y0295717D01*
X0085608Y0294825D01*
X0083423Y0295717D02*
X0083423Y0296610D01*
X0082530Y0297502D01*
X0079853Y0297502D01*
X0079853Y0295717D01*
X0080745Y0294825D01*
X0082530Y0294825D01*
X0083423Y0295717D01*
X0081638Y0299287D02*
X0079853Y0297502D01*
X0077668Y0296610D02*
X0074098Y0296610D01*
X0074098Y0298395D02*
X0076775Y0298395D01*
X0077668Y0298395D01*
X0076775Y0300179D02*
X0076775Y0294825D01*
X0074990Y0294825D02*
X0074990Y0300179D01*
X0081638Y0299287D02*
X0083423Y0300179D01*
X0085608Y0300179D02*
X0089177Y0300179D01*
X0089177Y0299287D01*
D12*
X0069018Y0255342D03*
X0069018Y0250657D03*
D13*
X0069018Y0250775D03*
X0069018Y0255224D03*
D14*
X0069018Y0255126D03*
D15*
X0069018Y0255008D03*
D16*
X0069018Y0254870D03*
X0069018Y0251090D03*
D17*
X0069018Y0251209D03*
X0069018Y0254752D03*
D18*
X0069018Y0254653D03*
D19*
X0065947Y0254555D03*
X0141093Y0239665D03*
D20*
X0152963Y0241201D03*
X0082518Y0238720D03*
X0069549Y0254555D03*
D21*
X0072443Y0254555D03*
X0140738Y0239862D03*
D22*
X0071120Y0238583D03*
X0071120Y0241417D03*
X0065120Y0251583D03*
X0065120Y0254417D03*
D23*
X0067246Y0254417D03*
X0069254Y0253945D03*
X0078797Y0240472D03*
X0147116Y0240945D03*
X0149715Y0239055D03*
D24*
X0146526Y0240472D03*
X0069372Y0254417D03*
D25*
X0072738Y0254417D03*
X0064943Y0253472D03*
X0064943Y0253000D03*
X0064943Y0252527D03*
X0070943Y0240472D03*
X0070943Y0240000D03*
X0070943Y0239527D03*
X0074250Y0238583D03*
X0082636Y0240000D03*
X0140561Y0240472D03*
X0140916Y0241417D03*
D26*
X0140620Y0238917D03*
X0143927Y0240335D03*
X0152904Y0241083D03*
X0082577Y0238917D03*
X0082577Y0238838D03*
X0082341Y0238445D03*
X0071238Y0238445D03*
X0071120Y0238720D03*
X0071120Y0241279D03*
X0072916Y0251720D03*
X0065238Y0251445D03*
X0065120Y0251720D03*
X0065120Y0254279D03*
D27*
X0067187Y0254279D03*
X0067187Y0254201D03*
X0068132Y0253807D03*
X0068132Y0253728D03*
X0068959Y0253216D03*
X0069195Y0253807D03*
X0067187Y0252390D03*
X0074486Y0241201D03*
X0074841Y0240138D03*
X0075904Y0240610D03*
X0076730Y0239390D03*
X0076730Y0239272D03*
X0077557Y0240335D03*
X0077557Y0240610D03*
X0078856Y0240610D03*
X0078856Y0240728D03*
X0078856Y0240807D03*
X0148002Y0239783D03*
X0148711Y0241083D03*
X0148593Y0241201D03*
X0148593Y0241279D03*
X0149774Y0238838D03*
X0149774Y0238720D03*
D28*
X0149419Y0240138D03*
X0149419Y0240216D03*
X0146349Y0239862D03*
X0146349Y0239783D03*
X0144459Y0239783D03*
X0144459Y0239862D03*
X0144459Y0238917D03*
X0144459Y0238838D03*
X0080274Y0238445D03*
X0078502Y0238720D03*
X0078502Y0238838D03*
X0069313Y0254279D03*
D29*
X0068132Y0252272D03*
X0065061Y0251917D03*
X0065061Y0251838D03*
X0065061Y0254083D03*
X0065061Y0254201D03*
X0072856Y0254279D03*
X0072975Y0254201D03*
X0072975Y0254083D03*
X0072975Y0251917D03*
X0072975Y0251838D03*
X0071061Y0241201D03*
X0071061Y0241083D03*
X0071061Y0238917D03*
X0071061Y0238838D03*
X0074132Y0239193D03*
X0140561Y0239193D03*
X0140679Y0238838D03*
X0140797Y0238720D03*
X0140561Y0240728D03*
X0140679Y0241083D03*
D30*
X0142805Y0239390D03*
X0146230Y0239390D03*
X0146230Y0239272D03*
X0146112Y0238445D03*
X0149538Y0239665D03*
X0149538Y0239783D03*
X0080274Y0240335D03*
X0080274Y0238720D03*
X0078620Y0239272D03*
X0078620Y0239390D03*
X0076730Y0238838D03*
X0076730Y0238720D03*
X0075904Y0241201D03*
X0075904Y0241279D03*
X0077557Y0241279D03*
X0077557Y0241201D03*
X0073423Y0240610D03*
X0073423Y0240335D03*
X0073423Y0240216D03*
X0069313Y0254201D03*
D31*
X0069136Y0253728D03*
X0069136Y0253610D03*
X0069018Y0253335D03*
X0069136Y0252390D03*
X0068073Y0253610D03*
X0067128Y0253610D03*
X0067128Y0253728D03*
X0067128Y0253807D03*
X0067128Y0254083D03*
X0067128Y0252862D03*
X0067128Y0252783D03*
X0067128Y0252665D03*
X0074545Y0241083D03*
X0074664Y0240807D03*
X0074782Y0240335D03*
X0074782Y0240216D03*
X0075845Y0240335D03*
X0078916Y0241083D03*
X0078916Y0241201D03*
X0078916Y0241279D03*
X0142864Y0240807D03*
X0143809Y0241279D03*
X0147943Y0239862D03*
D32*
X0149597Y0239390D03*
X0149715Y0238445D03*
X0146171Y0239193D03*
X0142864Y0239272D03*
X0080215Y0238917D03*
X0080215Y0238838D03*
X0080215Y0240138D03*
X0080215Y0240216D03*
X0080215Y0240610D03*
X0078679Y0239783D03*
X0078679Y0239665D03*
X0077498Y0241083D03*
X0075845Y0241083D03*
X0074782Y0239665D03*
X0073364Y0240138D03*
X0070790Y0253728D03*
X0069254Y0254083D03*
X0067364Y0253216D03*
D33*
X0068191Y0252055D03*
X0065002Y0252055D03*
X0065002Y0253945D03*
X0072797Y0251583D03*
X0073034Y0252055D03*
X0073034Y0253945D03*
X0071002Y0240945D03*
X0071002Y0239055D03*
X0074191Y0239055D03*
X0082577Y0239055D03*
X0082695Y0240472D03*
X0082577Y0240945D03*
X0140620Y0240945D03*
X0140856Y0238583D03*
X0143809Y0240472D03*
D34*
X0143927Y0240945D03*
X0078916Y0240945D03*
X0074782Y0240472D03*
X0067128Y0252527D03*
X0067128Y0253945D03*
D35*
X0068132Y0253945D03*
X0074604Y0240945D03*
X0077557Y0240000D03*
X0148002Y0240000D03*
D36*
X0143809Y0240610D03*
X0140856Y0241279D03*
X0140738Y0241201D03*
X0140620Y0240807D03*
X0140502Y0240610D03*
X0140620Y0239272D03*
X0082695Y0240138D03*
X0082695Y0240216D03*
X0082695Y0240335D03*
X0082695Y0240610D03*
X0082577Y0240728D03*
X0082577Y0240807D03*
X0082459Y0241083D03*
X0082577Y0239193D03*
X0074191Y0238917D03*
X0071002Y0239193D03*
X0071002Y0239272D03*
X0071002Y0240728D03*
X0071002Y0240807D03*
X0068191Y0252193D03*
X0065002Y0252193D03*
X0065002Y0252272D03*
X0065002Y0253728D03*
X0065002Y0253807D03*
X0073034Y0253807D03*
D37*
X0072975Y0253728D03*
X0072975Y0252193D03*
X0072620Y0251445D03*
X0068250Y0251917D03*
X0064943Y0252390D03*
X0064943Y0252665D03*
X0064943Y0252783D03*
X0064943Y0252862D03*
X0064943Y0253138D03*
X0064943Y0253216D03*
X0064943Y0253335D03*
X0064943Y0253610D03*
X0070943Y0240610D03*
X0070943Y0240335D03*
X0070943Y0240216D03*
X0070943Y0240138D03*
X0070943Y0239862D03*
X0070943Y0239783D03*
X0070943Y0239665D03*
X0070943Y0239390D03*
X0074250Y0238838D03*
X0074250Y0238720D03*
X0082518Y0239272D03*
X0082636Y0239862D03*
X0082400Y0241201D03*
X0082282Y0241279D03*
X0140561Y0240335D03*
X0140561Y0240216D03*
X0141034Y0238445D03*
D38*
X0144518Y0239193D03*
X0144518Y0239272D03*
X0144518Y0239390D03*
X0144518Y0239665D03*
X0146290Y0239665D03*
X0149479Y0239862D03*
X0078561Y0239193D03*
X0078561Y0238917D03*
X0070790Y0252272D03*
X0070790Y0253610D03*
X0067482Y0253335D03*
D39*
X0068368Y0251720D03*
X0072975Y0253610D03*
X0082518Y0239665D03*
X0074250Y0238445D03*
X0141152Y0241555D03*
D40*
X0143750Y0241417D03*
X0148711Y0240945D03*
X0149774Y0238583D03*
X0090872Y0274047D03*
X0069077Y0253472D03*
X0067896Y0253472D03*
X0067187Y0253472D03*
X0067187Y0253000D03*
X0074841Y0240000D03*
X0075904Y0240472D03*
X0076730Y0239527D03*
X0077557Y0240472D03*
X0078856Y0241417D03*
D41*
X0072266Y0253472D03*
D42*
X0072207Y0253335D03*
X0072207Y0253216D03*
X0072207Y0252665D03*
D43*
X0070790Y0252193D03*
X0068900Y0253138D03*
X0067246Y0253138D03*
X0074427Y0241279D03*
X0074782Y0239862D03*
X0075845Y0240728D03*
X0078797Y0240335D03*
X0078797Y0240216D03*
X0142864Y0239193D03*
X0147234Y0241083D03*
X0147234Y0241201D03*
X0149715Y0238917D03*
D44*
X0072148Y0252783D03*
X0072148Y0252862D03*
X0072148Y0253138D03*
D45*
X0068841Y0253000D03*
X0075904Y0240945D03*
X0077557Y0240945D03*
X0078738Y0240000D03*
X0080156Y0239055D03*
X0076730Y0239055D03*
X0146112Y0238583D03*
X0148593Y0241417D03*
D46*
X0072148Y0253000D03*
D47*
X0069077Y0252862D03*
X0074723Y0240728D03*
X0074723Y0240610D03*
X0075904Y0240216D03*
X0075904Y0240138D03*
X0076730Y0239862D03*
X0076730Y0239783D03*
X0076730Y0239665D03*
X0077557Y0240138D03*
X0077557Y0240216D03*
X0143868Y0241083D03*
X0143868Y0241201D03*
X0148002Y0240138D03*
D48*
X0069136Y0252665D03*
X0069136Y0252783D03*
D49*
X0069136Y0252527D03*
X0075845Y0240000D03*
D50*
X0072207Y0252527D03*
D51*
X0072266Y0252390D03*
D52*
X0072916Y0252272D03*
X0068309Y0251838D03*
X0082577Y0239783D03*
X0082577Y0239390D03*
X0140620Y0239390D03*
X0140620Y0240138D03*
D53*
X0068486Y0251583D03*
D54*
X0068545Y0251445D03*
X0152431Y0240807D03*
X0152431Y0240728D03*
X0152431Y0239272D03*
X0152431Y0239193D03*
D55*
X0069018Y0251327D03*
D56*
X0069018Y0251012D03*
D57*
X0069018Y0250894D03*
D58*
X0076790Y0242342D03*
X0076790Y0237657D03*
D59*
X0076790Y0237775D03*
X0076790Y0242224D03*
X0146762Y0242342D03*
X0146762Y0237657D03*
D60*
X0076790Y0242126D03*
D61*
X0076790Y0242008D03*
D62*
X0076790Y0241870D03*
X0076790Y0238090D03*
X0146762Y0237894D03*
D63*
X0076790Y0238209D03*
X0076790Y0241752D03*
D64*
X0076790Y0241653D03*
D65*
X0072597Y0241555D03*
D66*
X0076730Y0241555D03*
D67*
X0080923Y0241555D03*
D68*
X0080274Y0240472D03*
X0080274Y0238583D03*
X0074723Y0239527D03*
X0073423Y0240472D03*
X0074368Y0241417D03*
X0084022Y0271213D03*
X0084022Y0271370D03*
X0085439Y0273890D03*
X0088746Y0273890D03*
X0088746Y0273732D03*
X0088746Y0273575D03*
X0088746Y0273417D03*
X0088746Y0273260D03*
X0088746Y0273102D03*
X0088746Y0272945D03*
X0088746Y0272787D03*
X0088746Y0272630D03*
X0088746Y0271213D03*
X0088746Y0271055D03*
X0088746Y0270898D03*
X0088746Y0270740D03*
X0088746Y0270583D03*
X0088746Y0270425D03*
X0088746Y0270268D03*
X0088746Y0270110D03*
X0090951Y0270110D03*
X0137589Y0270110D03*
X0141526Y0270110D03*
X0141526Y0273732D03*
X0141526Y0273890D03*
X0147293Y0241417D03*
D69*
X0148002Y0239055D03*
X0078502Y0238583D03*
X0077557Y0241417D03*
X0075904Y0241417D03*
D70*
X0082164Y0241417D03*
X0082518Y0239527D03*
X0082604Y0270110D03*
X0082604Y0273732D03*
X0086384Y0269953D03*
X0132864Y0270268D03*
X0132864Y0273575D03*
X0136171Y0273575D03*
D71*
X0142923Y0240728D03*
X0146112Y0238917D03*
X0146112Y0238838D03*
X0146112Y0238720D03*
X0147293Y0241279D03*
X0149656Y0239272D03*
X0149656Y0239193D03*
X0080156Y0239193D03*
X0080156Y0240728D03*
X0078738Y0240138D03*
X0078738Y0239862D03*
X0077557Y0240728D03*
X0077557Y0240807D03*
X0075904Y0240807D03*
X0074841Y0239783D03*
X0073305Y0240728D03*
X0076730Y0239193D03*
X0076730Y0238917D03*
D72*
X0078679Y0239527D03*
X0146171Y0239055D03*
X0149597Y0239527D03*
D73*
X0149360Y0240335D03*
X0147943Y0238917D03*
X0146408Y0240138D03*
X0144400Y0238720D03*
X0076671Y0238445D03*
X0074664Y0239390D03*
D74*
X0074486Y0239272D03*
X0146585Y0240728D03*
X0146585Y0240807D03*
D75*
X0146290Y0239527D03*
X0144518Y0239527D03*
X0144518Y0239055D03*
X0149479Y0240000D03*
X0078561Y0239055D03*
X0076671Y0238583D03*
D76*
X0082518Y0238583D03*
X0152845Y0241417D03*
D77*
X0149301Y0240807D03*
X0149301Y0240728D03*
X0149301Y0240610D03*
X0148002Y0238838D03*
X0146467Y0240216D03*
X0146467Y0240335D03*
X0144341Y0240138D03*
X0144341Y0240728D03*
X0144341Y0240807D03*
X0078502Y0238445D03*
D78*
X0076790Y0238327D03*
X0146762Y0238012D03*
D79*
X0076790Y0238012D03*
D80*
X0076790Y0237894D03*
D81*
X0049593Y0166079D03*
X0069475Y0162693D03*
D82*
X0067703Y0162535D03*
X0067703Y0162338D03*
X0065341Y0162338D03*
X0065341Y0162535D03*
X0065538Y0164110D03*
X0065734Y0164307D03*
X0063569Y0164307D03*
X0063569Y0164504D03*
X0063569Y0164110D03*
X0063569Y0163913D03*
X0061207Y0164701D03*
X0061010Y0164504D03*
X0061010Y0164307D03*
X0061010Y0164110D03*
X0061010Y0163913D03*
X0059238Y0164701D03*
X0059041Y0164307D03*
X0058057Y0162535D03*
X0057860Y0162338D03*
X0057860Y0161905D03*
X0057664Y0161551D03*
X0057664Y0161354D03*
X0055498Y0162338D03*
X0055498Y0162535D03*
X0053136Y0164307D03*
X0052939Y0164504D03*
X0053136Y0164898D03*
X0054120Y0166079D03*
X0050577Y0163520D03*
X0048805Y0163716D03*
X0048608Y0163323D03*
X0047821Y0161709D03*
X0047821Y0161551D03*
X0047624Y0161354D03*
X0051561Y0161354D03*
X0051561Y0161551D03*
X0049593Y0165488D03*
X0069475Y0164701D03*
X0069475Y0164504D03*
X0071443Y0162693D03*
X0071443Y0162535D03*
X0071443Y0162338D03*
D83*
X0074297Y0162338D03*
X0070557Y0165882D03*
X0066817Y0165094D03*
X0066620Y0164898D03*
X0066227Y0163716D03*
X0066620Y0161354D03*
X0058156Y0166079D03*
X0054219Y0165685D03*
X0049691Y0164110D03*
D84*
X0049691Y0165685D03*
X0053038Y0164701D03*
X0055006Y0164898D03*
X0057762Y0161709D03*
X0057762Y0160921D03*
X0062290Y0166079D03*
X0073116Y0164307D03*
X0075479Y0164307D03*
D85*
X0067604Y0166079D03*
X0054219Y0160724D03*
D86*
X0049593Y0164701D03*
X0062388Y0162693D03*
X0062585Y0162890D03*
X0067112Y0165685D03*
X0070459Y0166079D03*
D87*
X0069475Y0162890D03*
X0061010Y0163716D03*
X0052939Y0162338D03*
X0051561Y0160921D03*
X0049593Y0165882D03*
D88*
X0049691Y0164504D03*
X0054219Y0165882D03*
X0061896Y0162338D03*
X0062093Y0162535D03*
X0066030Y0163913D03*
X0067014Y0165488D03*
X0069967Y0164110D03*
X0074297Y0162890D03*
X0074297Y0162535D03*
D89*
X0058254Y0165094D03*
X0058254Y0165291D03*
X0058254Y0165488D03*
X0058254Y0165685D03*
X0058254Y0165882D03*
X0054120Y0161905D03*
D90*
X0055006Y0162890D03*
X0049691Y0164898D03*
X0062290Y0165882D03*
X0074297Y0162693D03*
D91*
X0073215Y0161551D03*
X0075380Y0161551D03*
X0075380Y0163913D03*
X0073215Y0163913D03*
X0069671Y0164307D03*
X0067309Y0165882D03*
X0066128Y0164701D03*
X0063175Y0163323D03*
X0066522Y0160921D03*
X0070262Y0160921D03*
X0054120Y0160921D03*
X0053333Y0164110D03*
X0049593Y0165094D03*
D92*
X0049593Y0164307D03*
X0053727Y0163913D03*
X0062388Y0165685D03*
X0066916Y0165291D03*
X0070065Y0163913D03*
D93*
X0070262Y0163716D03*
X0070262Y0164898D03*
X0070459Y0165291D03*
X0070459Y0165488D03*
X0070459Y0165685D03*
X0062388Y0165488D03*
X0054514Y0163323D03*
X0054317Y0163520D03*
X0054120Y0163716D03*
X0054120Y0161354D03*
X0049593Y0163913D03*
X0070262Y0161354D03*
D94*
X0070164Y0161551D03*
X0070164Y0163520D03*
X0070360Y0165094D03*
X0074297Y0163323D03*
X0066620Y0161551D03*
X0066227Y0163520D03*
X0062290Y0165291D03*
X0054219Y0165488D03*
D95*
X0055400Y0162693D03*
X0058156Y0162693D03*
X0058156Y0162890D03*
X0058353Y0163323D03*
X0058549Y0163520D03*
X0058746Y0163716D03*
X0058746Y0163913D03*
X0058943Y0164110D03*
X0059140Y0164504D03*
X0063274Y0163520D03*
X0063471Y0163716D03*
X0063471Y0164701D03*
X0065833Y0164504D03*
X0065439Y0162693D03*
X0067604Y0162693D03*
X0071345Y0162890D03*
X0073116Y0164110D03*
X0075479Y0164110D03*
X0075479Y0161354D03*
X0073116Y0161354D03*
X0050675Y0163323D03*
X0050479Y0163716D03*
X0049691Y0165291D03*
X0048707Y0163520D03*
D96*
X0054120Y0165094D03*
X0054120Y0165291D03*
X0054120Y0161551D03*
X0066325Y0163323D03*
X0066522Y0161709D03*
X0070262Y0161709D03*
X0070262Y0161905D03*
X0070262Y0163323D03*
D97*
X0066423Y0162890D03*
X0066620Y0161905D03*
X0062486Y0160921D03*
X0062290Y0164898D03*
X0062290Y0165094D03*
X0058353Y0164898D03*
X0074297Y0163716D03*
X0074297Y0163520D03*
X0074297Y0161905D03*
X0074297Y0161709D03*
D98*
X0070262Y0160724D03*
X0069278Y0162338D03*
X0066522Y0160724D03*
X0055104Y0164701D03*
X0052939Y0162535D03*
D99*
X0047723Y0160921D03*
X0073116Y0160921D03*
X0075479Y0160921D03*
X0075479Y0164504D03*
X0073116Y0164504D03*
D100*
X0071345Y0162122D03*
X0058353Y0163106D03*
X0053038Y0162122D03*
X0048510Y0163106D03*
D101*
X0050774Y0163106D03*
X0055301Y0162122D03*
X0057860Y0162122D03*
X0067703Y0162122D03*
D102*
X0070262Y0161138D03*
X0054711Y0163106D03*
X0054120Y0161138D03*
D103*
X0062880Y0163106D03*
D104*
X0066423Y0163106D03*
X0065746Y0156945D03*
X0065746Y0156709D03*
X0065746Y0156472D03*
X0065746Y0156236D03*
X0065746Y0156000D03*
X0061967Y0156472D03*
X0061967Y0153638D03*
X0057242Y0156709D03*
X0051809Y0156945D03*
X0047557Y0155764D03*
X0047321Y0156000D03*
X0047085Y0156236D03*
X0047321Y0153401D03*
X0064396Y0147945D03*
X0064396Y0144165D03*
X0069356Y0144165D03*
X0074250Y0153165D03*
X0074250Y0156945D03*
X0069762Y0156945D03*
X0069762Y0156709D03*
X0069762Y0156472D03*
X0069762Y0156236D03*
D105*
X0070360Y0163106D03*
X0074297Y0162122D03*
D106*
X0074297Y0163106D03*
D107*
X0062486Y0161905D03*
X0049691Y0162890D03*
D108*
X0049593Y0162693D03*
X0062388Y0161709D03*
X0062388Y0161551D03*
X0062388Y0161354D03*
D109*
X0049691Y0162535D03*
D110*
X0049593Y0162338D03*
D111*
X0049691Y0162122D03*
D112*
X0062191Y0162122D03*
D113*
X0065439Y0162122D03*
X0065510Y0158598D03*
X0068817Y0157181D03*
X0068817Y0152929D03*
X0070538Y0150307D03*
X0073541Y0152929D03*
X0075195Y0152929D03*
X0075195Y0157181D03*
X0073541Y0157181D03*
X0073116Y0161138D03*
X0075479Y0161138D03*
X0062912Y0155764D03*
X0062912Y0154346D03*
X0060380Y0150307D03*
X0060380Y0148181D03*
X0058254Y0148181D03*
X0056364Y0148181D03*
X0057479Y0152693D03*
X0052518Y0157181D03*
X0050864Y0157181D03*
X0051660Y0161138D03*
X0047723Y0161138D03*
X0057762Y0161138D03*
X0063687Y0148181D03*
X0065341Y0148181D03*
X0065341Y0143929D03*
X0063687Y0143929D03*
X0060380Y0143929D03*
X0056364Y0143929D03*
X0053293Y0143929D03*
X0070538Y0143929D03*
D114*
X0069278Y0162122D03*
D115*
X0049593Y0161905D03*
D116*
X0053333Y0161709D03*
D117*
X0062486Y0161138D03*
D118*
X0066620Y0161138D03*
X0057360Y0157181D03*
X0066101Y0153874D03*
X0066101Y0153638D03*
X0066101Y0153401D03*
X0077912Y0153638D03*
X0077912Y0153874D03*
X0048384Y0155291D03*
X0046258Y0156709D03*
D119*
X0045786Y0154819D03*
X0048384Y0157417D03*
X0058541Y0154110D03*
X0077439Y0159307D03*
D120*
X0075195Y0155527D03*
X0075195Y0155291D03*
X0075195Y0155055D03*
X0075195Y0154819D03*
X0075195Y0154583D03*
X0077557Y0154346D03*
X0072360Y0154583D03*
X0072360Y0154819D03*
X0072360Y0155291D03*
X0072360Y0155527D03*
X0068817Y0155527D03*
X0068817Y0155291D03*
X0068817Y0155055D03*
X0068817Y0154819D03*
X0068817Y0154583D03*
X0068817Y0154346D03*
X0068817Y0154110D03*
X0068817Y0153874D03*
X0068817Y0153638D03*
X0068817Y0153401D03*
X0068817Y0153165D03*
X0065510Y0154346D03*
X0065510Y0154583D03*
X0065510Y0154819D03*
X0065510Y0155055D03*
X0065510Y0155291D03*
X0065510Y0155527D03*
X0065510Y0157417D03*
X0065510Y0157653D03*
X0065510Y0157890D03*
X0065510Y0158126D03*
X0065510Y0158362D03*
X0060549Y0155291D03*
X0060549Y0155055D03*
X0060549Y0154819D03*
X0058660Y0155527D03*
X0058660Y0155764D03*
X0055825Y0155527D03*
X0055825Y0154346D03*
X0053699Y0154819D03*
X0053699Y0155055D03*
X0053699Y0155291D03*
X0053699Y0155527D03*
X0050864Y0155527D03*
X0050864Y0155291D03*
X0050864Y0155055D03*
X0050864Y0154819D03*
X0050864Y0152929D03*
X0050864Y0152693D03*
X0050864Y0152457D03*
X0050864Y0152220D03*
X0050864Y0151984D03*
X0050864Y0151748D03*
X0050864Y0151512D03*
X0048738Y0154346D03*
X0048738Y0154583D03*
X0048738Y0154819D03*
X0048738Y0155055D03*
X0045904Y0154346D03*
X0045904Y0156945D03*
X0045904Y0157181D03*
X0045904Y0157417D03*
X0047321Y0159071D03*
X0053293Y0148653D03*
X0053293Y0148417D03*
X0053293Y0148181D03*
X0053293Y0147945D03*
X0053293Y0147709D03*
X0053293Y0147472D03*
X0053293Y0147236D03*
X0053293Y0147000D03*
X0053293Y0146764D03*
X0053293Y0146527D03*
X0053293Y0146291D03*
X0053293Y0146055D03*
X0053293Y0145819D03*
X0053293Y0145583D03*
X0053293Y0145346D03*
X0053293Y0145110D03*
X0053293Y0144874D03*
X0053293Y0144638D03*
X0053293Y0144401D03*
X0053293Y0144165D03*
X0056601Y0146764D03*
X0060380Y0146764D03*
X0060380Y0147000D03*
X0060380Y0147236D03*
X0060380Y0147472D03*
X0060380Y0147709D03*
X0060380Y0147945D03*
X0060380Y0149362D03*
X0060380Y0149598D03*
X0060380Y0149835D03*
X0060380Y0150071D03*
X0060380Y0146527D03*
X0060380Y0146291D03*
X0060380Y0146055D03*
X0060380Y0145819D03*
X0060380Y0145583D03*
X0060380Y0145346D03*
X0060380Y0145110D03*
X0060380Y0144874D03*
X0060380Y0144638D03*
X0060380Y0144401D03*
X0060380Y0144165D03*
X0062506Y0145583D03*
X0062270Y0146055D03*
X0062506Y0146527D03*
X0065341Y0146291D03*
X0065341Y0146055D03*
X0065341Y0145819D03*
X0067467Y0145819D03*
X0067467Y0146055D03*
X0067467Y0146291D03*
X0070538Y0146291D03*
X0070538Y0146055D03*
X0070538Y0145819D03*
X0070538Y0148181D03*
X0070538Y0148417D03*
X0070538Y0148653D03*
X0070538Y0148890D03*
X0070538Y0149126D03*
X0070538Y0149362D03*
X0070538Y0149598D03*
X0070538Y0149835D03*
D121*
X0070419Y0150071D03*
X0068766Y0148181D03*
X0066337Y0152929D03*
X0070589Y0157181D03*
X0072242Y0155055D03*
X0077439Y0155055D03*
X0077439Y0154819D03*
X0077439Y0154583D03*
X0077439Y0155291D03*
X0077439Y0155527D03*
X0077439Y0155764D03*
X0077439Y0156000D03*
X0077439Y0156236D03*
X0077439Y0156472D03*
X0077439Y0156709D03*
X0077439Y0156945D03*
X0077439Y0157181D03*
X0077439Y0157417D03*
X0077439Y0157653D03*
X0077439Y0157890D03*
X0077439Y0158126D03*
X0077439Y0158362D03*
X0077439Y0158598D03*
X0077439Y0158835D03*
X0077439Y0159071D03*
X0078148Y0152929D03*
X0062388Y0146291D03*
X0062388Y0145819D03*
X0060262Y0149126D03*
X0056482Y0146527D03*
X0056482Y0146291D03*
X0056482Y0146055D03*
X0056482Y0145819D03*
X0056482Y0145583D03*
X0056482Y0145346D03*
X0056482Y0145110D03*
X0056482Y0144874D03*
X0056482Y0144638D03*
X0056482Y0144401D03*
X0056482Y0144165D03*
X0050746Y0151275D03*
X0045786Y0154583D03*
X0048384Y0157653D03*
X0068766Y0143929D03*
D122*
X0065982Y0154110D03*
X0057479Y0152929D03*
X0047321Y0158835D03*
D123*
X0052518Y0152929D03*
X0060380Y0148890D03*
X0065510Y0158835D03*
D124*
X0062085Y0156709D03*
X0062085Y0153401D03*
X0057360Y0153165D03*
X0051691Y0153165D03*
X0047912Y0155527D03*
X0047203Y0158598D03*
X0057427Y0147945D03*
X0057427Y0147709D03*
X0057427Y0147472D03*
X0057427Y0147236D03*
X0057427Y0147000D03*
X0069644Y0156000D03*
D125*
X0074132Y0156709D03*
X0074132Y0153401D03*
X0069475Y0147945D03*
X0064278Y0147709D03*
X0064278Y0144401D03*
X0061849Y0153874D03*
X0061849Y0154110D03*
X0061849Y0156000D03*
X0061849Y0156236D03*
X0056888Y0154583D03*
X0057124Y0153874D03*
X0057360Y0153401D03*
X0051927Y0153401D03*
X0051927Y0156709D03*
X0047203Y0158362D03*
D126*
X0047321Y0158126D03*
X0047085Y0157890D03*
X0047321Y0153638D03*
X0052045Y0153638D03*
X0052045Y0153874D03*
X0052045Y0156472D03*
X0057242Y0156472D03*
X0057242Y0156236D03*
X0057242Y0153638D03*
X0064160Y0147472D03*
X0064160Y0144638D03*
X0069356Y0144401D03*
X0069356Y0147709D03*
X0074014Y0153638D03*
X0074014Y0156472D03*
D127*
X0068935Y0155764D03*
X0065392Y0155764D03*
X0062085Y0157181D03*
X0060667Y0155527D03*
X0060667Y0154583D03*
X0060904Y0154346D03*
X0062085Y0152929D03*
X0055943Y0155764D03*
X0053581Y0155764D03*
X0053581Y0154583D03*
X0050982Y0154583D03*
X0046022Y0157653D03*
X0065223Y0146527D03*
X0065223Y0145583D03*
X0067585Y0145583D03*
X0067585Y0146527D03*
X0070419Y0146527D03*
X0070419Y0145583D03*
D128*
X0070825Y0155764D03*
X0066809Y0155764D03*
X0063030Y0155527D03*
X0057360Y0157417D03*
X0047203Y0152693D03*
D129*
X0047321Y0153165D03*
X0046849Y0156472D03*
X0057242Y0156945D03*
X0065746Y0157181D03*
D130*
X0062085Y0156945D03*
X0062085Y0153165D03*
D131*
X0057124Y0154819D03*
X0052164Y0154346D03*
X0052164Y0154110D03*
X0052164Y0156000D03*
X0052164Y0156236D03*
X0047203Y0153874D03*
X0064041Y0147236D03*
X0064041Y0144874D03*
X0069238Y0144874D03*
X0069238Y0144638D03*
X0069238Y0147236D03*
X0069238Y0147472D03*
X0073896Y0153874D03*
X0073896Y0154110D03*
X0073896Y0156000D03*
X0073896Y0156236D03*
D132*
X0073778Y0155764D03*
X0073778Y0154346D03*
X0069120Y0147000D03*
X0069120Y0146764D03*
X0069120Y0145346D03*
X0069120Y0145110D03*
X0063923Y0145110D03*
X0063923Y0145346D03*
X0063923Y0146764D03*
X0063923Y0147000D03*
X0057006Y0155055D03*
X0057242Y0155291D03*
X0057242Y0156000D03*
X0047321Y0154110D03*
D133*
X0047321Y0152929D03*
X0051101Y0155764D03*
X0056061Y0154110D03*
X0060786Y0155764D03*
X0066219Y0153165D03*
X0077793Y0154110D03*
X0078030Y0153401D03*
X0078030Y0153165D03*
D134*
X0062912Y0154583D03*
X0058490Y0146764D03*
D135*
X0146762Y0237775D03*
X0146762Y0242224D03*
D136*
X0146762Y0242126D03*
D137*
X0146762Y0242008D03*
D138*
X0146762Y0241870D03*
X0146762Y0238090D03*
D139*
X0146762Y0238209D03*
X0146762Y0241752D03*
D140*
X0146762Y0241653D03*
D141*
X0148475Y0241555D03*
D142*
X0152904Y0241279D03*
D143*
X0152963Y0240945D03*
X0140561Y0239055D03*
X0140975Y0271685D03*
X0139557Y0272157D03*
X0136093Y0273890D03*
X0132786Y0273732D03*
X0089455Y0272472D03*
X0089455Y0271370D03*
X0082526Y0269953D03*
D144*
X0146526Y0240610D03*
X0147943Y0238720D03*
D145*
X0152490Y0239390D03*
X0152490Y0239665D03*
X0152490Y0239783D03*
X0152490Y0239862D03*
X0152490Y0240138D03*
X0152490Y0240216D03*
X0152490Y0240335D03*
X0152490Y0240610D03*
D146*
X0149360Y0240472D03*
X0146408Y0240000D03*
X0144400Y0240000D03*
D147*
X0152490Y0240000D03*
X0152490Y0240472D03*
X0152490Y0239527D03*
D148*
X0147943Y0238445D03*
X0144282Y0238445D03*
X0144164Y0240216D03*
D149*
X0140620Y0240000D03*
D150*
X0140856Y0239783D03*
X0152195Y0238445D03*
X0152313Y0238720D03*
D151*
X0141211Y0239527D03*
D152*
X0152431Y0239055D03*
D153*
X0152372Y0238917D03*
X0152372Y0238838D03*
D154*
X0144341Y0238583D03*
X0141447Y0270425D03*
X0139085Y0273260D03*
X0139085Y0273417D03*
X0135935Y0274047D03*
X0131526Y0272945D03*
X0131526Y0271055D03*
X0090715Y0270583D03*
X0090557Y0270740D03*
X0090400Y0270898D03*
X0090242Y0271055D03*
X0090085Y0271213D03*
X0090085Y0272630D03*
X0090242Y0272787D03*
X0090400Y0272945D03*
X0090557Y0273102D03*
X0090557Y0273260D03*
X0090715Y0273417D03*
D155*
X0148002Y0238583D03*
D156*
X0152313Y0238583D03*
D157*
X0146762Y0238327D03*
D158*
X0053293Y0150071D03*
D159*
X0053293Y0149835D03*
X0053293Y0149598D03*
X0053293Y0149362D03*
X0053293Y0149126D03*
D160*
X0053293Y0148890D03*
D161*
X0083628Y0271685D03*
X0083471Y0271842D03*
X0083471Y0272000D03*
X0083471Y0272157D03*
X0082526Y0274047D03*
X0139242Y0272945D03*
X0141290Y0270898D03*
D162*
X0141604Y0274047D03*
X0138927Y0274047D03*
X0133730Y0272787D03*
X0085360Y0274047D03*
X0136565Y0141815D03*
X0136408Y0140398D03*
X0127038Y0140713D03*
X0126880Y0140713D03*
X0097195Y0138795D03*
X0097038Y0137535D03*
X0085778Y0140527D03*
D163*
X0132864Y0269795D03*
X0088746Y0274047D03*
D164*
X0082604Y0273890D03*
D165*
X0088667Y0269953D03*
X0090872Y0273890D03*
X0135305Y0269953D03*
X0137510Y0269953D03*
X0138927Y0269953D03*
X0141604Y0269953D03*
X0138927Y0273890D03*
D166*
X0138927Y0273732D03*
X0137510Y0272787D03*
X0137510Y0272630D03*
X0137510Y0272472D03*
X0137510Y0272315D03*
X0137353Y0270898D03*
X0137353Y0270740D03*
X0137510Y0270425D03*
X0137510Y0270268D03*
X0138927Y0270268D03*
X0138927Y0270425D03*
X0138927Y0270583D03*
X0138927Y0270740D03*
X0138927Y0270898D03*
X0138927Y0271055D03*
X0138927Y0271213D03*
X0138927Y0271370D03*
X0138927Y0271527D03*
X0138927Y0271685D03*
X0138927Y0271842D03*
X0138927Y0272000D03*
X0140187Y0272000D03*
X0141604Y0272000D03*
X0141604Y0272157D03*
X0141604Y0272315D03*
X0141604Y0272472D03*
X0141604Y0272630D03*
X0141604Y0272787D03*
X0141604Y0272945D03*
X0141604Y0273102D03*
X0141604Y0273260D03*
X0141604Y0273417D03*
X0141604Y0273575D03*
X0141604Y0271842D03*
X0138927Y0270110D03*
X0135305Y0270110D03*
X0135305Y0270268D03*
X0135305Y0270425D03*
X0135305Y0270583D03*
X0135305Y0270740D03*
X0135305Y0270898D03*
X0135305Y0272157D03*
X0135305Y0272315D03*
X0135305Y0272472D03*
X0135305Y0272630D03*
X0135305Y0272787D03*
X0135305Y0272945D03*
X0133888Y0271370D03*
X0133888Y0271213D03*
X0133888Y0271055D03*
X0131368Y0271370D03*
X0131211Y0271527D03*
X0131211Y0271685D03*
X0131211Y0271842D03*
X0131211Y0272000D03*
X0131211Y0272157D03*
X0131211Y0272315D03*
X0131211Y0272472D03*
X0131368Y0272630D03*
X0132786Y0274047D03*
X0090872Y0273732D03*
X0090872Y0270268D03*
X0085360Y0270898D03*
X0085360Y0271055D03*
X0085360Y0271213D03*
X0085360Y0271370D03*
X0085360Y0271527D03*
X0085360Y0271685D03*
X0085360Y0271842D03*
X0085360Y0272000D03*
X0085360Y0272157D03*
X0085360Y0272315D03*
X0085360Y0272472D03*
X0085360Y0272630D03*
X0085360Y0272787D03*
X0085360Y0272945D03*
X0085360Y0273102D03*
X0085360Y0273260D03*
X0085360Y0273417D03*
X0085360Y0273575D03*
X0085360Y0273732D03*
X0083943Y0272787D03*
X0083943Y0272630D03*
X0083943Y0271527D03*
X0083943Y0271055D03*
X0081738Y0271055D03*
X0081738Y0271213D03*
X0081738Y0271370D03*
X0081738Y0271527D03*
X0081738Y0271685D03*
X0081738Y0271842D03*
X0081738Y0272000D03*
X0081738Y0272157D03*
X0081738Y0272315D03*
X0081738Y0272472D03*
X0081738Y0272630D03*
X0081738Y0272787D03*
X0081738Y0272945D03*
D167*
X0082683Y0273575D03*
X0082683Y0270268D03*
X0086305Y0270268D03*
X0086305Y0270425D03*
X0086305Y0270583D03*
X0086305Y0270110D03*
X0132786Y0270425D03*
X0132786Y0273417D03*
X0136250Y0273417D03*
X0136250Y0271527D03*
X0136250Y0271370D03*
X0136250Y0271213D03*
X0136250Y0271055D03*
D168*
X0137431Y0270583D03*
X0137431Y0272157D03*
X0137431Y0272945D03*
X0139006Y0273575D03*
X0140266Y0271842D03*
X0141526Y0270268D03*
X0133809Y0270898D03*
X0131447Y0271213D03*
X0131447Y0272787D03*
X0090793Y0273575D03*
X0090793Y0270425D03*
X0083864Y0272945D03*
X0083707Y0272472D03*
D169*
X0082762Y0273102D03*
X0082762Y0273260D03*
X0082762Y0273417D03*
X0082762Y0270583D03*
X0082762Y0270425D03*
X0132549Y0273102D03*
X0132707Y0273260D03*
X0136329Y0273260D03*
X0136329Y0273102D03*
X0136329Y0271842D03*
X0136329Y0271685D03*
D170*
X0133652Y0271527D03*
X0133494Y0272315D03*
X0131762Y0270898D03*
X0132864Y0269953D03*
X0139164Y0273102D03*
X0141368Y0270740D03*
X0141368Y0270583D03*
X0083549Y0272315D03*
D171*
X0089376Y0272315D03*
X0089376Y0271527D03*
X0132864Y0270110D03*
X0139479Y0272315D03*
X0141053Y0271527D03*
D172*
X0141132Y0271370D03*
X0141132Y0271213D03*
X0139400Y0272472D03*
X0132786Y0273890D03*
X0089297Y0272157D03*
X0089297Y0271685D03*
D173*
X0089219Y0271842D03*
X0089219Y0272000D03*
X0133494Y0272000D03*
X0133494Y0272157D03*
X0133494Y0271842D03*
X0133494Y0271685D03*
X0139321Y0272630D03*
X0139321Y0272787D03*
X0141211Y0271055D03*
D174*
X0136408Y0272000D03*
X0132786Y0270583D03*
X0082841Y0270740D03*
X0082841Y0270898D03*
D175*
X0086148Y0270740D03*
X0136093Y0273732D03*
D176*
X0133652Y0272945D03*
X0090793Y0269953D03*
D177*
X0132707Y0270740D03*
D178*
X0133258Y0141027D03*
X0133416Y0141027D03*
X0133573Y0141027D03*
X0133730Y0141027D03*
X0133888Y0141027D03*
X0134045Y0141027D03*
X0134203Y0141027D03*
X0138612Y0141027D03*
X0138770Y0141027D03*
X0138927Y0141027D03*
X0139085Y0141027D03*
X0139242Y0141027D03*
X0139400Y0141027D03*
X0139557Y0141027D03*
X0118770Y0141027D03*
X0114045Y0141027D03*
D179*
X0116880Y0135043D03*
X0106880Y0135043D03*
X0104360Y0138665D03*
X0098455Y0143677D03*
X0088297Y0144307D03*
X0085935Y0145567D03*
X0117667Y0147799D03*
X0138455Y0147012D03*
X0134360Y0135043D03*
D180*
X0134360Y0143153D03*
X0094990Y0139189D03*
X0089557Y0139031D03*
X0083258Y0139031D03*
D181*
X0088612Y0144150D03*
X0085620Y0145409D03*
X0085463Y0145409D03*
X0098140Y0143520D03*
X0107825Y0146854D03*
X0107982Y0146854D03*
X0117982Y0147799D03*
X0118455Y0147484D03*
X0126880Y0143390D03*
X0128455Y0142445D03*
X0128455Y0138980D03*
X0134518Y0134886D03*
X0135778Y0137720D03*
X0135935Y0137720D03*
X0134518Y0147169D03*
D182*
X0135778Y0145043D03*
X0137195Y0145043D03*
X0137825Y0140949D03*
X0137982Y0140949D03*
X0138455Y0138744D03*
X0137353Y0137169D03*
X0134518Y0138744D03*
X0135148Y0141264D03*
X0126880Y0138901D03*
X0126565Y0138744D03*
X0126250Y0138587D03*
X0127038Y0136697D03*
X0125778Y0140791D03*
X0125778Y0142996D03*
X0127038Y0144571D03*
X0117353Y0140161D03*
X0115620Y0140161D03*
X0116093Y0137957D03*
X0117195Y0136539D03*
X0115778Y0142681D03*
X0115620Y0142681D03*
X0108455Y0141894D03*
X0104833Y0138587D03*
X0107195Y0136539D03*
X0098612Y0138087D03*
X0098455Y0138087D03*
X0095778Y0138244D03*
X0088770Y0136669D03*
X0087353Y0138401D03*
X0087353Y0141236D03*
X0087510Y0141236D03*
X0087667Y0141236D03*
X0087825Y0141236D03*
X0087982Y0141236D03*
X0088140Y0141236D03*
X0088297Y0141236D03*
X0087195Y0141236D03*
D183*
X0094518Y0144228D03*
X0097038Y0142968D03*
X0095463Y0134622D03*
X0098770Y0134622D03*
X0105148Y0134335D03*
X0105305Y0134335D03*
X0105463Y0134335D03*
X0105620Y0134335D03*
X0105778Y0134335D03*
X0105935Y0134335D03*
X0106093Y0134335D03*
X0107353Y0134335D03*
X0107510Y0134335D03*
X0107825Y0134335D03*
X0107982Y0134335D03*
X0105935Y0137642D03*
X0108297Y0138587D03*
X0115935Y0137642D03*
X0115935Y0134335D03*
X0115778Y0134335D03*
X0115620Y0134335D03*
X0115463Y0134335D03*
X0115305Y0134335D03*
X0115148Y0134335D03*
X0117353Y0134335D03*
X0117510Y0134335D03*
X0117667Y0134335D03*
X0117825Y0134335D03*
X0124990Y0134492D03*
X0125148Y0134492D03*
X0125305Y0134492D03*
X0125463Y0134492D03*
X0125620Y0134492D03*
X0127038Y0134492D03*
X0127982Y0134492D03*
X0135463Y0134335D03*
X0135620Y0134335D03*
X0135778Y0134335D03*
X0137038Y0134335D03*
X0137195Y0134335D03*
X0137353Y0134335D03*
X0138455Y0141106D03*
X0134518Y0141106D03*
X0135463Y0147720D03*
X0135620Y0147720D03*
X0137195Y0147720D03*
X0137353Y0147720D03*
X0127982Y0146933D03*
X0126723Y0146933D03*
X0126565Y0146933D03*
X0126093Y0146933D03*
X0125935Y0146933D03*
X0125148Y0146933D03*
X0124990Y0146933D03*
X0125935Y0143311D03*
X0125148Y0140791D03*
X0117982Y0144256D03*
X0088770Y0134464D03*
X0088612Y0134464D03*
X0088455Y0134464D03*
X0088297Y0134464D03*
X0088140Y0134464D03*
X0087982Y0134464D03*
X0087825Y0134464D03*
X0087667Y0134464D03*
X0087510Y0134464D03*
X0087353Y0134464D03*
X0087195Y0134464D03*
X0087038Y0134464D03*
X0086880Y0134464D03*
X0086723Y0134464D03*
X0086565Y0134464D03*
X0086408Y0134464D03*
X0086250Y0134464D03*
X0086093Y0134464D03*
X0085935Y0134464D03*
X0085778Y0134464D03*
X0085620Y0134464D03*
X0085463Y0134464D03*
X0084360Y0144858D03*
D184*
X0085463Y0140449D03*
X0085935Y0138087D03*
X0087038Y0138244D03*
X0087825Y0138087D03*
X0095463Y0136512D03*
X0096565Y0138559D03*
X0096723Y0138559D03*
X0097667Y0137772D03*
X0105305Y0136697D03*
X0107353Y0138429D03*
X0107510Y0138429D03*
X0107353Y0142051D03*
X0105463Y0142051D03*
X0104675Y0142051D03*
X0114833Y0138272D03*
X0114990Y0138272D03*
X0115148Y0138272D03*
X0116408Y0138272D03*
X0117982Y0138272D03*
X0117510Y0140004D03*
X0117825Y0141894D03*
X0117982Y0141894D03*
X0117667Y0142051D03*
X0117038Y0142366D03*
X0116723Y0142524D03*
X0116565Y0142524D03*
X0116723Y0144256D03*
X0124833Y0143153D03*
X0125148Y0142996D03*
X0125305Y0142996D03*
X0125463Y0138587D03*
X0125620Y0138587D03*
X0125148Y0138429D03*
X0124833Y0138272D03*
X0115305Y0136697D03*
X0095778Y0143598D03*
X0134518Y0143153D03*
X0135935Y0141579D03*
X0137038Y0140634D03*
X0136093Y0138901D03*
X0135305Y0138901D03*
X0135148Y0138901D03*
X0134990Y0138901D03*
X0134833Y0138901D03*
X0138140Y0138901D03*
X0138297Y0143153D03*
X0137510Y0144728D03*
D185*
X0134675Y0147327D03*
X0134675Y0134728D03*
X0118455Y0134728D03*
X0114675Y0142445D03*
X0107195Y0141027D03*
X0105778Y0141027D03*
X0106723Y0134728D03*
X0097825Y0143362D03*
X0086565Y0140527D03*
D186*
X0086250Y0139425D03*
X0087195Y0138323D03*
X0087982Y0139425D03*
X0085778Y0138008D03*
X0086250Y0136590D03*
X0087038Y0136590D03*
X0087982Y0136590D03*
X0088140Y0136590D03*
X0096408Y0138480D03*
X0097825Y0137850D03*
X0097982Y0137850D03*
X0106250Y0138035D03*
X0107667Y0138508D03*
X0107825Y0138508D03*
X0107510Y0140555D03*
X0105620Y0141972D03*
X0114675Y0138193D03*
X0115305Y0138193D03*
X0116250Y0138193D03*
X0118140Y0138193D03*
X0116408Y0142602D03*
X0116250Y0142602D03*
X0124675Y0143232D03*
X0125463Y0142917D03*
X0125620Y0142917D03*
X0125463Y0144650D03*
X0127510Y0144650D03*
X0126408Y0140713D03*
X0126250Y0140713D03*
X0125778Y0138665D03*
X0124675Y0138193D03*
X0125463Y0136775D03*
X0127510Y0136775D03*
X0134675Y0138823D03*
X0135463Y0138823D03*
X0137195Y0140713D03*
X0137353Y0140713D03*
X0135778Y0141500D03*
X0138455Y0143075D03*
X0137510Y0137248D03*
X0095620Y0143677D03*
D187*
X0096250Y0140449D03*
X0096408Y0140449D03*
X0096565Y0140449D03*
X0096723Y0140449D03*
X0096880Y0140449D03*
X0097038Y0140449D03*
X0097195Y0140449D03*
X0097353Y0140449D03*
X0097510Y0140449D03*
X0097667Y0140449D03*
X0097825Y0140449D03*
X0097982Y0140449D03*
X0098140Y0140449D03*
X0098297Y0140449D03*
X0098455Y0140449D03*
X0098612Y0140449D03*
X0098770Y0138087D03*
X0095463Y0138087D03*
X0088612Y0141079D03*
X0086250Y0141079D03*
X0083888Y0144543D03*
X0084045Y0144701D03*
X0084045Y0134307D03*
X0084203Y0134307D03*
X0084360Y0134307D03*
X0084518Y0134307D03*
X0094045Y0134464D03*
X0094203Y0134464D03*
X0094360Y0134464D03*
X0094518Y0134464D03*
X0105620Y0140634D03*
X0108140Y0138587D03*
X0115305Y0142681D03*
X0115463Y0142681D03*
X0115935Y0140319D03*
X0116093Y0140319D03*
X0116723Y0140319D03*
X0116880Y0140319D03*
X0117038Y0140319D03*
X0117667Y0144256D03*
X0125463Y0140791D03*
X0127038Y0142524D03*
X0127353Y0142366D03*
X0127510Y0142366D03*
X0127510Y0139059D03*
X0127353Y0139059D03*
X0126408Y0138587D03*
X0134675Y0141106D03*
X0136880Y0137012D03*
X0137038Y0137012D03*
X0136723Y0145201D03*
X0136565Y0145201D03*
X0136408Y0145201D03*
X0136250Y0145201D03*
X0136093Y0145201D03*
D188*
X0136093Y0143075D03*
X0136250Y0143075D03*
X0136408Y0143075D03*
X0136565Y0143075D03*
X0136723Y0143075D03*
X0136880Y0143075D03*
X0137038Y0143075D03*
X0137195Y0143075D03*
X0137353Y0143075D03*
X0137510Y0143075D03*
X0137667Y0143075D03*
X0137825Y0143075D03*
X0137982Y0143075D03*
X0138140Y0143075D03*
X0135935Y0143075D03*
X0135778Y0143075D03*
X0135620Y0143075D03*
X0135463Y0143075D03*
X0135305Y0143075D03*
X0135148Y0143075D03*
X0134990Y0143075D03*
X0134833Y0143075D03*
X0134675Y0143075D03*
X0136093Y0141657D03*
X0136250Y0141657D03*
X0136880Y0140555D03*
X0136880Y0138980D03*
X0136723Y0138980D03*
X0136565Y0138980D03*
X0136408Y0138980D03*
X0136250Y0138980D03*
X0137038Y0138980D03*
X0137195Y0138980D03*
X0137353Y0138980D03*
X0137510Y0138980D03*
X0137667Y0138980D03*
X0137825Y0138980D03*
X0137982Y0138980D03*
X0126723Y0140713D03*
X0126565Y0140713D03*
X0125305Y0138508D03*
X0124990Y0138350D03*
X0124990Y0143075D03*
X0117510Y0142130D03*
X0117353Y0142287D03*
X0117195Y0142287D03*
X0116880Y0142445D03*
X0116565Y0144177D03*
X0116565Y0138350D03*
X0116723Y0138350D03*
X0116880Y0138350D03*
X0117038Y0138350D03*
X0117353Y0138350D03*
X0117510Y0138350D03*
X0117667Y0138350D03*
X0117825Y0138350D03*
X0108140Y0142130D03*
X0107667Y0142130D03*
X0107510Y0142130D03*
X0105305Y0142130D03*
X0104833Y0142130D03*
X0106408Y0138193D03*
X0106565Y0138193D03*
X0106880Y0138350D03*
X0107038Y0138350D03*
X0107195Y0138350D03*
X0098770Y0136433D03*
X0098612Y0136433D03*
X0098455Y0136433D03*
X0098297Y0136433D03*
X0098140Y0136433D03*
X0097982Y0136433D03*
X0097825Y0136433D03*
X0097667Y0136433D03*
X0097510Y0136433D03*
X0097353Y0136433D03*
X0097195Y0136433D03*
X0097038Y0136433D03*
X0096880Y0136433D03*
X0096723Y0136433D03*
X0096565Y0136433D03*
X0096408Y0136433D03*
X0096250Y0136433D03*
X0096093Y0136433D03*
X0095935Y0136433D03*
X0095778Y0136433D03*
X0095620Y0136433D03*
X0097510Y0137693D03*
X0096880Y0138638D03*
X0095463Y0139740D03*
X0095935Y0143520D03*
X0088612Y0138323D03*
X0086880Y0138165D03*
D189*
X0097667Y0143283D03*
X0108455Y0138587D03*
X0108455Y0134650D03*
X0114518Y0134650D03*
X0128455Y0134807D03*
X0128297Y0139059D03*
X0128297Y0142366D03*
X0128455Y0146618D03*
X0134833Y0147405D03*
X0138140Y0147405D03*
X0138140Y0134650D03*
X0134833Y0134650D03*
D190*
X0137195Y0137090D03*
X0138140Y0141027D03*
X0134990Y0141185D03*
X0134833Y0141185D03*
X0135935Y0145122D03*
X0136880Y0145122D03*
X0137038Y0145122D03*
X0127195Y0142445D03*
X0125620Y0140713D03*
X0126723Y0138823D03*
X0127038Y0138980D03*
X0127195Y0138980D03*
X0118455Y0138035D03*
X0117195Y0140240D03*
X0115778Y0140240D03*
X0107353Y0140555D03*
X0096093Y0140370D03*
X0095620Y0138165D03*
X0088455Y0141157D03*
X0087038Y0141157D03*
X0086093Y0141157D03*
D191*
X0094203Y0144386D03*
X0097353Y0143126D03*
X0105778Y0137484D03*
X0106408Y0134492D03*
X0104675Y0134492D03*
X0114675Y0134492D03*
X0116408Y0134492D03*
X0115778Y0137484D03*
X0124675Y0134650D03*
X0125778Y0134650D03*
X0128297Y0134650D03*
X0128140Y0139059D03*
X0128140Y0142366D03*
X0126565Y0143153D03*
X0126408Y0143153D03*
X0126408Y0146775D03*
X0124675Y0146775D03*
X0128297Y0146775D03*
X0135148Y0147563D03*
X0137825Y0147563D03*
X0118297Y0144256D03*
X0114833Y0142524D03*
X0134990Y0134492D03*
X0135148Y0134492D03*
X0137825Y0134492D03*
D192*
X0137982Y0134571D03*
X0124518Y0134728D03*
X0124518Y0140713D03*
X0124675Y0140713D03*
X0126723Y0143075D03*
X0124518Y0146697D03*
X0118455Y0144177D03*
X0115620Y0137405D03*
X0116565Y0134571D03*
X0118297Y0134571D03*
X0108297Y0134571D03*
X0106565Y0134571D03*
X0104518Y0134571D03*
X0105620Y0137405D03*
X0104518Y0138665D03*
X0097510Y0143205D03*
X0094045Y0144464D03*
X0086723Y0140685D03*
X0084675Y0144937D03*
X0134990Y0147484D03*
X0137982Y0147484D03*
D193*
X0137667Y0147642D03*
X0137510Y0147642D03*
X0135305Y0147642D03*
X0128140Y0146854D03*
X0126250Y0146854D03*
X0124833Y0146854D03*
X0126093Y0143232D03*
X0126250Y0143232D03*
X0127982Y0142287D03*
X0127982Y0139138D03*
X0124990Y0140713D03*
X0124833Y0140713D03*
X0124833Y0134571D03*
X0128140Y0134571D03*
X0135305Y0134413D03*
X0137510Y0134413D03*
X0137667Y0134413D03*
X0118140Y0134413D03*
X0117982Y0134413D03*
X0117195Y0134413D03*
X0116250Y0134413D03*
X0116093Y0134413D03*
X0114990Y0134413D03*
X0114833Y0134413D03*
X0108140Y0134413D03*
X0107195Y0134413D03*
X0106250Y0134413D03*
X0104990Y0134413D03*
X0104833Y0134413D03*
X0097195Y0143047D03*
X0094675Y0143992D03*
X0094360Y0144307D03*
X0088770Y0141000D03*
X0087667Y0138795D03*
X0087510Y0138638D03*
X0084518Y0144937D03*
X0114990Y0142602D03*
X0118140Y0144177D03*
D194*
X0118297Y0141657D03*
X0114518Y0138035D03*
X0117353Y0136618D03*
X0124518Y0138193D03*
X0126093Y0138665D03*
X0125620Y0136775D03*
X0125778Y0136618D03*
X0127195Y0136775D03*
X0127353Y0136775D03*
X0126093Y0140713D03*
X0125935Y0140713D03*
X0124518Y0143232D03*
X0125778Y0144492D03*
X0125620Y0144650D03*
X0127195Y0144650D03*
X0127353Y0144650D03*
X0135620Y0144964D03*
X0137353Y0144964D03*
X0135305Y0141342D03*
X0137667Y0140870D03*
X0135463Y0137248D03*
X0136093Y0136618D03*
X0107982Y0138508D03*
X0106093Y0137878D03*
X0105463Y0138193D03*
X0105148Y0138350D03*
X0104990Y0138508D03*
X0105463Y0140555D03*
X0104518Y0141972D03*
X0098297Y0138008D03*
X0096093Y0138323D03*
X0095935Y0138323D03*
X0095463Y0143677D03*
X0088770Y0138323D03*
X0088612Y0136748D03*
X0085620Y0138008D03*
X0107353Y0136618D03*
D195*
X0107510Y0136697D03*
X0105463Y0136697D03*
X0105305Y0138272D03*
X0108297Y0142051D03*
X0115463Y0140004D03*
X0115463Y0138114D03*
X0115463Y0136697D03*
X0117510Y0136697D03*
X0118297Y0138114D03*
X0118140Y0141736D03*
X0116093Y0142681D03*
X0115935Y0142681D03*
X0125935Y0138587D03*
X0135463Y0141421D03*
X0135620Y0141421D03*
X0137510Y0140791D03*
X0138297Y0138901D03*
X0136723Y0136539D03*
X0136565Y0136539D03*
X0136408Y0136539D03*
X0136250Y0136539D03*
X0135463Y0144886D03*
X0098140Y0137929D03*
X0096250Y0138401D03*
X0088455Y0136669D03*
X0088297Y0136669D03*
X0086880Y0136669D03*
X0086723Y0136669D03*
X0086565Y0136669D03*
X0086408Y0136669D03*
X0087825Y0139346D03*
D196*
X0086408Y0140449D03*
X0088770Y0144071D03*
X0093888Y0144386D03*
X0097982Y0143441D03*
X0105935Y0140949D03*
X0106093Y0140949D03*
X0106250Y0140949D03*
X0106408Y0140949D03*
X0106565Y0140949D03*
X0106723Y0140949D03*
X0106880Y0140949D03*
X0107038Y0140949D03*
X0104360Y0134807D03*
X0114360Y0134807D03*
X0116723Y0134807D03*
X0124360Y0134964D03*
X0125935Y0134964D03*
X0126093Y0134964D03*
X0126250Y0134964D03*
X0126408Y0134964D03*
X0126565Y0134964D03*
X0126723Y0134964D03*
X0135620Y0137799D03*
X0138297Y0134807D03*
X0138297Y0147248D03*
X0124360Y0146461D03*
X0118297Y0147720D03*
X0118140Y0147720D03*
X0108455Y0146618D03*
X0108297Y0146775D03*
X0108140Y0146775D03*
D197*
X0115148Y0142602D03*
X0116250Y0140398D03*
X0116408Y0140398D03*
X0116565Y0140398D03*
X0118455Y0141500D03*
X0117825Y0144177D03*
X0125305Y0147012D03*
X0125463Y0147012D03*
X0125620Y0147012D03*
X0125778Y0147012D03*
X0126880Y0147012D03*
X0127038Y0147012D03*
X0127195Y0147012D03*
X0127353Y0147012D03*
X0127510Y0147012D03*
X0127667Y0147012D03*
X0127825Y0147012D03*
X0127825Y0142287D03*
X0127667Y0142287D03*
X0125305Y0140713D03*
X0127667Y0139138D03*
X0127825Y0139138D03*
X0138297Y0141027D03*
X0137038Y0147799D03*
X0136880Y0147799D03*
X0136723Y0147799D03*
X0136565Y0147799D03*
X0136408Y0147799D03*
X0136250Y0147799D03*
X0136093Y0147799D03*
X0135935Y0147799D03*
X0135778Y0147799D03*
X0135935Y0134256D03*
X0136093Y0134256D03*
X0136250Y0134256D03*
X0136408Y0134256D03*
X0136565Y0134256D03*
X0136723Y0134256D03*
X0136880Y0134256D03*
X0127825Y0134413D03*
X0127667Y0134413D03*
X0127510Y0134413D03*
X0127353Y0134413D03*
X0127195Y0134413D03*
X0107667Y0134256D03*
X0098612Y0134543D03*
X0098455Y0134543D03*
X0098297Y0134543D03*
X0098140Y0134543D03*
X0097982Y0134543D03*
X0097825Y0134543D03*
X0097667Y0134543D03*
X0097510Y0134543D03*
X0097353Y0134543D03*
X0097195Y0134543D03*
X0097038Y0134543D03*
X0096880Y0134543D03*
X0096723Y0134543D03*
X0096565Y0134543D03*
X0096408Y0134543D03*
X0096250Y0134543D03*
X0096093Y0134543D03*
X0095935Y0134543D03*
X0095778Y0134543D03*
X0095620Y0134543D03*
X0094675Y0134543D03*
X0093888Y0134543D03*
X0098770Y0140370D03*
X0096880Y0142890D03*
X0096723Y0142890D03*
X0096565Y0142890D03*
X0096408Y0142890D03*
X0096250Y0142890D03*
X0096093Y0142890D03*
X0086880Y0141000D03*
X0085463Y0138008D03*
X0084675Y0134386D03*
X0083888Y0134386D03*
X0084203Y0144779D03*
X0104675Y0138665D03*
D198*
X0106723Y0138272D03*
X0107825Y0142209D03*
X0107982Y0142209D03*
X0105148Y0142209D03*
X0104990Y0142209D03*
X0097038Y0138716D03*
X0097195Y0137614D03*
X0097353Y0137614D03*
X0095935Y0139819D03*
X0095778Y0139819D03*
X0095620Y0139819D03*
X0088455Y0138244D03*
X0088297Y0138087D03*
X0088140Y0138087D03*
X0087982Y0138087D03*
X0086723Y0138087D03*
X0086565Y0138087D03*
X0086408Y0138087D03*
X0086250Y0138087D03*
X0086093Y0138087D03*
X0085620Y0140449D03*
X0085935Y0140606D03*
X0116250Y0144256D03*
X0116408Y0144256D03*
X0117195Y0138429D03*
X0125305Y0136854D03*
X0136565Y0140476D03*
X0136723Y0140476D03*
X0136408Y0141736D03*
X0125305Y0144728D03*
D199*
X0117825Y0147720D03*
X0114518Y0142366D03*
X0098297Y0143598D03*
X0088455Y0144228D03*
X0085778Y0145488D03*
X0138455Y0134964D03*
D200*
X0129557Y0140713D03*
X0129400Y0140713D03*
X0129242Y0140713D03*
X0129085Y0140713D03*
X0128927Y0140713D03*
X0128770Y0140713D03*
X0128612Y0140713D03*
X0124203Y0140713D03*
X0124045Y0140713D03*
X0123888Y0140713D03*
X0123730Y0140713D03*
X0123573Y0140713D03*
X0123416Y0140713D03*
X0123258Y0140713D03*
X0119400Y0140555D03*
X0113416Y0140555D03*
X0108770Y0140555D03*
X0104045Y0140555D03*
D201*
X0104360Y0144492D03*
X0124360Y0140713D03*
D202*
X0126880Y0135279D03*
X0117510Y0147720D03*
X0117353Y0147720D03*
X0098612Y0143756D03*
X0088140Y0144386D03*
D203*
X0113258Y0140319D03*
X0119557Y0140319D03*
D204*
X0119242Y0140713D03*
X0113573Y0140713D03*
D205*
X0113730Y0140870D03*
X0119085Y0140870D03*
D206*
X0118927Y0140949D03*
X0113888Y0140949D03*
D207*
X0114203Y0141106D03*
X0118612Y0141106D03*
D208*
X0114360Y0142996D03*
D209*
X0114518Y0146854D03*
X0114833Y0147012D03*
X0115148Y0147169D03*
X0115620Y0147327D03*
X0086880Y0144937D03*
X0086723Y0144937D03*
X0086565Y0144937D03*
X0086408Y0144937D03*
X0086250Y0144937D03*
D210*
X0086093Y0145016D03*
X0087038Y0144858D03*
X0114675Y0146933D03*
X0114990Y0147090D03*
X0115305Y0147248D03*
X0115463Y0147248D03*
X0115778Y0147405D03*
X0115935Y0147405D03*
D211*
X0116093Y0147484D03*
X0116250Y0147484D03*
X0087353Y0144779D03*
X0087195Y0144779D03*
D212*
X0087510Y0144701D03*
X0116408Y0147563D03*
X0116565Y0147563D03*
D213*
X0116723Y0147642D03*
X0116880Y0147642D03*
X0087667Y0144622D03*
D214*
X0087825Y0144543D03*
X0098770Y0143756D03*
X0117038Y0147720D03*
X0117195Y0147720D03*
X0117038Y0135279D03*
D215*
X0109557Y0139846D03*
X0103258Y0139846D03*
X0084990Y0139976D03*
D216*
X0103416Y0140083D03*
X0109400Y0140083D03*
D217*
X0109242Y0140240D03*
X0103573Y0140240D03*
D218*
X0103730Y0140398D03*
X0109085Y0140398D03*
D219*
X0108927Y0140476D03*
X0103888Y0140476D03*
D220*
X0104203Y0140634D03*
X0108612Y0140634D03*
D221*
X0104990Y0145909D03*
X0104833Y0145909D03*
X0104675Y0145752D03*
X0104518Y0145752D03*
D222*
X0105148Y0145988D03*
X0105305Y0145988D03*
X0105463Y0145988D03*
X0107353Y0145988D03*
X0107510Y0145988D03*
X0107667Y0145988D03*
D223*
X0107195Y0146067D03*
X0107038Y0146067D03*
X0106880Y0146067D03*
X0106723Y0146067D03*
X0106565Y0146067D03*
X0106408Y0146067D03*
X0106250Y0146067D03*
X0106093Y0146067D03*
X0105935Y0146067D03*
X0105778Y0146067D03*
X0105620Y0146067D03*
D224*
X0107038Y0135201D03*
X0087982Y0144464D03*
D225*
X0084833Y0139898D03*
X0093258Y0140055D03*
X0099557Y0140055D03*
D226*
X0099400Y0139976D03*
X0093416Y0139976D03*
D227*
X0093573Y0139898D03*
X0099242Y0139898D03*
D228*
X0099085Y0139819D03*
X0093730Y0139819D03*
D229*
X0094833Y0139268D03*
X0089400Y0139110D03*
X0083416Y0139110D03*
D230*
X0095148Y0139110D03*
D231*
X0095305Y0139031D03*
D232*
X0098927Y0139740D03*
D233*
X0089242Y0139268D03*
X0083573Y0139268D03*
D234*
X0083730Y0139346D03*
X0089085Y0139346D03*
D235*
X0085148Y0140055D03*
D236*
X0085305Y0140134D03*
D237*
X0088927Y0139425D03*
D238*
X0136719Y0154000D02*
X0136640Y0154512D01*
X0138097Y0154512D01*
X0138097Y0154275D01*
X0138175Y0154079D01*
X0138293Y0153921D01*
X0138608Y0153685D01*
X0138845Y0153646D01*
X0139041Y0153606D01*
X0139278Y0153567D01*
X0139435Y0153606D01*
X0139593Y0153606D01*
X0139750Y0153646D01*
X0139908Y0153724D01*
X0140065Y0153842D01*
X0140183Y0153961D01*
X0140262Y0154275D01*
X0140223Y0154433D01*
X0140144Y0154590D01*
X0139986Y0154709D01*
X0139790Y0154827D01*
X0139553Y0154905D01*
X0138923Y0155063D01*
X0138530Y0155142D01*
X0138175Y0155220D01*
X0137860Y0155338D01*
X0137585Y0155457D01*
X0137309Y0155614D01*
X0137073Y0155772D01*
X0136916Y0156008D01*
X0136797Y0156283D01*
X0136758Y0156638D01*
X0136797Y0157110D01*
X0136955Y0157504D01*
X0137230Y0157819D01*
X0137506Y0158055D01*
X0137900Y0158252D01*
X0138293Y0158331D01*
X0138727Y0158409D01*
X0139632Y0158409D01*
X0140065Y0158331D01*
X0140459Y0158213D01*
X0140813Y0158055D01*
X0141128Y0157819D01*
X0141364Y0157504D01*
X0141561Y0157110D01*
X0141640Y0156638D01*
X0140183Y0156638D01*
X0140144Y0156835D01*
X0140065Y0157031D01*
X0139986Y0157150D01*
X0139868Y0157228D01*
X0139711Y0157307D01*
X0139514Y0157386D01*
X0138845Y0157386D01*
X0138727Y0157346D01*
X0138569Y0157307D01*
X0138451Y0157268D01*
X0138293Y0157031D01*
X0138293Y0156874D01*
X0138333Y0156716D01*
X0138451Y0156559D01*
X0138608Y0156441D01*
X0138845Y0156323D01*
X0139081Y0156244D01*
X0139396Y0156205D01*
X0140341Y0155968D01*
X0140695Y0155890D01*
X0141246Y0155575D01*
X0141482Y0155378D01*
X0141640Y0155142D01*
X0141758Y0154866D01*
X0141797Y0154512D01*
X0141719Y0154000D01*
X0141561Y0153567D01*
X0141325Y0153252D01*
X0141010Y0152976D01*
X0140616Y0152779D01*
X0140183Y0152661D01*
X0139711Y0152583D01*
X0139238Y0152543D01*
X0138766Y0152583D01*
X0138293Y0152661D01*
X0137860Y0152779D01*
X0137467Y0152976D01*
X0137152Y0153252D01*
X0136876Y0153606D01*
X0136719Y0154000D01*
X0136736Y0153956D02*
X0138268Y0153956D01*
X0138105Y0154254D02*
X0136680Y0154254D01*
X0136856Y0153657D02*
X0138776Y0153657D01*
X0139773Y0153657D02*
X0141594Y0153657D01*
X0141703Y0153956D02*
X0140178Y0153956D01*
X0140257Y0154254D02*
X0141758Y0154254D01*
X0141793Y0154553D02*
X0140163Y0154553D01*
X0139716Y0154851D02*
X0141760Y0154851D01*
X0141635Y0155150D02*
X0138494Y0155150D01*
X0137605Y0155448D02*
X0141398Y0155448D01*
X0140945Y0155747D02*
X0137110Y0155747D01*
X0136899Y0156045D02*
X0140034Y0156045D01*
X0140182Y0156642D02*
X0141639Y0156642D01*
X0141589Y0156941D02*
X0140101Y0156941D01*
X0139846Y0157239D02*
X0141497Y0157239D01*
X0141339Y0157538D02*
X0136985Y0157538D01*
X0136849Y0157239D02*
X0138432Y0157239D01*
X0138293Y0156941D02*
X0136783Y0156941D01*
X0136758Y0156642D02*
X0138389Y0156642D01*
X0138803Y0156344D02*
X0136791Y0156344D01*
X0137251Y0157836D02*
X0141105Y0157836D01*
X0140634Y0158135D02*
X0137666Y0158135D01*
X0142427Y0158016D02*
X0142585Y0158055D01*
X0142782Y0158094D01*
X0142979Y0158094D01*
X0143136Y0158134D01*
X0143333Y0158173D01*
X0143490Y0158213D01*
X0143884Y0158291D01*
X0143884Y0157583D01*
X0144041Y0157779D01*
X0144199Y0157937D01*
X0144396Y0158094D01*
X0144790Y0158331D01*
X0145262Y0158409D01*
X0145538Y0158409D01*
X0146128Y0158370D01*
X0146679Y0158173D01*
X0147112Y0157898D01*
X0147467Y0157504D01*
X0147742Y0157071D01*
X0147900Y0156559D01*
X0148018Y0156008D01*
X0148057Y0155417D01*
X0146522Y0155457D01*
X0146522Y0155811D01*
X0146482Y0156126D01*
X0146364Y0156441D01*
X0146246Y0156716D01*
X0146049Y0156953D01*
X0145813Y0157110D01*
X0145538Y0157228D01*
X0145183Y0157268D01*
X0144868Y0157228D01*
X0144553Y0157110D01*
X0144356Y0156953D01*
X0144160Y0156716D01*
X0144041Y0156441D01*
X0143923Y0156126D01*
X0143884Y0155811D01*
X0143884Y0155142D01*
X0144041Y0154512D01*
X0144160Y0154236D01*
X0144356Y0154039D01*
X0144593Y0153842D01*
X0144868Y0153764D01*
X0145223Y0153724D01*
X0145538Y0153764D01*
X0145853Y0153842D01*
X0146089Y0154039D01*
X0146246Y0154236D01*
X0146364Y0154512D01*
X0147703Y0153882D01*
X0147467Y0153449D01*
X0147112Y0153094D01*
X0146679Y0152779D01*
X0146207Y0152622D01*
X0145616Y0152543D01*
X0144908Y0152661D01*
X0144671Y0152779D01*
X0144278Y0153016D01*
X0143963Y0153409D01*
X0143923Y0153409D01*
X0143923Y0149394D01*
X0143569Y0149748D01*
X0142979Y0150220D01*
X0142624Y0150575D01*
X0142427Y0150732D01*
X0142427Y0158016D01*
X0142427Y0157836D02*
X0143884Y0157836D01*
X0144098Y0157836D02*
X0147168Y0157836D01*
X0147436Y0157538D02*
X0142427Y0157538D01*
X0142427Y0157239D02*
X0144956Y0157239D01*
X0145439Y0157239D02*
X0147635Y0157239D01*
X0147782Y0156941D02*
X0146059Y0156941D01*
X0146278Y0156642D02*
X0147874Y0156642D01*
X0147946Y0156344D02*
X0146401Y0156344D01*
X0146493Y0156045D02*
X0148010Y0156045D01*
X0148035Y0155747D02*
X0146522Y0155747D01*
X0146522Y0155457D02*
X0148057Y0155417D01*
X0148018Y0154866D01*
X0147900Y0154354D01*
X0147703Y0153882D01*
X0146364Y0154512D01*
X0146482Y0154827D01*
X0146522Y0155142D01*
X0146522Y0155457D01*
X0146522Y0155448D02*
X0146851Y0155448D01*
X0148055Y0155448D01*
X0148038Y0155150D02*
X0146522Y0155150D01*
X0146485Y0154851D02*
X0148014Y0154851D01*
X0147946Y0154553D02*
X0146380Y0154553D01*
X0146254Y0154254D02*
X0146912Y0154254D01*
X0147858Y0154254D01*
X0147734Y0153956D02*
X0147546Y0153956D01*
X0145988Y0153956D01*
X0146626Y0152762D02*
X0144707Y0152762D01*
X0144242Y0153060D02*
X0147065Y0153060D01*
X0147377Y0153359D02*
X0144003Y0153359D01*
X0143923Y0153359D02*
X0142427Y0153359D01*
X0142427Y0153657D02*
X0147580Y0153657D01*
X0148530Y0153803D02*
X0148530Y0154000D01*
X0148490Y0154197D01*
X0148569Y0154630D01*
X0148687Y0154984D01*
X0148845Y0155260D01*
X0149120Y0155496D01*
X0149396Y0155653D01*
X0149711Y0155772D01*
X0150026Y0155850D01*
X0150380Y0155890D01*
X0150695Y0155063D01*
X0150577Y0155024D01*
X0150498Y0154984D01*
X0150459Y0154945D01*
X0150301Y0154866D01*
X0150262Y0154827D01*
X0150183Y0154787D01*
X0150065Y0154551D01*
X0150065Y0154472D01*
X0150026Y0154394D01*
X0150026Y0154197D01*
X0150065Y0154079D01*
X0150065Y0154000D01*
X0150104Y0153921D01*
X0150144Y0153882D01*
X0150183Y0153803D01*
X0150262Y0153764D01*
X0150301Y0153724D01*
X0150459Y0153646D01*
X0150538Y0153646D01*
X0150616Y0153606D01*
X0150695Y0153606D01*
X0150774Y0153567D01*
X0150971Y0153567D01*
X0151167Y0153606D01*
X0151364Y0153606D01*
X0151522Y0153685D01*
X0151679Y0153724D01*
X0151797Y0153803D01*
X0151876Y0153882D01*
X0151955Y0154000D01*
X0152034Y0154079D01*
X0152112Y0154315D01*
X0152152Y0154394D01*
X0152191Y0154512D01*
X0152191Y0155417D01*
X0152112Y0155338D01*
X0152034Y0155338D01*
X0151876Y0155260D01*
X0151797Y0155260D01*
X0151719Y0155220D01*
X0151561Y0155220D01*
X0151364Y0156008D01*
X0151640Y0156087D01*
X0151876Y0156165D01*
X0152073Y0156283D01*
X0152191Y0156441D01*
X0152191Y0156874D01*
X0152073Y0157110D01*
X0152034Y0157150D01*
X0151994Y0157228D01*
X0151758Y0157346D01*
X0151679Y0157346D01*
X0151601Y0157386D01*
X0150892Y0157386D01*
X0150498Y0157189D01*
X0150341Y0157031D01*
X0150301Y0156953D01*
X0150262Y0156835D01*
X0150223Y0156756D01*
X0150223Y0156559D01*
X0148687Y0156559D01*
X0148766Y0157031D01*
X0148845Y0157268D01*
X0148963Y0157425D01*
X0149081Y0157622D01*
X0149199Y0157779D01*
X0149356Y0157898D01*
X0149750Y0158134D01*
X0149947Y0158213D01*
X0150144Y0158252D01*
X0150380Y0158331D01*
X0150616Y0158370D01*
X0150813Y0158409D01*
X0151719Y0158409D01*
X0151916Y0158370D01*
X0152152Y0158370D01*
X0152349Y0158331D01*
X0152545Y0158252D01*
X0152742Y0158213D01*
X0152939Y0158134D01*
X0153412Y0157779D01*
X0153530Y0157622D01*
X0153608Y0157464D01*
X0153687Y0157268D01*
X0153727Y0157071D01*
X0153727Y0153646D01*
X0153766Y0153567D01*
X0153766Y0153213D01*
X0153805Y0153134D01*
X0153805Y0153055D01*
X0153845Y0152976D01*
X0153845Y0152858D01*
X0153884Y0152779D01*
X0153923Y0152740D01*
X0153923Y0152701D01*
X0152388Y0152701D01*
X0152388Y0152740D01*
X0152349Y0152779D01*
X0152349Y0152819D01*
X0152309Y0152858D01*
X0152309Y0152976D01*
X0152270Y0153016D01*
X0152270Y0153252D01*
X0152191Y0153134D01*
X0152073Y0153055D01*
X0151994Y0152976D01*
X0151876Y0152898D01*
X0151758Y0152858D01*
X0151640Y0152779D01*
X0151167Y0152622D01*
X0151049Y0152622D01*
X0150931Y0152583D01*
X0150774Y0152583D01*
X0150656Y0152543D01*
X0150223Y0152543D01*
X0150026Y0152583D01*
X0149829Y0152583D01*
X0149671Y0152622D01*
X0149475Y0152701D01*
X0149317Y0152779D01*
X0149199Y0152858D01*
X0149041Y0152937D01*
X0148923Y0153055D01*
X0148845Y0153173D01*
X0148727Y0153331D01*
X0148648Y0153449D01*
X0148608Y0153646D01*
X0148530Y0153803D01*
X0148530Y0153956D02*
X0150087Y0153956D01*
X0150026Y0154254D02*
X0148501Y0154254D01*
X0148555Y0154553D02*
X0150066Y0154553D01*
X0150286Y0154851D02*
X0148643Y0154851D01*
X0148782Y0155150D02*
X0150662Y0155150D01*
X0151310Y0155150D01*
X0151286Y0155142D02*
X0151128Y0155142D01*
X0151010Y0155102D01*
X0150853Y0155102D01*
X0150774Y0155063D01*
X0150695Y0155063D01*
X0150380Y0155890D01*
X0151089Y0155968D01*
X0151364Y0156008D01*
X0151561Y0155220D01*
X0151482Y0155181D01*
X0151404Y0155181D01*
X0151286Y0155142D01*
X0151504Y0155448D02*
X0150548Y0155448D01*
X0149064Y0155448D01*
X0149644Y0155747D02*
X0150435Y0155747D01*
X0151430Y0155747D01*
X0153727Y0155747D01*
X0153727Y0156045D02*
X0151495Y0156045D01*
X0151504Y0155448D02*
X0153727Y0155448D01*
X0153727Y0155150D02*
X0152191Y0155150D01*
X0152191Y0154851D02*
X0153727Y0154851D01*
X0153727Y0154553D02*
X0152191Y0154553D01*
X0152092Y0154254D02*
X0153727Y0154254D01*
X0153727Y0153956D02*
X0151925Y0153956D01*
X0151466Y0153657D02*
X0153727Y0153657D01*
X0153766Y0153359D02*
X0148708Y0153359D01*
X0148603Y0153657D02*
X0150436Y0153657D01*
X0149353Y0152762D02*
X0151586Y0152762D01*
X0152081Y0153060D02*
X0148920Y0153060D01*
X0152270Y0153060D02*
X0153805Y0153060D01*
X0153902Y0152762D02*
X0152366Y0152762D01*
X0154593Y0152762D02*
X0156128Y0152762D01*
X0156128Y0152701D02*
X0154593Y0152701D01*
X0154593Y0158016D01*
X0154790Y0158055D01*
X0154947Y0158094D01*
X0155144Y0158094D01*
X0155341Y0158134D01*
X0155498Y0158173D01*
X0155892Y0158252D01*
X0156049Y0158291D01*
X0156049Y0157228D01*
X0156207Y0157504D01*
X0156364Y0157701D01*
X0156561Y0157937D01*
X0156758Y0158094D01*
X0157034Y0158252D01*
X0157270Y0158331D01*
X0157545Y0158409D01*
X0158097Y0158409D01*
X0158136Y0158370D01*
X0158175Y0158370D01*
X0158175Y0156953D01*
X0158136Y0156953D01*
X0158057Y0156992D01*
X0157624Y0156992D01*
X0157230Y0156953D01*
X0156916Y0156874D01*
X0156640Y0156716D01*
X0156443Y0156480D01*
X0156286Y0156205D01*
X0156207Y0155929D01*
X0156128Y0155575D01*
X0156128Y0152701D01*
X0156128Y0153060D02*
X0154593Y0153060D01*
X0154593Y0153359D02*
X0156128Y0153359D01*
X0156128Y0153657D02*
X0154593Y0153657D01*
X0154593Y0153956D02*
X0156128Y0153956D01*
X0156128Y0154254D02*
X0154593Y0154254D01*
X0154593Y0154553D02*
X0156128Y0154553D01*
X0156128Y0154851D02*
X0154593Y0154851D01*
X0154593Y0155150D02*
X0156128Y0155150D01*
X0156128Y0155448D02*
X0154593Y0155448D01*
X0154593Y0155747D02*
X0156166Y0155747D01*
X0156240Y0156045D02*
X0154593Y0156045D01*
X0154593Y0156344D02*
X0156365Y0156344D01*
X0156578Y0156642D02*
X0154593Y0156642D01*
X0154593Y0156941D02*
X0157183Y0156941D01*
X0158175Y0157239D02*
X0156056Y0157239D01*
X0156049Y0157239D02*
X0154593Y0157239D01*
X0154593Y0157538D02*
X0156049Y0157538D01*
X0156234Y0157538D02*
X0158175Y0157538D01*
X0158175Y0157836D02*
X0156477Y0157836D01*
X0156049Y0157836D02*
X0154593Y0157836D01*
X0155345Y0158135D02*
X0156049Y0158135D01*
X0156829Y0158135D02*
X0158175Y0158135D01*
X0158766Y0158135D02*
X0160301Y0158135D01*
X0160301Y0158433D02*
X0158766Y0158433D01*
X0158766Y0158732D02*
X0160301Y0158732D01*
X0160301Y0159030D02*
X0158766Y0159030D01*
X0158766Y0159329D02*
X0160301Y0159329D01*
X0160301Y0159627D02*
X0158907Y0159627D01*
X0158766Y0159551D02*
X0158766Y0152701D01*
X0160301Y0152701D01*
X0160301Y0154630D01*
X0160892Y0155181D01*
X0162427Y0152701D01*
X0164278Y0152701D01*
X0161955Y0156244D01*
X0164041Y0158291D01*
X0162230Y0158291D01*
X0160301Y0156283D01*
X0160301Y0160378D01*
X0158766Y0159551D01*
X0159462Y0159926D02*
X0160301Y0159926D01*
X0160301Y0160224D02*
X0160016Y0160224D01*
X0161916Y0160224D02*
X0162634Y0160224D01*
X0162664Y0160260D02*
X0162900Y0160496D01*
X0163097Y0160772D01*
X0163608Y0161283D01*
X0163805Y0161520D01*
X0164199Y0161835D01*
X0164396Y0161953D01*
X0164632Y0161992D01*
X0165380Y0161992D01*
X0165853Y0162071D01*
X0166286Y0162189D01*
X0166679Y0162346D01*
X0167073Y0162583D01*
X0167388Y0162858D01*
X0167703Y0163173D01*
X0167979Y0163527D01*
X0168372Y0164236D01*
X0168569Y0164945D01*
X0168608Y0165653D01*
X0168490Y0166283D01*
X0168293Y0166835D01*
X0168018Y0167307D01*
X0167703Y0167661D01*
X0167388Y0167819D01*
X0167388Y0167504D01*
X0167309Y0167268D01*
X0167191Y0167189D01*
X0167073Y0167150D01*
X0166797Y0167150D01*
X0166482Y0167307D01*
X0166364Y0167386D01*
X0166207Y0167504D01*
X0166089Y0167583D01*
X0165971Y0167701D01*
X0165892Y0167858D01*
X0165813Y0167976D01*
X0165774Y0168134D01*
X0165734Y0168252D01*
X0165774Y0168370D01*
X0165813Y0168449D01*
X0165853Y0168567D01*
X0165931Y0168685D01*
X0166089Y0168803D01*
X0166246Y0168882D01*
X0166443Y0168921D01*
X0166601Y0168961D01*
X0166719Y0168961D01*
X0166837Y0168921D01*
X0166955Y0168921D01*
X0166916Y0168961D01*
X0166758Y0169079D01*
X0166522Y0169197D01*
X0166207Y0169315D01*
X0165853Y0169433D01*
X0165459Y0169433D01*
X0165026Y0169354D01*
X0164593Y0169118D01*
X0164238Y0168803D01*
X0164041Y0168527D01*
X0163923Y0168173D01*
X0163923Y0167858D01*
X0164002Y0167504D01*
X0164199Y0167150D01*
X0164475Y0166835D01*
X0164790Y0166480D01*
X0165065Y0166165D01*
X0165183Y0165890D01*
X0165183Y0165614D01*
X0165104Y0165378D01*
X0164947Y0165181D01*
X0164711Y0165024D01*
X0164396Y0164945D01*
X0164081Y0164945D01*
X0163884Y0164984D01*
X0163687Y0165063D01*
X0163569Y0165142D01*
X0163451Y0165260D01*
X0163372Y0165417D01*
X0163333Y0165535D01*
X0163333Y0165653D01*
X0163372Y0165772D01*
X0163451Y0165890D01*
X0163608Y0166047D01*
X0163727Y0166087D01*
X0163884Y0166165D01*
X0163923Y0166205D01*
X0163845Y0166244D01*
X0163766Y0166244D01*
X0163608Y0166283D01*
X0163293Y0166283D01*
X0163057Y0166244D01*
X0162664Y0166087D01*
X0162506Y0165968D01*
X0162309Y0165850D01*
X0162191Y0165653D01*
X0162073Y0165417D01*
X0161994Y0165181D01*
X0161916Y0164472D01*
X0161916Y0159433D01*
X0161955Y0159433D01*
X0162034Y0159551D01*
X0162152Y0159669D01*
X0162270Y0159827D01*
X0162467Y0160024D01*
X0162664Y0160260D01*
X0162919Y0160523D02*
X0161916Y0160523D01*
X0161916Y0160821D02*
X0163146Y0160821D01*
X0163445Y0161120D02*
X0161916Y0161120D01*
X0161916Y0161418D02*
X0163721Y0161418D01*
X0164052Y0161717D02*
X0161916Y0161717D01*
X0161916Y0162015D02*
X0165520Y0162015D01*
X0166598Y0162314D02*
X0161916Y0162314D01*
X0161916Y0162612D02*
X0167107Y0162612D01*
X0167441Y0162911D02*
X0161916Y0162911D01*
X0161916Y0163209D02*
X0167731Y0163209D01*
X0167963Y0163508D02*
X0161916Y0163508D01*
X0161916Y0163806D02*
X0168134Y0163806D01*
X0168299Y0164105D02*
X0161916Y0164105D01*
X0161916Y0164403D02*
X0168419Y0164403D01*
X0168502Y0164702D02*
X0161941Y0164702D01*
X0161974Y0165001D02*
X0163843Y0165001D01*
X0163431Y0165299D02*
X0162034Y0165299D01*
X0162163Y0165598D02*
X0163333Y0165598D01*
X0163457Y0165896D02*
X0162385Y0165896D01*
X0162934Y0166195D02*
X0163913Y0166195D01*
X0164513Y0166792D02*
X0168309Y0166792D01*
X0168415Y0166493D02*
X0164778Y0166493D01*
X0165039Y0166195D02*
X0168507Y0166195D01*
X0168563Y0165896D02*
X0165180Y0165896D01*
X0165178Y0165598D02*
X0168605Y0165598D01*
X0168589Y0165299D02*
X0165041Y0165299D01*
X0164619Y0165001D02*
X0168572Y0165001D01*
X0168144Y0167090D02*
X0164251Y0167090D01*
X0164066Y0167389D02*
X0166360Y0167389D01*
X0165984Y0167687D02*
X0163961Y0167687D01*
X0163923Y0167986D02*
X0165811Y0167986D01*
X0165745Y0168284D02*
X0163960Y0168284D01*
X0164081Y0168583D02*
X0165863Y0168583D01*
X0166245Y0168881D02*
X0164326Y0168881D01*
X0164706Y0169180D02*
X0166556Y0169180D01*
X0167388Y0167687D02*
X0167651Y0167687D01*
X0167945Y0167389D02*
X0167350Y0167389D01*
X0167782Y0160378D02*
X0167860Y0160338D01*
X0167860Y0159236D01*
X0167191Y0159236D01*
X0167034Y0159197D01*
X0166876Y0159118D01*
X0166797Y0159000D01*
X0166758Y0158921D01*
X0166758Y0158764D01*
X0166719Y0158606D01*
X0166719Y0158291D01*
X0167782Y0158291D01*
X0167782Y0157268D01*
X0166719Y0157268D01*
X0166719Y0152701D01*
X0165223Y0152701D01*
X0165223Y0157268D01*
X0163687Y0157268D01*
X0163845Y0157386D01*
X0164475Y0158016D01*
X0164632Y0158134D01*
X0164750Y0158291D01*
X0165223Y0158291D01*
X0165223Y0159079D01*
X0165341Y0159394D01*
X0165459Y0159669D01*
X0165656Y0159905D01*
X0165931Y0160102D01*
X0166246Y0160260D01*
X0166640Y0160378D01*
X0167782Y0160378D01*
X0167860Y0160224D02*
X0166175Y0160224D01*
X0165684Y0159926D02*
X0167860Y0159926D01*
X0167860Y0159627D02*
X0165441Y0159627D01*
X0165316Y0159329D02*
X0167860Y0159329D01*
X0166818Y0159030D02*
X0165223Y0159030D01*
X0165223Y0158732D02*
X0166750Y0158732D01*
X0166719Y0158433D02*
X0165223Y0158433D01*
X0164633Y0158135D02*
X0167782Y0158135D01*
X0167782Y0157836D02*
X0164295Y0157836D01*
X0163997Y0157538D02*
X0167782Y0157538D01*
X0168254Y0157538D02*
X0169750Y0157538D01*
X0169750Y0157836D02*
X0168254Y0157836D01*
X0168254Y0158135D02*
X0169750Y0158135D01*
X0169750Y0158291D02*
X0169750Y0155142D01*
X0169829Y0154512D01*
X0169868Y0154275D01*
X0170104Y0153961D01*
X0170301Y0153842D01*
X0170498Y0153803D01*
X0170734Y0153764D01*
X0171049Y0153803D01*
X0171286Y0153842D01*
X0171482Y0153961D01*
X0171640Y0154118D01*
X0171758Y0154354D01*
X0171876Y0154630D01*
X0171916Y0154945D01*
X0171916Y0158291D01*
X0173451Y0158291D01*
X0173451Y0152701D01*
X0171994Y0152701D01*
X0171994Y0153488D01*
X0171955Y0153488D01*
X0171797Y0153252D01*
X0171640Y0153055D01*
X0171443Y0152898D01*
X0171207Y0152779D01*
X0171010Y0152701D01*
X0170774Y0152622D01*
X0170498Y0152583D01*
X0170262Y0152543D01*
X0169711Y0152583D01*
X0169278Y0152740D01*
X0168923Y0152937D01*
X0168648Y0153173D01*
X0168451Y0153527D01*
X0168333Y0153921D01*
X0168254Y0154354D01*
X0168254Y0158291D01*
X0169750Y0158291D01*
X0169750Y0157239D02*
X0168254Y0157239D01*
X0168254Y0156941D02*
X0169750Y0156941D01*
X0169750Y0156642D02*
X0168254Y0156642D01*
X0168254Y0156344D02*
X0169750Y0156344D01*
X0169750Y0156045D02*
X0168254Y0156045D01*
X0168254Y0155747D02*
X0169750Y0155747D01*
X0169750Y0155448D02*
X0168254Y0155448D01*
X0168254Y0155150D02*
X0169750Y0155150D01*
X0169786Y0154851D02*
X0168254Y0154851D01*
X0168254Y0154553D02*
X0169824Y0154553D01*
X0169884Y0154254D02*
X0168272Y0154254D01*
X0168327Y0153956D02*
X0170113Y0153956D01*
X0171474Y0153956D02*
X0173451Y0153956D01*
X0173451Y0154254D02*
X0171708Y0154254D01*
X0171843Y0154553D02*
X0173451Y0154553D01*
X0173451Y0154851D02*
X0171904Y0154851D01*
X0171916Y0155150D02*
X0173451Y0155150D01*
X0173451Y0155448D02*
X0171916Y0155448D01*
X0171916Y0155747D02*
X0173451Y0155747D01*
X0173451Y0156045D02*
X0171916Y0156045D01*
X0171916Y0156344D02*
X0173451Y0156344D01*
X0173451Y0156642D02*
X0171916Y0156642D01*
X0171916Y0156941D02*
X0173451Y0156941D01*
X0173451Y0157239D02*
X0171916Y0157239D01*
X0171916Y0157538D02*
X0173451Y0157538D01*
X0173451Y0157836D02*
X0171916Y0157836D01*
X0171916Y0158135D02*
X0173451Y0158135D01*
X0174278Y0158135D02*
X0175734Y0158135D01*
X0175734Y0158291D02*
X0175734Y0157504D01*
X0175774Y0157504D01*
X0175931Y0157740D01*
X0176089Y0157898D01*
X0176286Y0158055D01*
X0176522Y0158213D01*
X0176994Y0158370D01*
X0177230Y0158409D01*
X0177467Y0158409D01*
X0178018Y0158370D01*
X0178451Y0158252D01*
X0178805Y0158055D01*
X0179081Y0157779D01*
X0179278Y0157464D01*
X0179396Y0157071D01*
X0179475Y0156638D01*
X0179514Y0156126D01*
X0179514Y0152701D01*
X0177979Y0152701D01*
X0177979Y0155850D01*
X0177939Y0156165D01*
X0177900Y0156441D01*
X0177860Y0156677D01*
X0177742Y0156874D01*
X0177624Y0157031D01*
X0177427Y0157150D01*
X0177230Y0157189D01*
X0176994Y0157228D01*
X0176679Y0157189D01*
X0176443Y0157150D01*
X0176246Y0157031D01*
X0176089Y0156835D01*
X0175971Y0156638D01*
X0175853Y0156362D01*
X0175813Y0156008D01*
X0175813Y0152701D01*
X0174278Y0152701D01*
X0174278Y0158291D01*
X0175734Y0158291D01*
X0175734Y0157836D02*
X0174278Y0157836D01*
X0174278Y0157538D02*
X0175734Y0157538D01*
X0175796Y0157538D02*
X0179232Y0157538D01*
X0179345Y0157239D02*
X0174278Y0157239D01*
X0174278Y0156941D02*
X0176174Y0156941D01*
X0175973Y0156642D02*
X0174278Y0156642D01*
X0174278Y0156344D02*
X0175850Y0156344D01*
X0175817Y0156045D02*
X0174278Y0156045D01*
X0174278Y0155747D02*
X0175813Y0155747D01*
X0175813Y0155448D02*
X0174278Y0155448D01*
X0174278Y0155150D02*
X0175813Y0155150D01*
X0175813Y0154851D02*
X0174278Y0154851D01*
X0174278Y0154553D02*
X0175813Y0154553D01*
X0175813Y0154254D02*
X0174278Y0154254D01*
X0174278Y0153956D02*
X0175813Y0153956D01*
X0175813Y0153657D02*
X0174278Y0153657D01*
X0174278Y0153359D02*
X0175813Y0153359D01*
X0175813Y0153060D02*
X0174278Y0153060D01*
X0174278Y0152762D02*
X0175813Y0152762D01*
X0177979Y0152762D02*
X0179514Y0152762D01*
X0179514Y0153060D02*
X0177979Y0153060D01*
X0177979Y0153359D02*
X0179514Y0153359D01*
X0179514Y0153657D02*
X0177979Y0153657D01*
X0177979Y0153956D02*
X0179514Y0153956D01*
X0179514Y0154254D02*
X0177979Y0154254D01*
X0177979Y0154553D02*
X0179514Y0154553D01*
X0179514Y0154851D02*
X0177979Y0154851D01*
X0177979Y0155150D02*
X0179514Y0155150D01*
X0179514Y0155448D02*
X0177979Y0155448D01*
X0177979Y0155747D02*
X0179514Y0155747D01*
X0179514Y0156045D02*
X0177954Y0156045D01*
X0177914Y0156344D02*
X0179497Y0156344D01*
X0179474Y0156642D02*
X0177866Y0156642D01*
X0177692Y0156941D02*
X0179419Y0156941D01*
X0179024Y0157836D02*
X0176027Y0157836D01*
X0176405Y0158135D02*
X0178662Y0158135D01*
X0173451Y0153657D02*
X0168412Y0153657D01*
X0168545Y0153359D02*
X0171869Y0153359D01*
X0171994Y0153359D02*
X0173451Y0153359D01*
X0173451Y0153060D02*
X0171994Y0153060D01*
X0171994Y0152762D02*
X0173451Y0152762D01*
X0171644Y0153060D02*
X0168780Y0153060D01*
X0169239Y0152762D02*
X0171162Y0152762D01*
X0166719Y0152762D02*
X0165223Y0152762D01*
X0165223Y0153060D02*
X0166719Y0153060D01*
X0166719Y0153359D02*
X0165223Y0153359D01*
X0165223Y0153657D02*
X0166719Y0153657D01*
X0166719Y0153956D02*
X0165223Y0153956D01*
X0165223Y0154254D02*
X0166719Y0154254D01*
X0166719Y0154553D02*
X0165223Y0154553D01*
X0165223Y0154851D02*
X0166719Y0154851D01*
X0166719Y0155150D02*
X0165223Y0155150D01*
X0165223Y0155448D02*
X0166719Y0155448D01*
X0166719Y0155747D02*
X0165223Y0155747D01*
X0165223Y0156045D02*
X0166719Y0156045D01*
X0166719Y0156344D02*
X0165223Y0156344D01*
X0165223Y0156642D02*
X0166719Y0156642D01*
X0166719Y0156941D02*
X0165223Y0156941D01*
X0165223Y0157239D02*
X0166719Y0157239D01*
X0163882Y0158135D02*
X0162080Y0158135D01*
X0161793Y0157836D02*
X0163578Y0157836D01*
X0163274Y0157538D02*
X0161507Y0157538D01*
X0161220Y0157239D02*
X0162969Y0157239D01*
X0162665Y0156941D02*
X0160933Y0156941D01*
X0160646Y0156642D02*
X0162361Y0156642D01*
X0162056Y0156344D02*
X0160359Y0156344D01*
X0160301Y0156344D02*
X0158766Y0156344D01*
X0158766Y0156642D02*
X0160301Y0156642D01*
X0160301Y0156941D02*
X0158766Y0156941D01*
X0158766Y0157239D02*
X0160301Y0157239D01*
X0160301Y0157538D02*
X0158766Y0157538D01*
X0158766Y0157836D02*
X0160301Y0157836D01*
X0158766Y0156045D02*
X0162085Y0156045D01*
X0162281Y0155747D02*
X0158766Y0155747D01*
X0158766Y0155448D02*
X0162477Y0155448D01*
X0162672Y0155150D02*
X0160911Y0155150D01*
X0160858Y0155150D02*
X0158766Y0155150D01*
X0158766Y0154851D02*
X0160538Y0154851D01*
X0160301Y0154553D02*
X0158766Y0154553D01*
X0158766Y0154254D02*
X0160301Y0154254D01*
X0160301Y0153956D02*
X0158766Y0153956D01*
X0158766Y0153657D02*
X0160301Y0153657D01*
X0160301Y0153359D02*
X0158766Y0153359D01*
X0158766Y0153060D02*
X0160301Y0153060D01*
X0160301Y0152762D02*
X0158766Y0152762D01*
X0161466Y0154254D02*
X0163259Y0154254D01*
X0163064Y0154553D02*
X0161281Y0154553D01*
X0161096Y0154851D02*
X0162868Y0154851D01*
X0163455Y0153956D02*
X0161650Y0153956D01*
X0161835Y0153657D02*
X0163651Y0153657D01*
X0163846Y0153359D02*
X0162020Y0153359D01*
X0162205Y0153060D02*
X0164042Y0153060D01*
X0164238Y0152762D02*
X0162390Y0152762D01*
X0153727Y0156344D02*
X0152118Y0156344D01*
X0152191Y0156642D02*
X0153727Y0156642D01*
X0153727Y0156941D02*
X0152158Y0156941D01*
X0151972Y0157239D02*
X0153693Y0157239D01*
X0153572Y0157538D02*
X0149030Y0157538D01*
X0148835Y0157239D02*
X0150599Y0157239D01*
X0150297Y0156941D02*
X0148751Y0156941D01*
X0148701Y0156642D02*
X0150223Y0156642D01*
X0149275Y0157836D02*
X0153336Y0157836D01*
X0152937Y0158135D02*
X0149753Y0158135D01*
X0146740Y0158135D02*
X0144463Y0158135D01*
X0143884Y0158135D02*
X0143141Y0158135D01*
X0142427Y0156941D02*
X0144347Y0156941D01*
X0144128Y0156642D02*
X0142427Y0156642D01*
X0142427Y0156344D02*
X0144005Y0156344D01*
X0143913Y0156045D02*
X0142427Y0156045D01*
X0142427Y0155747D02*
X0143884Y0155747D01*
X0143884Y0155448D02*
X0142427Y0155448D01*
X0142427Y0155150D02*
X0143884Y0155150D01*
X0143957Y0154851D02*
X0142427Y0154851D01*
X0142427Y0154553D02*
X0144031Y0154553D01*
X0144152Y0154254D02*
X0142427Y0154254D01*
X0142427Y0153956D02*
X0144457Y0153956D01*
X0143923Y0153060D02*
X0142427Y0153060D01*
X0142427Y0152762D02*
X0143923Y0152762D01*
X0143923Y0152463D02*
X0142427Y0152463D01*
X0142427Y0152165D02*
X0143923Y0152165D01*
X0143923Y0151866D02*
X0142427Y0151866D01*
X0142427Y0151568D02*
X0143923Y0151568D01*
X0143923Y0151269D02*
X0142427Y0151269D01*
X0142427Y0150970D02*
X0143923Y0150970D01*
X0143923Y0150672D02*
X0142503Y0150672D01*
X0142825Y0150373D02*
X0143923Y0150373D01*
X0143923Y0150075D02*
X0143160Y0150075D01*
X0143533Y0149776D02*
X0143923Y0149776D01*
X0143923Y0149478D02*
X0143839Y0149478D01*
X0141106Y0153060D02*
X0137371Y0153060D01*
X0137069Y0153359D02*
X0141405Y0153359D01*
X0140551Y0152762D02*
X0137926Y0152762D01*
X0161916Y0159627D02*
X0162110Y0159627D01*
X0161916Y0159926D02*
X0162369Y0159926D01*
M02*
