G75*
%MOIN*%
%OFA0B0*%
%FSLAX25Y25*%
%IPPOS*%
%LPD*%
%AMOC8*
5,1,8,0,0,1.08239X$1,22.5*
%
%ADD10C,0.00900*%
D10*
X0191233Y0161809D02*
X0191233Y0164486D01*
X0192125Y0165378D01*
X0195695Y0165378D01*
X0196587Y0164486D01*
X0196587Y0161809D01*
X0191233Y0161809D01*
X0192125Y0167564D02*
X0191233Y0168456D01*
X0191233Y0170241D01*
X0192125Y0171133D01*
X0193910Y0171133D01*
X0194802Y0170241D01*
X0194802Y0168456D01*
X0193910Y0167564D01*
X0192125Y0167564D01*
X0192125Y0173318D02*
X0191233Y0174211D01*
X0192125Y0175103D01*
X0191233Y0175996D01*
X0192125Y0176888D01*
X0194802Y0176888D01*
X0194802Y0179073D02*
X0191233Y0179073D01*
X0194802Y0179073D02*
X0194802Y0181751D01*
X0193910Y0182643D01*
X0191233Y0182643D01*
X0193910Y0184828D02*
X0193910Y0188398D01*
X0191233Y0190583D02*
X0196587Y0190583D01*
X0194802Y0192368D01*
X0196587Y0194153D01*
X0191233Y0194153D01*
X0191233Y0196338D02*
X0191233Y0198123D01*
X0191233Y0197231D02*
X0194802Y0197231D01*
X0194802Y0196338D01*
X0196587Y0197231D02*
X0197480Y0197231D01*
X0193910Y0200175D02*
X0194802Y0201067D01*
X0194802Y0203744D01*
X0196587Y0203744D02*
X0191233Y0203744D01*
X0191233Y0201067D01*
X0192125Y0200175D01*
X0193910Y0200175D01*
X0193910Y0205930D02*
X0194802Y0206822D01*
X0194802Y0209499D01*
X0196587Y0209499D02*
X0191233Y0209499D01*
X0191233Y0206822D01*
X0192125Y0205930D01*
X0193910Y0205930D01*
X0196587Y0211685D02*
X0196587Y0212577D01*
X0191233Y0212577D01*
X0191233Y0211685D02*
X0191233Y0213469D01*
X0192125Y0215521D02*
X0193910Y0215521D01*
X0194802Y0216414D01*
X0194802Y0218198D01*
X0193910Y0219091D01*
X0193017Y0219091D01*
X0193017Y0215521D01*
X0192125Y0215521D02*
X0191233Y0216414D01*
X0191233Y0218198D01*
X0191233Y0221276D02*
X0191233Y0224846D01*
X0192125Y0227031D02*
X0193017Y0227923D01*
X0193017Y0230601D01*
X0193910Y0230601D02*
X0191233Y0230601D01*
X0191233Y0227923D01*
X0192125Y0227031D01*
X0194802Y0227923D02*
X0194802Y0229708D01*
X0193910Y0230601D01*
X0194802Y0232786D02*
X0192125Y0232786D01*
X0191233Y0233678D01*
X0191233Y0236356D01*
X0190340Y0236356D02*
X0189448Y0235463D01*
X0189448Y0234571D01*
X0190340Y0236356D02*
X0194802Y0236356D01*
X0193910Y0238541D02*
X0194802Y0239433D01*
X0194802Y0241218D01*
X0193910Y0242110D01*
X0193017Y0242110D01*
X0193017Y0238541D01*
X0192125Y0238541D02*
X0193910Y0238541D01*
X0192125Y0238541D02*
X0191233Y0239433D01*
X0191233Y0241218D01*
X0191233Y0244296D02*
X0194802Y0244296D01*
X0194802Y0246081D02*
X0194802Y0246973D01*
X0194802Y0246081D02*
X0193017Y0244296D01*
X0191233Y0221276D02*
X0196587Y0221276D01*
X0194802Y0173318D02*
X0192125Y0173318D01*
M02*
