G75*
%MOIN*%
%OFA0B0*%
%FSLAX25Y25*%
%IPPOS*%
%LPD*%
%AMOC8*
5,1,8,0,0,1.08239X$1,22.5*
%
%ADD10C,0.00600*%
%ADD11C,0.00800*%
%ADD12C,0.00591*%
%ADD13R,0.16220X0.00157*%
%ADD14R,0.17165X0.00157*%
%ADD15R,0.17795X0.00157*%
%ADD16R,0.18425X0.00157*%
%ADD17R,0.18740X0.00157*%
%ADD18R,0.19055X0.00157*%
%ADD19R,0.09921X0.00157*%
%ADD20R,0.01260X0.00157*%
%ADD21R,0.07087X0.00157*%
%ADD22R,0.00945X0.00157*%
%ADD23R,0.02992X0.00157*%
%ADD24R,0.04724X0.00157*%
%ADD25R,0.03307X0.00157*%
%ADD26R,0.04409X0.00157*%
%ADD27R,0.03150X0.00157*%
%ADD28R,0.04252X0.00157*%
%ADD29R,0.02835X0.00157*%
%ADD30R,0.04094X0.00157*%
%ADD31R,0.02677X0.00157*%
%ADD32R,0.02520X0.00157*%
%ADD33R,0.01102X0.00157*%
%ADD34R,0.02362X0.00157*%
%ADD35R,0.03465X0.00157*%
%ADD36R,0.00630X0.00157*%
%ADD37R,0.00315X0.00157*%
%ADD38R,0.00472X0.00157*%
%ADD39R,0.00787X0.00157*%
%ADD40R,0.01417X0.00157*%
%ADD41R,0.01575X0.00157*%
%ADD42R,0.01732X0.00157*%
%ADD43R,0.00157X0.00157*%
%ADD44R,0.01890X0.00157*%
%ADD45R,0.02205X0.00157*%
%ADD46R,0.19370X0.00157*%
%ADD47R,0.17480X0.00157*%
%ADD48R,0.19685X0.00157*%
%ADD49R,0.20000X0.00157*%
%ADD50R,0.20315X0.00157*%
%ADD51R,0.08189X0.00157*%
%ADD52R,0.04567X0.00157*%
%ADD53R,0.03780X0.00157*%
%ADD54R,0.03622X0.00157*%
%ADD55R,0.03937X0.00157*%
%ADD56R,0.02047X0.00157*%
%ADD57R,0.20630X0.00157*%
%ADD58R,0.00157X0.00157*%
%ADD59R,0.01181X0.00236*%
%ADD60R,0.04961X0.00236*%
%ADD61R,0.01654X0.00236*%
%ADD62R,0.01417X0.00236*%
%ADD63R,0.05906X0.00236*%
%ADD64R,0.05433X0.00236*%
%ADD65R,0.00709X0.00236*%
%ADD66R,0.03307X0.00236*%
%ADD67R,0.03543X0.00236*%
%ADD68R,0.03780X0.00236*%
%ADD69R,0.04016X0.00236*%
%ADD70R,0.04252X0.00236*%
%ADD71R,0.04488X0.00236*%
%ADD72R,0.00236X0.00236*%
%ADD73R,0.01890X0.00236*%
%ADD74R,0.00945X0.00236*%
%ADD75R,0.02598X0.00236*%
%ADD76R,0.00472X0.00236*%
%ADD77R,0.02362X0.00236*%
%ADD78R,0.03071X0.00236*%
%ADD79R,0.02835X0.00236*%
%ADD80R,0.02126X0.00236*%
%ADD81R,0.00197X0.00197*%
%ADD82R,0.01378X0.00197*%
%ADD83R,0.02756X0.00197*%
%ADD84R,0.01181X0.00197*%
%ADD85R,0.00394X0.00197*%
%ADD86R,0.02165X0.00197*%
%ADD87R,0.00984X0.00197*%
%ADD88R,0.02362X0.00197*%
%ADD89R,0.03740X0.00197*%
%ADD90R,0.01969X0.00197*%
%ADD91R,0.01772X0.00197*%
%ADD92R,0.02559X0.00197*%
%ADD93R,0.02953X0.00197*%
%ADD94R,0.03150X0.00197*%
%ADD95R,0.01575X0.00197*%
%ADD96R,0.03346X0.00197*%
%ADD97R,0.03543X0.00197*%
%ADD98R,0.00591X0.00197*%
%ADD99R,0.00787X0.00197*%
%ADD100R,0.01575X0.00236*%
%ADD101R,0.01378X0.00236*%
%ADD102R,0.02559X0.00236*%
%ADD103R,0.01969X0.00236*%
%ADD104R,0.03150X0.00236*%
%ADD105R,0.02756X0.00236*%
%ADD106R,0.03937X0.00197*%
%ADD107R,0.04134X0.00197*%
%ADD108R,0.04331X0.00197*%
%ADD109R,0.04528X0.00197*%
%ADD110R,0.04724X0.00236*%
%ADD111R,0.03346X0.00236*%
%ADD112R,0.00984X0.00236*%
%ADD113R,0.04921X0.00197*%
%ADD114R,0.05315X0.00197*%
%ADD115R,0.03937X0.00236*%
%ADD116R,0.00157X0.01102*%
%ADD117R,0.00157X0.00315*%
%ADD118R,0.00157X0.01732*%
%ADD119R,0.00157X0.00787*%
%ADD120R,0.00157X0.02047*%
%ADD121R,0.00157X0.00945*%
%ADD122R,0.00157X0.02362*%
%ADD123R,0.00157X0.02677*%
%ADD124R,0.00157X0.01260*%
%ADD125R,0.00157X0.02992*%
%ADD126R,0.00157X0.00630*%
%ADD127R,0.00157X0.01890*%
%ADD128R,0.00157X0.02205*%
%ADD129R,0.00157X0.01575*%
%ADD130R,0.00157X0.01417*%
%ADD131R,0.00157X0.02520*%
%ADD132R,0.00157X0.00472*%
%ADD133R,0.00157X0.02835*%
%ADD134R,0.00157X0.03150*%
%ADD135R,0.00157X0.03307*%
%ADD136R,0.00157X0.03465*%
%ADD137R,0.03740X0.00236*%
%ADD138R,0.00157X0.04094*%
%ADD139R,0.00157X0.05512*%
%ADD140R,0.00157X0.03780*%
%ADD141R,0.00157X0.03622*%
%ADD142R,0.00118X0.08858*%
%ADD143R,0.00118X0.09567*%
%ADD144R,0.00079X0.10039*%
%ADD145R,0.00157X0.10512*%
%ADD146R,0.00118X0.10748*%
%ADD147R,0.00118X0.10984*%
%ADD148R,0.00079X0.11220*%
%ADD149R,0.00118X0.07913*%
%ADD150R,0.00118X0.02953*%
%ADD151R,0.00157X0.03543*%
%ADD152R,0.00157X0.01535*%
%ADD153R,0.00118X0.03543*%
%ADD154R,0.00118X0.00472*%
%ADD155R,0.00118X0.01063*%
%ADD156R,0.00118X0.02598*%
%ADD157R,0.00118X0.00354*%
%ADD158R,0.00118X0.00827*%
%ADD159R,0.00118X0.00591*%
%ADD160R,0.00157X0.03661*%
%ADD161R,0.00157X0.00354*%
%ADD162R,0.00157X0.02598*%
%ADD163R,0.00118X0.03661*%
%ADD164R,0.00118X0.00709*%
%ADD165R,0.00118X0.02480*%
%ADD166R,0.00118X0.03780*%
%ADD167R,0.00118X0.00236*%
%ADD168R,0.00157X0.00236*%
%ADD169R,0.00157X0.00827*%
%ADD170R,0.00118X0.00945*%
%ADD171R,0.00157X0.01654*%
%ADD172R,0.00157X0.02717*%
%ADD173R,0.00118X0.01417*%
%ADD174R,0.00118X0.02717*%
%ADD175R,0.00118X0.02835*%
%ADD176R,0.00118X0.01299*%
%ADD177R,0.00157X0.01181*%
%ADD178R,0.00157X0.03071*%
%ADD179R,0.00118X0.01181*%
%ADD180R,0.00118X0.03189*%
%ADD181R,0.00118X0.02008*%
%ADD182R,0.00118X0.03425*%
%ADD183R,0.00118X0.02244*%
%ADD184R,0.00118X0.01890*%
%ADD185R,0.00118X0.02126*%
%ADD186R,0.00157X0.02126*%
%ADD187R,0.00118X0.11220*%
%ADD188R,0.00118X0.10512*%
%ADD189R,0.00118X0.10039*%
%ADD190R,0.00157X0.14331*%
%ADD191R,0.00157X0.07087*%
%ADD192R,0.00157X0.15276*%
%ADD193R,0.00157X0.11024*%
%ADD194R,0.00157X0.13858*%
%ADD195R,0.00157X0.14646*%
%ADD196R,0.00157X0.14961*%
%ADD197R,0.00157X0.15118*%
%ADD198R,0.00157X0.15433*%
%ADD199R,0.00157X0.11969*%
%ADD200R,0.00157X0.04567*%
%ADD201R,0.00157X0.04409*%
%ADD202R,0.00157X0.04252*%
%ADD203R,0.00157X0.03937*%
%ADD204R,0.00157X0.12913*%
%ADD205R,0.00157X0.13386*%
%ADD206R,0.00157X0.13701*%
%ADD207R,0.00157X0.14016*%
%ADD208R,0.00157X0.14173*%
%ADD209R,0.00157X0.14488*%
%ADD210R,0.00157X0.04882*%
%ADD211R,0.00157X0.05039*%
%ADD212R,0.00157X0.05197*%
%ADD213R,0.00157X0.12756*%
%ADD214R,0.00157X0.12598*%
%ADD215R,0.00157X0.12441*%
%ADD216R,0.00157X0.12283*%
%ADD217R,0.00157X0.11181*%
%ADD218R,0.00157X0.10866*%
%ADD219R,0.00157X0.10709*%
%ADD220R,0.00157X0.12126*%
%ADD221R,0.00157X0.11496*%
%ADD222R,0.00157X0.11654*%
%ADD223R,0.00157X0.13071*%
%ADD224R,0.00157X0.13228*%
%ADD225R,0.00157X0.11811*%
D10*
X0085275Y0263250D02*
X0084708Y0263818D01*
X0084708Y0264952D01*
X0085275Y0265519D01*
X0086409Y0265519D01*
X0086409Y0264385D01*
X0087543Y0265519D02*
X0088111Y0264952D01*
X0088111Y0263818D01*
X0087543Y0263250D01*
X0085275Y0263250D01*
X0084708Y0266934D02*
X0088111Y0266934D01*
X0084708Y0269202D01*
X0088111Y0269202D01*
X0088111Y0270617D02*
X0088111Y0272318D01*
X0087543Y0272885D01*
X0085275Y0272885D01*
X0084708Y0272318D01*
X0084708Y0270617D01*
X0088111Y0270617D01*
D11*
X0102408Y0274000D02*
X0103908Y0275500D01*
X0111908Y0274000D02*
X0113408Y0275500D01*
X0131408Y0255000D02*
X0136408Y0260000D01*
X0131408Y0255000D02*
X0124408Y0255000D01*
X0098408Y0255000D02*
X0091408Y0255000D01*
X0086408Y0260000D01*
X0063905Y0200000D02*
X0063919Y0201166D01*
X0063962Y0202331D01*
X0064034Y0203495D01*
X0064134Y0204656D01*
X0064262Y0205815D01*
X0064419Y0206970D01*
X0064604Y0208121D01*
X0064818Y0209267D01*
X0065059Y0210408D01*
X0065329Y0211542D01*
X0065626Y0212670D01*
X0065950Y0213789D01*
X0066303Y0214901D01*
X0066682Y0216003D01*
X0067088Y0217096D01*
X0067521Y0218179D01*
X0067980Y0219250D01*
X0068466Y0220310D01*
X0068977Y0221358D01*
X0069514Y0222393D01*
X0070076Y0223414D01*
X0070663Y0224421D01*
X0071275Y0225414D01*
X0071911Y0226391D01*
X0072570Y0227353D01*
X0073253Y0228298D01*
X0073959Y0229225D01*
X0074688Y0230136D01*
X0075438Y0231028D01*
X0076211Y0231901D01*
X0077004Y0232755D01*
X0077818Y0233590D01*
X0078653Y0234404D01*
X0079507Y0235197D01*
X0080380Y0235970D01*
X0081272Y0236720D01*
X0082183Y0237449D01*
X0083110Y0238155D01*
X0084055Y0238838D01*
X0085017Y0239497D01*
X0085994Y0240133D01*
X0086987Y0240745D01*
X0087994Y0241332D01*
X0089015Y0241894D01*
X0090050Y0242431D01*
X0091098Y0242942D01*
X0092158Y0243428D01*
X0093229Y0243887D01*
X0094312Y0244320D01*
X0095405Y0244726D01*
X0096507Y0245105D01*
X0097619Y0245458D01*
X0098738Y0245782D01*
X0099866Y0246079D01*
X0101000Y0246349D01*
X0102141Y0246590D01*
X0103287Y0246804D01*
X0104438Y0246989D01*
X0105593Y0247146D01*
X0106752Y0247274D01*
X0107913Y0247374D01*
X0109077Y0247446D01*
X0110242Y0247489D01*
X0111408Y0247503D01*
X0112574Y0247489D01*
X0113739Y0247446D01*
X0114903Y0247374D01*
X0116064Y0247274D01*
X0117223Y0247146D01*
X0118378Y0246989D01*
X0119529Y0246804D01*
X0120675Y0246590D01*
X0121816Y0246349D01*
X0122950Y0246079D01*
X0124078Y0245782D01*
X0125197Y0245458D01*
X0126309Y0245105D01*
X0127411Y0244726D01*
X0128504Y0244320D01*
X0129587Y0243887D01*
X0130658Y0243428D01*
X0131718Y0242942D01*
X0132766Y0242431D01*
X0133801Y0241894D01*
X0134822Y0241332D01*
X0135829Y0240745D01*
X0136822Y0240133D01*
X0137799Y0239497D01*
X0138761Y0238838D01*
X0139706Y0238155D01*
X0140633Y0237449D01*
X0141544Y0236720D01*
X0142436Y0235970D01*
X0143309Y0235197D01*
X0144163Y0234404D01*
X0144998Y0233590D01*
X0145812Y0232755D01*
X0146605Y0231901D01*
X0147378Y0231028D01*
X0148128Y0230136D01*
X0148857Y0229225D01*
X0149563Y0228298D01*
X0150246Y0227353D01*
X0150905Y0226391D01*
X0151541Y0225414D01*
X0152153Y0224421D01*
X0152740Y0223414D01*
X0153302Y0222393D01*
X0153839Y0221358D01*
X0154350Y0220310D01*
X0154836Y0219250D01*
X0155295Y0218179D01*
X0155728Y0217096D01*
X0156134Y0216003D01*
X0156513Y0214901D01*
X0156866Y0213789D01*
X0157190Y0212670D01*
X0157487Y0211542D01*
X0157757Y0210408D01*
X0157998Y0209267D01*
X0158212Y0208121D01*
X0158397Y0206970D01*
X0158554Y0205815D01*
X0158682Y0204656D01*
X0158782Y0203495D01*
X0158854Y0202331D01*
X0158897Y0201166D01*
X0158911Y0200000D01*
X0158897Y0198834D01*
X0158854Y0197669D01*
X0158782Y0196505D01*
X0158682Y0195344D01*
X0158554Y0194185D01*
X0158397Y0193030D01*
X0158212Y0191879D01*
X0157998Y0190733D01*
X0157757Y0189592D01*
X0157487Y0188458D01*
X0157190Y0187330D01*
X0156866Y0186211D01*
X0156513Y0185099D01*
X0156134Y0183997D01*
X0155728Y0182904D01*
X0155295Y0181821D01*
X0154836Y0180750D01*
X0154350Y0179690D01*
X0153839Y0178642D01*
X0153302Y0177607D01*
X0152740Y0176586D01*
X0152153Y0175579D01*
X0151541Y0174586D01*
X0150905Y0173609D01*
X0150246Y0172647D01*
X0149563Y0171702D01*
X0148857Y0170775D01*
X0148128Y0169864D01*
X0147378Y0168972D01*
X0146605Y0168099D01*
X0145812Y0167245D01*
X0144998Y0166410D01*
X0144163Y0165596D01*
X0143309Y0164803D01*
X0142436Y0164030D01*
X0141544Y0163280D01*
X0140633Y0162551D01*
X0139706Y0161845D01*
X0138761Y0161162D01*
X0137799Y0160503D01*
X0136822Y0159867D01*
X0135829Y0159255D01*
X0134822Y0158668D01*
X0133801Y0158106D01*
X0132766Y0157569D01*
X0131718Y0157058D01*
X0130658Y0156572D01*
X0129587Y0156113D01*
X0128504Y0155680D01*
X0127411Y0155274D01*
X0126309Y0154895D01*
X0125197Y0154542D01*
X0124078Y0154218D01*
X0122950Y0153921D01*
X0121816Y0153651D01*
X0120675Y0153410D01*
X0119529Y0153196D01*
X0118378Y0153011D01*
X0117223Y0152854D01*
X0116064Y0152726D01*
X0114903Y0152626D01*
X0113739Y0152554D01*
X0112574Y0152511D01*
X0111408Y0152497D01*
X0110242Y0152511D01*
X0109077Y0152554D01*
X0107913Y0152626D01*
X0106752Y0152726D01*
X0105593Y0152854D01*
X0104438Y0153011D01*
X0103287Y0153196D01*
X0102141Y0153410D01*
X0101000Y0153651D01*
X0099866Y0153921D01*
X0098738Y0154218D01*
X0097619Y0154542D01*
X0096507Y0154895D01*
X0095405Y0155274D01*
X0094312Y0155680D01*
X0093229Y0156113D01*
X0092158Y0156572D01*
X0091098Y0157058D01*
X0090050Y0157569D01*
X0089015Y0158106D01*
X0087994Y0158668D01*
X0086987Y0159255D01*
X0085994Y0159867D01*
X0085017Y0160503D01*
X0084055Y0161162D01*
X0083110Y0161845D01*
X0082183Y0162551D01*
X0081272Y0163280D01*
X0080380Y0164030D01*
X0079507Y0164803D01*
X0078653Y0165596D01*
X0077818Y0166410D01*
X0077004Y0167245D01*
X0076211Y0168099D01*
X0075438Y0168972D01*
X0074688Y0169864D01*
X0073959Y0170775D01*
X0073253Y0171702D01*
X0072570Y0172647D01*
X0071911Y0173609D01*
X0071275Y0174586D01*
X0070663Y0175579D01*
X0070076Y0176586D01*
X0069514Y0177607D01*
X0068977Y0178642D01*
X0068466Y0179690D01*
X0067980Y0180750D01*
X0067521Y0181821D01*
X0067088Y0182904D01*
X0066682Y0183997D01*
X0066303Y0185099D01*
X0065950Y0186211D01*
X0065626Y0187330D01*
X0065329Y0188458D01*
X0065059Y0189592D01*
X0064818Y0190733D01*
X0064604Y0191879D01*
X0064419Y0193030D01*
X0064262Y0194185D01*
X0064134Y0195344D01*
X0064034Y0196505D01*
X0063962Y0197669D01*
X0063919Y0198834D01*
X0063905Y0200000D01*
X0110408Y0200000D02*
X0110410Y0200063D01*
X0110416Y0200125D01*
X0110426Y0200187D01*
X0110439Y0200249D01*
X0110457Y0200309D01*
X0110478Y0200368D01*
X0110503Y0200426D01*
X0110532Y0200482D01*
X0110564Y0200536D01*
X0110599Y0200588D01*
X0110637Y0200637D01*
X0110679Y0200685D01*
X0110723Y0200729D01*
X0110771Y0200771D01*
X0110820Y0200809D01*
X0110872Y0200844D01*
X0110926Y0200876D01*
X0110982Y0200905D01*
X0111040Y0200930D01*
X0111099Y0200951D01*
X0111159Y0200969D01*
X0111221Y0200982D01*
X0111283Y0200992D01*
X0111345Y0200998D01*
X0111408Y0201000D01*
X0111471Y0200998D01*
X0111533Y0200992D01*
X0111595Y0200982D01*
X0111657Y0200969D01*
X0111717Y0200951D01*
X0111776Y0200930D01*
X0111834Y0200905D01*
X0111890Y0200876D01*
X0111944Y0200844D01*
X0111996Y0200809D01*
X0112045Y0200771D01*
X0112093Y0200729D01*
X0112137Y0200685D01*
X0112179Y0200637D01*
X0112217Y0200588D01*
X0112252Y0200536D01*
X0112284Y0200482D01*
X0112313Y0200426D01*
X0112338Y0200368D01*
X0112359Y0200309D01*
X0112377Y0200249D01*
X0112390Y0200187D01*
X0112400Y0200125D01*
X0112406Y0200063D01*
X0112408Y0200000D01*
X0112406Y0199937D01*
X0112400Y0199875D01*
X0112390Y0199813D01*
X0112377Y0199751D01*
X0112359Y0199691D01*
X0112338Y0199632D01*
X0112313Y0199574D01*
X0112284Y0199518D01*
X0112252Y0199464D01*
X0112217Y0199412D01*
X0112179Y0199363D01*
X0112137Y0199315D01*
X0112093Y0199271D01*
X0112045Y0199229D01*
X0111996Y0199191D01*
X0111944Y0199156D01*
X0111890Y0199124D01*
X0111834Y0199095D01*
X0111776Y0199070D01*
X0111717Y0199049D01*
X0111657Y0199031D01*
X0111595Y0199018D01*
X0111533Y0199008D01*
X0111471Y0199002D01*
X0111408Y0199000D01*
X0111345Y0199002D01*
X0111283Y0199008D01*
X0111221Y0199018D01*
X0111159Y0199031D01*
X0111099Y0199049D01*
X0111040Y0199070D01*
X0110982Y0199095D01*
X0110926Y0199124D01*
X0110872Y0199156D01*
X0110820Y0199191D01*
X0110771Y0199229D01*
X0110723Y0199271D01*
X0110679Y0199315D01*
X0110637Y0199363D01*
X0110599Y0199412D01*
X0110564Y0199464D01*
X0110532Y0199518D01*
X0110503Y0199574D01*
X0110478Y0199632D01*
X0110457Y0199691D01*
X0110439Y0199751D01*
X0110426Y0199813D01*
X0110416Y0199875D01*
X0110410Y0199937D01*
X0110408Y0200000D01*
X0106408Y0200000D02*
X0106410Y0200141D01*
X0106416Y0200282D01*
X0106426Y0200422D01*
X0106440Y0200562D01*
X0106458Y0200702D01*
X0106479Y0200841D01*
X0106505Y0200980D01*
X0106534Y0201118D01*
X0106568Y0201254D01*
X0106605Y0201390D01*
X0106646Y0201525D01*
X0106691Y0201659D01*
X0106740Y0201791D01*
X0106792Y0201922D01*
X0106848Y0202051D01*
X0106908Y0202178D01*
X0106971Y0202304D01*
X0107037Y0202428D01*
X0107108Y0202551D01*
X0107181Y0202671D01*
X0107258Y0202789D01*
X0107338Y0202905D01*
X0107422Y0203018D01*
X0107508Y0203129D01*
X0107598Y0203238D01*
X0107691Y0203344D01*
X0107786Y0203447D01*
X0107885Y0203548D01*
X0107986Y0203646D01*
X0108090Y0203741D01*
X0108197Y0203833D01*
X0108306Y0203922D01*
X0108418Y0204007D01*
X0108532Y0204090D01*
X0108648Y0204170D01*
X0108767Y0204246D01*
X0108888Y0204318D01*
X0109010Y0204388D01*
X0109135Y0204453D01*
X0109261Y0204516D01*
X0109389Y0204574D01*
X0109519Y0204629D01*
X0109650Y0204681D01*
X0109783Y0204728D01*
X0109917Y0204772D01*
X0110052Y0204813D01*
X0110188Y0204849D01*
X0110325Y0204881D01*
X0110463Y0204910D01*
X0110601Y0204935D01*
X0110741Y0204955D01*
X0110881Y0204972D01*
X0111021Y0204985D01*
X0111162Y0204994D01*
X0111302Y0204999D01*
X0111443Y0205000D01*
X0111584Y0204997D01*
X0111725Y0204990D01*
X0111865Y0204979D01*
X0112005Y0204964D01*
X0112145Y0204945D01*
X0112284Y0204923D01*
X0112422Y0204896D01*
X0112560Y0204866D01*
X0112696Y0204831D01*
X0112832Y0204793D01*
X0112966Y0204751D01*
X0113100Y0204705D01*
X0113232Y0204656D01*
X0113362Y0204602D01*
X0113491Y0204545D01*
X0113618Y0204485D01*
X0113744Y0204421D01*
X0113867Y0204353D01*
X0113989Y0204282D01*
X0114109Y0204208D01*
X0114226Y0204130D01*
X0114341Y0204049D01*
X0114454Y0203965D01*
X0114565Y0203878D01*
X0114673Y0203787D01*
X0114778Y0203694D01*
X0114881Y0203597D01*
X0114981Y0203498D01*
X0115078Y0203396D01*
X0115172Y0203291D01*
X0115263Y0203184D01*
X0115351Y0203074D01*
X0115436Y0202962D01*
X0115518Y0202847D01*
X0115597Y0202730D01*
X0115672Y0202611D01*
X0115744Y0202490D01*
X0115812Y0202367D01*
X0115877Y0202242D01*
X0115939Y0202115D01*
X0115996Y0201986D01*
X0116051Y0201856D01*
X0116101Y0201725D01*
X0116148Y0201592D01*
X0116191Y0201458D01*
X0116230Y0201322D01*
X0116265Y0201186D01*
X0116297Y0201049D01*
X0116324Y0200911D01*
X0116348Y0200772D01*
X0116368Y0200632D01*
X0116384Y0200492D01*
X0116396Y0200352D01*
X0116404Y0200211D01*
X0116408Y0200070D01*
X0116408Y0199930D01*
X0116404Y0199789D01*
X0116396Y0199648D01*
X0116384Y0199508D01*
X0116368Y0199368D01*
X0116348Y0199228D01*
X0116324Y0199089D01*
X0116297Y0198951D01*
X0116265Y0198814D01*
X0116230Y0198678D01*
X0116191Y0198542D01*
X0116148Y0198408D01*
X0116101Y0198275D01*
X0116051Y0198144D01*
X0115996Y0198014D01*
X0115939Y0197885D01*
X0115877Y0197758D01*
X0115812Y0197633D01*
X0115744Y0197510D01*
X0115672Y0197389D01*
X0115597Y0197270D01*
X0115518Y0197153D01*
X0115436Y0197038D01*
X0115351Y0196926D01*
X0115263Y0196816D01*
X0115172Y0196709D01*
X0115078Y0196604D01*
X0114981Y0196502D01*
X0114881Y0196403D01*
X0114778Y0196306D01*
X0114673Y0196213D01*
X0114565Y0196122D01*
X0114454Y0196035D01*
X0114341Y0195951D01*
X0114226Y0195870D01*
X0114109Y0195792D01*
X0113989Y0195718D01*
X0113867Y0195647D01*
X0113744Y0195579D01*
X0113618Y0195515D01*
X0113491Y0195455D01*
X0113362Y0195398D01*
X0113232Y0195344D01*
X0113100Y0195295D01*
X0112966Y0195249D01*
X0112832Y0195207D01*
X0112696Y0195169D01*
X0112560Y0195134D01*
X0112422Y0195104D01*
X0112284Y0195077D01*
X0112145Y0195055D01*
X0112005Y0195036D01*
X0111865Y0195021D01*
X0111725Y0195010D01*
X0111584Y0195003D01*
X0111443Y0195000D01*
X0111302Y0195001D01*
X0111162Y0195006D01*
X0111021Y0195015D01*
X0110881Y0195028D01*
X0110741Y0195045D01*
X0110601Y0195065D01*
X0110463Y0195090D01*
X0110325Y0195119D01*
X0110188Y0195151D01*
X0110052Y0195187D01*
X0109917Y0195228D01*
X0109783Y0195272D01*
X0109650Y0195319D01*
X0109519Y0195371D01*
X0109389Y0195426D01*
X0109261Y0195484D01*
X0109135Y0195547D01*
X0109010Y0195612D01*
X0108888Y0195682D01*
X0108767Y0195754D01*
X0108648Y0195830D01*
X0108532Y0195910D01*
X0108418Y0195993D01*
X0108306Y0196078D01*
X0108197Y0196167D01*
X0108090Y0196259D01*
X0107986Y0196354D01*
X0107885Y0196452D01*
X0107786Y0196553D01*
X0107691Y0196656D01*
X0107598Y0196762D01*
X0107508Y0196871D01*
X0107422Y0196982D01*
X0107338Y0197095D01*
X0107258Y0197211D01*
X0107181Y0197329D01*
X0107108Y0197449D01*
X0107037Y0197572D01*
X0106971Y0197696D01*
X0106908Y0197822D01*
X0106848Y0197949D01*
X0106792Y0198078D01*
X0106740Y0198209D01*
X0106691Y0198341D01*
X0106646Y0198475D01*
X0106605Y0198610D01*
X0106568Y0198746D01*
X0106534Y0198882D01*
X0106505Y0199020D01*
X0106479Y0199159D01*
X0106458Y0199298D01*
X0106440Y0199438D01*
X0106426Y0199578D01*
X0106416Y0199718D01*
X0106410Y0199859D01*
X0106408Y0200000D01*
D12*
X0166754Y0131364D02*
X0167772Y0130346D01*
X0169256Y0131557D01*
X0169854Y0131249D01*
X0170701Y0133295D01*
X0170316Y0133512D01*
X0169994Y0133814D01*
X0169753Y0134184D01*
X0169606Y0134600D01*
X0169563Y0135040D01*
X0169626Y0135477D01*
X0169790Y0135887D01*
X0170047Y0136246D01*
X0170383Y0136534D01*
X0170777Y0136734D01*
X0171207Y0136834D01*
X0171649Y0136829D01*
X0172077Y0136719D01*
X0172466Y0136511D01*
X0172795Y0136216D01*
X0173045Y0135852D01*
X0173200Y0135438D01*
X0173253Y0135000D01*
X0173202Y0134569D01*
X0173052Y0134162D01*
X0172811Y0133801D01*
X0172493Y0133507D01*
X0172114Y0133295D01*
X0172962Y0131249D01*
X0173559Y0131557D01*
X0175043Y0130346D01*
X0176061Y0131364D01*
X0174851Y0132848D01*
X0175159Y0133446D01*
X0175364Y0134087D01*
X0177269Y0134280D01*
X0177269Y0135720D01*
X0175364Y0135913D01*
X0175159Y0136554D01*
X0174851Y0137151D01*
X0176061Y0138636D01*
X0175043Y0139653D01*
X0173559Y0138443D01*
X0172961Y0138751D01*
X0172321Y0138956D01*
X0172127Y0140861D01*
X0170688Y0140861D01*
X0170494Y0138956D01*
X0169854Y0138751D01*
X0169256Y0138443D01*
X0167772Y0139653D01*
X0166754Y0138636D01*
X0167964Y0137151D01*
X0167656Y0136554D01*
X0167451Y0135913D01*
X0165546Y0135720D01*
X0165546Y0134280D01*
X0167451Y0134087D01*
X0167656Y0133446D01*
X0167964Y0132848D01*
X0166754Y0131364D01*
X0166848Y0131480D02*
X0169162Y0131480D01*
X0169405Y0131480D02*
X0169949Y0131480D01*
X0170193Y0132069D02*
X0167329Y0132069D01*
X0167809Y0132658D02*
X0170437Y0132658D01*
X0170681Y0133247D02*
X0167759Y0133247D01*
X0167532Y0133836D02*
X0169980Y0133836D01*
X0169668Y0134425D02*
X0165546Y0134425D01*
X0165546Y0135014D02*
X0169566Y0135014D01*
X0169676Y0135603D02*
X0165546Y0135603D01*
X0167541Y0136192D02*
X0170009Y0136192D01*
X0170981Y0136781D02*
X0167774Y0136781D01*
X0167786Y0137370D02*
X0175029Y0137370D01*
X0175042Y0136781D02*
X0171835Y0136781D01*
X0172812Y0136192D02*
X0175275Y0136192D01*
X0175510Y0137959D02*
X0167306Y0137959D01*
X0166825Y0138548D02*
X0169127Y0138548D01*
X0169460Y0138548D02*
X0173355Y0138548D01*
X0173688Y0138548D02*
X0175990Y0138548D01*
X0175559Y0139138D02*
X0174411Y0139138D01*
X0172303Y0139138D02*
X0170513Y0139138D01*
X0170573Y0139727D02*
X0172243Y0139727D01*
X0172183Y0140316D02*
X0170632Y0140316D01*
X0168405Y0139138D02*
X0167256Y0139138D01*
X0173138Y0135603D02*
X0177269Y0135603D01*
X0177269Y0135014D02*
X0173252Y0135014D01*
X0173149Y0134425D02*
X0177269Y0134425D01*
X0175284Y0133836D02*
X0172834Y0133836D01*
X0172134Y0133247D02*
X0175056Y0133247D01*
X0175006Y0132658D02*
X0172378Y0132658D01*
X0172622Y0132069D02*
X0175487Y0132069D01*
X0175967Y0131480D02*
X0173654Y0131480D01*
X0173410Y0131480D02*
X0172866Y0131480D01*
X0174376Y0130891D02*
X0175588Y0130891D01*
X0168439Y0130891D02*
X0167228Y0130891D01*
D13*
G36*
X0075620Y0211599D02*
X0083729Y0225645D01*
X0083864Y0225567D01*
X0075755Y0211521D01*
X0075620Y0211599D01*
G37*
G36*
X0070164Y0214749D02*
X0078273Y0228795D01*
X0078408Y0228717D01*
X0070299Y0214671D01*
X0070164Y0214749D01*
G37*
D14*
G36*
X0070065Y0214261D02*
X0078646Y0229125D01*
X0078781Y0229047D01*
X0070200Y0214183D01*
X0070065Y0214261D01*
G37*
G36*
X0075247Y0211269D02*
X0083828Y0226133D01*
X0083963Y0226055D01*
X0075382Y0211191D01*
X0075247Y0211269D01*
G37*
D15*
G36*
X0074953Y0211074D02*
X0083849Y0226484D01*
X0083985Y0226406D01*
X0075089Y0210996D01*
X0074953Y0211074D01*
G37*
G36*
X0070043Y0213909D02*
X0078939Y0229319D01*
X0079075Y0229241D01*
X0070179Y0213831D01*
X0070043Y0213909D01*
G37*
D16*
G36*
X0070022Y0213558D02*
X0079233Y0229512D01*
X0079368Y0229434D01*
X0070157Y0213480D01*
X0070022Y0213558D01*
G37*
G36*
X0074659Y0210881D02*
X0083870Y0226835D01*
X0084005Y0226757D01*
X0074794Y0210803D01*
X0074659Y0210881D01*
G37*
G36*
X0138755Y0224953D02*
X0147966Y0208999D01*
X0147831Y0208921D01*
X0138620Y0224875D01*
X0138755Y0224953D01*
G37*
G36*
X0143937Y0227945D02*
X0153148Y0211991D01*
X0153013Y0211913D01*
X0143802Y0227867D01*
X0143937Y0227945D01*
G37*
X0111325Y0162992D03*
X0111325Y0157008D03*
D17*
G36*
X0074444Y0210823D02*
X0083813Y0227051D01*
X0083948Y0226973D01*
X0074579Y0210745D01*
X0074444Y0210823D01*
G37*
G36*
X0070080Y0213343D02*
X0079449Y0229571D01*
X0079584Y0229493D01*
X0070215Y0213265D01*
X0070080Y0213343D01*
G37*
D18*
G36*
X0070137Y0213128D02*
X0079663Y0229628D01*
X0079799Y0229550D01*
X0070273Y0213050D01*
X0070137Y0213128D01*
G37*
G36*
X0074229Y0210766D02*
X0083755Y0227266D01*
X0083891Y0227188D01*
X0074365Y0210688D01*
X0074229Y0210766D01*
G37*
G36*
X0138734Y0225305D02*
X0148260Y0208805D01*
X0148124Y0208727D01*
X0138598Y0225227D01*
X0138734Y0225305D01*
G37*
G36*
X0143644Y0228139D02*
X0153170Y0211639D01*
X0153034Y0211561D01*
X0143508Y0228061D01*
X0143644Y0228139D01*
G37*
X0111325Y0162835D03*
X0111325Y0157165D03*
D19*
X0105971Y0157795D03*
X0105813Y0157953D03*
G36*
X0148001Y0219017D02*
X0152960Y0210427D01*
X0152825Y0210349D01*
X0147866Y0218939D01*
X0148001Y0219017D01*
G37*
G36*
X0148059Y0219232D02*
X0153018Y0210642D01*
X0152883Y0210564D01*
X0147924Y0219154D01*
X0148059Y0219232D01*
G37*
G36*
X0075135Y0221153D02*
X0080094Y0229743D01*
X0080229Y0229665D01*
X0075270Y0221075D01*
X0075135Y0221153D01*
G37*
G36*
X0074920Y0221096D02*
X0079879Y0229686D01*
X0080014Y0229608D01*
X0075055Y0221018D01*
X0074920Y0221096D01*
G37*
D20*
G36*
X0073975Y0219458D02*
X0074604Y0220548D01*
X0074739Y0220470D01*
X0074110Y0219380D01*
X0073975Y0219458D01*
G37*
G36*
X0073706Y0216159D02*
X0074335Y0217249D01*
X0074470Y0217171D01*
X0073841Y0216081D01*
X0073706Y0216159D01*
G37*
G36*
X0074052Y0214868D02*
X0074681Y0215958D01*
X0074816Y0215880D01*
X0074187Y0214790D01*
X0074052Y0214868D01*
G37*
G36*
X0074188Y0214789D02*
X0074817Y0215879D01*
X0074952Y0215801D01*
X0074323Y0214711D01*
X0074188Y0214789D01*
G37*
G36*
X0074325Y0214710D02*
X0074954Y0215800D01*
X0075089Y0215722D01*
X0074460Y0214632D01*
X0074325Y0214710D01*
G37*
G36*
X0074461Y0214632D02*
X0075090Y0215722D01*
X0075225Y0215644D01*
X0074596Y0214554D01*
X0074461Y0214632D01*
G37*
G36*
X0074597Y0214553D02*
X0075226Y0215643D01*
X0075361Y0215565D01*
X0074732Y0214475D01*
X0074597Y0214553D01*
G37*
G36*
X0074734Y0214474D02*
X0075363Y0215564D01*
X0075498Y0215486D01*
X0074869Y0214396D01*
X0074734Y0214474D01*
G37*
G36*
X0074870Y0214395D02*
X0075499Y0215485D01*
X0075634Y0215407D01*
X0075005Y0214317D01*
X0074870Y0214395D01*
G37*
G36*
X0076934Y0221750D02*
X0077563Y0222840D01*
X0077698Y0222762D01*
X0077069Y0221672D01*
X0076934Y0221750D01*
G37*
G36*
X0079904Y0221854D02*
X0080533Y0222944D01*
X0080668Y0222866D01*
X0080039Y0221776D01*
X0079904Y0221854D01*
G37*
G36*
X0080167Y0223884D02*
X0080796Y0224974D01*
X0080931Y0224896D01*
X0080302Y0223806D01*
X0080167Y0223884D01*
G37*
G36*
X0080030Y0223963D02*
X0080659Y0225053D01*
X0080794Y0224975D01*
X0080165Y0223885D01*
X0080030Y0223963D01*
G37*
G36*
X0079894Y0224042D02*
X0080523Y0225132D01*
X0080658Y0225054D01*
X0080029Y0223964D01*
X0079894Y0224042D01*
G37*
G36*
X0079758Y0224121D02*
X0080387Y0225211D01*
X0080522Y0225133D01*
X0079893Y0224043D01*
X0079758Y0224121D01*
G37*
G36*
X0142748Y0223077D02*
X0143377Y0221987D01*
X0143242Y0221909D01*
X0142613Y0222999D01*
X0142748Y0223077D01*
G37*
G36*
X0147113Y0220870D02*
X0147742Y0219780D01*
X0147607Y0219702D01*
X0146978Y0220792D01*
X0147113Y0220870D01*
G37*
G36*
X0147539Y0217297D02*
X0148168Y0216207D01*
X0148033Y0216129D01*
X0147404Y0217219D01*
X0147539Y0217297D01*
G37*
G36*
X0146223Y0214537D02*
X0146852Y0213447D01*
X0146717Y0213369D01*
X0146088Y0214459D01*
X0146223Y0214537D01*
G37*
G36*
X0147850Y0213294D02*
X0148479Y0212204D01*
X0148344Y0212126D01*
X0147715Y0213216D01*
X0147850Y0213294D01*
G37*
G36*
X0148259Y0213530D02*
X0148888Y0212440D01*
X0148753Y0212362D01*
X0148124Y0213452D01*
X0148259Y0213530D01*
G37*
G36*
X0149214Y0214081D02*
X0149843Y0212991D01*
X0149708Y0212913D01*
X0149079Y0214003D01*
X0149214Y0214081D01*
G37*
G36*
X0149350Y0214160D02*
X0149979Y0213070D01*
X0149844Y0212992D01*
X0149215Y0214082D01*
X0149350Y0214160D01*
G37*
X0107152Y0161732D03*
X0105262Y0160945D03*
X0105262Y0160472D03*
X0105262Y0159370D03*
X0105262Y0159213D03*
X0108884Y0159213D03*
X0112191Y0157795D03*
X0117388Y0160630D03*
X0117545Y0160787D03*
D21*
G36*
X0070252Y0212697D02*
X0073794Y0218833D01*
X0073930Y0218755D01*
X0070388Y0212619D01*
X0070252Y0212697D01*
G37*
G36*
X0070195Y0212912D02*
X0073737Y0219048D01*
X0073873Y0218970D01*
X0070331Y0212834D01*
X0070195Y0212912D01*
G37*
D22*
G36*
X0073843Y0216080D02*
X0074314Y0216896D01*
X0074449Y0216818D01*
X0073978Y0216002D01*
X0073843Y0216080D01*
G37*
G36*
X0075427Y0216620D02*
X0075898Y0217436D01*
X0076033Y0217358D01*
X0075562Y0216542D01*
X0075427Y0216620D01*
G37*
G36*
X0075564Y0216542D02*
X0076035Y0217358D01*
X0076170Y0217280D01*
X0075699Y0216464D01*
X0075564Y0216542D01*
G37*
G36*
X0075700Y0216463D02*
X0076171Y0217279D01*
X0076306Y0217201D01*
X0075835Y0216385D01*
X0075700Y0216463D01*
G37*
G36*
X0076645Y0218099D02*
X0077116Y0218915D01*
X0077251Y0218837D01*
X0076780Y0218021D01*
X0076645Y0218099D01*
G37*
G36*
X0076508Y0218178D02*
X0076979Y0218994D01*
X0077114Y0218916D01*
X0076643Y0218100D01*
X0076508Y0218178D01*
G37*
G36*
X0076372Y0218257D02*
X0076843Y0219073D01*
X0076978Y0218995D01*
X0076507Y0218179D01*
X0076372Y0218257D01*
G37*
G36*
X0076236Y0218336D02*
X0076707Y0219152D01*
X0076842Y0219074D01*
X0076371Y0218258D01*
X0076236Y0218336D01*
G37*
G36*
X0076099Y0218414D02*
X0076570Y0219230D01*
X0076705Y0219152D01*
X0076234Y0218336D01*
X0076099Y0218414D01*
G37*
G36*
X0075963Y0218493D02*
X0076434Y0219309D01*
X0076569Y0219231D01*
X0076098Y0218415D01*
X0075963Y0218493D01*
G37*
G36*
X0075827Y0218572D02*
X0076298Y0219388D01*
X0076433Y0219310D01*
X0075962Y0218494D01*
X0075827Y0218572D01*
G37*
G36*
X0075690Y0218651D02*
X0076161Y0219467D01*
X0076296Y0219389D01*
X0075825Y0218573D01*
X0075690Y0218651D01*
G37*
G36*
X0075554Y0218729D02*
X0076025Y0219545D01*
X0076160Y0219467D01*
X0075689Y0218651D01*
X0075554Y0218729D01*
G37*
G36*
X0075417Y0218808D02*
X0075888Y0219624D01*
X0076023Y0219546D01*
X0075552Y0218730D01*
X0075417Y0218808D01*
G37*
G36*
X0075281Y0218887D02*
X0075752Y0219703D01*
X0075887Y0219625D01*
X0075416Y0218809D01*
X0075281Y0218887D01*
G37*
G36*
X0075145Y0218966D02*
X0075616Y0219782D01*
X0075751Y0219704D01*
X0075280Y0218888D01*
X0075145Y0218966D01*
G37*
G36*
X0075008Y0219044D02*
X0075479Y0219860D01*
X0075614Y0219782D01*
X0075143Y0218966D01*
X0075008Y0219044D01*
G37*
G36*
X0074872Y0219123D02*
X0075343Y0219939D01*
X0075478Y0219861D01*
X0075007Y0219045D01*
X0074872Y0219123D01*
G37*
G36*
X0074735Y0219202D02*
X0075206Y0220018D01*
X0075341Y0219940D01*
X0074870Y0219124D01*
X0074735Y0219202D01*
G37*
G36*
X0074599Y0219281D02*
X0075070Y0220097D01*
X0075205Y0220019D01*
X0074734Y0219203D01*
X0074599Y0219281D01*
G37*
G36*
X0074463Y0219359D02*
X0074934Y0220175D01*
X0075069Y0220097D01*
X0074598Y0219281D01*
X0074463Y0219359D01*
G37*
G36*
X0074326Y0219438D02*
X0074797Y0220254D01*
X0074932Y0220176D01*
X0074461Y0219360D01*
X0074326Y0219438D01*
G37*
G36*
X0074190Y0219517D02*
X0074661Y0220333D01*
X0074796Y0220255D01*
X0074325Y0219439D01*
X0074190Y0219517D01*
G37*
G36*
X0076781Y0218021D02*
X0077252Y0218837D01*
X0077387Y0218759D01*
X0076916Y0217943D01*
X0076781Y0218021D01*
G37*
G36*
X0076918Y0217942D02*
X0077389Y0218758D01*
X0077524Y0218680D01*
X0077053Y0217864D01*
X0076918Y0217942D01*
G37*
G36*
X0078377Y0221100D02*
X0078848Y0221916D01*
X0078983Y0221838D01*
X0078512Y0221022D01*
X0078377Y0221100D01*
G37*
G36*
X0078241Y0221179D02*
X0078712Y0221995D01*
X0078847Y0221917D01*
X0078376Y0221101D01*
X0078241Y0221179D01*
G37*
G36*
X0078104Y0221257D02*
X0078575Y0222073D01*
X0078710Y0221995D01*
X0078239Y0221179D01*
X0078104Y0221257D01*
G37*
G36*
X0077968Y0221336D02*
X0078439Y0222152D01*
X0078574Y0222074D01*
X0078103Y0221258D01*
X0077968Y0221336D01*
G37*
G36*
X0077832Y0221415D02*
X0078303Y0222231D01*
X0078438Y0222153D01*
X0077967Y0221337D01*
X0077832Y0221415D01*
G37*
G36*
X0077695Y0221493D02*
X0078166Y0222309D01*
X0078301Y0222231D01*
X0077830Y0221415D01*
X0077695Y0221493D01*
G37*
G36*
X0077559Y0221572D02*
X0078030Y0222388D01*
X0078165Y0222310D01*
X0077694Y0221494D01*
X0077559Y0221572D01*
G37*
G36*
X0077422Y0221651D02*
X0077893Y0222467D01*
X0078028Y0222389D01*
X0077557Y0221573D01*
X0077422Y0221651D01*
G37*
G36*
X0079846Y0222070D02*
X0080317Y0222886D01*
X0080452Y0222808D01*
X0079981Y0221992D01*
X0079846Y0222070D01*
G37*
G36*
X0079097Y0224867D02*
X0079568Y0225683D01*
X0079703Y0225605D01*
X0079232Y0224789D01*
X0079097Y0224867D01*
G37*
G36*
X0142769Y0222725D02*
X0143240Y0221909D01*
X0143105Y0221831D01*
X0142634Y0222647D01*
X0142769Y0222725D01*
G37*
G36*
X0142900Y0224073D02*
X0143371Y0223257D01*
X0143236Y0223179D01*
X0142765Y0223995D01*
X0142900Y0224073D01*
G37*
G36*
X0142957Y0224288D02*
X0143428Y0223472D01*
X0143293Y0223394D01*
X0142822Y0224210D01*
X0142957Y0224288D01*
G37*
G36*
X0143094Y0224367D02*
X0143565Y0223551D01*
X0143430Y0223473D01*
X0142959Y0224289D01*
X0143094Y0224367D01*
G37*
G36*
X0143366Y0224525D02*
X0143837Y0223709D01*
X0143702Y0223631D01*
X0143231Y0224447D01*
X0143366Y0224525D01*
G37*
G36*
X0144254Y0222673D02*
X0144725Y0221857D01*
X0144590Y0221779D01*
X0144119Y0222595D01*
X0144254Y0222673D01*
G37*
G36*
X0143929Y0221031D02*
X0144400Y0220215D01*
X0144265Y0220137D01*
X0143794Y0220953D01*
X0143929Y0221031D01*
G37*
G36*
X0143656Y0220873D02*
X0144127Y0220057D01*
X0143992Y0219979D01*
X0143521Y0220795D01*
X0143656Y0220873D01*
G37*
G36*
X0144601Y0219237D02*
X0145072Y0218421D01*
X0144937Y0218343D01*
X0144466Y0219159D01*
X0144601Y0219237D01*
G37*
G36*
X0144737Y0219315D02*
X0145208Y0218499D01*
X0145073Y0218421D01*
X0144602Y0219237D01*
X0144737Y0219315D01*
G37*
G36*
X0144874Y0219394D02*
X0145345Y0218578D01*
X0145210Y0218500D01*
X0144739Y0219316D01*
X0144874Y0219394D01*
G37*
G36*
X0145010Y0219473D02*
X0145481Y0218657D01*
X0145346Y0218579D01*
X0144875Y0219395D01*
X0145010Y0219473D01*
G37*
G36*
X0145147Y0219551D02*
X0145618Y0218735D01*
X0145483Y0218657D01*
X0145012Y0219473D01*
X0145147Y0219551D01*
G37*
G36*
X0145283Y0219630D02*
X0145754Y0218814D01*
X0145619Y0218736D01*
X0145148Y0219552D01*
X0145283Y0219630D01*
G37*
G36*
X0145419Y0219709D02*
X0145890Y0218893D01*
X0145755Y0218815D01*
X0145284Y0219631D01*
X0145419Y0219709D01*
G37*
G36*
X0145556Y0219788D02*
X0146027Y0218972D01*
X0145892Y0218894D01*
X0145421Y0219710D01*
X0145556Y0219788D01*
G37*
G36*
X0145692Y0219866D02*
X0146163Y0219050D01*
X0146028Y0218972D01*
X0145557Y0219788D01*
X0145692Y0219866D01*
G37*
G36*
X0145828Y0219945D02*
X0146299Y0219129D01*
X0146164Y0219051D01*
X0145693Y0219867D01*
X0145828Y0219945D01*
G37*
G36*
X0145965Y0220024D02*
X0146436Y0219208D01*
X0146301Y0219130D01*
X0145830Y0219946D01*
X0145965Y0220024D01*
G37*
G36*
X0146101Y0220103D02*
X0146572Y0219287D01*
X0146437Y0219209D01*
X0145966Y0220025D01*
X0146101Y0220103D01*
G37*
G36*
X0146238Y0220181D02*
X0146709Y0219365D01*
X0146574Y0219287D01*
X0146103Y0220103D01*
X0146238Y0220181D01*
G37*
G36*
X0146374Y0220260D02*
X0146845Y0219444D01*
X0146710Y0219366D01*
X0146239Y0220182D01*
X0146374Y0220260D01*
G37*
G36*
X0146510Y0220339D02*
X0146981Y0219523D01*
X0146846Y0219445D01*
X0146375Y0220261D01*
X0146510Y0220339D01*
G37*
G36*
X0146647Y0220418D02*
X0147118Y0219602D01*
X0146983Y0219524D01*
X0146512Y0220340D01*
X0146647Y0220418D01*
G37*
G36*
X0146783Y0220496D02*
X0147254Y0219680D01*
X0147119Y0219602D01*
X0146648Y0220418D01*
X0146783Y0220496D01*
G37*
G36*
X0146920Y0220575D02*
X0147391Y0219759D01*
X0147256Y0219681D01*
X0146785Y0220497D01*
X0146920Y0220575D01*
G37*
G36*
X0147056Y0220654D02*
X0147527Y0219838D01*
X0147392Y0219760D01*
X0146921Y0220576D01*
X0147056Y0220654D01*
G37*
G36*
X0144465Y0219158D02*
X0144936Y0218342D01*
X0144801Y0218264D01*
X0144330Y0219080D01*
X0144465Y0219158D01*
G37*
G36*
X0144328Y0219079D02*
X0144799Y0218263D01*
X0144664Y0218185D01*
X0144193Y0219001D01*
X0144328Y0219079D01*
G37*
G36*
X0146255Y0216372D02*
X0146726Y0215556D01*
X0146591Y0215478D01*
X0146120Y0216294D01*
X0146255Y0216372D01*
G37*
G36*
X0146391Y0216451D02*
X0146862Y0215635D01*
X0146727Y0215557D01*
X0146256Y0216373D01*
X0146391Y0216451D01*
G37*
G36*
X0146527Y0216530D02*
X0146998Y0215714D01*
X0146863Y0215636D01*
X0146392Y0216452D01*
X0146527Y0216530D01*
G37*
G36*
X0146664Y0216609D02*
X0147135Y0215793D01*
X0147000Y0215715D01*
X0146529Y0216531D01*
X0146664Y0216609D01*
G37*
G36*
X0146800Y0216687D02*
X0147271Y0215871D01*
X0147136Y0215793D01*
X0146665Y0216609D01*
X0146800Y0216687D01*
G37*
G36*
X0146936Y0216766D02*
X0147407Y0215950D01*
X0147272Y0215872D01*
X0146801Y0216688D01*
X0146936Y0216766D01*
G37*
G36*
X0147073Y0216845D02*
X0147544Y0216029D01*
X0147409Y0215951D01*
X0146938Y0216767D01*
X0147073Y0216845D01*
G37*
G36*
X0147209Y0216924D02*
X0147680Y0216108D01*
X0147545Y0216030D01*
X0147074Y0216846D01*
X0147209Y0216924D01*
G37*
G36*
X0147346Y0217002D02*
X0147817Y0216186D01*
X0147682Y0216108D01*
X0147211Y0216924D01*
X0147346Y0217002D01*
G37*
G36*
X0146439Y0214479D02*
X0146910Y0213663D01*
X0146775Y0213585D01*
X0146304Y0214401D01*
X0146439Y0214479D01*
G37*
G36*
X0147793Y0213078D02*
X0148264Y0212262D01*
X0148129Y0212184D01*
X0147658Y0213000D01*
X0147793Y0213078D01*
G37*
X0107152Y0161575D03*
X0108884Y0160787D03*
X0108884Y0160630D03*
X0108884Y0160472D03*
X0108884Y0160315D03*
X0108884Y0160157D03*
X0108884Y0160000D03*
X0108884Y0159842D03*
X0108884Y0159685D03*
X0108884Y0159527D03*
X0112191Y0159527D03*
X0112191Y0159370D03*
X0112191Y0159213D03*
X0112191Y0159055D03*
X0112191Y0158898D03*
X0112191Y0158740D03*
X0112191Y0158583D03*
X0112191Y0158425D03*
X0112191Y0158268D03*
X0112191Y0158110D03*
X0112191Y0157953D03*
X0112191Y0159685D03*
X0112191Y0159842D03*
X0112191Y0160000D03*
X0112191Y0160157D03*
X0112191Y0160315D03*
X0112191Y0160472D03*
X0112191Y0160630D03*
X0112191Y0160787D03*
X0112191Y0160945D03*
X0112191Y0161102D03*
X0114081Y0160787D03*
X0114081Y0160472D03*
X0117388Y0159370D03*
X0117545Y0159213D03*
X0117545Y0159055D03*
X0117545Y0161102D03*
X0105262Y0161102D03*
D23*
X0102349Y0162047D03*
X0102191Y0161890D03*
X0102191Y0161732D03*
X0102191Y0158268D03*
X0102191Y0158110D03*
G36*
X0073584Y0210592D02*
X0075079Y0213182D01*
X0075214Y0213104D01*
X0073719Y0210514D01*
X0073584Y0210592D01*
G37*
G36*
X0073447Y0210671D02*
X0074942Y0213261D01*
X0075077Y0213183D01*
X0073582Y0210593D01*
X0073447Y0210671D01*
G37*
G36*
X0070447Y0212403D02*
X0071942Y0214993D01*
X0072077Y0214915D01*
X0070582Y0212325D01*
X0070447Y0212403D01*
G37*
G36*
X0070310Y0212482D02*
X0071805Y0215072D01*
X0071940Y0214994D01*
X0070445Y0212404D01*
X0070310Y0212482D01*
G37*
G36*
X0072630Y0215870D02*
X0074125Y0218460D01*
X0074260Y0218382D01*
X0072765Y0215792D01*
X0072630Y0215870D01*
G37*
G36*
X0078951Y0227132D02*
X0080446Y0229722D01*
X0080581Y0229644D01*
X0079086Y0227054D01*
X0078951Y0227132D01*
G37*
G36*
X0078814Y0227211D02*
X0080309Y0229801D01*
X0080444Y0229723D01*
X0078949Y0227133D01*
X0078814Y0227211D01*
G37*
G36*
X0081951Y0225400D02*
X0083446Y0227990D01*
X0083581Y0227912D01*
X0082086Y0225322D01*
X0081951Y0225400D01*
G37*
G36*
X0082145Y0225106D02*
X0083640Y0227696D01*
X0083775Y0227618D01*
X0082280Y0225028D01*
X0082145Y0225106D01*
G37*
G36*
X0082087Y0225321D02*
X0083582Y0227911D01*
X0083717Y0227833D01*
X0082222Y0225243D01*
X0082087Y0225321D01*
G37*
G36*
X0139195Y0227026D02*
X0140690Y0224436D01*
X0140555Y0224358D01*
X0139060Y0226948D01*
X0139195Y0227026D01*
G37*
G36*
X0139331Y0227105D02*
X0140826Y0224515D01*
X0140691Y0224437D01*
X0139196Y0227027D01*
X0139331Y0227105D01*
G37*
G36*
X0144951Y0223985D02*
X0146446Y0221395D01*
X0146311Y0221317D01*
X0144816Y0223907D01*
X0144951Y0223985D01*
G37*
G36*
X0151408Y0212802D02*
X0152903Y0210212D01*
X0152768Y0210134D01*
X0151273Y0212724D01*
X0151408Y0212802D01*
G37*
G36*
X0151271Y0212723D02*
X0152766Y0210133D01*
X0152631Y0210055D01*
X0151136Y0212645D01*
X0151271Y0212723D01*
G37*
G36*
X0148271Y0210991D02*
X0149766Y0208401D01*
X0149631Y0208323D01*
X0148136Y0210913D01*
X0148271Y0210991D01*
G37*
G36*
X0147919Y0210970D02*
X0149414Y0208380D01*
X0149279Y0208302D01*
X0147784Y0210892D01*
X0147919Y0210970D01*
G37*
G36*
X0148134Y0210912D02*
X0149629Y0208322D01*
X0149494Y0208244D01*
X0147999Y0210834D01*
X0148134Y0210912D01*
G37*
D24*
G36*
X0075271Y0221074D02*
X0077632Y0225164D01*
X0077767Y0225086D01*
X0075406Y0220996D01*
X0075271Y0221074D01*
G37*
D25*
G36*
X0072200Y0215756D02*
X0073852Y0218618D01*
X0073988Y0218540D01*
X0072336Y0215678D01*
X0072200Y0215756D01*
G37*
G36*
X0070698Y0211895D02*
X0072350Y0214757D01*
X0072486Y0214679D01*
X0070834Y0211817D01*
X0070698Y0211895D01*
G37*
G36*
X0070835Y0211816D02*
X0072487Y0214678D01*
X0072623Y0214600D01*
X0070971Y0211738D01*
X0070835Y0211816D01*
G37*
G36*
X0070971Y0211737D02*
X0072623Y0214599D01*
X0072759Y0214521D01*
X0071107Y0211659D01*
X0070971Y0211737D01*
G37*
G36*
X0072608Y0210792D02*
X0074260Y0213654D01*
X0074396Y0213576D01*
X0072744Y0210714D01*
X0072608Y0210792D01*
G37*
G36*
X0072744Y0210714D02*
X0074396Y0213576D01*
X0074532Y0213498D01*
X0072880Y0210636D01*
X0072744Y0210714D01*
G37*
G36*
X0072880Y0210635D02*
X0074532Y0213497D01*
X0074668Y0213419D01*
X0073016Y0210557D01*
X0072880Y0210635D01*
G37*
G36*
X0081405Y0225716D02*
X0083057Y0228578D01*
X0083193Y0228500D01*
X0081541Y0225638D01*
X0081405Y0225716D01*
G37*
G36*
X0081269Y0225794D02*
X0082921Y0228656D01*
X0083057Y0228578D01*
X0081405Y0225716D01*
X0081269Y0225794D01*
G37*
G36*
X0081542Y0225637D02*
X0083194Y0228499D01*
X0083330Y0228421D01*
X0081678Y0225559D01*
X0081542Y0225637D01*
G37*
G36*
X0079632Y0226739D02*
X0081284Y0229601D01*
X0081420Y0229523D01*
X0079768Y0226661D01*
X0079632Y0226739D01*
G37*
G36*
X0079496Y0226818D02*
X0081148Y0229680D01*
X0081284Y0229602D01*
X0079632Y0226740D01*
X0079496Y0226818D01*
G37*
G36*
X0079360Y0226897D02*
X0081012Y0229759D01*
X0081148Y0229681D01*
X0079496Y0226819D01*
X0079360Y0226897D01*
G37*
G36*
X0139389Y0227320D02*
X0141041Y0224458D01*
X0140905Y0224380D01*
X0139253Y0227242D01*
X0139389Y0227320D01*
G37*
G36*
X0148681Y0211227D02*
X0150333Y0208365D01*
X0150197Y0208287D01*
X0148545Y0211149D01*
X0148681Y0211227D01*
G37*
G36*
X0148817Y0211305D02*
X0150469Y0208443D01*
X0150333Y0208365D01*
X0148681Y0211227D01*
X0148817Y0211305D01*
G37*
G36*
X0148953Y0211384D02*
X0150605Y0208522D01*
X0150469Y0208444D01*
X0148817Y0211306D01*
X0148953Y0211384D01*
G37*
G36*
X0150590Y0212329D02*
X0152242Y0209467D01*
X0152106Y0209389D01*
X0150454Y0212251D01*
X0150590Y0212329D01*
G37*
G36*
X0150726Y0212408D02*
X0152378Y0209546D01*
X0152242Y0209468D01*
X0150590Y0212330D01*
X0150726Y0212408D01*
G37*
G36*
X0150863Y0212486D02*
X0152515Y0209624D01*
X0152379Y0209546D01*
X0150727Y0212408D01*
X0150863Y0212486D01*
G37*
X0120301Y0161732D03*
X0120459Y0161575D03*
X0120616Y0161260D03*
X0120774Y0160787D03*
X0120774Y0160630D03*
X0120616Y0159055D03*
X0120616Y0158898D03*
X0120616Y0158740D03*
X0120459Y0158583D03*
X0102034Y0158740D03*
X0102034Y0158898D03*
X0102034Y0159055D03*
X0102034Y0160945D03*
X0102034Y0161102D03*
X0102034Y0161260D03*
D26*
X0108569Y0158268D03*
G36*
X0147728Y0218860D02*
X0149931Y0215044D01*
X0149796Y0214966D01*
X0147593Y0218782D01*
X0147728Y0218860D01*
G37*
G36*
X0139662Y0227477D02*
X0141865Y0223661D01*
X0141730Y0223583D01*
X0139527Y0227399D01*
X0139662Y0227477D01*
G37*
G36*
X0075408Y0220996D02*
X0077611Y0224812D01*
X0077746Y0224734D01*
X0075543Y0220918D01*
X0075408Y0220996D01*
G37*
D27*
G36*
X0072415Y0215813D02*
X0073989Y0218539D01*
X0074125Y0218461D01*
X0072551Y0215735D01*
X0072415Y0215813D01*
G37*
G36*
X0070504Y0212188D02*
X0072078Y0214914D01*
X0072214Y0214836D01*
X0070640Y0212110D01*
X0070504Y0212188D01*
G37*
G36*
X0070640Y0212110D02*
X0072214Y0214836D01*
X0072350Y0214758D01*
X0070776Y0212032D01*
X0070640Y0212110D01*
G37*
G36*
X0073095Y0210692D02*
X0074669Y0213418D01*
X0074805Y0213340D01*
X0073231Y0210614D01*
X0073095Y0210692D01*
G37*
G36*
X0073231Y0210614D02*
X0074805Y0213340D01*
X0074941Y0213262D01*
X0073367Y0210536D01*
X0073231Y0210614D01*
G37*
G36*
X0081678Y0225558D02*
X0083252Y0228284D01*
X0083388Y0228206D01*
X0081814Y0225480D01*
X0081678Y0225558D01*
G37*
G36*
X0081814Y0225479D02*
X0083388Y0228205D01*
X0083524Y0228127D01*
X0081950Y0225401D01*
X0081814Y0225479D01*
G37*
G36*
X0079223Y0226975D02*
X0080797Y0229701D01*
X0080933Y0229623D01*
X0079359Y0226897D01*
X0079223Y0226975D01*
G37*
G36*
X0079086Y0227054D02*
X0080660Y0229780D01*
X0080796Y0229702D01*
X0079222Y0226976D01*
X0079086Y0227054D01*
G37*
G36*
X0148408Y0211069D02*
X0149982Y0208343D01*
X0149846Y0208265D01*
X0148272Y0210991D01*
X0148408Y0211069D01*
G37*
G36*
X0148544Y0211148D02*
X0150118Y0208422D01*
X0149982Y0208344D01*
X0148408Y0211070D01*
X0148544Y0211148D01*
G37*
G36*
X0150999Y0212565D02*
X0152573Y0209839D01*
X0152437Y0209761D01*
X0150863Y0212487D01*
X0150999Y0212565D01*
G37*
G36*
X0151135Y0212644D02*
X0152709Y0209918D01*
X0152573Y0209840D01*
X0150999Y0212566D01*
X0151135Y0212644D01*
G37*
X0102112Y0161575D03*
X0102112Y0161417D03*
X0102112Y0158583D03*
X0102112Y0158425D03*
X0115183Y0158110D03*
X0120695Y0160945D03*
X0120695Y0161102D03*
X0120538Y0161417D03*
D28*
X0108648Y0158425D03*
G36*
X0147591Y0218782D02*
X0149716Y0215100D01*
X0149581Y0215022D01*
X0147456Y0218704D01*
X0147591Y0218782D01*
G37*
G36*
X0139719Y0227693D02*
X0141844Y0224011D01*
X0141709Y0223933D01*
X0139584Y0227615D01*
X0139719Y0227693D01*
G37*
G36*
X0075680Y0220837D02*
X0077805Y0224519D01*
X0077940Y0224441D01*
X0075815Y0220759D01*
X0075680Y0220837D01*
G37*
G36*
X0075544Y0220916D02*
X0077669Y0224598D01*
X0077804Y0224520D01*
X0075679Y0220838D01*
X0075544Y0220916D01*
G37*
D29*
G36*
X0072845Y0215928D02*
X0074261Y0218382D01*
X0074397Y0218304D01*
X0072981Y0215850D01*
X0072845Y0215928D01*
G37*
G36*
X0073798Y0210650D02*
X0075214Y0213104D01*
X0075350Y0213026D01*
X0073934Y0210572D01*
X0073798Y0210650D01*
G37*
G36*
X0138944Y0226517D02*
X0140360Y0224063D01*
X0140224Y0223985D01*
X0138808Y0226439D01*
X0138944Y0226517D01*
G37*
G36*
X0139001Y0226733D02*
X0140417Y0224279D01*
X0140281Y0224201D01*
X0138865Y0226655D01*
X0139001Y0226733D01*
G37*
G36*
X0139138Y0226811D02*
X0140554Y0224357D01*
X0140418Y0224279D01*
X0139002Y0226733D01*
X0139138Y0226811D01*
G37*
G36*
X0144894Y0223770D02*
X0146310Y0221316D01*
X0146174Y0221238D01*
X0144758Y0223692D01*
X0144894Y0223770D01*
G37*
X0115026Y0158268D03*
D30*
X0108727Y0158583D03*
X0108727Y0158740D03*
G36*
X0147319Y0218624D02*
X0149365Y0215080D01*
X0149229Y0215002D01*
X0147183Y0218546D01*
X0147319Y0218624D01*
G37*
G36*
X0147456Y0218702D02*
X0149502Y0215158D01*
X0149366Y0215080D01*
X0147320Y0218624D01*
X0147456Y0218702D01*
G37*
G36*
X0142489Y0228564D02*
X0144535Y0225020D01*
X0144399Y0224942D01*
X0142353Y0228486D01*
X0142489Y0228564D01*
G37*
G36*
X0139856Y0227771D02*
X0141902Y0224227D01*
X0141766Y0224149D01*
X0139720Y0227693D01*
X0139856Y0227771D01*
G37*
G36*
X0076089Y0220602D02*
X0078135Y0224146D01*
X0078271Y0224068D01*
X0076225Y0220524D01*
X0076089Y0220602D01*
G37*
G36*
X0075953Y0220681D02*
X0077999Y0224225D01*
X0078135Y0224147D01*
X0076089Y0220603D01*
X0075953Y0220681D01*
G37*
G36*
X0075816Y0220759D02*
X0077862Y0224303D01*
X0077998Y0224225D01*
X0075952Y0220681D01*
X0075816Y0220759D01*
G37*
D31*
G36*
X0073061Y0215986D02*
X0074398Y0218302D01*
X0074533Y0218224D01*
X0073196Y0215908D01*
X0073061Y0215986D01*
G37*
G36*
X0062010Y0222612D02*
X0063347Y0224928D01*
X0063482Y0224850D01*
X0062145Y0222534D01*
X0062010Y0222612D01*
G37*
G36*
X0061873Y0222691D02*
X0063210Y0225007D01*
X0063345Y0224929D01*
X0062008Y0222613D01*
X0061873Y0222691D01*
G37*
G36*
X0061737Y0222770D02*
X0063074Y0225086D01*
X0063209Y0225008D01*
X0061872Y0222692D01*
X0061737Y0222770D01*
G37*
G36*
X0061600Y0222849D02*
X0062937Y0225165D01*
X0063072Y0225087D01*
X0061735Y0222771D01*
X0061600Y0222849D01*
G37*
G36*
X0061464Y0222927D02*
X0062801Y0225243D01*
X0062936Y0225165D01*
X0061599Y0222849D01*
X0061464Y0222927D01*
G37*
G36*
X0144836Y0223554D02*
X0146173Y0221238D01*
X0146038Y0221160D01*
X0144701Y0223476D01*
X0144836Y0223554D01*
G37*
G36*
X0155008Y0232020D02*
X0156345Y0229704D01*
X0156210Y0229626D01*
X0154873Y0231942D01*
X0155008Y0232020D01*
G37*
G36*
X0155144Y0232099D02*
X0156481Y0229783D01*
X0156346Y0229705D01*
X0155009Y0232021D01*
X0155144Y0232099D01*
G37*
G36*
X0155281Y0232178D02*
X0156618Y0229862D01*
X0156483Y0229784D01*
X0155146Y0232100D01*
X0155281Y0232178D01*
G37*
G36*
X0155417Y0232257D02*
X0156754Y0229941D01*
X0156619Y0229863D01*
X0155282Y0232179D01*
X0155417Y0232257D01*
G37*
G36*
X0155554Y0232335D02*
X0156891Y0230019D01*
X0156756Y0229941D01*
X0155419Y0232257D01*
X0155554Y0232335D01*
G37*
X0114947Y0158583D03*
X0114947Y0158425D03*
X0122447Y0151185D03*
X0122447Y0151027D03*
X0122447Y0150870D03*
X0122447Y0150713D03*
X0122447Y0150555D03*
D32*
X0114868Y0158740D03*
X0114868Y0158898D03*
X0114868Y0159055D03*
G36*
X0073276Y0216043D02*
X0074535Y0218225D01*
X0074670Y0218147D01*
X0073411Y0215965D01*
X0073276Y0216043D01*
G37*
G36*
X0144641Y0223262D02*
X0145900Y0221080D01*
X0145765Y0221002D01*
X0144506Y0223184D01*
X0144641Y0223262D01*
G37*
G36*
X0144778Y0223340D02*
X0146037Y0221158D01*
X0145902Y0221080D01*
X0144643Y0223262D01*
X0144778Y0223340D01*
G37*
D33*
G36*
X0143152Y0224583D02*
X0143702Y0223629D01*
X0143566Y0223551D01*
X0143016Y0224505D01*
X0143152Y0224583D01*
G37*
G36*
X0141993Y0221550D02*
X0142543Y0220596D01*
X0142407Y0220518D01*
X0141857Y0221472D01*
X0141993Y0221550D01*
G37*
G36*
X0143714Y0221089D02*
X0144264Y0220135D01*
X0144128Y0220057D01*
X0143578Y0221011D01*
X0143714Y0221089D01*
G37*
G36*
X0144219Y0217380D02*
X0144769Y0216426D01*
X0144633Y0216348D01*
X0144083Y0217302D01*
X0144219Y0217380D01*
G37*
G36*
X0147482Y0217082D02*
X0148032Y0216128D01*
X0147896Y0216050D01*
X0147346Y0217004D01*
X0147482Y0217082D01*
G37*
G36*
X0149157Y0213866D02*
X0149707Y0212912D01*
X0149571Y0212834D01*
X0149021Y0213788D01*
X0149157Y0213866D01*
G37*
G36*
X0149566Y0214103D02*
X0150116Y0213149D01*
X0149980Y0213071D01*
X0149430Y0214025D01*
X0149566Y0214103D01*
G37*
G36*
X0154857Y0231025D02*
X0155407Y0230071D01*
X0155271Y0229993D01*
X0154721Y0230947D01*
X0154857Y0231025D01*
G37*
G36*
X0154993Y0231103D02*
X0155543Y0230149D01*
X0155407Y0230071D01*
X0154857Y0231025D01*
X0154993Y0231103D01*
G37*
G36*
X0155129Y0231182D02*
X0155679Y0230228D01*
X0155543Y0230150D01*
X0154993Y0231104D01*
X0155129Y0231182D01*
G37*
G36*
X0155266Y0231261D02*
X0155816Y0230307D01*
X0155680Y0230229D01*
X0155130Y0231183D01*
X0155266Y0231261D01*
G37*
G36*
X0156220Y0231812D02*
X0156770Y0230858D01*
X0156634Y0230780D01*
X0156084Y0231734D01*
X0156220Y0231812D01*
G37*
G36*
X0156357Y0231891D02*
X0156907Y0230937D01*
X0156771Y0230859D01*
X0156221Y0231813D01*
X0156357Y0231891D01*
G37*
G36*
X0156493Y0231969D02*
X0157043Y0231015D01*
X0156907Y0230937D01*
X0156357Y0231891D01*
X0156493Y0231969D01*
G37*
G36*
X0080382Y0223942D02*
X0080932Y0224896D01*
X0081068Y0224818D01*
X0080518Y0223864D01*
X0080382Y0223942D01*
G37*
G36*
X0078881Y0224808D02*
X0079431Y0225762D01*
X0079567Y0225684D01*
X0079017Y0224730D01*
X0078881Y0224808D01*
G37*
G36*
X0078745Y0224887D02*
X0079295Y0225841D01*
X0079431Y0225763D01*
X0078881Y0224809D01*
X0078745Y0224887D01*
G37*
G36*
X0078609Y0224966D02*
X0079159Y0225920D01*
X0079295Y0225842D01*
X0078745Y0224888D01*
X0078609Y0224966D01*
G37*
G36*
X0077070Y0221671D02*
X0077620Y0222625D01*
X0077756Y0222547D01*
X0077206Y0221593D01*
X0077070Y0221671D01*
G37*
G36*
X0077207Y0221593D02*
X0077757Y0222547D01*
X0077893Y0222469D01*
X0077343Y0221515D01*
X0077207Y0221593D01*
G37*
G36*
X0078444Y0218696D02*
X0078994Y0219650D01*
X0079130Y0219572D01*
X0078580Y0218618D01*
X0078444Y0218696D01*
G37*
G36*
X0062948Y0222978D02*
X0063498Y0223932D01*
X0063634Y0223854D01*
X0063084Y0222900D01*
X0062948Y0222978D01*
G37*
G36*
X0062812Y0223057D02*
X0063362Y0224011D01*
X0063498Y0223933D01*
X0062948Y0222979D01*
X0062812Y0223057D01*
G37*
G36*
X0062675Y0223136D02*
X0063225Y0224090D01*
X0063361Y0224012D01*
X0062811Y0223058D01*
X0062675Y0223136D01*
G37*
G36*
X0062539Y0223215D02*
X0063089Y0224169D01*
X0063225Y0224091D01*
X0062675Y0223137D01*
X0062539Y0223215D01*
G37*
G36*
X0061584Y0223766D02*
X0062134Y0224720D01*
X0062270Y0224642D01*
X0061720Y0223688D01*
X0061584Y0223766D01*
G37*
G36*
X0061448Y0223845D02*
X0061998Y0224799D01*
X0062134Y0224721D01*
X0061584Y0223767D01*
X0061448Y0223845D01*
G37*
G36*
X0061312Y0223923D02*
X0061862Y0224877D01*
X0061998Y0224799D01*
X0061448Y0223845D01*
X0061312Y0223923D01*
G37*
X0110695Y0162047D03*
X0108805Y0159370D03*
X0105183Y0159527D03*
X0105183Y0159055D03*
X0114160Y0160630D03*
X0115734Y0161732D03*
X0117467Y0160945D03*
X0122447Y0151815D03*
X0122447Y0151657D03*
X0122447Y0151500D03*
X0122447Y0150398D03*
X0122447Y0150240D03*
X0122447Y0150083D03*
X0122447Y0149925D03*
D34*
X0122447Y0151342D03*
G36*
X0075609Y0213787D02*
X0076789Y0215831D01*
X0076925Y0215753D01*
X0075745Y0213709D01*
X0075609Y0213787D01*
G37*
G36*
X0073490Y0216101D02*
X0074670Y0218145D01*
X0074806Y0218067D01*
X0073626Y0216023D01*
X0073490Y0216101D01*
G37*
G36*
X0061406Y0223142D02*
X0062586Y0225186D01*
X0062722Y0225108D01*
X0061542Y0223064D01*
X0061406Y0223142D01*
G37*
G36*
X0144448Y0222967D02*
X0145628Y0220923D01*
X0145492Y0220845D01*
X0144312Y0222889D01*
X0144448Y0222967D01*
G37*
G36*
X0144584Y0223046D02*
X0145764Y0221002D01*
X0145628Y0220924D01*
X0144448Y0222968D01*
X0144584Y0223046D01*
G37*
G36*
X0155769Y0232278D02*
X0156949Y0230234D01*
X0156813Y0230156D01*
X0155633Y0232200D01*
X0155769Y0232278D01*
G37*
D35*
G36*
X0141786Y0228522D02*
X0143517Y0225524D01*
X0143382Y0225446D01*
X0141651Y0228444D01*
X0141786Y0228522D01*
G37*
G36*
X0141083Y0228480D02*
X0142814Y0225482D01*
X0142679Y0225404D01*
X0140948Y0228402D01*
X0141083Y0228480D01*
G37*
G36*
X0140947Y0228401D02*
X0142678Y0225403D01*
X0142543Y0225325D01*
X0140812Y0228323D01*
X0140947Y0228401D01*
G37*
G36*
X0140810Y0228322D02*
X0142541Y0225324D01*
X0142406Y0225246D01*
X0140675Y0228244D01*
X0140810Y0228322D01*
G37*
G36*
X0140674Y0228243D02*
X0142405Y0225245D01*
X0142270Y0225167D01*
X0140539Y0228165D01*
X0140674Y0228243D01*
G37*
G36*
X0141298Y0228422D02*
X0143029Y0225424D01*
X0142894Y0225346D01*
X0141163Y0228344D01*
X0141298Y0228422D01*
G37*
G36*
X0141434Y0228501D02*
X0143165Y0225503D01*
X0143030Y0225425D01*
X0141299Y0228423D01*
X0141434Y0228501D01*
G37*
G36*
X0141571Y0228579D02*
X0143302Y0225581D01*
X0143167Y0225503D01*
X0141436Y0228501D01*
X0141571Y0228579D01*
G37*
G36*
X0144851Y0224472D02*
X0146582Y0221474D01*
X0146447Y0221396D01*
X0144716Y0224394D01*
X0144851Y0224472D01*
G37*
G36*
X0150453Y0212250D02*
X0152184Y0209252D01*
X0152049Y0209174D01*
X0150318Y0212172D01*
X0150453Y0212250D01*
G37*
G36*
X0150317Y0212171D02*
X0152048Y0209173D01*
X0151913Y0209095D01*
X0150182Y0212093D01*
X0150317Y0212171D01*
G37*
G36*
X0150180Y0212093D02*
X0151911Y0209095D01*
X0151776Y0209017D01*
X0150045Y0212015D01*
X0150180Y0212093D01*
G37*
G36*
X0150044Y0212014D02*
X0151775Y0209016D01*
X0151640Y0208938D01*
X0149909Y0211936D01*
X0150044Y0212014D01*
G37*
G36*
X0149907Y0211935D02*
X0151638Y0208937D01*
X0151503Y0208859D01*
X0149772Y0211857D01*
X0149907Y0211935D01*
G37*
G36*
X0149771Y0211856D02*
X0151502Y0208858D01*
X0151367Y0208780D01*
X0149636Y0211778D01*
X0149771Y0211856D01*
G37*
G36*
X0149635Y0211778D02*
X0151366Y0208780D01*
X0151231Y0208702D01*
X0149500Y0211700D01*
X0149635Y0211778D01*
G37*
G36*
X0149498Y0211699D02*
X0151229Y0208701D01*
X0151094Y0208623D01*
X0149363Y0211621D01*
X0149498Y0211699D01*
G37*
G36*
X0149362Y0211620D02*
X0151093Y0208622D01*
X0150958Y0208544D01*
X0149227Y0211542D01*
X0149362Y0211620D01*
G37*
G36*
X0149226Y0211541D02*
X0150957Y0208543D01*
X0150822Y0208465D01*
X0149091Y0211463D01*
X0149226Y0211541D01*
G37*
G36*
X0149089Y0211463D02*
X0150820Y0208465D01*
X0150685Y0208387D01*
X0148954Y0211385D01*
X0149089Y0211463D01*
G37*
G36*
X0081133Y0225873D02*
X0082864Y0228871D01*
X0082999Y0228793D01*
X0081268Y0225795D01*
X0081133Y0225873D01*
G37*
G36*
X0080997Y0225952D02*
X0082728Y0228950D01*
X0082863Y0228872D01*
X0081132Y0225874D01*
X0080997Y0225952D01*
G37*
G36*
X0080860Y0226031D02*
X0082591Y0229029D01*
X0082726Y0228951D01*
X0080995Y0225953D01*
X0080860Y0226031D01*
G37*
G36*
X0080724Y0226109D02*
X0082455Y0229107D01*
X0082590Y0229029D01*
X0080859Y0226031D01*
X0080724Y0226109D01*
G37*
G36*
X0080587Y0226188D02*
X0082318Y0229186D01*
X0082453Y0229108D01*
X0080722Y0226110D01*
X0080587Y0226188D01*
G37*
G36*
X0080451Y0226267D02*
X0082182Y0229265D01*
X0082317Y0229187D01*
X0080586Y0226189D01*
X0080451Y0226267D01*
G37*
G36*
X0080315Y0226346D02*
X0082046Y0229344D01*
X0082181Y0229266D01*
X0080450Y0226268D01*
X0080315Y0226346D01*
G37*
G36*
X0080178Y0226424D02*
X0081909Y0229422D01*
X0082044Y0229344D01*
X0080313Y0226346D01*
X0080178Y0226424D01*
G37*
G36*
X0080042Y0226503D02*
X0081773Y0229501D01*
X0081908Y0229423D01*
X0080177Y0226425D01*
X0080042Y0226503D01*
G37*
G36*
X0079905Y0226582D02*
X0081636Y0229580D01*
X0081771Y0229502D01*
X0080040Y0226504D01*
X0079905Y0226582D01*
G37*
G36*
X0079769Y0226661D02*
X0081500Y0229659D01*
X0081635Y0229581D01*
X0079904Y0226583D01*
X0079769Y0226661D01*
G37*
G36*
X0071029Y0211522D02*
X0072760Y0214520D01*
X0072895Y0214442D01*
X0071164Y0211444D01*
X0071029Y0211522D01*
G37*
G36*
X0071165Y0211443D02*
X0072896Y0214441D01*
X0073031Y0214363D01*
X0071300Y0211365D01*
X0071165Y0211443D01*
G37*
G36*
X0071302Y0211365D02*
X0073033Y0214363D01*
X0073168Y0214285D01*
X0071437Y0211287D01*
X0071302Y0211365D01*
G37*
G36*
X0071438Y0211286D02*
X0073169Y0214284D01*
X0073304Y0214206D01*
X0071573Y0211208D01*
X0071438Y0211286D01*
G37*
G36*
X0071574Y0211207D02*
X0073305Y0214205D01*
X0073440Y0214127D01*
X0071709Y0211129D01*
X0071574Y0211207D01*
G37*
G36*
X0071711Y0211129D02*
X0073442Y0214127D01*
X0073577Y0214049D01*
X0071846Y0211051D01*
X0071711Y0211129D01*
G37*
G36*
X0071847Y0211050D02*
X0073578Y0214048D01*
X0073713Y0213970D01*
X0071982Y0210972D01*
X0071847Y0211050D01*
G37*
G36*
X0071984Y0210971D02*
X0073715Y0213969D01*
X0073850Y0213891D01*
X0072119Y0210893D01*
X0071984Y0210971D01*
G37*
G36*
X0072120Y0210892D02*
X0073851Y0213890D01*
X0073986Y0213812D01*
X0072255Y0210814D01*
X0072120Y0210892D01*
G37*
G36*
X0072256Y0210814D02*
X0073987Y0213812D01*
X0074122Y0213734D01*
X0072391Y0210736D01*
X0072256Y0210814D01*
G37*
G36*
X0072393Y0210735D02*
X0074124Y0213733D01*
X0074259Y0213655D01*
X0072528Y0210657D01*
X0072393Y0210735D01*
G37*
X0120223Y0161890D03*
X0120695Y0160472D03*
X0120695Y0160315D03*
X0120695Y0159527D03*
X0120695Y0159370D03*
X0120695Y0159213D03*
X0120380Y0158425D03*
X0120223Y0158268D03*
X0115341Y0157953D03*
X0101955Y0159213D03*
X0101955Y0159370D03*
X0101955Y0159527D03*
X0101955Y0159685D03*
X0101955Y0159842D03*
X0101955Y0160000D03*
X0101955Y0160157D03*
X0101955Y0160315D03*
X0101955Y0160472D03*
X0101955Y0160630D03*
X0101955Y0160787D03*
D36*
X0104947Y0160315D03*
X0106994Y0160000D03*
X0106994Y0159842D03*
X0106994Y0159685D03*
X0107152Y0159370D03*
X0107152Y0159213D03*
X0107152Y0161260D03*
X0110616Y0161732D03*
X0110616Y0161890D03*
X0112506Y0162047D03*
X0110459Y0159213D03*
G36*
X0148711Y0213063D02*
X0149025Y0212519D01*
X0148889Y0212441D01*
X0148575Y0212985D01*
X0148711Y0213063D01*
G37*
G36*
X0147960Y0214994D02*
X0148274Y0214450D01*
X0148138Y0214372D01*
X0147824Y0214916D01*
X0147960Y0214994D01*
G37*
G36*
X0148097Y0215072D02*
X0148411Y0214528D01*
X0148275Y0214450D01*
X0147961Y0214994D01*
X0148097Y0215072D01*
G37*
G36*
X0148233Y0215151D02*
X0148547Y0214607D01*
X0148411Y0214529D01*
X0148097Y0215073D01*
X0148233Y0215151D01*
G37*
G36*
X0148427Y0215445D02*
X0148741Y0214901D01*
X0148605Y0214823D01*
X0148291Y0215367D01*
X0148427Y0215445D01*
G37*
G36*
X0148564Y0215524D02*
X0148878Y0214980D01*
X0148742Y0214902D01*
X0148428Y0215446D01*
X0148564Y0215524D01*
G37*
G36*
X0146791Y0214500D02*
X0147105Y0213956D01*
X0146969Y0213878D01*
X0146655Y0214422D01*
X0146791Y0214500D01*
G37*
G36*
X0144649Y0217264D02*
X0144963Y0216720D01*
X0144827Y0216642D01*
X0144513Y0217186D01*
X0144649Y0217264D01*
G37*
G36*
X0144513Y0217186D02*
X0144827Y0216642D01*
X0144691Y0216564D01*
X0144377Y0217108D01*
X0144513Y0217186D01*
G37*
G36*
X0143432Y0218743D02*
X0143746Y0218199D01*
X0143610Y0218121D01*
X0143296Y0218665D01*
X0143432Y0218743D01*
G37*
G36*
X0142402Y0221786D02*
X0142716Y0221242D01*
X0142580Y0221164D01*
X0142266Y0221708D01*
X0142402Y0221786D01*
G37*
G36*
X0142596Y0222080D02*
X0142910Y0221536D01*
X0142774Y0221458D01*
X0142460Y0222002D01*
X0142596Y0222080D01*
G37*
G36*
X0143766Y0222573D02*
X0144080Y0222029D01*
X0143944Y0221951D01*
X0143630Y0222495D01*
X0143766Y0222573D01*
G37*
G36*
X0143902Y0222652D02*
X0144216Y0222108D01*
X0144080Y0222030D01*
X0143766Y0222574D01*
X0143902Y0222652D01*
G37*
G36*
X0146910Y0218388D02*
X0147224Y0217844D01*
X0147088Y0217766D01*
X0146774Y0218310D01*
X0146910Y0218388D01*
G37*
G36*
X0079936Y0224745D02*
X0080250Y0225289D01*
X0080386Y0225211D01*
X0080072Y0224667D01*
X0079936Y0224745D01*
G37*
G36*
X0078776Y0223051D02*
X0079090Y0223595D01*
X0079226Y0223517D01*
X0078912Y0222973D01*
X0078776Y0223051D01*
G37*
G36*
X0078639Y0223130D02*
X0078953Y0223674D01*
X0079089Y0223596D01*
X0078775Y0223052D01*
X0078639Y0223130D01*
G37*
G36*
X0078367Y0223287D02*
X0078681Y0223831D01*
X0078817Y0223753D01*
X0078503Y0223209D01*
X0078367Y0223287D01*
G37*
G36*
X0078230Y0223366D02*
X0078544Y0223910D01*
X0078680Y0223832D01*
X0078366Y0223288D01*
X0078230Y0223366D01*
G37*
G36*
X0077879Y0223387D02*
X0078193Y0223931D01*
X0078329Y0223853D01*
X0078015Y0223309D01*
X0077879Y0223387D01*
G37*
G36*
X0078094Y0223445D02*
X0078408Y0223989D01*
X0078544Y0223911D01*
X0078230Y0223367D01*
X0078094Y0223445D01*
G37*
G36*
X0079652Y0222363D02*
X0079966Y0222907D01*
X0080102Y0222829D01*
X0079788Y0222285D01*
X0079652Y0222363D01*
G37*
G36*
X0078329Y0219127D02*
X0078643Y0219671D01*
X0078779Y0219593D01*
X0078465Y0219049D01*
X0078329Y0219127D01*
G37*
G36*
X0076362Y0220444D02*
X0076676Y0220988D01*
X0076812Y0220910D01*
X0076498Y0220366D01*
X0076362Y0220444D01*
G37*
G36*
X0076225Y0220523D02*
X0076539Y0221067D01*
X0076675Y0220989D01*
X0076361Y0220445D01*
X0076225Y0220523D01*
G37*
D37*
G36*
X0078807Y0221215D02*
X0078963Y0221485D01*
X0079099Y0221407D01*
X0078943Y0221137D01*
X0078807Y0221215D01*
G37*
G36*
X0076130Y0216578D02*
X0076286Y0216848D01*
X0076422Y0216770D01*
X0076266Y0216500D01*
X0076130Y0216578D01*
G37*
G36*
X0075311Y0217051D02*
X0075467Y0217321D01*
X0075603Y0217243D01*
X0075447Y0216973D01*
X0075311Y0217051D01*
G37*
G36*
X0074651Y0217796D02*
X0074807Y0218066D01*
X0074943Y0217988D01*
X0074787Y0217718D01*
X0074651Y0217796D01*
G37*
G36*
X0143541Y0220443D02*
X0143697Y0220173D01*
X0143561Y0220095D01*
X0143405Y0220365D01*
X0143541Y0220443D01*
G37*
G36*
X0144360Y0220915D02*
X0144516Y0220645D01*
X0144380Y0220567D01*
X0144224Y0220837D01*
X0144360Y0220915D01*
G37*
G36*
X0145335Y0221115D02*
X0145491Y0220845D01*
X0145355Y0220767D01*
X0145199Y0221037D01*
X0145335Y0221115D01*
G37*
G36*
X0144056Y0218921D02*
X0144212Y0218651D01*
X0144076Y0218573D01*
X0143920Y0218843D01*
X0144056Y0218921D01*
G37*
G36*
X0143920Y0218843D02*
X0144076Y0218573D01*
X0143940Y0218495D01*
X0143784Y0218765D01*
X0143920Y0218843D01*
G37*
G36*
X0143783Y0218764D02*
X0143939Y0218494D01*
X0143803Y0218416D01*
X0143647Y0218686D01*
X0143783Y0218764D01*
G37*
G36*
X0143647Y0218685D02*
X0143803Y0218415D01*
X0143667Y0218337D01*
X0143511Y0218607D01*
X0143647Y0218685D01*
G37*
G36*
X0146140Y0215942D02*
X0146296Y0215672D01*
X0146160Y0215594D01*
X0146004Y0215864D01*
X0146140Y0215942D01*
G37*
G36*
X0147279Y0214599D02*
X0147435Y0214329D01*
X0147299Y0214251D01*
X0147143Y0214521D01*
X0147279Y0214599D01*
G37*
G36*
X0147415Y0214678D02*
X0147571Y0214408D01*
X0147435Y0214330D01*
X0147279Y0214600D01*
X0147415Y0214678D01*
G37*
G36*
X0147551Y0214757D02*
X0147707Y0214487D01*
X0147571Y0214409D01*
X0147415Y0214679D01*
X0147551Y0214757D01*
G37*
X0112506Y0161890D03*
X0112506Y0161732D03*
X0112506Y0161575D03*
X0112506Y0161417D03*
X0114081Y0161102D03*
X0114081Y0160157D03*
X0113766Y0159213D03*
X0115813Y0160787D03*
X0117545Y0158898D03*
X0108884Y0161102D03*
X0107152Y0160787D03*
X0107152Y0160630D03*
X0107152Y0160472D03*
D38*
X0107073Y0160315D03*
X0107073Y0160157D03*
X0107073Y0159527D03*
X0107230Y0160945D03*
X0107230Y0161102D03*
X0109278Y0162047D03*
X0110538Y0161575D03*
X0110538Y0161417D03*
X0110538Y0161260D03*
X0110538Y0161102D03*
X0110538Y0160945D03*
X0110538Y0160787D03*
X0110538Y0160630D03*
X0110538Y0160472D03*
X0110538Y0160315D03*
X0110538Y0160157D03*
X0110538Y0160000D03*
X0110538Y0159842D03*
X0110538Y0159685D03*
X0110538Y0159527D03*
X0110538Y0159370D03*
X0112427Y0161260D03*
X0113687Y0162047D03*
X0115734Y0161260D03*
X0115734Y0161102D03*
X0115734Y0160945D03*
X0115892Y0160630D03*
X0104868Y0160157D03*
X0104868Y0160000D03*
X0104868Y0159842D03*
X0104868Y0159685D03*
X0122447Y0149610D03*
G36*
X0148926Y0213006D02*
X0149161Y0212598D01*
X0149026Y0212520D01*
X0148791Y0212928D01*
X0148926Y0213006D01*
G37*
G36*
X0149062Y0213084D02*
X0149297Y0212676D01*
X0149162Y0212598D01*
X0148927Y0213006D01*
X0149062Y0213084D01*
G37*
G36*
X0149199Y0213163D02*
X0149434Y0212755D01*
X0149299Y0212677D01*
X0149064Y0213085D01*
X0149199Y0213163D01*
G37*
G36*
X0149335Y0213242D02*
X0149570Y0212834D01*
X0149435Y0212756D01*
X0149200Y0213164D01*
X0149335Y0213242D01*
G37*
G36*
X0148369Y0215230D02*
X0148604Y0214822D01*
X0148469Y0214744D01*
X0148234Y0215152D01*
X0148369Y0215230D01*
G37*
G36*
X0147824Y0214915D02*
X0148059Y0214507D01*
X0147924Y0214429D01*
X0147689Y0214837D01*
X0147824Y0214915D01*
G37*
G36*
X0147687Y0214836D02*
X0147922Y0214428D01*
X0147787Y0214350D01*
X0147552Y0214758D01*
X0147687Y0214836D01*
G37*
G36*
X0147063Y0214658D02*
X0147298Y0214250D01*
X0147163Y0214172D01*
X0146928Y0214580D01*
X0147063Y0214658D01*
G37*
G36*
X0146927Y0214579D02*
X0147162Y0214171D01*
X0147027Y0214093D01*
X0146792Y0214501D01*
X0146927Y0214579D01*
G37*
G36*
X0145085Y0215880D02*
X0145320Y0215472D01*
X0145185Y0215394D01*
X0144950Y0215802D01*
X0145085Y0215880D01*
G37*
G36*
X0144864Y0217207D02*
X0145099Y0216799D01*
X0144964Y0216721D01*
X0144729Y0217129D01*
X0144864Y0217207D01*
G37*
G36*
X0145000Y0217286D02*
X0145235Y0216878D01*
X0145100Y0216800D01*
X0144865Y0217208D01*
X0145000Y0217286D01*
G37*
G36*
X0145137Y0217364D02*
X0145372Y0216956D01*
X0145237Y0216878D01*
X0145002Y0217286D01*
X0145137Y0217364D01*
G37*
G36*
X0145273Y0217443D02*
X0145508Y0217035D01*
X0145373Y0216957D01*
X0145138Y0217365D01*
X0145273Y0217443D01*
G37*
G36*
X0145409Y0217522D02*
X0145644Y0217114D01*
X0145509Y0217036D01*
X0145274Y0217444D01*
X0145409Y0217522D01*
G37*
G36*
X0145546Y0217601D02*
X0145781Y0217193D01*
X0145646Y0217115D01*
X0145411Y0217523D01*
X0145546Y0217601D01*
G37*
G36*
X0145682Y0217679D02*
X0145917Y0217271D01*
X0145782Y0217193D01*
X0145547Y0217601D01*
X0145682Y0217679D01*
G37*
G36*
X0145819Y0217758D02*
X0146054Y0217350D01*
X0145919Y0217272D01*
X0145684Y0217680D01*
X0145819Y0217758D01*
G37*
G36*
X0145955Y0217837D02*
X0146190Y0217429D01*
X0146055Y0217351D01*
X0145820Y0217759D01*
X0145955Y0217837D01*
G37*
G36*
X0146091Y0217915D02*
X0146326Y0217507D01*
X0146191Y0217429D01*
X0145956Y0217837D01*
X0146091Y0217915D01*
G37*
G36*
X0146228Y0217994D02*
X0146463Y0217586D01*
X0146328Y0217508D01*
X0146093Y0217916D01*
X0146228Y0217994D01*
G37*
G36*
X0146364Y0218073D02*
X0146599Y0217665D01*
X0146464Y0217587D01*
X0146229Y0217995D01*
X0146364Y0218073D01*
G37*
G36*
X0146500Y0218152D02*
X0146735Y0217744D01*
X0146600Y0217666D01*
X0146365Y0218074D01*
X0146500Y0218152D01*
G37*
G36*
X0146637Y0218230D02*
X0146872Y0217822D01*
X0146737Y0217744D01*
X0146502Y0218152D01*
X0146637Y0218230D01*
G37*
G36*
X0146773Y0218309D02*
X0147008Y0217901D01*
X0146873Y0217823D01*
X0146638Y0218231D01*
X0146773Y0218309D01*
G37*
G36*
X0144192Y0219001D02*
X0144427Y0218593D01*
X0144292Y0218515D01*
X0144057Y0218923D01*
X0144192Y0219001D01*
G37*
G36*
X0142880Y0219698D02*
X0143115Y0219290D01*
X0142980Y0219212D01*
X0142745Y0219620D01*
X0142880Y0219698D01*
G37*
G36*
X0142344Y0221571D02*
X0142579Y0221163D01*
X0142444Y0221085D01*
X0142209Y0221493D01*
X0142344Y0221571D01*
G37*
G36*
X0142538Y0221865D02*
X0142773Y0221457D01*
X0142638Y0221379D01*
X0142403Y0221787D01*
X0142538Y0221865D01*
G37*
G36*
X0154741Y0230594D02*
X0154976Y0230186D01*
X0154841Y0230108D01*
X0154606Y0230516D01*
X0154741Y0230594D01*
G37*
G36*
X0079879Y0224960D02*
X0080114Y0225368D01*
X0080249Y0225290D01*
X0080014Y0224882D01*
X0079879Y0224960D01*
G37*
G36*
X0079742Y0225039D02*
X0079977Y0225447D01*
X0080112Y0225369D01*
X0079877Y0224961D01*
X0079742Y0225039D01*
G37*
G36*
X0079606Y0225118D02*
X0079841Y0225526D01*
X0079976Y0225448D01*
X0079741Y0225040D01*
X0079606Y0225118D01*
G37*
G36*
X0079470Y0225196D02*
X0079705Y0225604D01*
X0079840Y0225526D01*
X0079605Y0225118D01*
X0079470Y0225196D01*
G37*
G36*
X0078913Y0222972D02*
X0079148Y0223380D01*
X0079283Y0223302D01*
X0079048Y0222894D01*
X0078913Y0222972D01*
G37*
G36*
X0079049Y0222893D02*
X0079284Y0223301D01*
X0079419Y0223223D01*
X0079184Y0222815D01*
X0079049Y0222893D01*
G37*
G36*
X0079185Y0222815D02*
X0079420Y0223223D01*
X0079555Y0223145D01*
X0079320Y0222737D01*
X0079185Y0222815D01*
G37*
G36*
X0079322Y0222736D02*
X0079557Y0223144D01*
X0079692Y0223066D01*
X0079457Y0222658D01*
X0079322Y0222736D01*
G37*
G36*
X0079458Y0222657D02*
X0079693Y0223065D01*
X0079828Y0222987D01*
X0079593Y0222579D01*
X0079458Y0222657D01*
G37*
G36*
X0079595Y0222578D02*
X0079830Y0222986D01*
X0079965Y0222908D01*
X0079730Y0222500D01*
X0079595Y0222578D01*
G37*
G36*
X0079389Y0220333D02*
X0079624Y0220741D01*
X0079759Y0220663D01*
X0079524Y0220255D01*
X0079389Y0220333D01*
G37*
G36*
X0078272Y0219342D02*
X0078507Y0219750D01*
X0078642Y0219672D01*
X0078407Y0219264D01*
X0078272Y0219342D01*
G37*
G36*
X0078135Y0219420D02*
X0078370Y0219828D01*
X0078505Y0219750D01*
X0078270Y0219342D01*
X0078135Y0219420D01*
G37*
G36*
X0077999Y0219499D02*
X0078234Y0219907D01*
X0078369Y0219829D01*
X0078134Y0219421D01*
X0077999Y0219499D01*
G37*
G36*
X0077862Y0219578D02*
X0078097Y0219986D01*
X0078232Y0219908D01*
X0077997Y0219500D01*
X0077862Y0219578D01*
G37*
G36*
X0077726Y0219657D02*
X0077961Y0220065D01*
X0078096Y0219987D01*
X0077861Y0219579D01*
X0077726Y0219657D01*
G37*
G36*
X0077590Y0219735D02*
X0077825Y0220143D01*
X0077960Y0220065D01*
X0077725Y0219657D01*
X0077590Y0219735D01*
G37*
G36*
X0077453Y0219814D02*
X0077688Y0220222D01*
X0077823Y0220144D01*
X0077588Y0219736D01*
X0077453Y0219814D01*
G37*
G36*
X0077317Y0219893D02*
X0077552Y0220301D01*
X0077687Y0220223D01*
X0077452Y0219815D01*
X0077317Y0219893D01*
G37*
G36*
X0077180Y0219972D02*
X0077415Y0220380D01*
X0077550Y0220302D01*
X0077315Y0219894D01*
X0077180Y0219972D01*
G37*
G36*
X0077044Y0220050D02*
X0077279Y0220458D01*
X0077414Y0220380D01*
X0077179Y0219972D01*
X0077044Y0220050D01*
G37*
G36*
X0076908Y0220129D02*
X0077143Y0220537D01*
X0077278Y0220459D01*
X0077043Y0220051D01*
X0076908Y0220129D01*
G37*
G36*
X0076771Y0220208D02*
X0077006Y0220616D01*
X0077141Y0220538D01*
X0076906Y0220130D01*
X0076771Y0220208D01*
G37*
G36*
X0076635Y0220287D02*
X0076870Y0220695D01*
X0077005Y0220617D01*
X0076770Y0220209D01*
X0076635Y0220287D01*
G37*
G36*
X0076499Y0220365D02*
X0076734Y0220773D01*
X0076869Y0220695D01*
X0076634Y0220287D01*
X0076499Y0220365D01*
G37*
G36*
X0077054Y0217863D02*
X0077289Y0218271D01*
X0077424Y0218193D01*
X0077189Y0217785D01*
X0077054Y0217863D01*
G37*
G36*
X0077190Y0217784D02*
X0077425Y0218192D01*
X0077560Y0218114D01*
X0077325Y0217706D01*
X0077190Y0217784D01*
G37*
G36*
X0077327Y0217705D02*
X0077562Y0218113D01*
X0077697Y0218035D01*
X0077462Y0217627D01*
X0077327Y0217705D01*
G37*
G36*
X0077463Y0217626D02*
X0077698Y0218034D01*
X0077833Y0217956D01*
X0077598Y0217548D01*
X0077463Y0217626D01*
G37*
G36*
X0077599Y0217548D02*
X0077834Y0217956D01*
X0077969Y0217878D01*
X0077734Y0217470D01*
X0077599Y0217548D01*
G37*
G36*
X0077736Y0217469D02*
X0077971Y0217877D01*
X0078106Y0217799D01*
X0077871Y0217391D01*
X0077736Y0217469D01*
G37*
G36*
X0077106Y0216378D02*
X0077341Y0216786D01*
X0077476Y0216708D01*
X0077241Y0216300D01*
X0077106Y0216378D01*
G37*
G36*
X0063379Y0223094D02*
X0063614Y0223502D01*
X0063749Y0223424D01*
X0063514Y0223016D01*
X0063379Y0223094D01*
G37*
D39*
G36*
X0063164Y0223037D02*
X0063556Y0223717D01*
X0063692Y0223639D01*
X0063300Y0222959D01*
X0063164Y0223037D01*
G37*
G36*
X0061254Y0224139D02*
X0061646Y0224819D01*
X0061782Y0224741D01*
X0061390Y0224061D01*
X0061254Y0224139D01*
G37*
G36*
X0061118Y0224218D02*
X0061510Y0224898D01*
X0061646Y0224820D01*
X0061254Y0224140D01*
X0061118Y0224218D01*
G37*
G36*
X0073979Y0216001D02*
X0074371Y0216681D01*
X0074507Y0216603D01*
X0074115Y0215923D01*
X0073979Y0216001D01*
G37*
G36*
X0074036Y0215786D02*
X0074428Y0216466D01*
X0074564Y0216388D01*
X0074172Y0215708D01*
X0074036Y0215786D01*
G37*
G36*
X0075369Y0216835D02*
X0075761Y0217515D01*
X0075897Y0217437D01*
X0075505Y0216757D01*
X0075369Y0216835D01*
G37*
G36*
X0075915Y0216520D02*
X0076307Y0217200D01*
X0076443Y0217122D01*
X0076051Y0216442D01*
X0075915Y0216520D01*
G37*
G36*
X0078465Y0219048D02*
X0078857Y0219728D01*
X0078993Y0219650D01*
X0078601Y0218970D01*
X0078465Y0219048D01*
G37*
G36*
X0078513Y0221021D02*
X0078905Y0221701D01*
X0079041Y0221623D01*
X0078649Y0220943D01*
X0078513Y0221021D01*
G37*
G36*
X0079788Y0222285D02*
X0080180Y0222965D01*
X0080316Y0222887D01*
X0079924Y0222207D01*
X0079788Y0222285D01*
G37*
G36*
X0078503Y0223209D02*
X0078895Y0223889D01*
X0079031Y0223811D01*
X0078639Y0223131D01*
X0078503Y0223209D01*
G37*
G36*
X0142130Y0221628D02*
X0142522Y0220948D01*
X0142386Y0220870D01*
X0141994Y0221550D01*
X0142130Y0221628D01*
G37*
G36*
X0142654Y0222295D02*
X0143046Y0221615D01*
X0142910Y0221537D01*
X0142518Y0222217D01*
X0142654Y0222295D01*
G37*
G36*
X0142712Y0222510D02*
X0143104Y0221830D01*
X0142968Y0221752D01*
X0142576Y0222432D01*
X0142712Y0222510D01*
G37*
G36*
X0144039Y0222731D02*
X0144431Y0222051D01*
X0144295Y0221973D01*
X0143903Y0222653D01*
X0144039Y0222731D01*
G37*
G36*
X0143503Y0224603D02*
X0143895Y0223923D01*
X0143759Y0223845D01*
X0143367Y0224525D01*
X0143503Y0224603D01*
G37*
G36*
X0144066Y0221110D02*
X0144458Y0220430D01*
X0144322Y0220352D01*
X0143930Y0221032D01*
X0144066Y0221110D01*
G37*
G36*
X0143520Y0220795D02*
X0143912Y0220115D01*
X0143776Y0220037D01*
X0143384Y0220717D01*
X0143520Y0220795D01*
G37*
G36*
X0146198Y0216158D02*
X0146590Y0215478D01*
X0146454Y0215400D01*
X0146062Y0216080D01*
X0146198Y0216158D01*
G37*
G36*
X0146576Y0214558D02*
X0146968Y0213878D01*
X0146832Y0213800D01*
X0146440Y0214480D01*
X0146576Y0214558D01*
G37*
G36*
X0154799Y0230809D02*
X0155191Y0230129D01*
X0155055Y0230051D01*
X0154663Y0230731D01*
X0154799Y0230809D01*
G37*
G36*
X0156708Y0231911D02*
X0157100Y0231231D01*
X0156964Y0231153D01*
X0156572Y0231833D01*
X0156708Y0231911D01*
G37*
G36*
X0156845Y0231990D02*
X0157237Y0231310D01*
X0157101Y0231232D01*
X0156709Y0231912D01*
X0156845Y0231990D01*
G37*
X0115734Y0161575D03*
X0115734Y0161417D03*
X0114160Y0160945D03*
X0114160Y0160315D03*
X0108805Y0160945D03*
X0107230Y0161417D03*
X0122447Y0152130D03*
X0122447Y0151972D03*
X0122447Y0149768D03*
D40*
X0105341Y0160630D03*
X0105341Y0160787D03*
G36*
X0075143Y0214238D02*
X0075850Y0215464D01*
X0075985Y0215386D01*
X0075278Y0214160D01*
X0075143Y0214238D01*
G37*
G36*
X0075007Y0214317D02*
X0075714Y0215543D01*
X0075849Y0215465D01*
X0075142Y0214239D01*
X0075007Y0214317D01*
G37*
G36*
X0073916Y0214947D02*
X0074623Y0216173D01*
X0074758Y0216095D01*
X0074051Y0214869D01*
X0073916Y0214947D01*
G37*
G36*
X0073779Y0215025D02*
X0074486Y0216251D01*
X0074621Y0216173D01*
X0073914Y0214947D01*
X0073779Y0215025D01*
G37*
G36*
X0144311Y0222888D02*
X0145018Y0221662D01*
X0144883Y0221584D01*
X0144176Y0222810D01*
X0144311Y0222888D01*
G37*
G36*
X0148045Y0213588D02*
X0148752Y0212362D01*
X0148617Y0212284D01*
X0147910Y0213510D01*
X0148045Y0213588D01*
G37*
G36*
X0147908Y0213509D02*
X0148615Y0212283D01*
X0148480Y0212205D01*
X0147773Y0213431D01*
X0147908Y0213509D01*
G37*
D41*
G36*
X0146009Y0214594D02*
X0146795Y0213232D01*
X0146659Y0213154D01*
X0145873Y0214516D01*
X0146009Y0214594D01*
G37*
G36*
X0141778Y0221607D02*
X0142564Y0220245D01*
X0142428Y0220167D01*
X0141642Y0221529D01*
X0141778Y0221607D01*
G37*
G36*
X0142806Y0223292D02*
X0143592Y0221930D01*
X0143456Y0221852D01*
X0142670Y0223214D01*
X0142806Y0223292D01*
G37*
G36*
X0079961Y0221639D02*
X0080747Y0223001D01*
X0080883Y0222923D01*
X0080097Y0221561D01*
X0079961Y0221639D01*
G37*
G36*
X0075279Y0214160D02*
X0076065Y0215522D01*
X0076201Y0215444D01*
X0075415Y0214082D01*
X0075279Y0214160D01*
G37*
X0107152Y0161890D03*
X0115656Y0161890D03*
X0116286Y0160157D03*
X0116286Y0160000D03*
X0115656Y0159370D03*
D42*
X0115419Y0159213D03*
X0116207Y0159685D03*
X0116207Y0159842D03*
X0116364Y0160315D03*
G36*
X0075416Y0214081D02*
X0076281Y0215579D01*
X0076416Y0215501D01*
X0075551Y0214003D01*
X0075416Y0214081D01*
G37*
D43*
G36*
X0079253Y0220412D02*
X0079331Y0220546D01*
X0079465Y0220468D01*
X0079387Y0220334D01*
X0079253Y0220412D01*
G37*
G36*
X0061139Y0224570D02*
X0061217Y0224704D01*
X0061351Y0224626D01*
X0061273Y0224492D01*
X0061139Y0224570D01*
G37*
G36*
X0145299Y0215821D02*
X0145377Y0215687D01*
X0145243Y0215609D01*
X0145165Y0215743D01*
X0145299Y0215821D01*
G37*
G36*
X0157137Y0231796D02*
X0157215Y0231662D01*
X0157081Y0231584D01*
X0157003Y0231718D01*
X0157137Y0231796D01*
G37*
D44*
G36*
X0160154Y0223349D02*
X0161098Y0221713D01*
X0160962Y0221635D01*
X0160018Y0223271D01*
X0160154Y0223349D01*
G37*
G36*
X0142785Y0223644D02*
X0143729Y0222008D01*
X0143593Y0221930D01*
X0142649Y0223566D01*
X0142785Y0223644D01*
G37*
G36*
X0075551Y0214001D02*
X0076495Y0215637D01*
X0076631Y0215559D01*
X0075687Y0213923D01*
X0075551Y0214001D01*
G37*
G36*
X0066336Y0232257D02*
X0067280Y0233893D01*
X0067416Y0233815D01*
X0066472Y0232179D01*
X0066336Y0232257D01*
G37*
X0100026Y0150527D03*
D45*
X0100026Y0150213D03*
X0100026Y0150055D03*
X0100026Y0149898D03*
X0116758Y0160472D03*
X0115656Y0162047D03*
X0107152Y0162047D03*
G36*
X0145715Y0214788D02*
X0146816Y0212880D01*
X0146681Y0212802D01*
X0145580Y0214710D01*
X0145715Y0214788D01*
G37*
G36*
X0159529Y0223170D02*
X0160630Y0221262D01*
X0160495Y0221184D01*
X0159394Y0223092D01*
X0159529Y0223170D01*
G37*
G36*
X0159665Y0223248D02*
X0160766Y0221340D01*
X0160631Y0221262D01*
X0159530Y0223170D01*
X0159665Y0223248D01*
G37*
G36*
X0159802Y0223327D02*
X0160903Y0221419D01*
X0160768Y0221341D01*
X0159667Y0223249D01*
X0159802Y0223327D01*
G37*
G36*
X0079941Y0221288D02*
X0081042Y0223196D01*
X0081177Y0223118D01*
X0080076Y0221210D01*
X0079941Y0221288D01*
G37*
G36*
X0066803Y0231806D02*
X0067904Y0233714D01*
X0068039Y0233636D01*
X0066938Y0231728D01*
X0066803Y0231806D01*
G37*
G36*
X0066667Y0231885D02*
X0067768Y0233793D01*
X0067903Y0233715D01*
X0066802Y0231807D01*
X0066667Y0231885D01*
G37*
G36*
X0066531Y0231963D02*
X0067632Y0233871D01*
X0067767Y0233793D01*
X0066666Y0231885D01*
X0066531Y0231963D01*
G37*
D46*
G36*
X0074013Y0210707D02*
X0083697Y0227481D01*
X0083833Y0227403D01*
X0074149Y0210629D01*
X0074013Y0210707D01*
G37*
D47*
G36*
X0138854Y0224466D02*
X0147593Y0209328D01*
X0147458Y0209250D01*
X0138719Y0224388D01*
X0138854Y0224466D01*
G37*
G36*
X0144310Y0227616D02*
X0153049Y0212478D01*
X0152914Y0212400D01*
X0144175Y0227538D01*
X0144310Y0227616D01*
G37*
X0111325Y0163150D03*
X0111325Y0156850D03*
D48*
X0111325Y0157323D03*
X0111325Y0162677D03*
G36*
X0138713Y0225657D02*
X0148554Y0208611D01*
X0148419Y0208533D01*
X0138578Y0225579D01*
X0138713Y0225657D01*
G37*
G36*
X0143350Y0228334D02*
X0153191Y0211288D01*
X0153056Y0211210D01*
X0143215Y0228256D01*
X0143350Y0228334D01*
G37*
D49*
G36*
X0143134Y0228392D02*
X0153133Y0211072D01*
X0152998Y0210994D01*
X0142999Y0228314D01*
X0143134Y0228392D01*
G37*
G36*
X0138770Y0225872D02*
X0148769Y0208552D01*
X0148634Y0208474D01*
X0138635Y0225794D01*
X0138770Y0225872D01*
G37*
X0111325Y0162520D03*
X0111325Y0157480D03*
D50*
X0111325Y0157638D03*
X0111325Y0162362D03*
G36*
X0138828Y0226087D02*
X0148984Y0208495D01*
X0148848Y0208417D01*
X0138692Y0226009D01*
X0138828Y0226087D01*
G37*
G36*
X0142920Y0228449D02*
X0153076Y0210857D01*
X0152940Y0210779D01*
X0142784Y0228371D01*
X0142920Y0228449D01*
G37*
D51*
G36*
X0142704Y0228507D02*
X0146797Y0221417D01*
X0146662Y0221339D01*
X0142569Y0228429D01*
X0142704Y0228507D01*
G37*
X0117545Y0157795D03*
D52*
X0108490Y0158110D03*
G36*
X0147865Y0218939D02*
X0150147Y0214985D01*
X0150011Y0214907D01*
X0147729Y0218861D01*
X0147865Y0218939D01*
G37*
G36*
X0139526Y0227399D02*
X0141808Y0223445D01*
X0141672Y0223367D01*
X0139390Y0227321D01*
X0139526Y0227399D01*
G37*
D53*
G36*
X0140128Y0227929D02*
X0142017Y0224657D01*
X0141882Y0224579D01*
X0139993Y0227851D01*
X0140128Y0227929D01*
G37*
G36*
X0142274Y0228622D02*
X0144163Y0225350D01*
X0144028Y0225272D01*
X0142139Y0228544D01*
X0142274Y0228622D01*
G37*
X0120538Y0160000D03*
X0120538Y0159842D03*
D54*
X0120616Y0159685D03*
X0120616Y0160157D03*
X0119986Y0162047D03*
X0120144Y0158110D03*
G36*
X0140265Y0228008D02*
X0142075Y0224872D01*
X0141939Y0224794D01*
X0140129Y0227930D01*
X0140265Y0228008D01*
G37*
G36*
X0140401Y0228087D02*
X0142211Y0224951D01*
X0142075Y0224873D01*
X0140265Y0228009D01*
X0140401Y0228087D01*
G37*
G36*
X0140538Y0228165D02*
X0142348Y0225029D01*
X0142212Y0224951D01*
X0140402Y0228087D01*
X0140538Y0228165D01*
G37*
G36*
X0141923Y0228601D02*
X0143733Y0225465D01*
X0143597Y0225387D01*
X0141787Y0228523D01*
X0141923Y0228601D01*
G37*
G36*
X0142138Y0228544D02*
X0143948Y0225408D01*
X0143812Y0225330D01*
X0142002Y0228466D01*
X0142138Y0228544D01*
G37*
D55*
G36*
X0139992Y0227850D02*
X0141959Y0224442D01*
X0141824Y0224364D01*
X0139857Y0227772D01*
X0139992Y0227850D01*
G37*
G36*
X0147046Y0218466D02*
X0149013Y0215058D01*
X0148878Y0214980D01*
X0146911Y0218388D01*
X0147046Y0218466D01*
G37*
G36*
X0147183Y0218545D02*
X0149150Y0215137D01*
X0149015Y0215059D01*
X0147048Y0218467D01*
X0147183Y0218545D01*
G37*
X0108805Y0159055D03*
X0108805Y0158898D03*
X0119829Y0157953D03*
D56*
X0116207Y0159527D03*
X0100104Y0150370D03*
X0100104Y0149740D03*
G36*
X0142843Y0223858D02*
X0143865Y0222088D01*
X0143729Y0222010D01*
X0142707Y0223780D01*
X0142843Y0223858D01*
G37*
G36*
X0159472Y0222954D02*
X0160494Y0221184D01*
X0160358Y0221106D01*
X0159336Y0222876D01*
X0159472Y0222954D01*
G37*
G36*
X0160018Y0223269D02*
X0161040Y0221499D01*
X0160904Y0221421D01*
X0159882Y0223191D01*
X0160018Y0223269D01*
G37*
G36*
X0067018Y0231864D02*
X0068040Y0233634D01*
X0068176Y0233556D01*
X0067154Y0231786D01*
X0067018Y0231864D01*
G37*
G36*
X0066473Y0232179D02*
X0067495Y0233949D01*
X0067631Y0233871D01*
X0066609Y0232101D01*
X0066473Y0232179D01*
G37*
D57*
G36*
X0138886Y0226303D02*
X0149200Y0208437D01*
X0149064Y0208359D01*
X0138750Y0226225D01*
X0138886Y0226303D01*
G37*
X0111325Y0162205D03*
D58*
X0109278Y0161890D03*
X0122447Y0152287D03*
X0136250Y0141815D03*
X0136408Y0140398D03*
X0125935Y0140713D03*
X0125778Y0140713D03*
X0095778Y0137535D03*
X0095620Y0138795D03*
X0087038Y0140527D03*
X0087195Y0265193D03*
X0088455Y0266768D03*
X0088455Y0269445D03*
X0098455Y0268850D03*
X0138455Y0268850D03*
D59*
X0113597Y0254606D03*
X0108675Y0254606D03*
X0108675Y0253622D03*
X0108675Y0252638D03*
X0057876Y0162122D03*
X0058805Y0158598D03*
X0055498Y0157181D03*
X0055498Y0152929D03*
X0051778Y0150307D03*
X0050774Y0152929D03*
X0049120Y0152929D03*
X0049120Y0157181D03*
X0050774Y0157181D03*
X0050199Y0161138D03*
X0047837Y0161138D03*
X0061404Y0155764D03*
X0061404Y0154346D03*
X0061935Y0150307D03*
X0061935Y0148181D03*
X0064061Y0148181D03*
X0065951Y0148181D03*
X0066837Y0152693D03*
X0071797Y0157181D03*
X0073451Y0157181D03*
X0071656Y0161138D03*
X0075593Y0161138D03*
X0065553Y0161138D03*
X0058628Y0148181D03*
X0056975Y0148181D03*
X0056975Y0143929D03*
X0058628Y0143929D03*
X0061935Y0143929D03*
X0065951Y0143929D03*
X0069022Y0143929D03*
X0051778Y0143929D03*
D60*
X0069022Y0150071D03*
D61*
X0069022Y0148653D03*
X0069022Y0148417D03*
X0069022Y0148181D03*
X0069022Y0147945D03*
X0069022Y0147709D03*
X0069022Y0147472D03*
X0069022Y0147236D03*
X0069022Y0147000D03*
X0069022Y0146764D03*
X0069022Y0146527D03*
X0069022Y0146291D03*
X0069022Y0146055D03*
X0069022Y0145819D03*
X0069022Y0145583D03*
X0069022Y0145346D03*
X0069022Y0145110D03*
X0069022Y0144874D03*
X0069022Y0144638D03*
X0069022Y0144401D03*
X0069022Y0144165D03*
X0065715Y0146764D03*
X0061935Y0146764D03*
X0061935Y0147000D03*
X0061935Y0147236D03*
X0061935Y0147472D03*
X0061935Y0147709D03*
X0061935Y0147945D03*
X0061935Y0149362D03*
X0061935Y0149598D03*
X0061935Y0149835D03*
X0061935Y0150071D03*
X0061935Y0146527D03*
X0061935Y0146291D03*
X0061935Y0146055D03*
X0061935Y0145819D03*
X0061935Y0145583D03*
X0061935Y0145346D03*
X0061935Y0145110D03*
X0061935Y0144874D03*
X0061935Y0144638D03*
X0061935Y0144401D03*
X0061935Y0144165D03*
X0059809Y0145583D03*
X0060045Y0146055D03*
X0059809Y0146527D03*
X0056975Y0146291D03*
X0056975Y0146055D03*
X0056975Y0145819D03*
X0054849Y0145819D03*
X0054849Y0146055D03*
X0054849Y0146291D03*
X0051778Y0146291D03*
X0051778Y0146055D03*
X0051778Y0145819D03*
X0051778Y0148181D03*
X0051778Y0148417D03*
X0051778Y0148653D03*
X0051778Y0148890D03*
X0051778Y0149126D03*
X0051778Y0149362D03*
X0051778Y0149598D03*
X0051778Y0149835D03*
X0051955Y0154583D03*
X0051955Y0154819D03*
X0051955Y0155291D03*
X0051955Y0155527D03*
X0049120Y0155527D03*
X0049120Y0155291D03*
X0049120Y0155055D03*
X0049120Y0154819D03*
X0049120Y0154583D03*
X0046758Y0154346D03*
X0055498Y0154346D03*
X0055498Y0154110D03*
X0055498Y0153874D03*
X0055498Y0153638D03*
X0055498Y0153401D03*
X0055498Y0153165D03*
X0055498Y0154583D03*
X0055498Y0154819D03*
X0055498Y0155055D03*
X0055498Y0155291D03*
X0055498Y0155527D03*
X0058805Y0155527D03*
X0058805Y0155291D03*
X0058805Y0155055D03*
X0058805Y0154819D03*
X0058805Y0154583D03*
X0058805Y0154346D03*
X0058805Y0157417D03*
X0058805Y0157653D03*
X0058805Y0157890D03*
X0058805Y0158126D03*
X0058805Y0158362D03*
X0063766Y0155291D03*
X0063766Y0155055D03*
X0063766Y0154819D03*
X0065656Y0155527D03*
X0065656Y0155764D03*
X0068490Y0155527D03*
X0068490Y0154346D03*
X0070616Y0154819D03*
X0070616Y0155055D03*
X0070616Y0155291D03*
X0070616Y0155527D03*
X0073451Y0155527D03*
X0073451Y0155291D03*
X0073451Y0155055D03*
X0073451Y0154819D03*
X0073451Y0152929D03*
X0073451Y0152693D03*
X0073451Y0152457D03*
X0073451Y0152220D03*
X0073451Y0151984D03*
X0073451Y0151748D03*
X0073451Y0151512D03*
X0075577Y0154346D03*
X0075577Y0154583D03*
X0075577Y0154819D03*
X0075577Y0155055D03*
X0078412Y0154346D03*
X0078412Y0156945D03*
X0078412Y0157181D03*
X0078412Y0157417D03*
X0076994Y0159071D03*
D62*
X0075931Y0157653D03*
X0078530Y0154583D03*
X0073569Y0151275D03*
X0065833Y0146527D03*
X0065833Y0146291D03*
X0065833Y0146055D03*
X0065833Y0145819D03*
X0065833Y0145583D03*
X0065833Y0145346D03*
X0065833Y0145110D03*
X0065833Y0144874D03*
X0065833Y0144638D03*
X0065833Y0144401D03*
X0065833Y0144165D03*
X0059927Y0145819D03*
X0059927Y0146291D03*
X0062053Y0149126D03*
X0057979Y0152929D03*
X0053727Y0157181D03*
X0052073Y0155055D03*
X0046876Y0155055D03*
X0046876Y0154819D03*
X0046876Y0154583D03*
X0046876Y0155291D03*
X0046876Y0155527D03*
X0046876Y0155764D03*
X0046876Y0156000D03*
X0046876Y0156236D03*
X0046876Y0156472D03*
X0046876Y0156709D03*
X0046876Y0156945D03*
X0046876Y0157181D03*
X0046876Y0157417D03*
X0046876Y0157653D03*
X0046876Y0157890D03*
X0046876Y0158126D03*
X0046876Y0158362D03*
X0046876Y0158598D03*
X0046876Y0158835D03*
X0046876Y0159071D03*
X0046167Y0152929D03*
X0051896Y0150071D03*
X0053549Y0148181D03*
X0053549Y0143929D03*
D63*
X0069022Y0149126D03*
X0069022Y0149362D03*
X0069022Y0149598D03*
X0069022Y0149835D03*
D64*
X0069022Y0148890D03*
D65*
X0071797Y0152929D03*
X0061935Y0148890D03*
X0058805Y0158835D03*
D66*
X0062230Y0156709D03*
X0062230Y0153401D03*
X0066955Y0153165D03*
X0072624Y0153165D03*
X0076404Y0155527D03*
X0077112Y0158598D03*
X0064888Y0147945D03*
X0064888Y0147709D03*
X0064888Y0147472D03*
X0064888Y0147236D03*
X0064888Y0147000D03*
X0054671Y0156000D03*
D67*
X0054553Y0156236D03*
X0054553Y0156472D03*
X0054553Y0156709D03*
X0054553Y0156945D03*
X0058569Y0156945D03*
X0058569Y0156709D03*
X0058569Y0156472D03*
X0058569Y0156236D03*
X0058569Y0156000D03*
X0062349Y0156472D03*
X0062349Y0153638D03*
X0067073Y0156709D03*
X0072506Y0156945D03*
X0076758Y0155764D03*
X0076994Y0156000D03*
X0077230Y0156236D03*
X0076994Y0153401D03*
X0057919Y0147945D03*
X0057919Y0144165D03*
X0052959Y0144165D03*
X0050065Y0153165D03*
X0050065Y0156945D03*
X0056892Y0163106D03*
D68*
X0062467Y0156236D03*
X0062467Y0156000D03*
X0062467Y0154110D03*
X0062467Y0153874D03*
X0066955Y0153401D03*
X0067191Y0153874D03*
X0067427Y0154583D03*
X0072388Y0153401D03*
X0072388Y0156709D03*
X0077112Y0158362D03*
X0058038Y0147709D03*
X0058038Y0144401D03*
X0052841Y0147945D03*
X0050183Y0153401D03*
X0050183Y0156709D03*
D69*
X0050301Y0156472D03*
X0050301Y0153638D03*
X0052959Y0147709D03*
X0052959Y0144401D03*
X0058156Y0144638D03*
X0058156Y0147472D03*
X0067073Y0153638D03*
X0067073Y0156236D03*
X0067073Y0156472D03*
X0072270Y0156472D03*
X0072270Y0153874D03*
X0072270Y0153638D03*
X0076994Y0153638D03*
X0077230Y0157890D03*
X0076994Y0158126D03*
D70*
X0072152Y0156236D03*
X0072152Y0156000D03*
X0072152Y0154346D03*
X0072152Y0154110D03*
X0077112Y0153874D03*
X0067191Y0154819D03*
X0058274Y0147236D03*
X0058274Y0144874D03*
X0053077Y0144874D03*
X0053077Y0144638D03*
X0053077Y0147236D03*
X0053077Y0147472D03*
X0050419Y0153874D03*
X0050419Y0154110D03*
X0050419Y0156000D03*
X0050419Y0156236D03*
D71*
X0050538Y0155764D03*
X0050538Y0154346D03*
X0053195Y0147000D03*
X0053195Y0146764D03*
X0053195Y0145346D03*
X0053195Y0145110D03*
X0058392Y0145110D03*
X0058392Y0145346D03*
X0058392Y0146764D03*
X0058392Y0147000D03*
X0067073Y0155291D03*
X0067309Y0155055D03*
X0067073Y0156000D03*
X0076994Y0154110D03*
D72*
X0063825Y0146764D03*
X0061404Y0154583D03*
D73*
X0062230Y0152929D03*
X0063412Y0154346D03*
X0063648Y0154583D03*
X0063648Y0155527D03*
X0062230Y0157181D03*
X0058923Y0155764D03*
X0055380Y0155764D03*
X0068372Y0155764D03*
X0070734Y0155764D03*
X0070734Y0154583D03*
X0073333Y0154583D03*
X0078293Y0157653D03*
X0057093Y0146527D03*
X0057093Y0145583D03*
X0054730Y0145583D03*
X0054730Y0146527D03*
X0051896Y0146527D03*
X0051896Y0145583D03*
D74*
X0065774Y0154110D03*
X0075931Y0157417D03*
X0078530Y0154819D03*
X0046876Y0159307D03*
D75*
X0058333Y0154110D03*
X0066837Y0152929D03*
X0076994Y0158835D03*
D76*
X0066955Y0157417D03*
X0061286Y0155527D03*
X0057506Y0155764D03*
X0053490Y0155764D03*
X0077112Y0152693D03*
D77*
X0075931Y0155291D03*
X0078057Y0156709D03*
X0066955Y0157181D03*
X0058215Y0153874D03*
X0058215Y0153638D03*
X0058215Y0153401D03*
X0056695Y0161138D03*
X0046404Y0153874D03*
X0046404Y0153638D03*
D78*
X0058569Y0157181D03*
X0067073Y0156945D03*
X0077467Y0156472D03*
X0076994Y0153165D03*
D79*
X0062230Y0153165D03*
X0062230Y0156945D03*
D80*
X0063530Y0155764D03*
X0068254Y0154110D03*
X0073215Y0155764D03*
X0076994Y0152929D03*
X0058097Y0153165D03*
X0046522Y0154110D03*
X0046286Y0153401D03*
X0046286Y0153165D03*
D81*
X0053841Y0162693D03*
X0073723Y0166079D03*
D82*
X0073723Y0165488D03*
X0074510Y0163716D03*
X0074707Y0163323D03*
X0075494Y0161709D03*
X0075494Y0161551D03*
X0075691Y0161354D03*
X0072738Y0163520D03*
X0071754Y0161551D03*
X0071754Y0161354D03*
X0070179Y0164307D03*
X0070376Y0164504D03*
X0070179Y0164898D03*
X0069195Y0166079D03*
X0067817Y0162535D03*
X0067817Y0162338D03*
X0065652Y0161551D03*
X0065652Y0161354D03*
X0065455Y0161905D03*
X0065455Y0162338D03*
X0065258Y0162535D03*
X0064274Y0164307D03*
X0064077Y0164701D03*
X0062305Y0164504D03*
X0062305Y0164307D03*
X0062305Y0164110D03*
X0062305Y0163913D03*
X0062108Y0164701D03*
X0059746Y0164504D03*
X0059746Y0164307D03*
X0059746Y0164110D03*
X0059746Y0163913D03*
X0057778Y0164110D03*
X0057581Y0164307D03*
X0057975Y0162535D03*
X0057975Y0162338D03*
X0055612Y0162338D03*
X0055612Y0162535D03*
X0053841Y0164504D03*
X0053841Y0164701D03*
X0051872Y0162693D03*
X0051872Y0162535D03*
X0051872Y0162338D03*
X0102081Y0252421D03*
X0102671Y0253838D03*
X0102671Y0254035D03*
X0102671Y0254193D03*
X0102671Y0254390D03*
X0102671Y0254823D03*
X0102671Y0255020D03*
X0102671Y0255216D03*
X0102671Y0255413D03*
X0102671Y0255610D03*
X0102671Y0255807D03*
X0102671Y0256004D03*
X0102671Y0256201D03*
X0102671Y0256398D03*
X0102671Y0256594D03*
X0102671Y0256791D03*
X0102671Y0256988D03*
X0102671Y0257185D03*
X0102671Y0257382D03*
X0102671Y0257579D03*
X0104443Y0254390D03*
X0104443Y0254193D03*
X0104443Y0254035D03*
X0107002Y0254035D03*
X0107002Y0254193D03*
X0107002Y0254390D03*
X0111923Y0254390D03*
X0111923Y0254193D03*
X0111923Y0254035D03*
X0111923Y0253838D03*
X0111923Y0253405D03*
X0111923Y0253209D03*
X0111923Y0253051D03*
X0111923Y0252854D03*
X0117632Y0253838D03*
X0117632Y0254035D03*
X0119994Y0255807D03*
X0120191Y0256004D03*
X0119994Y0256398D03*
X0119010Y0257579D03*
D83*
X0118912Y0257185D03*
X0111234Y0255020D03*
X0069097Y0165685D03*
X0065160Y0166079D03*
X0057089Y0163716D03*
X0056695Y0164898D03*
X0056498Y0165094D03*
X0052758Y0165882D03*
X0049018Y0162338D03*
X0056695Y0161354D03*
X0073624Y0164110D03*
D84*
X0073624Y0165685D03*
X0070278Y0164701D03*
X0068309Y0164898D03*
X0065553Y0161709D03*
X0065553Y0160921D03*
X0061026Y0166079D03*
X0050199Y0164307D03*
X0047837Y0164307D03*
X0105919Y0252421D03*
X0108675Y0252854D03*
X0108675Y0253051D03*
X0108675Y0253209D03*
X0108675Y0253405D03*
X0108675Y0253838D03*
X0108675Y0254035D03*
X0108675Y0254193D03*
X0108675Y0254390D03*
X0108675Y0254823D03*
X0108675Y0255020D03*
X0108675Y0255216D03*
X0108675Y0255413D03*
X0108675Y0255610D03*
X0108675Y0255807D03*
X0108675Y0256791D03*
X0108675Y0256988D03*
X0108675Y0257185D03*
X0108675Y0257382D03*
X0108675Y0257579D03*
X0110447Y0256004D03*
X0113597Y0254823D03*
X0118124Y0256398D03*
X0120093Y0256201D03*
D85*
X0114778Y0256201D03*
X0110250Y0254823D03*
X0108675Y0256594D03*
X0118912Y0252224D03*
X0055711Y0166079D03*
X0069097Y0160724D03*
D86*
X0073723Y0164701D03*
X0060927Y0162693D03*
X0060730Y0162890D03*
X0056203Y0165685D03*
X0052856Y0166079D03*
D87*
X0053841Y0162890D03*
X0062305Y0163716D03*
X0070376Y0162338D03*
X0071754Y0160921D03*
X0073723Y0165882D03*
X0104443Y0252421D03*
X0104443Y0256004D03*
X0106018Y0256004D03*
X0108774Y0256004D03*
X0111923Y0256004D03*
X0111923Y0252421D03*
X0108774Y0252421D03*
X0102671Y0257775D03*
X0120191Y0253838D03*
D88*
X0118912Y0257382D03*
X0114581Y0252421D03*
X0069097Y0165882D03*
X0073624Y0164504D03*
X0061419Y0162338D03*
X0061223Y0162535D03*
X0057286Y0163913D03*
X0056301Y0165488D03*
X0053349Y0164110D03*
X0049018Y0162890D03*
X0049018Y0162535D03*
D89*
X0065061Y0165094D03*
X0065061Y0165291D03*
X0065061Y0165488D03*
X0065061Y0165685D03*
X0065061Y0165882D03*
X0069195Y0161905D03*
X0105624Y0253405D03*
X0105624Y0254823D03*
X0105624Y0255020D03*
X0114876Y0254390D03*
X0114876Y0254193D03*
X0119010Y0253405D03*
X0119010Y0253209D03*
D90*
X0118124Y0254390D03*
X0102376Y0253405D03*
X0102376Y0253209D03*
X0073624Y0164898D03*
X0068309Y0162890D03*
X0061026Y0165882D03*
X0049018Y0162693D03*
D91*
X0050101Y0161551D03*
X0047935Y0161551D03*
X0047935Y0163913D03*
X0050101Y0163913D03*
X0053644Y0164307D03*
X0056006Y0165882D03*
X0057187Y0164701D03*
X0060140Y0163323D03*
X0056793Y0160921D03*
X0053053Y0160921D03*
X0069195Y0160921D03*
X0069982Y0164110D03*
X0073723Y0165094D03*
X0102278Y0252854D03*
X0102278Y0253051D03*
X0114679Y0256004D03*
X0119797Y0255610D03*
X0119010Y0252421D03*
D92*
X0119404Y0255413D03*
X0114679Y0255807D03*
X0060927Y0165685D03*
X0056400Y0165291D03*
X0053250Y0163913D03*
X0069589Y0163913D03*
X0073723Y0164307D03*
D93*
X0073723Y0163913D03*
X0069195Y0163716D03*
X0068998Y0163520D03*
X0068801Y0163323D03*
X0069195Y0161354D03*
X0060927Y0165488D03*
X0053053Y0164898D03*
X0052856Y0165291D03*
X0052856Y0165488D03*
X0052856Y0165685D03*
X0053053Y0163716D03*
X0053053Y0161354D03*
X0114679Y0252854D03*
X0114679Y0255610D03*
X0111136Y0255610D03*
X0111136Y0255413D03*
X0111136Y0255216D03*
X0111136Y0255807D03*
X0118616Y0254823D03*
X0118813Y0255020D03*
X0119010Y0255216D03*
X0119010Y0252854D03*
D94*
X0118912Y0256988D03*
X0114778Y0255413D03*
X0114778Y0253051D03*
X0105329Y0255807D03*
X0069097Y0165488D03*
X0061026Y0165291D03*
X0057089Y0163520D03*
X0056695Y0161551D03*
X0053152Y0161551D03*
X0053152Y0163520D03*
X0052955Y0165094D03*
X0049018Y0163323D03*
D95*
X0050199Y0164110D03*
X0051971Y0162890D03*
X0050199Y0161354D03*
X0047837Y0161354D03*
X0047837Y0164110D03*
X0055711Y0162693D03*
X0057876Y0162693D03*
X0057482Y0164504D03*
X0059845Y0164701D03*
X0059845Y0163716D03*
X0060041Y0163520D03*
X0064175Y0164504D03*
X0064372Y0164110D03*
X0064569Y0163913D03*
X0064569Y0163716D03*
X0064766Y0163520D03*
X0064963Y0163323D03*
X0065160Y0162890D03*
X0065160Y0162693D03*
X0067916Y0162693D03*
X0072640Y0163323D03*
X0072837Y0163716D03*
X0073624Y0165291D03*
X0074608Y0163520D03*
X0104541Y0253838D03*
X0106904Y0253838D03*
X0111825Y0254823D03*
X0115959Y0254823D03*
X0115762Y0253405D03*
X0117730Y0254193D03*
D96*
X0119010Y0253051D03*
X0119010Y0256594D03*
X0119010Y0256791D03*
X0115073Y0253838D03*
X0114876Y0253209D03*
X0105427Y0252854D03*
X0105427Y0255610D03*
X0069195Y0165291D03*
X0069195Y0165094D03*
X0069195Y0161551D03*
X0056990Y0163323D03*
X0056793Y0161709D03*
X0053053Y0161709D03*
X0053053Y0161905D03*
X0053053Y0163323D03*
D97*
X0056892Y0162890D03*
X0056695Y0161905D03*
X0060829Y0160921D03*
X0061026Y0164898D03*
X0061026Y0165094D03*
X0064963Y0164898D03*
X0049018Y0163716D03*
X0049018Y0163520D03*
X0049018Y0161905D03*
X0049018Y0161709D03*
X0105526Y0253051D03*
X0105526Y0253209D03*
X0105526Y0255216D03*
X0105526Y0255413D03*
X0114778Y0255216D03*
X0114778Y0255020D03*
X0114975Y0254035D03*
D98*
X0113695Y0253405D03*
X0118026Y0256201D03*
X0120191Y0254035D03*
X0068211Y0164701D03*
X0070376Y0162535D03*
X0056793Y0160724D03*
X0054038Y0162338D03*
X0053053Y0160724D03*
D99*
X0050199Y0160921D03*
X0047837Y0160921D03*
X0047837Y0164504D03*
X0050199Y0164504D03*
X0075593Y0160921D03*
X0114581Y0252224D03*
X0108675Y0257775D03*
D100*
X0106904Y0254606D03*
X0104541Y0254606D03*
X0102179Y0252638D03*
X0115959Y0253622D03*
X0120093Y0253622D03*
X0074805Y0163106D03*
X0070278Y0162122D03*
X0064963Y0163106D03*
X0051971Y0162122D03*
D101*
X0055612Y0162122D03*
X0065455Y0162122D03*
X0068014Y0162122D03*
X0072541Y0163106D03*
X0102671Y0253622D03*
X0102671Y0254606D03*
X0111923Y0254606D03*
X0111923Y0253622D03*
X0111923Y0252638D03*
X0116057Y0254606D03*
X0117829Y0253622D03*
D102*
X0118419Y0254606D03*
X0119010Y0252638D03*
X0068604Y0163106D03*
X0069195Y0161138D03*
X0053053Y0161138D03*
D103*
X0060435Y0163106D03*
D104*
X0052955Y0163106D03*
X0049018Y0162122D03*
X0105329Y0252638D03*
D105*
X0114581Y0252638D03*
X0049018Y0163106D03*
D106*
X0060829Y0161905D03*
X0073624Y0162890D03*
D107*
X0073723Y0162693D03*
X0060927Y0161709D03*
X0060927Y0161551D03*
X0060927Y0161354D03*
D108*
X0073624Y0162535D03*
D109*
X0073723Y0162338D03*
D110*
X0073624Y0162122D03*
D111*
X0061124Y0162122D03*
D112*
X0054038Y0162122D03*
D113*
X0073723Y0161905D03*
D114*
X0069982Y0161709D03*
D115*
X0060829Y0161138D03*
D116*
X0084045Y0138323D03*
X0084203Y0136748D03*
X0087195Y0138008D03*
X0094518Y0138008D03*
X0096723Y0138323D03*
X0096880Y0138323D03*
X0097353Y0143677D03*
X0104833Y0138508D03*
X0106723Y0137878D03*
X0107353Y0138193D03*
X0107667Y0138350D03*
X0107825Y0138508D03*
X0107353Y0140555D03*
X0108297Y0141972D03*
X0114518Y0141657D03*
X0118297Y0138035D03*
X0115463Y0136618D03*
X0105463Y0136618D03*
X0125463Y0136775D03*
X0125620Y0136775D03*
X0127038Y0136618D03*
X0127195Y0136775D03*
X0128297Y0138193D03*
X0126723Y0138665D03*
X0126723Y0140713D03*
X0126880Y0140713D03*
X0128297Y0143232D03*
X0127038Y0144492D03*
X0127195Y0144650D03*
X0125620Y0144650D03*
X0125463Y0144650D03*
X0135463Y0144964D03*
X0137195Y0144964D03*
X0137510Y0141342D03*
X0135148Y0140870D03*
X0137353Y0137248D03*
X0136723Y0136618D03*
X0101620Y0262303D03*
X0101463Y0262303D03*
X0103353Y0262461D03*
X0104455Y0263405D03*
X0103353Y0264350D03*
X0103195Y0264350D03*
X0103038Y0264350D03*
X0101620Y0264508D03*
X0101463Y0264508D03*
X0101305Y0264350D03*
X0102250Y0266555D03*
X0102408Y0266555D03*
X0102565Y0266398D03*
X0102723Y0266398D03*
X0102880Y0266240D03*
X0103038Y0266240D03*
X0103195Y0266083D03*
X0103353Y0266083D03*
X0103510Y0265925D03*
X0103667Y0265925D03*
X0103825Y0265768D03*
X0103982Y0265768D03*
X0104140Y0265768D03*
X0102093Y0266713D03*
X0101935Y0266713D03*
X0101935Y0267972D03*
X0102093Y0268130D03*
X0102250Y0268130D03*
X0102408Y0268287D03*
X0102565Y0268287D03*
X0102723Y0268445D03*
X0102880Y0268445D03*
X0103195Y0268602D03*
X0103510Y0268760D03*
X0103825Y0268917D03*
X0103982Y0268917D03*
X0103353Y0270335D03*
X0104455Y0271279D03*
X0103353Y0272224D03*
X0103195Y0272224D03*
X0103038Y0272224D03*
X0101620Y0272382D03*
X0101463Y0272382D03*
X0101305Y0272224D03*
X0101463Y0270177D03*
X0101620Y0270177D03*
X0100675Y0267342D03*
X0100518Y0267342D03*
X0098140Y0266331D03*
X0097982Y0266331D03*
X0097982Y0268850D03*
X0097825Y0268850D03*
X0097667Y0268850D03*
X0097510Y0268850D03*
X0097353Y0268850D03*
X0097195Y0268850D03*
X0097038Y0268850D03*
X0096880Y0268850D03*
X0096723Y0268850D03*
X0096565Y0268850D03*
X0096408Y0268850D03*
X0096408Y0270268D03*
X0096565Y0270268D03*
X0096723Y0270268D03*
X0097038Y0270425D03*
X0096250Y0270268D03*
X0096093Y0270268D03*
X0095935Y0270268D03*
X0095778Y0270425D03*
X0095620Y0270425D03*
X0094518Y0268850D03*
X0098140Y0268850D03*
X0087982Y0269445D03*
X0087825Y0269445D03*
X0087667Y0269445D03*
X0087510Y0269445D03*
X0087353Y0269445D03*
X0087195Y0269445D03*
X0087038Y0269445D03*
X0086880Y0269445D03*
X0086723Y0269445D03*
X0086565Y0269445D03*
X0086408Y0269445D03*
X0086250Y0269445D03*
X0086250Y0270862D03*
X0086093Y0270862D03*
X0085935Y0270862D03*
X0085778Y0270862D03*
X0085620Y0270862D03*
X0085463Y0270862D03*
X0086408Y0270862D03*
X0086565Y0270862D03*
X0086723Y0270862D03*
X0086880Y0270862D03*
X0087038Y0270862D03*
X0087195Y0270862D03*
X0087353Y0270862D03*
X0086880Y0273382D03*
X0086723Y0273382D03*
X0086408Y0273539D03*
X0085935Y0273382D03*
X0085778Y0273382D03*
X0086408Y0268027D03*
X0086408Y0266768D03*
X0086250Y0266768D03*
X0086093Y0266768D03*
X0085935Y0266768D03*
X0085778Y0266768D03*
X0085620Y0266768D03*
X0085463Y0266768D03*
X0085305Y0266768D03*
X0085148Y0266768D03*
X0084990Y0266768D03*
X0084833Y0266768D03*
X0084675Y0266768D03*
X0084518Y0266768D03*
X0085463Y0265350D03*
X0085620Y0265350D03*
X0085778Y0265350D03*
X0085620Y0262831D03*
X0085935Y0262673D03*
X0086093Y0262673D03*
X0086250Y0262673D03*
X0086408Y0262673D03*
X0086565Y0262673D03*
X0086723Y0262673D03*
X0086880Y0262673D03*
X0088455Y0264248D03*
X0088140Y0266768D03*
X0110175Y0267035D03*
X0110490Y0266878D03*
X0110805Y0266720D03*
X0112065Y0266878D03*
X0112223Y0266878D03*
X0112695Y0266878D03*
X0113640Y0268295D03*
X0113640Y0271130D03*
X0113482Y0272547D03*
X0113325Y0272547D03*
X0113167Y0272547D03*
X0113010Y0272547D03*
X0112853Y0272547D03*
X0112695Y0272547D03*
X0112538Y0272547D03*
X0112380Y0272547D03*
X0112223Y0272547D03*
X0112065Y0272547D03*
X0111908Y0272547D03*
X0111750Y0272547D03*
X0111593Y0272547D03*
X0111435Y0272547D03*
X0111278Y0272547D03*
X0111120Y0272547D03*
X0110963Y0272547D03*
X0110805Y0272547D03*
X0110648Y0272547D03*
X0110490Y0272547D03*
X0110333Y0272547D03*
X0110175Y0272547D03*
X0110175Y0271130D03*
X0110175Y0268295D03*
X0124675Y0269260D03*
X0125620Y0270520D03*
X0125935Y0270362D03*
X0126093Y0270362D03*
X0126250Y0270362D03*
X0126408Y0270362D03*
X0126565Y0270362D03*
X0126723Y0270362D03*
X0126880Y0270362D03*
X0127038Y0270520D03*
X0128140Y0269260D03*
X0128140Y0266425D03*
X0124675Y0266425D03*
X0125778Y0273354D03*
X0125935Y0273354D03*
X0126250Y0273512D03*
X0126408Y0273512D03*
X0126565Y0273512D03*
X0126723Y0273354D03*
X0126880Y0273354D03*
X0134518Y0268850D03*
X0136408Y0268850D03*
X0136565Y0268850D03*
X0136723Y0268850D03*
X0136880Y0268850D03*
X0137038Y0268850D03*
X0137195Y0268850D03*
X0137353Y0268850D03*
X0137510Y0268850D03*
X0137667Y0268850D03*
X0137825Y0268850D03*
X0137982Y0268850D03*
X0138140Y0268850D03*
X0137038Y0270425D03*
X0136723Y0270268D03*
X0136565Y0270268D03*
X0136408Y0270268D03*
X0136250Y0270268D03*
X0136093Y0270268D03*
X0135935Y0270268D03*
X0135778Y0270425D03*
X0135620Y0270425D03*
X0137982Y0266331D03*
X0138140Y0266331D03*
D117*
X0138455Y0266252D03*
X0134203Y0271921D03*
X0113955Y0272468D03*
X0104455Y0268838D03*
X0104455Y0265846D03*
X0098455Y0266252D03*
X0094203Y0271921D03*
X0084203Y0264169D03*
X0127510Y0144728D03*
X0116565Y0144256D03*
X0116408Y0144256D03*
X0115620Y0138429D03*
X0127510Y0136854D03*
X0136093Y0140476D03*
X0136250Y0140476D03*
X0136408Y0141736D03*
X0107825Y0142209D03*
X0107667Y0142209D03*
X0104990Y0142209D03*
X0104833Y0142209D03*
X0106093Y0138272D03*
X0097195Y0139819D03*
X0097038Y0139819D03*
X0096880Y0139819D03*
X0095778Y0138716D03*
X0095620Y0137614D03*
X0095463Y0137614D03*
X0087195Y0140449D03*
X0086880Y0140606D03*
X0086723Y0138087D03*
X0086565Y0138087D03*
X0086408Y0138087D03*
X0086250Y0138087D03*
X0086093Y0138087D03*
X0084833Y0138087D03*
X0084675Y0138087D03*
X0084518Y0138087D03*
X0084360Y0138244D03*
D118*
X0087353Y0138008D03*
X0085935Y0141000D03*
X0094045Y0140370D03*
X0095935Y0142890D03*
X0096093Y0142890D03*
X0096250Y0142890D03*
X0096408Y0142890D03*
X0096565Y0142890D03*
X0096723Y0142890D03*
X0088612Y0144779D03*
X0108140Y0138665D03*
X0114360Y0141500D03*
X0116250Y0140398D03*
X0116408Y0140398D03*
X0116565Y0140398D03*
X0117667Y0142602D03*
X0114990Y0144177D03*
X0124990Y0142287D03*
X0125148Y0142287D03*
X0127510Y0140713D03*
X0125148Y0139138D03*
X0124990Y0139138D03*
X0124990Y0134413D03*
X0125148Y0134413D03*
X0125305Y0134413D03*
X0125463Y0134413D03*
X0125620Y0134413D03*
X0135935Y0134256D03*
X0136093Y0134256D03*
X0136250Y0134256D03*
X0136408Y0134256D03*
X0136565Y0134256D03*
X0136723Y0134256D03*
X0136880Y0134256D03*
X0134518Y0141027D03*
X0135778Y0147799D03*
X0135935Y0147799D03*
X0136093Y0147799D03*
X0136250Y0147799D03*
X0136408Y0147799D03*
X0136565Y0147799D03*
X0136723Y0147799D03*
X0136880Y0147799D03*
X0137038Y0147799D03*
X0127510Y0147012D03*
X0127353Y0147012D03*
X0127195Y0147012D03*
X0127038Y0147012D03*
X0125935Y0147012D03*
X0125778Y0147012D03*
X0125620Y0147012D03*
X0125463Y0147012D03*
X0125305Y0147012D03*
X0125148Y0147012D03*
X0124990Y0147012D03*
X0105148Y0134256D03*
X0098927Y0134543D03*
X0098140Y0134543D03*
X0097195Y0134543D03*
X0097038Y0134543D03*
X0096880Y0134543D03*
X0096723Y0134543D03*
X0096565Y0134543D03*
X0096408Y0134543D03*
X0096250Y0134543D03*
X0096093Y0134543D03*
X0095935Y0134543D03*
X0095778Y0134543D03*
X0095620Y0134543D03*
X0095463Y0134543D03*
X0095305Y0134543D03*
X0095148Y0134543D03*
X0094990Y0134543D03*
X0094833Y0134543D03*
X0094675Y0134543D03*
X0094518Y0134543D03*
X0094360Y0134543D03*
X0094203Y0134543D03*
X0088927Y0134386D03*
X0088140Y0134386D03*
X0084360Y0264248D03*
X0086565Y0264878D03*
X0086723Y0264878D03*
X0087353Y0267083D03*
X0085305Y0269130D03*
X0095305Y0268535D03*
X0095463Y0268535D03*
X0097195Y0266646D03*
X0101305Y0267342D03*
X0102250Y0263878D03*
X0102408Y0263720D03*
X0102565Y0263720D03*
X0102723Y0263878D03*
X0104297Y0263405D03*
X0104297Y0271279D03*
X0102723Y0271752D03*
X0102565Y0271594D03*
X0102408Y0271594D03*
X0102250Y0271752D03*
X0098297Y0271842D03*
X0111750Y0269713D03*
X0112065Y0269713D03*
X0124360Y0271937D03*
X0128297Y0271937D03*
X0126565Y0267842D03*
X0126250Y0267842D03*
X0135305Y0268535D03*
X0135463Y0268535D03*
X0137195Y0266646D03*
X0138297Y0271842D03*
D119*
X0138455Y0271842D03*
X0137353Y0272787D03*
X0128297Y0269260D03*
X0134360Y0268850D03*
X0134360Y0266173D03*
X0113797Y0271130D03*
X0109860Y0272547D03*
X0104297Y0268917D03*
X0101778Y0270177D03*
X0098455Y0271842D03*
X0097353Y0272787D03*
X0094360Y0268850D03*
X0094360Y0266173D03*
X0088297Y0266768D03*
X0084360Y0266768D03*
X0084360Y0269445D03*
X0101778Y0262303D03*
X0104297Y0265768D03*
X0097195Y0143677D03*
X0096408Y0138480D03*
X0094990Y0137850D03*
X0094833Y0137850D03*
X0087038Y0138008D03*
X0085620Y0138323D03*
X0084833Y0139425D03*
X0086565Y0139425D03*
X0086565Y0136590D03*
X0085778Y0136590D03*
X0084833Y0136590D03*
X0084675Y0136590D03*
X0104990Y0138508D03*
X0105148Y0138508D03*
X0106565Y0138035D03*
X0105305Y0140555D03*
X0107195Y0141972D03*
X0114675Y0138193D03*
X0116565Y0138193D03*
X0117510Y0138193D03*
X0118140Y0138193D03*
X0116565Y0142602D03*
X0116408Y0142602D03*
X0125305Y0144650D03*
X0127353Y0144650D03*
X0128140Y0143232D03*
X0127353Y0142917D03*
X0127195Y0142917D03*
X0126565Y0140713D03*
X0126408Y0140713D03*
X0127038Y0138665D03*
X0128140Y0138193D03*
X0127353Y0136775D03*
X0125305Y0136775D03*
X0135305Y0137248D03*
X0137353Y0138823D03*
X0138140Y0138823D03*
X0137038Y0141500D03*
X0135620Y0140713D03*
X0135463Y0140713D03*
X0134360Y0143075D03*
D120*
X0135148Y0147642D03*
X0135305Y0147642D03*
X0137510Y0147642D03*
X0127982Y0146854D03*
X0126565Y0146854D03*
X0124675Y0146854D03*
X0126565Y0143232D03*
X0126723Y0143232D03*
X0124833Y0142287D03*
X0124833Y0139138D03*
X0127825Y0140713D03*
X0127982Y0140713D03*
X0127982Y0134571D03*
X0124675Y0134571D03*
X0117982Y0134413D03*
X0117825Y0134413D03*
X0116723Y0134413D03*
X0116565Y0134413D03*
X0115620Y0134413D03*
X0114833Y0134413D03*
X0114675Y0134413D03*
X0107982Y0134413D03*
X0107825Y0134413D03*
X0106565Y0134413D03*
X0105620Y0134413D03*
X0104675Y0134413D03*
X0098140Y0143992D03*
X0098455Y0144307D03*
X0095620Y0143047D03*
X0088297Y0144937D03*
X0084045Y0141000D03*
X0085148Y0138795D03*
X0085305Y0138638D03*
X0114675Y0144177D03*
X0117825Y0142602D03*
X0135148Y0134413D03*
X0135305Y0134413D03*
X0137510Y0134413D03*
X0104140Y0263405D03*
X0100518Y0263405D03*
X0101620Y0267342D03*
X0100518Y0271279D03*
X0104140Y0271279D03*
X0111593Y0269713D03*
X0112223Y0269713D03*
X0126093Y0267842D03*
X0126723Y0267842D03*
X0135778Y0268378D03*
X0136723Y0266803D03*
X0136880Y0266803D03*
X0096880Y0266803D03*
X0096723Y0266803D03*
X0095778Y0268378D03*
X0086880Y0267240D03*
X0085778Y0268972D03*
X0085620Y0268972D03*
X0084360Y0271492D03*
D121*
X0084518Y0269366D03*
X0088140Y0269366D03*
X0088297Y0269366D03*
X0086565Y0273461D03*
X0086250Y0273461D03*
X0086093Y0273461D03*
X0095305Y0272709D03*
X0103195Y0270413D03*
X0104140Y0268996D03*
X0098297Y0268929D03*
X0098297Y0266252D03*
X0096408Y0266252D03*
X0096250Y0266252D03*
X0096093Y0266252D03*
X0095935Y0266252D03*
X0095778Y0266252D03*
X0095620Y0266252D03*
X0095463Y0266252D03*
X0095305Y0266252D03*
X0095148Y0266252D03*
X0094990Y0266252D03*
X0094833Y0266252D03*
X0094675Y0266252D03*
X0094518Y0266252D03*
X0103195Y0262539D03*
X0110018Y0264752D03*
X0110175Y0264752D03*
X0110333Y0264752D03*
X0110490Y0264752D03*
X0110648Y0264752D03*
X0110805Y0264752D03*
X0112065Y0264752D03*
X0112223Y0264752D03*
X0112380Y0264752D03*
X0112538Y0264752D03*
X0112695Y0264752D03*
X0112853Y0264752D03*
X0112538Y0266957D03*
X0112380Y0266957D03*
X0113797Y0268216D03*
X0110018Y0268216D03*
X0110018Y0266957D03*
X0110018Y0271209D03*
X0110018Y0272468D03*
X0113640Y0272468D03*
X0113797Y0272468D03*
X0124518Y0269338D03*
X0124518Y0266346D03*
X0124518Y0263669D03*
X0124675Y0263669D03*
X0124833Y0263669D03*
X0124990Y0263669D03*
X0125148Y0263669D03*
X0125305Y0263669D03*
X0125463Y0263669D03*
X0125620Y0263669D03*
X0125778Y0263669D03*
X0125935Y0263669D03*
X0126093Y0263669D03*
X0126250Y0263669D03*
X0126408Y0263669D03*
X0126565Y0263669D03*
X0126723Y0263669D03*
X0126880Y0263669D03*
X0127038Y0263669D03*
X0127195Y0263669D03*
X0127353Y0263669D03*
X0127510Y0263669D03*
X0128297Y0266346D03*
X0128455Y0271858D03*
X0126093Y0273433D03*
X0135305Y0272709D03*
X0138297Y0268929D03*
X0138297Y0266252D03*
X0136408Y0266252D03*
X0136250Y0266252D03*
X0136093Y0266252D03*
X0135935Y0266252D03*
X0135778Y0266252D03*
X0135620Y0266252D03*
X0135463Y0266252D03*
X0135305Y0266252D03*
X0135148Y0266252D03*
X0134990Y0266252D03*
X0134833Y0266252D03*
X0134675Y0266252D03*
X0134518Y0266252D03*
X0074380Y0244878D03*
X0137353Y0144886D03*
X0137353Y0141421D03*
X0137195Y0141421D03*
X0135305Y0140791D03*
X0134518Y0138901D03*
X0136093Y0136539D03*
X0136250Y0136539D03*
X0136408Y0136539D03*
X0136565Y0136539D03*
X0126880Y0138587D03*
X0117353Y0138114D03*
X0117353Y0136697D03*
X0115305Y0136697D03*
X0114518Y0138114D03*
X0117353Y0140004D03*
X0116880Y0142681D03*
X0116723Y0142681D03*
X0114675Y0141736D03*
X0107510Y0138272D03*
X0107353Y0136697D03*
X0105305Y0136697D03*
X0104518Y0142051D03*
X0096565Y0138401D03*
X0094675Y0137929D03*
X0086408Y0136669D03*
X0086250Y0136669D03*
X0086093Y0136669D03*
X0085935Y0136669D03*
X0084518Y0136669D03*
X0084360Y0136669D03*
X0084990Y0139346D03*
D122*
X0086093Y0140685D03*
X0095305Y0143205D03*
X0098770Y0144464D03*
X0108297Y0138665D03*
X0107195Y0137405D03*
X0106250Y0134571D03*
X0104518Y0134571D03*
X0108297Y0134571D03*
X0114518Y0134571D03*
X0116250Y0134571D03*
X0117195Y0137405D03*
X0114360Y0144177D03*
X0126093Y0143075D03*
X0128140Y0140713D03*
X0128297Y0140713D03*
X0128297Y0134728D03*
X0134833Y0134571D03*
X0134833Y0147484D03*
X0137825Y0147484D03*
X0128297Y0146697D03*
X0088140Y0144937D03*
X0072963Y0240035D03*
X0072490Y0240272D03*
X0072963Y0249838D03*
X0084518Y0264248D03*
X0086565Y0267398D03*
X0086093Y0268815D03*
X0096250Y0268220D03*
X0098140Y0271842D03*
X0103982Y0271279D03*
X0111435Y0269713D03*
X0112380Y0269713D03*
X0113797Y0265461D03*
X0103982Y0263405D03*
X0125935Y0267842D03*
X0126880Y0267842D03*
X0128140Y0271937D03*
X0136250Y0268220D03*
X0138140Y0271842D03*
D123*
X0134675Y0271842D03*
X0127982Y0271937D03*
X0124675Y0271937D03*
X0127038Y0267842D03*
X0113640Y0265618D03*
X0110333Y0267665D03*
X0112538Y0269713D03*
X0103825Y0271279D03*
X0103667Y0271279D03*
X0100833Y0271279D03*
X0094675Y0271842D03*
X0088140Y0271650D03*
X0084675Y0264248D03*
X0100833Y0263405D03*
X0103667Y0263405D03*
X0103825Y0263405D03*
X0138140Y0147327D03*
X0138140Y0134728D03*
X0118140Y0142445D03*
X0114360Y0134728D03*
X0106093Y0134728D03*
X0105620Y0141027D03*
X0107038Y0141027D03*
X0094990Y0143362D03*
X0086250Y0140527D03*
D124*
X0085620Y0141236D03*
X0085463Y0141236D03*
X0085305Y0141236D03*
X0085148Y0141236D03*
X0084990Y0141236D03*
X0084833Y0141236D03*
X0084675Y0141236D03*
X0084518Y0141236D03*
X0085463Y0138401D03*
X0084045Y0136669D03*
X0094203Y0138087D03*
X0094360Y0138087D03*
X0097038Y0138244D03*
X0104360Y0141894D03*
X0107982Y0138587D03*
X0105620Y0136539D03*
X0115463Y0140161D03*
X0117195Y0140161D03*
X0116723Y0137957D03*
X0115620Y0136539D03*
X0125778Y0136697D03*
X0126565Y0138587D03*
X0126250Y0138744D03*
X0125935Y0138901D03*
X0127038Y0140791D03*
X0127038Y0142996D03*
X0125778Y0144571D03*
X0117195Y0142681D03*
X0117038Y0142681D03*
X0134360Y0138744D03*
X0135463Y0137169D03*
X0138297Y0138744D03*
X0137667Y0141264D03*
X0134990Y0140949D03*
X0134833Y0140949D03*
X0135620Y0145043D03*
X0137038Y0145043D03*
X0101305Y0262382D03*
X0101935Y0264272D03*
X0101778Y0264429D03*
X0103038Y0268524D03*
X0103353Y0268681D03*
X0103667Y0268838D03*
X0101305Y0270256D03*
X0101935Y0272146D03*
X0101778Y0272303D03*
X0097195Y0270504D03*
X0096880Y0270346D03*
X0094833Y0268772D03*
X0094675Y0268772D03*
X0096408Y0267512D03*
X0097825Y0266409D03*
X0087982Y0266846D03*
X0086250Y0268106D03*
X0084675Y0269366D03*
X0085463Y0273146D03*
X0085620Y0273303D03*
X0087038Y0273303D03*
X0087195Y0273146D03*
X0088455Y0271413D03*
X0085305Y0265272D03*
X0085463Y0262909D03*
X0085778Y0262752D03*
X0087038Y0262752D03*
X0087195Y0262909D03*
X0110648Y0266799D03*
X0110805Y0268689D03*
X0110333Y0271051D03*
X0112853Y0270579D03*
X0113482Y0271051D03*
X0113325Y0268374D03*
X0112853Y0266799D03*
X0124833Y0269181D03*
X0125463Y0270598D03*
X0125778Y0270441D03*
X0127195Y0270598D03*
X0127353Y0270756D03*
X0127982Y0269181D03*
X0127353Y0268709D03*
X0127825Y0266504D03*
X0125305Y0266819D03*
X0125463Y0273118D03*
X0125620Y0273275D03*
X0127038Y0273275D03*
X0127195Y0273275D03*
X0134675Y0268772D03*
X0134833Y0268772D03*
X0136408Y0267512D03*
X0137825Y0266409D03*
X0136880Y0270346D03*
X0137195Y0270504D03*
D125*
X0137825Y0271842D03*
X0134833Y0271842D03*
X0127825Y0271937D03*
X0124833Y0271937D03*
X0113325Y0265775D03*
X0113167Y0265775D03*
X0111750Y0265775D03*
X0111593Y0265775D03*
X0110963Y0265775D03*
X0103510Y0263405D03*
X0101148Y0263405D03*
X0100990Y0263405D03*
X0100990Y0271279D03*
X0101148Y0271279D03*
X0103510Y0271279D03*
X0097825Y0271842D03*
X0094833Y0271842D03*
X0087982Y0271807D03*
X0084833Y0271807D03*
X0084833Y0264248D03*
X0087195Y0145409D03*
X0087353Y0145409D03*
X0084203Y0144150D03*
X0094675Y0143520D03*
X0104833Y0146854D03*
X0104990Y0146854D03*
X0114360Y0147484D03*
X0114833Y0147799D03*
X0124360Y0142445D03*
X0125935Y0143390D03*
X0124360Y0138980D03*
X0136880Y0137720D03*
X0137038Y0137720D03*
X0138297Y0134886D03*
X0138297Y0147169D03*
D126*
X0135305Y0144728D03*
X0134518Y0143153D03*
X0135778Y0140634D03*
X0136880Y0141579D03*
X0138297Y0143153D03*
X0137982Y0138901D03*
X0137825Y0138901D03*
X0137667Y0138901D03*
X0137510Y0138901D03*
X0136723Y0138901D03*
X0134675Y0138901D03*
X0127982Y0138272D03*
X0127667Y0138429D03*
X0127353Y0138587D03*
X0127195Y0138587D03*
X0127510Y0142996D03*
X0127667Y0142996D03*
X0127982Y0143153D03*
X0117982Y0138272D03*
X0117825Y0138272D03*
X0117667Y0138272D03*
X0116408Y0138272D03*
X0114833Y0138272D03*
X0115305Y0140004D03*
X0114990Y0141894D03*
X0114833Y0141894D03*
X0115148Y0142051D03*
X0115778Y0142366D03*
X0116093Y0142524D03*
X0116250Y0142524D03*
X0116093Y0144256D03*
X0117510Y0136697D03*
X0107510Y0136697D03*
X0105463Y0138429D03*
X0105305Y0138429D03*
X0105463Y0142051D03*
X0107353Y0142051D03*
X0108140Y0142051D03*
X0097038Y0143598D03*
X0096250Y0138559D03*
X0096093Y0138559D03*
X0095148Y0137772D03*
X0097353Y0136512D03*
X0086880Y0138087D03*
X0085778Y0138244D03*
X0084990Y0138087D03*
X0087353Y0140449D03*
X0103038Y0262539D03*
X0100360Y0267421D03*
X0103038Y0270413D03*
X0109860Y0271209D03*
X0109860Y0268216D03*
X0109860Y0266957D03*
X0109860Y0264752D03*
X0124360Y0263669D03*
X0124360Y0266346D03*
X0124360Y0269338D03*
X0087353Y0265114D03*
D127*
X0086408Y0264799D03*
X0086250Y0264957D03*
X0086093Y0264957D03*
X0088297Y0264169D03*
X0087195Y0267161D03*
X0087038Y0267161D03*
X0085463Y0269051D03*
X0095620Y0268457D03*
X0097038Y0266724D03*
X0101463Y0267421D03*
X0102093Y0263957D03*
X0102880Y0263957D03*
X0102880Y0271831D03*
X0102093Y0271831D03*
X0135620Y0268457D03*
X0137038Y0266724D03*
X0072963Y0245350D03*
X0072490Y0245350D03*
X0088455Y0144858D03*
X0095778Y0142968D03*
X0098297Y0144228D03*
X0104518Y0138587D03*
X0106880Y0137642D03*
X0106880Y0134335D03*
X0106723Y0134335D03*
X0107038Y0134335D03*
X0107195Y0134335D03*
X0107353Y0134335D03*
X0107510Y0134335D03*
X0107667Y0134335D03*
X0105463Y0134335D03*
X0105305Y0134335D03*
X0104990Y0134335D03*
X0104833Y0134335D03*
X0097353Y0134622D03*
X0094045Y0134622D03*
X0087353Y0134464D03*
X0087195Y0134464D03*
X0087038Y0134464D03*
X0086880Y0134464D03*
X0086723Y0134464D03*
X0086565Y0134464D03*
X0086408Y0134464D03*
X0086250Y0134464D03*
X0086093Y0134464D03*
X0085935Y0134464D03*
X0085778Y0134464D03*
X0085620Y0134464D03*
X0085463Y0134464D03*
X0085305Y0134464D03*
X0085148Y0134464D03*
X0084990Y0134464D03*
X0084833Y0134464D03*
X0084675Y0134464D03*
X0084518Y0134464D03*
X0084360Y0134464D03*
X0084203Y0134464D03*
X0084045Y0134464D03*
X0114990Y0134335D03*
X0115148Y0134335D03*
X0115305Y0134335D03*
X0115463Y0134335D03*
X0116880Y0134335D03*
X0117038Y0134335D03*
X0117195Y0134335D03*
X0117353Y0134335D03*
X0117510Y0134335D03*
X0117667Y0134335D03*
X0116880Y0137642D03*
X0124833Y0134492D03*
X0125778Y0134492D03*
X0127195Y0134492D03*
X0127353Y0134492D03*
X0127510Y0134492D03*
X0127667Y0134492D03*
X0127825Y0134492D03*
X0135463Y0134335D03*
X0135620Y0134335D03*
X0135778Y0134335D03*
X0137038Y0134335D03*
X0137195Y0134335D03*
X0137353Y0134335D03*
X0138297Y0141106D03*
X0134360Y0141106D03*
X0127667Y0140791D03*
X0126880Y0143311D03*
X0126880Y0146933D03*
X0126723Y0146933D03*
X0126250Y0146933D03*
X0126093Y0146933D03*
X0124833Y0146933D03*
X0127667Y0146933D03*
X0127825Y0146933D03*
X0135463Y0147720D03*
X0135620Y0147720D03*
X0137195Y0147720D03*
X0137353Y0147720D03*
X0114833Y0144256D03*
D128*
X0114518Y0144256D03*
X0117982Y0142524D03*
X0124675Y0142366D03*
X0126250Y0143153D03*
X0126408Y0143153D03*
X0126408Y0146775D03*
X0128140Y0146775D03*
X0124518Y0146775D03*
X0124675Y0139059D03*
X0124518Y0134650D03*
X0127038Y0134650D03*
X0128140Y0134650D03*
X0134990Y0134492D03*
X0137667Y0134492D03*
X0137825Y0134492D03*
X0118140Y0134492D03*
X0116408Y0134492D03*
X0117038Y0137484D03*
X0108140Y0134492D03*
X0106408Y0134492D03*
X0107038Y0137484D03*
X0098612Y0144386D03*
X0095463Y0143126D03*
X0134990Y0147563D03*
X0137667Y0147563D03*
X0136565Y0266882D03*
X0136093Y0268299D03*
X0135935Y0268299D03*
X0134518Y0271921D03*
X0124518Y0271858D03*
X0101778Y0267421D03*
X0096565Y0266882D03*
X0096093Y0268299D03*
X0095935Y0268299D03*
X0094518Y0271921D03*
X0088297Y0271571D03*
X0085935Y0268894D03*
X0086723Y0267319D03*
D129*
X0087510Y0267004D03*
X0085935Y0265114D03*
X0095148Y0268614D03*
X0095305Y0270819D03*
X0094360Y0271921D03*
X0097353Y0270661D03*
X0100360Y0271201D03*
X0101148Y0267421D03*
X0097510Y0266567D03*
X0097353Y0266567D03*
X0100360Y0263327D03*
X0113955Y0265382D03*
X0125305Y0272961D03*
X0134360Y0271921D03*
X0135305Y0270819D03*
X0137353Y0270661D03*
X0135148Y0268614D03*
X0137353Y0266567D03*
X0137510Y0266567D03*
X0087353Y0272988D03*
X0085148Y0269209D03*
X0084990Y0269209D03*
X0088770Y0144701D03*
X0088927Y0144543D03*
X0086565Y0141079D03*
X0084203Y0141079D03*
X0088297Y0134307D03*
X0088455Y0134307D03*
X0088612Y0134307D03*
X0088770Y0134307D03*
X0094045Y0138087D03*
X0094203Y0140449D03*
X0094360Y0140449D03*
X0094518Y0140449D03*
X0094675Y0140449D03*
X0094833Y0140449D03*
X0094990Y0140449D03*
X0095148Y0140449D03*
X0095305Y0140449D03*
X0095463Y0140449D03*
X0095620Y0140449D03*
X0095778Y0140449D03*
X0095935Y0140449D03*
X0096093Y0140449D03*
X0096250Y0140449D03*
X0096408Y0140449D03*
X0096565Y0140449D03*
X0097353Y0138087D03*
X0104675Y0138587D03*
X0107195Y0140634D03*
X0115148Y0144256D03*
X0117353Y0142681D03*
X0117510Y0142681D03*
X0116880Y0140319D03*
X0116723Y0140319D03*
X0116093Y0140319D03*
X0115935Y0140319D03*
X0115778Y0140319D03*
X0125305Y0139059D03*
X0125463Y0139059D03*
X0126408Y0138587D03*
X0127353Y0140791D03*
X0125778Y0142524D03*
X0125463Y0142366D03*
X0125305Y0142366D03*
X0136093Y0145201D03*
X0136250Y0145201D03*
X0136408Y0145201D03*
X0136565Y0145201D03*
X0136723Y0145201D03*
X0138140Y0141106D03*
X0135935Y0137012D03*
X0135778Y0137012D03*
X0098770Y0134464D03*
X0098612Y0134464D03*
X0098455Y0134464D03*
X0098297Y0134464D03*
D130*
X0097195Y0138165D03*
X0096723Y0140370D03*
X0086723Y0141157D03*
X0085778Y0141157D03*
X0084360Y0141157D03*
X0105463Y0140555D03*
X0114360Y0138035D03*
X0115620Y0140240D03*
X0117038Y0140240D03*
X0125620Y0138980D03*
X0125778Y0138980D03*
X0126093Y0138823D03*
X0127195Y0140713D03*
X0125620Y0142445D03*
X0134675Y0141027D03*
X0137825Y0141185D03*
X0137982Y0141185D03*
X0135620Y0137090D03*
X0135778Y0145122D03*
X0135935Y0145122D03*
X0136880Y0145122D03*
X0087353Y0262988D03*
X0085305Y0263146D03*
X0087667Y0266925D03*
X0087825Y0266925D03*
X0084833Y0269287D03*
X0094990Y0268693D03*
X0095463Y0270583D03*
X0097667Y0266488D03*
X0100833Y0267342D03*
X0100990Y0267342D03*
X0110490Y0268453D03*
X0110648Y0268610D03*
X0110963Y0268768D03*
X0111908Y0269713D03*
X0112695Y0270500D03*
X0113010Y0270657D03*
X0113167Y0270815D03*
X0113325Y0270972D03*
X0112695Y0268925D03*
X0112853Y0268768D03*
X0113010Y0268610D03*
X0113167Y0268453D03*
X0113482Y0268295D03*
X0110963Y0270500D03*
X0110805Y0270657D03*
X0110648Y0270815D03*
X0110490Y0270972D03*
X0124990Y0269102D03*
X0125148Y0268945D03*
X0125305Y0268787D03*
X0125463Y0268630D03*
X0126408Y0267842D03*
X0127195Y0267055D03*
X0127353Y0266898D03*
X0127510Y0266740D03*
X0127667Y0266583D03*
X0127195Y0268630D03*
X0127510Y0268787D03*
X0127667Y0268945D03*
X0127825Y0269102D03*
X0125305Y0270835D03*
X0127353Y0273039D03*
X0125463Y0266898D03*
X0125148Y0266740D03*
X0124990Y0266583D03*
X0124833Y0266425D03*
X0134990Y0268693D03*
X0135463Y0270583D03*
X0137667Y0266488D03*
D131*
X0125778Y0267764D03*
X0111278Y0269634D03*
X0100675Y0271201D03*
X0100675Y0263327D03*
X0088140Y0264169D03*
X0084518Y0271571D03*
X0124360Y0146618D03*
X0124518Y0142366D03*
X0124518Y0139059D03*
X0124360Y0134807D03*
X0118297Y0134650D03*
X0104360Y0134650D03*
X0104360Y0138587D03*
X0095148Y0143283D03*
X0134675Y0147405D03*
X0137982Y0147405D03*
X0137982Y0134650D03*
X0134675Y0134650D03*
D132*
X0134833Y0138980D03*
X0134990Y0138980D03*
X0135148Y0138980D03*
X0135305Y0138980D03*
X0135463Y0138980D03*
X0135620Y0138980D03*
X0135778Y0138980D03*
X0135935Y0138980D03*
X0136093Y0138980D03*
X0136250Y0138980D03*
X0136408Y0138980D03*
X0136565Y0138980D03*
X0135935Y0140555D03*
X0136565Y0141657D03*
X0136723Y0141657D03*
X0136723Y0143075D03*
X0136880Y0143075D03*
X0137038Y0143075D03*
X0137195Y0143075D03*
X0137353Y0143075D03*
X0137510Y0143075D03*
X0137667Y0143075D03*
X0137825Y0143075D03*
X0137982Y0143075D03*
X0138140Y0143075D03*
X0136565Y0143075D03*
X0136408Y0143075D03*
X0136250Y0143075D03*
X0136093Y0143075D03*
X0135935Y0143075D03*
X0135778Y0143075D03*
X0135620Y0143075D03*
X0135463Y0143075D03*
X0135305Y0143075D03*
X0135148Y0143075D03*
X0134990Y0143075D03*
X0134833Y0143075D03*
X0134675Y0143075D03*
X0127825Y0143075D03*
X0126250Y0140713D03*
X0126093Y0140713D03*
X0127510Y0138508D03*
X0127825Y0138350D03*
X0116250Y0138350D03*
X0116093Y0138350D03*
X0115935Y0138350D03*
X0115778Y0138350D03*
X0115463Y0138350D03*
X0115305Y0138350D03*
X0115148Y0138350D03*
X0114990Y0138350D03*
X0115305Y0142130D03*
X0115463Y0142287D03*
X0115620Y0142287D03*
X0115935Y0142445D03*
X0116250Y0144177D03*
X0107982Y0142130D03*
X0107510Y0142130D03*
X0105305Y0142130D03*
X0105148Y0142130D03*
X0104675Y0142130D03*
X0105620Y0138350D03*
X0105778Y0138350D03*
X0105935Y0138350D03*
X0106250Y0138193D03*
X0106408Y0138193D03*
X0097353Y0139740D03*
X0095935Y0138638D03*
X0095305Y0137693D03*
X0095305Y0136433D03*
X0095148Y0136433D03*
X0094990Y0136433D03*
X0094833Y0136433D03*
X0094675Y0136433D03*
X0094518Y0136433D03*
X0094360Y0136433D03*
X0094203Y0136433D03*
X0094045Y0136433D03*
X0095463Y0136433D03*
X0095620Y0136433D03*
X0095778Y0136433D03*
X0095935Y0136433D03*
X0096093Y0136433D03*
X0096250Y0136433D03*
X0096408Y0136433D03*
X0096565Y0136433D03*
X0096723Y0136433D03*
X0096880Y0136433D03*
X0097038Y0136433D03*
X0097195Y0136433D03*
X0085935Y0138165D03*
X0084203Y0138323D03*
X0096880Y0143520D03*
X0075325Y0243461D03*
X0072963Y0243461D03*
X0074853Y0246177D03*
X0100203Y0263405D03*
X0100203Y0271279D03*
X0097195Y0272787D03*
X0095463Y0272787D03*
X0113955Y0271130D03*
X0113955Y0268295D03*
X0124203Y0271937D03*
X0128455Y0269260D03*
X0128455Y0266425D03*
X0135463Y0272787D03*
X0137195Y0272787D03*
D133*
X0137982Y0271921D03*
X0125620Y0267764D03*
X0113482Y0265697D03*
X0111435Y0265697D03*
X0111278Y0265697D03*
X0111120Y0265697D03*
X0111120Y0269634D03*
X0097982Y0271921D03*
X0087982Y0264169D03*
X0084675Y0271728D03*
X0075325Y0249366D03*
X0104518Y0146775D03*
X0104675Y0146775D03*
X0104360Y0146618D03*
X0098927Y0144386D03*
X0094833Y0143441D03*
X0086408Y0140449D03*
X0084045Y0144071D03*
X0105778Y0140949D03*
X0105935Y0140949D03*
X0106093Y0140949D03*
X0106250Y0140949D03*
X0106408Y0140949D03*
X0106565Y0140949D03*
X0106723Y0140949D03*
X0106880Y0140949D03*
X0108455Y0134807D03*
X0116093Y0134807D03*
X0118455Y0134807D03*
X0126093Y0134964D03*
X0126250Y0134964D03*
X0126408Y0134964D03*
X0126565Y0134964D03*
X0126723Y0134964D03*
X0126880Y0134964D03*
X0128455Y0134964D03*
X0134518Y0134807D03*
X0137195Y0137799D03*
X0134518Y0147248D03*
X0128455Y0146461D03*
X0114675Y0147720D03*
X0114518Y0147720D03*
D134*
X0114990Y0147720D03*
X0118297Y0142366D03*
X0134360Y0134964D03*
X0094518Y0143598D03*
X0087038Y0145488D03*
X0084360Y0144228D03*
X0087510Y0264012D03*
X0087667Y0264012D03*
X0087825Y0264169D03*
X0084990Y0264169D03*
X0084990Y0271886D03*
X0087825Y0271886D03*
X0094990Y0271764D03*
X0097667Y0271764D03*
X0111908Y0265854D03*
X0113010Y0265854D03*
X0134990Y0271764D03*
X0137667Y0271764D03*
D135*
X0137510Y0271685D03*
X0135148Y0271685D03*
X0127667Y0271937D03*
X0124990Y0271937D03*
X0097510Y0271685D03*
X0095148Y0271685D03*
X0087667Y0271964D03*
X0087510Y0271964D03*
X0085148Y0271964D03*
X0086880Y0145567D03*
X0084518Y0144307D03*
X0094360Y0143677D03*
X0105935Y0135043D03*
X0108455Y0138665D03*
X0115935Y0135043D03*
X0115148Y0147799D03*
X0134360Y0147012D03*
X0138455Y0135043D03*
D136*
X0125935Y0135279D03*
X0115463Y0147720D03*
X0115305Y0147720D03*
X0094203Y0143756D03*
X0084675Y0144386D03*
X0085148Y0264169D03*
X0085305Y0272043D03*
X0125148Y0271858D03*
X0128455Y0263669D03*
D137*
X0105624Y0253622D03*
D138*
X0127825Y0263669D03*
X0128140Y0263669D03*
X0128297Y0263669D03*
X0116408Y0147563D03*
X0116250Y0147563D03*
X0085305Y0144701D03*
D139*
X0127982Y0264378D03*
D140*
X0127667Y0263669D03*
X0074380Y0240626D03*
X0073908Y0240626D03*
X0073435Y0240626D03*
X0115620Y0147720D03*
X0115778Y0147720D03*
X0115778Y0135279D03*
X0094045Y0143756D03*
X0084990Y0144543D03*
D141*
X0084833Y0144464D03*
X0105778Y0135201D03*
X0127510Y0271937D03*
D142*
X0076250Y0244937D03*
X0071565Y0244937D03*
D143*
X0071683Y0244937D03*
X0076132Y0244937D03*
D144*
X0076034Y0244937D03*
D145*
X0075916Y0244937D03*
D146*
X0075778Y0244937D03*
X0071998Y0244937D03*
D147*
X0072116Y0244937D03*
X0075660Y0244937D03*
D148*
X0075561Y0244937D03*
D149*
X0075463Y0243165D03*
D150*
X0075463Y0249189D03*
X0073573Y0249661D03*
D151*
X0075325Y0240862D03*
D152*
X0075325Y0246118D03*
D153*
X0075187Y0240862D03*
X0075108Y0240744D03*
X0074990Y0240744D03*
D154*
X0073101Y0242161D03*
X0073101Y0243461D03*
X0073179Y0243461D03*
X0075187Y0243461D03*
D155*
X0075187Y0246118D03*
D156*
X0075187Y0249484D03*
X0075108Y0249602D03*
X0074990Y0249602D03*
X0074715Y0249720D03*
X0074518Y0249838D03*
X0074242Y0249838D03*
X0074124Y0249838D03*
X0074045Y0249838D03*
X0073179Y0240153D03*
D157*
X0073297Y0243520D03*
X0073573Y0243520D03*
X0073691Y0243520D03*
X0073770Y0243520D03*
X0074045Y0243520D03*
X0074124Y0243520D03*
X0074242Y0243520D03*
X0074518Y0243520D03*
X0074636Y0243520D03*
X0074715Y0243520D03*
X0074990Y0243520D03*
X0075108Y0243520D03*
X0074715Y0246118D03*
X0074636Y0246118D03*
X0074045Y0246236D03*
D158*
X0074045Y0247299D03*
X0074242Y0247417D03*
X0074518Y0247417D03*
X0075108Y0246118D03*
X0074518Y0244819D03*
X0074124Y0244819D03*
X0074045Y0244819D03*
D159*
X0074990Y0246118D03*
X0074636Y0247417D03*
X0072825Y0243401D03*
X0072746Y0243401D03*
D160*
X0074853Y0240685D03*
D161*
X0074853Y0243520D03*
X0074380Y0243520D03*
X0073908Y0243520D03*
X0073435Y0243520D03*
D162*
X0074853Y0249720D03*
X0074380Y0249838D03*
D163*
X0074636Y0240685D03*
X0074715Y0240685D03*
D164*
X0073179Y0242161D03*
X0072628Y0243342D03*
X0074636Y0244760D03*
X0074124Y0247358D03*
D165*
X0074636Y0249779D03*
X0072353Y0240449D03*
X0073101Y0240094D03*
D166*
X0073297Y0240626D03*
X0073573Y0240626D03*
X0073691Y0240626D03*
X0073770Y0240626D03*
X0074045Y0240626D03*
X0074124Y0240626D03*
X0074242Y0240626D03*
X0074518Y0240626D03*
D167*
X0074518Y0246177D03*
X0074242Y0246177D03*
X0074124Y0246177D03*
D168*
X0074380Y0246177D03*
D169*
X0074380Y0247417D03*
X0072490Y0243283D03*
D170*
X0074242Y0244878D03*
D171*
X0073908Y0246768D03*
D172*
X0073908Y0249779D03*
D173*
X0073770Y0246650D03*
X0073691Y0246531D03*
X0073179Y0245823D03*
D174*
X0073770Y0249779D03*
D175*
X0073691Y0249720D03*
D176*
X0073573Y0246354D03*
D177*
X0073435Y0246177D03*
D178*
X0073435Y0249602D03*
D179*
X0073297Y0246059D03*
X0072353Y0243224D03*
D180*
X0073179Y0249425D03*
X0073297Y0249543D03*
D181*
X0073101Y0245409D03*
D182*
X0073101Y0249307D03*
D183*
X0072825Y0249779D03*
X0072746Y0249779D03*
X0072628Y0240212D03*
X0072746Y0240094D03*
X0072825Y0240094D03*
D184*
X0072825Y0245350D03*
X0072746Y0245350D03*
X0072628Y0245350D03*
D185*
X0072353Y0245350D03*
X0072353Y0249602D03*
X0072628Y0249720D03*
D186*
X0072490Y0249720D03*
D187*
X0072234Y0244937D03*
D188*
X0071919Y0244937D03*
D189*
X0071801Y0244937D03*
D190*
X0104045Y0140555D03*
X0108770Y0140555D03*
X0113416Y0140555D03*
X0119400Y0140555D03*
X0123258Y0140713D03*
X0123416Y0140713D03*
X0123573Y0140713D03*
X0123730Y0140713D03*
X0123888Y0140713D03*
X0124045Y0140713D03*
X0124203Y0140713D03*
X0128612Y0140713D03*
X0128770Y0140713D03*
X0128927Y0140713D03*
X0129085Y0140713D03*
X0129242Y0140713D03*
X0129400Y0140713D03*
X0129557Y0140713D03*
D191*
X0128455Y0140713D03*
X0108455Y0144492D03*
D192*
X0114045Y0141027D03*
X0118770Y0141027D03*
X0133258Y0141027D03*
X0133416Y0141027D03*
X0133573Y0141027D03*
X0133730Y0141027D03*
X0133888Y0141027D03*
X0134045Y0141027D03*
X0134203Y0141027D03*
X0138612Y0141027D03*
X0138770Y0141027D03*
X0138927Y0141027D03*
X0139085Y0141027D03*
X0139242Y0141027D03*
X0139400Y0141027D03*
X0139557Y0141027D03*
D193*
X0138455Y0143153D03*
X0097825Y0139189D03*
X0089557Y0139031D03*
X0083258Y0139031D03*
D194*
X0113258Y0140319D03*
X0119557Y0140319D03*
D195*
X0119242Y0140713D03*
X0113573Y0140713D03*
D196*
X0113730Y0140870D03*
X0119085Y0140870D03*
D197*
X0118927Y0140949D03*
X0113888Y0140949D03*
D198*
X0114203Y0141106D03*
X0118612Y0141106D03*
D199*
X0118455Y0142996D03*
D200*
X0118297Y0146854D03*
X0117982Y0147012D03*
X0117667Y0147169D03*
X0117195Y0147327D03*
X0086565Y0144937D03*
X0086408Y0144937D03*
X0086250Y0144937D03*
X0086093Y0144937D03*
X0085935Y0144937D03*
D201*
X0085778Y0144858D03*
X0086723Y0145016D03*
X0116880Y0147405D03*
X0117038Y0147405D03*
X0117353Y0147248D03*
X0117510Y0147248D03*
X0117825Y0147090D03*
X0118140Y0146933D03*
D202*
X0116723Y0147484D03*
X0116565Y0147484D03*
X0085620Y0144779D03*
X0085463Y0144779D03*
D203*
X0085148Y0144622D03*
X0115935Y0147642D03*
X0116093Y0147642D03*
D204*
X0109557Y0139846D03*
X0103258Y0139846D03*
X0087825Y0139976D03*
D205*
X0103416Y0140083D03*
X0109400Y0140083D03*
D206*
X0109242Y0140240D03*
X0103573Y0140240D03*
D207*
X0103730Y0140398D03*
X0109085Y0140398D03*
D208*
X0108927Y0140476D03*
X0103888Y0140476D03*
D209*
X0104203Y0140634D03*
X0108612Y0140634D03*
D210*
X0108297Y0145752D03*
X0108140Y0145752D03*
X0107982Y0145909D03*
X0107825Y0145909D03*
D211*
X0107667Y0145988D03*
X0107510Y0145988D03*
X0107353Y0145988D03*
X0105463Y0145988D03*
X0105305Y0145988D03*
X0105148Y0145988D03*
D212*
X0105620Y0146067D03*
X0105778Y0146067D03*
X0105935Y0146067D03*
X0106093Y0146067D03*
X0106250Y0146067D03*
X0106408Y0146067D03*
X0106565Y0146067D03*
X0106723Y0146067D03*
X0106880Y0146067D03*
X0107038Y0146067D03*
X0107195Y0146067D03*
D213*
X0099557Y0140055D03*
X0093258Y0140055D03*
X0087982Y0139898D03*
D214*
X0093416Y0139976D03*
X0099400Y0139976D03*
D215*
X0099242Y0139898D03*
X0093573Y0139898D03*
D216*
X0093730Y0139819D03*
X0099085Y0139819D03*
D217*
X0097982Y0139268D03*
X0089400Y0139110D03*
X0083416Y0139110D03*
D218*
X0097667Y0139110D03*
D219*
X0097510Y0139031D03*
D220*
X0093888Y0139740D03*
D221*
X0089242Y0139268D03*
X0083573Y0139268D03*
D222*
X0083730Y0139346D03*
X0089085Y0139346D03*
D223*
X0087667Y0140055D03*
D224*
X0087510Y0140134D03*
D225*
X0083888Y0139425D03*
M02*
