%
M48
M72
T01C0.0200
T02C0.0335
T03C0.0400
T04C0.1100
T05C0.1200
T06C0.1300
%
T01
X10156Y18750
X10156Y19250
X10156Y20750
X11906Y20250
X12406Y20250
X12406Y19750
X13781Y18250
X15906Y22000
X13781Y23875
X12781Y23500
X12906Y22500
X11406Y25250
X11406Y25750
X11406Y26250
X12406Y26250
X13106Y27750
X14031Y27750
X14406Y26500
X16031Y30500
X15906Y33500
X14906Y36125
X15406Y38000
X16781Y39000
X18031Y39750
X14906Y40500
X12156Y36875
X10656Y34500
X11531Y32875
X11906Y31000
X10156Y29625
X10531Y27750
X9531Y27625
X8781Y27750
X8781Y26250
X9531Y25375
X9406Y24875
X8406Y32500
X10406Y39500
X16781Y27375
X20531Y24750
X21156Y24375
X21906Y25625
X20531Y30500
X21906Y34000
X22406Y38000
X24906Y33500
X26906Y31625
X29156Y33375
X30531Y32750
X30906Y33625
X31281Y36000
X29156Y35375
X28781Y39375
X27906Y39750
X27781Y40375
X34031Y37250
X35906Y39625
X32156Y29125
X29531Y23500
X28781Y23750
X32906Y19000
X36406Y25000
X24406Y19125
X24406Y18125
X23636Y12270
X20406Y20000
X19531Y35000
T02
X19575Y42031
X20363Y42031
X20363Y42819
X19575Y42819
X18788Y42819
X18788Y42031
X18000Y42031
X18000Y42819
X17213Y42819
X16426Y42819
X16426Y42031
X17213Y42031
X15638Y42031
X15638Y42819
X14851Y42819
X14851Y42031
X14063Y42031
X14063Y42819
X13276Y42819
X13276Y42031
X12489Y41992
X12489Y42858
X21150Y42819
X21150Y42031
X21937Y42031
X22725Y42031
X22725Y42819
X21937Y42819
X23512Y42819
X23512Y42031
X24300Y42031
X25087Y42031
X25087Y42819
X24300Y42819
X25875Y42819
X25875Y42031
X26662Y42031
X27449Y42031
X27449Y42819
X26662Y42819
X28237Y42819
X28237Y42031
X29024Y42031
X29024Y42819
X29812Y42819
X30599Y42819
X30599Y42031
X29812Y42031
X31386Y42031
X31386Y42819
X32174Y42819
X32961Y42819
X32961Y42031
X32174Y42031
X33749Y42031
X33749Y42819
X34536Y42819
X34536Y42031
X35323Y41992
X35323Y42858
T03
X29706Y36500
X28706Y36500
X27706Y36500
X27406Y35500
X26706Y36500
X26406Y35500
X25706Y36500
X24706Y36500
X26406Y34500
X26406Y33500
X27406Y33500
X27406Y34500
X25406Y31500
X25706Y21500
X26706Y21500
X27706Y21500
X28706Y21500
X29706Y21500
X24706Y21500
X12406Y30500
X12406Y31500
X11406Y31500
X11406Y30500
X10406Y30500
X10406Y31500
T04
X10656Y42660
X26906Y38700
X37156Y42660
X26906Y19300
T05
X18656Y21000
X18656Y37000
X35156Y37000
X35156Y21000
T06
X8406Y6000
X8406Y43000
X37406Y6000
M30
