G75*
%MOIN*%
%OFA0B0*%
%FSLAX25Y25*%
%IPPOS*%
%LPD*%
%AMOC8*
5,1,8,0,0,1.08239X$1,22.5*
%
%ADD10R,0.04724X0.05512*%
%ADD11R,0.04724X0.02362*%
%ADD12R,0.05512X0.07087*%
%ADD13R,0.07480X0.05512*%
%ADD14R,0.05906X0.03150*%
%ADD15R,0.03937X0.04331*%
D10*
X0268154Y0150000D03*
X0279966Y0150000D03*
X0308154Y0150000D03*
X0319966Y0150000D03*
D11*
X0108036Y0182500D03*
X0108036Y0187500D03*
X0108036Y0192500D03*
X0108036Y0197500D03*
X0108036Y0202500D03*
X0108036Y0207500D03*
X0108036Y0212500D03*
X0130084Y0212500D03*
X0130084Y0207500D03*
X0130084Y0202500D03*
X0130084Y0197500D03*
X0130084Y0192500D03*
X0130084Y0187500D03*
X0130084Y0182500D03*
X0130084Y0242500D03*
X0130084Y0247500D03*
X0130084Y0252500D03*
X0130084Y0257500D03*
X0130084Y0262500D03*
X0130084Y0267500D03*
X0130084Y0272500D03*
X0108036Y0272500D03*
X0108036Y0267500D03*
X0108036Y0262500D03*
X0108036Y0257500D03*
X0108036Y0252500D03*
X0108036Y0247500D03*
X0108036Y0242500D03*
D12*
X0142485Y0354488D03*
X0142485Y0376929D03*
D13*
X0090714Y0383228D03*
X0086777Y0331457D03*
D14*
X0101934Y0349803D03*
X0103509Y0354134D03*
X0101934Y0358465D03*
X0101147Y0362795D03*
X0101934Y0367126D03*
X0101147Y0371457D03*
X0101934Y0375787D03*
X0101934Y0380118D03*
D15*
X0149060Y0373346D03*
X0149060Y0366654D03*
M02*
