G75*
%MOIN*%
%OFA0B0*%
%FSLAX25Y25*%
%IPPOS*%
%LPD*%
%AMOC8*
5,1,8,0,0,1.08239X$1,22.5*
%
%ADD10C,0.08200*%
%ADD11C,0.12800*%
%ADD12C,0.11800*%
%ADD13R,0.06146X0.06146*%
%ADD14C,0.06146*%
%ADD15C,0.13800*%
D10*
X0104060Y0305000D03*
X0104060Y0315000D03*
X0114060Y0315000D03*
X0114060Y0305000D03*
X0124060Y0305000D03*
X0124060Y0315000D03*
X0247060Y0365000D03*
X0257060Y0365000D03*
X0264060Y0355000D03*
X0267060Y0365000D03*
X0274060Y0355000D03*
X0277060Y0365000D03*
X0287060Y0365000D03*
X0297060Y0365000D03*
X0274060Y0345000D03*
X0274060Y0335000D03*
X0264060Y0335000D03*
X0264060Y0345000D03*
X0254060Y0315000D03*
X0257060Y0215000D03*
X0267060Y0215000D03*
X0277060Y0215000D03*
X0287060Y0215000D03*
X0297060Y0215000D03*
X0247060Y0215000D03*
D11*
X0186560Y0210000D03*
X0186560Y0370000D03*
X0351560Y0370000D03*
X0351560Y0210000D03*
D12*
X0269060Y0193000D03*
X0269060Y0387000D03*
X0371560Y0426600D03*
X0106560Y0426600D03*
D13*
X0124887Y0419921D03*
D14*
X0124887Y0428583D03*
X0132761Y0428189D03*
X0132761Y0420315D03*
X0140635Y0420315D03*
X0148509Y0420315D03*
X0148509Y0428189D03*
X0140635Y0428189D03*
X0156383Y0428189D03*
X0156383Y0420315D03*
X0164257Y0420315D03*
X0172131Y0420315D03*
X0172131Y0428189D03*
X0164257Y0428189D03*
X0180005Y0428189D03*
X0180005Y0420315D03*
X0187879Y0420315D03*
X0187879Y0428189D03*
X0195753Y0428189D03*
X0203627Y0428189D03*
X0203627Y0420315D03*
X0195753Y0420315D03*
X0211501Y0420315D03*
X0211501Y0428189D03*
X0219375Y0428189D03*
X0227249Y0428189D03*
X0227249Y0420315D03*
X0219375Y0420315D03*
X0235123Y0420315D03*
X0235123Y0428189D03*
X0242997Y0428189D03*
X0250871Y0428189D03*
X0250871Y0420315D03*
X0242997Y0420315D03*
X0258745Y0420315D03*
X0258745Y0428189D03*
X0266619Y0428189D03*
X0266619Y0420315D03*
X0274493Y0420315D03*
X0274493Y0428189D03*
X0282367Y0428189D03*
X0282367Y0420315D03*
X0290241Y0420315D03*
X0290241Y0428189D03*
X0298115Y0428189D03*
X0298115Y0420315D03*
X0305989Y0420315D03*
X0305989Y0428189D03*
X0313863Y0428189D03*
X0313863Y0420315D03*
X0321737Y0420315D03*
X0321737Y0428189D03*
X0329611Y0428189D03*
X0329611Y0420315D03*
X0337485Y0420315D03*
X0337485Y0428189D03*
X0345359Y0428189D03*
X0345359Y0420315D03*
X0353233Y0419921D03*
X0353233Y0428583D03*
D15*
X0084060Y0060000D03*
X0084060Y0430000D03*
X0374060Y0060000D03*
M02*
