G75*
%MOIN*%
%OFA0B0*%
%FSLAX25Y25*%
%IPPOS*%
%LPD*%
%AMOC8*
5,1,8,0,0,1.08239X$1,22.5*
%
%ADD10C,0.08200*%
%ADD11C,0.12800*%
%ADD12C,0.11800*%
%ADD13R,0.06146X0.06146*%
%ADD14C,0.06146*%
%ADD15R,0.05524X0.06312*%
%ADD16C,0.13800*%
%ADD17R,0.05524X0.03162*%
%ADD18R,0.05800X0.03300*%
%ADD19R,0.06312X0.07887*%
%ADD20R,0.08280X0.06312*%
%ADD21R,0.06706X0.03950*%
%ADD22R,0.04737X0.05131*%
D10*
X0104060Y0305000D03*
X0104060Y0315000D03*
X0114060Y0315000D03*
X0114060Y0305000D03*
X0124060Y0305000D03*
X0124060Y0315000D03*
X0247060Y0365000D03*
X0257060Y0365000D03*
X0264060Y0355000D03*
X0267060Y0365000D03*
X0274060Y0355000D03*
X0277060Y0365000D03*
X0287060Y0365000D03*
X0297060Y0365000D03*
X0274060Y0345000D03*
X0274060Y0335000D03*
X0264060Y0335000D03*
X0264060Y0345000D03*
X0254060Y0315000D03*
X0257060Y0215000D03*
X0267060Y0215000D03*
X0277060Y0215000D03*
X0287060Y0215000D03*
X0297060Y0215000D03*
X0247060Y0215000D03*
D11*
X0186560Y0210000D03*
X0186560Y0370000D03*
X0351560Y0370000D03*
X0351560Y0210000D03*
D12*
X0269060Y0193000D03*
X0269060Y0387000D03*
X0371560Y0426600D03*
X0106560Y0426600D03*
D13*
X0124887Y0419921D03*
D14*
X0124887Y0428583D03*
X0132761Y0428189D03*
X0132761Y0420315D03*
X0140635Y0420315D03*
X0148509Y0420315D03*
X0148509Y0428189D03*
X0140635Y0428189D03*
X0156383Y0428189D03*
X0156383Y0420315D03*
X0164257Y0420315D03*
X0172131Y0420315D03*
X0172131Y0428189D03*
X0164257Y0428189D03*
X0180005Y0428189D03*
X0180005Y0420315D03*
X0187879Y0420315D03*
X0187879Y0428189D03*
X0195753Y0428189D03*
X0203627Y0428189D03*
X0203627Y0420315D03*
X0195753Y0420315D03*
X0211501Y0420315D03*
X0211501Y0428189D03*
X0219375Y0428189D03*
X0227249Y0428189D03*
X0227249Y0420315D03*
X0219375Y0420315D03*
X0235123Y0420315D03*
X0235123Y0428189D03*
X0242997Y0428189D03*
X0250871Y0428189D03*
X0250871Y0420315D03*
X0242997Y0420315D03*
X0258745Y0420315D03*
X0258745Y0428189D03*
X0266619Y0428189D03*
X0266619Y0420315D03*
X0274493Y0420315D03*
X0274493Y0428189D03*
X0282367Y0428189D03*
X0282367Y0420315D03*
X0290241Y0420315D03*
X0290241Y0428189D03*
X0298115Y0428189D03*
X0298115Y0420315D03*
X0305989Y0420315D03*
X0305989Y0428189D03*
X0313863Y0428189D03*
X0313863Y0420315D03*
X0321737Y0420315D03*
X0321737Y0428189D03*
X0329611Y0428189D03*
X0329611Y0420315D03*
X0337485Y0420315D03*
X0337485Y0428189D03*
X0345359Y0428189D03*
X0345359Y0420315D03*
X0353233Y0419921D03*
X0353233Y0428583D03*
D15*
X0319966Y0150000D03*
X0308154Y0150000D03*
X0279966Y0150000D03*
X0268154Y0150000D03*
D16*
X0084060Y0060000D03*
X0084060Y0430000D03*
X0374060Y0060000D03*
D17*
X0130084Y0182500D03*
X0130084Y0187500D03*
X0130084Y0192500D03*
X0130084Y0197500D03*
X0130084Y0202500D03*
X0130084Y0207500D03*
X0130084Y0212500D03*
X0108036Y0212500D03*
X0108036Y0207500D03*
X0108036Y0202500D03*
X0108036Y0197500D03*
X0108036Y0192500D03*
X0108036Y0187500D03*
X0108036Y0182500D03*
X0108036Y0242500D03*
X0108036Y0247500D03*
X0108036Y0252500D03*
X0108036Y0257500D03*
X0108036Y0262500D03*
X0108036Y0267500D03*
X0108036Y0272500D03*
X0130084Y0272500D03*
X0130084Y0267500D03*
X0130084Y0262500D03*
X0130084Y0257500D03*
X0130084Y0252500D03*
X0130084Y0247500D03*
X0130084Y0242500D03*
D18*
X0144060Y0243400D03*
X0144060Y0246600D03*
X0144060Y0253400D03*
X0144060Y0256600D03*
X0144060Y0196600D03*
X0144060Y0193400D03*
X0144060Y0186600D03*
X0144060Y0183400D03*
X0094060Y0198400D03*
X0094060Y0201600D03*
X0094060Y0208400D03*
X0094060Y0211600D03*
X0094060Y0258400D03*
X0094060Y0261600D03*
X0094060Y0268400D03*
X0094060Y0271600D03*
D19*
X0142485Y0354488D03*
X0142485Y0376929D03*
D20*
X0090714Y0383228D03*
X0086777Y0331457D03*
D21*
X0101934Y0349803D03*
X0103509Y0354134D03*
X0101934Y0358465D03*
X0101147Y0362795D03*
X0101934Y0367126D03*
X0101147Y0371457D03*
X0101934Y0375787D03*
X0101934Y0380118D03*
D22*
X0149060Y0373346D03*
X0149060Y0366654D03*
M02*
