G75*
%MOIN*%
%OFA0B0*%
%FSLAX25Y25*%
%IPPOS*%
%LPD*%
%AMOC8*
5,1,8,0,0,1.08239X$1,22.5*
%
%ADD10C,0.00800*%
%ADD11C,0.03000*%
%ADD12C,0.00900*%
%ADD13C,0.02000*%
%ADD14C,0.01500*%
%ADD15C,0.01200*%
%ADD16R,0.07205X0.00118*%
%ADD17R,0.07913X0.00118*%
%ADD18R,0.08386X0.00079*%
%ADD19R,0.08858X0.00157*%
%ADD20R,0.09094X0.00118*%
%ADD21R,0.09331X0.00118*%
%ADD22R,0.09567X0.00079*%
%ADD23R,0.03661X0.00118*%
%ADD24R,0.02126X0.00118*%
%ADD25R,0.02953X0.00118*%
%ADD26R,0.02244X0.00157*%
%ADD27R,0.00591X0.00157*%
%ADD28R,0.01535X0.00157*%
%ADD29R,0.02598X0.00157*%
%ADD30R,0.02244X0.00118*%
%ADD31R,0.00472X0.00118*%
%ADD32R,0.01181X0.00118*%
%ADD33R,0.02362X0.00118*%
%ADD34R,0.00945X0.00118*%
%ADD35R,0.00354X0.00118*%
%ADD36R,0.00827X0.00118*%
%ADD37R,0.02480X0.00157*%
%ADD38R,0.00354X0.00157*%
%ADD39R,0.00236X0.00157*%
%ADD40R,0.02480X0.00118*%
%ADD41R,0.02598X0.00118*%
%ADD42R,0.01063X0.00118*%
%ADD43R,0.02835X0.00118*%
%ADD44R,0.00472X0.00157*%
%ADD45R,0.04252X0.00157*%
%ADD46R,0.04370X0.00118*%
%ADD47R,0.00591X0.00118*%
%ADD48R,0.04488X0.00118*%
%ADD49R,0.00709X0.00157*%
%ADD50R,0.04488X0.00157*%
%ADD51R,0.00236X0.00118*%
%ADD52R,0.00118X0.00118*%
%ADD53R,0.00118X0.00157*%
%ADD54R,0.04370X0.00157*%
%ADD55R,0.04252X0.00118*%
%ADD56R,0.02717X0.00118*%
%ADD57R,0.03071X0.00157*%
%ADD58R,0.03425X0.00118*%
%ADD59R,0.09567X0.00118*%
%ADD60R,0.08858X0.00118*%
%ADD61R,0.08386X0.00118*%
%ADD62R,0.10748X0.00118*%
%ADD63R,0.11457X0.00118*%
%ADD64R,0.11929X0.00079*%
%ADD65R,0.12402X0.00157*%
%ADD66R,0.12638X0.00118*%
%ADD67R,0.12874X0.00118*%
%ADD68R,0.13110X0.00079*%
%ADD69R,0.04961X0.00118*%
%ADD70R,0.03071X0.00118*%
%ADD71R,0.05079X0.00118*%
%ADD72R,0.00945X0.00157*%
%ADD73R,0.01181X0.00157*%
%ADD74R,0.02835X0.00157*%
%ADD75R,0.00709X0.00118*%
%ADD76R,0.00827X0.00157*%
%ADD77R,0.01299X0.00118*%
%ADD78R,0.01654X0.00118*%
%ADD79R,0.01063X0.00157*%
%ADD80R,0.02126X0.00157*%
%ADD81R,0.01417X0.00118*%
%ADD82R,0.13110X0.00118*%
%ADD83R,0.12402X0.00118*%
%ADD84R,0.11929X0.00118*%
%ADD85R,0.00197X0.00197*%
%ADD86R,0.01378X0.00197*%
%ADD87R,0.02756X0.00197*%
%ADD88R,0.01181X0.00197*%
%ADD89R,0.00394X0.00197*%
%ADD90R,0.02165X0.00197*%
%ADD91R,0.00984X0.00197*%
%ADD92R,0.02362X0.00197*%
%ADD93R,0.03740X0.00197*%
%ADD94R,0.01969X0.00197*%
%ADD95R,0.01772X0.00197*%
%ADD96R,0.02559X0.00197*%
%ADD97R,0.02953X0.00197*%
%ADD98R,0.03150X0.00197*%
%ADD99R,0.01575X0.00197*%
%ADD100R,0.03346X0.00197*%
%ADD101R,0.03543X0.00197*%
%ADD102R,0.00591X0.00197*%
%ADD103R,0.00787X0.00197*%
%ADD104R,0.01575X0.00236*%
%ADD105R,0.01378X0.00236*%
%ADD106R,0.02559X0.00236*%
%ADD107R,0.01969X0.00236*%
%ADD108R,0.03543X0.00236*%
%ADD109R,0.03150X0.00236*%
%ADD110R,0.02756X0.00236*%
%ADD111R,0.03937X0.00197*%
%ADD112R,0.04134X0.00197*%
%ADD113R,0.04331X0.00197*%
%ADD114R,0.04528X0.00197*%
%ADD115R,0.04724X0.00236*%
%ADD116R,0.03346X0.00236*%
%ADD117R,0.01181X0.00236*%
%ADD118R,0.00984X0.00236*%
%ADD119R,0.04921X0.00197*%
%ADD120R,0.05315X0.00197*%
%ADD121R,0.03937X0.00236*%
%ADD122R,0.02362X0.00236*%
%ADD123R,0.00945X0.00236*%
%ADD124R,0.01654X0.00236*%
%ADD125R,0.01417X0.00236*%
%ADD126R,0.02598X0.00236*%
%ADD127R,0.00709X0.00236*%
%ADD128R,0.03307X0.00236*%
%ADD129R,0.03780X0.00236*%
%ADD130R,0.04016X0.00236*%
%ADD131R,0.01890X0.00236*%
%ADD132R,0.00472X0.00236*%
%ADD133R,0.03071X0.00236*%
%ADD134R,0.02835X0.00236*%
%ADD135R,0.04252X0.00236*%
%ADD136R,0.04488X0.00236*%
%ADD137R,0.02126X0.00236*%
%ADD138R,0.00236X0.00236*%
%ADD139R,0.12165X0.00118*%
%ADD140R,0.12638X0.00079*%
%ADD141R,0.13110X0.00157*%
%ADD142R,0.13346X0.00118*%
%ADD143R,0.13583X0.00118*%
%ADD144R,0.13819X0.00079*%
%ADD145R,0.10630X0.00118*%
%ADD146R,0.02008X0.00118*%
%ADD147R,0.02362X0.00157*%
%ADD148R,0.01535X0.00118*%
%ADD149R,0.03543X0.00118*%
%ADD150R,0.01299X0.00157*%
%ADD151R,0.03543X0.00157*%
%ADD152R,0.01772X0.00118*%
%ADD153R,0.02717X0.00157*%
%ADD154R,0.03189X0.00118*%
%ADD155R,0.03898X0.00157*%
%ADD156R,0.03425X0.00157*%
%ADD157R,0.03307X0.00118*%
%ADD158R,0.01417X0.00157*%
%ADD159R,0.01654X0.00157*%
%ADD160R,0.03189X0.00157*%
%ADD161R,0.13819X0.00118*%
%ADD162R,0.04961X0.00236*%
%ADD163R,0.05906X0.00236*%
%ADD164R,0.05433X0.00236*%
%ADD165R,0.01732X0.00157*%
%ADD166R,0.00157X0.00157*%
%ADD167R,0.00315X0.00157*%
%ADD168R,0.02520X0.00157*%
%ADD169R,0.00787X0.00157*%
%ADD170R,0.01102X0.00157*%
%ADD171R,0.02992X0.00157*%
%ADD172R,0.01260X0.00157*%
%ADD173R,0.03150X0.00157*%
%ADD174R,0.01575X0.00157*%
%ADD175R,0.02205X0.00157*%
%ADD176R,0.02047X0.00157*%
%ADD177R,0.01890X0.00157*%
%ADD178R,0.03307X0.00157*%
%ADD179R,0.02677X0.00157*%
%ADD180R,0.00630X0.00157*%
%ADD181R,0.03465X0.00157*%
%ADD182R,0.00157X0.15276*%
%ADD183R,0.00157X0.03307*%
%ADD184R,0.00157X0.11024*%
%ADD185R,0.00157X0.02992*%
%ADD186R,0.00157X0.01260*%
%ADD187R,0.00157X0.01890*%
%ADD188R,0.00157X0.00630*%
%ADD189R,0.00157X0.02677*%
%ADD190R,0.00157X0.00787*%
%ADD191R,0.00157X0.01575*%
%ADD192R,0.00157X0.00472*%
%ADD193R,0.00157X0.02520*%
%ADD194R,0.00157X0.01417*%
%ADD195R,0.00157X0.02205*%
%ADD196R,0.00157X0.02362*%
%ADD197R,0.00157X0.02047*%
%ADD198R,0.00157X0.01102*%
%ADD199R,0.00157X0.00945*%
%ADD200R,0.00157X0.02835*%
%ADD201R,0.00157X0.01732*%
%ADD202R,0.00157X0.00315*%
%ADD203R,0.00157X0.03150*%
%ADD204R,0.00157X0.14331*%
%ADD205R,0.00157X0.07087*%
%ADD206R,0.00157X0.03465*%
%ADD207R,0.00157X0.13858*%
%ADD208R,0.00157X0.14646*%
%ADD209R,0.00157X0.14961*%
%ADD210R,0.00157X0.15118*%
%ADD211R,0.00157X0.15433*%
%ADD212R,0.00157X0.11969*%
%ADD213R,0.00157X0.04567*%
%ADD214R,0.00157X0.04409*%
%ADD215R,0.00157X0.04252*%
%ADD216R,0.00157X0.04094*%
%ADD217R,0.00157X0.03937*%
%ADD218R,0.00157X0.03780*%
%ADD219R,0.00157X0.12913*%
%ADD220R,0.00157X0.13386*%
%ADD221R,0.00157X0.13701*%
%ADD222R,0.00157X0.14016*%
%ADD223R,0.00157X0.14173*%
%ADD224R,0.00157X0.14488*%
%ADD225R,0.00157X0.04882*%
%ADD226R,0.00157X0.05039*%
%ADD227R,0.00157X0.05197*%
%ADD228R,0.00157X0.03622*%
%ADD229R,0.00157X0.12756*%
%ADD230R,0.00157X0.12598*%
%ADD231R,0.00157X0.12441*%
%ADD232R,0.00157X0.12283*%
%ADD233R,0.00157X0.11181*%
%ADD234R,0.00157X0.10866*%
%ADD235R,0.00157X0.10709*%
%ADD236R,0.00157X0.12126*%
%ADD237R,0.00157X0.11496*%
%ADD238R,0.00157X0.11654*%
%ADD239R,0.00157X0.13071*%
%ADD240R,0.00157X0.13228*%
%ADD241R,0.00157X0.11811*%
%ADD242C,0.00500*%
%ADD243C,0.01600*%
D10*
X0112860Y0180000D02*
X0117060Y0180000D01*
X0121060Y0180000D01*
X0125260Y0180000D01*
X0125360Y0180000D02*
X0125360Y0215000D01*
X0125260Y0215000D02*
X0112860Y0215000D01*
X0112784Y0214998D01*
X0112708Y0214992D01*
X0112633Y0214983D01*
X0112558Y0214969D01*
X0112484Y0214952D01*
X0112411Y0214931D01*
X0112339Y0214907D01*
X0112268Y0214878D01*
X0112199Y0214847D01*
X0112132Y0214812D01*
X0112067Y0214773D01*
X0112003Y0214731D01*
X0111942Y0214686D01*
X0111883Y0214638D01*
X0111827Y0214587D01*
X0111773Y0214533D01*
X0111722Y0214477D01*
X0111674Y0214418D01*
X0111629Y0214357D01*
X0111587Y0214293D01*
X0111548Y0214228D01*
X0111513Y0214161D01*
X0111482Y0214092D01*
X0111453Y0214021D01*
X0111429Y0213949D01*
X0111408Y0213876D01*
X0111391Y0213802D01*
X0111377Y0213727D01*
X0111368Y0213652D01*
X0111362Y0213576D01*
X0111360Y0213500D01*
X0111360Y0181500D01*
X0111362Y0181424D01*
X0111368Y0181348D01*
X0111377Y0181273D01*
X0111391Y0181198D01*
X0111408Y0181124D01*
X0111429Y0181051D01*
X0111453Y0180979D01*
X0111482Y0180908D01*
X0111513Y0180839D01*
X0111548Y0180772D01*
X0111587Y0180707D01*
X0111629Y0180643D01*
X0111674Y0180582D01*
X0111722Y0180523D01*
X0111773Y0180467D01*
X0111827Y0180413D01*
X0111883Y0180362D01*
X0111942Y0180314D01*
X0112003Y0180269D01*
X0112067Y0180227D01*
X0112132Y0180188D01*
X0112199Y0180153D01*
X0112268Y0180122D01*
X0112339Y0180093D01*
X0112411Y0180069D01*
X0112484Y0180048D01*
X0112558Y0180031D01*
X0112633Y0180017D01*
X0112708Y0180008D01*
X0112784Y0180002D01*
X0112860Y0180000D01*
X0117060Y0180000D02*
X0117062Y0180088D01*
X0117068Y0180177D01*
X0117078Y0180265D01*
X0117091Y0180352D01*
X0117109Y0180439D01*
X0117130Y0180525D01*
X0117155Y0180610D01*
X0117184Y0180693D01*
X0117217Y0180776D01*
X0117253Y0180856D01*
X0117292Y0180935D01*
X0117335Y0181013D01*
X0117382Y0181088D01*
X0117432Y0181161D01*
X0117485Y0181232D01*
X0117541Y0181301D01*
X0117600Y0181367D01*
X0117662Y0181430D01*
X0117726Y0181490D01*
X0117793Y0181548D01*
X0117863Y0181602D01*
X0117935Y0181654D01*
X0118009Y0181702D01*
X0118086Y0181747D01*
X0118164Y0181788D01*
X0118244Y0181826D01*
X0118325Y0181860D01*
X0118408Y0181891D01*
X0118493Y0181918D01*
X0118578Y0181941D01*
X0118664Y0181960D01*
X0118752Y0181976D01*
X0118839Y0181988D01*
X0118927Y0181996D01*
X0119016Y0182000D01*
X0119104Y0182000D01*
X0119193Y0181996D01*
X0119281Y0181988D01*
X0119368Y0181976D01*
X0119456Y0181960D01*
X0119542Y0181941D01*
X0119627Y0181918D01*
X0119712Y0181891D01*
X0119795Y0181860D01*
X0119876Y0181826D01*
X0119956Y0181788D01*
X0120034Y0181747D01*
X0120111Y0181702D01*
X0120185Y0181654D01*
X0120257Y0181602D01*
X0120327Y0181548D01*
X0120394Y0181490D01*
X0120458Y0181430D01*
X0120520Y0181367D01*
X0120579Y0181301D01*
X0120635Y0181232D01*
X0120688Y0181161D01*
X0120738Y0181088D01*
X0120785Y0181013D01*
X0120828Y0180935D01*
X0120867Y0180856D01*
X0120903Y0180776D01*
X0120936Y0180693D01*
X0120965Y0180610D01*
X0120990Y0180525D01*
X0121011Y0180439D01*
X0121029Y0180352D01*
X0121042Y0180265D01*
X0121052Y0180177D01*
X0121058Y0180088D01*
X0121060Y0180000D01*
X0125260Y0180000D02*
X0125336Y0180002D01*
X0125412Y0180008D01*
X0125487Y0180017D01*
X0125562Y0180031D01*
X0125636Y0180048D01*
X0125709Y0180069D01*
X0125781Y0180093D01*
X0125852Y0180122D01*
X0125921Y0180153D01*
X0125988Y0180188D01*
X0126053Y0180227D01*
X0126117Y0180269D01*
X0126178Y0180314D01*
X0126237Y0180362D01*
X0126293Y0180413D01*
X0126347Y0180467D01*
X0126398Y0180523D01*
X0126446Y0180582D01*
X0126491Y0180643D01*
X0126533Y0180707D01*
X0126572Y0180772D01*
X0126607Y0180839D01*
X0126638Y0180908D01*
X0126667Y0180979D01*
X0126691Y0181051D01*
X0126712Y0181124D01*
X0126729Y0181198D01*
X0126743Y0181273D01*
X0126752Y0181348D01*
X0126758Y0181424D01*
X0126760Y0181500D01*
X0126760Y0213500D01*
X0126758Y0213576D01*
X0126752Y0213652D01*
X0126743Y0213727D01*
X0126729Y0213802D01*
X0126712Y0213876D01*
X0126691Y0213949D01*
X0126667Y0214021D01*
X0126638Y0214092D01*
X0126607Y0214161D01*
X0126572Y0214228D01*
X0126533Y0214293D01*
X0126491Y0214357D01*
X0126446Y0214418D01*
X0126398Y0214477D01*
X0126347Y0214533D01*
X0126293Y0214587D01*
X0126237Y0214638D01*
X0126178Y0214686D01*
X0126117Y0214731D01*
X0126053Y0214773D01*
X0125988Y0214812D01*
X0125921Y0214847D01*
X0125852Y0214878D01*
X0125781Y0214907D01*
X0125709Y0214931D01*
X0125636Y0214952D01*
X0125562Y0214969D01*
X0125487Y0214983D01*
X0125412Y0214992D01*
X0125336Y0214998D01*
X0125260Y0215000D01*
X0125260Y0240000D02*
X0121060Y0240000D01*
X0117060Y0240000D01*
X0112860Y0240000D01*
X0112784Y0240002D01*
X0112708Y0240008D01*
X0112633Y0240017D01*
X0112558Y0240031D01*
X0112484Y0240048D01*
X0112411Y0240069D01*
X0112339Y0240093D01*
X0112268Y0240122D01*
X0112199Y0240153D01*
X0112132Y0240188D01*
X0112067Y0240227D01*
X0112003Y0240269D01*
X0111942Y0240314D01*
X0111883Y0240362D01*
X0111827Y0240413D01*
X0111773Y0240467D01*
X0111722Y0240523D01*
X0111674Y0240582D01*
X0111629Y0240643D01*
X0111587Y0240707D01*
X0111548Y0240772D01*
X0111513Y0240839D01*
X0111482Y0240908D01*
X0111453Y0240979D01*
X0111429Y0241051D01*
X0111408Y0241124D01*
X0111391Y0241198D01*
X0111377Y0241273D01*
X0111368Y0241348D01*
X0111362Y0241424D01*
X0111360Y0241500D01*
X0111360Y0273500D01*
X0111362Y0273576D01*
X0111368Y0273652D01*
X0111377Y0273727D01*
X0111391Y0273802D01*
X0111408Y0273876D01*
X0111429Y0273949D01*
X0111453Y0274021D01*
X0111482Y0274092D01*
X0111513Y0274161D01*
X0111548Y0274228D01*
X0111587Y0274293D01*
X0111629Y0274357D01*
X0111674Y0274418D01*
X0111722Y0274477D01*
X0111773Y0274533D01*
X0111827Y0274587D01*
X0111883Y0274638D01*
X0111942Y0274686D01*
X0112003Y0274731D01*
X0112067Y0274773D01*
X0112132Y0274812D01*
X0112199Y0274847D01*
X0112268Y0274878D01*
X0112339Y0274907D01*
X0112411Y0274931D01*
X0112484Y0274952D01*
X0112558Y0274969D01*
X0112633Y0274983D01*
X0112708Y0274992D01*
X0112784Y0274998D01*
X0112860Y0275000D01*
X0125260Y0275000D01*
X0125360Y0275000D02*
X0125360Y0240000D01*
X0125260Y0240000D02*
X0125336Y0240002D01*
X0125412Y0240008D01*
X0125487Y0240017D01*
X0125562Y0240031D01*
X0125636Y0240048D01*
X0125709Y0240069D01*
X0125781Y0240093D01*
X0125852Y0240122D01*
X0125921Y0240153D01*
X0125988Y0240188D01*
X0126053Y0240227D01*
X0126117Y0240269D01*
X0126178Y0240314D01*
X0126237Y0240362D01*
X0126293Y0240413D01*
X0126347Y0240467D01*
X0126398Y0240523D01*
X0126446Y0240582D01*
X0126491Y0240643D01*
X0126533Y0240707D01*
X0126572Y0240772D01*
X0126607Y0240839D01*
X0126638Y0240908D01*
X0126667Y0240979D01*
X0126691Y0241051D01*
X0126712Y0241124D01*
X0126729Y0241198D01*
X0126743Y0241273D01*
X0126752Y0241348D01*
X0126758Y0241424D01*
X0126760Y0241500D01*
X0126760Y0273500D01*
X0126758Y0273576D01*
X0126752Y0273652D01*
X0126743Y0273727D01*
X0126729Y0273802D01*
X0126712Y0273876D01*
X0126691Y0273949D01*
X0126667Y0274021D01*
X0126638Y0274092D01*
X0126607Y0274161D01*
X0126572Y0274228D01*
X0126533Y0274293D01*
X0126491Y0274357D01*
X0126446Y0274418D01*
X0126398Y0274477D01*
X0126347Y0274533D01*
X0126293Y0274587D01*
X0126237Y0274638D01*
X0126178Y0274686D01*
X0126117Y0274731D01*
X0126053Y0274773D01*
X0125988Y0274812D01*
X0125921Y0274847D01*
X0125852Y0274878D01*
X0125781Y0274907D01*
X0125709Y0274931D01*
X0125636Y0274952D01*
X0125562Y0274969D01*
X0125487Y0274983D01*
X0125412Y0274992D01*
X0125336Y0274998D01*
X0125260Y0275000D01*
X0125587Y0278400D02*
X0125587Y0280502D01*
X0124886Y0281202D01*
X0124185Y0280502D01*
X0124185Y0278400D01*
X0122784Y0278400D02*
X0122784Y0281202D01*
X0123485Y0281202D01*
X0124185Y0280502D01*
X0120983Y0280502D02*
X0120983Y0278400D01*
X0119581Y0278400D02*
X0119581Y0280502D01*
X0120282Y0281202D01*
X0120983Y0280502D01*
X0119581Y0280502D02*
X0118881Y0281202D01*
X0118180Y0281202D01*
X0118180Y0278400D01*
X0116379Y0278400D02*
X0116379Y0280502D01*
X0115678Y0281202D01*
X0114277Y0281202D01*
X0114277Y0279801D02*
X0116379Y0279801D01*
X0116379Y0278400D02*
X0114277Y0278400D01*
X0113576Y0279101D01*
X0114277Y0279801D01*
X0111841Y0281202D02*
X0111141Y0281202D01*
X0109740Y0279801D01*
X0109740Y0278400D02*
X0109740Y0281202D01*
X0107938Y0281202D02*
X0105836Y0281202D01*
X0105136Y0280502D01*
X0105136Y0279101D01*
X0105836Y0278400D01*
X0107938Y0278400D01*
X0107938Y0277699D02*
X0107938Y0281202D01*
X0107938Y0277699D02*
X0107238Y0276999D01*
X0106537Y0276999D01*
X0103334Y0279101D02*
X0103334Y0280502D01*
X0102634Y0281202D01*
X0101232Y0281202D01*
X0100532Y0280502D01*
X0100532Y0279101D01*
X0101232Y0278400D01*
X0102634Y0278400D01*
X0103334Y0279101D01*
X0098797Y0281202D02*
X0098096Y0281202D01*
X0096695Y0279801D01*
X0096695Y0278400D02*
X0096695Y0281202D01*
X0094894Y0280502D02*
X0094193Y0279801D01*
X0092091Y0279801D01*
X0092091Y0278400D02*
X0092091Y0282604D01*
X0094193Y0282604D01*
X0094894Y0281903D01*
X0094894Y0280502D01*
X0094327Y0285900D02*
X0093626Y0286601D01*
X0093626Y0288002D01*
X0094327Y0288702D01*
X0095728Y0288702D01*
X0096428Y0288002D01*
X0096428Y0287301D01*
X0093626Y0287301D01*
X0094327Y0285900D02*
X0095728Y0285900D01*
X0098230Y0285900D02*
X0098230Y0288702D01*
X0098230Y0287301D02*
X0099631Y0288702D01*
X0100332Y0288702D01*
X0102066Y0288702D02*
X0104168Y0288702D01*
X0104869Y0288002D01*
X0104869Y0285900D01*
X0106670Y0286601D02*
X0107371Y0287301D01*
X0109473Y0287301D01*
X0109473Y0288002D02*
X0109473Y0285900D01*
X0107371Y0285900D01*
X0106670Y0286601D01*
X0107371Y0288702D02*
X0108772Y0288702D01*
X0109473Y0288002D01*
X0111274Y0290104D02*
X0111975Y0290104D01*
X0111975Y0285900D01*
X0112675Y0285900D02*
X0111274Y0285900D01*
X0111525Y0293400D02*
X0110123Y0293400D01*
X0110824Y0293400D02*
X0110824Y0296202D01*
X0110123Y0296202D01*
X0110824Y0297604D02*
X0110824Y0298304D01*
X0108455Y0296202D02*
X0107054Y0296202D01*
X0107755Y0296903D02*
X0107755Y0294101D01*
X0108455Y0293400D01*
X0105253Y0294101D02*
X0105253Y0295502D01*
X0104552Y0296202D01*
X0102450Y0296202D01*
X0102450Y0291999D01*
X0102450Y0293400D02*
X0104552Y0293400D01*
X0105253Y0294101D01*
X0100649Y0294101D02*
X0100649Y0296903D01*
X0099948Y0297604D01*
X0098547Y0297604D01*
X0097846Y0296903D01*
X0097846Y0294101D01*
X0098547Y0293400D01*
X0099948Y0293400D01*
X0100649Y0294101D01*
X0102066Y0288702D02*
X0102066Y0285900D01*
X0091958Y0285900D02*
X0091257Y0286601D01*
X0091257Y0289403D01*
X0090557Y0288702D02*
X0091958Y0288702D01*
X0088755Y0288702D02*
X0085953Y0285900D01*
X0084151Y0285900D02*
X0081349Y0285900D01*
X0081349Y0290104D01*
X0084151Y0290104D01*
X0085953Y0288702D02*
X0088755Y0285900D01*
X0082750Y0288002D02*
X0081349Y0288002D01*
X0092091Y0329882D02*
X0144060Y0329882D01*
X0144060Y0349173D01*
X0144060Y0359803D02*
X0144060Y0371614D01*
X0144060Y0382244D02*
X0144060Y0385000D01*
X0096422Y0385000D01*
X0090517Y0378701D02*
X0090517Y0345630D01*
X0090512Y0345504D01*
X0090503Y0345379D01*
X0090490Y0345254D01*
X0090473Y0345130D01*
X0090453Y0345006D01*
X0090429Y0344883D01*
X0090401Y0344761D01*
X0090369Y0344640D01*
X0090333Y0344520D01*
X0090294Y0344401D01*
X0090251Y0344283D01*
X0090204Y0344167D01*
X0090154Y0344052D01*
X0090100Y0343938D01*
X0090042Y0343827D01*
X0089982Y0343717D01*
X0089917Y0343610D01*
X0089850Y0343504D01*
X0089779Y0343400D01*
X0089705Y0343299D01*
X0089628Y0343200D01*
X0089548Y0343103D01*
X0089465Y0343009D01*
X0089380Y0342918D01*
X0089291Y0342829D01*
X0089200Y0342744D01*
X0089106Y0342661D01*
X0089009Y0342581D01*
X0088910Y0342504D01*
X0088809Y0342430D01*
X0088705Y0342359D01*
X0088599Y0342292D01*
X0088492Y0342227D01*
X0088382Y0342167D01*
X0088271Y0342109D01*
X0088157Y0342055D01*
X0088042Y0342005D01*
X0087926Y0341958D01*
X0087808Y0341915D01*
X0087689Y0341876D01*
X0087569Y0341840D01*
X0087448Y0341808D01*
X0087326Y0341780D01*
X0087203Y0341756D01*
X0087079Y0341736D01*
X0086955Y0341719D01*
X0086830Y0341706D01*
X0086705Y0341697D01*
X0086579Y0341692D01*
X0086580Y0341693D02*
X0086479Y0341699D01*
X0086379Y0341701D01*
X0086278Y0341699D01*
X0086178Y0341693D01*
X0086078Y0341683D01*
X0085978Y0341669D01*
X0085879Y0341651D01*
X0085781Y0341629D01*
X0085684Y0341604D01*
X0085587Y0341575D01*
X0085492Y0341542D01*
X0085399Y0341505D01*
X0085307Y0341464D01*
X0085216Y0341420D01*
X0085127Y0341373D01*
X0085041Y0341322D01*
X0084956Y0341268D01*
X0084873Y0341210D01*
X0084793Y0341150D01*
X0084716Y0341086D01*
X0084640Y0341019D01*
X0084568Y0340949D01*
X0084498Y0340877D01*
X0084431Y0340801D01*
X0084367Y0340724D01*
X0084307Y0340644D01*
X0084249Y0340561D01*
X0084195Y0340476D01*
X0084144Y0340390D01*
X0084097Y0340301D01*
X0084053Y0340210D01*
X0084012Y0340118D01*
X0083975Y0340025D01*
X0083942Y0339930D01*
X0083913Y0339833D01*
X0083888Y0339736D01*
X0083866Y0339638D01*
X0083848Y0339539D01*
X0083834Y0339439D01*
X0083824Y0339339D01*
X0083818Y0339239D01*
X0083816Y0339138D01*
X0083818Y0339038D01*
X0083824Y0338937D01*
X0083824Y0335787D01*
X0113893Y0296202D02*
X0113193Y0295502D01*
X0113193Y0294101D01*
X0113893Y0293400D01*
X0115294Y0293400D01*
X0115995Y0294101D01*
X0115995Y0295502D01*
X0115294Y0296202D01*
X0113893Y0296202D01*
X0117797Y0296202D02*
X0117797Y0293400D01*
X0120599Y0293400D02*
X0120599Y0295502D01*
X0119898Y0296202D01*
X0117797Y0296202D01*
X0122400Y0294101D02*
X0123101Y0294801D01*
X0125203Y0294801D01*
X0125203Y0295502D02*
X0125203Y0293400D01*
X0123101Y0293400D01*
X0122400Y0294101D01*
X0123101Y0296202D02*
X0124502Y0296202D01*
X0125203Y0295502D01*
X0127004Y0297604D02*
X0127705Y0297604D01*
X0127705Y0293400D01*
X0127004Y0293400D02*
X0128406Y0293400D01*
X0128155Y0290104D02*
X0130257Y0290104D01*
X0130958Y0289403D01*
X0130958Y0288002D01*
X0130257Y0287301D01*
X0128155Y0287301D01*
X0128155Y0285900D02*
X0128155Y0290104D01*
X0126354Y0290104D02*
X0123551Y0290104D01*
X0123551Y0285900D01*
X0126354Y0285900D01*
X0124953Y0288002D02*
X0123551Y0288002D01*
X0121750Y0290104D02*
X0118948Y0290104D01*
X0118948Y0285900D01*
X0121750Y0285900D01*
X0120349Y0288002D02*
X0118948Y0288002D01*
X0127388Y0280502D02*
X0127388Y0279101D01*
X0128089Y0278400D01*
X0129490Y0278400D01*
X0130190Y0279801D02*
X0127388Y0279801D01*
X0127388Y0280502D02*
X0128089Y0281202D01*
X0129490Y0281202D01*
X0130190Y0280502D01*
X0130190Y0279801D01*
X0131992Y0279801D02*
X0133393Y0281202D01*
X0134094Y0281202D01*
X0131992Y0281202D02*
X0131992Y0278400D01*
X0132759Y0285900D02*
X0132759Y0290104D01*
X0134861Y0290104D01*
X0135562Y0289403D01*
X0135562Y0288002D01*
X0134861Y0287301D01*
X0132759Y0287301D01*
X0134160Y0287301D02*
X0135562Y0285900D01*
X0137363Y0286601D02*
X0138064Y0285900D01*
X0139465Y0285900D01*
X0140166Y0286601D01*
X0140166Y0289403D01*
X0139465Y0290104D01*
X0138064Y0290104D01*
X0137363Y0289403D01*
X0137363Y0286601D01*
X0141967Y0285900D02*
X0141967Y0290104D01*
X0143368Y0288702D01*
X0144770Y0290104D01*
X0144770Y0285900D01*
X0121060Y0240000D02*
X0121058Y0240088D01*
X0121052Y0240177D01*
X0121042Y0240265D01*
X0121029Y0240352D01*
X0121011Y0240439D01*
X0120990Y0240525D01*
X0120965Y0240610D01*
X0120936Y0240693D01*
X0120903Y0240776D01*
X0120867Y0240856D01*
X0120828Y0240935D01*
X0120785Y0241013D01*
X0120738Y0241088D01*
X0120688Y0241161D01*
X0120635Y0241232D01*
X0120579Y0241301D01*
X0120520Y0241367D01*
X0120458Y0241430D01*
X0120394Y0241490D01*
X0120327Y0241548D01*
X0120257Y0241602D01*
X0120185Y0241654D01*
X0120111Y0241702D01*
X0120034Y0241747D01*
X0119956Y0241788D01*
X0119876Y0241826D01*
X0119795Y0241860D01*
X0119712Y0241891D01*
X0119627Y0241918D01*
X0119542Y0241941D01*
X0119456Y0241960D01*
X0119368Y0241976D01*
X0119281Y0241988D01*
X0119193Y0241996D01*
X0119104Y0242000D01*
X0119016Y0242000D01*
X0118927Y0241996D01*
X0118839Y0241988D01*
X0118752Y0241976D01*
X0118664Y0241960D01*
X0118578Y0241941D01*
X0118493Y0241918D01*
X0118408Y0241891D01*
X0118325Y0241860D01*
X0118244Y0241826D01*
X0118164Y0241788D01*
X0118086Y0241747D01*
X0118009Y0241702D01*
X0117935Y0241654D01*
X0117863Y0241602D01*
X0117793Y0241548D01*
X0117726Y0241490D01*
X0117662Y0241430D01*
X0117600Y0241367D01*
X0117541Y0241301D01*
X0117485Y0241232D01*
X0117432Y0241161D01*
X0117382Y0241088D01*
X0117335Y0241013D01*
X0117292Y0240935D01*
X0117253Y0240856D01*
X0117217Y0240776D01*
X0117184Y0240693D01*
X0117155Y0240610D01*
X0117130Y0240525D01*
X0117109Y0240439D01*
X0117091Y0240352D01*
X0117078Y0240265D01*
X0117068Y0240177D01*
X0117062Y0240088D01*
X0117060Y0240000D01*
X0264611Y0153937D02*
X0264611Y0146063D01*
X0270123Y0146063D01*
X0272879Y0147638D02*
X0275241Y0150000D01*
X0272879Y0152362D01*
X0272879Y0147638D01*
X0275241Y0147244D02*
X0275241Y0150000D01*
X0275241Y0152756D01*
X0277997Y0153937D02*
X0283509Y0153937D01*
X0283509Y0146063D01*
X0277997Y0146063D01*
X0270123Y0153937D02*
X0264611Y0153937D01*
X0294060Y0154291D02*
X0294060Y0160000D01*
X0294060Y0150354D02*
X0294060Y0144646D01*
X0294060Y0140709D02*
X0294060Y0135000D01*
X0304611Y0146063D02*
X0304611Y0153937D01*
X0310123Y0153937D01*
X0312879Y0152362D02*
X0312879Y0147638D01*
X0315241Y0150000D01*
X0312879Y0152362D01*
X0315241Y0152756D02*
X0315241Y0150000D01*
X0315241Y0147244D01*
X0317997Y0146063D02*
X0323509Y0146063D01*
X0323509Y0153937D01*
X0317997Y0153937D01*
X0310123Y0146063D02*
X0304611Y0146063D01*
X0221557Y0285000D02*
X0221571Y0286166D01*
X0221614Y0287331D01*
X0221686Y0288495D01*
X0221786Y0289656D01*
X0221914Y0290815D01*
X0222071Y0291970D01*
X0222256Y0293121D01*
X0222470Y0294267D01*
X0222711Y0295408D01*
X0222981Y0296542D01*
X0223278Y0297670D01*
X0223602Y0298789D01*
X0223955Y0299901D01*
X0224334Y0301003D01*
X0224740Y0302096D01*
X0225173Y0303179D01*
X0225632Y0304250D01*
X0226118Y0305310D01*
X0226629Y0306358D01*
X0227166Y0307393D01*
X0227728Y0308414D01*
X0228315Y0309421D01*
X0228927Y0310414D01*
X0229563Y0311391D01*
X0230222Y0312353D01*
X0230905Y0313298D01*
X0231611Y0314225D01*
X0232340Y0315136D01*
X0233090Y0316028D01*
X0233863Y0316901D01*
X0234656Y0317755D01*
X0235470Y0318590D01*
X0236305Y0319404D01*
X0237159Y0320197D01*
X0238032Y0320970D01*
X0238924Y0321720D01*
X0239835Y0322449D01*
X0240762Y0323155D01*
X0241707Y0323838D01*
X0242669Y0324497D01*
X0243646Y0325133D01*
X0244639Y0325745D01*
X0245646Y0326332D01*
X0246667Y0326894D01*
X0247702Y0327431D01*
X0248750Y0327942D01*
X0249810Y0328428D01*
X0250881Y0328887D01*
X0251964Y0329320D01*
X0253057Y0329726D01*
X0254159Y0330105D01*
X0255271Y0330458D01*
X0256390Y0330782D01*
X0257518Y0331079D01*
X0258652Y0331349D01*
X0259793Y0331590D01*
X0260939Y0331804D01*
X0262090Y0331989D01*
X0263245Y0332146D01*
X0264404Y0332274D01*
X0265565Y0332374D01*
X0266729Y0332446D01*
X0267894Y0332489D01*
X0269060Y0332503D01*
X0270226Y0332489D01*
X0271391Y0332446D01*
X0272555Y0332374D01*
X0273716Y0332274D01*
X0274875Y0332146D01*
X0276030Y0331989D01*
X0277181Y0331804D01*
X0278327Y0331590D01*
X0279468Y0331349D01*
X0280602Y0331079D01*
X0281730Y0330782D01*
X0282849Y0330458D01*
X0283961Y0330105D01*
X0285063Y0329726D01*
X0286156Y0329320D01*
X0287239Y0328887D01*
X0288310Y0328428D01*
X0289370Y0327942D01*
X0290418Y0327431D01*
X0291453Y0326894D01*
X0292474Y0326332D01*
X0293481Y0325745D01*
X0294474Y0325133D01*
X0295451Y0324497D01*
X0296413Y0323838D01*
X0297358Y0323155D01*
X0298285Y0322449D01*
X0299196Y0321720D01*
X0300088Y0320970D01*
X0300961Y0320197D01*
X0301815Y0319404D01*
X0302650Y0318590D01*
X0303464Y0317755D01*
X0304257Y0316901D01*
X0305030Y0316028D01*
X0305780Y0315136D01*
X0306509Y0314225D01*
X0307215Y0313298D01*
X0307898Y0312353D01*
X0308557Y0311391D01*
X0309193Y0310414D01*
X0309805Y0309421D01*
X0310392Y0308414D01*
X0310954Y0307393D01*
X0311491Y0306358D01*
X0312002Y0305310D01*
X0312488Y0304250D01*
X0312947Y0303179D01*
X0313380Y0302096D01*
X0313786Y0301003D01*
X0314165Y0299901D01*
X0314518Y0298789D01*
X0314842Y0297670D01*
X0315139Y0296542D01*
X0315409Y0295408D01*
X0315650Y0294267D01*
X0315864Y0293121D01*
X0316049Y0291970D01*
X0316206Y0290815D01*
X0316334Y0289656D01*
X0316434Y0288495D01*
X0316506Y0287331D01*
X0316549Y0286166D01*
X0316563Y0285000D01*
X0316549Y0283834D01*
X0316506Y0282669D01*
X0316434Y0281505D01*
X0316334Y0280344D01*
X0316206Y0279185D01*
X0316049Y0278030D01*
X0315864Y0276879D01*
X0315650Y0275733D01*
X0315409Y0274592D01*
X0315139Y0273458D01*
X0314842Y0272330D01*
X0314518Y0271211D01*
X0314165Y0270099D01*
X0313786Y0268997D01*
X0313380Y0267904D01*
X0312947Y0266821D01*
X0312488Y0265750D01*
X0312002Y0264690D01*
X0311491Y0263642D01*
X0310954Y0262607D01*
X0310392Y0261586D01*
X0309805Y0260579D01*
X0309193Y0259586D01*
X0308557Y0258609D01*
X0307898Y0257647D01*
X0307215Y0256702D01*
X0306509Y0255775D01*
X0305780Y0254864D01*
X0305030Y0253972D01*
X0304257Y0253099D01*
X0303464Y0252245D01*
X0302650Y0251410D01*
X0301815Y0250596D01*
X0300961Y0249803D01*
X0300088Y0249030D01*
X0299196Y0248280D01*
X0298285Y0247551D01*
X0297358Y0246845D01*
X0296413Y0246162D01*
X0295451Y0245503D01*
X0294474Y0244867D01*
X0293481Y0244255D01*
X0292474Y0243668D01*
X0291453Y0243106D01*
X0290418Y0242569D01*
X0289370Y0242058D01*
X0288310Y0241572D01*
X0287239Y0241113D01*
X0286156Y0240680D01*
X0285063Y0240274D01*
X0283961Y0239895D01*
X0282849Y0239542D01*
X0281730Y0239218D01*
X0280602Y0238921D01*
X0279468Y0238651D01*
X0278327Y0238410D01*
X0277181Y0238196D01*
X0276030Y0238011D01*
X0274875Y0237854D01*
X0273716Y0237726D01*
X0272555Y0237626D01*
X0271391Y0237554D01*
X0270226Y0237511D01*
X0269060Y0237497D01*
X0267894Y0237511D01*
X0266729Y0237554D01*
X0265565Y0237626D01*
X0264404Y0237726D01*
X0263245Y0237854D01*
X0262090Y0238011D01*
X0260939Y0238196D01*
X0259793Y0238410D01*
X0258652Y0238651D01*
X0257518Y0238921D01*
X0256390Y0239218D01*
X0255271Y0239542D01*
X0254159Y0239895D01*
X0253057Y0240274D01*
X0251964Y0240680D01*
X0250881Y0241113D01*
X0249810Y0241572D01*
X0248750Y0242058D01*
X0247702Y0242569D01*
X0246667Y0243106D01*
X0245646Y0243668D01*
X0244639Y0244255D01*
X0243646Y0244867D01*
X0242669Y0245503D01*
X0241707Y0246162D01*
X0240762Y0246845D01*
X0239835Y0247551D01*
X0238924Y0248280D01*
X0238032Y0249030D01*
X0237159Y0249803D01*
X0236305Y0250596D01*
X0235470Y0251410D01*
X0234656Y0252245D01*
X0233863Y0253099D01*
X0233090Y0253972D01*
X0232340Y0254864D01*
X0231611Y0255775D01*
X0230905Y0256702D01*
X0230222Y0257647D01*
X0229563Y0258609D01*
X0228927Y0259586D01*
X0228315Y0260579D01*
X0227728Y0261586D01*
X0227166Y0262607D01*
X0226629Y0263642D01*
X0226118Y0264690D01*
X0225632Y0265750D01*
X0225173Y0266821D01*
X0224740Y0267904D01*
X0224334Y0268997D01*
X0223955Y0270099D01*
X0223602Y0271211D01*
X0223278Y0272330D01*
X0222981Y0273458D01*
X0222711Y0274592D01*
X0222470Y0275733D01*
X0222256Y0276879D01*
X0222071Y0278030D01*
X0221914Y0279185D01*
X0221786Y0280344D01*
X0221686Y0281505D01*
X0221614Y0282669D01*
X0221571Y0283834D01*
X0221557Y0285000D01*
X0257560Y0285000D02*
X0257563Y0285282D01*
X0257574Y0285564D01*
X0257591Y0285846D01*
X0257615Y0286127D01*
X0257646Y0286408D01*
X0257684Y0286687D01*
X0257729Y0286966D01*
X0257781Y0287244D01*
X0257839Y0287520D01*
X0257905Y0287794D01*
X0257977Y0288067D01*
X0258055Y0288338D01*
X0258140Y0288607D01*
X0258232Y0288874D01*
X0258331Y0289139D01*
X0258435Y0289401D01*
X0258547Y0289660D01*
X0258664Y0289917D01*
X0258788Y0290171D01*
X0258918Y0290421D01*
X0259054Y0290668D01*
X0259196Y0290912D01*
X0259344Y0291152D01*
X0259498Y0291389D01*
X0259658Y0291622D01*
X0259823Y0291851D01*
X0259994Y0292075D01*
X0260170Y0292296D01*
X0260352Y0292511D01*
X0260539Y0292723D01*
X0260731Y0292930D01*
X0260928Y0293132D01*
X0261130Y0293329D01*
X0261337Y0293521D01*
X0261549Y0293708D01*
X0261764Y0293890D01*
X0261985Y0294066D01*
X0262209Y0294237D01*
X0262438Y0294402D01*
X0262671Y0294562D01*
X0262908Y0294716D01*
X0263148Y0294864D01*
X0263392Y0295006D01*
X0263639Y0295142D01*
X0263889Y0295272D01*
X0264143Y0295396D01*
X0264400Y0295513D01*
X0264659Y0295625D01*
X0264921Y0295729D01*
X0265186Y0295828D01*
X0265453Y0295920D01*
X0265722Y0296005D01*
X0265993Y0296083D01*
X0266266Y0296155D01*
X0266540Y0296221D01*
X0266816Y0296279D01*
X0267094Y0296331D01*
X0267373Y0296376D01*
X0267652Y0296414D01*
X0267933Y0296445D01*
X0268214Y0296469D01*
X0268496Y0296486D01*
X0268778Y0296497D01*
X0269060Y0296500D01*
X0269342Y0296497D01*
X0269624Y0296486D01*
X0269906Y0296469D01*
X0270187Y0296445D01*
X0270468Y0296414D01*
X0270747Y0296376D01*
X0271026Y0296331D01*
X0271304Y0296279D01*
X0271580Y0296221D01*
X0271854Y0296155D01*
X0272127Y0296083D01*
X0272398Y0296005D01*
X0272667Y0295920D01*
X0272934Y0295828D01*
X0273199Y0295729D01*
X0273461Y0295625D01*
X0273720Y0295513D01*
X0273977Y0295396D01*
X0274231Y0295272D01*
X0274481Y0295142D01*
X0274728Y0295006D01*
X0274972Y0294864D01*
X0275212Y0294716D01*
X0275449Y0294562D01*
X0275682Y0294402D01*
X0275911Y0294237D01*
X0276135Y0294066D01*
X0276356Y0293890D01*
X0276571Y0293708D01*
X0276783Y0293521D01*
X0276990Y0293329D01*
X0277192Y0293132D01*
X0277389Y0292930D01*
X0277581Y0292723D01*
X0277768Y0292511D01*
X0277950Y0292296D01*
X0278126Y0292075D01*
X0278297Y0291851D01*
X0278462Y0291622D01*
X0278622Y0291389D01*
X0278776Y0291152D01*
X0278924Y0290912D01*
X0279066Y0290668D01*
X0279202Y0290421D01*
X0279332Y0290171D01*
X0279456Y0289917D01*
X0279573Y0289660D01*
X0279685Y0289401D01*
X0279789Y0289139D01*
X0279888Y0288874D01*
X0279980Y0288607D01*
X0280065Y0288338D01*
X0280143Y0288067D01*
X0280215Y0287794D01*
X0280281Y0287520D01*
X0280339Y0287244D01*
X0280391Y0286966D01*
X0280436Y0286687D01*
X0280474Y0286408D01*
X0280505Y0286127D01*
X0280529Y0285846D01*
X0280546Y0285564D01*
X0280557Y0285282D01*
X0280560Y0285000D01*
X0280557Y0284718D01*
X0280546Y0284436D01*
X0280529Y0284154D01*
X0280505Y0283873D01*
X0280474Y0283592D01*
X0280436Y0283313D01*
X0280391Y0283034D01*
X0280339Y0282756D01*
X0280281Y0282480D01*
X0280215Y0282206D01*
X0280143Y0281933D01*
X0280065Y0281662D01*
X0279980Y0281393D01*
X0279888Y0281126D01*
X0279789Y0280861D01*
X0279685Y0280599D01*
X0279573Y0280340D01*
X0279456Y0280083D01*
X0279332Y0279829D01*
X0279202Y0279579D01*
X0279066Y0279332D01*
X0278924Y0279088D01*
X0278776Y0278848D01*
X0278622Y0278611D01*
X0278462Y0278378D01*
X0278297Y0278149D01*
X0278126Y0277925D01*
X0277950Y0277704D01*
X0277768Y0277489D01*
X0277581Y0277277D01*
X0277389Y0277070D01*
X0277192Y0276868D01*
X0276990Y0276671D01*
X0276783Y0276479D01*
X0276571Y0276292D01*
X0276356Y0276110D01*
X0276135Y0275934D01*
X0275911Y0275763D01*
X0275682Y0275598D01*
X0275449Y0275438D01*
X0275212Y0275284D01*
X0274972Y0275136D01*
X0274728Y0274994D01*
X0274481Y0274858D01*
X0274231Y0274728D01*
X0273977Y0274604D01*
X0273720Y0274487D01*
X0273461Y0274375D01*
X0273199Y0274271D01*
X0272934Y0274172D01*
X0272667Y0274080D01*
X0272398Y0273995D01*
X0272127Y0273917D01*
X0271854Y0273845D01*
X0271580Y0273779D01*
X0271304Y0273721D01*
X0271026Y0273669D01*
X0270747Y0273624D01*
X0270468Y0273586D01*
X0270187Y0273555D01*
X0269906Y0273531D01*
X0269624Y0273514D01*
X0269342Y0273503D01*
X0269060Y0273500D01*
X0268778Y0273503D01*
X0268496Y0273514D01*
X0268214Y0273531D01*
X0267933Y0273555D01*
X0267652Y0273586D01*
X0267373Y0273624D01*
X0267094Y0273669D01*
X0266816Y0273721D01*
X0266540Y0273779D01*
X0266266Y0273845D01*
X0265993Y0273917D01*
X0265722Y0273995D01*
X0265453Y0274080D01*
X0265186Y0274172D01*
X0264921Y0274271D01*
X0264659Y0274375D01*
X0264400Y0274487D01*
X0264143Y0274604D01*
X0263889Y0274728D01*
X0263639Y0274858D01*
X0263392Y0274994D01*
X0263148Y0275136D01*
X0262908Y0275284D01*
X0262671Y0275438D01*
X0262438Y0275598D01*
X0262209Y0275763D01*
X0261985Y0275934D01*
X0261764Y0276110D01*
X0261549Y0276292D01*
X0261337Y0276479D01*
X0261130Y0276671D01*
X0260928Y0276868D01*
X0260731Y0277070D01*
X0260539Y0277277D01*
X0260352Y0277489D01*
X0260170Y0277704D01*
X0259994Y0277925D01*
X0259823Y0278149D01*
X0259658Y0278378D01*
X0259498Y0278611D01*
X0259344Y0278848D01*
X0259196Y0279088D01*
X0259054Y0279332D01*
X0258918Y0279579D01*
X0258788Y0279829D01*
X0258664Y0280083D01*
X0258547Y0280340D01*
X0258435Y0280599D01*
X0258331Y0280861D01*
X0258232Y0281126D01*
X0258140Y0281393D01*
X0258055Y0281662D01*
X0257977Y0281933D01*
X0257905Y0282206D01*
X0257839Y0282480D01*
X0257781Y0282756D01*
X0257729Y0283034D01*
X0257684Y0283313D01*
X0257646Y0283592D01*
X0257615Y0283873D01*
X0257591Y0284154D01*
X0257574Y0284436D01*
X0257563Y0284718D01*
X0257560Y0285000D01*
X0239060Y0285000D02*
X0239069Y0285736D01*
X0239096Y0286472D01*
X0239141Y0287207D01*
X0239204Y0287941D01*
X0239286Y0288672D01*
X0239385Y0289402D01*
X0239502Y0290129D01*
X0239636Y0290853D01*
X0239789Y0291573D01*
X0239959Y0292289D01*
X0240147Y0293001D01*
X0240352Y0293709D01*
X0240574Y0294410D01*
X0240814Y0295107D01*
X0241070Y0295797D01*
X0241344Y0296481D01*
X0241634Y0297157D01*
X0241940Y0297827D01*
X0242263Y0298488D01*
X0242602Y0299142D01*
X0242957Y0299787D01*
X0243328Y0300423D01*
X0243714Y0301050D01*
X0244116Y0301667D01*
X0244532Y0302274D01*
X0244964Y0302871D01*
X0245410Y0303457D01*
X0245870Y0304032D01*
X0246344Y0304595D01*
X0246831Y0305147D01*
X0247333Y0305686D01*
X0247847Y0306213D01*
X0248374Y0306727D01*
X0248913Y0307229D01*
X0249465Y0307716D01*
X0250028Y0308190D01*
X0250603Y0308650D01*
X0251189Y0309096D01*
X0251786Y0309528D01*
X0252393Y0309944D01*
X0253010Y0310346D01*
X0253637Y0310732D01*
X0254273Y0311103D01*
X0254918Y0311458D01*
X0255572Y0311797D01*
X0256233Y0312120D01*
X0256903Y0312426D01*
X0257579Y0312716D01*
X0258263Y0312990D01*
X0258953Y0313246D01*
X0259650Y0313486D01*
X0260351Y0313708D01*
X0261059Y0313913D01*
X0261771Y0314101D01*
X0262487Y0314271D01*
X0263207Y0314424D01*
X0263931Y0314558D01*
X0264658Y0314675D01*
X0265388Y0314774D01*
X0266119Y0314856D01*
X0266853Y0314919D01*
X0267588Y0314964D01*
X0268324Y0314991D01*
X0269060Y0315000D01*
X0269796Y0314991D01*
X0270532Y0314964D01*
X0271267Y0314919D01*
X0272001Y0314856D01*
X0272732Y0314774D01*
X0273462Y0314675D01*
X0274189Y0314558D01*
X0274913Y0314424D01*
X0275633Y0314271D01*
X0276349Y0314101D01*
X0277061Y0313913D01*
X0277769Y0313708D01*
X0278470Y0313486D01*
X0279167Y0313246D01*
X0279857Y0312990D01*
X0280541Y0312716D01*
X0281217Y0312426D01*
X0281887Y0312120D01*
X0282548Y0311797D01*
X0283202Y0311458D01*
X0283847Y0311103D01*
X0284483Y0310732D01*
X0285110Y0310346D01*
X0285727Y0309944D01*
X0286334Y0309528D01*
X0286931Y0309096D01*
X0287517Y0308650D01*
X0288092Y0308190D01*
X0288655Y0307716D01*
X0289207Y0307229D01*
X0289746Y0306727D01*
X0290273Y0306213D01*
X0290787Y0305686D01*
X0291289Y0305147D01*
X0291776Y0304595D01*
X0292250Y0304032D01*
X0292710Y0303457D01*
X0293156Y0302871D01*
X0293588Y0302274D01*
X0294004Y0301667D01*
X0294406Y0301050D01*
X0294792Y0300423D01*
X0295163Y0299787D01*
X0295518Y0299142D01*
X0295857Y0298488D01*
X0296180Y0297827D01*
X0296486Y0297157D01*
X0296776Y0296481D01*
X0297050Y0295797D01*
X0297306Y0295107D01*
X0297546Y0294410D01*
X0297768Y0293709D01*
X0297973Y0293001D01*
X0298161Y0292289D01*
X0298331Y0291573D01*
X0298484Y0290853D01*
X0298618Y0290129D01*
X0298735Y0289402D01*
X0298834Y0288672D01*
X0298916Y0287941D01*
X0298979Y0287207D01*
X0299024Y0286472D01*
X0299051Y0285736D01*
X0299060Y0285000D01*
X0299051Y0284264D01*
X0299024Y0283528D01*
X0298979Y0282793D01*
X0298916Y0282059D01*
X0298834Y0281328D01*
X0298735Y0280598D01*
X0298618Y0279871D01*
X0298484Y0279147D01*
X0298331Y0278427D01*
X0298161Y0277711D01*
X0297973Y0276999D01*
X0297768Y0276291D01*
X0297546Y0275590D01*
X0297306Y0274893D01*
X0297050Y0274203D01*
X0296776Y0273519D01*
X0296486Y0272843D01*
X0296180Y0272173D01*
X0295857Y0271512D01*
X0295518Y0270858D01*
X0295163Y0270213D01*
X0294792Y0269577D01*
X0294406Y0268950D01*
X0294004Y0268333D01*
X0293588Y0267726D01*
X0293156Y0267129D01*
X0292710Y0266543D01*
X0292250Y0265968D01*
X0291776Y0265405D01*
X0291289Y0264853D01*
X0290787Y0264314D01*
X0290273Y0263787D01*
X0289746Y0263273D01*
X0289207Y0262771D01*
X0288655Y0262284D01*
X0288092Y0261810D01*
X0287517Y0261350D01*
X0286931Y0260904D01*
X0286334Y0260472D01*
X0285727Y0260056D01*
X0285110Y0259654D01*
X0284483Y0259268D01*
X0283847Y0258897D01*
X0283202Y0258542D01*
X0282548Y0258203D01*
X0281887Y0257880D01*
X0281217Y0257574D01*
X0280541Y0257284D01*
X0279857Y0257010D01*
X0279167Y0256754D01*
X0278470Y0256514D01*
X0277769Y0256292D01*
X0277061Y0256087D01*
X0276349Y0255899D01*
X0275633Y0255729D01*
X0274913Y0255576D01*
X0274189Y0255442D01*
X0273462Y0255325D01*
X0272732Y0255226D01*
X0272001Y0255144D01*
X0271267Y0255081D01*
X0270532Y0255036D01*
X0269796Y0255009D01*
X0269060Y0255000D01*
X0268324Y0255009D01*
X0267588Y0255036D01*
X0266853Y0255081D01*
X0266119Y0255144D01*
X0265388Y0255226D01*
X0264658Y0255325D01*
X0263931Y0255442D01*
X0263207Y0255576D01*
X0262487Y0255729D01*
X0261771Y0255899D01*
X0261059Y0256087D01*
X0260351Y0256292D01*
X0259650Y0256514D01*
X0258953Y0256754D01*
X0258263Y0257010D01*
X0257579Y0257284D01*
X0256903Y0257574D01*
X0256233Y0257880D01*
X0255572Y0258203D01*
X0254918Y0258542D01*
X0254273Y0258897D01*
X0253637Y0259268D01*
X0253010Y0259654D01*
X0252393Y0260056D01*
X0251786Y0260472D01*
X0251189Y0260904D01*
X0250603Y0261350D01*
X0250028Y0261810D01*
X0249465Y0262284D01*
X0248913Y0262771D01*
X0248374Y0263273D01*
X0247847Y0263787D01*
X0247333Y0264314D01*
X0246831Y0264853D01*
X0246344Y0265405D01*
X0245870Y0265968D01*
X0245410Y0266543D01*
X0244964Y0267129D01*
X0244532Y0267726D01*
X0244116Y0268333D01*
X0243714Y0268950D01*
X0243328Y0269577D01*
X0242957Y0270213D01*
X0242602Y0270858D01*
X0242263Y0271512D01*
X0241940Y0272173D01*
X0241634Y0272843D01*
X0241344Y0273519D01*
X0241070Y0274203D01*
X0240814Y0274893D01*
X0240574Y0275590D01*
X0240352Y0276291D01*
X0240147Y0276999D01*
X0239959Y0277711D01*
X0239789Y0278427D01*
X0239636Y0279147D01*
X0239502Y0279871D01*
X0239385Y0280598D01*
X0239286Y0281328D01*
X0239204Y0282059D01*
X0239141Y0282793D01*
X0239096Y0283528D01*
X0239069Y0284264D01*
X0239060Y0285000D01*
X0268060Y0285000D02*
X0268062Y0285063D01*
X0268068Y0285125D01*
X0268078Y0285187D01*
X0268091Y0285249D01*
X0268109Y0285309D01*
X0268130Y0285368D01*
X0268155Y0285426D01*
X0268184Y0285482D01*
X0268216Y0285536D01*
X0268251Y0285588D01*
X0268289Y0285637D01*
X0268331Y0285685D01*
X0268375Y0285729D01*
X0268423Y0285771D01*
X0268472Y0285809D01*
X0268524Y0285844D01*
X0268578Y0285876D01*
X0268634Y0285905D01*
X0268692Y0285930D01*
X0268751Y0285951D01*
X0268811Y0285969D01*
X0268873Y0285982D01*
X0268935Y0285992D01*
X0268997Y0285998D01*
X0269060Y0286000D01*
X0269123Y0285998D01*
X0269185Y0285992D01*
X0269247Y0285982D01*
X0269309Y0285969D01*
X0269369Y0285951D01*
X0269428Y0285930D01*
X0269486Y0285905D01*
X0269542Y0285876D01*
X0269596Y0285844D01*
X0269648Y0285809D01*
X0269697Y0285771D01*
X0269745Y0285729D01*
X0269789Y0285685D01*
X0269831Y0285637D01*
X0269869Y0285588D01*
X0269904Y0285536D01*
X0269936Y0285482D01*
X0269965Y0285426D01*
X0269990Y0285368D01*
X0270011Y0285309D01*
X0270029Y0285249D01*
X0270042Y0285187D01*
X0270052Y0285125D01*
X0270058Y0285063D01*
X0270060Y0285000D01*
X0270058Y0284937D01*
X0270052Y0284875D01*
X0270042Y0284813D01*
X0270029Y0284751D01*
X0270011Y0284691D01*
X0269990Y0284632D01*
X0269965Y0284574D01*
X0269936Y0284518D01*
X0269904Y0284464D01*
X0269869Y0284412D01*
X0269831Y0284363D01*
X0269789Y0284315D01*
X0269745Y0284271D01*
X0269697Y0284229D01*
X0269648Y0284191D01*
X0269596Y0284156D01*
X0269542Y0284124D01*
X0269486Y0284095D01*
X0269428Y0284070D01*
X0269369Y0284049D01*
X0269309Y0284031D01*
X0269247Y0284018D01*
X0269185Y0284008D01*
X0269123Y0284002D01*
X0269060Y0284000D01*
X0268997Y0284002D01*
X0268935Y0284008D01*
X0268873Y0284018D01*
X0268811Y0284031D01*
X0268751Y0284049D01*
X0268692Y0284070D01*
X0268634Y0284095D01*
X0268578Y0284124D01*
X0268524Y0284156D01*
X0268472Y0284191D01*
X0268423Y0284229D01*
X0268375Y0284271D01*
X0268331Y0284315D01*
X0268289Y0284363D01*
X0268251Y0284412D01*
X0268216Y0284464D01*
X0268184Y0284518D01*
X0268155Y0284574D01*
X0268130Y0284632D01*
X0268109Y0284691D01*
X0268091Y0284751D01*
X0268078Y0284813D01*
X0268068Y0284875D01*
X0268062Y0284937D01*
X0268060Y0285000D01*
X0264060Y0285000D02*
X0264062Y0285141D01*
X0264068Y0285282D01*
X0264078Y0285422D01*
X0264092Y0285562D01*
X0264110Y0285702D01*
X0264131Y0285841D01*
X0264157Y0285980D01*
X0264186Y0286118D01*
X0264220Y0286254D01*
X0264257Y0286390D01*
X0264298Y0286525D01*
X0264343Y0286659D01*
X0264392Y0286791D01*
X0264444Y0286922D01*
X0264500Y0287051D01*
X0264560Y0287178D01*
X0264623Y0287304D01*
X0264689Y0287428D01*
X0264760Y0287551D01*
X0264833Y0287671D01*
X0264910Y0287789D01*
X0264990Y0287905D01*
X0265074Y0288018D01*
X0265160Y0288129D01*
X0265250Y0288238D01*
X0265343Y0288344D01*
X0265438Y0288447D01*
X0265537Y0288548D01*
X0265638Y0288646D01*
X0265742Y0288741D01*
X0265849Y0288833D01*
X0265958Y0288922D01*
X0266070Y0289007D01*
X0266184Y0289090D01*
X0266300Y0289170D01*
X0266419Y0289246D01*
X0266540Y0289318D01*
X0266662Y0289388D01*
X0266787Y0289453D01*
X0266913Y0289516D01*
X0267041Y0289574D01*
X0267171Y0289629D01*
X0267302Y0289681D01*
X0267435Y0289728D01*
X0267569Y0289772D01*
X0267704Y0289813D01*
X0267840Y0289849D01*
X0267977Y0289881D01*
X0268115Y0289910D01*
X0268253Y0289935D01*
X0268393Y0289955D01*
X0268533Y0289972D01*
X0268673Y0289985D01*
X0268814Y0289994D01*
X0268954Y0289999D01*
X0269095Y0290000D01*
X0269236Y0289997D01*
X0269377Y0289990D01*
X0269517Y0289979D01*
X0269657Y0289964D01*
X0269797Y0289945D01*
X0269936Y0289923D01*
X0270074Y0289896D01*
X0270212Y0289866D01*
X0270348Y0289831D01*
X0270484Y0289793D01*
X0270618Y0289751D01*
X0270752Y0289705D01*
X0270884Y0289656D01*
X0271014Y0289602D01*
X0271143Y0289545D01*
X0271270Y0289485D01*
X0271396Y0289421D01*
X0271519Y0289353D01*
X0271641Y0289282D01*
X0271761Y0289208D01*
X0271878Y0289130D01*
X0271993Y0289049D01*
X0272106Y0288965D01*
X0272217Y0288878D01*
X0272325Y0288787D01*
X0272430Y0288694D01*
X0272533Y0288597D01*
X0272633Y0288498D01*
X0272730Y0288396D01*
X0272824Y0288291D01*
X0272915Y0288184D01*
X0273003Y0288074D01*
X0273088Y0287962D01*
X0273170Y0287847D01*
X0273249Y0287730D01*
X0273324Y0287611D01*
X0273396Y0287490D01*
X0273464Y0287367D01*
X0273529Y0287242D01*
X0273591Y0287115D01*
X0273648Y0286986D01*
X0273703Y0286856D01*
X0273753Y0286725D01*
X0273800Y0286592D01*
X0273843Y0286458D01*
X0273882Y0286322D01*
X0273917Y0286186D01*
X0273949Y0286049D01*
X0273976Y0285911D01*
X0274000Y0285772D01*
X0274020Y0285632D01*
X0274036Y0285492D01*
X0274048Y0285352D01*
X0274056Y0285211D01*
X0274060Y0285070D01*
X0274060Y0284930D01*
X0274056Y0284789D01*
X0274048Y0284648D01*
X0274036Y0284508D01*
X0274020Y0284368D01*
X0274000Y0284228D01*
X0273976Y0284089D01*
X0273949Y0283951D01*
X0273917Y0283814D01*
X0273882Y0283678D01*
X0273843Y0283542D01*
X0273800Y0283408D01*
X0273753Y0283275D01*
X0273703Y0283144D01*
X0273648Y0283014D01*
X0273591Y0282885D01*
X0273529Y0282758D01*
X0273464Y0282633D01*
X0273396Y0282510D01*
X0273324Y0282389D01*
X0273249Y0282270D01*
X0273170Y0282153D01*
X0273088Y0282038D01*
X0273003Y0281926D01*
X0272915Y0281816D01*
X0272824Y0281709D01*
X0272730Y0281604D01*
X0272633Y0281502D01*
X0272533Y0281403D01*
X0272430Y0281306D01*
X0272325Y0281213D01*
X0272217Y0281122D01*
X0272106Y0281035D01*
X0271993Y0280951D01*
X0271878Y0280870D01*
X0271761Y0280792D01*
X0271641Y0280718D01*
X0271519Y0280647D01*
X0271396Y0280579D01*
X0271270Y0280515D01*
X0271143Y0280455D01*
X0271014Y0280398D01*
X0270884Y0280344D01*
X0270752Y0280295D01*
X0270618Y0280249D01*
X0270484Y0280207D01*
X0270348Y0280169D01*
X0270212Y0280134D01*
X0270074Y0280104D01*
X0269936Y0280077D01*
X0269797Y0280055D01*
X0269657Y0280036D01*
X0269517Y0280021D01*
X0269377Y0280010D01*
X0269236Y0280003D01*
X0269095Y0280000D01*
X0268954Y0280001D01*
X0268814Y0280006D01*
X0268673Y0280015D01*
X0268533Y0280028D01*
X0268393Y0280045D01*
X0268253Y0280065D01*
X0268115Y0280090D01*
X0267977Y0280119D01*
X0267840Y0280151D01*
X0267704Y0280187D01*
X0267569Y0280228D01*
X0267435Y0280272D01*
X0267302Y0280319D01*
X0267171Y0280371D01*
X0267041Y0280426D01*
X0266913Y0280484D01*
X0266787Y0280547D01*
X0266662Y0280612D01*
X0266540Y0280682D01*
X0266419Y0280754D01*
X0266300Y0280830D01*
X0266184Y0280910D01*
X0266070Y0280993D01*
X0265958Y0281078D01*
X0265849Y0281167D01*
X0265742Y0281259D01*
X0265638Y0281354D01*
X0265537Y0281452D01*
X0265438Y0281553D01*
X0265343Y0281656D01*
X0265250Y0281762D01*
X0265160Y0281871D01*
X0265074Y0281982D01*
X0264990Y0282095D01*
X0264910Y0282211D01*
X0264833Y0282329D01*
X0264760Y0282449D01*
X0264689Y0282572D01*
X0264623Y0282696D01*
X0264560Y0282822D01*
X0264500Y0282949D01*
X0264444Y0283078D01*
X0264392Y0283209D01*
X0264343Y0283341D01*
X0264298Y0283475D01*
X0264257Y0283610D01*
X0264220Y0283746D01*
X0264186Y0283882D01*
X0264157Y0284020D01*
X0264131Y0284159D01*
X0264110Y0284298D01*
X0264092Y0284438D01*
X0264078Y0284578D01*
X0264068Y0284718D01*
X0264062Y0284859D01*
X0264060Y0285000D01*
D11*
X0160319Y0120007D02*
X0148976Y0120007D01*
X0157483Y0128515D01*
X0157483Y0111500D01*
X0141903Y0125679D02*
X0130560Y0114336D01*
X0130560Y0111500D01*
X0123487Y0114336D02*
X0123487Y0117172D01*
X0120652Y0120007D01*
X0112144Y0120007D01*
X0112144Y0114336D01*
X0114980Y0111500D01*
X0120652Y0111500D01*
X0123487Y0114336D01*
X0117816Y0125679D02*
X0112144Y0120007D01*
X0117816Y0125679D02*
X0123487Y0128515D01*
X0130560Y0128515D02*
X0141903Y0128515D01*
X0141903Y0125679D01*
X0105072Y0122843D02*
X0102236Y0122843D01*
X0093729Y0122843D01*
X0093729Y0117172D02*
X0105072Y0117172D01*
X0102236Y0111500D02*
X0102236Y0128515D01*
X0096564Y0128515D02*
X0096564Y0111500D01*
D12*
X0093062Y0093217D02*
X0093955Y0092325D01*
X0095739Y0092325D01*
X0096632Y0093217D01*
X0096632Y0094110D01*
X0095739Y0095002D01*
X0093955Y0095002D01*
X0093062Y0095895D01*
X0093062Y0096787D01*
X0093955Y0097680D01*
X0095739Y0097680D01*
X0096632Y0096787D01*
X0098817Y0095895D02*
X0098817Y0090540D01*
X0098817Y0092325D02*
X0101494Y0092325D01*
X0102387Y0093217D01*
X0102387Y0095002D01*
X0101494Y0095895D01*
X0098817Y0095895D01*
X0104572Y0095002D02*
X0105464Y0095895D01*
X0107249Y0095895D01*
X0108142Y0095002D01*
X0108142Y0094110D01*
X0104572Y0094110D01*
X0104572Y0095002D02*
X0104572Y0093217D01*
X0105464Y0092325D01*
X0107249Y0092325D01*
X0110327Y0093217D02*
X0111219Y0092325D01*
X0113897Y0092325D01*
X0116974Y0093217D02*
X0116974Y0096787D01*
X0116082Y0095895D02*
X0117867Y0095895D01*
X0119918Y0095895D02*
X0119918Y0092325D01*
X0119918Y0094110D02*
X0121703Y0095895D01*
X0122596Y0095895D01*
X0125607Y0095895D02*
X0127391Y0095895D01*
X0128284Y0095002D01*
X0128284Y0092325D01*
X0125607Y0092325D01*
X0124714Y0093217D01*
X0125607Y0094110D01*
X0128284Y0094110D01*
X0130469Y0092325D02*
X0132254Y0092325D01*
X0131362Y0092325D02*
X0131362Y0097680D01*
X0130469Y0097680D01*
X0130202Y0102325D02*
X0126632Y0102325D01*
X0128417Y0102325D02*
X0128417Y0107680D01*
X0126632Y0105895D01*
X0124447Y0105002D02*
X0120878Y0105002D01*
X0118692Y0102325D02*
X0118692Y0107680D01*
X0115123Y0107680D02*
X0115123Y0102325D01*
X0112937Y0102325D02*
X0109368Y0102325D01*
X0109368Y0107680D01*
X0112937Y0107680D01*
X0115123Y0107680D02*
X0118692Y0102325D01*
X0113897Y0095895D02*
X0111219Y0095895D01*
X0110327Y0095002D01*
X0110327Y0093217D01*
X0106290Y0102325D02*
X0104505Y0102325D01*
X0103613Y0103217D01*
X0104505Y0105002D02*
X0106290Y0105002D01*
X0107183Y0104110D01*
X0107183Y0103217D01*
X0106290Y0102325D01*
X0104505Y0105002D02*
X0103613Y0105895D01*
X0103613Y0106787D01*
X0104505Y0107680D01*
X0106290Y0107680D01*
X0107183Y0106787D01*
X0109368Y0105002D02*
X0111153Y0105002D01*
X0116974Y0093217D02*
X0117867Y0092325D01*
X0132387Y0103217D02*
X0133280Y0102325D01*
X0135065Y0102325D01*
X0135957Y0103217D01*
X0135957Y0105002D01*
X0135065Y0105895D01*
X0134172Y0105895D01*
X0132387Y0105002D01*
X0132387Y0107680D01*
X0135957Y0107680D01*
X0138142Y0106787D02*
X0139035Y0107680D01*
X0140820Y0107680D01*
X0141712Y0106787D01*
X0138142Y0103217D01*
X0139035Y0102325D01*
X0140820Y0102325D01*
X0141712Y0103217D01*
X0141712Y0106787D01*
X0143897Y0107680D02*
X0143897Y0105002D01*
X0145682Y0105895D01*
X0146574Y0105895D01*
X0147467Y0105002D01*
X0147467Y0103217D01*
X0146574Y0102325D01*
X0144790Y0102325D01*
X0143897Y0103217D01*
X0143897Y0107680D02*
X0147467Y0107680D01*
X0149652Y0106787D02*
X0150545Y0107680D01*
X0152329Y0107680D01*
X0153222Y0106787D01*
X0149652Y0103217D01*
X0150545Y0102325D01*
X0152329Y0102325D01*
X0153222Y0103217D01*
X0153222Y0106787D01*
X0149652Y0106787D02*
X0149652Y0103217D01*
X0151504Y0098572D02*
X0151504Y0097680D01*
X0151504Y0095895D02*
X0151504Y0092325D01*
X0152396Y0092325D02*
X0150611Y0092325D01*
X0150611Y0095895D02*
X0151504Y0095895D01*
X0148493Y0095895D02*
X0147600Y0095895D01*
X0145816Y0094110D01*
X0145816Y0092325D02*
X0145816Y0095895D01*
X0143630Y0097680D02*
X0140061Y0097680D01*
X0141845Y0097680D02*
X0141845Y0092325D01*
X0138142Y0103217D02*
X0138142Y0106787D01*
X0155340Y0095895D02*
X0157125Y0095895D01*
X0158018Y0095002D01*
X0158018Y0092325D01*
X0155340Y0092325D01*
X0154448Y0093217D01*
X0155340Y0094110D01*
X0158018Y0094110D01*
X0160203Y0095002D02*
X0161095Y0095895D01*
X0163772Y0095895D01*
X0163772Y0097680D02*
X0163772Y0092325D01*
X0161095Y0092325D01*
X0160203Y0093217D01*
X0160203Y0095002D01*
D13*
X0205360Y0107709D02*
X0212700Y0107709D01*
X0209030Y0107709D02*
X0209030Y0096700D01*
X0217330Y0098535D02*
X0219165Y0100370D01*
X0224670Y0100370D01*
X0224670Y0102205D02*
X0224670Y0096700D01*
X0219165Y0096700D01*
X0217330Y0098535D01*
X0219165Y0104040D02*
X0222835Y0104040D01*
X0224670Y0102205D01*
X0229300Y0104040D02*
X0229300Y0093030D01*
X0229300Y0096700D02*
X0234805Y0096700D01*
X0236640Y0098535D01*
X0236640Y0102205D01*
X0234805Y0104040D01*
X0229300Y0104040D01*
X0229300Y0088209D02*
X0229300Y0077200D01*
X0236640Y0077200D01*
X0241271Y0079035D02*
X0243106Y0077200D01*
X0246775Y0077200D01*
X0248610Y0079035D01*
X0248610Y0080870D01*
X0246775Y0082705D01*
X0243106Y0082705D01*
X0241271Y0084540D01*
X0241271Y0086375D01*
X0243106Y0088209D01*
X0246775Y0088209D01*
X0248610Y0086375D01*
X0253241Y0088209D02*
X0260580Y0088209D01*
X0256911Y0088209D02*
X0256911Y0077200D01*
X0256911Y0096700D02*
X0255076Y0098535D01*
X0255076Y0105875D01*
X0253241Y0104040D02*
X0256911Y0104040D01*
X0261221Y0102205D02*
X0261221Y0098535D01*
X0263056Y0096700D01*
X0266726Y0096700D01*
X0268561Y0098535D01*
X0268561Y0102205D01*
X0266726Y0104040D01*
X0263056Y0104040D01*
X0261221Y0102205D01*
X0236640Y0088209D02*
X0229300Y0088209D01*
X0224670Y0088209D02*
X0217330Y0088209D01*
X0221000Y0088209D02*
X0221000Y0077200D01*
X0229300Y0082705D02*
X0232970Y0082705D01*
D14*
X0234159Y0146750D02*
X0228488Y0146750D01*
X0228488Y0155257D01*
X0234159Y0155257D01*
X0237696Y0153839D02*
X0237696Y0152422D01*
X0239114Y0151004D01*
X0241949Y0151004D01*
X0243367Y0149586D01*
X0243367Y0148168D01*
X0241949Y0146750D01*
X0239114Y0146750D01*
X0237696Y0148168D01*
X0237696Y0153839D02*
X0239114Y0155257D01*
X0241949Y0155257D01*
X0243367Y0153839D01*
X0246904Y0155257D02*
X0252575Y0155257D01*
X0249739Y0155257D02*
X0249739Y0146750D01*
X0231324Y0151004D02*
X0228488Y0151004D01*
X0224952Y0155257D02*
X0219280Y0155257D01*
X0222116Y0155257D02*
X0222116Y0146750D01*
X0206536Y0146750D02*
X0206536Y0155257D01*
X0200864Y0155257D02*
X0206536Y0146750D01*
X0200864Y0146750D02*
X0200864Y0155257D01*
X0197561Y0155257D02*
X0194726Y0155257D01*
X0196144Y0155257D02*
X0196144Y0146750D01*
X0197561Y0146750D02*
X0194726Y0146750D01*
X0191189Y0146750D02*
X0191189Y0152422D01*
X0188354Y0155257D01*
X0185518Y0152422D01*
X0185518Y0146750D01*
X0181981Y0146750D02*
X0181981Y0155257D01*
X0179146Y0152422D01*
X0176310Y0155257D01*
X0176310Y0146750D01*
X0185518Y0151004D02*
X0191189Y0151004D01*
X0364803Y0118419D02*
X0364803Y0115584D01*
X0366221Y0114166D01*
X0371892Y0114166D01*
X0366221Y0119837D01*
X0371892Y0119837D01*
X0373310Y0118419D01*
X0373310Y0115584D01*
X0371892Y0114166D01*
X0373310Y0110629D02*
X0373310Y0104958D01*
X0373310Y0107794D02*
X0364803Y0107794D01*
X0367638Y0104958D01*
X0367638Y0101422D02*
X0373310Y0098586D01*
X0367638Y0095750D01*
X0364803Y0118419D02*
X0366221Y0119837D01*
D15*
X0327341Y0157600D02*
X0322803Y0157600D01*
X0322803Y0164406D01*
X0320161Y0164406D02*
X0317893Y0164406D01*
X0319027Y0164406D02*
X0319027Y0157600D01*
X0317893Y0157600D02*
X0320161Y0157600D01*
X0315063Y0157600D02*
X0315063Y0162137D01*
X0312795Y0164406D01*
X0310526Y0162137D01*
X0310526Y0157600D01*
X0310526Y0161003D02*
X0315063Y0161003D01*
X0307697Y0164406D02*
X0303160Y0164406D01*
X0303160Y0157600D01*
X0303160Y0161003D02*
X0305429Y0161003D01*
X0287796Y0159869D02*
X0287796Y0158734D01*
X0286662Y0157600D01*
X0284393Y0157600D01*
X0283259Y0158734D01*
X0284393Y0161003D02*
X0283259Y0162137D01*
X0283259Y0163272D01*
X0284393Y0164406D01*
X0286662Y0164406D01*
X0287796Y0163272D01*
X0286662Y0161003D02*
X0287796Y0159869D01*
X0286662Y0161003D02*
X0284393Y0161003D01*
X0280430Y0159869D02*
X0280430Y0158734D01*
X0279295Y0157600D01*
X0277027Y0157600D01*
X0275893Y0158734D01*
X0277027Y0161003D02*
X0279295Y0161003D01*
X0280430Y0159869D01*
X0280430Y0163272D02*
X0279295Y0164406D01*
X0277027Y0164406D01*
X0275893Y0163272D01*
X0275893Y0162137D01*
X0277027Y0161003D01*
X0273063Y0161003D02*
X0268526Y0161003D01*
X0268526Y0162137D02*
X0268526Y0157600D01*
X0265697Y0161003D02*
X0264563Y0159869D01*
X0261160Y0159869D01*
X0261160Y0157600D02*
X0261160Y0164406D01*
X0264563Y0164406D01*
X0265697Y0163272D01*
X0265697Y0161003D01*
X0268526Y0162137D02*
X0270795Y0164406D01*
X0273063Y0162137D01*
X0273063Y0157600D01*
D16*
X0226670Y0335657D03*
X0226670Y0340343D03*
D17*
X0226670Y0340224D03*
X0226670Y0335776D03*
D18*
X0226670Y0340126D03*
D19*
X0226670Y0340008D03*
D20*
X0226670Y0339870D03*
X0226670Y0336091D03*
D21*
X0226670Y0336209D03*
X0226670Y0339752D03*
D22*
X0226670Y0339654D03*
D23*
X0223599Y0339555D03*
X0298745Y0324665D03*
D24*
X0310615Y0326201D03*
X0240170Y0323720D03*
X0227202Y0339555D03*
D25*
X0230095Y0339555D03*
X0298391Y0324862D03*
D26*
X0228773Y0323583D03*
X0228773Y0326417D03*
X0222773Y0336583D03*
X0222773Y0339417D03*
D27*
X0224899Y0339417D03*
X0226906Y0338945D03*
X0236450Y0325472D03*
X0304769Y0325945D03*
X0307367Y0324055D03*
D28*
X0304178Y0325472D03*
X0227025Y0339417D03*
D29*
X0230391Y0339417D03*
X0222595Y0338472D03*
X0222595Y0338000D03*
X0222595Y0337528D03*
X0228595Y0325472D03*
X0228595Y0325000D03*
X0228595Y0324528D03*
X0231903Y0323583D03*
X0240288Y0325000D03*
X0298214Y0325472D03*
X0298568Y0326417D03*
D30*
X0298273Y0323917D03*
X0301580Y0325335D03*
X0310556Y0326083D03*
X0240229Y0323917D03*
X0240229Y0323839D03*
X0239993Y0323445D03*
X0228891Y0323445D03*
X0228773Y0323720D03*
X0228773Y0326280D03*
X0230568Y0336720D03*
X0222891Y0336445D03*
X0222773Y0336720D03*
X0222773Y0339280D03*
D31*
X0224840Y0339280D03*
X0224840Y0339201D03*
X0225784Y0338807D03*
X0225784Y0338728D03*
X0226611Y0338217D03*
X0226847Y0338807D03*
X0224840Y0337390D03*
X0232139Y0326201D03*
X0232493Y0325138D03*
X0233556Y0325610D03*
X0234383Y0324390D03*
X0234383Y0324272D03*
X0235210Y0325335D03*
X0235210Y0325610D03*
X0236509Y0325610D03*
X0236509Y0325728D03*
X0236509Y0325807D03*
X0305654Y0324783D03*
X0306363Y0326083D03*
X0306245Y0326201D03*
X0306245Y0326280D03*
X0307426Y0323839D03*
X0307426Y0323720D03*
D32*
X0307072Y0325138D03*
X0307072Y0325217D03*
X0304001Y0324862D03*
X0304001Y0324783D03*
X0302111Y0324783D03*
X0302111Y0324862D03*
X0302111Y0323917D03*
X0302111Y0323839D03*
X0237926Y0323445D03*
X0236154Y0323720D03*
X0236154Y0323839D03*
X0226966Y0339280D03*
D33*
X0225784Y0337272D03*
X0222714Y0336917D03*
X0222714Y0336839D03*
X0222714Y0339083D03*
X0222714Y0339201D03*
X0230509Y0339280D03*
X0230627Y0339201D03*
X0230627Y0339083D03*
X0230627Y0336917D03*
X0230627Y0336839D03*
X0228714Y0326201D03*
X0228714Y0326083D03*
X0228714Y0323917D03*
X0228714Y0323839D03*
X0231784Y0324193D03*
X0298214Y0324193D03*
X0298332Y0323839D03*
X0298450Y0323720D03*
X0298214Y0325728D03*
X0298332Y0326083D03*
D34*
X0300458Y0324390D03*
X0303883Y0324390D03*
X0303883Y0324272D03*
X0303765Y0323445D03*
X0307190Y0324665D03*
X0307190Y0324783D03*
X0237926Y0325335D03*
X0237926Y0323720D03*
X0236273Y0324272D03*
X0236273Y0324390D03*
X0234383Y0323839D03*
X0234383Y0323720D03*
X0235210Y0326201D03*
X0235210Y0326280D03*
X0233556Y0326280D03*
X0233556Y0326201D03*
X0231076Y0325610D03*
X0231076Y0325335D03*
X0231076Y0325217D03*
X0226966Y0339201D03*
D35*
X0226788Y0338728D03*
X0226788Y0338610D03*
X0226670Y0338335D03*
X0226788Y0337390D03*
X0225725Y0338610D03*
X0224780Y0338610D03*
X0224780Y0338728D03*
X0224780Y0338807D03*
X0224780Y0339083D03*
X0224780Y0337862D03*
X0224780Y0337783D03*
X0224780Y0337665D03*
X0232198Y0326083D03*
X0232316Y0325807D03*
X0232434Y0325335D03*
X0232434Y0325217D03*
X0233497Y0325335D03*
X0236568Y0326083D03*
X0236568Y0326201D03*
X0236568Y0326280D03*
X0300517Y0325807D03*
X0301462Y0326280D03*
X0305595Y0324862D03*
D36*
X0307249Y0324390D03*
X0307367Y0323445D03*
X0303824Y0324193D03*
X0300517Y0324272D03*
X0237867Y0323917D03*
X0237867Y0323839D03*
X0237867Y0325138D03*
X0237867Y0325217D03*
X0237867Y0325610D03*
X0236332Y0324783D03*
X0236332Y0324665D03*
X0235151Y0326083D03*
X0233497Y0326083D03*
X0232434Y0324665D03*
X0231017Y0325138D03*
X0225017Y0338217D03*
X0226906Y0339083D03*
X0228442Y0338728D03*
D37*
X0230686Y0338945D03*
X0230686Y0337055D03*
X0230450Y0336583D03*
X0225843Y0337055D03*
X0222654Y0337055D03*
X0222654Y0338945D03*
X0228654Y0325945D03*
X0228654Y0324055D03*
X0231843Y0324055D03*
X0240229Y0324055D03*
X0240347Y0325472D03*
X0240229Y0325945D03*
X0298273Y0325945D03*
X0298509Y0323583D03*
X0301462Y0325472D03*
D38*
X0301580Y0325945D03*
X0236568Y0325945D03*
X0232434Y0325472D03*
X0224780Y0337528D03*
X0224780Y0338945D03*
D39*
X0225784Y0338945D03*
X0232257Y0325945D03*
X0235210Y0325000D03*
X0305654Y0325000D03*
D40*
X0301462Y0325610D03*
X0298509Y0326280D03*
X0298391Y0326201D03*
X0298273Y0325807D03*
X0298154Y0325610D03*
X0298273Y0324272D03*
X0240347Y0325138D03*
X0240347Y0325217D03*
X0240347Y0325335D03*
X0240347Y0325610D03*
X0240229Y0325728D03*
X0240229Y0325807D03*
X0240111Y0326083D03*
X0240229Y0324193D03*
X0231843Y0323917D03*
X0228654Y0324193D03*
X0228654Y0324272D03*
X0228654Y0325728D03*
X0228654Y0325807D03*
X0225843Y0337193D03*
X0222654Y0337193D03*
X0222654Y0337272D03*
X0222654Y0338728D03*
X0222654Y0338807D03*
X0230686Y0338807D03*
D41*
X0230627Y0338728D03*
X0230627Y0337193D03*
X0230273Y0336445D03*
X0225903Y0336917D03*
X0222595Y0337390D03*
X0222595Y0337665D03*
X0222595Y0337783D03*
X0222595Y0337862D03*
X0222595Y0338138D03*
X0222595Y0338217D03*
X0222595Y0338335D03*
X0222595Y0338610D03*
X0228595Y0325610D03*
X0228595Y0325335D03*
X0228595Y0325217D03*
X0228595Y0325138D03*
X0228595Y0324862D03*
X0228595Y0324783D03*
X0228595Y0324665D03*
X0228595Y0324390D03*
X0231903Y0323839D03*
X0231903Y0323720D03*
X0240170Y0324272D03*
X0240288Y0324862D03*
X0240052Y0326201D03*
X0239934Y0326280D03*
X0298214Y0325335D03*
X0298214Y0325217D03*
X0298686Y0323445D03*
D42*
X0302170Y0324193D03*
X0302170Y0324272D03*
X0302170Y0324390D03*
X0302170Y0324665D03*
X0303942Y0324665D03*
X0307131Y0324862D03*
X0236214Y0324193D03*
X0236214Y0323917D03*
X0228442Y0337272D03*
X0228442Y0338610D03*
X0225135Y0338335D03*
D43*
X0226021Y0336720D03*
X0230627Y0338610D03*
X0240170Y0324665D03*
X0231903Y0323445D03*
X0298804Y0326555D03*
D44*
X0301403Y0326417D03*
X0306363Y0325945D03*
X0307426Y0323583D03*
X0248525Y0359047D03*
X0236509Y0326417D03*
X0235210Y0325472D03*
X0234383Y0324528D03*
X0233556Y0325472D03*
X0232493Y0325000D03*
X0226729Y0338472D03*
X0225548Y0338472D03*
X0224840Y0338472D03*
X0224840Y0338000D03*
D45*
X0229918Y0338472D03*
D46*
X0229859Y0338335D03*
X0229859Y0338217D03*
X0229859Y0337665D03*
D47*
X0228442Y0337193D03*
X0226552Y0338138D03*
X0224899Y0338138D03*
X0232080Y0326280D03*
X0232434Y0324862D03*
X0233497Y0325728D03*
X0236450Y0325335D03*
X0236450Y0325217D03*
X0300517Y0324193D03*
X0304887Y0326083D03*
X0304887Y0326201D03*
X0307367Y0323917D03*
D48*
X0229800Y0337783D03*
X0229800Y0337862D03*
X0229800Y0338138D03*
D49*
X0226493Y0338000D03*
X0233556Y0325945D03*
X0235210Y0325945D03*
X0236391Y0325000D03*
X0237808Y0324055D03*
X0234383Y0324055D03*
X0303765Y0323583D03*
X0306245Y0326417D03*
D50*
X0229800Y0338000D03*
D51*
X0226729Y0337862D03*
X0232375Y0325728D03*
X0232375Y0325610D03*
X0233556Y0325217D03*
X0233556Y0325138D03*
X0234383Y0324862D03*
X0234383Y0324783D03*
X0234383Y0324665D03*
X0235210Y0325138D03*
X0235210Y0325217D03*
X0301521Y0326083D03*
X0301521Y0326201D03*
X0305654Y0325138D03*
D52*
X0226788Y0337665D03*
X0226788Y0337783D03*
D53*
X0226788Y0337528D03*
X0233497Y0325000D03*
D54*
X0229859Y0337528D03*
D55*
X0229918Y0337390D03*
D56*
X0230568Y0337272D03*
X0225962Y0336839D03*
X0240229Y0324783D03*
X0240229Y0324390D03*
X0298273Y0324390D03*
X0298273Y0325138D03*
D57*
X0226139Y0336583D03*
D58*
X0226198Y0336445D03*
X0310084Y0325807D03*
X0310084Y0325728D03*
X0310084Y0324272D03*
X0310084Y0324193D03*
D59*
X0226670Y0336327D03*
D60*
X0226670Y0336012D03*
D61*
X0226670Y0335894D03*
D62*
X0234442Y0327343D03*
X0234442Y0322657D03*
D63*
X0234442Y0322776D03*
X0234442Y0327224D03*
X0304414Y0327343D03*
X0304414Y0322657D03*
D64*
X0234442Y0327126D03*
D65*
X0234442Y0327008D03*
D66*
X0234442Y0326870D03*
X0234442Y0323091D03*
X0304414Y0322894D03*
D67*
X0234442Y0323209D03*
X0234442Y0326752D03*
D68*
X0234442Y0326654D03*
D69*
X0230249Y0326555D03*
D70*
X0234383Y0326555D03*
D71*
X0238576Y0326555D03*
D72*
X0237926Y0325472D03*
X0237926Y0323583D03*
X0232375Y0324528D03*
X0231076Y0325472D03*
X0232021Y0326417D03*
X0241674Y0356213D03*
X0241674Y0356370D03*
X0243091Y0358890D03*
X0246399Y0358890D03*
X0246399Y0358732D03*
X0246399Y0358575D03*
X0246399Y0358417D03*
X0246399Y0358260D03*
X0246399Y0358102D03*
X0246399Y0357945D03*
X0246399Y0357787D03*
X0246399Y0357630D03*
X0246399Y0356213D03*
X0246399Y0356055D03*
X0246399Y0355898D03*
X0246399Y0355740D03*
X0246399Y0355583D03*
X0246399Y0355425D03*
X0246399Y0355268D03*
X0246399Y0355110D03*
X0248603Y0355110D03*
X0295241Y0355110D03*
X0299178Y0355110D03*
X0299178Y0358732D03*
X0299178Y0358890D03*
X0304946Y0326417D03*
D73*
X0305654Y0324055D03*
X0236154Y0323583D03*
X0235210Y0326417D03*
X0233556Y0326417D03*
D74*
X0239816Y0326417D03*
X0240170Y0324528D03*
X0240257Y0355110D03*
X0240257Y0358732D03*
X0244036Y0354953D03*
X0290517Y0355268D03*
X0290517Y0358575D03*
X0293824Y0358575D03*
D75*
X0300576Y0325728D03*
X0303765Y0323917D03*
X0303765Y0323839D03*
X0303765Y0323720D03*
X0304946Y0326280D03*
X0307308Y0324272D03*
X0307308Y0324193D03*
X0237808Y0324193D03*
X0237808Y0325728D03*
X0236391Y0325138D03*
X0236391Y0324862D03*
X0235210Y0325728D03*
X0235210Y0325807D03*
X0233556Y0325807D03*
X0232493Y0324783D03*
X0230958Y0325728D03*
X0234383Y0324193D03*
X0234383Y0323917D03*
D76*
X0236332Y0324528D03*
X0303824Y0324055D03*
X0307249Y0324528D03*
D77*
X0307013Y0325335D03*
X0305595Y0323917D03*
X0304060Y0325138D03*
X0302052Y0323720D03*
X0234324Y0323445D03*
X0232316Y0324390D03*
D78*
X0232139Y0324272D03*
X0304237Y0325728D03*
X0304237Y0325807D03*
D79*
X0303942Y0324528D03*
X0302170Y0324528D03*
X0302170Y0324055D03*
X0307131Y0325000D03*
X0236214Y0324055D03*
X0234324Y0323583D03*
D80*
X0240170Y0323583D03*
X0310497Y0326417D03*
D81*
X0306954Y0325807D03*
X0306954Y0325728D03*
X0306954Y0325610D03*
X0305654Y0323839D03*
X0304119Y0325217D03*
X0304119Y0325335D03*
X0301993Y0325138D03*
X0301993Y0325728D03*
X0301993Y0325807D03*
X0236154Y0323445D03*
D82*
X0234442Y0323327D03*
X0304414Y0323012D03*
D83*
X0234442Y0323012D03*
D84*
X0234442Y0322894D03*
D85*
X0207245Y0251079D03*
X0227127Y0247693D03*
D86*
X0225355Y0247535D03*
X0225355Y0247339D03*
X0222993Y0247339D03*
X0222993Y0247535D03*
X0223190Y0249110D03*
X0223387Y0249307D03*
X0221221Y0249307D03*
X0221221Y0249110D03*
X0221221Y0248913D03*
X0221221Y0249504D03*
X0218859Y0249701D03*
X0218662Y0249504D03*
X0218662Y0249307D03*
X0218662Y0249110D03*
X0218662Y0248913D03*
X0216891Y0249701D03*
X0216694Y0249307D03*
X0215710Y0247535D03*
X0215513Y0247339D03*
X0215513Y0246906D03*
X0215316Y0246551D03*
X0215316Y0246354D03*
X0213151Y0247339D03*
X0213151Y0247535D03*
X0210788Y0249307D03*
X0210591Y0249504D03*
X0210788Y0249898D03*
X0211773Y0251079D03*
X0208229Y0248520D03*
X0206458Y0248717D03*
X0206261Y0248323D03*
X0205473Y0246709D03*
X0205473Y0246551D03*
X0205277Y0246354D03*
X0209214Y0246354D03*
X0209214Y0246551D03*
X0207245Y0250488D03*
X0227127Y0249701D03*
X0227127Y0249504D03*
X0229095Y0247693D03*
X0229095Y0247535D03*
X0229095Y0247339D03*
D87*
X0231950Y0247339D03*
X0228210Y0250882D03*
X0224469Y0250094D03*
X0224273Y0249898D03*
X0223879Y0248717D03*
X0224273Y0246354D03*
X0215808Y0251079D03*
X0211871Y0250685D03*
X0207343Y0249110D03*
D88*
X0207343Y0250685D03*
X0210690Y0249701D03*
X0212658Y0249898D03*
X0215414Y0246709D03*
X0215414Y0245921D03*
X0219942Y0251079D03*
X0230769Y0249307D03*
X0233131Y0249307D03*
D89*
X0225257Y0251079D03*
X0211871Y0245724D03*
D90*
X0207245Y0249701D03*
X0220040Y0247693D03*
X0220237Y0247890D03*
X0224765Y0250685D03*
X0228111Y0251079D03*
D91*
X0227127Y0247890D03*
X0218662Y0248717D03*
X0210591Y0247339D03*
X0209214Y0245921D03*
X0207245Y0250882D03*
D92*
X0207343Y0249504D03*
X0211871Y0250882D03*
X0219548Y0247339D03*
X0219745Y0247535D03*
X0223682Y0248913D03*
X0224666Y0250488D03*
X0227619Y0249110D03*
X0231950Y0247890D03*
X0231950Y0247535D03*
D93*
X0215906Y0250094D03*
X0215906Y0250291D03*
X0215906Y0250488D03*
X0215906Y0250685D03*
X0215906Y0250882D03*
X0211773Y0246906D03*
D94*
X0212658Y0247890D03*
X0207343Y0249898D03*
X0219942Y0250882D03*
X0231950Y0247693D03*
D95*
X0233032Y0246551D03*
X0230867Y0246551D03*
X0230867Y0248913D03*
X0233032Y0248913D03*
X0227324Y0249307D03*
X0224962Y0250882D03*
X0223780Y0249701D03*
X0220828Y0248323D03*
X0224174Y0245921D03*
X0227914Y0245921D03*
X0211773Y0245921D03*
X0210985Y0249110D03*
X0207245Y0250094D03*
D96*
X0207245Y0249307D03*
X0211379Y0248913D03*
X0220040Y0250685D03*
X0224568Y0250291D03*
X0227717Y0248913D03*
D97*
X0227914Y0248717D03*
X0227914Y0249898D03*
X0228111Y0250291D03*
X0228111Y0250488D03*
X0228111Y0250685D03*
X0227914Y0246354D03*
X0220040Y0250488D03*
X0212166Y0248323D03*
X0211969Y0248520D03*
X0211773Y0248717D03*
X0211773Y0246354D03*
X0207245Y0248913D03*
D98*
X0211871Y0250488D03*
X0219942Y0250291D03*
X0223879Y0248520D03*
X0224273Y0246551D03*
X0227816Y0246551D03*
X0227816Y0248520D03*
X0228013Y0250094D03*
X0231950Y0248323D03*
D99*
X0233131Y0249110D03*
X0230769Y0249110D03*
X0228997Y0247890D03*
X0230769Y0246354D03*
X0233131Y0246354D03*
X0225257Y0247693D03*
X0223091Y0247693D03*
X0223485Y0249504D03*
X0221123Y0249701D03*
X0221123Y0248717D03*
X0220926Y0248520D03*
X0216792Y0249504D03*
X0216595Y0249110D03*
X0216399Y0248913D03*
X0216399Y0248717D03*
X0216202Y0248520D03*
X0216005Y0248323D03*
X0215808Y0247890D03*
X0215808Y0247693D03*
X0213052Y0247693D03*
X0208328Y0248323D03*
X0208131Y0248717D03*
X0207343Y0250291D03*
X0206359Y0248520D03*
D100*
X0211773Y0250094D03*
X0211773Y0250291D03*
X0211773Y0246551D03*
X0223977Y0248323D03*
X0224174Y0246709D03*
X0227914Y0246709D03*
X0227914Y0246906D03*
X0227914Y0248323D03*
D101*
X0224076Y0247890D03*
X0224273Y0246906D03*
X0220139Y0245921D03*
X0219942Y0249898D03*
X0219942Y0250094D03*
X0216005Y0249898D03*
X0231950Y0248717D03*
X0231950Y0248520D03*
X0231950Y0246906D03*
X0231950Y0246709D03*
D102*
X0227914Y0245724D03*
X0226930Y0247339D03*
X0224174Y0245724D03*
X0212757Y0249701D03*
X0210591Y0247535D03*
D103*
X0205375Y0245921D03*
X0230769Y0245921D03*
X0233131Y0245921D03*
X0233131Y0249504D03*
X0230769Y0249504D03*
D104*
X0228997Y0247122D03*
X0216005Y0248106D03*
X0210690Y0247122D03*
X0206162Y0248106D03*
D105*
X0208426Y0248106D03*
X0212954Y0247122D03*
X0215513Y0247122D03*
X0225355Y0247122D03*
D106*
X0227914Y0246138D03*
X0212363Y0248106D03*
X0211773Y0246138D03*
D107*
X0220532Y0248106D03*
D108*
X0224076Y0248106D03*
X0223399Y0241945D03*
X0223399Y0241709D03*
X0223399Y0241472D03*
X0223399Y0241236D03*
X0223399Y0241000D03*
X0219619Y0241472D03*
X0219619Y0238638D03*
X0214895Y0241709D03*
X0222048Y0232945D03*
X0222048Y0229165D03*
X0227009Y0229165D03*
X0231903Y0238165D03*
X0231903Y0241945D03*
X0227414Y0241945D03*
X0227414Y0241709D03*
X0227414Y0241472D03*
X0227414Y0241236D03*
X0209462Y0241945D03*
X0205210Y0240764D03*
X0204973Y0241000D03*
X0204737Y0241236D03*
X0204973Y0238402D03*
D109*
X0228013Y0248106D03*
X0231950Y0247122D03*
D110*
X0231950Y0248106D03*
D111*
X0220139Y0246906D03*
X0207343Y0247890D03*
D112*
X0207245Y0247693D03*
X0220040Y0246709D03*
X0220040Y0246551D03*
X0220040Y0246354D03*
D113*
X0207343Y0247535D03*
D114*
X0207245Y0247339D03*
D115*
X0207343Y0247122D03*
D116*
X0219843Y0247122D03*
D117*
X0223091Y0247122D03*
X0223162Y0243598D03*
X0226469Y0242181D03*
X0226469Y0237929D03*
X0228190Y0235307D03*
X0231194Y0237929D03*
X0232847Y0237929D03*
X0232847Y0242181D03*
X0231194Y0242181D03*
X0230769Y0246138D03*
X0233131Y0246138D03*
X0228190Y0228929D03*
X0222993Y0228929D03*
X0221340Y0228929D03*
X0218032Y0228929D03*
X0214017Y0228929D03*
X0210946Y0228929D03*
X0214017Y0233181D03*
X0215906Y0233181D03*
X0218032Y0233181D03*
X0218032Y0235307D03*
X0215131Y0237693D03*
X0220564Y0239346D03*
X0220564Y0240764D03*
X0215414Y0246138D03*
X0210170Y0242181D03*
X0208517Y0242181D03*
X0209312Y0246138D03*
X0205375Y0246138D03*
X0221340Y0233181D03*
X0222993Y0233181D03*
D118*
X0226930Y0247122D03*
D119*
X0207245Y0246906D03*
D120*
X0210985Y0246709D03*
D121*
X0220139Y0246138D03*
D122*
X0224273Y0246138D03*
X0223753Y0238874D03*
X0223753Y0238638D03*
X0223753Y0238402D03*
X0215013Y0242181D03*
X0206036Y0240291D03*
X0203910Y0241709D03*
X0235564Y0238874D03*
X0235564Y0238638D03*
D123*
X0235091Y0244307D03*
X0216194Y0239110D03*
X0206036Y0242417D03*
X0203438Y0239819D03*
D124*
X0203556Y0239346D03*
X0203556Y0241945D03*
X0203556Y0242181D03*
X0203556Y0242417D03*
X0204973Y0244071D03*
X0206391Y0240055D03*
X0206391Y0239819D03*
X0206391Y0239583D03*
X0206391Y0239346D03*
X0208517Y0239819D03*
X0208517Y0240055D03*
X0208517Y0240291D03*
X0208517Y0240528D03*
X0208517Y0237929D03*
X0208517Y0237693D03*
X0208517Y0237457D03*
X0208517Y0237220D03*
X0208517Y0236984D03*
X0208517Y0236748D03*
X0208517Y0236512D03*
X0210946Y0233654D03*
X0210946Y0233417D03*
X0210946Y0233181D03*
X0210946Y0232945D03*
X0210946Y0232709D03*
X0210946Y0232472D03*
X0210946Y0232236D03*
X0210946Y0232000D03*
X0210946Y0231764D03*
X0210946Y0231528D03*
X0210946Y0231291D03*
X0210946Y0231055D03*
X0210946Y0230819D03*
X0210946Y0230583D03*
X0210946Y0230346D03*
X0210946Y0230110D03*
X0210946Y0229874D03*
X0210946Y0229638D03*
X0210946Y0229402D03*
X0210946Y0229165D03*
X0214253Y0231764D03*
X0218032Y0231764D03*
X0218032Y0232000D03*
X0218032Y0232236D03*
X0218032Y0232472D03*
X0218032Y0232709D03*
X0218032Y0232945D03*
X0218032Y0234362D03*
X0218032Y0234598D03*
X0218032Y0234835D03*
X0218032Y0235071D03*
X0218032Y0231528D03*
X0218032Y0231291D03*
X0218032Y0231055D03*
X0218032Y0230819D03*
X0218032Y0230583D03*
X0218032Y0230346D03*
X0218032Y0230110D03*
X0218032Y0229874D03*
X0218032Y0229638D03*
X0218032Y0229402D03*
X0218032Y0229165D03*
X0220158Y0230583D03*
X0219922Y0231055D03*
X0220158Y0231528D03*
X0222993Y0231291D03*
X0222993Y0231055D03*
X0222993Y0230819D03*
X0225119Y0230819D03*
X0225119Y0231055D03*
X0225119Y0231291D03*
X0228190Y0231291D03*
X0228190Y0231055D03*
X0228190Y0230819D03*
X0228190Y0233181D03*
X0228190Y0233417D03*
X0228190Y0233654D03*
X0228190Y0233890D03*
X0228190Y0234126D03*
X0228190Y0234362D03*
X0228190Y0234598D03*
X0228190Y0234835D03*
X0226469Y0238165D03*
X0226469Y0238402D03*
X0226469Y0238638D03*
X0226469Y0238874D03*
X0226469Y0239110D03*
X0226469Y0239346D03*
X0226469Y0239583D03*
X0226469Y0239819D03*
X0226469Y0240055D03*
X0226469Y0240291D03*
X0226469Y0240528D03*
X0223162Y0240528D03*
X0223162Y0240291D03*
X0223162Y0240055D03*
X0223162Y0239819D03*
X0223162Y0239583D03*
X0223162Y0239346D03*
X0223162Y0242417D03*
X0223162Y0242654D03*
X0223162Y0242890D03*
X0223162Y0243126D03*
X0223162Y0243362D03*
X0218202Y0240291D03*
X0218202Y0240055D03*
X0218202Y0239819D03*
X0216312Y0240528D03*
X0216312Y0240764D03*
X0213477Y0240528D03*
X0213477Y0239346D03*
X0211351Y0239819D03*
X0211351Y0240055D03*
X0211351Y0240291D03*
X0211351Y0240528D03*
X0230013Y0240528D03*
X0230013Y0240291D03*
X0230013Y0239819D03*
X0230013Y0239583D03*
X0232847Y0239583D03*
X0232847Y0239819D03*
X0232847Y0240055D03*
X0232847Y0240291D03*
X0232847Y0240528D03*
X0235210Y0239346D03*
D125*
X0235091Y0239583D03*
X0235091Y0239819D03*
X0235091Y0240055D03*
X0235091Y0240291D03*
X0235091Y0240528D03*
X0235091Y0240764D03*
X0235091Y0241000D03*
X0235091Y0241236D03*
X0235091Y0241472D03*
X0235091Y0241709D03*
X0235091Y0241945D03*
X0235091Y0242181D03*
X0235091Y0242417D03*
X0235091Y0242654D03*
X0235091Y0242890D03*
X0235091Y0243126D03*
X0235091Y0243362D03*
X0235091Y0243598D03*
X0235091Y0243835D03*
X0235091Y0244071D03*
X0235800Y0237929D03*
X0229895Y0240055D03*
X0228241Y0242181D03*
X0223989Y0237929D03*
X0228072Y0235071D03*
X0226418Y0233181D03*
X0226418Y0228929D03*
X0220040Y0230819D03*
X0220040Y0231291D03*
X0217914Y0234126D03*
X0214135Y0231528D03*
X0214135Y0231291D03*
X0214135Y0231055D03*
X0214135Y0230819D03*
X0214135Y0230583D03*
X0214135Y0230346D03*
X0214135Y0230110D03*
X0214135Y0229874D03*
X0214135Y0229638D03*
X0214135Y0229402D03*
X0214135Y0229165D03*
X0208399Y0236276D03*
X0203438Y0239583D03*
X0206036Y0242654D03*
D126*
X0204973Y0243835D03*
X0215131Y0237929D03*
X0223635Y0239110D03*
D127*
X0223162Y0243835D03*
X0218032Y0233890D03*
X0210170Y0237929D03*
D128*
X0209343Y0238165D03*
X0205564Y0240528D03*
X0204855Y0243598D03*
X0215013Y0238165D03*
X0219737Y0238402D03*
X0219737Y0241709D03*
X0227296Y0241000D03*
X0215080Y0232945D03*
X0215080Y0232709D03*
X0215080Y0232472D03*
X0215080Y0232236D03*
X0215080Y0232000D03*
D129*
X0215013Y0238402D03*
X0214777Y0238874D03*
X0214540Y0239583D03*
X0219501Y0239110D03*
X0219501Y0238874D03*
X0219501Y0241000D03*
X0219501Y0241236D03*
X0221930Y0232709D03*
X0221930Y0229402D03*
X0227127Y0232945D03*
X0231784Y0238402D03*
X0231784Y0241709D03*
X0209580Y0241709D03*
X0209580Y0238402D03*
X0204855Y0243362D03*
D130*
X0204973Y0243126D03*
X0204737Y0242890D03*
X0204973Y0238638D03*
X0209698Y0238638D03*
X0209698Y0238874D03*
X0209698Y0241472D03*
X0214895Y0241472D03*
X0214895Y0241236D03*
X0214895Y0238638D03*
X0221812Y0232472D03*
X0221812Y0229638D03*
X0227009Y0229402D03*
X0227009Y0232709D03*
X0231666Y0238638D03*
X0231666Y0241472D03*
D131*
X0226588Y0240764D03*
X0223044Y0240764D03*
X0219737Y0242181D03*
X0218320Y0240528D03*
X0218320Y0239583D03*
X0218556Y0239346D03*
X0219737Y0237929D03*
X0222875Y0231528D03*
X0222875Y0230583D03*
X0225237Y0230583D03*
X0225237Y0231528D03*
X0228072Y0231528D03*
X0228072Y0230583D03*
X0213595Y0240764D03*
X0211233Y0240764D03*
X0211233Y0239583D03*
X0208635Y0239583D03*
X0203674Y0242654D03*
D132*
X0204855Y0237693D03*
X0215013Y0242417D03*
X0220682Y0240528D03*
X0224462Y0240764D03*
X0228477Y0240764D03*
D133*
X0223399Y0242181D03*
X0214895Y0241945D03*
X0204973Y0238165D03*
X0204501Y0241472D03*
D134*
X0219737Y0241945D03*
X0219737Y0238165D03*
D135*
X0214777Y0239819D03*
X0209816Y0239346D03*
X0209816Y0239110D03*
X0209816Y0241000D03*
X0209816Y0241236D03*
X0204855Y0238874D03*
X0221694Y0232236D03*
X0221694Y0229874D03*
X0226891Y0229874D03*
X0226891Y0229638D03*
X0226891Y0232236D03*
X0226891Y0232472D03*
X0231548Y0238874D03*
X0231548Y0239110D03*
X0231548Y0241000D03*
X0231548Y0241236D03*
D136*
X0231430Y0240764D03*
X0231430Y0239346D03*
X0226773Y0232000D03*
X0226773Y0231764D03*
X0226773Y0230346D03*
X0226773Y0230110D03*
X0221576Y0230110D03*
X0221576Y0230346D03*
X0221576Y0231764D03*
X0221576Y0232000D03*
X0214658Y0240055D03*
X0214895Y0240291D03*
X0214895Y0241000D03*
X0204973Y0239110D03*
D137*
X0204973Y0237929D03*
X0208753Y0240764D03*
X0213714Y0239110D03*
X0218438Y0240764D03*
X0223871Y0238165D03*
X0235446Y0239110D03*
X0235682Y0238402D03*
X0235682Y0238165D03*
D138*
X0220564Y0239583D03*
X0216143Y0231764D03*
D139*
X0304414Y0322776D03*
X0304414Y0327224D03*
D140*
X0304414Y0327126D03*
D141*
X0304414Y0327008D03*
D142*
X0304414Y0326870D03*
X0304414Y0323091D03*
D143*
X0304414Y0323209D03*
X0304414Y0326752D03*
D144*
X0304414Y0326654D03*
D145*
X0306127Y0326555D03*
D146*
X0310556Y0326280D03*
D147*
X0310615Y0325945D03*
X0298214Y0324055D03*
X0298627Y0356685D03*
X0297210Y0357157D03*
X0293745Y0358890D03*
X0290438Y0358732D03*
X0247107Y0357472D03*
X0247107Y0356370D03*
X0240178Y0354953D03*
D148*
X0304178Y0325610D03*
X0305595Y0323720D03*
D149*
X0310143Y0324390D03*
X0310143Y0324665D03*
X0310143Y0324783D03*
X0310143Y0324862D03*
X0310143Y0325138D03*
X0310143Y0325217D03*
X0310143Y0325335D03*
X0310143Y0325610D03*
D150*
X0307013Y0325472D03*
X0304060Y0325000D03*
X0302052Y0325000D03*
D151*
X0310143Y0325000D03*
X0310143Y0324528D03*
X0310143Y0325472D03*
D152*
X0305595Y0323445D03*
X0301934Y0323445D03*
X0301816Y0325217D03*
D153*
X0298273Y0325000D03*
D154*
X0298509Y0324783D03*
X0309847Y0323445D03*
X0309966Y0323720D03*
D155*
X0298863Y0324528D03*
D156*
X0310084Y0324055D03*
D157*
X0310025Y0323917D03*
X0310025Y0323839D03*
D158*
X0301993Y0323583D03*
X0299099Y0355425D03*
X0296737Y0358260D03*
X0296737Y0358417D03*
X0293588Y0359047D03*
X0289178Y0357945D03*
X0289178Y0356055D03*
X0248367Y0355583D03*
X0248210Y0355740D03*
X0248052Y0355898D03*
X0247895Y0356055D03*
X0247737Y0356213D03*
X0247737Y0357630D03*
X0247895Y0357787D03*
X0248052Y0357945D03*
X0248210Y0358102D03*
X0248210Y0358260D03*
X0248367Y0358417D03*
D159*
X0305654Y0323583D03*
D160*
X0309966Y0323583D03*
D161*
X0304414Y0323327D03*
D162*
X0210946Y0235071D03*
D163*
X0210946Y0234835D03*
X0210946Y0234598D03*
X0210946Y0234362D03*
X0210946Y0234126D03*
D164*
X0210946Y0233890D03*
D165*
X0241280Y0356685D03*
X0241123Y0356843D03*
X0241123Y0357000D03*
X0241123Y0357157D03*
X0240178Y0359047D03*
X0296895Y0357945D03*
X0298942Y0355898D03*
D166*
X0299257Y0359047D03*
X0296580Y0359047D03*
X0291383Y0357787D03*
X0243013Y0359047D03*
X0243430Y0225528D03*
X0254847Y0223795D03*
X0254690Y0222535D03*
X0284532Y0225713D03*
X0284690Y0225713D03*
X0294060Y0225398D03*
X0294217Y0226815D03*
D167*
X0290517Y0354795D03*
X0246399Y0359047D03*
D168*
X0240257Y0358890D03*
D169*
X0246320Y0354953D03*
X0248525Y0358890D03*
X0292958Y0354953D03*
X0295162Y0354953D03*
X0296580Y0354953D03*
X0299257Y0354953D03*
X0296580Y0358890D03*
D170*
X0296580Y0358732D03*
X0295162Y0357787D03*
X0295162Y0357630D03*
X0295162Y0357472D03*
X0295162Y0357315D03*
X0295005Y0355898D03*
X0295005Y0355740D03*
X0295162Y0355425D03*
X0295162Y0355268D03*
X0296580Y0355268D03*
X0296580Y0355425D03*
X0296580Y0355583D03*
X0296580Y0355740D03*
X0296580Y0355898D03*
X0296580Y0356055D03*
X0296580Y0356213D03*
X0296580Y0356370D03*
X0296580Y0356528D03*
X0296580Y0356685D03*
X0296580Y0356843D03*
X0296580Y0357000D03*
X0297840Y0357000D03*
X0299257Y0357000D03*
X0299257Y0356843D03*
X0299257Y0357157D03*
X0299257Y0357315D03*
X0299257Y0357472D03*
X0299257Y0357630D03*
X0299257Y0357787D03*
X0299257Y0357945D03*
X0299257Y0358102D03*
X0299257Y0358260D03*
X0299257Y0358417D03*
X0299257Y0358575D03*
X0296580Y0355110D03*
X0292958Y0355110D03*
X0292958Y0355268D03*
X0292958Y0355425D03*
X0292958Y0355583D03*
X0292958Y0355740D03*
X0292958Y0355898D03*
X0292958Y0357157D03*
X0292958Y0357315D03*
X0292958Y0357472D03*
X0292958Y0357630D03*
X0292958Y0357787D03*
X0292958Y0357945D03*
X0291540Y0356370D03*
X0291540Y0356213D03*
X0291540Y0356055D03*
X0289021Y0356370D03*
X0288863Y0356528D03*
X0288863Y0356685D03*
X0288863Y0356843D03*
X0288863Y0357000D03*
X0288863Y0357157D03*
X0288863Y0357315D03*
X0288863Y0357472D03*
X0289021Y0357630D03*
X0290438Y0359047D03*
X0248525Y0358732D03*
X0248525Y0355268D03*
X0243013Y0355898D03*
X0243013Y0356055D03*
X0243013Y0356213D03*
X0243013Y0356370D03*
X0243013Y0356528D03*
X0243013Y0356685D03*
X0243013Y0356843D03*
X0243013Y0357000D03*
X0243013Y0357157D03*
X0243013Y0357315D03*
X0243013Y0357472D03*
X0243013Y0357630D03*
X0243013Y0357787D03*
X0243013Y0357945D03*
X0243013Y0358102D03*
X0243013Y0358260D03*
X0243013Y0358417D03*
X0243013Y0358575D03*
X0243013Y0358732D03*
X0241595Y0357787D03*
X0241595Y0357630D03*
X0241595Y0356528D03*
X0241595Y0356055D03*
X0239391Y0356055D03*
X0239391Y0356213D03*
X0239391Y0356370D03*
X0239391Y0356528D03*
X0239391Y0356685D03*
X0239391Y0356843D03*
X0239391Y0357000D03*
X0239391Y0357157D03*
X0239391Y0357315D03*
X0239391Y0357472D03*
X0239391Y0357630D03*
X0239391Y0357787D03*
X0239391Y0357945D03*
D171*
X0240336Y0358575D03*
X0240336Y0355268D03*
X0243958Y0355268D03*
X0243958Y0355425D03*
X0243958Y0355583D03*
X0243958Y0355110D03*
X0290438Y0355425D03*
X0290438Y0358417D03*
X0293903Y0358417D03*
X0293903Y0356528D03*
X0293903Y0356370D03*
X0293903Y0356213D03*
X0293903Y0356055D03*
D172*
X0295084Y0355583D03*
X0295084Y0357157D03*
X0295084Y0357945D03*
X0296658Y0358575D03*
X0297918Y0356843D03*
X0299178Y0355268D03*
X0291462Y0355898D03*
X0289099Y0356213D03*
X0289099Y0357787D03*
X0248446Y0358575D03*
X0248446Y0355425D03*
X0241517Y0357945D03*
X0241359Y0357472D03*
D173*
X0240414Y0358102D03*
X0240414Y0358260D03*
X0240414Y0358417D03*
X0240414Y0355583D03*
X0240414Y0355425D03*
X0290202Y0358102D03*
X0290359Y0358260D03*
X0293981Y0358260D03*
X0293981Y0358102D03*
X0293981Y0356843D03*
X0293981Y0356685D03*
D174*
X0291304Y0356528D03*
X0291147Y0357315D03*
X0289414Y0355898D03*
X0290517Y0354953D03*
X0296816Y0358102D03*
X0299021Y0355740D03*
X0299021Y0355583D03*
X0241202Y0357315D03*
D175*
X0247028Y0357315D03*
X0247028Y0356528D03*
X0290517Y0355110D03*
X0297131Y0357315D03*
X0298706Y0356528D03*
D176*
X0298784Y0356370D03*
X0298784Y0356213D03*
X0297052Y0357472D03*
X0290438Y0358890D03*
X0246950Y0357157D03*
X0246950Y0356685D03*
D177*
X0246871Y0356843D03*
X0246871Y0357000D03*
X0291147Y0357000D03*
X0291147Y0356843D03*
X0291147Y0356685D03*
X0291147Y0357157D03*
X0296973Y0357630D03*
X0296973Y0357787D03*
X0298863Y0356055D03*
D178*
X0294060Y0357000D03*
X0290438Y0355583D03*
X0240493Y0355740D03*
X0240493Y0355898D03*
D179*
X0243800Y0355740D03*
X0293745Y0358732D03*
D180*
X0291304Y0357945D03*
X0248446Y0354953D03*
D181*
X0290359Y0355740D03*
D182*
X0290910Y0226028D03*
X0291068Y0226028D03*
X0291225Y0226028D03*
X0291383Y0226028D03*
X0291540Y0226028D03*
X0291698Y0226028D03*
X0291855Y0226028D03*
X0296265Y0226028D03*
X0296422Y0226028D03*
X0296580Y0226028D03*
X0296737Y0226028D03*
X0296895Y0226028D03*
X0297052Y0226028D03*
X0297210Y0226028D03*
X0276422Y0226028D03*
X0271698Y0226028D03*
D183*
X0274532Y0220043D03*
X0264532Y0220043D03*
X0262013Y0223665D03*
X0256107Y0228677D03*
X0245950Y0229307D03*
X0243588Y0230567D03*
X0275320Y0232799D03*
X0292013Y0220043D03*
X0296107Y0232012D03*
D184*
X0292013Y0228154D03*
X0252643Y0224189D03*
X0247210Y0224031D03*
X0240910Y0224031D03*
D185*
X0243115Y0230409D03*
X0243273Y0230409D03*
X0246265Y0229150D03*
X0255792Y0228520D03*
X0265477Y0231854D03*
X0265635Y0231854D03*
X0275635Y0232799D03*
X0276107Y0232484D03*
X0284532Y0228390D03*
X0286107Y0227445D03*
X0286107Y0223980D03*
X0292170Y0219886D03*
X0293430Y0222720D03*
X0293588Y0222720D03*
X0292170Y0232169D03*
D186*
X0293430Y0230043D03*
X0294847Y0230043D03*
X0295477Y0225949D03*
X0295635Y0225949D03*
X0296107Y0223744D03*
X0295005Y0222169D03*
X0292170Y0223744D03*
X0292800Y0226264D03*
X0284532Y0223902D03*
X0284217Y0223744D03*
X0283903Y0223587D03*
X0284690Y0221697D03*
X0283430Y0225791D03*
X0283430Y0227996D03*
X0284690Y0229571D03*
X0275005Y0225161D03*
X0273273Y0225161D03*
X0273745Y0222957D03*
X0274847Y0221539D03*
X0273430Y0227681D03*
X0273273Y0227681D03*
X0266107Y0226894D03*
X0262485Y0223587D03*
X0264847Y0221539D03*
X0256265Y0223087D03*
X0256107Y0223087D03*
X0253430Y0223244D03*
X0246422Y0221669D03*
X0245005Y0223402D03*
X0245005Y0226236D03*
X0245162Y0226236D03*
X0245320Y0226236D03*
X0245477Y0226236D03*
X0245635Y0226236D03*
X0245792Y0226236D03*
X0245950Y0226236D03*
X0244847Y0226236D03*
D187*
X0242013Y0229858D03*
X0243115Y0219465D03*
X0243273Y0219465D03*
X0243430Y0219465D03*
X0243588Y0219465D03*
X0243745Y0219465D03*
X0243903Y0219465D03*
X0244060Y0219465D03*
X0244217Y0219465D03*
X0244375Y0219465D03*
X0244532Y0219465D03*
X0244690Y0219465D03*
X0244847Y0219465D03*
X0245005Y0219465D03*
X0245162Y0219465D03*
X0245320Y0219465D03*
X0245477Y0219465D03*
X0245635Y0219465D03*
X0245792Y0219465D03*
X0245950Y0219465D03*
X0246107Y0219465D03*
X0246265Y0219465D03*
X0246422Y0219465D03*
X0253115Y0219622D03*
X0256422Y0219622D03*
X0262800Y0219335D03*
X0262958Y0219335D03*
X0263115Y0219335D03*
X0263273Y0219335D03*
X0263430Y0219335D03*
X0263588Y0219335D03*
X0263745Y0219335D03*
X0265005Y0219335D03*
X0265162Y0219335D03*
X0265477Y0219335D03*
X0265635Y0219335D03*
X0263588Y0222642D03*
X0265950Y0223587D03*
X0273588Y0222642D03*
X0273588Y0219335D03*
X0273430Y0219335D03*
X0273273Y0219335D03*
X0273115Y0219335D03*
X0272958Y0219335D03*
X0272800Y0219335D03*
X0275005Y0219335D03*
X0275162Y0219335D03*
X0275320Y0219335D03*
X0275477Y0219335D03*
X0282643Y0219492D03*
X0282800Y0219492D03*
X0282958Y0219492D03*
X0283115Y0219492D03*
X0283273Y0219492D03*
X0284690Y0219492D03*
X0285635Y0219492D03*
X0282800Y0225791D03*
X0283588Y0228311D03*
X0283588Y0231933D03*
X0283745Y0231933D03*
X0284217Y0231933D03*
X0284375Y0231933D03*
X0285635Y0231933D03*
X0282800Y0231933D03*
X0282643Y0231933D03*
X0275635Y0229256D03*
X0292170Y0226106D03*
X0296107Y0226106D03*
X0295005Y0232720D03*
X0294847Y0232720D03*
X0293273Y0232720D03*
X0293115Y0232720D03*
X0293115Y0219335D03*
X0293273Y0219335D03*
X0293430Y0219335D03*
X0294690Y0219335D03*
X0294847Y0219335D03*
X0295005Y0219335D03*
X0254690Y0227969D03*
X0252170Y0229228D03*
D188*
X0253430Y0228598D03*
X0254217Y0223559D03*
X0254375Y0223559D03*
X0255320Y0222772D03*
X0253115Y0221512D03*
X0245477Y0223087D03*
X0244690Y0223244D03*
X0243588Y0223087D03*
X0243115Y0225449D03*
X0262328Y0227051D03*
X0263115Y0227051D03*
X0265005Y0227051D03*
X0265005Y0223429D03*
X0265162Y0223429D03*
X0262958Y0221697D03*
X0272485Y0223272D03*
X0272643Y0223272D03*
X0272800Y0223272D03*
X0274060Y0223272D03*
X0275635Y0223272D03*
X0275162Y0225004D03*
X0275477Y0226894D03*
X0275635Y0226894D03*
X0275320Y0227051D03*
X0274690Y0227366D03*
X0274375Y0227524D03*
X0274217Y0227524D03*
X0274375Y0229256D03*
X0272958Y0221697D03*
X0282485Y0223272D03*
X0282800Y0223429D03*
X0283115Y0223587D03*
X0283273Y0223587D03*
X0282958Y0227996D03*
X0282800Y0227996D03*
X0282485Y0228154D03*
X0292170Y0228154D03*
X0293588Y0226579D03*
X0294690Y0225634D03*
X0293745Y0223902D03*
X0292958Y0223902D03*
X0292800Y0223902D03*
X0292643Y0223902D03*
X0292485Y0223902D03*
X0295792Y0223902D03*
X0295950Y0228154D03*
X0295162Y0229728D03*
D189*
X0292328Y0232327D03*
X0292328Y0219728D03*
X0276107Y0219728D03*
X0272328Y0227445D03*
X0264847Y0226028D03*
X0263430Y0226028D03*
X0264375Y0219728D03*
X0255477Y0228362D03*
X0244217Y0225528D03*
D190*
X0243903Y0224425D03*
X0244847Y0223323D03*
X0245635Y0224425D03*
X0243430Y0223008D03*
X0243903Y0221591D03*
X0244690Y0221591D03*
X0245635Y0221591D03*
X0245792Y0221591D03*
X0254060Y0223480D03*
X0255477Y0222850D03*
X0255635Y0222850D03*
X0253273Y0228677D03*
X0263273Y0226972D03*
X0265162Y0225555D03*
X0265320Y0223508D03*
X0265477Y0223508D03*
X0263903Y0223035D03*
X0272328Y0223193D03*
X0272958Y0223193D03*
X0273903Y0223193D03*
X0275792Y0223193D03*
X0274060Y0227602D03*
X0273903Y0227602D03*
X0282328Y0228232D03*
X0283115Y0227917D03*
X0283273Y0227917D03*
X0283115Y0229650D03*
X0285162Y0229650D03*
X0284060Y0225713D03*
X0283903Y0225713D03*
X0283430Y0223665D03*
X0282328Y0223193D03*
X0283115Y0221776D03*
X0285162Y0221776D03*
X0292328Y0223823D03*
X0293115Y0223823D03*
X0294847Y0225713D03*
X0295005Y0225713D03*
X0293430Y0226500D03*
X0296107Y0228075D03*
X0295162Y0222248D03*
D191*
X0294690Y0222012D03*
X0294532Y0222012D03*
X0292328Y0226106D03*
X0293745Y0230201D03*
X0293903Y0230201D03*
X0294060Y0230201D03*
X0294217Y0230201D03*
X0294375Y0230201D03*
X0285162Y0227366D03*
X0285005Y0227366D03*
X0284690Y0227524D03*
X0283115Y0225791D03*
X0284060Y0223587D03*
X0285005Y0224059D03*
X0285162Y0224059D03*
X0275320Y0229256D03*
X0273115Y0227681D03*
X0272958Y0227681D03*
X0273588Y0225319D03*
X0273745Y0225319D03*
X0274375Y0225319D03*
X0274532Y0225319D03*
X0274690Y0225319D03*
X0265792Y0223587D03*
X0263273Y0225634D03*
X0256265Y0225449D03*
X0256107Y0225449D03*
X0255950Y0225449D03*
X0255792Y0225449D03*
X0255635Y0225449D03*
X0255477Y0225449D03*
X0255320Y0225449D03*
X0255162Y0225449D03*
X0255005Y0225449D03*
X0254847Y0225449D03*
X0254690Y0225449D03*
X0254532Y0225449D03*
X0254375Y0225449D03*
X0254217Y0225449D03*
X0254060Y0225449D03*
X0253903Y0225449D03*
X0253115Y0223087D03*
X0256422Y0223087D03*
X0252170Y0219465D03*
X0252013Y0219465D03*
X0251855Y0219465D03*
X0251698Y0219465D03*
X0246265Y0226079D03*
X0243903Y0226079D03*
X0241540Y0229543D03*
X0241698Y0229701D03*
X0241698Y0219307D03*
X0241855Y0219307D03*
X0242013Y0219307D03*
X0242170Y0219307D03*
D192*
X0244532Y0223165D03*
X0246265Y0223323D03*
X0253115Y0224740D03*
X0254532Y0223638D03*
X0255162Y0222693D03*
X0255162Y0221433D03*
X0255005Y0221433D03*
X0254847Y0221433D03*
X0254690Y0221433D03*
X0254532Y0221433D03*
X0254375Y0221433D03*
X0254217Y0221433D03*
X0254060Y0221433D03*
X0253903Y0221433D03*
X0253745Y0221433D03*
X0253588Y0221433D03*
X0253430Y0221433D03*
X0253273Y0221433D03*
X0255320Y0221433D03*
X0255477Y0221433D03*
X0255635Y0221433D03*
X0255792Y0221433D03*
X0255950Y0221433D03*
X0256107Y0221433D03*
X0256265Y0221433D03*
X0256422Y0221433D03*
X0253588Y0228520D03*
X0262485Y0227130D03*
X0262958Y0227130D03*
X0265162Y0227130D03*
X0265320Y0227130D03*
X0265792Y0227130D03*
X0264847Y0223350D03*
X0264690Y0223350D03*
X0264532Y0223350D03*
X0264217Y0223193D03*
X0264060Y0223193D03*
X0274217Y0223350D03*
X0274375Y0223350D03*
X0274532Y0223350D03*
X0274690Y0223350D03*
X0275005Y0223350D03*
X0275162Y0223350D03*
X0275320Y0223350D03*
X0275477Y0223350D03*
X0275162Y0227130D03*
X0275005Y0227287D03*
X0274847Y0227287D03*
X0274532Y0227445D03*
X0274217Y0229177D03*
X0282643Y0228075D03*
X0284217Y0225713D03*
X0284375Y0225713D03*
X0282958Y0223508D03*
X0282643Y0223350D03*
X0292328Y0228075D03*
X0292485Y0228075D03*
X0292643Y0228075D03*
X0292800Y0228075D03*
X0292958Y0228075D03*
X0293115Y0228075D03*
X0293273Y0228075D03*
X0293430Y0228075D03*
X0293588Y0228075D03*
X0293745Y0228075D03*
X0293903Y0228075D03*
X0294060Y0228075D03*
X0294217Y0228075D03*
X0294375Y0228075D03*
X0294532Y0228075D03*
X0294690Y0228075D03*
X0294847Y0228075D03*
X0295005Y0228075D03*
X0295162Y0228075D03*
X0295320Y0228075D03*
X0295477Y0228075D03*
X0295635Y0228075D03*
X0295792Y0228075D03*
X0293903Y0226657D03*
X0293745Y0226657D03*
X0294532Y0225555D03*
X0294532Y0223980D03*
X0294375Y0223980D03*
X0294217Y0223980D03*
X0294060Y0223980D03*
X0293903Y0223980D03*
X0294690Y0223980D03*
X0294847Y0223980D03*
X0295005Y0223980D03*
X0295162Y0223980D03*
X0295320Y0223980D03*
X0295477Y0223980D03*
X0295635Y0223980D03*
D193*
X0295792Y0219650D03*
X0292485Y0219650D03*
X0286107Y0219807D03*
X0285950Y0224059D03*
X0285950Y0227366D03*
X0286107Y0231618D03*
X0292485Y0232406D03*
X0295792Y0232406D03*
X0272170Y0219650D03*
X0266107Y0219650D03*
X0266107Y0223587D03*
X0255320Y0228283D03*
D194*
X0253745Y0225370D03*
X0253273Y0223165D03*
X0246107Y0226157D03*
X0244690Y0226157D03*
X0243745Y0226157D03*
X0265005Y0225555D03*
X0273430Y0225240D03*
X0274847Y0225240D03*
X0276107Y0223035D03*
X0283273Y0225713D03*
X0284375Y0223823D03*
X0284690Y0223980D03*
X0284847Y0223980D03*
X0284847Y0227445D03*
X0292485Y0226185D03*
X0292643Y0226185D03*
X0295792Y0226028D03*
X0294847Y0222091D03*
X0294690Y0230122D03*
X0294532Y0230122D03*
X0293588Y0230122D03*
D195*
X0292800Y0232563D03*
X0295477Y0232563D03*
X0285950Y0231776D03*
X0284060Y0231776D03*
X0282328Y0231776D03*
X0284060Y0228154D03*
X0284217Y0228154D03*
X0285792Y0227366D03*
X0285792Y0224059D03*
X0285950Y0219650D03*
X0283430Y0219650D03*
X0282328Y0219650D03*
X0274060Y0219492D03*
X0272328Y0219492D03*
X0273430Y0222484D03*
X0272485Y0227524D03*
X0275950Y0229256D03*
X0263430Y0222484D03*
X0264060Y0219492D03*
X0262328Y0219492D03*
X0255005Y0228126D03*
X0251855Y0229386D03*
X0292643Y0219492D03*
X0292800Y0219492D03*
X0295477Y0219492D03*
D196*
X0295635Y0219571D03*
X0295635Y0232484D03*
X0292643Y0232484D03*
X0284375Y0228075D03*
X0282328Y0225713D03*
X0282170Y0225713D03*
X0282170Y0231697D03*
X0276107Y0229177D03*
X0273273Y0222406D03*
X0274217Y0219571D03*
X0275950Y0219571D03*
X0282170Y0219728D03*
X0265950Y0219571D03*
X0264217Y0219571D03*
X0262170Y0219571D03*
X0263273Y0222406D03*
X0262170Y0223665D03*
X0255162Y0228205D03*
X0251698Y0229465D03*
X0244375Y0225685D03*
X0242328Y0229937D03*
D197*
X0242170Y0229937D03*
X0246422Y0226000D03*
X0245320Y0223795D03*
X0245162Y0223638D03*
X0252013Y0229307D03*
X0252328Y0228992D03*
X0254847Y0228047D03*
X0262485Y0219413D03*
X0262643Y0219413D03*
X0263903Y0219413D03*
X0264847Y0219413D03*
X0265792Y0219413D03*
X0272485Y0219413D03*
X0272643Y0219413D03*
X0273745Y0219413D03*
X0273903Y0219413D03*
X0274847Y0219413D03*
X0275635Y0219413D03*
X0275792Y0219413D03*
X0282485Y0219571D03*
X0285792Y0219571D03*
X0285635Y0224138D03*
X0285635Y0227287D03*
X0283903Y0228232D03*
X0283745Y0228232D03*
X0282643Y0225713D03*
X0282485Y0225713D03*
X0282485Y0231854D03*
X0283903Y0231854D03*
X0285792Y0231854D03*
X0292958Y0232642D03*
X0295162Y0232642D03*
X0295320Y0232642D03*
X0295320Y0219413D03*
X0295162Y0219413D03*
X0292958Y0219413D03*
X0275792Y0229177D03*
X0272643Y0227602D03*
D198*
X0275950Y0226657D03*
X0275005Y0221618D03*
X0272170Y0223035D03*
X0265635Y0223508D03*
X0265005Y0221618D03*
X0263745Y0222878D03*
X0263115Y0223193D03*
X0262800Y0223350D03*
X0262643Y0223508D03*
X0263115Y0225555D03*
X0262170Y0226972D03*
X0255950Y0223008D03*
X0253745Y0223323D03*
X0253588Y0223323D03*
X0253115Y0228677D03*
X0246422Y0223323D03*
X0246265Y0221748D03*
X0243273Y0223008D03*
X0282170Y0223193D03*
X0283745Y0223665D03*
X0283273Y0221776D03*
X0283430Y0221618D03*
X0284847Y0221776D03*
X0285005Y0221776D03*
X0283745Y0225713D03*
X0283588Y0225713D03*
X0282170Y0228232D03*
X0283430Y0229492D03*
X0283273Y0229650D03*
X0284847Y0229650D03*
X0285005Y0229650D03*
X0293273Y0229965D03*
X0295005Y0229965D03*
X0295320Y0225870D03*
X0292958Y0226343D03*
X0293115Y0222248D03*
X0293745Y0221618D03*
D199*
X0293903Y0221539D03*
X0294060Y0221539D03*
X0294217Y0221539D03*
X0294375Y0221539D03*
X0295950Y0223902D03*
X0295162Y0225791D03*
X0293273Y0226421D03*
X0293115Y0226421D03*
X0293115Y0229886D03*
X0283588Y0223587D03*
X0275950Y0223114D03*
X0275162Y0221697D03*
X0273115Y0221697D03*
X0273115Y0223114D03*
X0273115Y0225004D03*
X0273588Y0227681D03*
X0273745Y0227681D03*
X0275792Y0226736D03*
X0265950Y0227051D03*
X0262958Y0223272D03*
X0263115Y0221697D03*
X0265162Y0221697D03*
X0255792Y0222929D03*
X0253903Y0223402D03*
X0246107Y0221669D03*
X0245950Y0221669D03*
X0244532Y0221669D03*
X0244375Y0221669D03*
X0244217Y0221669D03*
X0244060Y0221669D03*
X0245477Y0224346D03*
D200*
X0244060Y0225449D03*
X0246422Y0229071D03*
X0251540Y0229386D03*
X0255635Y0228441D03*
X0263588Y0225949D03*
X0263745Y0225949D03*
X0263903Y0225949D03*
X0264060Y0225949D03*
X0264217Y0225949D03*
X0264375Y0225949D03*
X0264532Y0225949D03*
X0264690Y0225949D03*
X0266107Y0231618D03*
X0265950Y0231776D03*
X0265792Y0231776D03*
X0275792Y0232720D03*
X0275950Y0232720D03*
X0282013Y0231461D03*
X0282013Y0219965D03*
X0283588Y0219965D03*
X0283745Y0219965D03*
X0283903Y0219965D03*
X0284060Y0219965D03*
X0284217Y0219965D03*
X0284375Y0219965D03*
X0293273Y0222799D03*
X0295950Y0219807D03*
X0295950Y0232248D03*
X0274375Y0219807D03*
X0272013Y0219807D03*
X0262013Y0219807D03*
D201*
X0265320Y0219256D03*
X0262328Y0223665D03*
X0256422Y0225370D03*
X0254532Y0227890D03*
X0254375Y0227890D03*
X0254217Y0227890D03*
X0254060Y0227890D03*
X0253903Y0227890D03*
X0253745Y0227890D03*
X0253745Y0219543D03*
X0253588Y0219543D03*
X0253430Y0219543D03*
X0253273Y0219543D03*
X0253903Y0219543D03*
X0254060Y0219543D03*
X0254217Y0219543D03*
X0254375Y0219543D03*
X0254532Y0219543D03*
X0254690Y0219543D03*
X0254847Y0219543D03*
X0255005Y0219543D03*
X0255162Y0219543D03*
X0255320Y0219543D03*
X0255477Y0219543D03*
X0255635Y0219543D03*
X0255792Y0219543D03*
X0255950Y0219543D03*
X0256107Y0219543D03*
X0256265Y0219543D03*
X0252328Y0219543D03*
X0251540Y0219543D03*
X0243115Y0223008D03*
X0244532Y0226000D03*
X0241855Y0229780D03*
X0241540Y0219386D03*
X0242328Y0219386D03*
X0272800Y0227602D03*
X0273903Y0225398D03*
X0274060Y0225398D03*
X0274217Y0225398D03*
X0276107Y0226500D03*
X0275477Y0229177D03*
X0282958Y0232012D03*
X0283115Y0232012D03*
X0283273Y0232012D03*
X0283430Y0232012D03*
X0284532Y0232012D03*
X0284690Y0232012D03*
X0284847Y0232012D03*
X0285005Y0232012D03*
X0285162Y0232012D03*
X0285320Y0232012D03*
X0285477Y0232012D03*
X0285477Y0227287D03*
X0285320Y0227287D03*
X0282958Y0225713D03*
X0285320Y0224138D03*
X0285477Y0224138D03*
X0285477Y0219413D03*
X0285320Y0219413D03*
X0285162Y0219413D03*
X0285005Y0219413D03*
X0284847Y0219413D03*
X0293588Y0219256D03*
X0293745Y0219256D03*
X0293903Y0219256D03*
X0294060Y0219256D03*
X0294217Y0219256D03*
X0294375Y0219256D03*
X0294532Y0219256D03*
X0295950Y0226028D03*
X0294690Y0232799D03*
X0294532Y0232799D03*
X0294375Y0232799D03*
X0294217Y0232799D03*
X0294060Y0232799D03*
X0293903Y0232799D03*
X0293745Y0232799D03*
X0293588Y0232799D03*
X0293430Y0232799D03*
D202*
X0294060Y0226736D03*
X0294217Y0225476D03*
X0294375Y0225476D03*
X0282958Y0221854D03*
X0282958Y0229728D03*
X0274847Y0223429D03*
X0274060Y0229256D03*
X0273903Y0229256D03*
X0265635Y0227209D03*
X0265477Y0227209D03*
X0262800Y0227209D03*
X0262643Y0227209D03*
X0264375Y0223272D03*
X0255005Y0222614D03*
X0254847Y0222614D03*
X0254690Y0223717D03*
X0253588Y0224819D03*
X0253430Y0224819D03*
X0253273Y0224819D03*
X0246107Y0223244D03*
X0245950Y0223087D03*
X0245792Y0223087D03*
X0245635Y0223087D03*
X0244375Y0223087D03*
X0244217Y0223087D03*
X0244060Y0223087D03*
X0243903Y0223087D03*
X0243745Y0223087D03*
X0243273Y0225449D03*
X0243588Y0225606D03*
D203*
X0246107Y0229228D03*
X0243430Y0230488D03*
X0255950Y0228598D03*
X0272170Y0227366D03*
X0275477Y0232720D03*
X0296107Y0219965D03*
D204*
X0287210Y0225713D03*
X0287052Y0225713D03*
X0286895Y0225713D03*
X0286737Y0225713D03*
X0286580Y0225713D03*
X0286422Y0225713D03*
X0286265Y0225713D03*
X0281855Y0225713D03*
X0281698Y0225713D03*
X0281540Y0225713D03*
X0281383Y0225713D03*
X0281225Y0225713D03*
X0281068Y0225713D03*
X0280910Y0225713D03*
X0277052Y0225555D03*
X0271068Y0225555D03*
X0266422Y0225555D03*
X0261698Y0225555D03*
D205*
X0262013Y0229492D03*
X0282013Y0225713D03*
D206*
X0284532Y0220280D03*
X0275162Y0232720D03*
X0275005Y0232720D03*
X0256265Y0228756D03*
X0245792Y0229386D03*
D207*
X0270910Y0225319D03*
X0277210Y0225319D03*
D208*
X0276895Y0225713D03*
X0271225Y0225713D03*
D209*
X0271383Y0225870D03*
X0276737Y0225870D03*
D210*
X0276580Y0225949D03*
X0271540Y0225949D03*
D211*
X0271855Y0226106D03*
X0276265Y0226106D03*
D212*
X0272013Y0227996D03*
D213*
X0272170Y0231854D03*
X0272485Y0232012D03*
X0272800Y0232169D03*
X0273273Y0232327D03*
X0244532Y0229937D03*
X0244375Y0229937D03*
X0244217Y0229937D03*
X0244060Y0229937D03*
X0243903Y0229937D03*
D214*
X0243745Y0230016D03*
X0244690Y0229858D03*
X0272328Y0231933D03*
X0272643Y0232091D03*
X0272958Y0232248D03*
X0273115Y0232248D03*
X0273430Y0232406D03*
X0273588Y0232406D03*
D215*
X0273745Y0232484D03*
X0273903Y0232484D03*
X0245005Y0229780D03*
X0244847Y0229780D03*
D216*
X0245162Y0229701D03*
X0274060Y0232563D03*
X0274217Y0232563D03*
D217*
X0274375Y0232642D03*
X0274532Y0232642D03*
X0245320Y0229622D03*
D218*
X0245477Y0229543D03*
X0256422Y0228756D03*
X0274690Y0232720D03*
X0274847Y0232720D03*
X0274690Y0220280D03*
D219*
X0267210Y0224846D03*
X0260910Y0224846D03*
X0242643Y0224976D03*
D220*
X0261068Y0225083D03*
X0267052Y0225083D03*
D221*
X0266895Y0225240D03*
X0261225Y0225240D03*
D222*
X0261383Y0225398D03*
X0266737Y0225398D03*
D223*
X0266580Y0225476D03*
X0261540Y0225476D03*
D224*
X0261855Y0225634D03*
X0266265Y0225634D03*
D225*
X0262643Y0230909D03*
X0262485Y0230909D03*
X0262328Y0230752D03*
X0262170Y0230752D03*
D226*
X0262800Y0230988D03*
X0262958Y0230988D03*
X0263115Y0230988D03*
X0265005Y0230988D03*
X0265162Y0230988D03*
X0265320Y0230988D03*
D227*
X0264847Y0231067D03*
X0264690Y0231067D03*
X0264532Y0231067D03*
X0264375Y0231067D03*
X0264217Y0231067D03*
X0264060Y0231067D03*
X0263903Y0231067D03*
X0263745Y0231067D03*
X0263588Y0231067D03*
X0263430Y0231067D03*
X0263273Y0231067D03*
D228*
X0264690Y0220201D03*
X0245635Y0229465D03*
D229*
X0242485Y0224898D03*
X0250910Y0225055D03*
X0257210Y0225055D03*
D230*
X0257052Y0224976D03*
X0251068Y0224976D03*
D231*
X0251225Y0224898D03*
X0256895Y0224898D03*
D232*
X0256737Y0224819D03*
X0251383Y0224819D03*
D233*
X0252485Y0224268D03*
X0247052Y0224110D03*
X0241068Y0224110D03*
D234*
X0252800Y0224110D03*
D235*
X0252958Y0224031D03*
D236*
X0256580Y0224740D03*
D237*
X0246895Y0224268D03*
X0241225Y0224268D03*
D238*
X0241383Y0224346D03*
X0246737Y0224346D03*
D239*
X0242800Y0225055D03*
D240*
X0242958Y0225134D03*
D241*
X0246580Y0224425D03*
D242*
X0119810Y0210173D02*
X0119360Y0210624D01*
X0118909Y0210624D01*
X0118459Y0210173D01*
X0118459Y0208822D01*
X0119360Y0208822D01*
X0119810Y0209273D01*
X0119810Y0210173D01*
X0118459Y0208822D02*
X0117558Y0209723D01*
X0117108Y0210624D01*
X0117108Y0207677D02*
X0117558Y0206776D01*
X0118459Y0205876D01*
X0118459Y0207227D01*
X0118909Y0207677D01*
X0119360Y0207677D01*
X0119810Y0207227D01*
X0119810Y0206326D01*
X0119360Y0205876D01*
X0118459Y0205876D01*
X0119360Y0204731D02*
X0119810Y0204280D01*
X0119810Y0203379D01*
X0119360Y0202929D01*
X0117558Y0204731D01*
X0119360Y0204731D01*
X0119360Y0202929D02*
X0117558Y0202929D01*
X0117108Y0203379D01*
X0117108Y0204280D01*
X0117558Y0204731D01*
X0118459Y0201784D02*
X0118459Y0199983D01*
X0117108Y0201334D01*
X0119810Y0201334D01*
X0119360Y0198838D02*
X0119810Y0198387D01*
X0119810Y0197486D01*
X0119360Y0197036D01*
X0117558Y0197036D01*
X0117108Y0197486D01*
X0117108Y0198387D01*
X0117558Y0198838D01*
X0117108Y0195891D02*
X0118909Y0195891D01*
X0119810Y0194990D01*
X0118909Y0194090D01*
X0117108Y0194090D01*
X0119810Y0192945D02*
X0119810Y0191143D01*
X0117108Y0191143D01*
X0117108Y0189548D02*
X0118459Y0188197D01*
X0118459Y0189998D01*
X0119810Y0189548D02*
X0117108Y0189548D01*
X0117108Y0187052D02*
X0117558Y0187052D01*
X0119360Y0185250D01*
X0119810Y0185250D01*
X0117108Y0185250D02*
X0117108Y0187052D01*
X0117608Y0245750D02*
X0117608Y0247552D01*
X0118058Y0247552D01*
X0119860Y0245750D01*
X0120310Y0245750D01*
X0118959Y0248697D02*
X0118959Y0250498D01*
X0120310Y0250048D02*
X0117608Y0250048D01*
X0118959Y0248697D01*
X0120310Y0251643D02*
X0120310Y0253445D01*
X0119409Y0254590D02*
X0120310Y0255490D01*
X0119409Y0256391D01*
X0117608Y0256391D01*
X0118058Y0257536D02*
X0119860Y0257536D01*
X0120310Y0257986D01*
X0120310Y0258887D01*
X0119860Y0259338D01*
X0118959Y0260483D02*
X0118959Y0262284D01*
X0120310Y0261834D02*
X0117608Y0261834D01*
X0118959Y0260483D01*
X0118058Y0259338D02*
X0117608Y0258887D01*
X0117608Y0257986D01*
X0118058Y0257536D01*
X0117608Y0254590D02*
X0119409Y0254590D01*
X0120310Y0251643D02*
X0117608Y0251643D01*
X0118058Y0263429D02*
X0117608Y0263879D01*
X0117608Y0264780D01*
X0118058Y0265231D01*
X0119860Y0263429D01*
X0120310Y0263879D01*
X0120310Y0264780D01*
X0119860Y0265231D01*
X0118058Y0265231D01*
X0118959Y0266376D02*
X0118959Y0267727D01*
X0119409Y0268177D01*
X0119860Y0268177D01*
X0120310Y0267727D01*
X0120310Y0266826D01*
X0119860Y0266376D01*
X0118959Y0266376D01*
X0118058Y0267276D01*
X0117608Y0268177D01*
X0118959Y0269322D02*
X0118959Y0270673D01*
X0119409Y0271124D01*
X0119860Y0271124D01*
X0120310Y0270673D01*
X0120310Y0269773D01*
X0119860Y0269322D01*
X0118959Y0269322D01*
X0118058Y0270223D01*
X0117608Y0271124D01*
X0118058Y0263429D02*
X0119860Y0263429D01*
X0121147Y0422441D02*
X0121147Y0425689D01*
X0199887Y0425689D02*
X0199887Y0422441D01*
X0278627Y0422441D02*
X0278627Y0425689D01*
X0357367Y0425689D02*
X0357367Y0422441D01*
D243*
X0284060Y0125000D02*
X0279457Y0125000D01*
X0275520Y0125000D02*
X0270918Y0125000D01*
X0266981Y0125000D02*
X0262378Y0125000D01*
X0258441Y0125000D02*
X0253838Y0125000D01*
X0249901Y0125000D02*
X0245298Y0125000D01*
X0241361Y0125000D02*
X0236759Y0125000D01*
X0232822Y0125000D02*
X0228219Y0125000D01*
X0224282Y0125000D02*
X0219679Y0125000D01*
X0215742Y0125000D02*
X0211139Y0125000D01*
X0207202Y0125000D02*
X0202600Y0125000D01*
X0198663Y0125000D02*
X0194060Y0125000D01*
X0193920Y0124998D01*
X0193780Y0124992D01*
X0193640Y0124982D01*
X0193500Y0124969D01*
X0193361Y0124951D01*
X0193222Y0124929D01*
X0193085Y0124904D01*
X0192947Y0124875D01*
X0192811Y0124842D01*
X0192676Y0124805D01*
X0192542Y0124764D01*
X0192409Y0124719D01*
X0192277Y0124671D01*
X0192147Y0124619D01*
X0192018Y0124564D01*
X0191891Y0124505D01*
X0191765Y0124442D01*
X0191641Y0124376D01*
X0191520Y0124307D01*
X0191400Y0124234D01*
X0191282Y0124157D01*
X0191167Y0124078D01*
X0191053Y0123995D01*
X0190943Y0123909D01*
X0190834Y0123820D01*
X0190728Y0123728D01*
X0190625Y0123633D01*
X0190524Y0123536D01*
X0190427Y0123435D01*
X0190332Y0123332D01*
X0190240Y0123226D01*
X0190151Y0123117D01*
X0190065Y0123007D01*
X0189982Y0122893D01*
X0189903Y0122778D01*
X0189826Y0122660D01*
X0189753Y0122540D01*
X0189684Y0122419D01*
X0189618Y0122295D01*
X0189555Y0122169D01*
X0189496Y0122042D01*
X0189441Y0121913D01*
X0189389Y0121783D01*
X0189341Y0121651D01*
X0189296Y0121518D01*
X0189255Y0121384D01*
X0189218Y0121249D01*
X0189185Y0121113D01*
X0189156Y0120975D01*
X0189131Y0120838D01*
X0189109Y0120699D01*
X0189091Y0120560D01*
X0189078Y0120420D01*
X0189068Y0120280D01*
X0189062Y0120140D01*
X0189060Y0120000D01*
X0189060Y0115517D01*
X0189060Y0111580D02*
X0189060Y0107098D01*
X0189060Y0103161D02*
X0189060Y0098678D01*
X0189060Y0094741D02*
X0189060Y0090259D01*
X0189060Y0086322D02*
X0189060Y0081839D01*
X0189060Y0077902D02*
X0189060Y0073420D01*
X0189060Y0069483D02*
X0189060Y0065000D01*
X0189062Y0064860D01*
X0189068Y0064720D01*
X0189078Y0064580D01*
X0189091Y0064440D01*
X0189109Y0064301D01*
X0189131Y0064162D01*
X0189156Y0064025D01*
X0189185Y0063887D01*
X0189218Y0063751D01*
X0189255Y0063616D01*
X0189296Y0063482D01*
X0189341Y0063349D01*
X0189389Y0063217D01*
X0189441Y0063087D01*
X0189496Y0062958D01*
X0189555Y0062831D01*
X0189618Y0062705D01*
X0189684Y0062581D01*
X0189753Y0062460D01*
X0189826Y0062340D01*
X0189903Y0062222D01*
X0189982Y0062107D01*
X0190065Y0061993D01*
X0190151Y0061883D01*
X0190240Y0061774D01*
X0190332Y0061668D01*
X0190427Y0061565D01*
X0190524Y0061464D01*
X0190625Y0061367D01*
X0190728Y0061272D01*
X0190834Y0061180D01*
X0190943Y0061091D01*
X0191053Y0061005D01*
X0191167Y0060922D01*
X0191282Y0060843D01*
X0191400Y0060766D01*
X0191520Y0060693D01*
X0191641Y0060624D01*
X0191765Y0060558D01*
X0191891Y0060495D01*
X0192018Y0060436D01*
X0192147Y0060381D01*
X0192277Y0060329D01*
X0192409Y0060281D01*
X0192542Y0060236D01*
X0192676Y0060195D01*
X0192811Y0060158D01*
X0192947Y0060125D01*
X0193085Y0060096D01*
X0193222Y0060071D01*
X0193361Y0060049D01*
X0193500Y0060031D01*
X0193640Y0060018D01*
X0193780Y0060008D01*
X0193920Y0060002D01*
X0194060Y0060000D01*
X0198663Y0060000D01*
X0202600Y0060000D02*
X0207202Y0060000D01*
X0211139Y0060000D02*
X0215742Y0060000D01*
X0219679Y0060000D02*
X0224282Y0060000D01*
X0228219Y0060000D02*
X0232822Y0060000D01*
X0236759Y0060000D02*
X0241361Y0060000D01*
X0245298Y0060000D02*
X0249901Y0060000D01*
X0253838Y0060000D02*
X0258441Y0060000D01*
X0262378Y0060000D02*
X0266981Y0060000D01*
X0270918Y0060000D02*
X0275520Y0060000D01*
X0279457Y0060000D02*
X0284060Y0060000D01*
X0284200Y0060002D01*
X0284340Y0060008D01*
X0284480Y0060018D01*
X0284620Y0060031D01*
X0284759Y0060049D01*
X0284898Y0060071D01*
X0285035Y0060096D01*
X0285173Y0060125D01*
X0285309Y0060158D01*
X0285444Y0060195D01*
X0285578Y0060236D01*
X0285711Y0060281D01*
X0285843Y0060329D01*
X0285973Y0060381D01*
X0286102Y0060436D01*
X0286229Y0060495D01*
X0286355Y0060558D01*
X0286479Y0060624D01*
X0286600Y0060693D01*
X0286720Y0060766D01*
X0286838Y0060843D01*
X0286953Y0060922D01*
X0287067Y0061005D01*
X0287177Y0061091D01*
X0287286Y0061180D01*
X0287392Y0061272D01*
X0287495Y0061367D01*
X0287596Y0061464D01*
X0287693Y0061565D01*
X0287788Y0061668D01*
X0287880Y0061774D01*
X0287969Y0061883D01*
X0288055Y0061993D01*
X0288138Y0062107D01*
X0288217Y0062222D01*
X0288294Y0062340D01*
X0288367Y0062460D01*
X0288436Y0062581D01*
X0288502Y0062705D01*
X0288565Y0062831D01*
X0288624Y0062958D01*
X0288679Y0063087D01*
X0288731Y0063217D01*
X0288779Y0063349D01*
X0288824Y0063482D01*
X0288865Y0063616D01*
X0288902Y0063751D01*
X0288935Y0063887D01*
X0288964Y0064025D01*
X0288989Y0064162D01*
X0289011Y0064301D01*
X0289029Y0064440D01*
X0289042Y0064580D01*
X0289052Y0064720D01*
X0289058Y0064860D01*
X0289060Y0065000D01*
X0289060Y0069483D01*
X0289060Y0073420D02*
X0289060Y0077902D01*
X0289060Y0081839D02*
X0289060Y0086322D01*
X0289060Y0090259D02*
X0289060Y0094741D01*
X0289060Y0098678D02*
X0289060Y0103161D01*
X0289060Y0107098D02*
X0289060Y0111580D01*
X0289060Y0115517D02*
X0289060Y0120000D01*
X0289058Y0120140D01*
X0289052Y0120280D01*
X0289042Y0120420D01*
X0289029Y0120560D01*
X0289011Y0120699D01*
X0288989Y0120838D01*
X0288964Y0120975D01*
X0288935Y0121113D01*
X0288902Y0121249D01*
X0288865Y0121384D01*
X0288824Y0121518D01*
X0288779Y0121651D01*
X0288731Y0121783D01*
X0288679Y0121913D01*
X0288624Y0122042D01*
X0288565Y0122169D01*
X0288502Y0122295D01*
X0288436Y0122419D01*
X0288367Y0122540D01*
X0288294Y0122660D01*
X0288217Y0122778D01*
X0288138Y0122893D01*
X0288055Y0123007D01*
X0287969Y0123117D01*
X0287880Y0123226D01*
X0287788Y0123332D01*
X0287693Y0123435D01*
X0287596Y0123536D01*
X0287495Y0123633D01*
X0287392Y0123728D01*
X0287286Y0123820D01*
X0287177Y0123909D01*
X0287067Y0123995D01*
X0286953Y0124078D01*
X0286838Y0124157D01*
X0286720Y0124234D01*
X0286600Y0124307D01*
X0286479Y0124376D01*
X0286355Y0124442D01*
X0286229Y0124505D01*
X0286102Y0124564D01*
X0285973Y0124619D01*
X0285843Y0124671D01*
X0285711Y0124719D01*
X0285578Y0124764D01*
X0285444Y0124805D01*
X0285309Y0124842D01*
X0285173Y0124875D01*
X0285035Y0124904D01*
X0284898Y0124929D01*
X0284759Y0124951D01*
X0284620Y0124969D01*
X0284480Y0124982D01*
X0284340Y0124992D01*
X0284200Y0124998D01*
X0284060Y0125000D01*
M02*
