G75*
%MOIN*%
%OFA0B0*%
%FSLAX25Y25*%
%IPPOS*%
%LPD*%
%AMOC8*
5,1,8,0,0,1.08239X$1,22.5*
%
%ADD10C,0.00600*%
%ADD11C,0.00800*%
%ADD12R,0.16220X0.00157*%
%ADD13R,0.17165X0.00157*%
%ADD14R,0.17795X0.00157*%
%ADD15R,0.18425X0.00157*%
%ADD16R,0.18740X0.00157*%
%ADD17R,0.19055X0.00157*%
%ADD18R,0.09921X0.00157*%
%ADD19R,0.01260X0.00157*%
%ADD20R,0.07087X0.00157*%
%ADD21R,0.00945X0.00157*%
%ADD22R,0.02992X0.00157*%
%ADD23R,0.04724X0.00157*%
%ADD24R,0.03307X0.00157*%
%ADD25R,0.04409X0.00157*%
%ADD26R,0.03150X0.00157*%
%ADD27R,0.04252X0.00157*%
%ADD28R,0.02835X0.00157*%
%ADD29R,0.04094X0.00157*%
%ADD30R,0.02677X0.00157*%
%ADD31R,0.02520X0.00157*%
%ADD32R,0.01102X0.00157*%
%ADD33R,0.02362X0.00157*%
%ADD34R,0.03465X0.00157*%
%ADD35R,0.00630X0.00157*%
%ADD36R,0.00315X0.00157*%
%ADD37R,0.00472X0.00157*%
%ADD38R,0.00787X0.00157*%
%ADD39R,0.01417X0.00157*%
%ADD40R,0.01575X0.00157*%
%ADD41R,0.01732X0.00157*%
%ADD42R,0.00157X0.00157*%
%ADD43R,0.01890X0.00157*%
%ADD44R,0.02205X0.00157*%
%ADD45R,0.19370X0.00157*%
%ADD46R,0.17480X0.00157*%
%ADD47R,0.19685X0.00157*%
%ADD48R,0.20000X0.00157*%
%ADD49R,0.20315X0.00157*%
%ADD50R,0.08189X0.00157*%
%ADD51R,0.04567X0.00157*%
%ADD52R,0.03780X0.00157*%
%ADD53R,0.03622X0.00157*%
%ADD54R,0.03937X0.00157*%
%ADD55R,0.02047X0.00157*%
%ADD56R,0.20630X0.00157*%
%ADD57R,0.00157X0.00157*%
%ADD58R,0.01181X0.00236*%
%ADD59R,0.04961X0.00236*%
%ADD60R,0.01654X0.00236*%
%ADD61R,0.01417X0.00236*%
%ADD62R,0.05906X0.00236*%
%ADD63R,0.05433X0.00236*%
%ADD64R,0.00709X0.00236*%
%ADD65R,0.03307X0.00236*%
%ADD66R,0.03543X0.00236*%
%ADD67R,0.03780X0.00236*%
%ADD68R,0.04016X0.00236*%
%ADD69R,0.04252X0.00236*%
%ADD70R,0.04488X0.00236*%
%ADD71R,0.00236X0.00236*%
%ADD72R,0.01890X0.00236*%
%ADD73R,0.00945X0.00236*%
%ADD74R,0.02598X0.00236*%
%ADD75R,0.00472X0.00236*%
%ADD76R,0.02362X0.00236*%
%ADD77R,0.03071X0.00236*%
%ADD78R,0.02835X0.00236*%
%ADD79R,0.02126X0.00236*%
%ADD80R,0.00197X0.00197*%
%ADD81R,0.01378X0.00197*%
%ADD82R,0.02756X0.00197*%
%ADD83R,0.01181X0.00197*%
%ADD84R,0.00394X0.00197*%
%ADD85R,0.02165X0.00197*%
%ADD86R,0.00984X0.00197*%
%ADD87R,0.02362X0.00197*%
%ADD88R,0.03740X0.00197*%
%ADD89R,0.01969X0.00197*%
%ADD90R,0.01772X0.00197*%
%ADD91R,0.02559X0.00197*%
%ADD92R,0.02953X0.00197*%
%ADD93R,0.03150X0.00197*%
%ADD94R,0.01575X0.00197*%
%ADD95R,0.03346X0.00197*%
%ADD96R,0.03543X0.00197*%
%ADD97R,0.00591X0.00197*%
%ADD98R,0.00787X0.00197*%
%ADD99R,0.01575X0.00236*%
%ADD100R,0.01378X0.00236*%
%ADD101R,0.02559X0.00236*%
%ADD102R,0.01969X0.00236*%
%ADD103R,0.03150X0.00236*%
%ADD104R,0.02756X0.00236*%
%ADD105R,0.03937X0.00197*%
%ADD106R,0.04134X0.00197*%
%ADD107R,0.04331X0.00197*%
%ADD108R,0.04528X0.00197*%
%ADD109R,0.04724X0.00236*%
%ADD110R,0.03346X0.00236*%
%ADD111R,0.00984X0.00236*%
%ADD112R,0.04921X0.00197*%
%ADD113R,0.05315X0.00197*%
%ADD114R,0.03937X0.00236*%
%ADD115R,0.00157X0.01102*%
%ADD116R,0.00157X0.00315*%
%ADD117R,0.00157X0.01732*%
%ADD118R,0.00157X0.00787*%
%ADD119R,0.00157X0.02047*%
%ADD120R,0.00157X0.00945*%
%ADD121R,0.00157X0.02362*%
%ADD122R,0.00157X0.02677*%
%ADD123R,0.00157X0.01260*%
%ADD124R,0.00157X0.02992*%
%ADD125R,0.00157X0.00630*%
%ADD126R,0.00157X0.01890*%
%ADD127R,0.00157X0.02205*%
%ADD128R,0.00157X0.01575*%
%ADD129R,0.00157X0.01417*%
%ADD130R,0.00157X0.02520*%
%ADD131R,0.00157X0.00472*%
%ADD132R,0.00157X0.02835*%
%ADD133R,0.00157X0.03150*%
%ADD134R,0.00157X0.03307*%
%ADD135R,0.00157X0.03465*%
%ADD136R,0.03740X0.00236*%
%ADD137R,0.00157X0.04094*%
%ADD138R,0.00157X0.05512*%
%ADD139R,0.00157X0.03780*%
%ADD140R,0.00157X0.03622*%
%ADD141R,0.00118X0.08858*%
%ADD142R,0.00118X0.09567*%
%ADD143R,0.00079X0.10039*%
%ADD144R,0.00157X0.10512*%
%ADD145R,0.00118X0.10748*%
%ADD146R,0.00118X0.10984*%
%ADD147R,0.00079X0.11220*%
%ADD148R,0.00118X0.07913*%
%ADD149R,0.00118X0.02953*%
%ADD150R,0.00157X0.03543*%
%ADD151R,0.00157X0.01535*%
%ADD152R,0.00118X0.03543*%
%ADD153R,0.00118X0.00472*%
%ADD154R,0.00118X0.01063*%
%ADD155R,0.00118X0.02598*%
%ADD156R,0.00118X0.00354*%
%ADD157R,0.00118X0.00827*%
%ADD158R,0.00118X0.00591*%
%ADD159R,0.00157X0.03661*%
%ADD160R,0.00157X0.00354*%
%ADD161R,0.00157X0.02598*%
%ADD162R,0.00118X0.03661*%
%ADD163R,0.00118X0.00709*%
%ADD164R,0.00118X0.02480*%
%ADD165R,0.00118X0.03780*%
%ADD166R,0.00118X0.00236*%
%ADD167R,0.00157X0.00236*%
%ADD168R,0.00157X0.00827*%
%ADD169R,0.00118X0.00945*%
%ADD170R,0.00157X0.01654*%
%ADD171R,0.00157X0.02717*%
%ADD172R,0.00118X0.01417*%
%ADD173R,0.00118X0.02717*%
%ADD174R,0.00118X0.02835*%
%ADD175R,0.00118X0.01299*%
%ADD176R,0.00157X0.01181*%
%ADD177R,0.00157X0.03071*%
%ADD178R,0.00118X0.01181*%
%ADD179R,0.00118X0.03189*%
%ADD180R,0.00118X0.02008*%
%ADD181R,0.00118X0.03425*%
%ADD182R,0.00118X0.02244*%
%ADD183R,0.00118X0.01890*%
%ADD184R,0.00118X0.02126*%
%ADD185R,0.00157X0.02126*%
%ADD186R,0.00118X0.11220*%
%ADD187R,0.00118X0.10512*%
%ADD188R,0.00118X0.10039*%
%ADD189R,0.00157X0.14331*%
%ADD190R,0.00157X0.07087*%
%ADD191R,0.00157X0.15276*%
%ADD192R,0.00157X0.11024*%
%ADD193R,0.00157X0.13858*%
%ADD194R,0.00157X0.14646*%
%ADD195R,0.00157X0.14961*%
%ADD196R,0.00157X0.15118*%
%ADD197R,0.00157X0.15433*%
%ADD198R,0.00157X0.11969*%
%ADD199R,0.00157X0.04567*%
%ADD200R,0.00157X0.04409*%
%ADD201R,0.00157X0.04252*%
%ADD202R,0.00157X0.03937*%
%ADD203R,0.00157X0.12913*%
%ADD204R,0.00157X0.13386*%
%ADD205R,0.00157X0.13701*%
%ADD206R,0.00157X0.14016*%
%ADD207R,0.00157X0.14173*%
%ADD208R,0.00157X0.14488*%
%ADD209R,0.00157X0.04882*%
%ADD210R,0.00157X0.05039*%
%ADD211R,0.00157X0.05197*%
%ADD212R,0.00157X0.12756*%
%ADD213R,0.00157X0.12598*%
%ADD214R,0.00157X0.12441*%
%ADD215R,0.00157X0.12283*%
%ADD216R,0.00157X0.11181*%
%ADD217R,0.00157X0.10866*%
%ADD218R,0.00157X0.10709*%
%ADD219R,0.00157X0.12126*%
%ADD220R,0.00157X0.11496*%
%ADD221R,0.00157X0.11654*%
%ADD222R,0.00157X0.13071*%
%ADD223R,0.00157X0.13228*%
%ADD224R,0.00157X0.11811*%
%ADD225C,0.00500*%
%ADD226C,0.00400*%
D10*
X0242927Y0348251D02*
X0242360Y0348818D01*
X0242360Y0349952D01*
X0242927Y0350519D01*
X0244061Y0350519D01*
X0244061Y0349385D01*
X0242927Y0348251D02*
X0245196Y0348251D01*
X0245763Y0348818D01*
X0245763Y0349952D01*
X0245196Y0350519D01*
X0245763Y0351934D02*
X0242360Y0354202D01*
X0245763Y0354202D01*
X0245763Y0355617D02*
X0245763Y0357318D01*
X0245196Y0357885D01*
X0242927Y0357885D01*
X0242360Y0357318D01*
X0242360Y0355617D01*
X0245763Y0355617D01*
X0245763Y0351934D02*
X0242360Y0351934D01*
X0257327Y0408689D02*
X0257327Y0409990D01*
X0257761Y0410424D01*
X0259495Y0410424D01*
X0259929Y0409990D01*
X0259929Y0408689D01*
X0257327Y0408689D01*
X0257327Y0411635D02*
X0257327Y0413370D01*
X0257327Y0412503D02*
X0259929Y0412503D01*
X0259062Y0411635D01*
X0259495Y0414582D02*
X0259929Y0415016D01*
X0259929Y0415883D01*
X0259495Y0416317D01*
X0257761Y0414582D01*
X0257327Y0415016D01*
X0257327Y0415883D01*
X0257761Y0416317D01*
X0259495Y0416317D01*
X0259495Y0414582D02*
X0257761Y0414582D01*
X0252055Y0415016D02*
X0252055Y0415883D01*
X0251621Y0416317D01*
X0251188Y0416317D01*
X0250754Y0415883D01*
X0250754Y0415016D01*
X0251188Y0414582D01*
X0251621Y0414582D01*
X0252055Y0415016D01*
X0250754Y0415016D02*
X0250320Y0414582D01*
X0249887Y0414582D01*
X0249453Y0415016D01*
X0249453Y0415883D01*
X0249887Y0416317D01*
X0250320Y0416317D01*
X0250754Y0415883D01*
X0249887Y0413370D02*
X0251621Y0413370D01*
X0252055Y0412936D01*
X0252055Y0411635D01*
X0249453Y0411635D01*
X0249453Y0412936D01*
X0249887Y0413370D01*
X0244181Y0412936D02*
X0244181Y0411635D01*
X0241579Y0411635D01*
X0241579Y0412936D01*
X0242013Y0413370D01*
X0243747Y0413370D01*
X0244181Y0412936D01*
X0242880Y0414582D02*
X0242880Y0415883D01*
X0242446Y0416317D01*
X0242013Y0416317D01*
X0241579Y0415883D01*
X0241579Y0415016D01*
X0242013Y0414582D01*
X0242880Y0414582D01*
X0243747Y0415449D01*
X0244181Y0416317D01*
X0236307Y0415883D02*
X0235006Y0414582D01*
X0235006Y0416317D01*
X0233705Y0415883D02*
X0236307Y0415883D01*
X0235873Y0413370D02*
X0236307Y0412936D01*
X0236307Y0411635D01*
X0233705Y0411635D01*
X0233705Y0412936D01*
X0234139Y0413370D01*
X0235873Y0413370D01*
X0228433Y0412936D02*
X0228433Y0411635D01*
X0225831Y0411635D01*
X0225831Y0412936D01*
X0226265Y0413370D01*
X0227999Y0413370D01*
X0228433Y0412936D01*
X0227999Y0414582D02*
X0228433Y0415016D01*
X0228433Y0415883D01*
X0227999Y0416317D01*
X0227566Y0416317D01*
X0225831Y0414582D01*
X0225831Y0416317D01*
X0220559Y0415449D02*
X0217957Y0415449D01*
X0217957Y0414582D02*
X0217957Y0416317D01*
X0219692Y0414582D02*
X0220559Y0415449D01*
X0220559Y0412503D02*
X0217957Y0412503D01*
X0217957Y0413370D02*
X0217957Y0411635D01*
X0217957Y0410424D02*
X0219692Y0410424D01*
X0220559Y0409556D01*
X0219692Y0408689D01*
X0217957Y0408689D01*
X0219258Y0408689D02*
X0219258Y0410424D01*
X0219692Y0411635D02*
X0220559Y0412503D01*
X0212685Y0412503D02*
X0211818Y0411635D01*
X0210083Y0411635D01*
X0211384Y0411635D02*
X0211384Y0413370D01*
X0211818Y0413370D02*
X0210083Y0413370D01*
X0210517Y0414582D02*
X0210083Y0415016D01*
X0210083Y0415883D01*
X0210517Y0416317D01*
X0212251Y0416317D01*
X0212685Y0415883D01*
X0212685Y0415016D01*
X0212251Y0414582D01*
X0211818Y0414582D01*
X0211384Y0415016D01*
X0211384Y0416317D01*
X0211818Y0413370D02*
X0212685Y0412503D01*
X0204811Y0412503D02*
X0203944Y0411635D01*
X0202209Y0411635D01*
X0203510Y0411635D02*
X0203510Y0413370D01*
X0203944Y0413370D02*
X0202209Y0413370D01*
X0202209Y0414582D02*
X0202643Y0414582D01*
X0204377Y0416317D01*
X0204811Y0416317D01*
X0204811Y0414582D01*
X0203944Y0413370D02*
X0204811Y0412503D01*
X0196937Y0412503D02*
X0196070Y0411635D01*
X0194335Y0411635D01*
X0195636Y0411635D02*
X0195636Y0413370D01*
X0196070Y0413370D02*
X0194335Y0413370D01*
X0194768Y0414582D02*
X0194335Y0415016D01*
X0194335Y0415883D01*
X0194768Y0416317D01*
X0195636Y0416317D01*
X0196070Y0415883D01*
X0196070Y0415449D01*
X0195636Y0414582D01*
X0196937Y0414582D01*
X0196937Y0416317D01*
X0196070Y0413370D02*
X0196937Y0412503D01*
X0189063Y0412503D02*
X0188196Y0411635D01*
X0186461Y0411635D01*
X0187762Y0411635D02*
X0187762Y0413370D01*
X0188196Y0413370D02*
X0186461Y0413370D01*
X0186894Y0414582D02*
X0186461Y0415016D01*
X0186461Y0415883D01*
X0186894Y0416317D01*
X0187328Y0416317D01*
X0187762Y0415883D01*
X0187762Y0415449D01*
X0187762Y0415883D02*
X0188196Y0416317D01*
X0188629Y0416317D01*
X0189063Y0415883D01*
X0189063Y0415016D01*
X0188629Y0414582D01*
X0188196Y0413370D02*
X0189063Y0412503D01*
X0181189Y0412503D02*
X0180322Y0411635D01*
X0178587Y0411635D01*
X0179888Y0411635D02*
X0179888Y0413370D01*
X0180322Y0413370D02*
X0178587Y0413370D01*
X0178587Y0414582D02*
X0178587Y0416317D01*
X0178587Y0415449D02*
X0181189Y0415449D01*
X0180322Y0414582D01*
X0180322Y0413370D02*
X0181189Y0412503D01*
X0175696Y0412892D02*
X0175696Y0411590D01*
X0173094Y0411590D01*
X0173962Y0411590D02*
X0173962Y0412892D01*
X0174395Y0413325D01*
X0175263Y0413325D01*
X0175696Y0412892D01*
X0175696Y0414537D02*
X0175696Y0416272D01*
X0175696Y0415404D02*
X0173094Y0415404D01*
X0171948Y0415013D02*
X0171514Y0414580D01*
X0171081Y0414580D01*
X0170647Y0415013D01*
X0170647Y0415881D01*
X0170213Y0416315D01*
X0169779Y0416315D01*
X0169346Y0415881D01*
X0169346Y0415013D01*
X0169779Y0414580D01*
X0169779Y0413368D02*
X0169346Y0412934D01*
X0169346Y0412067D01*
X0169779Y0411633D01*
X0170647Y0412067D02*
X0170647Y0412934D01*
X0170213Y0413368D01*
X0169779Y0413368D01*
X0170647Y0412067D02*
X0171081Y0411633D01*
X0171514Y0411633D01*
X0171948Y0412067D01*
X0171948Y0412934D01*
X0171514Y0413368D01*
X0171948Y0415013D02*
X0171948Y0415881D01*
X0171514Y0416315D01*
X0171081Y0410422D02*
X0169346Y0410422D01*
X0170647Y0410422D02*
X0170647Y0408687D01*
X0171081Y0408687D02*
X0171948Y0409554D01*
X0171081Y0410422D01*
X0171081Y0408687D02*
X0169346Y0408687D01*
X0170647Y0407475D02*
X0170213Y0407041D01*
X0170213Y0405740D01*
X0169346Y0405740D02*
X0171948Y0405740D01*
X0171948Y0407041D01*
X0171514Y0407475D01*
X0170647Y0407475D01*
X0165491Y0407109D02*
X0165058Y0407543D01*
X0164190Y0407543D01*
X0163757Y0407109D01*
X0163757Y0405808D01*
X0162889Y0405808D02*
X0165491Y0405808D01*
X0165491Y0407109D01*
X0164624Y0408754D02*
X0165491Y0409622D01*
X0164624Y0410489D01*
X0162889Y0410489D01*
X0163323Y0411701D02*
X0162889Y0412135D01*
X0162889Y0413002D01*
X0163323Y0413436D01*
X0163757Y0413436D01*
X0164190Y0413002D01*
X0164190Y0412135D01*
X0164624Y0411701D01*
X0165058Y0411701D01*
X0165491Y0412135D01*
X0165491Y0413002D01*
X0165058Y0413436D01*
X0165058Y0414648D02*
X0164624Y0414648D01*
X0164190Y0415081D01*
X0164190Y0415949D01*
X0163757Y0416382D01*
X0163323Y0416382D01*
X0162889Y0415949D01*
X0162889Y0415081D01*
X0163323Y0414648D01*
X0165058Y0414648D02*
X0165491Y0415081D01*
X0165491Y0415949D01*
X0165058Y0416382D01*
X0164190Y0410489D02*
X0164190Y0408754D01*
X0164624Y0408754D02*
X0162889Y0408754D01*
X0157567Y0409122D02*
X0157133Y0408689D01*
X0155398Y0408689D01*
X0154965Y0409122D01*
X0154965Y0409990D01*
X0155398Y0410424D01*
X0155398Y0411635D02*
X0154965Y0412069D01*
X0154965Y0412936D01*
X0155398Y0413370D01*
X0155832Y0413370D01*
X0156266Y0412936D01*
X0156266Y0412069D01*
X0156700Y0411635D01*
X0157133Y0411635D01*
X0157567Y0412069D01*
X0157567Y0412936D01*
X0157133Y0413370D01*
X0156700Y0414582D02*
X0157567Y0415449D01*
X0154965Y0415449D01*
X0154965Y0414582D02*
X0154965Y0416317D01*
X0149693Y0416317D02*
X0147091Y0416317D01*
X0147958Y0415449D01*
X0147091Y0414582D01*
X0149693Y0414582D01*
X0148826Y0413370D02*
X0149693Y0412503D01*
X0148826Y0411635D01*
X0147091Y0411635D01*
X0147091Y0410424D02*
X0147958Y0409556D01*
X0147958Y0409990D02*
X0147958Y0408689D01*
X0147091Y0408689D02*
X0149693Y0408689D01*
X0149693Y0409990D01*
X0149259Y0410424D01*
X0148392Y0410424D01*
X0147958Y0409990D01*
X0148392Y0411635D02*
X0148392Y0413370D01*
X0148826Y0413370D02*
X0147091Y0413370D01*
X0141819Y0413370D02*
X0140084Y0413370D01*
X0139217Y0412503D01*
X0140084Y0411635D01*
X0141819Y0411635D01*
X0141385Y0414582D02*
X0141819Y0415016D01*
X0141819Y0415883D01*
X0141385Y0416317D01*
X0140951Y0416317D01*
X0139217Y0414582D01*
X0139217Y0416317D01*
X0133945Y0415449D02*
X0131343Y0415449D01*
X0131343Y0414582D02*
X0131343Y0416317D01*
X0133077Y0414582D02*
X0133945Y0415449D01*
X0133945Y0413370D02*
X0132210Y0413370D01*
X0131343Y0412503D01*
X0132210Y0411635D01*
X0133945Y0411635D01*
X0126071Y0411635D02*
X0123469Y0413370D01*
X0126071Y0413370D01*
X0126071Y0414582D02*
X0126071Y0415883D01*
X0125637Y0416317D01*
X0123902Y0416317D01*
X0123469Y0415883D01*
X0123469Y0414582D01*
X0126071Y0414582D01*
X0126071Y0411635D02*
X0123469Y0411635D01*
X0123902Y0410424D02*
X0124770Y0410424D01*
X0124770Y0409556D01*
X0125637Y0408689D02*
X0123902Y0408689D01*
X0123469Y0409122D01*
X0123469Y0409990D01*
X0123902Y0410424D01*
X0125637Y0410424D02*
X0126071Y0409990D01*
X0126071Y0409122D01*
X0125637Y0408689D01*
X0132210Y0432280D02*
X0131343Y0433148D01*
X0132210Y0434015D01*
X0133945Y0434015D01*
X0133077Y0435227D02*
X0133945Y0436094D01*
X0131343Y0436094D01*
X0131343Y0435227D02*
X0131343Y0436962D01*
X0132210Y0432280D02*
X0133945Y0432280D01*
X0139217Y0433148D02*
X0140084Y0434015D01*
X0141819Y0434015D01*
X0141385Y0435227D02*
X0141819Y0435661D01*
X0141819Y0436528D01*
X0141385Y0436962D01*
X0140951Y0436962D01*
X0139217Y0435227D01*
X0139217Y0436962D01*
X0139217Y0433148D02*
X0140084Y0432280D01*
X0141819Y0432280D01*
X0157133Y0410424D02*
X0157567Y0409990D01*
X0157567Y0409122D01*
X0171213Y0432280D02*
X0172948Y0432280D01*
X0173815Y0433148D01*
X0172948Y0434015D01*
X0171213Y0434015D01*
X0171646Y0435227D02*
X0173381Y0436962D01*
X0171646Y0436962D01*
X0171213Y0436528D01*
X0171213Y0435661D01*
X0171646Y0435227D01*
X0173381Y0435227D01*
X0173815Y0435661D01*
X0173815Y0436528D01*
X0173381Y0436962D01*
X0172514Y0434015D02*
X0172514Y0432280D01*
X0178587Y0432280D02*
X0180322Y0432280D01*
X0181189Y0433148D01*
X0180322Y0434015D01*
X0178587Y0434015D01*
X0178587Y0435227D02*
X0180322Y0436962D01*
X0180755Y0436962D01*
X0181189Y0436528D01*
X0181189Y0435661D01*
X0180755Y0435227D01*
X0179888Y0434015D02*
X0179888Y0432280D01*
X0178587Y0435227D02*
X0178587Y0436962D01*
X0186461Y0436528D02*
X0189063Y0436528D01*
X0187762Y0435227D01*
X0187762Y0436962D01*
X0187762Y0434015D02*
X0187762Y0432280D01*
X0188196Y0432280D02*
X0189063Y0433148D01*
X0188196Y0434015D01*
X0186461Y0434015D01*
X0186461Y0432280D02*
X0188196Y0432280D01*
X0194335Y0432280D02*
X0196070Y0432280D01*
X0196937Y0433148D01*
X0196070Y0434015D01*
X0194335Y0434015D01*
X0194768Y0435227D02*
X0194335Y0435661D01*
X0194335Y0436528D01*
X0194768Y0436962D01*
X0195202Y0436962D01*
X0195636Y0436528D01*
X0195636Y0435227D01*
X0194768Y0435227D01*
X0195636Y0435227D02*
X0196503Y0436094D01*
X0196937Y0436962D01*
X0195636Y0434015D02*
X0195636Y0432280D01*
X0202209Y0432280D02*
X0203944Y0432280D01*
X0204811Y0433148D01*
X0203944Y0434015D01*
X0202209Y0434015D01*
X0202643Y0435227D02*
X0203076Y0435227D01*
X0203510Y0435661D01*
X0203510Y0436528D01*
X0203076Y0436962D01*
X0202643Y0436962D01*
X0202209Y0436528D01*
X0202209Y0435661D01*
X0202643Y0435227D01*
X0203510Y0435661D02*
X0203944Y0435227D01*
X0204377Y0435227D01*
X0204811Y0435661D01*
X0204811Y0436528D01*
X0204377Y0436962D01*
X0203944Y0436962D01*
X0203510Y0436528D01*
X0203510Y0434015D02*
X0203510Y0432280D01*
X0225831Y0432280D02*
X0225831Y0433581D01*
X0226265Y0434015D01*
X0227999Y0434015D01*
X0228433Y0433581D01*
X0228433Y0432280D01*
X0225831Y0432280D01*
X0226265Y0435227D02*
X0225831Y0435661D01*
X0225831Y0436528D01*
X0226265Y0436962D01*
X0226698Y0436962D01*
X0227132Y0436528D01*
X0227132Y0436094D01*
X0227132Y0436528D02*
X0227566Y0436962D01*
X0227999Y0436962D01*
X0228433Y0436528D01*
X0228433Y0435661D01*
X0227999Y0435227D01*
X0233705Y0435661D02*
X0234139Y0435227D01*
X0233705Y0435661D02*
X0233705Y0436528D01*
X0234139Y0436962D01*
X0235006Y0436962D01*
X0235440Y0436528D01*
X0235440Y0436094D01*
X0235006Y0435227D01*
X0236307Y0435227D01*
X0236307Y0436962D01*
X0235873Y0434015D02*
X0236307Y0433581D01*
X0236307Y0432280D01*
X0233705Y0432280D01*
X0233705Y0433581D01*
X0234139Y0434015D01*
X0235873Y0434015D01*
X0241579Y0433581D02*
X0242013Y0434015D01*
X0243747Y0434015D01*
X0244181Y0433581D01*
X0244181Y0432280D01*
X0241579Y0432280D01*
X0241579Y0433581D01*
X0241579Y0435227D02*
X0242013Y0435227D01*
X0243747Y0436962D01*
X0244181Y0436962D01*
X0244181Y0435227D01*
X0249453Y0435661D02*
X0249453Y0436528D01*
X0249887Y0436962D01*
X0251621Y0436962D01*
X0252055Y0436528D01*
X0252055Y0435661D01*
X0251621Y0435227D01*
X0251188Y0435227D01*
X0250754Y0435661D01*
X0250754Y0436962D01*
X0249453Y0435661D02*
X0249887Y0435227D01*
X0249887Y0434015D02*
X0251621Y0434015D01*
X0252055Y0433581D01*
X0252055Y0432280D01*
X0249453Y0432280D01*
X0249453Y0433581D01*
X0249887Y0434015D01*
X0265201Y0416317D02*
X0265201Y0414582D01*
X0266936Y0416317D01*
X0267369Y0416317D01*
X0267803Y0415883D01*
X0267803Y0415016D01*
X0267369Y0414582D01*
X0267803Y0412503D02*
X0265201Y0412503D01*
X0265201Y0413370D02*
X0265201Y0411635D01*
X0265635Y0410424D02*
X0265201Y0409990D01*
X0265201Y0408689D01*
X0267803Y0408689D01*
X0267803Y0409990D01*
X0267369Y0410424D01*
X0265635Y0410424D01*
X0266936Y0411635D02*
X0267803Y0412503D01*
X0273075Y0413370D02*
X0274810Y0411635D01*
X0275677Y0410424D02*
X0275677Y0408689D01*
X0275677Y0409556D02*
X0273075Y0409556D01*
X0273075Y0411635D02*
X0274810Y0413370D01*
X0275243Y0414582D02*
X0275677Y0415016D01*
X0275677Y0415883D01*
X0275243Y0416317D01*
X0274810Y0416317D01*
X0274376Y0415883D01*
X0273942Y0416317D01*
X0273509Y0416317D01*
X0273075Y0415883D01*
X0273075Y0415016D01*
X0273509Y0414582D01*
X0274376Y0415449D02*
X0274376Y0415883D01*
X0280949Y0416317D02*
X0280949Y0414582D01*
X0282684Y0416317D01*
X0283117Y0416317D01*
X0283551Y0415883D01*
X0283551Y0415016D01*
X0283117Y0414582D01*
X0282684Y0413370D02*
X0280949Y0411635D01*
X0282684Y0411635D02*
X0280949Y0413370D01*
X0280949Y0409556D02*
X0283551Y0409556D01*
X0283551Y0408689D02*
X0283551Y0410424D01*
X0288823Y0409556D02*
X0291425Y0409556D01*
X0291425Y0408689D02*
X0291425Y0410424D01*
X0290558Y0411635D02*
X0288823Y0413370D01*
X0288823Y0414582D02*
X0288823Y0416317D01*
X0288823Y0415449D02*
X0291425Y0415449D01*
X0290558Y0414582D01*
X0290558Y0413370D02*
X0288823Y0411635D01*
X0296697Y0411635D02*
X0296697Y0412936D01*
X0297131Y0413370D01*
X0298866Y0413370D01*
X0299299Y0412936D01*
X0299299Y0411635D01*
X0296697Y0411635D01*
X0297131Y0410424D02*
X0296697Y0409990D01*
X0296697Y0409122D01*
X0297131Y0408689D01*
X0297998Y0409122D02*
X0297998Y0409990D01*
X0297564Y0410424D01*
X0297131Y0410424D01*
X0297998Y0409122D02*
X0298432Y0408689D01*
X0298866Y0408689D01*
X0299299Y0409122D01*
X0299299Y0409990D01*
X0298866Y0410424D01*
X0298432Y0414582D02*
X0296697Y0414582D01*
X0297998Y0414582D02*
X0297998Y0416317D01*
X0298432Y0416317D02*
X0296697Y0416317D01*
X0298432Y0416317D02*
X0299299Y0415449D01*
X0298432Y0414582D01*
X0304571Y0414582D02*
X0306306Y0416317D01*
X0306740Y0416317D01*
X0307173Y0415883D01*
X0307173Y0415016D01*
X0306740Y0414582D01*
X0306740Y0413370D02*
X0307173Y0412936D01*
X0307173Y0412069D01*
X0306740Y0411635D01*
X0306740Y0410424D02*
X0307173Y0409990D01*
X0307173Y0408689D01*
X0304571Y0408689D01*
X0304571Y0409990D01*
X0305005Y0410424D01*
X0306740Y0410424D01*
X0304571Y0411635D02*
X0306306Y0413370D01*
X0306740Y0413370D01*
X0304571Y0413370D02*
X0304571Y0411635D01*
X0304571Y0414582D02*
X0304571Y0416317D01*
X0312445Y0415883D02*
X0315047Y0415883D01*
X0313746Y0414582D01*
X0313746Y0416317D01*
X0314180Y0413370D02*
X0314614Y0413370D01*
X0315047Y0412936D01*
X0315047Y0412069D01*
X0314614Y0411635D01*
X0314614Y0410424D02*
X0315047Y0409990D01*
X0315047Y0408689D01*
X0312445Y0408689D01*
X0312445Y0409990D01*
X0312879Y0410424D01*
X0314614Y0410424D01*
X0312445Y0411635D02*
X0314180Y0413370D01*
X0312445Y0413370D02*
X0312445Y0411635D01*
X0320319Y0411635D02*
X0320319Y0413370D01*
X0320753Y0414582D02*
X0320319Y0415016D01*
X0320319Y0415883D01*
X0320753Y0416317D01*
X0321186Y0416317D01*
X0321620Y0415883D01*
X0321620Y0414582D01*
X0320753Y0414582D01*
X0321620Y0414582D02*
X0322488Y0415449D01*
X0322921Y0416317D01*
X0322488Y0413370D02*
X0322921Y0412936D01*
X0322921Y0412069D01*
X0322488Y0411635D01*
X0322488Y0410424D02*
X0322921Y0409990D01*
X0322921Y0408689D01*
X0320319Y0408689D01*
X0320319Y0409990D01*
X0320753Y0410424D01*
X0322488Y0410424D01*
X0320319Y0411635D02*
X0322054Y0413370D01*
X0322488Y0413370D01*
X0328193Y0413370D02*
X0328193Y0411635D01*
X0329928Y0413370D01*
X0330362Y0413370D01*
X0330795Y0412936D01*
X0330795Y0412069D01*
X0330362Y0411635D01*
X0330362Y0410424D02*
X0330795Y0409990D01*
X0330795Y0408689D01*
X0328193Y0408689D01*
X0328193Y0409990D01*
X0328627Y0410424D01*
X0330362Y0410424D01*
X0330362Y0414582D02*
X0329928Y0414582D01*
X0329494Y0415016D01*
X0329494Y0415883D01*
X0329060Y0416317D01*
X0328627Y0416317D01*
X0328193Y0415883D01*
X0328193Y0415016D01*
X0328627Y0414582D01*
X0329060Y0414582D01*
X0329494Y0415016D01*
X0329494Y0415883D02*
X0329928Y0416317D01*
X0330362Y0416317D01*
X0330795Y0415883D01*
X0330795Y0415016D01*
X0330362Y0414582D01*
X0336067Y0415016D02*
X0336501Y0414582D01*
X0338236Y0416317D01*
X0336501Y0416317D01*
X0336067Y0415883D01*
X0336067Y0415016D01*
X0336501Y0414582D02*
X0338236Y0414582D01*
X0338669Y0415016D01*
X0338669Y0415883D01*
X0338236Y0416317D01*
X0338236Y0413370D02*
X0337802Y0413370D01*
X0337368Y0412936D01*
X0336934Y0413370D01*
X0336501Y0413370D01*
X0336067Y0412936D01*
X0336067Y0412069D01*
X0336501Y0411635D01*
X0336501Y0410424D02*
X0338236Y0410424D01*
X0338669Y0409990D01*
X0338669Y0408689D01*
X0336067Y0408689D01*
X0336067Y0409990D01*
X0336501Y0410424D01*
X0338236Y0411635D02*
X0338669Y0412069D01*
X0338669Y0412936D01*
X0338236Y0413370D01*
X0337368Y0412936D02*
X0337368Y0412503D01*
X0343941Y0412936D02*
X0343941Y0412069D01*
X0344375Y0411635D01*
X0345242Y0411635D02*
X0345676Y0412503D01*
X0345676Y0412936D01*
X0345242Y0413370D01*
X0344375Y0413370D01*
X0343941Y0412936D01*
X0344375Y0414582D02*
X0346110Y0416317D01*
X0344375Y0416317D01*
X0343941Y0415883D01*
X0343941Y0415016D01*
X0344375Y0414582D01*
X0346110Y0414582D01*
X0346543Y0415016D01*
X0346543Y0415883D01*
X0346110Y0416317D01*
X0346543Y0413370D02*
X0346543Y0411635D01*
X0345242Y0411635D01*
X0344375Y0410424D02*
X0346110Y0410424D01*
X0346543Y0409990D01*
X0346543Y0408689D01*
X0343941Y0408689D01*
X0343941Y0409990D01*
X0344375Y0410424D01*
X0351815Y0409990D02*
X0352249Y0410424D01*
X0353984Y0410424D01*
X0354417Y0409990D01*
X0354417Y0408689D01*
X0351815Y0408689D01*
X0351815Y0409990D01*
X0352249Y0411635D02*
X0351815Y0412069D01*
X0351815Y0412936D01*
X0352249Y0413370D01*
X0353116Y0413370D01*
X0353550Y0412936D01*
X0353550Y0412503D01*
X0353116Y0411635D01*
X0354417Y0411635D01*
X0354417Y0413370D01*
X0353984Y0414582D02*
X0354417Y0415016D01*
X0354417Y0415883D01*
X0353984Y0416317D01*
X0353550Y0416317D01*
X0351815Y0414582D01*
X0351815Y0416317D01*
D11*
X0294060Y0345000D02*
X0289060Y0340000D01*
X0282060Y0340000D01*
X0269560Y0359000D02*
X0271060Y0360500D01*
X0261560Y0360500D02*
X0260060Y0359000D01*
X0256060Y0340000D02*
X0249060Y0340000D01*
X0244060Y0345000D01*
X0221557Y0285000D02*
X0221571Y0286166D01*
X0221614Y0287331D01*
X0221686Y0288495D01*
X0221786Y0289656D01*
X0221914Y0290815D01*
X0222071Y0291970D01*
X0222256Y0293121D01*
X0222470Y0294267D01*
X0222711Y0295408D01*
X0222981Y0296542D01*
X0223278Y0297670D01*
X0223602Y0298789D01*
X0223955Y0299901D01*
X0224334Y0301003D01*
X0224740Y0302096D01*
X0225173Y0303179D01*
X0225632Y0304250D01*
X0226118Y0305310D01*
X0226629Y0306358D01*
X0227166Y0307393D01*
X0227728Y0308414D01*
X0228315Y0309421D01*
X0228927Y0310414D01*
X0229563Y0311391D01*
X0230222Y0312353D01*
X0230905Y0313298D01*
X0231611Y0314225D01*
X0232340Y0315136D01*
X0233090Y0316028D01*
X0233863Y0316901D01*
X0234656Y0317755D01*
X0235470Y0318590D01*
X0236305Y0319404D01*
X0237159Y0320197D01*
X0238032Y0320970D01*
X0238924Y0321720D01*
X0239835Y0322449D01*
X0240762Y0323155D01*
X0241707Y0323838D01*
X0242669Y0324497D01*
X0243646Y0325133D01*
X0244639Y0325745D01*
X0245646Y0326332D01*
X0246667Y0326894D01*
X0247702Y0327431D01*
X0248750Y0327942D01*
X0249810Y0328428D01*
X0250881Y0328887D01*
X0251964Y0329320D01*
X0253057Y0329726D01*
X0254159Y0330105D01*
X0255271Y0330458D01*
X0256390Y0330782D01*
X0257518Y0331079D01*
X0258652Y0331349D01*
X0259793Y0331590D01*
X0260939Y0331804D01*
X0262090Y0331989D01*
X0263245Y0332146D01*
X0264404Y0332274D01*
X0265565Y0332374D01*
X0266729Y0332446D01*
X0267894Y0332489D01*
X0269060Y0332503D01*
X0270226Y0332489D01*
X0271391Y0332446D01*
X0272555Y0332374D01*
X0273716Y0332274D01*
X0274875Y0332146D01*
X0276030Y0331989D01*
X0277181Y0331804D01*
X0278327Y0331590D01*
X0279468Y0331349D01*
X0280602Y0331079D01*
X0281730Y0330782D01*
X0282849Y0330458D01*
X0283961Y0330105D01*
X0285063Y0329726D01*
X0286156Y0329320D01*
X0287239Y0328887D01*
X0288310Y0328428D01*
X0289370Y0327942D01*
X0290418Y0327431D01*
X0291453Y0326894D01*
X0292474Y0326332D01*
X0293481Y0325745D01*
X0294474Y0325133D01*
X0295451Y0324497D01*
X0296413Y0323838D01*
X0297358Y0323155D01*
X0298285Y0322449D01*
X0299196Y0321720D01*
X0300088Y0320970D01*
X0300961Y0320197D01*
X0301815Y0319404D01*
X0302650Y0318590D01*
X0303464Y0317755D01*
X0304257Y0316901D01*
X0305030Y0316028D01*
X0305780Y0315136D01*
X0306509Y0314225D01*
X0307215Y0313298D01*
X0307898Y0312353D01*
X0308557Y0311391D01*
X0309193Y0310414D01*
X0309805Y0309421D01*
X0310392Y0308414D01*
X0310954Y0307393D01*
X0311491Y0306358D01*
X0312002Y0305310D01*
X0312488Y0304250D01*
X0312947Y0303179D01*
X0313380Y0302096D01*
X0313786Y0301003D01*
X0314165Y0299901D01*
X0314518Y0298789D01*
X0314842Y0297670D01*
X0315139Y0296542D01*
X0315409Y0295408D01*
X0315650Y0294267D01*
X0315864Y0293121D01*
X0316049Y0291970D01*
X0316206Y0290815D01*
X0316334Y0289656D01*
X0316434Y0288495D01*
X0316506Y0287331D01*
X0316549Y0286166D01*
X0316563Y0285000D01*
X0316549Y0283834D01*
X0316506Y0282669D01*
X0316434Y0281505D01*
X0316334Y0280344D01*
X0316206Y0279185D01*
X0316049Y0278030D01*
X0315864Y0276879D01*
X0315650Y0275733D01*
X0315409Y0274592D01*
X0315139Y0273458D01*
X0314842Y0272330D01*
X0314518Y0271211D01*
X0314165Y0270099D01*
X0313786Y0268997D01*
X0313380Y0267904D01*
X0312947Y0266821D01*
X0312488Y0265750D01*
X0312002Y0264690D01*
X0311491Y0263642D01*
X0310954Y0262607D01*
X0310392Y0261586D01*
X0309805Y0260579D01*
X0309193Y0259586D01*
X0308557Y0258609D01*
X0307898Y0257647D01*
X0307215Y0256702D01*
X0306509Y0255775D01*
X0305780Y0254864D01*
X0305030Y0253972D01*
X0304257Y0253099D01*
X0303464Y0252245D01*
X0302650Y0251410D01*
X0301815Y0250596D01*
X0300961Y0249803D01*
X0300088Y0249030D01*
X0299196Y0248280D01*
X0298285Y0247551D01*
X0297358Y0246845D01*
X0296413Y0246162D01*
X0295451Y0245503D01*
X0294474Y0244867D01*
X0293481Y0244255D01*
X0292474Y0243668D01*
X0291453Y0243106D01*
X0290418Y0242569D01*
X0289370Y0242058D01*
X0288310Y0241572D01*
X0287239Y0241113D01*
X0286156Y0240680D01*
X0285063Y0240274D01*
X0283961Y0239895D01*
X0282849Y0239542D01*
X0281730Y0239218D01*
X0280602Y0238921D01*
X0279468Y0238651D01*
X0278327Y0238410D01*
X0277181Y0238196D01*
X0276030Y0238011D01*
X0274875Y0237854D01*
X0273716Y0237726D01*
X0272555Y0237626D01*
X0271391Y0237554D01*
X0270226Y0237511D01*
X0269060Y0237497D01*
X0267894Y0237511D01*
X0266729Y0237554D01*
X0265565Y0237626D01*
X0264404Y0237726D01*
X0263245Y0237854D01*
X0262090Y0238011D01*
X0260939Y0238196D01*
X0259793Y0238410D01*
X0258652Y0238651D01*
X0257518Y0238921D01*
X0256390Y0239218D01*
X0255271Y0239542D01*
X0254159Y0239895D01*
X0253057Y0240274D01*
X0251964Y0240680D01*
X0250881Y0241113D01*
X0249810Y0241572D01*
X0248750Y0242058D01*
X0247702Y0242569D01*
X0246667Y0243106D01*
X0245646Y0243668D01*
X0244639Y0244255D01*
X0243646Y0244867D01*
X0242669Y0245503D01*
X0241707Y0246162D01*
X0240762Y0246845D01*
X0239835Y0247551D01*
X0238924Y0248280D01*
X0238032Y0249030D01*
X0237159Y0249803D01*
X0236305Y0250596D01*
X0235470Y0251410D01*
X0234656Y0252245D01*
X0233863Y0253099D01*
X0233090Y0253972D01*
X0232340Y0254864D01*
X0231611Y0255775D01*
X0230905Y0256702D01*
X0230222Y0257647D01*
X0229563Y0258609D01*
X0228927Y0259586D01*
X0228315Y0260579D01*
X0227728Y0261586D01*
X0227166Y0262607D01*
X0226629Y0263642D01*
X0226118Y0264690D01*
X0225632Y0265750D01*
X0225173Y0266821D01*
X0224740Y0267904D01*
X0224334Y0268997D01*
X0223955Y0270099D01*
X0223602Y0271211D01*
X0223278Y0272330D01*
X0222981Y0273458D01*
X0222711Y0274592D01*
X0222470Y0275733D01*
X0222256Y0276879D01*
X0222071Y0278030D01*
X0221914Y0279185D01*
X0221786Y0280344D01*
X0221686Y0281505D01*
X0221614Y0282669D01*
X0221571Y0283834D01*
X0221557Y0285000D01*
X0268060Y0285000D02*
X0268062Y0285063D01*
X0268068Y0285125D01*
X0268078Y0285187D01*
X0268091Y0285249D01*
X0268109Y0285309D01*
X0268130Y0285368D01*
X0268155Y0285426D01*
X0268184Y0285482D01*
X0268216Y0285536D01*
X0268251Y0285588D01*
X0268289Y0285637D01*
X0268331Y0285685D01*
X0268375Y0285729D01*
X0268423Y0285771D01*
X0268472Y0285809D01*
X0268524Y0285844D01*
X0268578Y0285876D01*
X0268634Y0285905D01*
X0268692Y0285930D01*
X0268751Y0285951D01*
X0268811Y0285969D01*
X0268873Y0285982D01*
X0268935Y0285992D01*
X0268997Y0285998D01*
X0269060Y0286000D01*
X0269123Y0285998D01*
X0269185Y0285992D01*
X0269247Y0285982D01*
X0269309Y0285969D01*
X0269369Y0285951D01*
X0269428Y0285930D01*
X0269486Y0285905D01*
X0269542Y0285876D01*
X0269596Y0285844D01*
X0269648Y0285809D01*
X0269697Y0285771D01*
X0269745Y0285729D01*
X0269789Y0285685D01*
X0269831Y0285637D01*
X0269869Y0285588D01*
X0269904Y0285536D01*
X0269936Y0285482D01*
X0269965Y0285426D01*
X0269990Y0285368D01*
X0270011Y0285309D01*
X0270029Y0285249D01*
X0270042Y0285187D01*
X0270052Y0285125D01*
X0270058Y0285063D01*
X0270060Y0285000D01*
X0270058Y0284937D01*
X0270052Y0284875D01*
X0270042Y0284813D01*
X0270029Y0284751D01*
X0270011Y0284691D01*
X0269990Y0284632D01*
X0269965Y0284574D01*
X0269936Y0284518D01*
X0269904Y0284464D01*
X0269869Y0284412D01*
X0269831Y0284363D01*
X0269789Y0284315D01*
X0269745Y0284271D01*
X0269697Y0284229D01*
X0269648Y0284191D01*
X0269596Y0284156D01*
X0269542Y0284124D01*
X0269486Y0284095D01*
X0269428Y0284070D01*
X0269369Y0284049D01*
X0269309Y0284031D01*
X0269247Y0284018D01*
X0269185Y0284008D01*
X0269123Y0284002D01*
X0269060Y0284000D01*
X0268997Y0284002D01*
X0268935Y0284008D01*
X0268873Y0284018D01*
X0268811Y0284031D01*
X0268751Y0284049D01*
X0268692Y0284070D01*
X0268634Y0284095D01*
X0268578Y0284124D01*
X0268524Y0284156D01*
X0268472Y0284191D01*
X0268423Y0284229D01*
X0268375Y0284271D01*
X0268331Y0284315D01*
X0268289Y0284363D01*
X0268251Y0284412D01*
X0268216Y0284464D01*
X0268184Y0284518D01*
X0268155Y0284574D01*
X0268130Y0284632D01*
X0268109Y0284691D01*
X0268091Y0284751D01*
X0268078Y0284813D01*
X0268068Y0284875D01*
X0268062Y0284937D01*
X0268060Y0285000D01*
X0264060Y0285000D02*
X0264062Y0285141D01*
X0264068Y0285282D01*
X0264078Y0285422D01*
X0264092Y0285562D01*
X0264110Y0285702D01*
X0264131Y0285841D01*
X0264157Y0285980D01*
X0264186Y0286118D01*
X0264220Y0286254D01*
X0264257Y0286390D01*
X0264298Y0286525D01*
X0264343Y0286659D01*
X0264392Y0286791D01*
X0264444Y0286922D01*
X0264500Y0287051D01*
X0264560Y0287178D01*
X0264623Y0287304D01*
X0264689Y0287428D01*
X0264760Y0287551D01*
X0264833Y0287671D01*
X0264910Y0287789D01*
X0264990Y0287905D01*
X0265074Y0288018D01*
X0265160Y0288129D01*
X0265250Y0288238D01*
X0265343Y0288344D01*
X0265438Y0288447D01*
X0265537Y0288548D01*
X0265638Y0288646D01*
X0265742Y0288741D01*
X0265849Y0288833D01*
X0265958Y0288922D01*
X0266070Y0289007D01*
X0266184Y0289090D01*
X0266300Y0289170D01*
X0266419Y0289246D01*
X0266540Y0289318D01*
X0266662Y0289388D01*
X0266787Y0289453D01*
X0266913Y0289516D01*
X0267041Y0289574D01*
X0267171Y0289629D01*
X0267302Y0289681D01*
X0267435Y0289728D01*
X0267569Y0289772D01*
X0267704Y0289813D01*
X0267840Y0289849D01*
X0267977Y0289881D01*
X0268115Y0289910D01*
X0268253Y0289935D01*
X0268393Y0289955D01*
X0268533Y0289972D01*
X0268673Y0289985D01*
X0268814Y0289994D01*
X0268954Y0289999D01*
X0269095Y0290000D01*
X0269236Y0289997D01*
X0269377Y0289990D01*
X0269517Y0289979D01*
X0269657Y0289964D01*
X0269797Y0289945D01*
X0269936Y0289923D01*
X0270074Y0289896D01*
X0270212Y0289866D01*
X0270348Y0289831D01*
X0270484Y0289793D01*
X0270618Y0289751D01*
X0270752Y0289705D01*
X0270884Y0289656D01*
X0271014Y0289602D01*
X0271143Y0289545D01*
X0271270Y0289485D01*
X0271396Y0289421D01*
X0271519Y0289353D01*
X0271641Y0289282D01*
X0271761Y0289208D01*
X0271878Y0289130D01*
X0271993Y0289049D01*
X0272106Y0288965D01*
X0272217Y0288878D01*
X0272325Y0288787D01*
X0272430Y0288694D01*
X0272533Y0288597D01*
X0272633Y0288498D01*
X0272730Y0288396D01*
X0272824Y0288291D01*
X0272915Y0288184D01*
X0273003Y0288074D01*
X0273088Y0287962D01*
X0273170Y0287847D01*
X0273249Y0287730D01*
X0273324Y0287611D01*
X0273396Y0287490D01*
X0273464Y0287367D01*
X0273529Y0287242D01*
X0273591Y0287115D01*
X0273648Y0286986D01*
X0273703Y0286856D01*
X0273753Y0286725D01*
X0273800Y0286592D01*
X0273843Y0286458D01*
X0273882Y0286322D01*
X0273917Y0286186D01*
X0273949Y0286049D01*
X0273976Y0285911D01*
X0274000Y0285772D01*
X0274020Y0285632D01*
X0274036Y0285492D01*
X0274048Y0285352D01*
X0274056Y0285211D01*
X0274060Y0285070D01*
X0274060Y0284930D01*
X0274056Y0284789D01*
X0274048Y0284648D01*
X0274036Y0284508D01*
X0274020Y0284368D01*
X0274000Y0284228D01*
X0273976Y0284089D01*
X0273949Y0283951D01*
X0273917Y0283814D01*
X0273882Y0283678D01*
X0273843Y0283542D01*
X0273800Y0283408D01*
X0273753Y0283275D01*
X0273703Y0283144D01*
X0273648Y0283014D01*
X0273591Y0282885D01*
X0273529Y0282758D01*
X0273464Y0282633D01*
X0273396Y0282510D01*
X0273324Y0282389D01*
X0273249Y0282270D01*
X0273170Y0282153D01*
X0273088Y0282038D01*
X0273003Y0281926D01*
X0272915Y0281816D01*
X0272824Y0281709D01*
X0272730Y0281604D01*
X0272633Y0281502D01*
X0272533Y0281403D01*
X0272430Y0281306D01*
X0272325Y0281213D01*
X0272217Y0281122D01*
X0272106Y0281035D01*
X0271993Y0280951D01*
X0271878Y0280870D01*
X0271761Y0280792D01*
X0271641Y0280718D01*
X0271519Y0280647D01*
X0271396Y0280579D01*
X0271270Y0280515D01*
X0271143Y0280455D01*
X0271014Y0280398D01*
X0270884Y0280344D01*
X0270752Y0280295D01*
X0270618Y0280249D01*
X0270484Y0280207D01*
X0270348Y0280169D01*
X0270212Y0280134D01*
X0270074Y0280104D01*
X0269936Y0280077D01*
X0269797Y0280055D01*
X0269657Y0280036D01*
X0269517Y0280021D01*
X0269377Y0280010D01*
X0269236Y0280003D01*
X0269095Y0280000D01*
X0268954Y0280001D01*
X0268814Y0280006D01*
X0268673Y0280015D01*
X0268533Y0280028D01*
X0268393Y0280045D01*
X0268253Y0280065D01*
X0268115Y0280090D01*
X0267977Y0280119D01*
X0267840Y0280151D01*
X0267704Y0280187D01*
X0267569Y0280228D01*
X0267435Y0280272D01*
X0267302Y0280319D01*
X0267171Y0280371D01*
X0267041Y0280426D01*
X0266913Y0280484D01*
X0266787Y0280547D01*
X0266662Y0280612D01*
X0266540Y0280682D01*
X0266419Y0280754D01*
X0266300Y0280830D01*
X0266184Y0280910D01*
X0266070Y0280993D01*
X0265958Y0281078D01*
X0265849Y0281167D01*
X0265742Y0281259D01*
X0265638Y0281354D01*
X0265537Y0281452D01*
X0265438Y0281553D01*
X0265343Y0281656D01*
X0265250Y0281762D01*
X0265160Y0281871D01*
X0265074Y0281982D01*
X0264990Y0282095D01*
X0264910Y0282211D01*
X0264833Y0282329D01*
X0264760Y0282449D01*
X0264689Y0282572D01*
X0264623Y0282696D01*
X0264560Y0282822D01*
X0264500Y0282949D01*
X0264444Y0283078D01*
X0264392Y0283209D01*
X0264343Y0283341D01*
X0264298Y0283475D01*
X0264257Y0283610D01*
X0264220Y0283746D01*
X0264186Y0283882D01*
X0264157Y0284020D01*
X0264131Y0284159D01*
X0264110Y0284298D01*
X0264092Y0284438D01*
X0264078Y0284578D01*
X0264068Y0284718D01*
X0264062Y0284859D01*
X0264060Y0285000D01*
D12*
G36*
X0233272Y0296599D02*
X0241381Y0310645D01*
X0241516Y0310567D01*
X0233407Y0296521D01*
X0233272Y0296599D01*
G37*
G36*
X0227817Y0299749D02*
X0235926Y0313795D01*
X0236061Y0313717D01*
X0227952Y0299671D01*
X0227817Y0299749D01*
G37*
D13*
G36*
X0227717Y0299261D02*
X0236298Y0314125D01*
X0236433Y0314047D01*
X0227852Y0299183D01*
X0227717Y0299261D01*
G37*
G36*
X0232900Y0296269D02*
X0241481Y0311133D01*
X0241616Y0311055D01*
X0233035Y0296191D01*
X0232900Y0296269D01*
G37*
D14*
G36*
X0232605Y0296075D02*
X0241501Y0311485D01*
X0241637Y0311407D01*
X0232741Y0295997D01*
X0232605Y0296075D01*
G37*
G36*
X0227695Y0298909D02*
X0236591Y0314319D01*
X0236727Y0314241D01*
X0227831Y0298831D01*
X0227695Y0298909D01*
G37*
D15*
G36*
X0227675Y0298558D02*
X0236886Y0314512D01*
X0237021Y0314434D01*
X0227810Y0298480D01*
X0227675Y0298558D01*
G37*
G36*
X0232312Y0295881D02*
X0241523Y0311835D01*
X0241658Y0311757D01*
X0232447Y0295803D01*
X0232312Y0295881D01*
G37*
X0268977Y0247992D03*
X0268977Y0242008D03*
G36*
X0296407Y0309953D02*
X0305618Y0293999D01*
X0305483Y0293921D01*
X0296272Y0309875D01*
X0296407Y0309953D01*
G37*
G36*
X0301590Y0312945D02*
X0310801Y0296991D01*
X0310666Y0296913D01*
X0301455Y0312867D01*
X0301590Y0312945D01*
G37*
D16*
G36*
X0232096Y0295823D02*
X0241465Y0312051D01*
X0241600Y0311973D01*
X0232231Y0295745D01*
X0232096Y0295823D01*
G37*
G36*
X0227732Y0298343D02*
X0237101Y0314571D01*
X0237236Y0314493D01*
X0227867Y0298265D01*
X0227732Y0298343D01*
G37*
D17*
G36*
X0227790Y0298128D02*
X0237316Y0314628D01*
X0237452Y0314550D01*
X0227926Y0298050D01*
X0227790Y0298128D01*
G37*
G36*
X0231881Y0295766D02*
X0241407Y0312266D01*
X0241543Y0312188D01*
X0232017Y0295688D01*
X0231881Y0295766D01*
G37*
X0268977Y0247835D03*
X0268977Y0242165D03*
G36*
X0296386Y0310305D02*
X0305912Y0293805D01*
X0305776Y0293727D01*
X0296250Y0310227D01*
X0296386Y0310305D01*
G37*
G36*
X0301296Y0313140D02*
X0310822Y0296640D01*
X0310686Y0296562D01*
X0301160Y0313062D01*
X0301296Y0313140D01*
G37*
D18*
G36*
X0305711Y0304233D02*
X0310670Y0295643D01*
X0310535Y0295565D01*
X0305576Y0304155D01*
X0305711Y0304233D01*
G37*
G36*
X0305653Y0304017D02*
X0310612Y0295427D01*
X0310477Y0295349D01*
X0305518Y0303939D01*
X0305653Y0304017D01*
G37*
X0263466Y0242953D03*
X0263623Y0242795D03*
G36*
X0232787Y0306153D02*
X0237746Y0314743D01*
X0237881Y0314665D01*
X0232922Y0306075D01*
X0232787Y0306153D01*
G37*
G36*
X0232572Y0306096D02*
X0237531Y0314686D01*
X0237666Y0314608D01*
X0232707Y0306018D01*
X0232572Y0306096D01*
G37*
D19*
G36*
X0231627Y0304459D02*
X0232256Y0305549D01*
X0232391Y0305471D01*
X0231762Y0304381D01*
X0231627Y0304459D01*
G37*
G36*
X0231358Y0301159D02*
X0231987Y0302249D01*
X0232122Y0302171D01*
X0231493Y0301081D01*
X0231358Y0301159D01*
G37*
G36*
X0231704Y0299868D02*
X0232333Y0300958D01*
X0232468Y0300880D01*
X0231839Y0299790D01*
X0231704Y0299868D01*
G37*
G36*
X0231841Y0299789D02*
X0232470Y0300879D01*
X0232605Y0300801D01*
X0231976Y0299711D01*
X0231841Y0299789D01*
G37*
G36*
X0231977Y0299710D02*
X0232606Y0300800D01*
X0232741Y0300722D01*
X0232112Y0299632D01*
X0231977Y0299710D01*
G37*
G36*
X0232113Y0299632D02*
X0232742Y0300722D01*
X0232877Y0300644D01*
X0232248Y0299554D01*
X0232113Y0299632D01*
G37*
G36*
X0232250Y0299553D02*
X0232879Y0300643D01*
X0233014Y0300565D01*
X0232385Y0299475D01*
X0232250Y0299553D01*
G37*
G36*
X0232386Y0299474D02*
X0233015Y0300564D01*
X0233150Y0300486D01*
X0232521Y0299396D01*
X0232386Y0299474D01*
G37*
G36*
X0232522Y0299395D02*
X0233151Y0300485D01*
X0233286Y0300407D01*
X0232657Y0299317D01*
X0232522Y0299395D01*
G37*
G36*
X0234587Y0306750D02*
X0235216Y0307840D01*
X0235351Y0307762D01*
X0234722Y0306672D01*
X0234587Y0306750D01*
G37*
G36*
X0237556Y0306854D02*
X0238185Y0307944D01*
X0238320Y0307866D01*
X0237691Y0306776D01*
X0237556Y0306854D01*
G37*
G36*
X0237819Y0308885D02*
X0238448Y0309975D01*
X0238583Y0309897D01*
X0237954Y0308807D01*
X0237819Y0308885D01*
G37*
G36*
X0237683Y0308963D02*
X0238312Y0310053D01*
X0238447Y0309975D01*
X0237818Y0308885D01*
X0237683Y0308963D01*
G37*
G36*
X0237546Y0309042D02*
X0238175Y0310132D01*
X0238310Y0310054D01*
X0237681Y0308964D01*
X0237546Y0309042D01*
G37*
G36*
X0237410Y0309121D02*
X0238039Y0310211D01*
X0238174Y0310133D01*
X0237545Y0309043D01*
X0237410Y0309121D01*
G37*
X0262914Y0245945D03*
X0262914Y0245472D03*
X0262914Y0244370D03*
X0262914Y0244213D03*
X0264804Y0246732D03*
X0266536Y0244213D03*
X0269843Y0242795D03*
X0275040Y0245630D03*
X0275198Y0245787D03*
G36*
X0305503Y0298294D02*
X0306132Y0297204D01*
X0305997Y0297126D01*
X0305368Y0298216D01*
X0305503Y0298294D01*
G37*
G36*
X0305912Y0298530D02*
X0306541Y0297440D01*
X0306406Y0297362D01*
X0305777Y0298452D01*
X0305912Y0298530D01*
G37*
G36*
X0306866Y0299081D02*
X0307495Y0297991D01*
X0307360Y0297913D01*
X0306731Y0299003D01*
X0306866Y0299081D01*
G37*
G36*
X0307003Y0299160D02*
X0307632Y0298070D01*
X0307497Y0297992D01*
X0306868Y0299082D01*
X0307003Y0299160D01*
G37*
G36*
X0303876Y0299537D02*
X0304505Y0298447D01*
X0304370Y0298369D01*
X0303741Y0299459D01*
X0303876Y0299537D01*
G37*
G36*
X0305192Y0302297D02*
X0305821Y0301207D01*
X0305686Y0301129D01*
X0305057Y0302219D01*
X0305192Y0302297D01*
G37*
G36*
X0304766Y0305870D02*
X0305395Y0304780D01*
X0305260Y0304702D01*
X0304631Y0305792D01*
X0304766Y0305870D01*
G37*
G36*
X0300400Y0308077D02*
X0301029Y0306987D01*
X0300894Y0306909D01*
X0300265Y0307999D01*
X0300400Y0308077D01*
G37*
D20*
G36*
X0227905Y0297697D02*
X0231447Y0303833D01*
X0231583Y0303755D01*
X0228041Y0297619D01*
X0227905Y0297697D01*
G37*
G36*
X0227847Y0297912D02*
X0231389Y0304048D01*
X0231525Y0303970D01*
X0227983Y0297834D01*
X0227847Y0297912D01*
G37*
D21*
G36*
X0231495Y0301081D02*
X0231966Y0301897D01*
X0232101Y0301819D01*
X0231630Y0301003D01*
X0231495Y0301081D01*
G37*
G36*
X0233080Y0301620D02*
X0233551Y0302436D01*
X0233686Y0302358D01*
X0233215Y0301542D01*
X0233080Y0301620D01*
G37*
G36*
X0233216Y0301542D02*
X0233687Y0302358D01*
X0233822Y0302280D01*
X0233351Y0301464D01*
X0233216Y0301542D01*
G37*
G36*
X0233352Y0301463D02*
X0233823Y0302279D01*
X0233958Y0302201D01*
X0233487Y0301385D01*
X0233352Y0301463D01*
G37*
G36*
X0234297Y0303100D02*
X0234768Y0303916D01*
X0234903Y0303838D01*
X0234432Y0303022D01*
X0234297Y0303100D01*
G37*
G36*
X0234161Y0303178D02*
X0234632Y0303994D01*
X0234767Y0303916D01*
X0234296Y0303100D01*
X0234161Y0303178D01*
G37*
G36*
X0234024Y0303257D02*
X0234495Y0304073D01*
X0234630Y0303995D01*
X0234159Y0303179D01*
X0234024Y0303257D01*
G37*
G36*
X0233888Y0303336D02*
X0234359Y0304152D01*
X0234494Y0304074D01*
X0234023Y0303258D01*
X0233888Y0303336D01*
G37*
G36*
X0233752Y0303414D02*
X0234223Y0304230D01*
X0234358Y0304152D01*
X0233887Y0303336D01*
X0233752Y0303414D01*
G37*
G36*
X0233615Y0303493D02*
X0234086Y0304309D01*
X0234221Y0304231D01*
X0233750Y0303415D01*
X0233615Y0303493D01*
G37*
G36*
X0233479Y0303572D02*
X0233950Y0304388D01*
X0234085Y0304310D01*
X0233614Y0303494D01*
X0233479Y0303572D01*
G37*
G36*
X0233342Y0303651D02*
X0233813Y0304467D01*
X0233948Y0304389D01*
X0233477Y0303573D01*
X0233342Y0303651D01*
G37*
G36*
X0233206Y0303729D02*
X0233677Y0304545D01*
X0233812Y0304467D01*
X0233341Y0303651D01*
X0233206Y0303729D01*
G37*
G36*
X0233070Y0303808D02*
X0233541Y0304624D01*
X0233676Y0304546D01*
X0233205Y0303730D01*
X0233070Y0303808D01*
G37*
G36*
X0232933Y0303887D02*
X0233404Y0304703D01*
X0233539Y0304625D01*
X0233068Y0303809D01*
X0232933Y0303887D01*
G37*
G36*
X0232797Y0303966D02*
X0233268Y0304782D01*
X0233403Y0304704D01*
X0232932Y0303888D01*
X0232797Y0303966D01*
G37*
G36*
X0232661Y0304044D02*
X0233132Y0304860D01*
X0233267Y0304782D01*
X0232796Y0303966D01*
X0232661Y0304044D01*
G37*
G36*
X0232524Y0304123D02*
X0232995Y0304939D01*
X0233130Y0304861D01*
X0232659Y0304045D01*
X0232524Y0304123D01*
G37*
G36*
X0232388Y0304202D02*
X0232859Y0305018D01*
X0232994Y0304940D01*
X0232523Y0304124D01*
X0232388Y0304202D01*
G37*
G36*
X0232251Y0304281D02*
X0232722Y0305097D01*
X0232857Y0305019D01*
X0232386Y0304203D01*
X0232251Y0304281D01*
G37*
G36*
X0232115Y0304359D02*
X0232586Y0305175D01*
X0232721Y0305097D01*
X0232250Y0304281D01*
X0232115Y0304359D01*
G37*
G36*
X0231979Y0304438D02*
X0232450Y0305254D01*
X0232585Y0305176D01*
X0232114Y0304360D01*
X0231979Y0304438D01*
G37*
G36*
X0231842Y0304517D02*
X0232313Y0305333D01*
X0232448Y0305255D01*
X0231977Y0304439D01*
X0231842Y0304517D01*
G37*
G36*
X0234434Y0303021D02*
X0234905Y0303837D01*
X0235040Y0303759D01*
X0234569Y0302943D01*
X0234434Y0303021D01*
G37*
G36*
X0234570Y0302942D02*
X0235041Y0303758D01*
X0235176Y0303680D01*
X0234705Y0302864D01*
X0234570Y0302942D01*
G37*
G36*
X0236029Y0306100D02*
X0236500Y0306916D01*
X0236635Y0306838D01*
X0236164Y0306022D01*
X0236029Y0306100D01*
G37*
G36*
X0235893Y0306179D02*
X0236364Y0306995D01*
X0236499Y0306917D01*
X0236028Y0306101D01*
X0235893Y0306179D01*
G37*
G36*
X0235757Y0306257D02*
X0236228Y0307073D01*
X0236363Y0306995D01*
X0235892Y0306179D01*
X0235757Y0306257D01*
G37*
G36*
X0235620Y0306336D02*
X0236091Y0307152D01*
X0236226Y0307074D01*
X0235755Y0306258D01*
X0235620Y0306336D01*
G37*
G36*
X0235484Y0306415D02*
X0235955Y0307231D01*
X0236090Y0307153D01*
X0235619Y0306337D01*
X0235484Y0306415D01*
G37*
G36*
X0235348Y0306494D02*
X0235819Y0307310D01*
X0235954Y0307232D01*
X0235483Y0306416D01*
X0235348Y0306494D01*
G37*
G36*
X0235211Y0306572D02*
X0235682Y0307388D01*
X0235817Y0307310D01*
X0235346Y0306494D01*
X0235211Y0306572D01*
G37*
G36*
X0235075Y0306651D02*
X0235546Y0307467D01*
X0235681Y0307389D01*
X0235210Y0306573D01*
X0235075Y0306651D01*
G37*
G36*
X0237499Y0307070D02*
X0237970Y0307886D01*
X0238105Y0307808D01*
X0237634Y0306992D01*
X0237499Y0307070D01*
G37*
G36*
X0236749Y0309867D02*
X0237220Y0310683D01*
X0237355Y0310605D01*
X0236884Y0309789D01*
X0236749Y0309867D01*
G37*
X0262914Y0246102D03*
X0264804Y0246575D03*
X0266536Y0245787D03*
X0266536Y0245630D03*
X0266536Y0245472D03*
X0266536Y0245315D03*
X0266536Y0245157D03*
X0266536Y0245000D03*
X0266536Y0244843D03*
X0266536Y0244685D03*
X0266536Y0244528D03*
X0269843Y0244528D03*
X0269843Y0244685D03*
X0269843Y0244843D03*
X0269843Y0245000D03*
X0269843Y0245157D03*
X0269843Y0245315D03*
X0269843Y0245472D03*
X0269843Y0245630D03*
X0269843Y0245787D03*
X0269843Y0245945D03*
X0269843Y0246102D03*
X0269843Y0244370D03*
X0269843Y0244213D03*
X0269843Y0244055D03*
X0269843Y0243898D03*
X0269843Y0243740D03*
X0269843Y0243583D03*
X0269843Y0243425D03*
X0269843Y0243268D03*
X0269843Y0243110D03*
X0269843Y0242953D03*
X0271733Y0245472D03*
X0271733Y0245787D03*
X0275198Y0246102D03*
X0275040Y0244370D03*
X0275198Y0244213D03*
X0275198Y0244055D03*
G36*
X0305445Y0298078D02*
X0305916Y0297262D01*
X0305781Y0297184D01*
X0305310Y0298000D01*
X0305445Y0298078D01*
G37*
G36*
X0304091Y0299479D02*
X0304562Y0298663D01*
X0304427Y0298585D01*
X0303956Y0299401D01*
X0304091Y0299479D01*
G37*
G36*
X0303907Y0301373D02*
X0304378Y0300557D01*
X0304243Y0300479D01*
X0303772Y0301295D01*
X0303907Y0301373D01*
G37*
G36*
X0304043Y0301451D02*
X0304514Y0300635D01*
X0304379Y0300557D01*
X0303908Y0301373D01*
X0304043Y0301451D01*
G37*
G36*
X0304180Y0301530D02*
X0304651Y0300714D01*
X0304516Y0300636D01*
X0304045Y0301452D01*
X0304180Y0301530D01*
G37*
G36*
X0304316Y0301609D02*
X0304787Y0300793D01*
X0304652Y0300715D01*
X0304181Y0301531D01*
X0304316Y0301609D01*
G37*
G36*
X0304452Y0301688D02*
X0304923Y0300872D01*
X0304788Y0300794D01*
X0304317Y0301610D01*
X0304452Y0301688D01*
G37*
G36*
X0304589Y0301766D02*
X0305060Y0300950D01*
X0304925Y0300872D01*
X0304454Y0301688D01*
X0304589Y0301766D01*
G37*
G36*
X0304725Y0301845D02*
X0305196Y0301029D01*
X0305061Y0300951D01*
X0304590Y0301767D01*
X0304725Y0301845D01*
G37*
G36*
X0304862Y0301924D02*
X0305333Y0301108D01*
X0305198Y0301030D01*
X0304727Y0301846D01*
X0304862Y0301924D01*
G37*
G36*
X0304998Y0302003D02*
X0305469Y0301187D01*
X0305334Y0301109D01*
X0304863Y0301925D01*
X0304998Y0302003D01*
G37*
G36*
X0303344Y0304867D02*
X0303815Y0304051D01*
X0303680Y0303973D01*
X0303209Y0304789D01*
X0303344Y0304867D01*
G37*
G36*
X0303481Y0304945D02*
X0303952Y0304129D01*
X0303817Y0304051D01*
X0303346Y0304867D01*
X0303481Y0304945D01*
G37*
G36*
X0303617Y0305024D02*
X0304088Y0304208D01*
X0303953Y0304130D01*
X0303482Y0304946D01*
X0303617Y0305024D01*
G37*
G36*
X0303754Y0305103D02*
X0304225Y0304287D01*
X0304090Y0304209D01*
X0303619Y0305025D01*
X0303754Y0305103D01*
G37*
G36*
X0303890Y0305181D02*
X0304361Y0304365D01*
X0304226Y0304287D01*
X0303755Y0305103D01*
X0303890Y0305181D01*
G37*
G36*
X0304026Y0305260D02*
X0304497Y0304444D01*
X0304362Y0304366D01*
X0303891Y0305182D01*
X0304026Y0305260D01*
G37*
G36*
X0304163Y0305339D02*
X0304634Y0304523D01*
X0304499Y0304445D01*
X0304028Y0305261D01*
X0304163Y0305339D01*
G37*
G36*
X0304299Y0305418D02*
X0304770Y0304602D01*
X0304635Y0304524D01*
X0304164Y0305340D01*
X0304299Y0305418D01*
G37*
G36*
X0304436Y0305496D02*
X0304907Y0304680D01*
X0304772Y0304602D01*
X0304301Y0305418D01*
X0304436Y0305496D01*
G37*
G36*
X0304572Y0305575D02*
X0305043Y0304759D01*
X0304908Y0304681D01*
X0304437Y0305497D01*
X0304572Y0305575D01*
G37*
G36*
X0304708Y0305654D02*
X0305179Y0304838D01*
X0305044Y0304760D01*
X0304573Y0305576D01*
X0304708Y0305654D01*
G37*
G36*
X0303208Y0304788D02*
X0303679Y0303972D01*
X0303544Y0303894D01*
X0303073Y0304710D01*
X0303208Y0304788D01*
G37*
G36*
X0303072Y0304709D02*
X0303543Y0303893D01*
X0303408Y0303815D01*
X0302937Y0304631D01*
X0303072Y0304709D01*
G37*
G36*
X0302935Y0304630D02*
X0303406Y0303814D01*
X0303271Y0303736D01*
X0302800Y0304552D01*
X0302935Y0304630D01*
G37*
G36*
X0302799Y0304552D02*
X0303270Y0303736D01*
X0303135Y0303658D01*
X0302664Y0304474D01*
X0302799Y0304552D01*
G37*
G36*
X0302663Y0304473D02*
X0303134Y0303657D01*
X0302999Y0303579D01*
X0302528Y0304395D01*
X0302663Y0304473D01*
G37*
G36*
X0302526Y0304394D02*
X0302997Y0303578D01*
X0302862Y0303500D01*
X0302391Y0304316D01*
X0302526Y0304394D01*
G37*
G36*
X0302390Y0304315D02*
X0302861Y0303499D01*
X0302726Y0303421D01*
X0302255Y0304237D01*
X0302390Y0304315D01*
G37*
G36*
X0302253Y0304237D02*
X0302724Y0303421D01*
X0302589Y0303343D01*
X0302118Y0304159D01*
X0302253Y0304237D01*
G37*
G36*
X0302117Y0304158D02*
X0302588Y0303342D01*
X0302453Y0303264D01*
X0301982Y0304080D01*
X0302117Y0304158D01*
G37*
G36*
X0301981Y0304079D02*
X0302452Y0303263D01*
X0302317Y0303185D01*
X0301846Y0304001D01*
X0301981Y0304079D01*
G37*
G36*
X0301309Y0305873D02*
X0301780Y0305057D01*
X0301645Y0304979D01*
X0301174Y0305795D01*
X0301309Y0305873D01*
G37*
G36*
X0301581Y0306031D02*
X0302052Y0305215D01*
X0301917Y0305137D01*
X0301446Y0305953D01*
X0301581Y0306031D01*
G37*
G36*
X0301906Y0307673D02*
X0302377Y0306857D01*
X0302242Y0306779D01*
X0301771Y0307595D01*
X0301906Y0307673D01*
G37*
G36*
X0300421Y0307725D02*
X0300892Y0306909D01*
X0300757Y0306831D01*
X0300286Y0307647D01*
X0300421Y0307725D01*
G37*
G36*
X0300552Y0309073D02*
X0301023Y0308257D01*
X0300888Y0308179D01*
X0300417Y0308995D01*
X0300552Y0309073D01*
G37*
G36*
X0300610Y0309288D02*
X0301081Y0308472D01*
X0300946Y0308394D01*
X0300475Y0309210D01*
X0300610Y0309288D01*
G37*
G36*
X0300746Y0309367D02*
X0301217Y0308551D01*
X0301082Y0308473D01*
X0300611Y0309289D01*
X0300746Y0309367D01*
G37*
G36*
X0301019Y0309525D02*
X0301490Y0308709D01*
X0301355Y0308631D01*
X0300884Y0309447D01*
X0301019Y0309525D01*
G37*
D22*
G36*
X0302603Y0308985D02*
X0304098Y0306395D01*
X0303963Y0306317D01*
X0302468Y0308907D01*
X0302603Y0308985D01*
G37*
G36*
X0296983Y0312105D02*
X0298478Y0309515D01*
X0298343Y0309437D01*
X0296848Y0312027D01*
X0296983Y0312105D01*
G37*
G36*
X0296847Y0312026D02*
X0298342Y0309436D01*
X0298207Y0309358D01*
X0296712Y0311948D01*
X0296847Y0312026D01*
G37*
G36*
X0305572Y0295970D02*
X0307067Y0293380D01*
X0306932Y0293302D01*
X0305437Y0295892D01*
X0305572Y0295970D01*
G37*
G36*
X0305787Y0295912D02*
X0307282Y0293322D01*
X0307147Y0293244D01*
X0305652Y0295834D01*
X0305787Y0295912D01*
G37*
G36*
X0305923Y0295991D02*
X0307418Y0293401D01*
X0307283Y0293323D01*
X0305788Y0295913D01*
X0305923Y0295991D01*
G37*
G36*
X0308924Y0297723D02*
X0310419Y0295133D01*
X0310284Y0295055D01*
X0308789Y0297645D01*
X0308924Y0297723D01*
G37*
G36*
X0309060Y0297802D02*
X0310555Y0295212D01*
X0310420Y0295134D01*
X0308925Y0297724D01*
X0309060Y0297802D01*
G37*
X0260001Y0247047D03*
X0259843Y0246890D03*
X0259843Y0246732D03*
X0259843Y0243268D03*
X0259843Y0243110D03*
G36*
X0231236Y0295592D02*
X0232731Y0298182D01*
X0232866Y0298104D01*
X0231371Y0295514D01*
X0231236Y0295592D01*
G37*
G36*
X0231100Y0295671D02*
X0232595Y0298261D01*
X0232730Y0298183D01*
X0231235Y0295593D01*
X0231100Y0295671D01*
G37*
G36*
X0228099Y0297403D02*
X0229594Y0299993D01*
X0229729Y0299915D01*
X0228234Y0297325D01*
X0228099Y0297403D01*
G37*
G36*
X0227963Y0297482D02*
X0229458Y0300072D01*
X0229593Y0299994D01*
X0228098Y0297404D01*
X0227963Y0297482D01*
G37*
G36*
X0230283Y0300871D02*
X0231778Y0303461D01*
X0231913Y0303383D01*
X0230418Y0300793D01*
X0230283Y0300871D01*
G37*
G36*
X0236603Y0312133D02*
X0238098Y0314723D01*
X0238233Y0314645D01*
X0236738Y0312055D01*
X0236603Y0312133D01*
G37*
G36*
X0236467Y0312211D02*
X0237962Y0314801D01*
X0238097Y0314723D01*
X0236602Y0312133D01*
X0236467Y0312211D01*
G37*
G36*
X0239603Y0310400D02*
X0241098Y0312990D01*
X0241233Y0312912D01*
X0239738Y0310322D01*
X0239603Y0310400D01*
G37*
G36*
X0239797Y0310106D02*
X0241292Y0312696D01*
X0241427Y0312618D01*
X0239932Y0310028D01*
X0239797Y0310106D01*
G37*
G36*
X0239740Y0310322D02*
X0241235Y0312912D01*
X0241370Y0312834D01*
X0239875Y0310244D01*
X0239740Y0310322D01*
G37*
D23*
G36*
X0232923Y0306074D02*
X0235284Y0310164D01*
X0235419Y0310086D01*
X0233058Y0305996D01*
X0232923Y0306074D01*
G37*
D24*
G36*
X0229852Y0300756D02*
X0231504Y0303618D01*
X0231640Y0303540D01*
X0229988Y0300678D01*
X0229852Y0300756D01*
G37*
G36*
X0228351Y0296895D02*
X0230003Y0299757D01*
X0230139Y0299679D01*
X0228487Y0296817D01*
X0228351Y0296895D01*
G37*
G36*
X0228487Y0296816D02*
X0230139Y0299678D01*
X0230275Y0299600D01*
X0228623Y0296738D01*
X0228487Y0296816D01*
G37*
G36*
X0228623Y0296737D02*
X0230275Y0299599D01*
X0230411Y0299521D01*
X0228759Y0296659D01*
X0228623Y0296737D01*
G37*
G36*
X0230260Y0295792D02*
X0231912Y0298654D01*
X0232048Y0298576D01*
X0230396Y0295714D01*
X0230260Y0295792D01*
G37*
G36*
X0230396Y0295714D02*
X0232048Y0298576D01*
X0232184Y0298498D01*
X0230532Y0295636D01*
X0230396Y0295714D01*
G37*
G36*
X0230533Y0295635D02*
X0232185Y0298497D01*
X0232321Y0298419D01*
X0230669Y0295557D01*
X0230533Y0295635D01*
G37*
G36*
X0239194Y0310637D02*
X0240846Y0313499D01*
X0240982Y0313421D01*
X0239330Y0310559D01*
X0239194Y0310637D01*
G37*
G36*
X0239058Y0310716D02*
X0240710Y0313578D01*
X0240846Y0313500D01*
X0239194Y0310638D01*
X0239058Y0310716D01*
G37*
G36*
X0238921Y0310794D02*
X0240573Y0313656D01*
X0240709Y0313578D01*
X0239057Y0310716D01*
X0238921Y0310794D01*
G37*
G36*
X0237285Y0311739D02*
X0238937Y0314601D01*
X0239073Y0314523D01*
X0237421Y0311661D01*
X0237285Y0311739D01*
G37*
G36*
X0237148Y0311818D02*
X0238800Y0314680D01*
X0238936Y0314602D01*
X0237284Y0311740D01*
X0237148Y0311818D01*
G37*
G36*
X0237012Y0311897D02*
X0238664Y0314759D01*
X0238800Y0314681D01*
X0237148Y0311819D01*
X0237012Y0311897D01*
G37*
X0259686Y0246260D03*
X0259686Y0246102D03*
X0259686Y0245945D03*
X0259686Y0244055D03*
X0259686Y0243898D03*
X0259686Y0243740D03*
X0278111Y0243583D03*
X0278269Y0243740D03*
X0278269Y0243898D03*
X0278269Y0244055D03*
X0278426Y0245630D03*
X0278426Y0245787D03*
X0278269Y0246260D03*
X0278111Y0246575D03*
X0277954Y0246732D03*
G36*
X0306333Y0296227D02*
X0307985Y0293365D01*
X0307849Y0293287D01*
X0306197Y0296149D01*
X0306333Y0296227D01*
G37*
G36*
X0306469Y0296305D02*
X0308121Y0293443D01*
X0307985Y0293365D01*
X0306333Y0296227D01*
X0306469Y0296305D01*
G37*
G36*
X0306606Y0296384D02*
X0308258Y0293522D01*
X0308122Y0293444D01*
X0306470Y0296306D01*
X0306606Y0296384D01*
G37*
G36*
X0308242Y0297329D02*
X0309894Y0294467D01*
X0309758Y0294389D01*
X0308106Y0297251D01*
X0308242Y0297329D01*
G37*
G36*
X0308379Y0297408D02*
X0310031Y0294546D01*
X0309895Y0294468D01*
X0308243Y0297330D01*
X0308379Y0297408D01*
G37*
G36*
X0308515Y0297487D02*
X0310167Y0294625D01*
X0310031Y0294547D01*
X0308379Y0297409D01*
X0308515Y0297487D01*
G37*
G36*
X0297042Y0312320D02*
X0298694Y0309458D01*
X0298558Y0309380D01*
X0296906Y0312242D01*
X0297042Y0312320D01*
G37*
D25*
G36*
X0297314Y0312477D02*
X0299517Y0308661D01*
X0299382Y0308583D01*
X0297179Y0312399D01*
X0297314Y0312477D01*
G37*
G36*
X0305381Y0303860D02*
X0307584Y0300044D01*
X0307449Y0299966D01*
X0305246Y0303782D01*
X0305381Y0303860D01*
G37*
X0266221Y0243268D03*
G36*
X0233060Y0305996D02*
X0235263Y0309812D01*
X0235398Y0309734D01*
X0233195Y0305918D01*
X0233060Y0305996D01*
G37*
D26*
G36*
X0230067Y0300813D02*
X0231641Y0303539D01*
X0231777Y0303461D01*
X0230203Y0300735D01*
X0230067Y0300813D01*
G37*
G36*
X0228156Y0297188D02*
X0229730Y0299914D01*
X0229866Y0299836D01*
X0228292Y0297110D01*
X0228156Y0297188D01*
G37*
G36*
X0228293Y0297110D02*
X0229867Y0299836D01*
X0230003Y0299758D01*
X0228429Y0297032D01*
X0228293Y0297110D01*
G37*
G36*
X0230747Y0295692D02*
X0232321Y0298418D01*
X0232457Y0298340D01*
X0230883Y0295614D01*
X0230747Y0295692D01*
G37*
G36*
X0230884Y0295614D02*
X0232458Y0298340D01*
X0232594Y0298262D01*
X0231020Y0295536D01*
X0230884Y0295614D01*
G37*
G36*
X0239466Y0310479D02*
X0241040Y0313205D01*
X0241176Y0313127D01*
X0239602Y0310401D01*
X0239466Y0310479D01*
G37*
G36*
X0239330Y0310558D02*
X0240904Y0313284D01*
X0241040Y0313206D01*
X0239466Y0310480D01*
X0239330Y0310558D01*
G37*
G36*
X0236875Y0311975D02*
X0238449Y0314701D01*
X0238585Y0314623D01*
X0237011Y0311897D01*
X0236875Y0311975D01*
G37*
G36*
X0236739Y0312054D02*
X0238313Y0314780D01*
X0238449Y0314702D01*
X0236875Y0311976D01*
X0236739Y0312054D01*
G37*
X0259765Y0246575D03*
X0259765Y0246417D03*
X0259765Y0243583D03*
X0259765Y0243425D03*
X0272836Y0243110D03*
X0278347Y0245945D03*
X0278347Y0246102D03*
X0278190Y0246417D03*
G36*
X0306060Y0296069D02*
X0307634Y0293343D01*
X0307498Y0293265D01*
X0305924Y0295991D01*
X0306060Y0296069D01*
G37*
G36*
X0306196Y0296148D02*
X0307770Y0293422D01*
X0307634Y0293344D01*
X0306060Y0296070D01*
X0306196Y0296148D01*
G37*
G36*
X0308651Y0297566D02*
X0310225Y0294840D01*
X0310089Y0294762D01*
X0308515Y0297488D01*
X0308651Y0297566D01*
G37*
G36*
X0308787Y0297644D02*
X0310361Y0294918D01*
X0310225Y0294840D01*
X0308651Y0297566D01*
X0308787Y0297644D01*
G37*
D27*
G36*
X0305244Y0303782D02*
X0307369Y0300100D01*
X0307234Y0300022D01*
X0305109Y0303704D01*
X0305244Y0303782D01*
G37*
G36*
X0297371Y0312693D02*
X0299496Y0309011D01*
X0299361Y0308933D01*
X0297236Y0312615D01*
X0297371Y0312693D01*
G37*
X0266300Y0243425D03*
G36*
X0233332Y0305837D02*
X0235457Y0309519D01*
X0235592Y0309441D01*
X0233467Y0305759D01*
X0233332Y0305837D01*
G37*
G36*
X0233196Y0305916D02*
X0235321Y0309598D01*
X0235456Y0309520D01*
X0233331Y0305838D01*
X0233196Y0305916D01*
G37*
D28*
G36*
X0230497Y0300928D02*
X0231913Y0303382D01*
X0232049Y0303304D01*
X0230633Y0300850D01*
X0230497Y0300928D01*
G37*
G36*
X0231451Y0295650D02*
X0232867Y0298104D01*
X0233003Y0298026D01*
X0231587Y0295572D01*
X0231451Y0295650D01*
G37*
X0272678Y0243268D03*
G36*
X0302546Y0308770D02*
X0303962Y0306316D01*
X0303826Y0306238D01*
X0302410Y0308692D01*
X0302546Y0308770D01*
G37*
G36*
X0296790Y0311811D02*
X0298206Y0309357D01*
X0298070Y0309279D01*
X0296654Y0311733D01*
X0296790Y0311811D01*
G37*
G36*
X0296653Y0311733D02*
X0298069Y0309279D01*
X0297933Y0309201D01*
X0296517Y0311655D01*
X0296653Y0311733D01*
G37*
G36*
X0296596Y0311518D02*
X0298012Y0309064D01*
X0297876Y0308986D01*
X0296460Y0311440D01*
X0296596Y0311518D01*
G37*
D29*
G36*
X0297508Y0312771D02*
X0299554Y0309227D01*
X0299418Y0309149D01*
X0297372Y0312693D01*
X0297508Y0312771D01*
G37*
G36*
X0300142Y0313564D02*
X0302188Y0310020D01*
X0302052Y0309942D01*
X0300006Y0313486D01*
X0300142Y0313564D01*
G37*
G36*
X0305108Y0303703D02*
X0307154Y0300159D01*
X0307018Y0300081D01*
X0304972Y0303625D01*
X0305108Y0303703D01*
G37*
G36*
X0304972Y0303624D02*
X0307018Y0300080D01*
X0306882Y0300002D01*
X0304836Y0303546D01*
X0304972Y0303624D01*
G37*
X0266379Y0243740D03*
X0266379Y0243583D03*
G36*
X0233741Y0305602D02*
X0235787Y0309146D01*
X0235923Y0309068D01*
X0233877Y0305524D01*
X0233741Y0305602D01*
G37*
G36*
X0233605Y0305681D02*
X0235651Y0309225D01*
X0235787Y0309147D01*
X0233741Y0305603D01*
X0233605Y0305681D01*
G37*
G36*
X0233468Y0305760D02*
X0235514Y0309304D01*
X0235650Y0309226D01*
X0233604Y0305682D01*
X0233468Y0305760D01*
G37*
D30*
G36*
X0230713Y0300986D02*
X0232050Y0303302D01*
X0232185Y0303224D01*
X0230848Y0300908D01*
X0230713Y0300986D01*
G37*
G36*
X0219662Y0307613D02*
X0220999Y0309929D01*
X0221134Y0309851D01*
X0219797Y0307535D01*
X0219662Y0307613D01*
G37*
G36*
X0219526Y0307691D02*
X0220863Y0310007D01*
X0220998Y0309929D01*
X0219661Y0307613D01*
X0219526Y0307691D01*
G37*
G36*
X0219389Y0307770D02*
X0220726Y0310086D01*
X0220861Y0310008D01*
X0219524Y0307692D01*
X0219389Y0307770D01*
G37*
G36*
X0219253Y0307849D02*
X0220590Y0310165D01*
X0220725Y0310087D01*
X0219388Y0307771D01*
X0219253Y0307849D01*
G37*
G36*
X0219116Y0307927D02*
X0220453Y0310243D01*
X0220588Y0310165D01*
X0219251Y0307849D01*
X0219116Y0307927D01*
G37*
X0272599Y0243583D03*
X0272599Y0243425D03*
X0280099Y0236185D03*
X0280099Y0236028D03*
X0280099Y0235870D03*
X0280099Y0235713D03*
X0280099Y0235555D03*
G36*
X0302488Y0308554D02*
X0303825Y0306238D01*
X0303690Y0306160D01*
X0302353Y0308476D01*
X0302488Y0308554D01*
G37*
G36*
X0312660Y0317021D02*
X0313997Y0314705D01*
X0313862Y0314627D01*
X0312525Y0316943D01*
X0312660Y0317021D01*
G37*
G36*
X0312797Y0317099D02*
X0314134Y0314783D01*
X0313999Y0314705D01*
X0312662Y0317021D01*
X0312797Y0317099D01*
G37*
G36*
X0312933Y0317178D02*
X0314270Y0314862D01*
X0314135Y0314784D01*
X0312798Y0317100D01*
X0312933Y0317178D01*
G37*
G36*
X0313070Y0317257D02*
X0314407Y0314941D01*
X0314272Y0314863D01*
X0312935Y0317179D01*
X0313070Y0317257D01*
G37*
G36*
X0313206Y0317336D02*
X0314543Y0315020D01*
X0314408Y0314942D01*
X0313071Y0317258D01*
X0313206Y0317336D01*
G37*
D31*
G36*
X0302430Y0308340D02*
X0303689Y0306158D01*
X0303554Y0306080D01*
X0302295Y0308262D01*
X0302430Y0308340D01*
G37*
G36*
X0302294Y0308262D02*
X0303553Y0306080D01*
X0303418Y0306002D01*
X0302159Y0308184D01*
X0302294Y0308262D01*
G37*
X0272521Y0244055D03*
X0272521Y0243898D03*
X0272521Y0243740D03*
G36*
X0230928Y0301043D02*
X0232187Y0303225D01*
X0232322Y0303147D01*
X0231063Y0300965D01*
X0230928Y0301043D01*
G37*
D32*
G36*
X0236096Y0303696D02*
X0236646Y0304650D01*
X0236782Y0304572D01*
X0236232Y0303618D01*
X0236096Y0303696D01*
G37*
G36*
X0234859Y0306593D02*
X0235409Y0307547D01*
X0235545Y0307469D01*
X0234995Y0306515D01*
X0234859Y0306593D01*
G37*
G36*
X0234723Y0306671D02*
X0235273Y0307625D01*
X0235409Y0307547D01*
X0234859Y0306593D01*
X0234723Y0306671D01*
G37*
G36*
X0236534Y0309808D02*
X0237084Y0310762D01*
X0237220Y0310684D01*
X0236670Y0309730D01*
X0236534Y0309808D01*
G37*
G36*
X0236397Y0309887D02*
X0236947Y0310841D01*
X0237083Y0310763D01*
X0236533Y0309809D01*
X0236397Y0309887D01*
G37*
G36*
X0236261Y0309966D02*
X0236811Y0310920D01*
X0236947Y0310842D01*
X0236397Y0309888D01*
X0236261Y0309966D01*
G37*
G36*
X0238034Y0308942D02*
X0238584Y0309896D01*
X0238720Y0309818D01*
X0238170Y0308864D01*
X0238034Y0308942D01*
G37*
G36*
X0220601Y0307979D02*
X0221151Y0308933D01*
X0221287Y0308855D01*
X0220737Y0307901D01*
X0220601Y0307979D01*
G37*
G36*
X0220464Y0308057D02*
X0221014Y0309011D01*
X0221150Y0308933D01*
X0220600Y0307979D01*
X0220464Y0308057D01*
G37*
G36*
X0220328Y0308136D02*
X0220878Y0309090D01*
X0221014Y0309012D01*
X0220464Y0308058D01*
X0220328Y0308136D01*
G37*
G36*
X0220191Y0308215D02*
X0220741Y0309169D01*
X0220877Y0309091D01*
X0220327Y0308137D01*
X0220191Y0308215D01*
G37*
G36*
X0219237Y0308766D02*
X0219787Y0309720D01*
X0219923Y0309642D01*
X0219373Y0308688D01*
X0219237Y0308766D01*
G37*
G36*
X0219100Y0308845D02*
X0219650Y0309799D01*
X0219786Y0309721D01*
X0219236Y0308767D01*
X0219100Y0308845D01*
G37*
G36*
X0218964Y0308923D02*
X0219514Y0309877D01*
X0219650Y0309799D01*
X0219100Y0308845D01*
X0218964Y0308923D01*
G37*
X0262836Y0244528D03*
X0262836Y0244055D03*
X0266458Y0244370D03*
X0268347Y0247047D03*
X0271812Y0245630D03*
X0273387Y0246732D03*
X0275119Y0245945D03*
X0280099Y0236815D03*
X0280099Y0236657D03*
X0280099Y0236500D03*
X0280099Y0235398D03*
X0280099Y0235240D03*
X0280099Y0235083D03*
X0280099Y0234925D03*
G36*
X0306809Y0298867D02*
X0307359Y0297913D01*
X0307223Y0297835D01*
X0306673Y0298789D01*
X0306809Y0298867D01*
G37*
G36*
X0307219Y0299103D02*
X0307769Y0298149D01*
X0307633Y0298071D01*
X0307083Y0299025D01*
X0307219Y0299103D01*
G37*
G36*
X0305135Y0302082D02*
X0305685Y0301128D01*
X0305549Y0301050D01*
X0304999Y0302004D01*
X0305135Y0302082D01*
G37*
G36*
X0301871Y0302380D02*
X0302421Y0301426D01*
X0302285Y0301348D01*
X0301735Y0302302D01*
X0301871Y0302380D01*
G37*
G36*
X0301367Y0306089D02*
X0301917Y0305135D01*
X0301781Y0305057D01*
X0301231Y0306011D01*
X0301367Y0306089D01*
G37*
G36*
X0299646Y0306550D02*
X0300196Y0305596D01*
X0300060Y0305518D01*
X0299510Y0306472D01*
X0299646Y0306550D01*
G37*
G36*
X0300804Y0309583D02*
X0301354Y0308629D01*
X0301218Y0308551D01*
X0300668Y0309505D01*
X0300804Y0309583D01*
G37*
G36*
X0312509Y0316025D02*
X0313059Y0315071D01*
X0312923Y0314993D01*
X0312373Y0315947D01*
X0312509Y0316025D01*
G37*
G36*
X0312645Y0316103D02*
X0313195Y0315149D01*
X0313059Y0315071D01*
X0312509Y0316025D01*
X0312645Y0316103D01*
G37*
G36*
X0312782Y0316182D02*
X0313332Y0315228D01*
X0313196Y0315150D01*
X0312646Y0316104D01*
X0312782Y0316182D01*
G37*
G36*
X0312918Y0316261D02*
X0313468Y0315307D01*
X0313332Y0315229D01*
X0312782Y0316183D01*
X0312918Y0316261D01*
G37*
G36*
X0313873Y0316812D02*
X0314423Y0315858D01*
X0314287Y0315780D01*
X0313737Y0316734D01*
X0313873Y0316812D01*
G37*
G36*
X0314009Y0316891D02*
X0314559Y0315937D01*
X0314423Y0315859D01*
X0313873Y0316813D01*
X0314009Y0316891D01*
G37*
G36*
X0314145Y0316970D02*
X0314695Y0316016D01*
X0314559Y0315938D01*
X0314009Y0316892D01*
X0314145Y0316970D01*
G37*
D33*
G36*
X0313421Y0317278D02*
X0314601Y0315234D01*
X0314465Y0315156D01*
X0313285Y0317200D01*
X0313421Y0317278D01*
G37*
G36*
X0302237Y0308046D02*
X0303417Y0306002D01*
X0303281Y0305924D01*
X0302101Y0307968D01*
X0302237Y0308046D01*
G37*
G36*
X0302100Y0307967D02*
X0303280Y0305923D01*
X0303144Y0305845D01*
X0301964Y0307889D01*
X0302100Y0307967D01*
G37*
X0280099Y0236343D03*
G36*
X0233262Y0298787D02*
X0234442Y0300831D01*
X0234578Y0300753D01*
X0233398Y0298709D01*
X0233262Y0298787D01*
G37*
G36*
X0231143Y0301101D02*
X0232323Y0303145D01*
X0232459Y0303067D01*
X0231279Y0301023D01*
X0231143Y0301101D01*
G37*
G36*
X0219058Y0308142D02*
X0220238Y0310186D01*
X0220374Y0310108D01*
X0219194Y0308064D01*
X0219058Y0308142D01*
G37*
D34*
G36*
X0228681Y0296522D02*
X0230412Y0299520D01*
X0230547Y0299442D01*
X0228816Y0296444D01*
X0228681Y0296522D01*
G37*
G36*
X0228818Y0296444D02*
X0230549Y0299442D01*
X0230684Y0299364D01*
X0228953Y0296366D01*
X0228818Y0296444D01*
G37*
G36*
X0228954Y0296365D02*
X0230685Y0299363D01*
X0230820Y0299285D01*
X0229089Y0296287D01*
X0228954Y0296365D01*
G37*
G36*
X0229090Y0296286D02*
X0230821Y0299284D01*
X0230956Y0299206D01*
X0229225Y0296208D01*
X0229090Y0296286D01*
G37*
G36*
X0229227Y0296207D02*
X0230958Y0299205D01*
X0231093Y0299127D01*
X0229362Y0296129D01*
X0229227Y0296207D01*
G37*
G36*
X0229363Y0296129D02*
X0231094Y0299127D01*
X0231229Y0299049D01*
X0229498Y0296051D01*
X0229363Y0296129D01*
G37*
G36*
X0229500Y0296050D02*
X0231231Y0299048D01*
X0231366Y0298970D01*
X0229635Y0295972D01*
X0229500Y0296050D01*
G37*
G36*
X0229636Y0295971D02*
X0231367Y0298969D01*
X0231502Y0298891D01*
X0229771Y0295893D01*
X0229636Y0295971D01*
G37*
G36*
X0229772Y0295892D02*
X0231503Y0298890D01*
X0231638Y0298812D01*
X0229907Y0295814D01*
X0229772Y0295892D01*
G37*
G36*
X0229909Y0295814D02*
X0231640Y0298812D01*
X0231775Y0298734D01*
X0230044Y0295736D01*
X0229909Y0295814D01*
G37*
G36*
X0230045Y0295735D02*
X0231776Y0298733D01*
X0231911Y0298655D01*
X0230180Y0295657D01*
X0230045Y0295735D01*
G37*
G36*
X0238785Y0310873D02*
X0240516Y0313871D01*
X0240651Y0313793D01*
X0238920Y0310795D01*
X0238785Y0310873D01*
G37*
G36*
X0238649Y0310952D02*
X0240380Y0313950D01*
X0240515Y0313872D01*
X0238784Y0310874D01*
X0238649Y0310952D01*
G37*
G36*
X0238513Y0311031D02*
X0240244Y0314029D01*
X0240379Y0313951D01*
X0238648Y0310953D01*
X0238513Y0311031D01*
G37*
G36*
X0238376Y0311110D02*
X0240107Y0314108D01*
X0240242Y0314030D01*
X0238511Y0311032D01*
X0238376Y0311110D01*
G37*
G36*
X0238240Y0311188D02*
X0239971Y0314186D01*
X0240106Y0314108D01*
X0238375Y0311110D01*
X0238240Y0311188D01*
G37*
G36*
X0238103Y0311267D02*
X0239834Y0314265D01*
X0239969Y0314187D01*
X0238238Y0311189D01*
X0238103Y0311267D01*
G37*
G36*
X0237967Y0311346D02*
X0239698Y0314344D01*
X0239833Y0314266D01*
X0238102Y0311268D01*
X0237967Y0311346D01*
G37*
G36*
X0237831Y0311425D02*
X0239562Y0314423D01*
X0239697Y0314345D01*
X0237966Y0311347D01*
X0237831Y0311425D01*
G37*
G36*
X0237694Y0311503D02*
X0239425Y0314501D01*
X0239560Y0314423D01*
X0237829Y0311425D01*
X0237694Y0311503D01*
G37*
G36*
X0237558Y0311582D02*
X0239289Y0314580D01*
X0239424Y0314502D01*
X0237693Y0311504D01*
X0237558Y0311582D01*
G37*
G36*
X0237421Y0311661D02*
X0239152Y0314659D01*
X0239287Y0314581D01*
X0237556Y0311583D01*
X0237421Y0311661D01*
G37*
X0259607Y0245787D03*
X0259607Y0245630D03*
X0259607Y0245472D03*
X0259607Y0245315D03*
X0259607Y0245157D03*
X0259607Y0245000D03*
X0259607Y0244843D03*
X0259607Y0244685D03*
X0259607Y0244528D03*
X0259607Y0244370D03*
X0259607Y0244213D03*
X0272993Y0242953D03*
X0277875Y0243268D03*
X0278032Y0243425D03*
X0278347Y0244213D03*
X0278347Y0244370D03*
X0278347Y0244528D03*
X0278347Y0245315D03*
X0278347Y0245472D03*
X0277875Y0246890D03*
G36*
X0306742Y0296463D02*
X0308473Y0293465D01*
X0308338Y0293387D01*
X0306607Y0296385D01*
X0306742Y0296463D01*
G37*
G36*
X0306878Y0296542D02*
X0308609Y0293544D01*
X0308474Y0293466D01*
X0306743Y0296464D01*
X0306878Y0296542D01*
G37*
G36*
X0307014Y0296620D02*
X0308745Y0293622D01*
X0308610Y0293544D01*
X0306879Y0296542D01*
X0307014Y0296620D01*
G37*
G36*
X0307151Y0296699D02*
X0308882Y0293701D01*
X0308747Y0293623D01*
X0307016Y0296621D01*
X0307151Y0296699D01*
G37*
G36*
X0307287Y0296778D02*
X0309018Y0293780D01*
X0308883Y0293702D01*
X0307152Y0296700D01*
X0307287Y0296778D01*
G37*
G36*
X0307423Y0296856D02*
X0309154Y0293858D01*
X0309019Y0293780D01*
X0307288Y0296778D01*
X0307423Y0296856D01*
G37*
G36*
X0307560Y0296935D02*
X0309291Y0293937D01*
X0309156Y0293859D01*
X0307425Y0296857D01*
X0307560Y0296935D01*
G37*
G36*
X0307696Y0297014D02*
X0309427Y0294016D01*
X0309292Y0293938D01*
X0307561Y0296936D01*
X0307696Y0297014D01*
G37*
G36*
X0307833Y0297093D02*
X0309564Y0294095D01*
X0309429Y0294017D01*
X0307698Y0297015D01*
X0307833Y0297093D01*
G37*
G36*
X0307969Y0297171D02*
X0309700Y0294173D01*
X0309565Y0294095D01*
X0307834Y0297093D01*
X0307969Y0297171D01*
G37*
G36*
X0308105Y0297250D02*
X0309836Y0294252D01*
X0309701Y0294174D01*
X0307970Y0297172D01*
X0308105Y0297250D01*
G37*
G36*
X0302503Y0309473D02*
X0304234Y0306475D01*
X0304099Y0306397D01*
X0302368Y0309395D01*
X0302503Y0309473D01*
G37*
G36*
X0299438Y0313522D02*
X0301169Y0310524D01*
X0301034Y0310446D01*
X0299303Y0313444D01*
X0299438Y0313522D01*
G37*
G36*
X0298735Y0313480D02*
X0300466Y0310482D01*
X0300331Y0310404D01*
X0298600Y0313402D01*
X0298735Y0313480D01*
G37*
G36*
X0298599Y0313401D02*
X0300330Y0310403D01*
X0300195Y0310325D01*
X0298464Y0313323D01*
X0298599Y0313401D01*
G37*
G36*
X0298462Y0313322D02*
X0300193Y0310324D01*
X0300058Y0310246D01*
X0298327Y0313244D01*
X0298462Y0313322D01*
G37*
G36*
X0298326Y0313243D02*
X0300057Y0310245D01*
X0299922Y0310167D01*
X0298191Y0313165D01*
X0298326Y0313243D01*
G37*
G36*
X0298950Y0313422D02*
X0300681Y0310424D01*
X0300546Y0310346D01*
X0298815Y0313344D01*
X0298950Y0313422D01*
G37*
G36*
X0299087Y0313501D02*
X0300818Y0310503D01*
X0300683Y0310425D01*
X0298952Y0313423D01*
X0299087Y0313501D01*
G37*
G36*
X0299223Y0313579D02*
X0300954Y0310581D01*
X0300819Y0310503D01*
X0299088Y0313501D01*
X0299223Y0313579D01*
G37*
D35*
G36*
X0301555Y0307652D02*
X0301869Y0307108D01*
X0301733Y0307030D01*
X0301419Y0307574D01*
X0301555Y0307652D01*
G37*
G36*
X0301418Y0307573D02*
X0301732Y0307029D01*
X0301596Y0306951D01*
X0301282Y0307495D01*
X0301418Y0307573D01*
G37*
G36*
X0300249Y0307080D02*
X0300563Y0306536D01*
X0300427Y0306458D01*
X0300113Y0307002D01*
X0300249Y0307080D01*
G37*
G36*
X0300055Y0306786D02*
X0300369Y0306242D01*
X0300233Y0306164D01*
X0299919Y0306708D01*
X0300055Y0306786D01*
G37*
G36*
X0301084Y0303743D02*
X0301398Y0303199D01*
X0301262Y0303121D01*
X0300948Y0303665D01*
X0301084Y0303743D01*
G37*
G36*
X0302165Y0302186D02*
X0302479Y0301642D01*
X0302343Y0301564D01*
X0302029Y0302108D01*
X0302165Y0302186D01*
G37*
G36*
X0302302Y0302264D02*
X0302616Y0301720D01*
X0302480Y0301642D01*
X0302166Y0302186D01*
X0302302Y0302264D01*
G37*
G36*
X0304562Y0303388D02*
X0304876Y0302844D01*
X0304740Y0302766D01*
X0304426Y0303310D01*
X0304562Y0303388D01*
G37*
G36*
X0306216Y0300524D02*
X0306530Y0299980D01*
X0306394Y0299902D01*
X0306080Y0300446D01*
X0306216Y0300524D01*
G37*
G36*
X0306080Y0300445D02*
X0306394Y0299901D01*
X0306258Y0299823D01*
X0305944Y0300367D01*
X0306080Y0300445D01*
G37*
G36*
X0305885Y0300151D02*
X0306199Y0299607D01*
X0306063Y0299529D01*
X0305749Y0300073D01*
X0305885Y0300151D01*
G37*
G36*
X0305749Y0300072D02*
X0306063Y0299528D01*
X0305927Y0299450D01*
X0305613Y0299994D01*
X0305749Y0300072D01*
G37*
G36*
X0305613Y0299994D02*
X0305927Y0299450D01*
X0305791Y0299372D01*
X0305477Y0299916D01*
X0305613Y0299994D01*
G37*
G36*
X0304443Y0299500D02*
X0304757Y0298956D01*
X0304621Y0298878D01*
X0304307Y0299422D01*
X0304443Y0299500D01*
G37*
G36*
X0306364Y0298063D02*
X0306678Y0297519D01*
X0306542Y0297441D01*
X0306228Y0297985D01*
X0306364Y0298063D01*
G37*
X0270158Y0247047D03*
X0268269Y0246890D03*
X0268269Y0246732D03*
X0268111Y0244213D03*
X0264804Y0244213D03*
X0264804Y0244370D03*
X0264647Y0244685D03*
X0264647Y0244843D03*
X0264647Y0245000D03*
X0264804Y0246260D03*
X0262599Y0245315D03*
G36*
X0235981Y0304127D02*
X0236295Y0304671D01*
X0236431Y0304593D01*
X0236117Y0304049D01*
X0235981Y0304127D01*
G37*
G36*
X0234014Y0305444D02*
X0234328Y0305988D01*
X0234464Y0305910D01*
X0234150Y0305366D01*
X0234014Y0305444D01*
G37*
G36*
X0233877Y0305523D02*
X0234191Y0306067D01*
X0234327Y0305989D01*
X0234013Y0305445D01*
X0233877Y0305523D01*
G37*
G36*
X0235531Y0308387D02*
X0235845Y0308931D01*
X0235981Y0308853D01*
X0235667Y0308309D01*
X0235531Y0308387D01*
G37*
G36*
X0235746Y0308445D02*
X0236060Y0308989D01*
X0236196Y0308911D01*
X0235882Y0308367D01*
X0235746Y0308445D01*
G37*
G36*
X0235883Y0308366D02*
X0236197Y0308910D01*
X0236333Y0308832D01*
X0236019Y0308288D01*
X0235883Y0308366D01*
G37*
G36*
X0236019Y0308287D02*
X0236333Y0308831D01*
X0236469Y0308753D01*
X0236155Y0308209D01*
X0236019Y0308287D01*
G37*
G36*
X0236292Y0308130D02*
X0236606Y0308674D01*
X0236742Y0308596D01*
X0236428Y0308052D01*
X0236292Y0308130D01*
G37*
G36*
X0236428Y0308051D02*
X0236742Y0308595D01*
X0236878Y0308517D01*
X0236564Y0307973D01*
X0236428Y0308051D01*
G37*
G36*
X0237304Y0307364D02*
X0237618Y0307908D01*
X0237754Y0307830D01*
X0237440Y0307286D01*
X0237304Y0307364D01*
G37*
G36*
X0237588Y0309745D02*
X0237902Y0310289D01*
X0238038Y0310211D01*
X0237724Y0309667D01*
X0237588Y0309745D01*
G37*
D36*
G36*
X0236459Y0306215D02*
X0236615Y0306485D01*
X0236751Y0306407D01*
X0236595Y0306137D01*
X0236459Y0306215D01*
G37*
G36*
X0233782Y0301578D02*
X0233938Y0301848D01*
X0234074Y0301770D01*
X0233918Y0301500D01*
X0233782Y0301578D01*
G37*
G36*
X0232964Y0302051D02*
X0233120Y0302321D01*
X0233256Y0302243D01*
X0233100Y0301973D01*
X0232964Y0302051D01*
G37*
G36*
X0232303Y0302796D02*
X0232459Y0303066D01*
X0232595Y0302988D01*
X0232439Y0302718D01*
X0232303Y0302796D01*
G37*
X0264804Y0245787D03*
X0264804Y0245630D03*
X0264804Y0245472D03*
X0266536Y0246102D03*
X0270158Y0246417D03*
X0270158Y0246575D03*
X0270158Y0246732D03*
X0270158Y0246890D03*
X0271733Y0246102D03*
X0271733Y0245157D03*
X0271418Y0244213D03*
X0273466Y0245787D03*
X0275198Y0243898D03*
G36*
X0304931Y0299599D02*
X0305087Y0299329D01*
X0304951Y0299251D01*
X0304795Y0299521D01*
X0304931Y0299599D01*
G37*
G36*
X0305067Y0299678D02*
X0305223Y0299408D01*
X0305087Y0299330D01*
X0304931Y0299600D01*
X0305067Y0299678D01*
G37*
G36*
X0305204Y0299757D02*
X0305360Y0299487D01*
X0305224Y0299409D01*
X0305068Y0299679D01*
X0305204Y0299757D01*
G37*
G36*
X0303792Y0300942D02*
X0303948Y0300672D01*
X0303812Y0300594D01*
X0303656Y0300864D01*
X0303792Y0300942D01*
G37*
G36*
X0301708Y0303921D02*
X0301864Y0303651D01*
X0301728Y0303573D01*
X0301572Y0303843D01*
X0301708Y0303921D01*
G37*
G36*
X0301572Y0303843D02*
X0301728Y0303573D01*
X0301592Y0303495D01*
X0301436Y0303765D01*
X0301572Y0303843D01*
G37*
G36*
X0301436Y0303764D02*
X0301592Y0303494D01*
X0301456Y0303416D01*
X0301300Y0303686D01*
X0301436Y0303764D01*
G37*
G36*
X0301299Y0303685D02*
X0301455Y0303415D01*
X0301319Y0303337D01*
X0301163Y0303607D01*
X0301299Y0303685D01*
G37*
G36*
X0301194Y0305443D02*
X0301350Y0305173D01*
X0301214Y0305095D01*
X0301058Y0305365D01*
X0301194Y0305443D01*
G37*
G36*
X0302012Y0305915D02*
X0302168Y0305645D01*
X0302032Y0305567D01*
X0301876Y0305837D01*
X0302012Y0305915D01*
G37*
G36*
X0302988Y0306115D02*
X0303144Y0305845D01*
X0303008Y0305767D01*
X0302852Y0306037D01*
X0302988Y0306115D01*
G37*
D37*
G36*
X0301844Y0304001D02*
X0302079Y0303593D01*
X0301944Y0303515D01*
X0301709Y0303923D01*
X0301844Y0304001D01*
G37*
G36*
X0300532Y0304698D02*
X0300767Y0304290D01*
X0300632Y0304212D01*
X0300397Y0304620D01*
X0300532Y0304698D01*
G37*
G36*
X0299997Y0306571D02*
X0300232Y0306163D01*
X0300097Y0306085D01*
X0299862Y0306493D01*
X0299997Y0306571D01*
G37*
G36*
X0300191Y0306865D02*
X0300426Y0306457D01*
X0300291Y0306379D01*
X0300056Y0306787D01*
X0300191Y0306865D01*
G37*
G36*
X0302789Y0302364D02*
X0303024Y0301956D01*
X0302889Y0301878D01*
X0302654Y0302286D01*
X0302789Y0302364D01*
G37*
G36*
X0302925Y0302443D02*
X0303160Y0302035D01*
X0303025Y0301957D01*
X0302790Y0302365D01*
X0302925Y0302443D01*
G37*
G36*
X0303062Y0302522D02*
X0303297Y0302114D01*
X0303162Y0302036D01*
X0302927Y0302444D01*
X0303062Y0302522D01*
G37*
G36*
X0303198Y0302601D02*
X0303433Y0302193D01*
X0303298Y0302115D01*
X0303063Y0302523D01*
X0303198Y0302601D01*
G37*
G36*
X0303335Y0302679D02*
X0303570Y0302271D01*
X0303435Y0302193D01*
X0303200Y0302601D01*
X0303335Y0302679D01*
G37*
G36*
X0303471Y0302758D02*
X0303706Y0302350D01*
X0303571Y0302272D01*
X0303336Y0302680D01*
X0303471Y0302758D01*
G37*
G36*
X0303607Y0302837D02*
X0303842Y0302429D01*
X0303707Y0302351D01*
X0303472Y0302759D01*
X0303607Y0302837D01*
G37*
G36*
X0303744Y0302916D02*
X0303979Y0302508D01*
X0303844Y0302430D01*
X0303609Y0302838D01*
X0303744Y0302916D01*
G37*
G36*
X0303880Y0302994D02*
X0304115Y0302586D01*
X0303980Y0302508D01*
X0303745Y0302916D01*
X0303880Y0302994D01*
G37*
G36*
X0304016Y0303073D02*
X0304251Y0302665D01*
X0304116Y0302587D01*
X0303881Y0302995D01*
X0304016Y0303073D01*
G37*
G36*
X0304153Y0303152D02*
X0304388Y0302744D01*
X0304253Y0302666D01*
X0304018Y0303074D01*
X0304153Y0303152D01*
G37*
G36*
X0304289Y0303231D02*
X0304524Y0302823D01*
X0304389Y0302745D01*
X0304154Y0303153D01*
X0304289Y0303231D01*
G37*
G36*
X0304426Y0303309D02*
X0304661Y0302901D01*
X0304526Y0302823D01*
X0304291Y0303231D01*
X0304426Y0303309D01*
G37*
G36*
X0302653Y0302286D02*
X0302888Y0301878D01*
X0302753Y0301800D01*
X0302518Y0302208D01*
X0302653Y0302286D01*
G37*
G36*
X0302516Y0302207D02*
X0302751Y0301799D01*
X0302616Y0301721D01*
X0302381Y0302129D01*
X0302516Y0302207D01*
G37*
G36*
X0302737Y0300880D02*
X0302972Y0300472D01*
X0302837Y0300394D01*
X0302602Y0300802D01*
X0302737Y0300880D01*
G37*
G36*
X0304579Y0299579D02*
X0304814Y0299171D01*
X0304679Y0299093D01*
X0304444Y0299501D01*
X0304579Y0299579D01*
G37*
G36*
X0304715Y0299658D02*
X0304950Y0299250D01*
X0304815Y0299172D01*
X0304580Y0299580D01*
X0304715Y0299658D01*
G37*
G36*
X0305340Y0299836D02*
X0305575Y0299428D01*
X0305440Y0299350D01*
X0305205Y0299758D01*
X0305340Y0299836D01*
G37*
G36*
X0305476Y0299915D02*
X0305711Y0299507D01*
X0305576Y0299429D01*
X0305341Y0299837D01*
X0305476Y0299915D01*
G37*
G36*
X0306022Y0300230D02*
X0306257Y0299822D01*
X0306122Y0299744D01*
X0305887Y0300152D01*
X0306022Y0300230D01*
G37*
G36*
X0306987Y0298242D02*
X0307222Y0297834D01*
X0307087Y0297756D01*
X0306852Y0298164D01*
X0306987Y0298242D01*
G37*
G36*
X0306851Y0298163D02*
X0307086Y0297755D01*
X0306951Y0297677D01*
X0306716Y0298085D01*
X0306851Y0298163D01*
G37*
G36*
X0306715Y0298085D02*
X0306950Y0297677D01*
X0306815Y0297599D01*
X0306580Y0298007D01*
X0306715Y0298085D01*
G37*
G36*
X0306578Y0298006D02*
X0306813Y0297598D01*
X0306678Y0297520D01*
X0306443Y0297928D01*
X0306578Y0298006D01*
G37*
G36*
X0312393Y0315594D02*
X0312628Y0315186D01*
X0312493Y0315108D01*
X0312258Y0315516D01*
X0312393Y0315594D01*
G37*
X0273387Y0246260D03*
X0273387Y0246102D03*
X0273387Y0245945D03*
X0273544Y0245630D03*
X0271340Y0247047D03*
X0270080Y0246260D03*
X0268190Y0246260D03*
X0268190Y0246417D03*
X0268190Y0246575D03*
X0268190Y0246102D03*
X0268190Y0245945D03*
X0268190Y0245787D03*
X0268190Y0245630D03*
X0268190Y0245472D03*
X0268190Y0245315D03*
X0268190Y0245157D03*
X0268190Y0245000D03*
X0268190Y0244843D03*
X0268190Y0244685D03*
X0268190Y0244528D03*
X0268190Y0244370D03*
X0266930Y0247047D03*
X0264883Y0246102D03*
X0264883Y0245945D03*
X0264725Y0245315D03*
X0264725Y0245157D03*
X0264725Y0244528D03*
X0262521Y0244685D03*
X0262521Y0244843D03*
X0262521Y0245000D03*
X0262521Y0245157D03*
X0280099Y0234610D03*
G36*
X0234758Y0301378D02*
X0234993Y0301786D01*
X0235128Y0301708D01*
X0234893Y0301300D01*
X0234758Y0301378D01*
G37*
G36*
X0235388Y0302469D02*
X0235623Y0302877D01*
X0235758Y0302799D01*
X0235523Y0302391D01*
X0235388Y0302469D01*
G37*
G36*
X0235252Y0302548D02*
X0235487Y0302956D01*
X0235622Y0302878D01*
X0235387Y0302470D01*
X0235252Y0302548D01*
G37*
G36*
X0235115Y0302626D02*
X0235350Y0303034D01*
X0235485Y0302956D01*
X0235250Y0302548D01*
X0235115Y0302626D01*
G37*
G36*
X0234979Y0302705D02*
X0235214Y0303113D01*
X0235349Y0303035D01*
X0235114Y0302627D01*
X0234979Y0302705D01*
G37*
G36*
X0234843Y0302784D02*
X0235078Y0303192D01*
X0235213Y0303114D01*
X0234978Y0302706D01*
X0234843Y0302784D01*
G37*
G36*
X0234706Y0302863D02*
X0234941Y0303271D01*
X0235076Y0303193D01*
X0234841Y0302785D01*
X0234706Y0302863D01*
G37*
G36*
X0235651Y0304499D02*
X0235886Y0304907D01*
X0236021Y0304829D01*
X0235786Y0304421D01*
X0235651Y0304499D01*
G37*
G36*
X0235515Y0304578D02*
X0235750Y0304986D01*
X0235885Y0304908D01*
X0235650Y0304500D01*
X0235515Y0304578D01*
G37*
G36*
X0235378Y0304657D02*
X0235613Y0305065D01*
X0235748Y0304987D01*
X0235513Y0304579D01*
X0235378Y0304657D01*
G37*
G36*
X0235242Y0304736D02*
X0235477Y0305144D01*
X0235612Y0305066D01*
X0235377Y0304658D01*
X0235242Y0304736D01*
G37*
G36*
X0235106Y0304814D02*
X0235341Y0305222D01*
X0235476Y0305144D01*
X0235241Y0304736D01*
X0235106Y0304814D01*
G37*
G36*
X0234969Y0304893D02*
X0235204Y0305301D01*
X0235339Y0305223D01*
X0235104Y0304815D01*
X0234969Y0304893D01*
G37*
G36*
X0234833Y0304972D02*
X0235068Y0305380D01*
X0235203Y0305302D01*
X0234968Y0304894D01*
X0234833Y0304972D01*
G37*
G36*
X0234696Y0305050D02*
X0234931Y0305458D01*
X0235066Y0305380D01*
X0234831Y0304972D01*
X0234696Y0305050D01*
G37*
G36*
X0234560Y0305129D02*
X0234795Y0305537D01*
X0234930Y0305459D01*
X0234695Y0305051D01*
X0234560Y0305129D01*
G37*
G36*
X0234424Y0305208D02*
X0234659Y0305616D01*
X0234794Y0305538D01*
X0234559Y0305130D01*
X0234424Y0305208D01*
G37*
G36*
X0234287Y0305287D02*
X0234522Y0305695D01*
X0234657Y0305617D01*
X0234422Y0305209D01*
X0234287Y0305287D01*
G37*
G36*
X0234151Y0305365D02*
X0234386Y0305773D01*
X0234521Y0305695D01*
X0234286Y0305287D01*
X0234151Y0305365D01*
G37*
G36*
X0235787Y0304421D02*
X0236022Y0304829D01*
X0236157Y0304751D01*
X0235922Y0304343D01*
X0235787Y0304421D01*
G37*
G36*
X0235924Y0304342D02*
X0236159Y0304750D01*
X0236294Y0304672D01*
X0236059Y0304264D01*
X0235924Y0304342D01*
G37*
G36*
X0237042Y0305333D02*
X0237277Y0305741D01*
X0237412Y0305663D01*
X0237177Y0305255D01*
X0237042Y0305333D01*
G37*
G36*
X0237247Y0307578D02*
X0237482Y0307986D01*
X0237617Y0307908D01*
X0237382Y0307500D01*
X0237247Y0307578D01*
G37*
G36*
X0237111Y0307657D02*
X0237346Y0308065D01*
X0237481Y0307987D01*
X0237246Y0307579D01*
X0237111Y0307657D01*
G37*
G36*
X0236974Y0307736D02*
X0237209Y0308144D01*
X0237344Y0308066D01*
X0237109Y0307658D01*
X0236974Y0307736D01*
G37*
G36*
X0236838Y0307815D02*
X0237073Y0308223D01*
X0237208Y0308145D01*
X0236973Y0307737D01*
X0236838Y0307815D01*
G37*
G36*
X0236701Y0307893D02*
X0236936Y0308301D01*
X0237071Y0308223D01*
X0236836Y0307815D01*
X0236701Y0307893D01*
G37*
G36*
X0236565Y0307972D02*
X0236800Y0308380D01*
X0236935Y0308302D01*
X0236700Y0307894D01*
X0236565Y0307972D01*
G37*
G36*
X0237531Y0309960D02*
X0237766Y0310368D01*
X0237901Y0310290D01*
X0237666Y0309882D01*
X0237531Y0309960D01*
G37*
G36*
X0237395Y0310039D02*
X0237630Y0310447D01*
X0237765Y0310369D01*
X0237530Y0309961D01*
X0237395Y0310039D01*
G37*
G36*
X0237258Y0310118D02*
X0237493Y0310526D01*
X0237628Y0310448D01*
X0237393Y0310040D01*
X0237258Y0310118D01*
G37*
G36*
X0237122Y0310196D02*
X0237357Y0310604D01*
X0237492Y0310526D01*
X0237257Y0310118D01*
X0237122Y0310196D01*
G37*
G36*
X0221031Y0308094D02*
X0221266Y0308502D01*
X0221401Y0308424D01*
X0221166Y0308016D01*
X0221031Y0308094D01*
G37*
D38*
G36*
X0220816Y0308037D02*
X0221208Y0308717D01*
X0221344Y0308639D01*
X0220952Y0307959D01*
X0220816Y0308037D01*
G37*
G36*
X0218907Y0309139D02*
X0219299Y0309819D01*
X0219435Y0309741D01*
X0219043Y0309061D01*
X0218907Y0309139D01*
G37*
G36*
X0218770Y0309218D02*
X0219162Y0309898D01*
X0219298Y0309820D01*
X0218906Y0309140D01*
X0218770Y0309218D01*
G37*
G36*
X0231631Y0301002D02*
X0232023Y0301682D01*
X0232159Y0301604D01*
X0231767Y0300924D01*
X0231631Y0301002D01*
G37*
G36*
X0231689Y0300786D02*
X0232081Y0301466D01*
X0232217Y0301388D01*
X0231825Y0300708D01*
X0231689Y0300786D01*
G37*
G36*
X0233022Y0301835D02*
X0233414Y0302515D01*
X0233550Y0302437D01*
X0233158Y0301757D01*
X0233022Y0301835D01*
G37*
G36*
X0233567Y0301520D02*
X0233959Y0302200D01*
X0234095Y0302122D01*
X0233703Y0301442D01*
X0233567Y0301520D01*
G37*
G36*
X0236118Y0304048D02*
X0236510Y0304728D01*
X0236646Y0304650D01*
X0236254Y0303970D01*
X0236118Y0304048D01*
G37*
G36*
X0236165Y0306021D02*
X0236557Y0306701D01*
X0236693Y0306623D01*
X0236301Y0305943D01*
X0236165Y0306021D01*
G37*
G36*
X0237441Y0307285D02*
X0237833Y0307965D01*
X0237969Y0307887D01*
X0237577Y0307207D01*
X0237441Y0307285D01*
G37*
G36*
X0236156Y0308209D02*
X0236548Y0308889D01*
X0236684Y0308811D01*
X0236292Y0308131D01*
X0236156Y0308209D01*
G37*
X0264883Y0246417D03*
X0266458Y0245945D03*
X0271812Y0245945D03*
X0271812Y0245315D03*
X0273387Y0246417D03*
X0273387Y0246575D03*
X0280099Y0237130D03*
X0280099Y0236972D03*
X0280099Y0234768D03*
G36*
X0304228Y0299558D02*
X0304620Y0298878D01*
X0304484Y0298800D01*
X0304092Y0299480D01*
X0304228Y0299558D01*
G37*
G36*
X0303850Y0301158D02*
X0304242Y0300478D01*
X0304106Y0300400D01*
X0303714Y0301080D01*
X0303850Y0301158D01*
G37*
G36*
X0301173Y0305795D02*
X0301565Y0305115D01*
X0301429Y0305037D01*
X0301037Y0305717D01*
X0301173Y0305795D01*
G37*
G36*
X0301718Y0306110D02*
X0302110Y0305430D01*
X0301974Y0305352D01*
X0301582Y0306032D01*
X0301718Y0306110D01*
G37*
G36*
X0301692Y0307731D02*
X0302084Y0307051D01*
X0301948Y0306973D01*
X0301556Y0307653D01*
X0301692Y0307731D01*
G37*
G36*
X0300364Y0307510D02*
X0300756Y0306830D01*
X0300620Y0306752D01*
X0300228Y0307432D01*
X0300364Y0307510D01*
G37*
G36*
X0300307Y0307295D02*
X0300699Y0306615D01*
X0300563Y0306537D01*
X0300171Y0307217D01*
X0300307Y0307295D01*
G37*
G36*
X0299782Y0306628D02*
X0300174Y0305948D01*
X0300038Y0305870D01*
X0299646Y0306550D01*
X0299782Y0306628D01*
G37*
G36*
X0301156Y0309604D02*
X0301548Y0308924D01*
X0301412Y0308846D01*
X0301020Y0309526D01*
X0301156Y0309604D01*
G37*
G36*
X0312451Y0315809D02*
X0312843Y0315129D01*
X0312707Y0315051D01*
X0312315Y0315731D01*
X0312451Y0315809D01*
G37*
G36*
X0314361Y0316911D02*
X0314753Y0316231D01*
X0314617Y0316153D01*
X0314225Y0316833D01*
X0314361Y0316911D01*
G37*
G36*
X0314497Y0316990D02*
X0314889Y0316310D01*
X0314753Y0316232D01*
X0314361Y0316912D01*
X0314497Y0316990D01*
G37*
D39*
G36*
X0301964Y0307888D02*
X0302671Y0306662D01*
X0302536Y0306584D01*
X0301829Y0307810D01*
X0301964Y0307888D01*
G37*
G36*
X0305697Y0298588D02*
X0306404Y0297362D01*
X0306269Y0297284D01*
X0305562Y0298510D01*
X0305697Y0298588D01*
G37*
G36*
X0305561Y0298509D02*
X0306268Y0297283D01*
X0306133Y0297205D01*
X0305426Y0298431D01*
X0305561Y0298509D01*
G37*
X0262993Y0245787D03*
X0262993Y0245630D03*
G36*
X0232796Y0299238D02*
X0233503Y0300464D01*
X0233638Y0300386D01*
X0232931Y0299160D01*
X0232796Y0299238D01*
G37*
G36*
X0232659Y0299317D02*
X0233366Y0300543D01*
X0233501Y0300465D01*
X0232794Y0299239D01*
X0232659Y0299317D01*
G37*
G36*
X0231568Y0299947D02*
X0232275Y0301173D01*
X0232410Y0301095D01*
X0231703Y0299869D01*
X0231568Y0299947D01*
G37*
G36*
X0231432Y0300026D02*
X0232139Y0301252D01*
X0232274Y0301174D01*
X0231567Y0299948D01*
X0231432Y0300026D01*
G37*
D40*
G36*
X0232931Y0299160D02*
X0233717Y0300522D01*
X0233853Y0300444D01*
X0233067Y0299082D01*
X0232931Y0299160D01*
G37*
G36*
X0237614Y0306640D02*
X0238400Y0308002D01*
X0238536Y0307924D01*
X0237750Y0306562D01*
X0237614Y0306640D01*
G37*
X0264804Y0246890D03*
X0273308Y0246890D03*
X0273938Y0245157D03*
X0273938Y0245000D03*
X0273308Y0244370D03*
G36*
X0303661Y0299594D02*
X0304447Y0298232D01*
X0304311Y0298154D01*
X0303525Y0299516D01*
X0303661Y0299594D01*
G37*
G36*
X0299431Y0306607D02*
X0300217Y0305245D01*
X0300081Y0305167D01*
X0299295Y0306529D01*
X0299431Y0306607D01*
G37*
G36*
X0300458Y0308292D02*
X0301244Y0306930D01*
X0301108Y0306852D01*
X0300322Y0308214D01*
X0300458Y0308292D01*
G37*
D41*
X0274017Y0245315D03*
X0273859Y0244843D03*
X0273859Y0244685D03*
X0273072Y0244213D03*
G36*
X0233068Y0299081D02*
X0233933Y0300579D01*
X0234068Y0300501D01*
X0233203Y0299003D01*
X0233068Y0299081D01*
G37*
D42*
G36*
X0236906Y0305412D02*
X0236984Y0305546D01*
X0237118Y0305468D01*
X0237040Y0305334D01*
X0236906Y0305412D01*
G37*
G36*
X0218792Y0309570D02*
X0218870Y0309704D01*
X0219004Y0309626D01*
X0218926Y0309492D01*
X0218792Y0309570D01*
G37*
G36*
X0302951Y0300821D02*
X0303029Y0300687D01*
X0302895Y0300609D01*
X0302817Y0300743D01*
X0302951Y0300821D01*
G37*
G36*
X0314790Y0316796D02*
X0314868Y0316662D01*
X0314734Y0316584D01*
X0314656Y0316718D01*
X0314790Y0316796D01*
G37*
D43*
G36*
X0317806Y0308349D02*
X0318750Y0306713D01*
X0318614Y0306635D01*
X0317670Y0308271D01*
X0317806Y0308349D01*
G37*
G36*
X0300437Y0308644D02*
X0301381Y0307008D01*
X0301245Y0306930D01*
X0300301Y0308566D01*
X0300437Y0308644D01*
G37*
X0257678Y0235528D03*
G36*
X0233204Y0299002D02*
X0234148Y0300638D01*
X0234284Y0300560D01*
X0233340Y0298924D01*
X0233204Y0299002D01*
G37*
G36*
X0223988Y0317257D02*
X0224932Y0318893D01*
X0225068Y0318815D01*
X0224124Y0317179D01*
X0223988Y0317257D01*
G37*
D44*
G36*
X0224183Y0316963D02*
X0225284Y0318871D01*
X0225419Y0318793D01*
X0224318Y0316885D01*
X0224183Y0316963D01*
G37*
G36*
X0224319Y0316885D02*
X0225420Y0318793D01*
X0225555Y0318715D01*
X0224454Y0316807D01*
X0224319Y0316885D01*
G37*
G36*
X0224456Y0316806D02*
X0225557Y0318714D01*
X0225692Y0318636D01*
X0224591Y0316728D01*
X0224456Y0316806D01*
G37*
G36*
X0237593Y0306288D02*
X0238694Y0308196D01*
X0238829Y0308118D01*
X0237728Y0306210D01*
X0237593Y0306288D01*
G37*
X0264804Y0247047D03*
X0273308Y0247047D03*
X0274410Y0245472D03*
X0257678Y0235213D03*
X0257678Y0235055D03*
X0257678Y0234898D03*
G36*
X0303367Y0299788D02*
X0304468Y0297880D01*
X0304333Y0297802D01*
X0303232Y0299710D01*
X0303367Y0299788D01*
G37*
G36*
X0317181Y0308170D02*
X0318282Y0306262D01*
X0318147Y0306184D01*
X0317046Y0308092D01*
X0317181Y0308170D01*
G37*
G36*
X0317318Y0308248D02*
X0318419Y0306340D01*
X0318284Y0306262D01*
X0317183Y0308170D01*
X0317318Y0308248D01*
G37*
G36*
X0317454Y0308327D02*
X0318555Y0306419D01*
X0318420Y0306341D01*
X0317319Y0308249D01*
X0317454Y0308327D01*
G37*
D45*
G36*
X0231666Y0295707D02*
X0241350Y0312481D01*
X0241486Y0312403D01*
X0231802Y0295629D01*
X0231666Y0295707D01*
G37*
D46*
X0268977Y0248150D03*
X0268977Y0241850D03*
G36*
X0296507Y0309466D02*
X0305246Y0294328D01*
X0305111Y0294250D01*
X0296372Y0309388D01*
X0296507Y0309466D01*
G37*
G36*
X0301962Y0312616D02*
X0310701Y0297478D01*
X0310566Y0297400D01*
X0301827Y0312538D01*
X0301962Y0312616D01*
G37*
D47*
G36*
X0301002Y0313334D02*
X0310843Y0296288D01*
X0310708Y0296210D01*
X0300867Y0313256D01*
X0301002Y0313334D01*
G37*
G36*
X0296365Y0310657D02*
X0306206Y0293611D01*
X0306071Y0293533D01*
X0296230Y0310579D01*
X0296365Y0310657D01*
G37*
X0268977Y0247677D03*
X0268977Y0242323D03*
D48*
X0268977Y0242480D03*
X0268977Y0247520D03*
G36*
X0296422Y0310872D02*
X0306421Y0293552D01*
X0306286Y0293474D01*
X0296287Y0310794D01*
X0296422Y0310872D01*
G37*
G36*
X0300786Y0313392D02*
X0310785Y0296072D01*
X0310650Y0295994D01*
X0300651Y0313314D01*
X0300786Y0313392D01*
G37*
D49*
G36*
X0300572Y0313449D02*
X0310728Y0295857D01*
X0310592Y0295779D01*
X0300436Y0313371D01*
X0300572Y0313449D01*
G37*
G36*
X0296481Y0311087D02*
X0306637Y0293495D01*
X0306501Y0293417D01*
X0296345Y0311009D01*
X0296481Y0311087D01*
G37*
X0268977Y0247362D03*
X0268977Y0242638D03*
D50*
X0275198Y0242795D03*
G36*
X0300356Y0313507D02*
X0304449Y0306417D01*
X0304314Y0306339D01*
X0300221Y0313429D01*
X0300356Y0313507D01*
G37*
D51*
G36*
X0297178Y0312399D02*
X0299460Y0308445D01*
X0299324Y0308367D01*
X0297042Y0312321D01*
X0297178Y0312399D01*
G37*
G36*
X0305517Y0303939D02*
X0307799Y0299985D01*
X0307663Y0299907D01*
X0305381Y0303861D01*
X0305517Y0303939D01*
G37*
X0266143Y0243110D03*
D52*
X0278190Y0244843D03*
X0278190Y0245000D03*
G36*
X0297780Y0312929D02*
X0299669Y0309657D01*
X0299534Y0309579D01*
X0297645Y0312851D01*
X0297780Y0312929D01*
G37*
G36*
X0299926Y0313622D02*
X0301815Y0310350D01*
X0301680Y0310272D01*
X0299791Y0313544D01*
X0299926Y0313622D01*
G37*
D53*
G36*
X0299575Y0313601D02*
X0301385Y0310465D01*
X0301249Y0310387D01*
X0299439Y0313523D01*
X0299575Y0313601D01*
G37*
G36*
X0299790Y0313544D02*
X0301600Y0310408D01*
X0301464Y0310330D01*
X0299654Y0313466D01*
X0299790Y0313544D01*
G37*
G36*
X0298190Y0313165D02*
X0300000Y0310029D01*
X0299864Y0309951D01*
X0298054Y0313087D01*
X0298190Y0313165D01*
G37*
G36*
X0298054Y0313087D02*
X0299864Y0309951D01*
X0299728Y0309873D01*
X0297918Y0313009D01*
X0298054Y0313087D01*
G37*
G36*
X0297917Y0313008D02*
X0299727Y0309872D01*
X0299591Y0309794D01*
X0297781Y0312930D01*
X0297917Y0313008D01*
G37*
X0277639Y0247047D03*
X0278269Y0245157D03*
X0278269Y0244685D03*
X0277796Y0243110D03*
D54*
X0277481Y0242953D03*
X0266458Y0243898D03*
X0266458Y0244055D03*
G36*
X0304699Y0303467D02*
X0306666Y0300059D01*
X0306531Y0299981D01*
X0304564Y0303389D01*
X0304699Y0303467D01*
G37*
G36*
X0304835Y0303545D02*
X0306802Y0300137D01*
X0306667Y0300059D01*
X0304700Y0303467D01*
X0304835Y0303545D01*
G37*
G36*
X0297644Y0312850D02*
X0299611Y0309442D01*
X0299476Y0309364D01*
X0297509Y0312772D01*
X0297644Y0312850D01*
G37*
D55*
G36*
X0300495Y0308858D02*
X0301517Y0307088D01*
X0301381Y0307010D01*
X0300359Y0308780D01*
X0300495Y0308858D01*
G37*
G36*
X0317124Y0307954D02*
X0318146Y0306184D01*
X0318010Y0306106D01*
X0316988Y0307876D01*
X0317124Y0307954D01*
G37*
G36*
X0317670Y0308269D02*
X0318692Y0306499D01*
X0318556Y0306421D01*
X0317534Y0308191D01*
X0317670Y0308269D01*
G37*
X0273859Y0244528D03*
X0257757Y0235370D03*
X0257757Y0234740D03*
G36*
X0224670Y0316864D02*
X0225692Y0318634D01*
X0225828Y0318556D01*
X0224806Y0316786D01*
X0224670Y0316864D01*
G37*
G36*
X0224125Y0317179D02*
X0225147Y0318949D01*
X0225283Y0318871D01*
X0224261Y0317101D01*
X0224125Y0317179D01*
G37*
D56*
X0268977Y0247205D03*
G36*
X0296538Y0311303D02*
X0306852Y0293437D01*
X0306716Y0293359D01*
X0296402Y0311225D01*
X0296538Y0311303D01*
G37*
D57*
X0296107Y0353850D03*
X0256107Y0353850D03*
X0246107Y0354445D03*
X0246107Y0351768D03*
X0244847Y0350193D03*
X0266930Y0246890D03*
X0280099Y0237287D03*
X0283430Y0225713D03*
X0283588Y0225713D03*
X0293903Y0226815D03*
X0294060Y0225398D03*
X0253430Y0222535D03*
X0253273Y0223795D03*
X0244690Y0225528D03*
D58*
X0231103Y0242181D03*
X0229450Y0242181D03*
X0229308Y0246138D03*
X0233245Y0246138D03*
X0224489Y0237693D03*
X0223603Y0233181D03*
X0221714Y0233181D03*
X0219588Y0233181D03*
X0219588Y0235307D03*
X0216280Y0233181D03*
X0214627Y0233181D03*
X0214627Y0228929D03*
X0216280Y0228929D03*
X0219588Y0228929D03*
X0223603Y0228929D03*
X0226674Y0228929D03*
X0219056Y0239346D03*
X0219056Y0240764D03*
X0216458Y0243598D03*
X0213151Y0242181D03*
X0213151Y0237929D03*
X0209430Y0235307D03*
X0208426Y0237929D03*
X0206773Y0237929D03*
X0206773Y0242181D03*
X0208426Y0242181D03*
X0207851Y0246138D03*
X0205489Y0246138D03*
X0215528Y0247122D03*
X0223206Y0246138D03*
X0209430Y0228929D03*
X0266328Y0337638D03*
X0266328Y0338622D03*
X0266328Y0339606D03*
X0271249Y0339606D03*
D59*
X0226674Y0235071D03*
D60*
X0226674Y0233654D03*
X0226674Y0233417D03*
X0226674Y0233181D03*
X0226674Y0232945D03*
X0226674Y0232709D03*
X0226674Y0232472D03*
X0226674Y0232236D03*
X0226674Y0232000D03*
X0226674Y0231764D03*
X0226674Y0231528D03*
X0226674Y0231291D03*
X0226674Y0231055D03*
X0226674Y0230819D03*
X0226674Y0230583D03*
X0226674Y0230346D03*
X0226674Y0230110D03*
X0226674Y0229874D03*
X0226674Y0229638D03*
X0226674Y0229402D03*
X0226674Y0229165D03*
X0223367Y0231764D03*
X0219588Y0231764D03*
X0219588Y0232000D03*
X0219588Y0232236D03*
X0219588Y0232472D03*
X0219588Y0232709D03*
X0219588Y0232945D03*
X0219588Y0234362D03*
X0219588Y0234598D03*
X0219588Y0234835D03*
X0219588Y0235071D03*
X0219588Y0231528D03*
X0219588Y0231291D03*
X0219588Y0231055D03*
X0219588Y0230819D03*
X0219588Y0230583D03*
X0219588Y0230346D03*
X0219588Y0230110D03*
X0219588Y0229874D03*
X0219588Y0229638D03*
X0219588Y0229402D03*
X0219588Y0229165D03*
X0217462Y0230583D03*
X0217698Y0231055D03*
X0217462Y0231528D03*
X0214627Y0231291D03*
X0214627Y0231055D03*
X0214627Y0230819D03*
X0212501Y0230819D03*
X0212501Y0231055D03*
X0212501Y0231291D03*
X0209430Y0231291D03*
X0209430Y0231055D03*
X0209430Y0230819D03*
X0209430Y0233181D03*
X0209430Y0233417D03*
X0209430Y0233654D03*
X0209430Y0233890D03*
X0209430Y0234126D03*
X0209430Y0234362D03*
X0209430Y0234598D03*
X0209430Y0234835D03*
X0209607Y0239583D03*
X0209607Y0239819D03*
X0209607Y0240291D03*
X0209607Y0240528D03*
X0206773Y0240528D03*
X0206773Y0240291D03*
X0206773Y0240055D03*
X0206773Y0239819D03*
X0206773Y0239583D03*
X0204410Y0239346D03*
X0213151Y0239346D03*
X0213151Y0239110D03*
X0213151Y0238874D03*
X0213151Y0238638D03*
X0213151Y0238402D03*
X0213151Y0238165D03*
X0213151Y0239583D03*
X0213151Y0239819D03*
X0213151Y0240055D03*
X0213151Y0240291D03*
X0213151Y0240528D03*
X0216458Y0240528D03*
X0216458Y0240291D03*
X0216458Y0240055D03*
X0216458Y0239819D03*
X0216458Y0239583D03*
X0216458Y0239346D03*
X0216458Y0242417D03*
X0216458Y0242654D03*
X0216458Y0242890D03*
X0216458Y0243126D03*
X0216458Y0243362D03*
X0221418Y0240291D03*
X0221418Y0240055D03*
X0221418Y0239819D03*
X0223308Y0240528D03*
X0223308Y0240764D03*
X0226143Y0240528D03*
X0226143Y0239346D03*
X0228269Y0239819D03*
X0228269Y0240055D03*
X0228269Y0240291D03*
X0228269Y0240528D03*
X0231103Y0240528D03*
X0231103Y0240291D03*
X0231103Y0240055D03*
X0231103Y0239819D03*
X0231103Y0237929D03*
X0231103Y0237693D03*
X0231103Y0237457D03*
X0231103Y0237220D03*
X0231103Y0236984D03*
X0231103Y0236748D03*
X0231103Y0236512D03*
X0233229Y0239346D03*
X0233229Y0239583D03*
X0233229Y0239819D03*
X0233229Y0240055D03*
X0236064Y0239346D03*
X0236064Y0241945D03*
X0236064Y0242181D03*
X0236064Y0242417D03*
X0234647Y0244071D03*
D61*
X0203820Y0237929D03*
X0204528Y0239583D03*
X0204528Y0239819D03*
X0204528Y0240055D03*
X0204528Y0240291D03*
X0204528Y0240528D03*
X0204528Y0240764D03*
X0204528Y0241000D03*
X0204528Y0241236D03*
X0204528Y0241472D03*
X0204528Y0241709D03*
X0204528Y0241945D03*
X0204528Y0242181D03*
X0204528Y0242417D03*
X0204528Y0242654D03*
X0204528Y0242890D03*
X0204528Y0243126D03*
X0204528Y0243362D03*
X0204528Y0243598D03*
X0204528Y0243835D03*
X0204528Y0244071D03*
X0209725Y0240055D03*
X0211379Y0242181D03*
X0215631Y0237929D03*
X0219706Y0234126D03*
X0217580Y0231291D03*
X0217580Y0230819D03*
X0223485Y0230819D03*
X0223485Y0231055D03*
X0223485Y0231291D03*
X0223485Y0231528D03*
X0223485Y0230583D03*
X0223485Y0230346D03*
X0223485Y0230110D03*
X0223485Y0229874D03*
X0223485Y0229638D03*
X0223485Y0229402D03*
X0223485Y0229165D03*
X0231221Y0236276D03*
X0236182Y0239583D03*
X0233584Y0242654D03*
X0211202Y0233181D03*
X0209548Y0235071D03*
X0211202Y0228929D03*
D62*
X0226674Y0234126D03*
X0226674Y0234362D03*
X0226674Y0234598D03*
X0226674Y0234835D03*
D63*
X0226674Y0233890D03*
D64*
X0229450Y0237929D03*
X0219588Y0233890D03*
X0216458Y0243835D03*
D65*
X0219883Y0241709D03*
X0219883Y0238402D03*
X0224607Y0238165D03*
X0222540Y0232945D03*
X0222540Y0232709D03*
X0222540Y0232472D03*
X0222540Y0232236D03*
X0222540Y0232000D03*
X0230277Y0238165D03*
X0234056Y0240528D03*
X0234765Y0243598D03*
X0212324Y0241000D03*
D66*
X0212206Y0241236D03*
X0212206Y0241472D03*
X0212206Y0241709D03*
X0212206Y0241945D03*
X0216221Y0241945D03*
X0216221Y0241709D03*
X0216221Y0241472D03*
X0216221Y0241236D03*
X0216221Y0241000D03*
X0220001Y0241472D03*
X0220001Y0238638D03*
X0224725Y0241709D03*
X0230158Y0241945D03*
X0234410Y0240764D03*
X0234647Y0241000D03*
X0234883Y0241236D03*
X0234647Y0238402D03*
X0215572Y0232945D03*
X0215572Y0229165D03*
X0210611Y0229165D03*
X0207717Y0238165D03*
X0207717Y0241945D03*
X0214544Y0248106D03*
D67*
X0220119Y0241236D03*
X0220119Y0241000D03*
X0220119Y0239110D03*
X0220119Y0238874D03*
X0224607Y0238402D03*
X0224843Y0238874D03*
X0225080Y0239583D03*
X0230040Y0238402D03*
X0230040Y0241709D03*
X0234765Y0243362D03*
X0215690Y0232709D03*
X0215690Y0229402D03*
X0210493Y0232945D03*
X0207836Y0238402D03*
X0207836Y0241709D03*
D68*
X0207954Y0241472D03*
X0207954Y0238638D03*
X0210611Y0232709D03*
X0210611Y0229402D03*
X0215808Y0229638D03*
X0215808Y0232472D03*
X0224725Y0238638D03*
X0224725Y0241236D03*
X0224725Y0241472D03*
X0229922Y0241472D03*
X0229922Y0238874D03*
X0229922Y0238638D03*
X0234647Y0238638D03*
X0234883Y0242890D03*
X0234647Y0243126D03*
D69*
X0234765Y0238874D03*
X0229804Y0239110D03*
X0229804Y0239346D03*
X0229804Y0241000D03*
X0229804Y0241236D03*
X0224843Y0239819D03*
X0215926Y0232236D03*
X0215926Y0229874D03*
X0210729Y0229874D03*
X0210729Y0229638D03*
X0210729Y0232236D03*
X0210729Y0232472D03*
X0208072Y0238874D03*
X0208072Y0239110D03*
X0208072Y0241000D03*
X0208072Y0241236D03*
D70*
X0208190Y0240764D03*
X0208190Y0239346D03*
X0210847Y0232000D03*
X0210847Y0231764D03*
X0210847Y0230346D03*
X0210847Y0230110D03*
X0216044Y0230110D03*
X0216044Y0230346D03*
X0216044Y0231764D03*
X0216044Y0232000D03*
X0224725Y0240291D03*
X0224962Y0240055D03*
X0224725Y0241000D03*
X0234647Y0239110D03*
D71*
X0221477Y0231764D03*
X0219056Y0239583D03*
D72*
X0219883Y0237929D03*
X0221064Y0239346D03*
X0221300Y0239583D03*
X0221300Y0240528D03*
X0219883Y0242181D03*
X0216576Y0240764D03*
X0213032Y0240764D03*
X0212383Y0231528D03*
X0212383Y0230583D03*
X0214745Y0230583D03*
X0214745Y0231528D03*
X0209548Y0231528D03*
X0209548Y0230583D03*
X0226025Y0240764D03*
X0228387Y0240764D03*
X0228387Y0239583D03*
X0230985Y0239583D03*
X0235946Y0242654D03*
D73*
X0233584Y0242417D03*
X0236182Y0239819D03*
X0223426Y0239110D03*
X0204528Y0244307D03*
D74*
X0215985Y0239110D03*
X0224489Y0237929D03*
X0234647Y0243835D03*
D75*
X0234765Y0237693D03*
X0224607Y0242417D03*
X0218938Y0240528D03*
X0215158Y0240764D03*
X0211143Y0240764D03*
D76*
X0215867Y0238874D03*
X0215867Y0238638D03*
X0215867Y0238402D03*
X0214347Y0246138D03*
X0224607Y0242181D03*
X0233584Y0240291D03*
X0235710Y0241709D03*
X0204056Y0238874D03*
X0204056Y0238638D03*
D77*
X0216221Y0242181D03*
X0224725Y0241945D03*
X0235119Y0241472D03*
X0234647Y0238165D03*
D78*
X0219883Y0238165D03*
X0219883Y0241945D03*
D79*
X0221182Y0240764D03*
X0225906Y0239110D03*
X0230867Y0240764D03*
X0234647Y0237929D03*
X0215749Y0238165D03*
X0204174Y0239110D03*
X0203938Y0238402D03*
X0203938Y0238165D03*
D80*
X0211493Y0247693D03*
X0231375Y0251079D03*
D81*
X0231375Y0250488D03*
X0232162Y0248717D03*
X0232359Y0248323D03*
X0233147Y0246709D03*
X0233147Y0246551D03*
X0233343Y0246354D03*
X0230391Y0248520D03*
X0229406Y0246551D03*
X0229406Y0246354D03*
X0227832Y0249307D03*
X0228028Y0249504D03*
X0227832Y0249898D03*
X0226847Y0251079D03*
X0225469Y0247535D03*
X0225469Y0247339D03*
X0223304Y0246551D03*
X0223304Y0246354D03*
X0223107Y0246906D03*
X0223107Y0247339D03*
X0222910Y0247535D03*
X0221926Y0249307D03*
X0221729Y0249701D03*
X0219958Y0249504D03*
X0219958Y0249307D03*
X0219958Y0249110D03*
X0219958Y0248913D03*
X0219761Y0249701D03*
X0217399Y0249504D03*
X0217399Y0249307D03*
X0217399Y0249110D03*
X0217399Y0248913D03*
X0215430Y0249110D03*
X0215233Y0249307D03*
X0215627Y0247535D03*
X0215627Y0247339D03*
X0213265Y0247339D03*
X0213265Y0247535D03*
X0211493Y0249504D03*
X0211493Y0249701D03*
X0209525Y0247693D03*
X0209525Y0247535D03*
X0209525Y0247339D03*
X0259733Y0337421D03*
X0260324Y0338839D03*
X0260324Y0339035D03*
X0260324Y0339193D03*
X0260324Y0339390D03*
X0260324Y0339823D03*
X0260324Y0340020D03*
X0260324Y0340217D03*
X0260324Y0340413D03*
X0260324Y0340610D03*
X0260324Y0340807D03*
X0260324Y0341004D03*
X0260324Y0341201D03*
X0260324Y0341398D03*
X0260324Y0341594D03*
X0260324Y0341791D03*
X0260324Y0341988D03*
X0260324Y0342185D03*
X0260324Y0342382D03*
X0260324Y0342579D03*
X0262095Y0339390D03*
X0262095Y0339193D03*
X0262095Y0339035D03*
X0264654Y0339035D03*
X0264654Y0339193D03*
X0264654Y0339390D03*
X0269576Y0339390D03*
X0269576Y0339193D03*
X0269576Y0339035D03*
X0269576Y0338839D03*
X0269576Y0338406D03*
X0269576Y0338209D03*
X0269576Y0338051D03*
X0269576Y0337854D03*
X0275284Y0338839D03*
X0275284Y0339035D03*
X0277647Y0340807D03*
X0277843Y0341004D03*
X0277647Y0341398D03*
X0276662Y0342579D03*
D82*
X0276564Y0342185D03*
X0268887Y0340020D03*
X0226749Y0250685D03*
X0222812Y0251079D03*
X0214741Y0248717D03*
X0214347Y0249898D03*
X0214151Y0250094D03*
X0214347Y0246354D03*
X0210410Y0250882D03*
X0206670Y0247339D03*
X0231277Y0249110D03*
D83*
X0231277Y0250685D03*
X0227930Y0249701D03*
X0225962Y0249898D03*
X0223206Y0246709D03*
X0223206Y0245921D03*
X0218678Y0251079D03*
X0207851Y0249307D03*
X0205489Y0249307D03*
X0263572Y0337421D03*
X0266328Y0337854D03*
X0266328Y0338051D03*
X0266328Y0338209D03*
X0266328Y0338406D03*
X0266328Y0338839D03*
X0266328Y0339035D03*
X0266328Y0339193D03*
X0266328Y0339390D03*
X0266328Y0339823D03*
X0266328Y0340020D03*
X0266328Y0340217D03*
X0266328Y0340413D03*
X0266328Y0340610D03*
X0266328Y0340807D03*
X0266328Y0341791D03*
X0266328Y0341988D03*
X0266328Y0342185D03*
X0266328Y0342382D03*
X0266328Y0342579D03*
X0268099Y0341004D03*
X0271249Y0339823D03*
X0275777Y0341398D03*
X0277745Y0341201D03*
D84*
X0276564Y0337224D03*
X0272430Y0341201D03*
X0267903Y0339823D03*
X0266328Y0341594D03*
X0213363Y0251079D03*
X0226749Y0245724D03*
D85*
X0231375Y0249701D03*
X0218580Y0247693D03*
X0218383Y0247890D03*
X0213855Y0250685D03*
X0210509Y0251079D03*
D86*
X0211493Y0247890D03*
X0219958Y0248717D03*
X0228028Y0247339D03*
X0229406Y0245921D03*
X0231375Y0250882D03*
X0262095Y0337421D03*
X0262095Y0341004D03*
X0263670Y0341004D03*
X0266426Y0341004D03*
X0269576Y0341004D03*
X0269576Y0337421D03*
X0266426Y0337421D03*
X0260324Y0342776D03*
X0277843Y0338839D03*
D87*
X0276564Y0342382D03*
X0272233Y0337421D03*
X0226749Y0250882D03*
X0231277Y0249504D03*
X0219072Y0247339D03*
X0218875Y0247535D03*
X0214938Y0248913D03*
X0213954Y0250488D03*
X0211001Y0249110D03*
X0206670Y0247890D03*
X0206670Y0247535D03*
D88*
X0222714Y0250094D03*
X0222714Y0250291D03*
X0222714Y0250488D03*
X0222714Y0250685D03*
X0222714Y0250882D03*
X0226847Y0246906D03*
X0263277Y0338406D03*
X0263277Y0339823D03*
X0263277Y0340020D03*
X0272528Y0339390D03*
X0272528Y0339193D03*
X0276662Y0338406D03*
X0276662Y0338209D03*
D89*
X0275777Y0339390D03*
X0260028Y0338406D03*
X0260028Y0338209D03*
X0218678Y0250882D03*
X0225962Y0247890D03*
X0231277Y0249898D03*
X0206670Y0247693D03*
D90*
X0205588Y0246551D03*
X0207753Y0246551D03*
X0207753Y0248913D03*
X0205588Y0248913D03*
X0211296Y0249307D03*
X0213658Y0250882D03*
X0214840Y0249701D03*
X0217792Y0248323D03*
X0214446Y0245921D03*
X0210706Y0245921D03*
X0226847Y0245921D03*
X0227635Y0249110D03*
X0231375Y0250094D03*
X0259930Y0337854D03*
X0259930Y0338051D03*
X0272332Y0341004D03*
X0277450Y0340610D03*
X0276662Y0337421D03*
D91*
X0277056Y0340413D03*
X0272332Y0340807D03*
X0218580Y0250685D03*
X0214052Y0250291D03*
X0210903Y0248913D03*
X0227241Y0248913D03*
X0231375Y0249307D03*
D92*
X0231375Y0248913D03*
X0226847Y0248717D03*
X0226651Y0248520D03*
X0226454Y0248323D03*
X0226847Y0246354D03*
X0218580Y0250488D03*
X0210706Y0249898D03*
X0210509Y0250291D03*
X0210509Y0250488D03*
X0210509Y0250685D03*
X0210706Y0248717D03*
X0210706Y0246354D03*
X0272332Y0337854D03*
X0272332Y0340610D03*
X0268788Y0340610D03*
X0268788Y0340413D03*
X0268788Y0340217D03*
X0268788Y0340807D03*
X0276269Y0339823D03*
X0276466Y0340020D03*
X0276662Y0340217D03*
X0276662Y0337854D03*
D93*
X0276564Y0341988D03*
X0272430Y0340413D03*
X0272430Y0338051D03*
X0262981Y0340807D03*
X0226749Y0250488D03*
X0218678Y0250291D03*
X0214741Y0248520D03*
X0214347Y0246551D03*
X0210804Y0246551D03*
X0210804Y0248520D03*
X0210607Y0250094D03*
X0206670Y0248323D03*
D94*
X0205489Y0249110D03*
X0207851Y0249110D03*
X0209623Y0247890D03*
X0207851Y0246354D03*
X0205489Y0246354D03*
X0213363Y0247693D03*
X0215528Y0247693D03*
X0215135Y0249504D03*
X0217497Y0249701D03*
X0217497Y0248717D03*
X0217694Y0248520D03*
X0221828Y0249504D03*
X0222025Y0249110D03*
X0222221Y0248913D03*
X0222221Y0248717D03*
X0222418Y0248520D03*
X0222615Y0248323D03*
X0222812Y0247890D03*
X0222812Y0247693D03*
X0225568Y0247693D03*
X0230292Y0248323D03*
X0230489Y0248717D03*
X0231277Y0250291D03*
X0232261Y0248520D03*
X0273414Y0338406D03*
X0273611Y0339823D03*
X0275383Y0339193D03*
X0269477Y0339823D03*
X0264556Y0338839D03*
X0262194Y0338839D03*
D95*
X0263080Y0337854D03*
X0263080Y0340610D03*
X0272528Y0338209D03*
X0272725Y0338839D03*
X0276662Y0338051D03*
X0276662Y0341594D03*
X0276662Y0341791D03*
X0226847Y0250291D03*
X0226847Y0250094D03*
X0226847Y0246551D03*
X0214643Y0248323D03*
X0214446Y0246709D03*
X0210706Y0246709D03*
X0210706Y0246906D03*
X0210706Y0248323D03*
D96*
X0214544Y0247890D03*
X0214347Y0246906D03*
X0218481Y0245921D03*
X0218678Y0249898D03*
X0218678Y0250094D03*
X0222615Y0249898D03*
X0206670Y0248717D03*
X0206670Y0248520D03*
X0206670Y0246906D03*
X0206670Y0246709D03*
X0263178Y0338051D03*
X0263178Y0338209D03*
X0263178Y0340217D03*
X0263178Y0340413D03*
X0272430Y0340217D03*
X0272430Y0340020D03*
X0272627Y0339035D03*
D97*
X0271347Y0338406D03*
X0275678Y0341201D03*
X0277843Y0339035D03*
X0225863Y0249701D03*
X0228028Y0247535D03*
X0214446Y0245724D03*
X0211690Y0247339D03*
X0210706Y0245724D03*
D98*
X0207851Y0245921D03*
X0205489Y0245921D03*
X0205489Y0249504D03*
X0207851Y0249504D03*
X0233245Y0245921D03*
X0272233Y0337224D03*
X0266328Y0342776D03*
D99*
X0264556Y0339606D03*
X0262194Y0339606D03*
X0259832Y0337638D03*
X0273611Y0338622D03*
X0277745Y0338622D03*
X0232458Y0248106D03*
X0227930Y0247122D03*
X0222615Y0248106D03*
X0209623Y0247122D03*
D100*
X0213265Y0247122D03*
X0223107Y0247122D03*
X0225666Y0247122D03*
X0230194Y0248106D03*
X0269576Y0337638D03*
X0269576Y0338622D03*
X0269576Y0339606D03*
X0273710Y0339606D03*
X0275481Y0338622D03*
X0260324Y0338622D03*
X0260324Y0339606D03*
D101*
X0276072Y0339606D03*
X0276662Y0337638D03*
X0226257Y0248106D03*
X0226847Y0246138D03*
X0210706Y0246138D03*
D102*
X0218088Y0248106D03*
D103*
X0210607Y0248106D03*
X0206670Y0247122D03*
X0262981Y0337638D03*
D104*
X0272233Y0337638D03*
X0206670Y0248106D03*
D105*
X0218481Y0246906D03*
X0231277Y0247890D03*
D106*
X0231375Y0247693D03*
X0218580Y0246709D03*
X0218580Y0246551D03*
X0218580Y0246354D03*
D107*
X0231277Y0247535D03*
D108*
X0231375Y0247339D03*
D109*
X0231277Y0247122D03*
D110*
X0218777Y0247122D03*
D111*
X0211690Y0247122D03*
D112*
X0231375Y0246906D03*
D113*
X0227635Y0246709D03*
D114*
X0218481Y0246138D03*
D115*
X0241698Y0223323D03*
X0241855Y0221748D03*
X0244847Y0223008D03*
X0252170Y0223008D03*
X0254375Y0223323D03*
X0254532Y0223323D03*
X0255005Y0228677D03*
X0262485Y0223508D03*
X0263115Y0221618D03*
X0264375Y0222878D03*
X0265005Y0223193D03*
X0265320Y0223350D03*
X0265477Y0223508D03*
X0265005Y0225555D03*
X0265950Y0226972D03*
X0272170Y0226657D03*
X0273115Y0221618D03*
X0275950Y0223035D03*
X0283115Y0221776D03*
X0283273Y0221776D03*
X0284690Y0221618D03*
X0284847Y0221776D03*
X0285950Y0223193D03*
X0284375Y0223665D03*
X0284375Y0225713D03*
X0284532Y0225713D03*
X0285950Y0228232D03*
X0284690Y0229492D03*
X0284847Y0229650D03*
X0283273Y0229650D03*
X0283115Y0229650D03*
X0293115Y0229965D03*
X0294847Y0229965D03*
X0295162Y0226343D03*
X0292800Y0225870D03*
X0295005Y0222248D03*
X0294375Y0221618D03*
X0295635Y0351331D03*
X0295792Y0351331D03*
X0295792Y0353850D03*
X0295635Y0353850D03*
X0295477Y0353850D03*
X0295320Y0353850D03*
X0295162Y0353850D03*
X0295005Y0353850D03*
X0294847Y0353850D03*
X0294690Y0353850D03*
X0294532Y0353850D03*
X0294375Y0353850D03*
X0294217Y0353850D03*
X0294060Y0353850D03*
X0294060Y0355268D03*
X0294217Y0355268D03*
X0294375Y0355268D03*
X0294690Y0355425D03*
X0293903Y0355268D03*
X0293745Y0355268D03*
X0293588Y0355268D03*
X0293430Y0355425D03*
X0293273Y0355425D03*
X0292170Y0353850D03*
X0285792Y0354260D03*
X0284532Y0355362D03*
X0284375Y0355362D03*
X0284217Y0355362D03*
X0284060Y0355362D03*
X0283903Y0355362D03*
X0283745Y0355362D03*
X0283588Y0355362D03*
X0283273Y0355520D03*
X0284690Y0355520D03*
X0282328Y0354260D03*
X0282328Y0351425D03*
X0285792Y0351425D03*
X0284532Y0358354D03*
X0284375Y0358354D03*
X0284217Y0358512D03*
X0284060Y0358512D03*
X0283903Y0358512D03*
X0283588Y0358354D03*
X0283430Y0358354D03*
X0271135Y0357547D03*
X0270977Y0357547D03*
X0270820Y0357547D03*
X0270662Y0357547D03*
X0270505Y0357547D03*
X0270347Y0357547D03*
X0270190Y0357547D03*
X0270032Y0357547D03*
X0269875Y0357547D03*
X0269717Y0357547D03*
X0269560Y0357547D03*
X0269403Y0357547D03*
X0269245Y0357547D03*
X0269088Y0357547D03*
X0268930Y0357547D03*
X0268773Y0357547D03*
X0268615Y0357547D03*
X0268458Y0357547D03*
X0268300Y0357547D03*
X0268143Y0357547D03*
X0267985Y0357547D03*
X0267828Y0357547D03*
X0267828Y0356130D03*
X0267828Y0353295D03*
X0267828Y0352035D03*
X0268143Y0351878D03*
X0268458Y0351720D03*
X0269717Y0351878D03*
X0269875Y0351878D03*
X0270347Y0351878D03*
X0271292Y0353295D03*
X0271292Y0356130D03*
X0262107Y0356280D03*
X0261005Y0357224D03*
X0260847Y0357224D03*
X0260690Y0357224D03*
X0259273Y0357382D03*
X0259115Y0357382D03*
X0258958Y0357224D03*
X0259115Y0355177D03*
X0259273Y0355177D03*
X0261005Y0355335D03*
X0261477Y0353917D03*
X0261635Y0353917D03*
X0261162Y0353760D03*
X0260847Y0353602D03*
X0260532Y0353445D03*
X0260375Y0353445D03*
X0260217Y0353287D03*
X0260060Y0353287D03*
X0259903Y0353130D03*
X0259745Y0353130D03*
X0259588Y0352972D03*
X0259588Y0351713D03*
X0259745Y0351713D03*
X0259903Y0351555D03*
X0260060Y0351555D03*
X0260217Y0351398D03*
X0260375Y0351398D03*
X0260532Y0351240D03*
X0260690Y0351240D03*
X0260847Y0351083D03*
X0261005Y0351083D03*
X0261162Y0350925D03*
X0261320Y0350925D03*
X0261477Y0350768D03*
X0261635Y0350768D03*
X0261792Y0350768D03*
X0261005Y0349350D03*
X0260847Y0349350D03*
X0260690Y0349350D03*
X0259273Y0349508D03*
X0259115Y0349508D03*
X0258958Y0349350D03*
X0259115Y0347303D03*
X0259273Y0347303D03*
X0261005Y0347461D03*
X0262107Y0348406D03*
X0258328Y0352343D03*
X0258170Y0352343D03*
X0255792Y0351331D03*
X0255635Y0351331D03*
X0255635Y0353850D03*
X0255792Y0353850D03*
X0255477Y0353850D03*
X0255320Y0353850D03*
X0255162Y0353850D03*
X0255005Y0353850D03*
X0254847Y0353850D03*
X0254690Y0353850D03*
X0254532Y0353850D03*
X0254375Y0353850D03*
X0254217Y0353850D03*
X0254060Y0353850D03*
X0254060Y0355268D03*
X0254217Y0355268D03*
X0254375Y0355268D03*
X0254690Y0355425D03*
X0253903Y0355268D03*
X0253745Y0355268D03*
X0253588Y0355268D03*
X0253430Y0355425D03*
X0253273Y0355425D03*
X0252170Y0353850D03*
X0245635Y0354445D03*
X0245477Y0354445D03*
X0245320Y0354445D03*
X0245162Y0354445D03*
X0245005Y0354445D03*
X0244847Y0354445D03*
X0244690Y0354445D03*
X0244532Y0354445D03*
X0244375Y0354445D03*
X0244217Y0354445D03*
X0244060Y0354445D03*
X0243903Y0354445D03*
X0243903Y0355862D03*
X0244060Y0355862D03*
X0244217Y0355862D03*
X0244375Y0355862D03*
X0244532Y0355862D03*
X0244690Y0355862D03*
X0244847Y0355862D03*
X0245005Y0355862D03*
X0243745Y0355862D03*
X0243588Y0355862D03*
X0243430Y0355862D03*
X0243273Y0355862D03*
X0243115Y0355862D03*
X0243430Y0358382D03*
X0243588Y0358382D03*
X0244060Y0358539D03*
X0244375Y0358382D03*
X0244532Y0358382D03*
X0244060Y0353028D03*
X0244060Y0351768D03*
X0243903Y0351768D03*
X0243745Y0351768D03*
X0243588Y0351768D03*
X0243430Y0351768D03*
X0243273Y0351768D03*
X0243115Y0351768D03*
X0242958Y0351768D03*
X0242800Y0351768D03*
X0242643Y0351768D03*
X0242485Y0351768D03*
X0242328Y0351768D03*
X0242170Y0351768D03*
X0243115Y0350350D03*
X0243273Y0350350D03*
X0243430Y0350350D03*
X0243273Y0347831D03*
X0243588Y0347673D03*
X0243745Y0347673D03*
X0243903Y0347673D03*
X0244060Y0347673D03*
X0244217Y0347673D03*
X0244375Y0347673D03*
X0244532Y0347673D03*
X0246107Y0349248D03*
X0245792Y0351768D03*
D116*
X0241855Y0349169D03*
X0251855Y0356921D03*
X0256107Y0351252D03*
X0262107Y0350846D03*
X0262107Y0353839D03*
X0271607Y0357469D03*
X0291855Y0356921D03*
X0296107Y0351252D03*
X0285162Y0229728D03*
X0285162Y0221854D03*
X0293745Y0225476D03*
X0293903Y0225476D03*
X0294060Y0226736D03*
X0274217Y0229256D03*
X0274060Y0229256D03*
X0273273Y0223429D03*
X0265477Y0227209D03*
X0265320Y0227209D03*
X0262643Y0227209D03*
X0262485Y0227209D03*
X0263745Y0223272D03*
X0254847Y0224819D03*
X0254690Y0224819D03*
X0254532Y0224819D03*
X0253430Y0223717D03*
X0253273Y0222614D03*
X0253115Y0222614D03*
X0244847Y0225449D03*
X0244532Y0225606D03*
X0244375Y0223087D03*
X0244217Y0223087D03*
X0244060Y0223087D03*
X0243903Y0223087D03*
X0243745Y0223087D03*
X0242485Y0223087D03*
X0242328Y0223087D03*
X0242170Y0223087D03*
X0242013Y0223244D03*
D117*
X0245005Y0223008D03*
X0243588Y0226000D03*
X0246265Y0229780D03*
X0251698Y0225370D03*
X0253588Y0227890D03*
X0253745Y0227890D03*
X0253903Y0227890D03*
X0254060Y0227890D03*
X0254217Y0227890D03*
X0254375Y0227890D03*
X0254375Y0219543D03*
X0254532Y0219543D03*
X0254690Y0219543D03*
X0254847Y0219543D03*
X0254217Y0219543D03*
X0254060Y0219543D03*
X0253903Y0219543D03*
X0253745Y0219543D03*
X0253588Y0219543D03*
X0253430Y0219543D03*
X0253273Y0219543D03*
X0253115Y0219543D03*
X0252958Y0219543D03*
X0252800Y0219543D03*
X0252643Y0219543D03*
X0252485Y0219543D03*
X0252328Y0219543D03*
X0252170Y0219543D03*
X0252013Y0219543D03*
X0251855Y0219543D03*
X0255792Y0219543D03*
X0256580Y0219543D03*
X0262800Y0219256D03*
X0265792Y0223665D03*
X0272013Y0226500D03*
X0273903Y0225398D03*
X0274060Y0225398D03*
X0274217Y0225398D03*
X0275320Y0227602D03*
X0272643Y0229177D03*
X0282643Y0227287D03*
X0282800Y0227287D03*
X0285162Y0225713D03*
X0282800Y0224138D03*
X0282643Y0224138D03*
X0282643Y0219413D03*
X0282800Y0219413D03*
X0282958Y0219413D03*
X0283115Y0219413D03*
X0283273Y0219413D03*
X0292170Y0226028D03*
X0293430Y0232799D03*
X0293588Y0232799D03*
X0293745Y0232799D03*
X0293903Y0232799D03*
X0294060Y0232799D03*
X0294217Y0232799D03*
X0294375Y0232799D03*
X0294532Y0232799D03*
X0294690Y0232799D03*
X0285162Y0232012D03*
X0285005Y0232012D03*
X0284847Y0232012D03*
X0284690Y0232012D03*
X0283588Y0232012D03*
X0283430Y0232012D03*
X0283273Y0232012D03*
X0283115Y0232012D03*
X0282958Y0232012D03*
X0282800Y0232012D03*
X0282643Y0232012D03*
X0293588Y0219256D03*
X0293745Y0219256D03*
X0293903Y0219256D03*
X0294060Y0219256D03*
X0294217Y0219256D03*
X0294375Y0219256D03*
X0294532Y0219256D03*
X0246580Y0219386D03*
X0245792Y0219386D03*
X0242013Y0349248D03*
X0244217Y0349878D03*
X0244375Y0349878D03*
X0245005Y0352083D03*
X0242958Y0354130D03*
X0252958Y0353535D03*
X0253115Y0353535D03*
X0254847Y0351646D03*
X0258958Y0352343D03*
X0259903Y0348878D03*
X0260060Y0348720D03*
X0260217Y0348720D03*
X0260375Y0348878D03*
X0261950Y0348406D03*
X0261950Y0356280D03*
X0260375Y0356752D03*
X0260217Y0356594D03*
X0260060Y0356594D03*
X0259903Y0356752D03*
X0255950Y0356843D03*
X0269403Y0354713D03*
X0269717Y0354713D03*
X0282013Y0356937D03*
X0285950Y0356937D03*
X0284217Y0352843D03*
X0283903Y0352843D03*
X0292958Y0353535D03*
X0293115Y0353535D03*
X0294847Y0351646D03*
X0295950Y0356843D03*
D118*
X0296107Y0356843D03*
X0295005Y0357787D03*
X0292013Y0353850D03*
X0292013Y0351173D03*
X0285950Y0354260D03*
X0271450Y0356130D03*
X0267513Y0357547D03*
X0261950Y0353917D03*
X0259430Y0355177D03*
X0256107Y0356843D03*
X0255005Y0357787D03*
X0252013Y0353850D03*
X0252013Y0351173D03*
X0259430Y0347303D03*
X0261950Y0350768D03*
X0245950Y0351768D03*
X0242013Y0351768D03*
X0242013Y0354445D03*
X0254847Y0228677D03*
X0254060Y0223480D03*
X0252643Y0222850D03*
X0252485Y0222850D03*
X0244690Y0223008D03*
X0243273Y0223323D03*
X0242485Y0224425D03*
X0244217Y0224425D03*
X0244217Y0221591D03*
X0243430Y0221591D03*
X0242485Y0221591D03*
X0242328Y0221591D03*
X0262643Y0223508D03*
X0262800Y0223508D03*
X0264217Y0223035D03*
X0262958Y0225555D03*
X0264847Y0226972D03*
X0272328Y0223193D03*
X0274217Y0223193D03*
X0275162Y0223193D03*
X0275792Y0223193D03*
X0274217Y0227602D03*
X0274060Y0227602D03*
X0282958Y0229650D03*
X0285005Y0229650D03*
X0285792Y0228232D03*
X0285005Y0227917D03*
X0284847Y0227917D03*
X0284217Y0225713D03*
X0284060Y0225713D03*
X0284690Y0223665D03*
X0285792Y0223193D03*
X0285005Y0221776D03*
X0282958Y0221776D03*
X0292958Y0222248D03*
X0295005Y0223823D03*
X0295792Y0223823D03*
X0294690Y0226500D03*
X0293273Y0225713D03*
X0293115Y0225713D03*
X0292013Y0228075D03*
D119*
X0292800Y0232642D03*
X0292958Y0232642D03*
X0295162Y0232642D03*
X0285635Y0231854D03*
X0284217Y0231854D03*
X0282328Y0231854D03*
X0284217Y0228232D03*
X0284375Y0228232D03*
X0282485Y0227287D03*
X0282485Y0224138D03*
X0285477Y0225713D03*
X0285635Y0225713D03*
X0285635Y0219571D03*
X0282328Y0219571D03*
X0275635Y0219413D03*
X0275477Y0219413D03*
X0274375Y0219413D03*
X0274217Y0219413D03*
X0273273Y0219413D03*
X0272485Y0219413D03*
X0272328Y0219413D03*
X0265635Y0219413D03*
X0265477Y0219413D03*
X0264217Y0219413D03*
X0263273Y0219413D03*
X0262328Y0219413D03*
X0255792Y0228992D03*
X0256107Y0229307D03*
X0253273Y0228047D03*
X0245950Y0229937D03*
X0241698Y0226000D03*
X0242800Y0223795D03*
X0242958Y0223638D03*
X0272328Y0229177D03*
X0275477Y0227602D03*
X0292800Y0219413D03*
X0292958Y0219413D03*
X0295162Y0219413D03*
X0294532Y0351803D03*
X0294375Y0351803D03*
X0293430Y0353378D03*
X0284375Y0352843D03*
X0283745Y0352843D03*
X0269875Y0354713D03*
X0269245Y0354713D03*
X0261792Y0356280D03*
X0258170Y0356280D03*
X0259273Y0352343D03*
X0258170Y0348406D03*
X0261792Y0348406D03*
X0254532Y0351803D03*
X0254375Y0351803D03*
X0253430Y0353378D03*
X0244532Y0352240D03*
X0243430Y0353972D03*
X0243273Y0353972D03*
X0242013Y0356492D03*
D120*
X0242170Y0354366D03*
X0245792Y0354366D03*
X0245950Y0354366D03*
X0244217Y0358461D03*
X0243903Y0358461D03*
X0243745Y0358461D03*
X0252958Y0357709D03*
X0255950Y0353929D03*
X0255950Y0351252D03*
X0254060Y0351252D03*
X0253903Y0351252D03*
X0253745Y0351252D03*
X0253588Y0351252D03*
X0253430Y0351252D03*
X0253273Y0351252D03*
X0253115Y0351252D03*
X0252958Y0351252D03*
X0252800Y0351252D03*
X0252643Y0351252D03*
X0252485Y0351252D03*
X0252328Y0351252D03*
X0252170Y0351252D03*
X0260847Y0347539D03*
X0261792Y0353996D03*
X0260847Y0355413D03*
X0267670Y0356209D03*
X0267670Y0357469D03*
X0271292Y0357469D03*
X0271450Y0357469D03*
X0271450Y0353217D03*
X0270190Y0351957D03*
X0270032Y0351957D03*
X0270032Y0349752D03*
X0269875Y0349752D03*
X0269717Y0349752D03*
X0270190Y0349752D03*
X0270347Y0349752D03*
X0270505Y0349752D03*
X0268458Y0349752D03*
X0268300Y0349752D03*
X0268143Y0349752D03*
X0267985Y0349752D03*
X0267828Y0349752D03*
X0267670Y0349752D03*
X0267670Y0351957D03*
X0267670Y0353217D03*
X0282170Y0354339D03*
X0282170Y0351346D03*
X0282170Y0348669D03*
X0282328Y0348669D03*
X0282485Y0348669D03*
X0282643Y0348669D03*
X0282800Y0348669D03*
X0282958Y0348669D03*
X0283115Y0348669D03*
X0283273Y0348669D03*
X0283430Y0348669D03*
X0283588Y0348669D03*
X0283745Y0348669D03*
X0283903Y0348669D03*
X0284060Y0348669D03*
X0284217Y0348669D03*
X0284375Y0348669D03*
X0284532Y0348669D03*
X0284690Y0348669D03*
X0284847Y0348669D03*
X0285005Y0348669D03*
X0285162Y0348669D03*
X0285950Y0351346D03*
X0286107Y0356858D03*
X0283745Y0358433D03*
X0292958Y0357709D03*
X0295950Y0353929D03*
X0295950Y0351252D03*
X0294060Y0351252D03*
X0293903Y0351252D03*
X0293745Y0351252D03*
X0293588Y0351252D03*
X0293430Y0351252D03*
X0293273Y0351252D03*
X0293115Y0351252D03*
X0292958Y0351252D03*
X0292800Y0351252D03*
X0292643Y0351252D03*
X0292485Y0351252D03*
X0292328Y0351252D03*
X0292170Y0351252D03*
X0232032Y0329878D03*
X0242643Y0224346D03*
X0242170Y0221669D03*
X0242013Y0221669D03*
X0243588Y0221669D03*
X0243745Y0221669D03*
X0243903Y0221669D03*
X0244060Y0221669D03*
X0252328Y0222929D03*
X0254217Y0223402D03*
X0262170Y0227051D03*
X0265162Y0223272D03*
X0265005Y0221697D03*
X0262958Y0221697D03*
X0272170Y0223114D03*
X0272958Y0221697D03*
X0275005Y0221697D03*
X0275005Y0223114D03*
X0275005Y0225004D03*
X0274532Y0227681D03*
X0274375Y0227681D03*
X0272328Y0226736D03*
X0284532Y0223587D03*
X0292170Y0223902D03*
X0292958Y0225791D03*
X0294847Y0226421D03*
X0295005Y0226421D03*
X0295005Y0229886D03*
X0294217Y0221539D03*
X0294060Y0221539D03*
X0293903Y0221539D03*
X0293745Y0221539D03*
D121*
X0292485Y0219571D03*
X0285950Y0219728D03*
X0285950Y0225713D03*
X0285792Y0225713D03*
X0283745Y0228075D03*
X0285950Y0231697D03*
X0292485Y0232484D03*
X0295477Y0232484D03*
X0274847Y0222406D03*
X0273903Y0219571D03*
X0272170Y0219571D03*
X0265950Y0219571D03*
X0263903Y0219571D03*
X0262170Y0219571D03*
X0264847Y0222406D03*
X0265950Y0223665D03*
X0272013Y0229177D03*
X0256422Y0229465D03*
X0252958Y0228205D03*
X0245792Y0229937D03*
X0243745Y0225685D03*
X0230615Y0325035D03*
X0230143Y0325272D03*
X0230615Y0334839D03*
X0242170Y0349248D03*
X0244217Y0352398D03*
X0243745Y0353815D03*
X0253903Y0353220D03*
X0255792Y0356843D03*
X0261635Y0356280D03*
X0269088Y0354713D03*
X0270032Y0354713D03*
X0271450Y0350461D03*
X0261635Y0348406D03*
X0283588Y0352843D03*
X0284532Y0352843D03*
X0285792Y0356937D03*
X0293903Y0353220D03*
X0295792Y0356843D03*
D122*
X0292328Y0356843D03*
X0285635Y0356937D03*
X0282328Y0356937D03*
X0284690Y0352843D03*
X0271292Y0350618D03*
X0267985Y0352665D03*
X0270190Y0354713D03*
X0261477Y0356280D03*
X0261320Y0356280D03*
X0258485Y0356280D03*
X0252328Y0356843D03*
X0258485Y0348406D03*
X0261320Y0348406D03*
X0261477Y0348406D03*
X0245792Y0356650D03*
X0242328Y0349248D03*
X0252643Y0228362D03*
X0243903Y0225528D03*
X0263273Y0226028D03*
X0264690Y0226028D03*
X0263745Y0219728D03*
X0272013Y0219728D03*
X0275792Y0227445D03*
X0295792Y0232327D03*
X0295792Y0219728D03*
D123*
X0293115Y0222169D03*
X0292013Y0223744D03*
X0292485Y0225949D03*
X0292643Y0225949D03*
X0295320Y0226264D03*
X0295950Y0223744D03*
X0294690Y0230043D03*
X0293273Y0230043D03*
X0284690Y0227996D03*
X0283430Y0229571D03*
X0284690Y0225791D03*
X0283588Y0223902D03*
X0283903Y0223744D03*
X0284217Y0223587D03*
X0283430Y0221697D03*
X0274847Y0225161D03*
X0273115Y0225161D03*
X0274375Y0222957D03*
X0273273Y0221539D03*
X0274690Y0227681D03*
X0274847Y0227681D03*
X0265635Y0223587D03*
X0263273Y0221539D03*
X0262013Y0226894D03*
X0254690Y0223244D03*
X0252013Y0223087D03*
X0251855Y0223087D03*
X0243115Y0223402D03*
X0241698Y0221669D03*
X0242170Y0226236D03*
X0242328Y0226236D03*
X0242485Y0226236D03*
X0242643Y0226236D03*
X0242800Y0226236D03*
X0242958Y0226236D03*
X0243115Y0226236D03*
X0243273Y0226236D03*
X0243430Y0347752D03*
X0243115Y0347909D03*
X0244690Y0347752D03*
X0244847Y0347909D03*
X0242958Y0350272D03*
X0243903Y0353106D03*
X0242328Y0354366D03*
X0243115Y0358146D03*
X0243273Y0358303D03*
X0244690Y0358303D03*
X0244847Y0358146D03*
X0246107Y0356413D03*
X0245635Y0351846D03*
X0252328Y0353772D03*
X0252485Y0353772D03*
X0254060Y0352512D03*
X0255477Y0351409D03*
X0254532Y0355346D03*
X0254847Y0355504D03*
X0258958Y0355256D03*
X0259588Y0357146D03*
X0259430Y0357303D03*
X0261320Y0353839D03*
X0261005Y0353681D03*
X0260690Y0353524D03*
X0259430Y0349429D03*
X0259588Y0349272D03*
X0258958Y0347382D03*
X0268300Y0351799D03*
X0268458Y0353689D03*
X0267985Y0356051D03*
X0270505Y0355579D03*
X0271135Y0356051D03*
X0270977Y0353374D03*
X0270505Y0351799D03*
X0282485Y0354181D03*
X0283115Y0355598D03*
X0283430Y0355441D03*
X0284847Y0355598D03*
X0285005Y0355756D03*
X0285635Y0354181D03*
X0285005Y0353709D03*
X0285477Y0351504D03*
X0282958Y0351819D03*
X0283115Y0358118D03*
X0283273Y0358276D03*
X0284690Y0358276D03*
X0284847Y0358276D03*
X0292328Y0353772D03*
X0292485Y0353772D03*
X0294060Y0352512D03*
X0295477Y0351409D03*
X0294532Y0355346D03*
X0294847Y0355504D03*
D124*
X0295477Y0356843D03*
X0292485Y0356843D03*
X0285477Y0356937D03*
X0282485Y0356937D03*
X0270977Y0350776D03*
X0270820Y0350776D03*
X0269403Y0350776D03*
X0269245Y0350776D03*
X0268615Y0350776D03*
X0261162Y0348406D03*
X0258800Y0348406D03*
X0258643Y0348406D03*
X0258643Y0356280D03*
X0258800Y0356280D03*
X0261162Y0356280D03*
X0255477Y0356843D03*
X0252485Y0356843D03*
X0245635Y0356807D03*
X0242485Y0356807D03*
X0242485Y0349248D03*
X0244847Y0230409D03*
X0245005Y0230409D03*
X0241855Y0229150D03*
X0252328Y0228520D03*
X0262485Y0231854D03*
X0262643Y0231854D03*
X0272013Y0232484D03*
X0272485Y0232799D03*
X0282013Y0227445D03*
X0283588Y0228390D03*
X0282013Y0223980D03*
X0294532Y0222720D03*
X0294690Y0222720D03*
X0295950Y0219886D03*
X0295950Y0232169D03*
D125*
X0292958Y0229728D03*
X0292170Y0228154D03*
X0293430Y0225634D03*
X0294532Y0226579D03*
X0295950Y0228154D03*
X0295635Y0223902D03*
X0295477Y0223902D03*
X0295320Y0223902D03*
X0295162Y0223902D03*
X0294375Y0223902D03*
X0292328Y0223902D03*
X0285635Y0223272D03*
X0285320Y0223429D03*
X0285005Y0223587D03*
X0284847Y0223587D03*
X0285162Y0227996D03*
X0285320Y0227996D03*
X0285635Y0228154D03*
X0275635Y0223272D03*
X0275477Y0223272D03*
X0275320Y0223272D03*
X0274060Y0223272D03*
X0272485Y0223272D03*
X0272958Y0225004D03*
X0272643Y0226894D03*
X0272485Y0226894D03*
X0272800Y0227051D03*
X0273430Y0227366D03*
X0273745Y0227524D03*
X0273903Y0227524D03*
X0273745Y0229256D03*
X0275162Y0221697D03*
X0265792Y0227051D03*
X0265005Y0227051D03*
X0263115Y0227051D03*
X0263115Y0223429D03*
X0262958Y0223429D03*
X0265162Y0221697D03*
X0255005Y0221512D03*
X0253903Y0223559D03*
X0253745Y0223559D03*
X0252800Y0222772D03*
X0254690Y0228598D03*
X0245005Y0225449D03*
X0244532Y0223087D03*
X0243430Y0223244D03*
X0242643Y0223087D03*
X0260690Y0347539D03*
X0258013Y0352421D03*
X0260690Y0355413D03*
X0267513Y0356209D03*
X0267513Y0353217D03*
X0267513Y0351957D03*
X0267513Y0349752D03*
X0282013Y0348669D03*
X0282013Y0351346D03*
X0282013Y0354339D03*
X0245005Y0350114D03*
D126*
X0244060Y0349799D03*
X0243903Y0349957D03*
X0243745Y0349957D03*
X0245950Y0349169D03*
X0244847Y0352161D03*
X0244690Y0352161D03*
X0243115Y0354051D03*
X0253273Y0353457D03*
X0254690Y0351724D03*
X0259115Y0352421D03*
X0259745Y0348957D03*
X0260532Y0348957D03*
X0260532Y0356831D03*
X0259745Y0356831D03*
X0230615Y0330350D03*
X0230143Y0330350D03*
X0293273Y0353457D03*
X0294690Y0351724D03*
X0294847Y0232720D03*
X0295005Y0232720D03*
X0293273Y0232720D03*
X0293115Y0232720D03*
X0292013Y0226106D03*
X0295950Y0226106D03*
X0295005Y0219335D03*
X0294847Y0219335D03*
X0294690Y0219335D03*
X0293430Y0219335D03*
X0293273Y0219335D03*
X0293115Y0219335D03*
X0285477Y0219492D03*
X0285320Y0219492D03*
X0285162Y0219492D03*
X0285005Y0219492D03*
X0284847Y0219492D03*
X0283430Y0219492D03*
X0282485Y0219492D03*
X0285320Y0225791D03*
X0284532Y0228311D03*
X0284532Y0231933D03*
X0284375Y0231933D03*
X0283903Y0231933D03*
X0283745Y0231933D03*
X0282485Y0231933D03*
X0285320Y0231933D03*
X0285477Y0231933D03*
X0275320Y0219335D03*
X0275162Y0219335D03*
X0275005Y0219335D03*
X0274847Y0219335D03*
X0274690Y0219335D03*
X0274532Y0219335D03*
X0273115Y0219335D03*
X0272958Y0219335D03*
X0272800Y0219335D03*
X0272643Y0219335D03*
X0274532Y0222642D03*
X0272485Y0229256D03*
X0264532Y0222642D03*
X0262170Y0223587D03*
X0262485Y0219335D03*
X0262643Y0219335D03*
X0262958Y0219335D03*
X0263115Y0219335D03*
X0264375Y0219335D03*
X0264532Y0219335D03*
X0264690Y0219335D03*
X0264847Y0219335D03*
X0265005Y0219335D03*
X0265162Y0219335D03*
X0265320Y0219335D03*
X0255005Y0219622D03*
X0251698Y0219622D03*
X0253430Y0227969D03*
X0255950Y0229228D03*
X0246107Y0229858D03*
X0245005Y0219465D03*
X0244847Y0219465D03*
X0244690Y0219465D03*
X0244532Y0219465D03*
X0244375Y0219465D03*
X0244217Y0219465D03*
X0244060Y0219465D03*
X0243903Y0219465D03*
X0243745Y0219465D03*
X0243588Y0219465D03*
X0243430Y0219465D03*
X0243273Y0219465D03*
X0243115Y0219465D03*
X0242958Y0219465D03*
X0242800Y0219465D03*
X0242643Y0219465D03*
X0242485Y0219465D03*
X0242328Y0219465D03*
X0242170Y0219465D03*
X0242013Y0219465D03*
X0241855Y0219465D03*
X0241698Y0219465D03*
D127*
X0253115Y0228126D03*
X0256265Y0229386D03*
X0264690Y0222484D03*
X0264060Y0219492D03*
X0265792Y0219492D03*
X0274060Y0219492D03*
X0275792Y0219492D03*
X0274690Y0222484D03*
X0275635Y0227524D03*
X0272170Y0229256D03*
X0282170Y0231776D03*
X0284060Y0231776D03*
X0285792Y0231776D03*
X0284060Y0228154D03*
X0283903Y0228154D03*
X0282328Y0227366D03*
X0282328Y0224059D03*
X0282170Y0219650D03*
X0284690Y0219650D03*
X0285792Y0219650D03*
X0292643Y0219492D03*
X0295320Y0219492D03*
X0295477Y0219492D03*
X0295320Y0232563D03*
X0292643Y0232563D03*
X0294217Y0351882D03*
X0293745Y0353299D03*
X0293588Y0353299D03*
X0292170Y0356921D03*
X0282170Y0356858D03*
X0259430Y0352421D03*
X0254217Y0351882D03*
X0253745Y0353299D03*
X0253588Y0353299D03*
X0252170Y0356921D03*
X0245950Y0356571D03*
X0243588Y0353894D03*
X0244375Y0352319D03*
D128*
X0245162Y0352004D03*
X0243588Y0350114D03*
X0242800Y0354209D03*
X0242643Y0354209D03*
X0245005Y0357988D03*
X0252013Y0356921D03*
X0252958Y0355819D03*
X0255005Y0355661D03*
X0252800Y0353614D03*
X0255005Y0351567D03*
X0255162Y0351567D03*
X0258800Y0352421D03*
X0258013Y0356201D03*
X0258013Y0348327D03*
X0271607Y0350382D03*
X0282958Y0357961D03*
X0292013Y0356921D03*
X0292958Y0355819D03*
X0295005Y0355661D03*
X0292800Y0353614D03*
X0295005Y0351567D03*
X0295162Y0351567D03*
X0294375Y0230201D03*
X0294217Y0230201D03*
X0294060Y0230201D03*
X0293903Y0230201D03*
X0293745Y0230201D03*
X0295792Y0226106D03*
X0293588Y0222012D03*
X0293430Y0222012D03*
X0285005Y0225791D03*
X0283430Y0227524D03*
X0283115Y0227366D03*
X0282958Y0227366D03*
X0282958Y0224059D03*
X0283115Y0224059D03*
X0284060Y0223587D03*
X0275162Y0227681D03*
X0275005Y0227681D03*
X0274532Y0225319D03*
X0274375Y0225319D03*
X0273745Y0225319D03*
X0273588Y0225319D03*
X0273430Y0225319D03*
X0272800Y0229256D03*
X0264847Y0225634D03*
X0262328Y0223587D03*
X0256422Y0219465D03*
X0256265Y0219465D03*
X0256107Y0219465D03*
X0255950Y0219465D03*
X0255005Y0223087D03*
X0254217Y0225449D03*
X0254060Y0225449D03*
X0253903Y0225449D03*
X0253745Y0225449D03*
X0253588Y0225449D03*
X0253430Y0225449D03*
X0253273Y0225449D03*
X0253115Y0225449D03*
X0252958Y0225449D03*
X0252800Y0225449D03*
X0252643Y0225449D03*
X0252485Y0225449D03*
X0252328Y0225449D03*
X0252170Y0225449D03*
X0252013Y0225449D03*
X0251855Y0225449D03*
X0251698Y0223087D03*
X0246422Y0219307D03*
X0246265Y0219307D03*
X0246107Y0219307D03*
X0245950Y0219307D03*
X0244217Y0226079D03*
X0241855Y0226079D03*
X0246422Y0229701D03*
X0246580Y0229543D03*
D129*
X0244375Y0226157D03*
X0243430Y0226157D03*
X0242013Y0226157D03*
X0254375Y0225370D03*
X0254847Y0223165D03*
X0263115Y0225555D03*
X0272013Y0223035D03*
X0273273Y0225240D03*
X0274690Y0225240D03*
X0283273Y0223980D03*
X0283430Y0223980D03*
X0283745Y0223823D03*
X0284847Y0225713D03*
X0283273Y0227445D03*
X0292328Y0226028D03*
X0295477Y0226185D03*
X0295635Y0226185D03*
X0294532Y0230122D03*
X0293588Y0230122D03*
X0293430Y0230122D03*
X0293273Y0222091D03*
X0295320Y0351488D03*
X0292643Y0353693D03*
X0293115Y0355583D03*
X0285477Y0354102D03*
X0285320Y0353945D03*
X0285162Y0353787D03*
X0284847Y0353630D03*
X0284060Y0352843D03*
X0284847Y0352055D03*
X0285005Y0351898D03*
X0285162Y0351740D03*
X0285320Y0351583D03*
X0283115Y0351898D03*
X0282800Y0351740D03*
X0282643Y0351583D03*
X0282485Y0351425D03*
X0283115Y0353630D03*
X0282958Y0353787D03*
X0282800Y0353945D03*
X0282643Y0354102D03*
X0282958Y0355835D03*
X0285005Y0358039D03*
X0270977Y0355972D03*
X0270820Y0355815D03*
X0270662Y0355657D03*
X0270347Y0355500D03*
X0269560Y0354713D03*
X0270347Y0353925D03*
X0270505Y0353768D03*
X0270662Y0353610D03*
X0270820Y0353453D03*
X0271135Y0353295D03*
X0268615Y0353768D03*
X0268300Y0353610D03*
X0268143Y0353453D03*
X0268615Y0355500D03*
X0268458Y0355657D03*
X0268300Y0355815D03*
X0268143Y0355972D03*
X0258643Y0352343D03*
X0258485Y0352343D03*
X0255320Y0351488D03*
X0252643Y0353693D03*
X0253115Y0355583D03*
X0245477Y0351925D03*
X0245320Y0351925D03*
X0242485Y0354287D03*
X0242958Y0348146D03*
X0245005Y0347988D03*
D130*
X0245792Y0349169D03*
X0242170Y0356571D03*
X0258328Y0356201D03*
X0258328Y0348327D03*
X0268930Y0354634D03*
X0283430Y0352764D03*
X0292328Y0232406D03*
X0295635Y0232406D03*
X0295635Y0219650D03*
X0292328Y0219650D03*
X0282013Y0219807D03*
X0282170Y0224059D03*
X0282170Y0227366D03*
X0282013Y0231618D03*
X0275950Y0219650D03*
X0262013Y0219650D03*
X0262013Y0223587D03*
X0252800Y0228283D03*
D131*
X0254532Y0228520D03*
X0255005Y0224740D03*
X0253588Y0223638D03*
X0252958Y0222693D03*
X0252958Y0221433D03*
X0253115Y0221433D03*
X0253273Y0221433D03*
X0253430Y0221433D03*
X0253588Y0221433D03*
X0253745Y0221433D03*
X0253903Y0221433D03*
X0254060Y0221433D03*
X0254217Y0221433D03*
X0254375Y0221433D03*
X0254532Y0221433D03*
X0254690Y0221433D03*
X0254847Y0221433D03*
X0252800Y0221433D03*
X0252643Y0221433D03*
X0252485Y0221433D03*
X0252328Y0221433D03*
X0252170Y0221433D03*
X0252013Y0221433D03*
X0251855Y0221433D03*
X0251698Y0221433D03*
X0243588Y0223165D03*
X0241855Y0223323D03*
X0262328Y0227130D03*
X0262800Y0227130D03*
X0262958Y0227130D03*
X0265162Y0227130D03*
X0265635Y0227130D03*
X0264060Y0223193D03*
X0263903Y0223193D03*
X0263588Y0223350D03*
X0263430Y0223350D03*
X0263273Y0223350D03*
X0272643Y0223350D03*
X0272800Y0223350D03*
X0272958Y0223350D03*
X0273115Y0223350D03*
X0273430Y0223350D03*
X0273588Y0223350D03*
X0273745Y0223350D03*
X0273903Y0223350D03*
X0272958Y0227130D03*
X0273115Y0227287D03*
X0273273Y0227287D03*
X0273588Y0227445D03*
X0273903Y0229177D03*
X0283745Y0225713D03*
X0283903Y0225713D03*
X0285162Y0223508D03*
X0285477Y0223350D03*
X0285477Y0228075D03*
X0292328Y0228075D03*
X0292485Y0228075D03*
X0292643Y0228075D03*
X0292800Y0228075D03*
X0292958Y0228075D03*
X0293115Y0228075D03*
X0293273Y0228075D03*
X0293430Y0228075D03*
X0293588Y0228075D03*
X0293745Y0228075D03*
X0293903Y0228075D03*
X0294060Y0228075D03*
X0294217Y0228075D03*
X0294375Y0228075D03*
X0294532Y0228075D03*
X0294690Y0228075D03*
X0294847Y0228075D03*
X0295005Y0228075D03*
X0295162Y0228075D03*
X0295320Y0228075D03*
X0295477Y0228075D03*
X0295635Y0228075D03*
X0295792Y0228075D03*
X0294375Y0226657D03*
X0294217Y0226657D03*
X0293588Y0225555D03*
X0293588Y0223980D03*
X0293745Y0223980D03*
X0293903Y0223980D03*
X0294060Y0223980D03*
X0294217Y0223980D03*
X0293430Y0223980D03*
X0293273Y0223980D03*
X0293115Y0223980D03*
X0292958Y0223980D03*
X0292800Y0223980D03*
X0292643Y0223980D03*
X0292485Y0223980D03*
X0232977Y0328461D03*
X0230615Y0328461D03*
X0232505Y0331177D03*
X0253115Y0357787D03*
X0254847Y0357787D03*
X0257855Y0356280D03*
X0257855Y0348406D03*
X0271607Y0353295D03*
X0271607Y0356130D03*
X0281855Y0356937D03*
X0286107Y0354260D03*
X0286107Y0351425D03*
X0293115Y0357787D03*
X0294847Y0357787D03*
D132*
X0295635Y0356921D03*
X0283273Y0352764D03*
X0271135Y0350697D03*
X0269088Y0350697D03*
X0268930Y0350697D03*
X0268773Y0350697D03*
X0268773Y0354634D03*
X0255635Y0356921D03*
X0245635Y0349169D03*
X0242328Y0356728D03*
X0232977Y0334366D03*
X0241698Y0229071D03*
X0244060Y0225449D03*
X0252485Y0228441D03*
X0256580Y0229386D03*
X0262013Y0231618D03*
X0262170Y0231776D03*
X0262328Y0231776D03*
X0263430Y0225949D03*
X0263588Y0225949D03*
X0263745Y0225949D03*
X0263903Y0225949D03*
X0264060Y0225949D03*
X0264217Y0225949D03*
X0264375Y0225949D03*
X0264532Y0225949D03*
X0266107Y0219807D03*
X0273745Y0219807D03*
X0276107Y0219807D03*
X0283745Y0219965D03*
X0283903Y0219965D03*
X0284060Y0219965D03*
X0284217Y0219965D03*
X0284375Y0219965D03*
X0284532Y0219965D03*
X0286107Y0219965D03*
X0292170Y0219807D03*
X0294847Y0222799D03*
X0292170Y0232248D03*
X0286107Y0231461D03*
X0272328Y0232720D03*
X0272170Y0232720D03*
D133*
X0272643Y0232720D03*
X0275950Y0227366D03*
X0292013Y0219965D03*
X0252170Y0228598D03*
X0244690Y0230488D03*
X0242013Y0229228D03*
X0245162Y0349012D03*
X0245320Y0349012D03*
X0245477Y0349169D03*
X0242643Y0349169D03*
X0242643Y0356886D03*
X0245477Y0356886D03*
X0252643Y0356764D03*
X0255320Y0356764D03*
X0269560Y0350854D03*
X0270662Y0350854D03*
X0292643Y0356764D03*
X0295320Y0356764D03*
D134*
X0295162Y0356685D03*
X0292800Y0356685D03*
X0285320Y0356937D03*
X0282643Y0356937D03*
X0255162Y0356685D03*
X0252800Y0356685D03*
X0245320Y0356965D03*
X0245162Y0356965D03*
X0242800Y0356965D03*
X0244532Y0230567D03*
X0242170Y0229307D03*
X0252013Y0228677D03*
X0263588Y0220043D03*
X0266107Y0223665D03*
X0273588Y0220043D03*
X0272800Y0232799D03*
X0292013Y0232012D03*
X0296107Y0220043D03*
D135*
X0283588Y0220280D03*
X0273115Y0232720D03*
X0272958Y0232720D03*
X0251855Y0228756D03*
X0242328Y0229386D03*
X0242800Y0349169D03*
X0242958Y0357043D03*
X0282800Y0356858D03*
X0286107Y0348669D03*
D136*
X0263277Y0338622D03*
D137*
X0285477Y0348669D03*
X0285792Y0348669D03*
X0285950Y0348669D03*
X0274060Y0232563D03*
X0273903Y0232563D03*
X0242958Y0229701D03*
D138*
X0285635Y0349378D03*
D139*
X0285320Y0348669D03*
X0232032Y0325626D03*
X0231560Y0325626D03*
X0231088Y0325626D03*
X0242643Y0229543D03*
X0251698Y0228756D03*
X0273273Y0232720D03*
X0273430Y0232720D03*
X0273430Y0220280D03*
D140*
X0263430Y0220201D03*
X0242485Y0229465D03*
X0285162Y0356937D03*
D141*
X0233903Y0329937D03*
X0229217Y0329937D03*
D142*
X0229336Y0329937D03*
X0233784Y0329937D03*
D143*
X0233686Y0329937D03*
D144*
X0233568Y0329937D03*
D145*
X0233430Y0329937D03*
X0229651Y0329937D03*
D146*
X0229769Y0329937D03*
X0233312Y0329937D03*
D147*
X0233214Y0329937D03*
D148*
X0233115Y0328165D03*
D149*
X0233115Y0334189D03*
X0231225Y0334661D03*
D150*
X0232977Y0325862D03*
D151*
X0232977Y0331118D03*
D152*
X0232840Y0325862D03*
X0232761Y0325744D03*
X0232643Y0325744D03*
D153*
X0230753Y0327161D03*
X0230753Y0328461D03*
X0230832Y0328461D03*
X0232840Y0328461D03*
D154*
X0232840Y0331118D03*
D155*
X0232840Y0334484D03*
X0232761Y0334602D03*
X0232643Y0334602D03*
X0232367Y0334720D03*
X0232170Y0334839D03*
X0231895Y0334839D03*
X0231777Y0334839D03*
X0231698Y0334839D03*
X0230832Y0325154D03*
D156*
X0230950Y0328520D03*
X0231225Y0328520D03*
X0231343Y0328520D03*
X0231422Y0328520D03*
X0231698Y0328520D03*
X0231777Y0328520D03*
X0231895Y0328520D03*
X0232170Y0328520D03*
X0232288Y0328520D03*
X0232367Y0328520D03*
X0232643Y0328520D03*
X0232761Y0328520D03*
X0232367Y0331118D03*
X0232288Y0331118D03*
X0231698Y0331236D03*
D157*
X0231698Y0332299D03*
X0231895Y0332417D03*
X0232170Y0332417D03*
X0232761Y0331118D03*
X0232170Y0329819D03*
X0231777Y0329819D03*
X0231698Y0329819D03*
D158*
X0232643Y0331118D03*
X0232288Y0332417D03*
X0230477Y0328402D03*
X0230399Y0328402D03*
D159*
X0232505Y0325685D03*
D160*
X0232505Y0328520D03*
X0232032Y0328520D03*
X0231560Y0328520D03*
X0231088Y0328520D03*
D161*
X0232505Y0334720D03*
X0232032Y0334839D03*
D162*
X0232288Y0325685D03*
X0232367Y0325685D03*
D163*
X0230832Y0327161D03*
X0230280Y0328343D03*
X0232288Y0329760D03*
X0231777Y0332358D03*
D164*
X0232288Y0334780D03*
X0230005Y0325449D03*
X0230753Y0325094D03*
D165*
X0230950Y0325626D03*
X0231225Y0325626D03*
X0231343Y0325626D03*
X0231422Y0325626D03*
X0231698Y0325626D03*
X0231777Y0325626D03*
X0231895Y0325626D03*
X0232170Y0325626D03*
D166*
X0232170Y0331177D03*
X0231895Y0331177D03*
X0231777Y0331177D03*
D167*
X0232032Y0331177D03*
D168*
X0232032Y0332417D03*
X0230143Y0328283D03*
D169*
X0231895Y0329878D03*
D170*
X0231560Y0331768D03*
D171*
X0231560Y0334780D03*
D172*
X0231422Y0331650D03*
X0231343Y0331531D03*
X0230832Y0330823D03*
D173*
X0231422Y0334780D03*
D174*
X0231343Y0334720D03*
D175*
X0231225Y0331354D03*
D176*
X0231088Y0331177D03*
D177*
X0231088Y0334602D03*
D178*
X0230950Y0331059D03*
X0230005Y0328224D03*
D179*
X0230832Y0334425D03*
X0230950Y0334543D03*
D180*
X0230753Y0330409D03*
D181*
X0230753Y0334307D03*
D182*
X0230477Y0334780D03*
X0230399Y0334780D03*
X0230280Y0325213D03*
X0230399Y0325094D03*
X0230477Y0325094D03*
D183*
X0230477Y0330350D03*
X0230399Y0330350D03*
X0230280Y0330350D03*
D184*
X0230005Y0330350D03*
X0230005Y0334602D03*
X0230280Y0334720D03*
D185*
X0230143Y0334720D03*
D186*
X0229887Y0329937D03*
D187*
X0229572Y0329937D03*
D188*
X0229454Y0329937D03*
D189*
X0261698Y0225555D03*
X0266422Y0225555D03*
X0271068Y0225555D03*
X0277052Y0225555D03*
X0280910Y0225713D03*
X0281068Y0225713D03*
X0281225Y0225713D03*
X0281383Y0225713D03*
X0281540Y0225713D03*
X0281698Y0225713D03*
X0281855Y0225713D03*
X0286265Y0225713D03*
X0286422Y0225713D03*
X0286580Y0225713D03*
X0286737Y0225713D03*
X0286895Y0225713D03*
X0287052Y0225713D03*
X0287210Y0225713D03*
D190*
X0286107Y0225713D03*
X0266107Y0229492D03*
D191*
X0271698Y0226028D03*
X0276422Y0226028D03*
X0290910Y0226028D03*
X0291068Y0226028D03*
X0291225Y0226028D03*
X0291383Y0226028D03*
X0291540Y0226028D03*
X0291698Y0226028D03*
X0291855Y0226028D03*
X0296265Y0226028D03*
X0296422Y0226028D03*
X0296580Y0226028D03*
X0296737Y0226028D03*
X0296895Y0226028D03*
X0297052Y0226028D03*
X0297210Y0226028D03*
D192*
X0296107Y0228154D03*
X0255477Y0224189D03*
X0247210Y0224031D03*
X0240910Y0224031D03*
D193*
X0270910Y0225319D03*
X0277210Y0225319D03*
D194*
X0276895Y0225713D03*
X0271225Y0225713D03*
D195*
X0271383Y0225870D03*
X0276737Y0225870D03*
D196*
X0276580Y0225949D03*
X0271540Y0225949D03*
D197*
X0271855Y0226106D03*
X0276265Y0226106D03*
D198*
X0276107Y0227996D03*
D199*
X0275950Y0231854D03*
X0275635Y0232012D03*
X0275320Y0232169D03*
X0274847Y0232327D03*
X0244217Y0229937D03*
X0244060Y0229937D03*
X0243903Y0229937D03*
X0243745Y0229937D03*
X0243588Y0229937D03*
D200*
X0243430Y0229858D03*
X0244375Y0230016D03*
X0274532Y0232406D03*
X0274690Y0232406D03*
X0275005Y0232248D03*
X0275162Y0232248D03*
X0275477Y0232091D03*
X0275792Y0231933D03*
D201*
X0274375Y0232484D03*
X0274217Y0232484D03*
X0243273Y0229780D03*
X0243115Y0229780D03*
D202*
X0242800Y0229622D03*
X0273588Y0232642D03*
X0273745Y0232642D03*
D203*
X0267210Y0224846D03*
X0260910Y0224846D03*
X0245477Y0224976D03*
D204*
X0261068Y0225083D03*
X0267052Y0225083D03*
D205*
X0266895Y0225240D03*
X0261225Y0225240D03*
D206*
X0261383Y0225398D03*
X0266737Y0225398D03*
D207*
X0266580Y0225476D03*
X0261540Y0225476D03*
D208*
X0261855Y0225634D03*
X0266265Y0225634D03*
D209*
X0265950Y0230752D03*
X0265792Y0230752D03*
X0265635Y0230909D03*
X0265477Y0230909D03*
D210*
X0265320Y0230988D03*
X0265162Y0230988D03*
X0265005Y0230988D03*
X0263115Y0230988D03*
X0262958Y0230988D03*
X0262800Y0230988D03*
D211*
X0263273Y0231067D03*
X0263430Y0231067D03*
X0263588Y0231067D03*
X0263745Y0231067D03*
X0263903Y0231067D03*
X0264060Y0231067D03*
X0264217Y0231067D03*
X0264375Y0231067D03*
X0264532Y0231067D03*
X0264690Y0231067D03*
X0264847Y0231067D03*
D212*
X0257210Y0225055D03*
X0250910Y0225055D03*
X0245635Y0224898D03*
D213*
X0251068Y0224976D03*
X0257052Y0224976D03*
D214*
X0256895Y0224898D03*
X0251225Y0224898D03*
D215*
X0251383Y0224819D03*
X0256737Y0224819D03*
D216*
X0255635Y0224268D03*
X0247052Y0224110D03*
X0241068Y0224110D03*
D217*
X0255320Y0224110D03*
D218*
X0255162Y0224031D03*
D219*
X0251540Y0224740D03*
D220*
X0246895Y0224268D03*
X0241225Y0224268D03*
D221*
X0241383Y0224346D03*
X0246737Y0224346D03*
D222*
X0245320Y0225055D03*
D223*
X0245162Y0225134D03*
D224*
X0241540Y0224425D03*
D225*
X0257477Y0432230D02*
X0257477Y0433381D01*
X0257861Y0433765D01*
X0259395Y0433765D01*
X0259779Y0433381D01*
X0259779Y0432230D01*
X0257477Y0432230D01*
X0257477Y0434809D02*
X0257477Y0436343D01*
X0257477Y0435576D02*
X0259779Y0435576D01*
X0259012Y0434809D01*
X0259012Y0437387D02*
X0259779Y0438154D01*
X0257477Y0438154D01*
X0257477Y0437387D02*
X0257477Y0438921D01*
X0265351Y0438538D02*
X0265351Y0437770D01*
X0265735Y0437387D01*
X0266502Y0438154D02*
X0266502Y0438538D01*
X0266118Y0438921D01*
X0265735Y0438921D01*
X0265351Y0438538D01*
X0266502Y0438538D02*
X0266886Y0438921D01*
X0267269Y0438921D01*
X0267653Y0438538D01*
X0267653Y0437770D01*
X0267269Y0437387D01*
X0267653Y0435576D02*
X0265351Y0435576D01*
X0265351Y0434809D02*
X0265351Y0436343D01*
X0266886Y0434809D02*
X0267653Y0435576D01*
X0267269Y0433765D02*
X0267653Y0433381D01*
X0267653Y0432230D01*
X0265351Y0432230D01*
X0265351Y0433381D01*
X0265735Y0433765D01*
X0267269Y0433765D01*
X0273225Y0433765D02*
X0273992Y0432998D01*
X0273992Y0433381D02*
X0273992Y0432230D01*
X0273225Y0432230D02*
X0275527Y0432230D01*
X0275527Y0433381D01*
X0275143Y0433765D01*
X0274376Y0433765D01*
X0273992Y0433381D01*
X0273225Y0434809D02*
X0274760Y0436343D01*
X0275143Y0437387D02*
X0275527Y0437770D01*
X0275527Y0438538D01*
X0275143Y0438921D01*
X0274760Y0438921D01*
X0274376Y0438538D01*
X0273992Y0438921D01*
X0273609Y0438921D01*
X0273225Y0438538D01*
X0273225Y0437770D01*
X0273609Y0437387D01*
X0274376Y0438154D02*
X0274376Y0438538D01*
X0273225Y0436343D02*
X0274760Y0434809D01*
X0281099Y0434809D02*
X0282634Y0436343D01*
X0283017Y0437387D02*
X0283401Y0437770D01*
X0283401Y0438538D01*
X0283017Y0438921D01*
X0282634Y0438921D01*
X0281099Y0437387D01*
X0281099Y0438921D01*
X0281099Y0436343D02*
X0282634Y0434809D01*
X0283017Y0433765D02*
X0282250Y0433765D01*
X0281866Y0433381D01*
X0281866Y0432230D01*
X0281099Y0432230D02*
X0283401Y0432230D01*
X0283401Y0433381D01*
X0283017Y0433765D01*
X0281866Y0432998D02*
X0281099Y0433765D01*
X0288973Y0433765D02*
X0289740Y0432998D01*
X0289740Y0433381D02*
X0289740Y0432230D01*
X0288973Y0432230D02*
X0291275Y0432230D01*
X0291275Y0433381D01*
X0290891Y0433765D01*
X0290124Y0433765D01*
X0289740Y0433381D01*
X0288973Y0434809D02*
X0290508Y0436343D01*
X0290508Y0437387D02*
X0291275Y0438154D01*
X0288973Y0438154D01*
X0288973Y0437387D02*
X0288973Y0438921D01*
X0288973Y0436343D02*
X0290508Y0434809D01*
X0296847Y0435192D02*
X0296847Y0435959D01*
X0297231Y0436343D01*
X0296847Y0437387D02*
X0296847Y0438921D01*
X0296847Y0437387D02*
X0299149Y0437387D01*
X0298765Y0436343D02*
X0299149Y0435959D01*
X0299149Y0435192D01*
X0298765Y0434809D01*
X0297231Y0434809D01*
X0296847Y0435192D01*
X0297231Y0433765D02*
X0296847Y0433381D01*
X0296847Y0432614D01*
X0297231Y0432230D01*
X0297998Y0432614D02*
X0297998Y0433381D01*
X0297614Y0433765D01*
X0297231Y0433765D01*
X0297998Y0432614D02*
X0298382Y0432230D01*
X0298765Y0432230D01*
X0299149Y0432614D01*
X0299149Y0433381D01*
X0298765Y0433765D01*
X0304721Y0433381D02*
X0305105Y0433765D01*
X0306639Y0433765D01*
X0307023Y0433381D01*
X0307023Y0432230D01*
X0304721Y0432230D01*
X0304721Y0433381D01*
X0304721Y0434809D02*
X0306256Y0436343D01*
X0306639Y0436343D01*
X0307023Y0435959D01*
X0307023Y0435192D01*
X0306639Y0434809D01*
X0304721Y0434809D02*
X0304721Y0436343D01*
X0305105Y0437387D02*
X0304721Y0437770D01*
X0304721Y0438538D01*
X0305105Y0438921D01*
X0305488Y0438921D01*
X0305872Y0438538D01*
X0305872Y0438154D01*
X0305872Y0438538D02*
X0306256Y0438921D01*
X0306639Y0438921D01*
X0307023Y0438538D01*
X0307023Y0437770D01*
X0306639Y0437387D01*
X0312595Y0437770D02*
X0312979Y0437387D01*
X0312595Y0437770D02*
X0312595Y0438538D01*
X0312979Y0438921D01*
X0313746Y0438921D01*
X0314130Y0438538D01*
X0314130Y0438154D01*
X0313746Y0437387D01*
X0314897Y0437387D01*
X0314897Y0438921D01*
X0314513Y0436343D02*
X0314897Y0435959D01*
X0314897Y0435192D01*
X0314513Y0434809D01*
X0314513Y0433765D02*
X0314897Y0433381D01*
X0314897Y0432230D01*
X0312595Y0432230D01*
X0312595Y0433381D01*
X0312979Y0433765D01*
X0314513Y0433765D01*
X0312595Y0434809D02*
X0314130Y0436343D01*
X0314513Y0436343D01*
X0312595Y0436343D02*
X0312595Y0434809D01*
X0320469Y0434809D02*
X0322004Y0436343D01*
X0322387Y0436343D01*
X0322771Y0435959D01*
X0322771Y0435192D01*
X0322387Y0434809D01*
X0322387Y0433765D02*
X0320853Y0433765D01*
X0320469Y0433381D01*
X0320469Y0432230D01*
X0322771Y0432230D01*
X0322771Y0433381D01*
X0322387Y0433765D01*
X0320469Y0434809D02*
X0320469Y0436343D01*
X0320469Y0437387D02*
X0320853Y0437387D01*
X0322387Y0438921D01*
X0322771Y0438921D01*
X0322771Y0437387D01*
X0328343Y0437770D02*
X0328343Y0438538D01*
X0328727Y0438921D01*
X0330261Y0438921D01*
X0330645Y0438538D01*
X0330645Y0437770D01*
X0330261Y0437387D01*
X0329878Y0437387D01*
X0329494Y0437770D01*
X0329494Y0438921D01*
X0328343Y0437770D02*
X0328727Y0437387D01*
X0328343Y0436343D02*
X0328343Y0434809D01*
X0329878Y0436343D01*
X0330261Y0436343D01*
X0330645Y0435959D01*
X0330645Y0435192D01*
X0330261Y0434809D01*
X0330261Y0433765D02*
X0330645Y0433381D01*
X0330645Y0432230D01*
X0328343Y0432230D01*
X0328343Y0433381D01*
X0328727Y0433765D01*
X0330261Y0433765D01*
X0336217Y0433381D02*
X0336601Y0433765D01*
X0336217Y0433381D02*
X0336217Y0432614D01*
X0336601Y0432230D01*
X0338135Y0432230D01*
X0338519Y0432614D01*
X0338519Y0433381D01*
X0338135Y0433765D01*
X0338135Y0434809D02*
X0337752Y0434809D01*
X0337368Y0435192D01*
X0337368Y0435959D01*
X0336984Y0436343D01*
X0336601Y0436343D01*
X0336217Y0435959D01*
X0336217Y0435192D01*
X0336601Y0434809D01*
X0338135Y0434809D02*
X0338519Y0435192D01*
X0338519Y0435959D01*
X0338135Y0436343D01*
X0338135Y0437387D02*
X0338519Y0437770D01*
X0338519Y0438538D01*
X0338135Y0438921D01*
X0337752Y0438921D01*
X0336217Y0437387D01*
X0336217Y0438921D01*
X0344091Y0438921D02*
X0344091Y0437387D01*
X0344091Y0438154D02*
X0346393Y0438154D01*
X0345626Y0437387D01*
X0345242Y0436343D02*
X0344475Y0436343D01*
X0344091Y0435959D01*
X0344091Y0435192D01*
X0344475Y0434809D01*
X0345242Y0434809D02*
X0345626Y0435576D01*
X0345626Y0435959D01*
X0345242Y0436343D01*
X0346393Y0436343D02*
X0346393Y0434809D01*
X0345242Y0434809D01*
X0344475Y0433765D02*
X0346009Y0433765D01*
X0346393Y0433381D01*
X0346393Y0432230D01*
X0344091Y0432230D01*
X0344091Y0433381D01*
X0344475Y0433765D01*
X0351965Y0433381D02*
X0352349Y0433765D01*
X0353883Y0433765D01*
X0354267Y0433381D01*
X0354267Y0432230D01*
X0351965Y0432230D01*
X0351965Y0433381D01*
X0352349Y0434809D02*
X0351965Y0435192D01*
X0351965Y0435959D01*
X0352349Y0436343D01*
X0353116Y0436343D01*
X0353500Y0435959D01*
X0353500Y0435576D01*
X0353116Y0434809D01*
X0354267Y0434809D01*
X0354267Y0436343D01*
X0353883Y0437387D02*
X0354267Y0437770D01*
X0354267Y0438538D01*
X0353883Y0438921D01*
X0353500Y0438921D01*
X0353116Y0438538D01*
X0352732Y0438921D01*
X0352349Y0438921D01*
X0351965Y0438538D01*
X0351965Y0437770D01*
X0352349Y0437387D01*
X0353116Y0438154D02*
X0353116Y0438538D01*
X0220409Y0438538D02*
X0220409Y0437770D01*
X0220025Y0437387D01*
X0220409Y0438538D02*
X0220025Y0438921D01*
X0219641Y0438921D01*
X0218107Y0437387D01*
X0218107Y0438921D01*
X0218107Y0436343D02*
X0218107Y0434809D01*
X0218107Y0435576D02*
X0220409Y0435576D01*
X0219641Y0434809D01*
X0219641Y0433765D02*
X0218107Y0433765D01*
X0219258Y0433765D02*
X0219258Y0432230D01*
X0219641Y0432230D02*
X0220409Y0432998D01*
X0219641Y0433765D01*
X0219641Y0432230D02*
X0218107Y0432230D01*
X0212535Y0432998D02*
X0211767Y0433765D01*
X0210233Y0433765D01*
X0210233Y0434809D02*
X0210233Y0436343D01*
X0210233Y0435576D02*
X0212535Y0435576D01*
X0211767Y0434809D01*
X0211384Y0433765D02*
X0211384Y0432230D01*
X0211767Y0432230D02*
X0212535Y0432998D01*
X0211767Y0432230D02*
X0210233Y0432230D01*
X0210616Y0437387D02*
X0212151Y0438921D01*
X0210616Y0438921D01*
X0210233Y0438538D01*
X0210233Y0437770D01*
X0210616Y0437387D01*
X0212151Y0437387D01*
X0212535Y0437770D01*
X0212535Y0438538D01*
X0212151Y0438921D01*
X0149543Y0438921D02*
X0147241Y0438921D01*
X0148008Y0438154D01*
X0147241Y0437387D01*
X0149543Y0437387D01*
X0148775Y0436343D02*
X0149543Y0435576D01*
X0148775Y0434809D01*
X0147241Y0434809D01*
X0147241Y0433765D02*
X0148008Y0432998D01*
X0148008Y0433381D02*
X0148008Y0432230D01*
X0147241Y0432230D02*
X0149543Y0432230D01*
X0149543Y0433381D01*
X0149159Y0433765D01*
X0148392Y0433765D01*
X0148008Y0433381D01*
X0148392Y0434809D02*
X0148392Y0436343D01*
X0148775Y0436343D02*
X0147241Y0436343D01*
X0125921Y0436343D02*
X0123619Y0436343D01*
X0125921Y0434809D01*
X0123619Y0434809D01*
X0124002Y0433765D02*
X0124770Y0433765D01*
X0124770Y0432998D01*
X0125537Y0433765D02*
X0125921Y0433381D01*
X0125921Y0432614D01*
X0125537Y0432230D01*
X0124002Y0432230D01*
X0123619Y0432614D01*
X0123619Y0433381D01*
X0124002Y0433765D01*
X0123619Y0437387D02*
X0123619Y0438538D01*
X0124002Y0438921D01*
X0125537Y0438921D01*
X0125921Y0438538D01*
X0125921Y0437387D01*
X0123619Y0437387D01*
D226*
X0155455Y0437015D02*
X0155455Y0436348D01*
X0155455Y0436681D02*
X0157457Y0436681D01*
X0157457Y0436348D02*
X0157457Y0437015D01*
X0157457Y0437821D02*
X0155455Y0437821D01*
X0155455Y0439155D01*
X0155455Y0435472D02*
X0156790Y0435472D01*
X0157457Y0434805D01*
X0156790Y0434138D01*
X0155455Y0434138D01*
X0156456Y0434138D02*
X0156456Y0435472D01*
X0157457Y0433262D02*
X0157457Y0431928D01*
X0155455Y0431928D01*
X0156456Y0431928D02*
X0156456Y0432595D01*
X0162231Y0431944D02*
X0164232Y0431944D01*
X0164232Y0433279D01*
X0163565Y0434154D02*
X0164232Y0434821D01*
X0163565Y0435489D01*
X0162231Y0435489D01*
X0162231Y0436364D02*
X0162231Y0437031D01*
X0162231Y0436698D02*
X0164232Y0436698D01*
X0164232Y0437031D02*
X0164232Y0436364D01*
X0163231Y0435489D02*
X0163231Y0434154D01*
X0163565Y0434154D02*
X0162231Y0434154D01*
X0163231Y0432611D02*
X0163231Y0431944D01*
X0165631Y0432067D02*
X0167633Y0432067D01*
X0167633Y0433068D01*
X0167299Y0433402D01*
X0166632Y0433402D01*
X0166298Y0433068D01*
X0166298Y0432067D01*
X0167633Y0434277D02*
X0167633Y0435612D01*
X0167633Y0434944D02*
X0165631Y0434944D01*
X0164232Y0437837D02*
X0162231Y0437837D01*
X0162231Y0439172D01*
M02*
